<svg version="1.1" xmlns="http://www.w3.org/2000/svg" xmlns:xlink="http://www.w3.org/1999/xlink" width="1998.4000297784805" height="572.8000085353851"><defs/><g><rect fill="#ffffff" stroke="none" x="0" y="0" width="1998.4000297784805" height="572.8000085353851"/><g transform="translate(-51.20000076293945,-96.48000143766404) scale(1.600000023841858,1.600000023841858)"><path fill="rgb(100,100,100)" stroke="rgb(136,136,136)" paint-order="fill stroke markers" d=" M 139.5 77.30000000000001 L 237 77.30000000000001 L 237 77.30000000000001 A 8 8 0 0 1 245 85.30000000000001 L 245 325.3 L 245 325.3 A 8 8 0 0 1 237 333.3 L 42 333.3 L 42 333.3 A 8 8 0 0 1 34 325.3 L 34 85.30000000000001 L 34 85.30000000000001 A 8 8 0 0 1 42 77.30000000000001 L 139.5 77.30000000000001 Z" fill-opacity="1" stroke-opacity="1" stroke-miterlimit="10" stroke-width="2" stroke-dasharray="4,2"/><text fill="none" stroke="rgb(0,0,0)" font-family="Helvetica Neue, Helvetica, sans-serif" font-size="12px" font-style="normal" font-weight="normal" text-decoration="normal" x="139.5" y="77.30000000000001" text-anchor="middle" dominant-baseline="text-after-edge" stroke-opacity="1" stroke-linejoin="round" stroke-miterlimit="10" stroke-width="4">Initial State</text><text fill="rgb(204,204,204)" stroke="none" font-family="Helvetica Neue, Helvetica, sans-serif" font-size="12px" font-style="normal" font-weight="normal" text-decoration="normal" x="139.5" y="77.30000000000001" text-anchor="middle" dominant-baseline="text-after-edge" fill-opacity="1">Initial State</text><path fill="rgb(234,179,8)" stroke="rgb(234,179,8)" paint-order="fill stroke markers" d=" M 858.5 102.41666666666666 L 905.5 102.41666666666666 L 905.5 102.41666666666666 A 8 8 0 0 1 913.5 110.41666666666666 L 913.5 259.41666666666663 L 913.5 259.41666666666663 A 8 8 0 0 1 905.5 267.41666666666663 L 811.5 267.41666666666663 L 811.5 267.41666666666663 A 8 8 0 0 1 803.5 259.41666666666663 L 803.5 110.41666666666666 L 803.5 110.41666666666666 A 8 8 0 0 1 811.5 102.41666666666666 L 858.5 102.41666666666666 Z" fill-opacity="1" stroke-opacity="1" stroke-miterlimit="10" stroke-width="2" stroke-dasharray="4,2"/><text fill="none" stroke="rgb(0,0,0)" font-family="Helvetica Neue, Helvetica, sans-serif" font-size="10px" font-style="normal" font-weight="normal" text-decoration="normal" x="858.5" y="102.41666666666666" text-anchor="middle" dominant-baseline="text-after-edge" stroke-opacity="1" stroke-linejoin="round" stroke-miterlimit="10" stroke-width="2">→ EX:Y, PR:H (×3)</text><text fill="rgb(234,179,8)" stroke="none" font-family="Helvetica Neue, Helvetica, sans-serif" font-size="10px" font-style="normal" font-weight="normal" text-decoration="normal" x="858.5" y="102.41666666666666" text-anchor="middle" dominant-baseline="text-after-edge" fill-opacity="1">→ EX:Y, PR:H (×3)</text><path fill="none" stroke="rgb(203,143,255)" paint-order="fill stroke markers" d=" M 557.94907850129 191.12167869898067 L 652.0605552957632 198.11881452013108" stroke-opacity="0.9" stroke-linejoin="round" stroke-miterlimit="10" stroke-width="3" stroke-dasharray="6,3"/><path fill="rgb(255,255,255)" stroke="none" paint-order="stroke fill markers" d=" M 649.0454572258146 202.256650141394 L 658.0440402151005 198.56368328736806 L 649.6905169383082 193.58059700835489 Z" fill-opacity="1"/><path fill="rgb(203,143,255)" stroke="none" paint-order="stroke fill markers" d=" M 649.0454572258146 202.256650141394 L 658.0440402151005 198.56368328736806 L 649.6905169383082 193.58059700835489 Z" fill-opacity="0.9"/><path fill="none" stroke="rgb(203,143,255)" paint-order="fill stroke markers" d=" M 556.7430296806361 196.45282980782747 L 1027.3116416425232 379.3755166734784" stroke-opacity="0.9" stroke-linejoin="round" stroke-miterlimit="10" stroke-width="3" stroke-dasharray="6,3"/><path fill="rgb(255,255,255)" stroke="none" paint-order="stroke fill markers" d=" M 1023.2190205721574 382.45170795075586 L 1032.9039755929998 381.549407421963 L 1026.37116215746 374.34282372256484 Z" fill-opacity="1"/><path fill="rgb(203,143,255)" stroke="none" paint-order="stroke fill markers" d=" M 1023.2190205721574 382.45170795075586 L 1032.9039755929998 381.549407421963 L 1026.37116215746 374.34282372256484 Z" fill-opacity="0.9"/><path fill="none" stroke="rgb(0,255,136)" paint-order="fill stroke markers" d=" M 1070.1948029704145 239.2548179121359 L 1188.4771942822392 301.3716712111129" stroke-opacity="0.7" stroke-linejoin="round" stroke-miterlimit="10" stroke-width="2"/><path fill="rgb(255,255,255)" stroke="none" paint-order="stroke fill markers" d=" M 1182.2935912946152 303.03767063831816 L 1192.018556701031 303.23144329896905 L 1186.3385955857023 295.3352073774459 Z" fill-opacity="1"/><path fill="rgb(0,255,136)" stroke="none" paint-order="stroke fill markers" d=" M 1182.2935912946152 303.03767063831816 L 1192.018556701031 303.23144329896905 L 1186.3385955857023 295.3352073774459 Z" fill-opacity="0.7"/><path fill="none" stroke="rgb(0,255,136)" paint-order="fill stroke markers" d=" M 1072.7795533290096 380.8326649286779 L 1187.6894416829368 326.2685355530708" stroke-opacity="0.25" stroke-linejoin="round" stroke-miterlimit="10" stroke-width="2"/><path fill="rgb(255,255,255)" stroke="none" paint-order="stroke fill markers" d=" M 1185.3096717523906 332.21405446042183 L 1191.3027718550106 324.55277185501063 L 1181.5778857091098 324.3550613361613 Z" fill-opacity="1"/><path fill="rgb(0,255,136)" stroke="none" paint-order="stroke fill markers" d=" M 1185.3096717523906 332.21405446042183 L 1191.3027718550106 324.55277185501063 L 1181.5778857091098 324.3550613361613 Z" fill-opacity="0.25"/><path fill="none" stroke="rgb(255,0,102)" paint-order="fill stroke markers" d=" M 79.4447463715879 129.9740299171535 L 182.3918421738333 196.39151107989244" stroke-opacity="0.7" stroke-linejoin="round" stroke-miterlimit="10" stroke-width="2"/><path fill="rgb(255,255,255)" stroke="none" paint-order="stroke fill markers" d=" M 176.08419604345323 197.49880521150408 L 185.75302876673027 198.56001855918083 L 180.80069981090546 190.18822437195317 Z" fill-opacity="1"/><path fill="rgb(255,0,102)" stroke="none" paint-order="stroke fill markers" d=" M 176.08419604345323 197.49880521150408 L 185.75302876673027 198.56001855918083 L 180.80069981090546 190.18822437195317 Z" fill-opacity="0.7"/><path fill="none" stroke="rgb(255,0,102)" paint-order="fill stroke markers" d=" M 81.2273378841688 171.21204447876414 L 179.32801301158483 202.85742355212415" stroke-opacity="0.7" stroke-linejoin="round" stroke-miterlimit="10" stroke-width="2"/><path fill="rgb(255,255,255)" stroke="none" paint-order="stroke fill markers" d=" M 173.51952041544624 205.55444297374558 L 183.13484748262704 204.0854346718152 L 176.19044460077424 197.2745779992288 Z" fill-opacity="1"/><path fill="rgb(255,0,102)" stroke="none" paint-order="stroke fill markers" d=" M 173.51952041544624 205.55444297374558 L 183.13484748262704 204.0854346718152 L 176.19044460077424 197.2745779992288 Z" fill-opacity="0.7"/><path fill="none" stroke="rgb(255,102,0)" paint-order="fill stroke markers" d=" M 228.98806970404166 212.04871995971754 L 375.012691804211 216.70348940455582" stroke-opacity="0.7" stroke-linejoin="round" stroke-miterlimit="10" stroke-width="2"/><path fill="rgb(255,255,255)" stroke="none" paint-order="stroke fill markers" d=" M 370.1764850197954 220.9015370386796 L 379.01066111553723 216.8309310998269 L 370.45367070700996 212.20595378654502 Z" fill-opacity="1"/><path fill="rgb(255,102,0)" stroke="none" paint-order="stroke fill markers" d=" M 370.1764850197954 220.9015370386796 L 379.01066111553723 216.8309310998269 L 370.45367070700996 212.20595378654502 Z" fill-opacity="0.7"/><path fill="none" stroke="rgb(203,143,255)" paint-order="fill stroke markers" d=" M 555.8100827797891 181.0189519691835 L 654.604225883494 128.13286792853856" stroke-opacity="0.9" stroke-linejoin="round" stroke-miterlimit="10" stroke-width="3" stroke-dasharray="6,3"/><path fill="rgb(255,255,255)" stroke="none" paint-order="stroke fill markers" d=" M 654.2768115823384 133.24220251098652 L 659.8939824607229 125.30117667530077 L 650.1708592651436 125.57205547400459 Z" fill-opacity="1"/><path fill="rgb(203,143,255)" stroke="none" paint-order="stroke fill markers" d=" M 654.2768115823384 133.24220251098652 L 659.8939824607229 125.30117667530077 L 650.1708592651436 125.57205547400459 Z" fill-opacity="0.9"/><path fill="none" stroke="rgb(255,0,102)" paint-order="fill stroke markers" d=" M 81.2273378841688 251.38795552123588 L 179.32801301158483 219.74257644787588" stroke-opacity="0.7" stroke-linejoin="round" stroke-miterlimit="10" stroke-width="2"/><path fill="rgb(255,255,255)" stroke="none" paint-order="stroke fill markers" d=" M 176.19044460077424 225.32542200077123 L 183.13484748262704 218.51456532818483 L 173.51952041544624 217.04555702625444 Z" fill-opacity="1"/><path fill="rgb(255,0,102)" stroke="none" paint-order="stroke fill markers" d=" M 176.19044460077424 225.32542200077123 L 183.13484748262704 218.51456532818483 L 173.51952041544624 217.04555702625444 Z" fill-opacity="0.7"/><path fill="none" stroke="rgb(255,0,102)" paint-order="fill stroke markers" d=" M 79.4447463715879 292.6259700828465 L 182.3918421738333 226.20848892010758" stroke-opacity="0.7" stroke-linejoin="round" stroke-miterlimit="10" stroke-width="2"/><path fill="rgb(255,255,255)" stroke="none" paint-order="stroke fill markers" d=" M 180.80069981090546 232.41177562804685 L 185.75302876673027 224.0399814408192 L 176.08419604345323 225.10119478849595 Z" fill-opacity="1"/><path fill="rgb(255,0,102)" stroke="none" paint-order="stroke fill markers" d=" M 180.80069981090546 232.41177562804685 L 185.75302876673027 224.0399814408192 L 176.08419604345323 225.10119478849595 Z" fill-opacity="0.7"/><path fill="none" stroke="rgb(255,153,119)" paint-order="fill stroke markers" d=" M 420.596442161775 213.40285827964692 L 515.4708174779291 194.5299986737453" stroke-opacity="0.9" stroke-linejoin="round" stroke-miterlimit="10" stroke-width="3" stroke-dasharray="6,3"/><path fill="rgb(255,255,255)" stroke="none" paint-order="stroke fill markers" d=" M 513.6713971277741 199.32317991415835 L 521.3555152384363 193.3593867536444 L 511.9740098436278 190.790368161423 Z" fill-opacity="1"/><path fill="rgb(255,153,119)" stroke="none" paint-order="stroke fill markers" d=" M 513.6713971277741 199.32317991415835 L 521.3555152384363 193.3593867536444 L 511.9740098436278 190.790368161423 Z" fill-opacity="0.9"/><path fill="none" stroke="rgb(0,255,255)" paint-order="fill stroke markers" d=" M 914.5 198.04539641943734 L 1023.1444257182843 223.51616971230024" stroke-opacity="0.7" stroke-linejoin="round" stroke-miterlimit="10" stroke-width="2"/><path fill="rgb(255,255,255)" stroke="none" paint-order="stroke fill markers" d=" M 1017.5755971406095 226.67854987168528 L 1027.03883332654 224.429180873656 L 1019.5613964165583 218.20821332372915 Z" fill-opacity="1"/><path fill="rgb(0,255,255)" stroke="none" paint-order="stroke fill markers" d=" M 1017.5755971406095 226.67854987168528 L 1027.03883332654 224.429180873656 L 1019.5613964165583 218.20821332372915 Z" fill-opacity="0.7"/><path fill="none" stroke="rgb(0,255,255)" paint-order="fill stroke markers" d=" M 420.9471724502836 216.0113877811594 L 798.5100623904221 189.17985561711103" stroke-opacity="0.7" stroke-linejoin="round" stroke-miterlimit="10" stroke-width="2"/><path fill="rgb(255,255,255)" stroke="none" paint-order="stroke fill markers" d=" M 794.1302410873567 193.85207835936268 L 802.5 188.89631043256998 L 793.5135303109798 185.1739640585309 Z" fill-opacity="1"/><path fill="rgb(0,255,255)" stroke="none" paint-order="stroke fill markers" d=" M 794.1302410873567 193.85207835936268 L 802.5 188.89631043256998 L 793.5135303109798 185.1739640585309 Z" fill-opacity="0.7"/><path fill="none" stroke="rgb(0,255,255)" paint-order="fill stroke markers" d=" M 689.9485393116662 198.46777777891754 L 798.5128651720835 189.73948057785418" stroke-opacity="0.7" stroke-linejoin="round" stroke-miterlimit="10" stroke-width="2"/><path fill="rgb(255,255,255)" stroke="none" paint-order="stroke fill markers" d=" M 794.1765859156383 194.4521424806564 L 802.5 189.41892502258355 L 793.4793775829247 185.78012422993788 Z" fill-opacity="1"/><path fill="rgb(0,255,255)" stroke="none" paint-order="stroke fill markers" d=" M 794.1765859156383 194.4521424806564 L 802.5 189.41892502258355 L 793.4793775829247 185.78012422993788 Z" fill-opacity="0.7"/><path fill="none" stroke="rgb(0,255,255)" paint-order="fill stroke markers" d=" M 689.0347110877805 123.22334107350996 L 798.7413222280549 163.1617008653172" stroke-opacity="0.7" stroke-linejoin="round" stroke-miterlimit="10" stroke-width="2"/><path fill="rgb(255,255,255)" stroke="none" paint-order="stroke fill markers" d=" M 792.8368112416589 165.64146900196394 L 802.5 164.53003613369467 L 795.8129404503799 157.46634484798332 Z" fill-opacity="1"/><path fill="rgb(0,255,255)" stroke="none" paint-order="stroke fill markers" d=" M 792.8368112416589 165.64146900196394 L 802.5 164.53003613369467 L 795.8129404503799 157.46634484798332 Z" fill-opacity="0.7"/><path fill="rgb(239,68,68)" stroke="rgb(0,0,0)" paint-order="fill stroke markers" d=" M 420 217.5 L 419.93834667466257 219.0691819145569 L 419.7537668119028 220.6286893008046 L 419.44739840795353 222.1689072771181 L 419.0211303259031 223.68033988749895 L 418.47759065022575 225.1536686473018 L 417.82013048376734 226.57980999479093 L 417.0528032870818 227.94997129431897 L 416.180339887499 229.25570504584945 L 415.20811931200063 230.48896096660368 L 414.14213562373095 231.64213562373095 L 412.98896096660366 232.70811931200063 L 411.7557050458495 233.68033988749895 L 410.44997129431897 234.55280328708184 L 409.07980999479093 235.32013048376734 L 407.6536686473018 235.97759065022575 L 406.180339887499 236.52113032590307 L 404.66890727711814 236.94739840795353 L 403.12868930080464 237.25376681190275 L 401.5691819145569 237.43834667466257 L 400 237.5 L 398.4308180854431 237.43834667466257 L 396.87131069919536 237.25376681190275 L 395.3310927228819 236.94739840795353 L 393.819660112501 236.52113032590307 L 392.3463313526982 235.97759065022575 L 390.92019000520907 235.32013048376734 L 389.55002870568103 234.55280328708184 L 388.2442949541505 233.68033988749895 L 387.01103903339634 232.70811931200063 L 385.85786437626905 231.64213562373095 L 384.79188068799937 230.48896096660368 L 383.8196601125011 229.25570504584945 L 382.9471967129182 227.94997129431897 L 382.17986951623266 226.57980999479093 L 381.52240934977425 225.1536686473018 L 380.9788696740969 223.68033988749895 L 380.55260159204647 222.1689072771181 L 380.2462331880972 220.6286893008046 L 380.06165332533743 219.0691819145569 L 380 217.5 L 380.06165332533743 215.9308180854431 L 380.2462331880972 214.3713106991954 L 380.55260159204647 212.8310927228819 L 380.9788696740969 211.31966011250105 L 381.52240934977425 209.8463313526982 L 382.17986951623266 208.42019000520907 L 382.9471967129181 207.05002870568103 L 383.819660112501 205.74429495415055 L 384.79188068799937 204.51103903339634 L 385.85786437626905 203.35786437626905 L 387.01103903339634 202.2918806879994 L 388.2442949541505 201.31966011250105 L 389.55002870568103 200.44719671291816 L 390.92019000520907 199.67986951623263 L 392.3463313526982 199.02240934977425 L 393.8196601125011 198.47886967409693 L 395.3310927228819 198.05260159204647 L 396.8713106991954 197.74623318809725 L 398.43081808544315 197.56165332533743 L 400.00000000000006 197.5 L 401.56918191455696 197.56165332533743 L 403.1286893008047 197.74623318809725 L 404.6689072771182 198.0526015920465 L 406.18033988749903 198.47886967409696 L 407.6536686473019 199.0224093497743 L 409.07980999479105 199.6798695162327 L 410.4499712943191 200.4471967129182 L 411.7557050458496 201.31966011250114 L 412.98896096660377 202.29188068799948 L 414.14213562373106 203.35786437626916 L 415.20811931200075 204.51103903339646 L 416.18033988749903 205.7442949541507 L 417.05280328708193 207.05002870568117 L 417.82013048376746 208.42019000520924 L 418.4775906502258 209.8463313526984 L 419.02113032590313 211.31966011250125 L 419.4473984079536 212.8310927228821 L 419.7537668119028 214.37131069919562 L 419.93834667466257 215.93081808544335 Z" fill-opacity="1" stroke-opacity="1" stroke-miterlimit="10" stroke-width="2"/><text fill="none" stroke="rgb(0,0,0)" font-family="Helvetica Neue, Helvetica, sans-serif" font-size="10px" font-style="normal" font-weight="normal" text-decoration="normal" x="400" y="197.5" text-anchor="middle" dominant-baseline="text-after-edge" stroke-opacity="1" stroke-linejoin="round" stroke-miterlimit="10" stroke-width="4">host_alpine_9eb953fb</text><text fill="rgb(255,255,255)" stroke="none" font-family="Helvetica Neue, Helvetica, sans-serif" font-size="10px" font-style="normal" font-weight="normal" text-decoration="normal" x="400" y="197.5" text-anchor="middle" dominant-baseline="text-after-edge" fill-opacity="1">host_alpine_9eb953fb</text><path fill="rgb(255,0,102)" stroke="rgb(0,0,0)" paint-order="fill stroke markers" d=" M 228 211.3 L 227.93064000899537 213.06532965387652 L 227.7229876633906 214.8197754634052 L 227.37832320894773 216.55252068675787 L 226.89877161664094 218.25288237343634 L 226.28728948150396 219.91037722821454 L 225.5476467942383 221.51478624413983 L 224.68440369796707 223.05621770610887 L 223.70288237343632 224.52516817658065 L 222.6091342260007 225.91258108742915 L 221.40990257669733 227.20990257669732 L 220.11258108742913 228.4091342260007 L 218.72516817658064 229.50288237343634 L 217.25621770610886 230.48440369796708 L 215.71478624413982 231.3476467942383 L 214.11037722821453 232.08728948150397 L 212.45288237343632 232.69877161664095 L 210.75252068675786 233.17832320894775 L 209.01977546340518 233.5229876633906 L 207.2653296538765 233.73064000899538 L 205.5 233.8 L 203.7346703461235 233.73064000899538 L 201.98022453659482 233.5229876633906 L 200.24747931324214 233.17832320894775 L 198.54711762656368 232.69877161664095 L 196.88962277178547 232.08728948150397 L 195.2852137558602 231.3476467942383 L 193.74378229389114 230.48440369796708 L 192.27483182341936 229.50288237343634 L 190.88741891257087 228.4091342260007 L 189.5900974233027 227.20990257669735 L 188.3908657739993 225.91258108742915 L 187.29711762656368 224.52516817658065 L 186.31559630203293 223.05621770610887 L 185.4523532057617 221.51478624413983 L 184.71271051849604 219.91037722821454 L 184.10122838335906 218.25288237343634 L 183.62167679105227 216.55252068675787 L 183.2770123366094 214.81977546340522 L 183.06935999100463 213.06532965387652 L 183 211.3 L 183.06935999100463 209.5346703461235 L 183.2770123366094 207.78022453659483 L 183.62167679105227 206.04747931324215 L 184.10122838335906 204.3471176265637 L 184.71271051849604 202.68962277178548 L 185.4523532057617 201.08521375586022 L 186.31559630203293 199.54378229389116 L 187.29711762656368 198.07483182341937 L 188.3908657739993 196.68741891257088 L 189.59009742330267 195.3900974233027 L 190.88741891257087 194.19086577399932 L 192.27483182341936 193.0971176265637 L 193.74378229389114 192.11559630203294 L 195.2852137558602 191.25235320576172 L 196.8896227717855 190.51271051849605 L 198.5471176265637 189.90122838335904 L 200.24747931324217 189.42167679105228 L 201.98022453659485 189.0770123366094 L 203.73467034612355 188.86935999100461 L 205.50000000000009 188.8 L 207.2653296538766 188.86935999100464 L 209.0197754634053 189.0770123366094 L 210.75252068675798 189.4216767910523 L 212.45288237343644 189.9012283833591 L 214.11037722821465 190.5127105184961 L 215.71478624413993 191.2523532057618 L 217.25621770610897 192.115596302033 L 218.72516817658078 193.09711762656377 L 220.11258108742925 194.19086577399943 L 221.40990257669745 195.39009742330282 L 222.6091342260008 196.68741891257102 L 223.70288237343644 198.07483182341952 L 224.68440369796718 199.54378229389133 L 225.54764679423837 201.0852137558604 L 226.28728948150405 202.6896227717857 L 226.89877161664103 204.34711762656391 L 227.3783232089478 206.04747931324238 L 227.72298766339065 207.78022453659506 L 227.9306400089954 209.53467034612376 Z" fill-opacity="1" stroke-opacity="1" stroke-miterlimit="10" stroke-width="2"/><text fill="none" stroke="rgb(0,0,0)" font-family="Helvetica Neue, Helvetica, sans-serif" font-size="10px" font-style="normal" font-weight="normal" text-decoration="normal" x="205.5" y="188.8" text-anchor="middle" dominant-baseline="text-after-edge" stroke-opacity="1" stroke-linejoin="round" stroke-miterlimit="10" stroke-width="4">Hacker</text><text fill="rgb(255,255,255)" stroke="none" font-family="Helvetica Neue, Helvetica, sans-serif" font-size="10px" font-style="normal" font-weight="normal" text-decoration="normal" x="205.5" y="188.8" text-anchor="middle" dominant-baseline="text-after-edge" fill-opacity="1">Hacker</text><path fill="rgb(99,102,241)" stroke="rgb(255,0,102)" paint-order="fill stroke markers" d=" M 81 166.3 L 80.95376000599691 167.4768864359177 L 80.81532510892707 168.64651697560348 L 80.58554880596515 169.8016804578386 L 80.2658477444273 170.93525491562423 L 79.8581929876693 172.04025148547635 L 79.36509786282552 173.1098574960932 L 78.78960246531139 174.13747847073924 L 78.13525491562422 175.11677878438712 L 77.40608948400046 176.04172072495277 L 76.60660171779821 176.90660171779822 L 75.74172072495276 177.70608948400047 L 74.8167787843871 178.43525491562423 L 73.83747847073923 179.0896024653114 L 72.8098574960932 179.66509786282552 L 71.74025148547635 180.1581929876693 L 70.63525491562422 180.56584774442732 L 69.50168045783859 180.88554880596516 L 68.34651697560346 181.11532510892707 L 67.17688643591768 181.25376000599692 L 66 181.3 L 64.82311356408232 181.25376000599692 L 63.653483024396536 181.11532510892707 L 62.49831954216142 180.88554880596516 L 61.36474508437579 180.56584774442732 L 60.25974851452365 180.1581929876693 L 59.1901425039068 179.66509786282552 L 58.16252152926077 179.0896024653114 L 57.1832212156129 178.43525491562423 L 56.258279275047244 177.70608948400047 L 55.39339828220179 176.90660171779822 L 54.59391051599954 176.04172072495277 L 53.86474508437579 175.11677878438712 L 53.21039753468862 174.13747847073924 L 52.634902137174485 173.1098574960932 L 52.1418070123307 172.04025148547635 L 51.734152255572695 170.93525491562423 L 51.414451194034854 169.8016804578386 L 51.18467489107294 168.64651697560348 L 51.04623999400308 167.4768864359177 L 51 166.3 L 51.04623999400308 165.12311356408233 L 51.18467489107293 163.95348302439655 L 51.414451194034854 162.79831954216144 L 51.734152255572695 161.6647450843758 L 52.141807012330695 160.55974851452368 L 52.63490213717448 159.4901425039068 L 53.21039753468862 158.46252152926078 L 53.864745084375784 157.48322121561293 L 54.59391051599953 156.55827927504725 L 55.39339828220179 155.6933982822018 L 56.25827927504724 154.89391051599955 L 57.1832212156129 154.1647450843758 L 58.16252152926077 153.51039753468862 L 59.190142503906806 152.93490213717448 L 60.25974851452367 152.4418070123307 L 61.36474508437581 152.0341522555727 L 62.49831954216145 151.71445119403487 L 63.65348302439657 151.48467489107293 L 64.82311356408238 151.3462399940031 L 66.00000000000006 151.3 L 67.17688643591774 151.3462399940031 L 68.34651697560352 151.48467489107296 L 69.50168045783865 151.71445119403487 L 70.63525491562429 152.03415225557274 L 71.74025148547642 152.44180701233074 L 72.80985749609329 152.93490213717453 L 73.83747847073931 153.51039753468868 L 74.81677878438718 154.16474508437585 L 75.74172072495284 154.8939105159996 L 76.6066017177983 155.69339828220188 L 77.40608948400055 156.55827927504734 L 78.13525491562429 157.483221215613 L 78.78960246531145 158.4625215292609 L 79.36509786282558 159.49014250390692 L 79.85819298766936 160.5597485145238 L 80.26584774442735 161.66474508437594 L 80.58554880596519 162.79831954216158 L 80.8153251089271 163.95348302439672 L 80.95376000599694 165.1231135640825 Z" fill-opacity="1" stroke-opacity="1" stroke-miterlimit="10" stroke-width="2"/><text fill="none" stroke="rgb(0,0,0)" font-family="Helvetica Neue, Helvetica, sans-serif" font-size="10px" font-style="normal" font-weight="normal" text-decoration="normal" x="66" y="151.3" text-anchor="middle" dominant-baseline="text-after-edge" stroke-opacity="1" stroke-linejoin="round" stroke-miterlimit="10" stroke-width="4">AV:N</text><text fill="rgb(255,255,255)" stroke="none" font-family="Helvetica Neue, Helvetica, sans-serif" font-size="10px" font-style="normal" font-weight="normal" text-decoration="normal" x="66" y="151.3" text-anchor="middle" dominant-baseline="text-after-edge" fill-opacity="1">AV:N</text><path fill="rgb(99,102,241)" stroke="rgb(255,0,102)" paint-order="fill stroke markers" d=" M 81 121.30000000000001 L 80.95376000599691 122.47688643591769 L 80.81532510892707 123.64651697560348 L 80.58554880596515 124.80168045783859 L 80.2658477444273 125.93525491562423 L 79.8581929876693 127.04025148547636 L 79.36509786282552 128.1098574960932 L 78.78960246531139 129.13747847073924 L 78.13525491562422 130.11677878438712 L 77.40608948400046 131.04172072495277 L 76.60660171779821 131.90660171779822 L 75.74172072495276 132.70608948400047 L 74.8167787843871 133.43525491562423 L 73.83747847073923 134.0896024653114 L 72.8098574960932 134.66509786282552 L 71.74025148547635 135.1581929876693 L 70.63525491562422 135.56584774442732 L 69.50168045783859 135.88554880596516 L 68.34651697560346 136.11532510892707 L 67.17688643591768 136.25376000599692 L 66 136.3 L 64.82311356408232 136.25376000599692 L 63.653483024396536 136.11532510892707 L 62.49831954216142 135.88554880596516 L 61.36474508437579 135.56584774442732 L 60.25974851452365 135.1581929876693 L 59.1901425039068 134.66509786282552 L 58.16252152926077 134.0896024653114 L 57.1832212156129 133.43525491562423 L 56.258279275047244 132.70608948400047 L 55.39339828220179 131.90660171779822 L 54.59391051599954 131.04172072495277 L 53.86474508437579 130.11677878438712 L 53.21039753468862 129.13747847073924 L 52.634902137174485 128.1098574960932 L 52.1418070123307 127.04025148547636 L 51.734152255572695 125.93525491562423 L 51.414451194034854 124.8016804578386 L 51.18467489107294 123.64651697560348 L 51.04623999400308 122.47688643591769 L 51 121.30000000000001 L 51.04623999400308 120.12311356408235 L 51.18467489107293 118.95348302439655 L 51.414451194034854 117.79831954216144 L 51.734152255572695 116.6647450843758 L 52.141807012330695 115.55974851452366 L 52.63490213717448 114.49014250390681 L 53.21039753468862 113.46252152926078 L 53.864745084375784 112.48322121561291 L 54.59391051599953 111.55827927504725 L 55.39339828220179 110.6933982822018 L 56.25827927504724 109.89391051599955 L 57.1832212156129 109.1647450843758 L 58.16252152926077 108.51039753468862 L 59.190142503906806 107.93490213717449 L 60.25974851452367 107.4418070123307 L 61.36474508437581 107.0341522555727 L 62.49831954216145 106.71445119403485 L 63.65348302439657 106.48467489107294 L 64.82311356408238 106.34623999400308 L 66.00000000000006 106.30000000000001 L 67.17688643591774 106.3462399940031 L 68.34651697560352 106.48467489107296 L 69.50168045783865 106.71445119403488 L 70.63525491562429 107.03415225557274 L 71.74025148547642 107.44180701233074 L 72.80985749609329 107.93490213717453 L 73.83747847073931 108.51039753468868 L 74.81677878438718 109.16474508437587 L 75.74172072495284 109.89391051599962 L 76.6066017177983 110.69339828220188 L 77.40608948400055 111.55827927504735 L 78.13525491562429 112.48322121561301 L 78.78960246531145 113.4625215292609 L 79.36509786282558 114.49014250390694 L 79.85819298766936 115.5597485145238 L 80.26584774442735 116.66474508437595 L 80.58554880596519 117.7983195421616 L 80.8153251089271 118.95348302439672 L 80.95376000599694 120.12311356408252 Z" fill-opacity="1" stroke-opacity="1" stroke-miterlimit="10" stroke-width="2"/><text fill="none" stroke="rgb(0,0,0)" font-family="Helvetica Neue, Helvetica, sans-serif" font-size="10px" font-style="normal" font-weight="normal" text-decoration="normal" x="66" y="106.30000000000001" text-anchor="middle" dominant-baseline="text-after-edge" stroke-opacity="1" stroke-linejoin="round" stroke-miterlimit="10" stroke-width="4">PR:N</text><text fill="rgb(255,255,255)" stroke="none" font-family="Helvetica Neue, Helvetica, sans-serif" font-size="10px" font-style="normal" font-weight="normal" text-decoration="normal" x="66" y="106.30000000000001" text-anchor="middle" dominant-baseline="text-after-edge" fill-opacity="1">PR:N</text><path fill="rgb(234,179,8)" stroke="rgb(255,102,102)" paint-order="fill stroke markers" d=" M 557 189.75 L 556.9460533403297 191.12303417523728 L 556.7845459604149 192.48760313820404 L 556.5164736069594 193.83529386747836 L 556.1434890351652 195.15779740156157 L 555.6678918189475 196.44696006638907 L 555.0926141732964 197.69483374544205 L 554.4212028761966 198.8937248825291 L 553.6577974015615 200.03624191511827 L 552.8071043980005 201.1153408457782 L 551.8743686707646 202.12436867076457 L 550.8653408457782 203.05710439800055 L 549.7862419151182 203.9077974015616 L 548.6437248825291 204.67120287619662 L 547.4448337454421 205.34261417329643 L 546.1969600663891 205.9178918189475 L 544.9077974015615 206.39348903516517 L 543.5852938674783 206.76647360695935 L 542.237603138204 207.0345459604149 L 540.8730341752373 207.19605334032974 L 539.5 207.25 L 538.1269658247627 207.19605334032974 L 536.762396861796 207.0345459604149 L 535.4147061325217 206.76647360695935 L 534.0922025984385 206.3934890351652 L 532.8030399336109 205.9178918189475 L 531.5551662545579 205.34261417329643 L 530.3562751174709 204.67120287619662 L 529.2137580848818 203.9077974015616 L 528.1346591542218 203.05710439800055 L 527.1256313292354 202.12436867076457 L 526.1928956019995 201.1153408457782 L 525.3422025984385 200.0362419151183 L 524.5787971238034 198.8937248825291 L 523.9073858267036 197.69483374544208 L 523.3321081810525 196.44696006638907 L 522.8565109648348 195.1577974015616 L 522.4835263930406 193.83529386747836 L 522.2154540395851 192.48760313820404 L 522.0539466596703 191.12303417523728 L 522 189.75 L 522.0539466596703 188.37696582476272 L 522.2154540395851 187.01239686179596 L 522.4835263930406 185.66470613252164 L 522.8565109648348 184.34220259843843 L 523.3321081810525 183.05303993361093 L 523.9073858267036 181.80516625455795 L 524.5787971238034 180.6062751174709 L 525.3422025984385 179.46375808488173 L 526.1928956019995 178.3846591542218 L 527.1256313292354 177.37563132923543 L 528.1346591542218 176.44289560199945 L 529.2137580848818 175.59220259843843 L 530.3562751174709 174.82879712380338 L 531.5551662545579 174.15738582670355 L 532.803039933611 173.5821081810525 L 534.0922025984385 173.1065109648348 L 535.4147061325217 172.73352639304065 L 536.762396861796 172.4654540395851 L 538.1269658247628 172.30394665967026 L 539.5000000000001 172.25 L 540.8730341752373 172.30394665967026 L 542.2376031382041 172.4654540395851 L 543.5852938674784 172.73352639304068 L 544.9077974015617 173.10651096483485 L 546.1969600663891 173.58210818105252 L 547.4448337454421 174.1573858267036 L 548.6437248825292 174.82879712380344 L 549.7862419151184 175.5922025984385 L 550.8653408457783 176.44289560199954 L 551.8743686707646 177.37563132923552 L 552.8071043980007 178.3846591542219 L 553.6577974015617 179.46375808488185 L 554.4212028761967 180.60627511747103 L 555.0926141732965 181.8051662545581 L 555.6678918189476 183.0530399336111 L 556.1434890351652 184.3422025984386 L 556.5164736069594 185.66470613252184 L 556.7845459604149 187.01239686179616 L 556.9460533403297 188.37696582476292 Z" fill-opacity="0.25" stroke-opacity="0.25" stroke-miterlimit="10" stroke-width="2" stroke-dasharray="4,2"/><text fill="none" stroke="rgb(0,0,0)" font-family="Helvetica Neue, Helvetica, sans-serif" font-size="10px" font-style="normal" font-weight="normal" text-decoration="normal" x="539.5" y="172.25" text-anchor="middle" dominant-baseline="text-after-edge" stroke-opacity="0.25" stroke-linejoin="round" stroke-miterlimit="10" stroke-width="4">CVE-2026-28387</text><text fill="rgb(255,255,255)" stroke="none" font-family="Helvetica Neue, Helvetica, sans-serif" font-size="10px" font-style="normal" font-weight="normal" text-decoration="normal" x="539.5" y="172.25" text-anchor="middle" dominant-baseline="text-after-edge" fill-opacity="0.25">CVE-2026-28387</text><path fill="rgb(99,102,241)" stroke="rgb(255,102,102)" paint-order="fill stroke markers" d=" M 689 199.75 L 688.953760005997 200.92688643591768 L 688.815325108927 202.09651697560346 L 688.5855488059651 203.25168045783857 L 688.2658477444273 204.38525491562422 L 687.8581929876693 205.49025148547634 L 687.3650978628256 206.5598574960932 L 686.7896024653114 207.58747847073923 L 686.1352549156242 208.5667787843871 L 685.4060894840005 209.49172072495276 L 684.6066017177982 210.3566017177982 L 683.7417207249528 211.15608948400046 L 682.8167787843871 211.88525491562422 L 681.8374784707393 212.5396024653114 L 680.8098574960932 213.1150978628255 L 679.7402514854764 213.6081929876693 L 678.6352549156242 214.0158477444273 L 677.5016804578386 214.33554880596515 L 676.3465169756034 214.56532510892706 L 675.1768864359177 214.7037600059969 L 674 214.75 L 672.8231135640823 214.7037600059969 L 671.6534830243966 214.56532510892706 L 670.4983195421614 214.33554880596515 L 669.3647450843758 214.0158477444273 L 668.2597485145236 213.6081929876693 L 667.1901425039068 213.1150978628255 L 666.1625215292607 212.5396024653114 L 665.1832212156129 211.88525491562422 L 664.2582792750472 211.15608948400046 L 663.3933982822018 210.3566017177982 L 662.5939105159995 209.49172072495276 L 661.8647450843758 208.5667787843871 L 661.2103975346886 207.58747847073923 L 660.6349021371744 206.5598574960932 L 660.1418070123307 205.49025148547634 L 659.7341522555727 204.38525491562422 L 659.4144511940349 203.25168045783857 L 659.184674891073 202.09651697560346 L 659.046239994003 200.92688643591768 L 659 199.75 L 659.046239994003 198.57311356408232 L 659.184674891073 197.40348302439654 L 659.4144511940349 196.24831954216143 L 659.7341522555727 195.11474508437578 L 660.1418070123307 194.00974851452366 L 660.6349021371744 192.9401425039068 L 661.2103975346886 191.91252152926077 L 661.8647450843758 190.93322121561292 L 662.5939105159995 190.00827927504724 L 663.3933982822018 189.1433982822018 L 664.2582792750472 188.34391051599954 L 665.1832212156129 187.61474508437578 L 666.1625215292607 186.9603975346886 L 667.1901425039068 186.38490213717446 L 668.2597485145237 185.8918070123307 L 669.3647450843758 185.4841522555727 L 670.4983195421614 185.16445119403485 L 671.6534830243966 184.93467489107292 L 672.8231135640824 184.7962399940031 L 674 184.75 L 675.1768864359177 184.7962399940031 L 676.3465169756035 184.93467489107294 L 677.5016804578387 185.16445119403485 L 678.6352549156243 185.48415225557272 L 679.7402514854764 185.89180701233073 L 680.8098574960933 186.38490213717452 L 681.8374784707394 186.96039753468867 L 682.8167787843872 187.61474508437584 L 683.7417207249529 188.3439105159996 L 684.6066017177983 189.14339828220187 L 685.4060894840005 190.00827927504733 L 686.1352549156243 190.933221215613 L 686.7896024653114 191.91252152926089 L 687.3650978628256 192.9401425039069 L 687.8581929876693 194.00974851452378 L 688.2658477444273 195.11474508437593 L 688.5855488059652 196.24831954216157 L 688.8153251089271 197.4034830243967 L 688.953760005997 198.5731135640825 Z" fill-opacity="0.25" stroke-opacity="0.25" stroke-miterlimit="10" stroke-width="2" stroke-dasharray="4,2"/><text fill="none" stroke="rgb(0,0,0)" font-family="Helvetica Neue, Helvetica, sans-serif" font-size="10px" font-style="normal" font-weight="normal" text-decoration="normal" x="674" y="184.75" text-anchor="middle" dominant-baseline="text-after-edge" stroke-opacity="0.25" stroke-linejoin="round" stroke-miterlimit="10" stroke-width="4">AV:L</text><text fill="rgb(255,255,255)" stroke="none" font-family="Helvetica Neue, Helvetica, sans-serif" font-size="10px" font-style="normal" font-weight="normal" text-decoration="normal" x="674" y="184.75" text-anchor="middle" dominant-baseline="text-after-edge" fill-opacity="0.25">AV:L</text><path fill="rgb(99,102,241)" stroke="rgb(255,102,102)" paint-order="fill stroke markers" d=" M 689 117.75 L 688.953760005997 118.92688643591768 L 688.815325108927 120.09651697560346 L 688.5855488059651 121.25168045783857 L 688.2658477444273 122.38525491562422 L 687.8581929876693 123.49025148547635 L 687.3650978628256 124.5598574960932 L 686.7896024653114 125.58747847073923 L 686.1352549156242 126.5667787843871 L 685.4060894840005 127.49172072495276 L 684.6066017177982 128.3566017177982 L 683.7417207249528 129.15608948400046 L 682.8167787843871 129.88525491562422 L 681.8374784707393 130.5396024653114 L 680.8098574960932 131.1150978628255 L 679.7402514854764 131.6081929876693 L 678.6352549156242 132.0158477444273 L 677.5016804578386 132.33554880596515 L 676.3465169756034 132.56532510892706 L 675.1768864359177 132.7037600059969 L 674 132.75 L 672.8231135640823 132.7037600059969 L 671.6534830243966 132.56532510892706 L 670.4983195421614 132.33554880596515 L 669.3647450843758 132.0158477444273 L 668.2597485145236 131.6081929876693 L 667.1901425039068 131.1150978628255 L 666.1625215292607 130.5396024653114 L 665.1832212156129 129.88525491562422 L 664.2582792750472 129.15608948400046 L 663.3933982822018 128.3566017177982 L 662.5939105159995 127.49172072495276 L 661.8647450843758 126.5667787843871 L 661.2103975346886 125.58747847073923 L 660.6349021371744 124.5598574960932 L 660.1418070123307 123.49025148547635 L 659.7341522555727 122.38525491562422 L 659.4144511940349 121.25168045783859 L 659.184674891073 120.09651697560346 L 659.046239994003 118.92688643591768 L 659 117.75 L 659.046239994003 116.57311356408233 L 659.184674891073 115.40348302439654 L 659.4144511940349 114.24831954216143 L 659.7341522555727 113.11474508437578 L 660.1418070123307 112.00974851452365 L 660.6349021371744 110.9401425039068 L 661.2103975346886 109.91252152926077 L 661.8647450843758 108.9332212156129 L 662.5939105159995 108.00827927504724 L 663.3933982822018 107.14339828220179 L 664.2582792750472 106.34391051599954 L 665.1832212156129 105.61474508437578 L 666.1625215292607 104.96039753468861 L 667.1901425039068 104.38490213717448 L 668.2597485145237 103.89180701233069 L 669.3647450843758 103.4841522555727 L 670.4983195421614 103.16445119403484 L 671.6534830243966 102.93467489107293 L 672.8231135640824 102.79623999400307 L 674 102.75 L 675.1768864359177 102.79623999400309 L 676.3465169756035 102.93467489107294 L 677.5016804578387 103.16445119403487 L 678.6352549156243 103.48415225557272 L 679.7402514854764 103.89180701233073 L 680.8098574960933 104.38490213717452 L 681.8374784707394 104.96039753468867 L 682.8167787843872 105.61474508437585 L 683.7417207249529 106.34391051599961 L 684.6066017177983 107.14339828220187 L 685.4060894840005 108.00827927504734 L 686.1352549156243 108.933221215613 L 686.7896024653114 109.91252152926089 L 687.3650978628256 110.94014250390693 L 687.8581929876693 112.00974851452379 L 688.2658477444273 113.11474508437594 L 688.5855488059652 114.24831954216158 L 688.8153251089271 115.4034830243967 L 688.953760005997 116.5731135640825 Z" fill-opacity="0.25" stroke-opacity="0.25" stroke-miterlimit="10" stroke-width="2" stroke-dasharray="4,2"/><text fill="none" stroke="rgb(0,0,0)" font-family="Helvetica Neue, Helvetica, sans-serif" font-size="10px" font-style="normal" font-weight="normal" text-decoration="normal" x="674" y="102.75" text-anchor="middle" dominant-baseline="text-after-edge" stroke-opacity="0.25" stroke-linejoin="round" stroke-miterlimit="10" stroke-width="4">PR:H</text><text fill="rgb(255,255,255)" stroke="none" font-family="Helvetica Neue, Helvetica, sans-serif" font-size="10px" font-style="normal" font-weight="normal" text-decoration="normal" x="674" y="102.75" text-anchor="middle" dominant-baseline="text-after-edge" fill-opacity="0.25">PR:H</text><path fill="rgb(255,0,0)" stroke="rgb(255,215,0)" paint-order="fill stroke markers" d=" M 1054 364.75 L 1044.7343318831333 378.97991935488204 L 1029 383.84830056250524 L 1039.0078340584334 397.51125558861554 L 1038.5491502812527 414.75 L 1054 408.9642512380153 L 1069.4508497187473 414.75 L 1068.9921659415666 397.51125558861554 L 1079 383.84830056250524 L 1063.2656681168667 378.97991935488204 Z" fill-opacity="0.25" stroke-opacity="0.25" stroke-miterlimit="10" stroke-width="4" stroke-dasharray="4,2"/><text fill="none" stroke="rgb(0,0,0)" font-family="Helvetica Neue, Helvetica, sans-serif" font-size="10px" font-style="normal" font-weight="bold" text-decoration="normal" x="1054" y="364.75" text-anchor="middle" dominant-baseline="text-after-edge" stroke-opacity="0.25" stroke-linejoin="round" stroke-miterlimit="10" stroke-width="4">EXPLOITED</text><text fill="rgb(255,255,255)" stroke="none" font-family="Helvetica Neue, Helvetica, sans-serif" font-size="10px" font-style="normal" font-weight="bold" text-decoration="normal" x="1054" y="364.75" text-anchor="middle" dominant-baseline="text-after-edge" fill-opacity="0.25">EXPLOITED</text><path fill="rgb(234,179,8)" stroke="rgb(255,102,102)" paint-order="fill stroke markers" d=" M 876 235.91666666666666 L 875.9460533403297 237.28970084190394 L 875.7845459604149 238.6542698048707 L 875.5164736069594 240.001960534145 L 875.1434890351652 241.32446406822822 L 874.6678918189475 242.61362673305572 L 874.0926141732964 243.86150041210874 L 873.4212028761966 245.06039154919577 L 872.6577974015615 246.20290858178492 L 871.8071043980005 247.28200751244486 L 870.8743686707646 248.29103533743123 L 869.8653408457782 249.2237710646672 L 868.7862419151182 250.07446406822822 L 867.6437248825291 250.83786954286327 L 866.4448337454421 251.50928083996308 L 865.1969600663891 252.08455848561417 L 863.9077974015615 252.56015570183183 L 862.5852938674783 252.933140273626 L 861.237603138204 253.20121262708156 L 859.8730341752373 253.3627200069964 L 858.5 253.41666666666666 L 857.1269658247627 253.3627200069964 L 855.762396861796 253.20121262708156 L 854.4147061325217 252.933140273626 L 853.0922025984385 252.56015570183183 L 851.8030399336109 252.08455848561417 L 850.5551662545579 251.50928083996308 L 849.3562751174709 250.83786954286327 L 848.2137580848818 250.07446406822822 L 847.1346591542218 249.2237710646672 L 846.1256313292354 248.29103533743125 L 845.1928956019995 247.28200751244486 L 844.3422025984385 246.20290858178492 L 843.5787971238034 245.06039154919577 L 842.9073858267036 243.86150041210874 L 842.3321081810525 242.61362673305572 L 841.8565109648348 241.32446406822825 L 841.4835263930406 240.001960534145 L 841.2154540395851 238.6542698048707 L 841.0539466596703 237.28970084190394 L 841 235.91666666666666 L 841.0539466596703 234.54363249142938 L 841.2154540395851 233.17906352846262 L 841.4835263930406 231.8313727991883 L 841.8565109648348 230.5088692651051 L 842.3321081810525 229.2197066002776 L 842.9073858267036 227.9718329212246 L 843.5787971238034 226.77294178413754 L 844.3422025984385 225.6304247515484 L 845.1928956019995 224.55132582088845 L 846.1256313292354 223.5422979959021 L 847.1346591542218 222.6095622686661 L 848.2137580848818 221.7588692651051 L 849.3562751174709 220.99546379047004 L 850.5551662545579 220.3240524933702 L 851.803039933611 219.74877484771912 L 853.0922025984385 219.27317763150145 L 854.4147061325217 218.9001930597073 L 855.762396861796 218.63212070625173 L 857.1269658247628 218.47061332633692 L 858.5000000000001 218.41666666666666 L 859.8730341752373 218.47061332633692 L 861.2376031382041 218.63212070625175 L 862.5852938674784 218.90019305970733 L 863.9077974015617 219.27317763150148 L 865.1969600663891 219.74877484771918 L 866.4448337454421 220.32405249337026 L 867.6437248825292 220.9954637904701 L 868.7862419151184 221.75886926510515 L 869.8653408457783 222.6095622686662 L 870.8743686707646 223.54229799590217 L 871.8071043980007 224.55132582088856 L 872.6577974015617 225.6304247515485 L 873.4212028761967 226.77294178413769 L 874.0926141732965 227.97183292122475 L 874.6678918189476 229.21970660027776 L 875.1434890351652 230.50886926510526 L 875.5164736069594 231.8313727991885 L 875.7845459604149 233.17906352846282 L 875.9460533403297 234.54363249142958 Z" fill-opacity="0.25" stroke-opacity="0.25" stroke-miterlimit="10" stroke-width="2" stroke-dasharray="4,2"/><text fill="none" stroke="rgb(0,0,0)" font-family="Helvetica Neue, Helvetica, sans-serif" font-size="10px" font-style="normal" font-weight="normal" text-decoration="normal" x="858.5" y="218.41666666666666" text-anchor="middle" dominant-baseline="text-after-edge" stroke-opacity="0.25" stroke-linejoin="round" stroke-miterlimit="10" stroke-width="4">CVE-2026-31789</text><text fill="rgb(255,255,255)" stroke="none" font-family="Helvetica Neue, Helvetica, sans-serif" font-size="10px" font-style="normal" font-weight="normal" text-decoration="normal" x="858.5" y="218.41666666666666" text-anchor="middle" dominant-baseline="text-after-edge" fill-opacity="0.25">CVE-2026-31789</text><path fill="rgb(255,0,0)" stroke="rgb(255,215,0)" paint-order="fill stroke markers" d=" M 1054 205.75 L 1044.7343318831333 219.97991935488204 L 1029 224.84830056250524 L 1039.0078340584334 238.51125558861554 L 1038.5491502812527 255.75 L 1054 249.96425123801532 L 1069.4508497187473 255.75 L 1068.9921659415666 238.51125558861554 L 1079 224.84830056250527 L 1063.2656681168667 219.97991935488207 Z" fill-opacity="1" stroke-opacity="1" stroke-miterlimit="10" stroke-width="4"/><text fill="none" stroke="rgb(0,0,0)" font-family="Helvetica Neue, Helvetica, sans-serif" font-size="10px" font-style="normal" font-weight="bold" text-decoration="normal" x="1054" y="205.75" text-anchor="middle" dominant-baseline="text-after-edge" stroke-opacity="1" stroke-linejoin="round" stroke-miterlimit="10" stroke-width="4">EXPLOITED</text><text fill="rgb(255,255,255)" stroke="none" font-family="Helvetica Neue, Helvetica, sans-serif" font-size="10px" font-style="normal" font-weight="bold" text-decoration="normal" x="1054" y="205.75" text-anchor="middle" dominant-baseline="text-after-edge" fill-opacity="1">EXPLOITED</text><path fill="rgb(99,102,241)" stroke="rgb(255,0,102)" paint-order="fill stroke markers" d=" M 81 256.3 L 80.95376000599691 257.47688643591766 L 80.81532510892707 258.64651697560345 L 80.58554880596515 259.8016804578386 L 80.2658477444273 260.9352549156242 L 79.8581929876693 262.04025148547635 L 79.36509786282552 263.10985749609324 L 78.78960246531139 264.13747847073927 L 78.13525491562422 265.1167787843871 L 77.40608948400046 266.04172072495277 L 76.60660171779821 266.9066017177982 L 75.74172072495276 267.7060894840005 L 74.8167787843871 268.4352549156242 L 73.83747847073923 269.0896024653114 L 72.8098574960932 269.6650978628255 L 71.74025148547635 270.15819298766934 L 70.63525491562422 270.5658477444273 L 69.50168045783859 270.8855488059652 L 68.34651697560346 271.1153251089271 L 67.17688643591768 271.2537600059969 L 66 271.3 L 64.82311356408232 271.2537600059969 L 63.653483024396536 271.1153251089271 L 62.49831954216142 270.8855488059652 L 61.36474508437579 270.5658477444273 L 60.25974851452365 270.15819298766934 L 59.1901425039068 269.6650978628255 L 58.16252152926077 269.0896024653114 L 57.1832212156129 268.4352549156242 L 56.258279275047244 267.7060894840005 L 55.39339828220179 266.90660171779825 L 54.59391051599954 266.04172072495277 L 53.86474508437579 265.1167787843871 L 53.21039753468862 264.13747847073927 L 52.634902137174485 263.10985749609324 L 52.1418070123307 262.04025148547635 L 51.734152255572695 260.9352549156242 L 51.414451194034854 259.8016804578386 L 51.18467489107294 258.6465169756035 L 51.04623999400308 257.47688643591766 L 51 256.3 L 51.04623999400308 255.12311356408233 L 51.18467489107293 253.95348302439655 L 51.414451194034854 252.79831954216144 L 51.734152255572695 251.6647450843758 L 52.141807012330695 250.55974851452368 L 52.63490213717448 249.4901425039068 L 53.21039753468862 248.46252152926078 L 53.864745084375784 247.48322121561293 L 54.59391051599953 246.55827927504725 L 55.39339828220179 245.6933982822018 L 56.25827927504724 244.89391051599955 L 57.1832212156129 244.1647450843758 L 58.16252152926077 243.51039753468862 L 59.190142503906806 242.93490213717448 L 60.25974851452367 242.4418070123307 L 61.36474508437581 242.0341522555727 L 62.49831954216145 241.71445119403487 L 63.65348302439657 241.48467489107293 L 64.82311356408238 241.3462399940031 L 66.00000000000006 241.3 L 67.17688643591774 241.3462399940031 L 68.34651697560352 241.48467489107296 L 69.50168045783865 241.71445119403487 L 70.63525491562429 242.03415225557274 L 71.74025148547642 242.44180701233074 L 72.80985749609329 242.93490213717453 L 73.83747847073931 243.51039753468868 L 74.81677878438718 244.16474508437585 L 75.74172072495284 244.8939105159996 L 76.6066017177983 245.69339828220188 L 77.40608948400055 246.55827927504734 L 78.13525491562429 247.483221215613 L 78.78960246531145 248.4625215292609 L 79.36509786282558 249.49014250390692 L 79.85819298766936 250.5597485145238 L 80.26584774442735 251.66474508437594 L 80.58554880596519 252.79831954216158 L 80.8153251089271 253.95348302439672 L 80.95376000599694 255.1231135640825 Z" fill-opacity="1" stroke-opacity="1" stroke-miterlimit="10" stroke-width="2"/><text fill="none" stroke="rgb(0,0,0)" font-family="Helvetica Neue, Helvetica, sans-serif" font-size="10px" font-style="normal" font-weight="normal" text-decoration="normal" x="66" y="241.3" text-anchor="middle" dominant-baseline="text-after-edge" stroke-opacity="1" stroke-linejoin="round" stroke-miterlimit="10" stroke-width="4">AC:L</text><text fill="rgb(255,255,255)" stroke="none" font-family="Helvetica Neue, Helvetica, sans-serif" font-size="10px" font-style="normal" font-weight="normal" text-decoration="normal" x="66" y="241.3" text-anchor="middle" dominant-baseline="text-after-edge" fill-opacity="1">AC:L</text><path fill="rgb(234,179,8)" stroke="rgb(0,0,0)" paint-order="fill stroke markers" d=" M 876 145.91666666666666 L 875.9460533403297 147.28970084190394 L 875.7845459604149 148.6542698048707 L 875.5164736069594 150.001960534145 L 875.1434890351652 151.32446406822822 L 874.6678918189475 152.61362673305572 L 874.0926141732964 153.86150041210874 L 873.4212028761966 155.06039154919577 L 872.6577974015615 156.20290858178492 L 871.8071043980005 157.28200751244486 L 870.8743686707646 158.29103533743123 L 869.8653408457782 159.2237710646672 L 868.7862419151182 160.07446406822822 L 867.6437248825291 160.83786954286327 L 866.4448337454421 161.50928083996308 L 865.1969600663891 162.08455848561417 L 863.9077974015615 162.56015570183183 L 862.5852938674783 162.933140273626 L 861.237603138204 163.20121262708156 L 859.8730341752373 163.3627200069964 L 858.5 163.41666666666666 L 857.1269658247627 163.3627200069964 L 855.762396861796 163.20121262708156 L 854.4147061325217 162.933140273626 L 853.0922025984385 162.56015570183183 L 851.8030399336109 162.08455848561417 L 850.5551662545579 161.50928083996308 L 849.3562751174709 160.83786954286327 L 848.2137580848818 160.07446406822822 L 847.1346591542218 159.2237710646672 L 846.1256313292354 158.29103533743125 L 845.1928956019995 157.28200751244486 L 844.3422025984385 156.20290858178492 L 843.5787971238034 155.06039154919577 L 842.9073858267036 153.86150041210874 L 842.3321081810525 152.61362673305572 L 841.8565109648348 151.32446406822825 L 841.4835263930406 150.001960534145 L 841.2154540395851 148.6542698048707 L 841.0539466596703 147.28970084190394 L 841 145.91666666666666 L 841.0539466596703 144.54363249142938 L 841.2154540395851 143.17906352846262 L 841.4835263930406 141.8313727991883 L 841.8565109648348 140.5088692651051 L 842.3321081810525 139.2197066002776 L 842.9073858267036 137.9718329212246 L 843.5787971238034 136.77294178413754 L 844.3422025984385 135.6304247515484 L 845.1928956019995 134.55132582088845 L 846.1256313292354 133.5422979959021 L 847.1346591542218 132.6095622686661 L 848.2137580848818 131.7588692651051 L 849.3562751174709 130.99546379047004 L 850.5551662545579 130.3240524933702 L 851.803039933611 129.74877484771912 L 853.0922025984385 129.27317763150145 L 854.4147061325217 128.9001930597073 L 855.762396861796 128.63212070625173 L 857.1269658247628 128.47061332633692 L 858.5000000000001 128.41666666666666 L 859.8730341752373 128.47061332633692 L 861.2376031382041 128.63212070625175 L 862.5852938674784 128.90019305970733 L 863.9077974015617 129.27317763150148 L 865.1969600663891 129.74877484771918 L 866.4448337454421 130.32405249337026 L 867.6437248825292 130.9954637904701 L 868.7862419151184 131.75886926510515 L 869.8653408457783 132.6095622686662 L 870.8743686707646 133.54229799590217 L 871.8071043980007 134.55132582088856 L 872.6577974015617 135.6304247515485 L 873.4212028761967 136.77294178413769 L 874.0926141732965 137.97183292122475 L 874.6678918189476 139.21970660027776 L 875.1434890351652 140.50886926510526 L 875.5164736069594 141.8313727991885 L 875.7845459604149 143.17906352846282 L 875.9460533403297 144.54363249142958 Z" fill-opacity="1" stroke-opacity="1" stroke-miterlimit="10" stroke-width="2"/><text fill="none" stroke="rgb(0,0,0)" font-family="Helvetica Neue, Helvetica, sans-serif" font-size="10px" font-style="normal" font-weight="normal" text-decoration="normal" x="858.5" y="128.41666666666666" text-anchor="middle" dominant-baseline="text-after-edge" stroke-opacity="1" stroke-linejoin="round" stroke-miterlimit="10" stroke-width="4">CVE-2026-22184</text><text fill="rgb(255,255,255)" stroke="none" font-family="Helvetica Neue, Helvetica, sans-serif" font-size="10px" font-style="normal" font-weight="normal" text-decoration="normal" x="858.5" y="128.41666666666666" text-anchor="middle" dominant-baseline="text-after-edge" fill-opacity="1">CVE-2026-22184</text><path fill="rgb(99,102,241)" stroke="rgb(255,0,102)" paint-order="fill stroke markers" d=" M 81 301.3 L 80.95376000599691 302.47688643591766 L 80.81532510892707 303.64651697560345 L 80.58554880596515 304.8016804578386 L 80.2658477444273 305.9352549156242 L 79.8581929876693 307.04025148547635 L 79.36509786282552 308.10985749609324 L 78.78960246531139 309.13747847073927 L 78.13525491562422 310.1167787843871 L 77.40608948400046 311.04172072495277 L 76.60660171779821 311.9066017177982 L 75.74172072495276 312.7060894840005 L 74.8167787843871 313.4352549156242 L 73.83747847073923 314.0896024653114 L 72.8098574960932 314.6650978628255 L 71.74025148547635 315.15819298766934 L 70.63525491562422 315.5658477444273 L 69.50168045783859 315.8855488059652 L 68.34651697560346 316.1153251089271 L 67.17688643591768 316.2537600059969 L 66 316.3 L 64.82311356408232 316.2537600059969 L 63.653483024396536 316.1153251089271 L 62.49831954216142 315.8855488059652 L 61.36474508437579 315.5658477444273 L 60.25974851452365 315.15819298766934 L 59.1901425039068 314.6650978628255 L 58.16252152926077 314.0896024653114 L 57.1832212156129 313.4352549156242 L 56.258279275047244 312.7060894840005 L 55.39339828220179 311.90660171779825 L 54.59391051599954 311.04172072495277 L 53.86474508437579 310.1167787843871 L 53.21039753468862 309.13747847073927 L 52.634902137174485 308.10985749609324 L 52.1418070123307 307.04025148547635 L 51.734152255572695 305.9352549156242 L 51.414451194034854 304.8016804578386 L 51.18467489107294 303.6465169756035 L 51.04623999400308 302.47688643591766 L 51 301.3 L 51.04623999400308 300.12311356408236 L 51.18467489107293 298.9534830243966 L 51.414451194034854 297.79831954216144 L 51.734152255572695 296.6647450843758 L 52.141807012330695 295.5597485145237 L 52.63490213717448 294.49014250390684 L 53.21039753468862 293.46252152926075 L 53.864745084375784 292.4832212156129 L 54.59391051599953 291.55827927504725 L 55.39339828220179 290.6933982822018 L 56.25827927504724 289.89391051599955 L 57.1832212156129 289.1647450843758 L 58.16252152926077 288.51039753468865 L 59.190142503906806 287.9349021371745 L 60.25974851452367 287.4418070123307 L 61.36474508437581 287.0341522555727 L 62.49831954216145 286.71445119403484 L 63.65348302439657 286.4846748910729 L 64.82311356408238 286.3462399940031 L 66.00000000000006 286.3 L 67.17688643591774 286.3462399940031 L 68.34651697560352 286.4846748910729 L 69.50168045783865 286.7144511940349 L 70.63525491562429 287.03415225557274 L 71.74025148547642 287.44180701233074 L 72.80985749609329 287.93490213717456 L 73.83747847073931 288.51039753468865 L 74.81677878438718 289.16474508437585 L 75.74172072495284 289.8939105159996 L 76.6066017177983 290.6933982822019 L 77.40608948400055 291.55827927504737 L 78.13525491562429 292.483221215613 L 78.78960246531145 293.46252152926087 L 79.36509786282558 294.49014250390695 L 79.85819298766936 295.5597485145238 L 80.26584774442735 296.66474508437597 L 80.58554880596519 297.7983195421616 L 80.8153251089271 298.9534830243967 L 80.95376000599694 300.12311356408253 Z" fill-opacity="1" stroke-opacity="1" stroke-miterlimit="10" stroke-width="2"/><text fill="none" stroke="rgb(0,0,0)" font-family="Helvetica Neue, Helvetica, sans-serif" font-size="10px" font-style="normal" font-weight="normal" text-decoration="normal" x="66" y="286.3" text-anchor="middle" dominant-baseline="text-after-edge" stroke-opacity="1" stroke-linejoin="round" stroke-miterlimit="10" stroke-width="4">UI:N</text><text fill="rgb(255,255,255)" stroke="none" font-family="Helvetica Neue, Helvetica, sans-serif" font-size="10px" font-style="normal" font-weight="normal" text-decoration="normal" x="66" y="286.3" text-anchor="middle" dominant-baseline="text-after-edge" fill-opacity="1">UI:N</text><path fill="rgb(234,179,8)" stroke="rgb(0,0,0)" paint-order="fill stroke markers" d=" M 876 190.91666666666666 L 875.9460533403297 192.28970084190394 L 875.7845459604149 193.6542698048707 L 875.5164736069594 195.001960534145 L 875.1434890351652 196.32446406822822 L 874.6678918189475 197.61362673305572 L 874.0926141732964 198.86150041210874 L 873.4212028761966 200.06039154919577 L 872.6577974015615 201.20290858178492 L 871.8071043980005 202.28200751244486 L 870.8743686707646 203.29103533743123 L 869.8653408457782 204.2237710646672 L 868.7862419151182 205.07446406822822 L 867.6437248825291 205.83786954286327 L 866.4448337454421 206.50928083996308 L 865.1969600663891 207.08455848561417 L 863.9077974015615 207.56015570183183 L 862.5852938674783 207.933140273626 L 861.237603138204 208.20121262708156 L 859.8730341752373 208.3627200069964 L 858.5 208.41666666666666 L 857.1269658247627 208.3627200069964 L 855.762396861796 208.20121262708156 L 854.4147061325217 207.933140273626 L 853.0922025984385 207.56015570183183 L 851.8030399336109 207.08455848561417 L 850.5551662545579 206.50928083996308 L 849.3562751174709 205.83786954286327 L 848.2137580848818 205.07446406822822 L 847.1346591542218 204.2237710646672 L 846.1256313292354 203.29103533743125 L 845.1928956019995 202.28200751244486 L 844.3422025984385 201.20290858178492 L 843.5787971238034 200.06039154919577 L 842.9073858267036 198.86150041210874 L 842.3321081810525 197.61362673305572 L 841.8565109648348 196.32446406822825 L 841.4835263930406 195.001960534145 L 841.2154540395851 193.6542698048707 L 841.0539466596703 192.28970084190394 L 841 190.91666666666666 L 841.0539466596703 189.54363249142938 L 841.2154540395851 188.17906352846262 L 841.4835263930406 186.8313727991883 L 841.8565109648348 185.5088692651051 L 842.3321081810525 184.2197066002776 L 842.9073858267036 182.9718329212246 L 843.5787971238034 181.77294178413754 L 844.3422025984385 180.6304247515484 L 845.1928956019995 179.55132582088845 L 846.1256313292354 178.5422979959021 L 847.1346591542218 177.6095622686661 L 848.2137580848818 176.7588692651051 L 849.3562751174709 175.99546379047004 L 850.5551662545579 175.3240524933702 L 851.803039933611 174.74877484771912 L 853.0922025984385 174.27317763150145 L 854.4147061325217 173.9001930597073 L 855.762396861796 173.63212070625173 L 857.1269658247628 173.47061332633692 L 858.5000000000001 173.41666666666666 L 859.8730341752373 173.47061332633692 L 861.2376031382041 173.63212070625175 L 862.5852938674784 173.90019305970733 L 863.9077974015617 174.27317763150148 L 865.1969600663891 174.74877484771918 L 866.4448337454421 175.32405249337026 L 867.6437248825292 175.9954637904701 L 868.7862419151184 176.75886926510515 L 869.8653408457783 177.6095622686662 L 870.8743686707646 178.54229799590217 L 871.8071043980007 179.55132582088856 L 872.6577974015617 180.6304247515485 L 873.4212028761967 181.77294178413769 L 874.0926141732965 182.97183292122475 L 874.6678918189476 184.21970660027776 L 875.1434890351652 185.50886926510526 L 875.5164736069594 186.8313727991885 L 875.7845459604149 188.17906352846282 L 875.9460533403297 189.54363249142958 Z" fill-opacity="1" stroke-opacity="1" stroke-miterlimit="10" stroke-width="2"/><text fill="none" stroke="rgb(0,0,0)" font-family="Helvetica Neue, Helvetica, sans-serif" font-size="10px" font-style="normal" font-weight="normal" text-decoration="normal" x="858.5" y="173.41666666666666" text-anchor="middle" dominant-baseline="text-after-edge" stroke-opacity="1" stroke-linejoin="round" stroke-miterlimit="10" stroke-width="4">CVE-2026-27171</text><text fill="rgb(255,255,255)" stroke="none" font-family="Helvetica Neue, Helvetica, sans-serif" font-size="10px" font-style="normal" font-weight="normal" text-decoration="normal" x="858.5" y="173.41666666666666" text-anchor="middle" dominant-baseline="text-after-edge" fill-opacity="1">CVE-2026-27171</text><path fill="rgb(0,255,136)" stroke="rgb(0,204,102)" paint-order="fill stroke markers" d=" M 1213 344.25 L 1243 314.25 L 1213 284.25 L 1183 314.25 Z" fill-opacity="1" stroke-opacity="1" stroke-miterlimit="10" stroke-width="4"/><text fill="none" stroke="rgb(0,0,0)" font-family="Helvetica Neue, Helvetica, sans-serif" font-size="14px" font-style="normal" font-weight="bold" text-decoration="normal" x="1213" y="284.25" text-anchor="middle" dominant-baseline="text-after-edge" stroke-opacity="1" stroke-linejoin="round" stroke-miterlimit="10" stroke-width="6">INSIDE NETWORK</text><text fill="rgb(255,255,255)" stroke="none" font-family="Helvetica Neue, Helvetica, sans-serif" font-size="14px" font-style="normal" font-weight="bold" text-decoration="normal" x="1213" y="284.25" text-anchor="middle" dominant-baseline="text-after-edge" fill-opacity="1">INSIDE NETWORK</text><g transform="scale(0.6249999906867744,0.6249999906867744) translate(51.20000076293945,96.48000143766404)"/></g></g></svg>