<svg version="1.1" xmlns="http://www.w3.org/2000/svg" xmlns:xlink="http://www.w3.org/1999/xlink" width="1998.4000297784805" height="1164.8000173568726"><defs/><g><rect fill="#ffffff" stroke="none" x="0" y="0" width="1998.4000297784805" height="1164.8000173568726"/><g transform="translate(-51.20000076293945,22.40000033378601) scale(1.600000023841858,1.600000023841858)"><path fill="rgb(100,100,100)" stroke="rgb(136,136,136)" paint-order="fill stroke markers" d=" M 139.5 134.85000000000002 L 237 134.85000000000002 L 237 134.85000000000002 A 8 8 0 0 1 245 142.85000000000002 L 245 382.85 L 245 382.85 A 8 8 0 0 1 237 390.85 L 42 390.85 L 42 390.85 A 8 8 0 0 1 34 382.85 L 34 142.85000000000002 L 34 142.85000000000002 A 8 8 0 0 1 42 134.85000000000002 L 139.5 134.85000000000002 Z" fill-opacity="1" stroke-opacity="1" stroke-miterlimit="10" stroke-width="2" stroke-dasharray="4,2"/><text fill="none" stroke="rgb(0,0,0)" font-family="Helvetica Neue, Helvetica, sans-serif" font-size="12px" font-style="normal" font-weight="normal" text-decoration="normal" x="139.5" y="134.85000000000002" text-anchor="middle" dominant-baseline="text-after-edge" stroke-opacity="1" stroke-linejoin="round" stroke-miterlimit="10" stroke-width="4">Initial State</text><text fill="rgb(204,204,204)" stroke="none" font-family="Helvetica Neue, Helvetica, sans-serif" font-size="12px" font-style="normal" font-weight="normal" text-decoration="normal" x="139.5" y="134.85000000000002" text-anchor="middle" dominant-baseline="text-after-edge" fill-opacity="1">Initial State</text><path fill="rgb(234,179,8)" stroke="rgb(234,179,8)" paint-order="fill stroke markers" d=" M 589.5 321.875 L 636.5 321.875 L 636.5 321.875 A 8 8 0 0 1 644.5 329.875 L 644.5 703.875 L 644.5 703.875 A 8 8 0 0 1 636.5 711.875 L 542.5 711.875 L 542.5 711.875 A 8 8 0 0 1 534.5 703.875 L 534.5 329.875 L 534.5 329.875 A 8 8 0 0 1 542.5 321.875 L 589.5 321.875 Z" fill-opacity="1" stroke-opacity="1" stroke-miterlimit="10" stroke-width="2" stroke-dasharray="4,2"/><text fill="none" stroke="rgb(0,0,0)" font-family="Helvetica Neue, Helvetica, sans-serif" font-size="10px" font-style="normal" font-weight="normal" text-decoration="normal" x="589.5" y="321.875" text-anchor="middle" dominant-baseline="text-after-edge" stroke-opacity="1" stroke-linejoin="round" stroke-miterlimit="10" stroke-width="2">→ AV:L, EX:Y, PR:H (×8)</text><text fill="rgb(234,179,8)" stroke="none" font-family="Helvetica Neue, Helvetica, sans-serif" font-size="10px" font-style="normal" font-weight="normal" text-decoration="normal" x="589.5" y="321.875" text-anchor="middle" dominant-baseline="text-after-edge" fill-opacity="1">→ AV:L, EX:Y, PR:H (×8)</text><path fill="none" stroke="rgb(0,255,255)" paint-order="fill stroke markers" d=" M 783.3589546759057 553.0227134047851 L 895.3389699870077 397.7493092745209" stroke-opacity="0.7" stroke-linejoin="round" stroke-miterlimit="10" stroke-width="2"/><path fill="rgb(255,255,255)" stroke="none" paint-order="stroke fill markers" d=" M 896.1179768440345 404.10585301437715 L 897.6787086559841 394.5049876257172 L 889.0615772578864 399.0169214093535 Z" fill-opacity="1"/><path fill="rgb(0,255,255)" stroke="none" paint-order="stroke fill markers" d=" M 896.1179768440345 404.10585301437715 L 897.6787086559841 394.5049876257172 L 889.0615772578864 399.0169214093535 Z" fill-opacity="0.7"/><path fill="none" stroke="rgb(203,143,255)" paint-order="fill stroke markers" d=" M 924.2212638914604 389.25150560965153 L 1033.059370595972 456.76105289543966" stroke-opacity="0.9" stroke-linejoin="round" stroke-miterlimit="10" stroke-width="3" stroke-dasharray="6,3"/><path fill="rgb(255,255,255)" stroke="none" paint-order="stroke fill markers" d=" M 1028.4719942765705 459.0344816944555 L 1038.1581588850943 459.92370336343475 L 1033.0578374551635 451.64123867522824 Z" fill-opacity="1"/><path fill="rgb(203,143,255)" stroke="none" paint-order="stroke fill markers" d=" M 1028.4719942765705 459.0344816944555 L 1038.1581588850943 459.92370336343475 L 1033.0578374551635 451.64123867522824 Z" fill-opacity="0.9"/><path fill="none" stroke="rgb(0,255,255)" paint-order="fill stroke markers" d=" M 789.9559597848995 564.8136832873681 L 886.061931552485 557.6682578771387" stroke-opacity="0.7" stroke-linejoin="round" stroke-miterlimit="10" stroke-width="2"/><path fill="rgb(255,255,255)" stroke="none" paint-order="stroke fill markers" d=" M 881.6973982219176 562.3547649779938 L 890.05092149871 557.3716786989806 L 881.0523385094241 553.6787118449547 Z" fill-opacity="1"/><path fill="rgb(0,255,255)" stroke="none" paint-order="stroke fill markers" d=" M 881.6973982219176 562.3547649779938 L 890.05092149871 557.3716786989806 L 881.0523385094241 553.6787118449547 Z" fill-opacity="0.7"/><path fill="none" stroke="rgb(0,255,255)" paint-order="fill stroke markers" d=" M 786.6346920160264 474.1834549020464 L 890.7324643524629 393.3045165439973" stroke-opacity="0.7" stroke-linejoin="round" stroke-miterlimit="10" stroke-width="2"/><path fill="rgb(255,255,255)" stroke="none" paint-order="stroke fill markers" d=" M 889.6898967712613 399.62318355837834 L 893.8911373564695 390.8503802695089 L 884.3521503742489 392.75306977466397 Z" fill-opacity="1"/><path fill="rgb(0,255,255)" stroke="none" paint-order="stroke fill markers" d=" M 889.6898967712613 399.62318355837834 L 893.8911373564695 390.8503802695089 L 884.3521503742489 392.75306977466397 Z" fill-opacity="0.7"/><path fill="none" stroke="rgb(0,255,255)" paint-order="fill stroke markers" d=" M 788.1060175392771 491.5511766753008 L 888.6634128353916 545.3811578003583" stroke-opacity="0.7" stroke-linejoin="round" stroke-miterlimit="10" stroke-width="2"/><path fill="rgb(255,255,255)" stroke="none" paint-order="stroke fill markers" d=" M 882.4667940246316 546.9980731704796 L 892.1899172202109 547.2689519691835 L 886.5727463418264 539.3279261334977 Z" fill-opacity="1"/><path fill="rgb(0,255,255)" stroke="none" paint-order="stroke fill markers" d=" M 882.4667940246316 546.9980731704796 L 892.1899172202109 547.2689519691835 L 886.5727463418264 539.3279261334977 Z" fill-opacity="0.7"/><path fill="none" stroke="rgb(0,255,136)" paint-order="fill stroke markers" d=" M 1077.1405727728202 580.682013935933 L 1185.0844104586004 545.3796267682566" stroke-opacity="0.7" stroke-linejoin="round" stroke-miterlimit="10" stroke-width="2"/><path fill="rgb(255,255,255)" stroke="none" paint-order="stroke fill markers" d=" M 1181.9694078294988 550.975094453865 L 1188.8862559241707 544.1362559241707 L 1179.265076243612 542.7060805662497 Z" fill-opacity="1"/><path fill="rgb(0,255,136)" stroke="none" paint-order="stroke fill markers" d=" M 1181.9694078294988 550.975094453865 L 1188.8862559241707 544.1362559241707 L 1179.265076243612 542.7060805662497 Z" fill-opacity="0.7"/><path fill="none" stroke="rgb(255,0,102)" paint-order="fill stroke markers" d=" M 79.4447463715879 305.17597008284656 L 182.3918421738333 238.7584889201076" stroke-opacity="0.7" stroke-linejoin="round" stroke-miterlimit="10" stroke-width="2"/><path fill="rgb(255,255,255)" stroke="none" paint-order="stroke fill markers" d=" M 180.80069981090546 244.96177562804687 L 185.75302876673027 236.5899814408192 L 176.08419604345323 237.65119478849596 Z" fill-opacity="1"/><path fill="rgb(255,0,102)" stroke="none" paint-order="stroke fill markers" d=" M 180.80069981090546 244.96177562804687 L 185.75302876673027 236.5899814408192 L 176.08419604345323 237.65119478849596 Z" fill-opacity="0.7"/><path fill="none" stroke="rgb(255,0,102)" paint-order="fill stroke markers" d=" M 81.2273378841688 263.9379555212359 L 179.32801301158483 232.2925764478759" stroke-opacity="0.7" stroke-linejoin="round" stroke-miterlimit="10" stroke-width="2"/><path fill="rgb(255,255,255)" stroke="none" paint-order="stroke fill markers" d=" M 176.19044460077424 237.87542200077124 L 183.13484748262704 231.06456532818484 L 173.51952041544624 229.59555702625443 Z" fill-opacity="1"/><path fill="rgb(255,0,102)" stroke="none" paint-order="stroke fill markers" d=" M 176.19044460077424 237.87542200077124 L 183.13484748262704 231.06456532818484 L 173.51952041544624 229.59555702625443 Z" fill-opacity="0.7"/><path fill="none" stroke="rgb(255,102,0)" paint-order="fill stroke markers" d=" M 228.86929326037557 221.3748974747366 L 375.13904972300475 205.88308779283344" stroke-opacity="0.7" stroke-linejoin="round" stroke-miterlimit="10" stroke-width="2"/><path fill="rgb(255,255,255)" stroke="none" paint-order="stroke fill markers" d=" M 370.9233483468826 210.7039136460833 L 379.116801767324 205.4617937459801 L 370.0070337949766 202.05230294968894 Z" fill-opacity="1"/><path fill="rgb(255,102,0)" stroke="none" paint-order="stroke fill markers" d=" M 370.9233483468826 210.7039136460833 L 379.116801767324 205.4617937459801 L 370.0070337949766 202.05230294968894 Z" fill-opacity="0.7"/><path fill="none" stroke="rgb(255,0,102)" paint-order="fill stroke markers" d=" M 77.49763426826544 347.7232571597431 L 185.73844110141874 242.97408925669157" stroke-opacity="0.7" stroke-linejoin="round" stroke-miterlimit="10" stroke-width="2"/><path fill="rgb(255,255,255)" stroke="none" paint-order="stroke fill markers" d=" M 185.38609424481064 249.3684892827017 L 188.61284966848513 240.19240354662733 L 179.33592782542095 243.11665064933234 Z" fill-opacity="1"/><path fill="rgb(255,0,102)" stroke="none" paint-order="stroke fill markers" d=" M 185.38609424481064 249.3684892827017 L 188.61284966848513 240.19240354662733 L 179.33592782542095 243.11665064933234 Z" fill-opacity="0.7"/><path fill="none" stroke="rgb(255,153,119)" paint-order="fill stroke markers" d=" M 419.8419224166279 210.12736248953917 L 885.3510905139342 371.476410428871" stroke-opacity="0.9" stroke-linejoin="round" stroke-miterlimit="10" stroke-width="3" stroke-dasharray="6,3"/><path fill="rgb(255,255,255)" stroke="none" paint-order="stroke fill markers" d=" M 881.3753896875346 374.7022906093746 L 891.0202112043993 373.4413711401679 L 884.2245827189151 366.48206560820023 Z" fill-opacity="1"/><path fill="rgb(255,153,119)" stroke="none" paint-order="stroke fill markers" d=" M 881.3753896875346 374.7022906093746 L 891.0202112043993 373.4413711401679 L 884.2245827189151 366.48206560820023 Z" fill-opacity="0.9"/><path fill="none" stroke="rgb(255,153,119)" paint-order="fill stroke markers" d=" M 417.25472875324 215.2197257968641 L 888.36948312122 542.0353199036585" stroke-opacity="0.9" stroke-linejoin="round" stroke-miterlimit="10" stroke-width="3" stroke-dasharray="6,3"/><path fill="rgb(255,255,255)" stroke="none" paint-order="stroke fill markers" d=" M 883.6715747950245 544.0705489715186 L 893.2994056221457 545.4552415599055 L 888.6304611965825 536.9221613451764 Z" fill-opacity="1"/><path fill="rgb(255,153,119)" stroke="none" paint-order="stroke fill markers" d=" M 883.6715747950245 544.0705489715186 L 893.2994056221457 545.4552415599055 L 888.6304611965825 536.9221613451764 Z" fill-opacity="0.9"/><path fill="none" stroke="rgb(0,255,136)" paint-order="fill stroke markers" d=" M 1071.0944013385522 476.8995452139228 L 1186.7465626908713 525.2697887983833" stroke-opacity="0.25" stroke-linejoin="round" stroke-miterlimit="10" stroke-width="2"/><path fill="rgb(255,255,255)" stroke="none" paint-order="stroke fill markers" d=" M 1180.7320735500443 527.4694297633761 L 1190.4368070953437 526.8131929046563 L 1184.0889774811883 519.4431481836488 Z" fill-opacity="1"/><path fill="rgb(0,255,136)" stroke="none" paint-order="stroke fill markers" d=" M 1180.7320735500443 527.4694297633761 L 1190.4368070953437 526.8131929046563 L 1184.0889774811883 519.4431481836488 Z" fill-opacity="0.25"/><path fill="none" stroke="rgb(203,143,255)" paint-order="fill stroke markers" d=" M 596.3165482873754 35.69839147844584 L 765.8938344690671 463.5478587823887" stroke-opacity="0.9" stroke-linejoin="round" stroke-miterlimit="10" stroke-width="3" stroke-dasharray="6,3"/><path fill="rgb(255,255,255)" stroke="none" paint-order="stroke fill markers" d=" M 760.8550407767884 462.6406332720254 L 768.1046068865942 469.12571547810086 L 768.9429329855711 459.435013266611 Z" fill-opacity="1"/><path fill="rgb(203,143,255)" stroke="none" paint-order="stroke fill markers" d=" M 760.8550407767884 462.6406332720254 L 768.1046068865942 469.12571547810086 L 768.9429329855711 459.435013266611 Z" fill-opacity="0.9"/><path fill="none" stroke="rgb(255,153,119)" paint-order="fill stroke markers" d=" M 415.036498691261 188.59040562949622 L 571.9574181935288 35.6028600989211" stroke-opacity="0.9" stroke-linejoin="round" stroke-miterlimit="10" stroke-width="3" stroke-dasharray="6,3"/><path fill="rgb(255,255,255)" stroke="none" paint-order="stroke fill markers" d=" M 573.0607843385425 40.60236838974707 L 576.2535606767462 31.414404564491434 L 566.9875238136195 34.3729617890818 Z" fill-opacity="1"/><path fill="rgb(255,153,119)" stroke="none" paint-order="stroke fill markers" d=" M 573.0607843385425 40.60236838974707 L 576.2535606767462 31.414404564491434 L 566.9875238136195 34.3729617890818 Z" fill-opacity="0.9"/><path fill="none" stroke="rgb(203,143,255)" paint-order="fill stroke markers" d=" M 924.4140607262287 546.5664073014623 L 1032.6142724222204 482.4271065538383" stroke-opacity="0.9" stroke-linejoin="round" stroke-miterlimit="10" stroke-width="3" stroke-dasharray="6,3"/><path fill="rgb(255,255,255)" stroke="none" paint-order="stroke fill markers" d=" M 1032.5098488696703 487.5458559833057 L 1037.775589414511 479.3675629759342 L 1028.0735106817094 480.0619463444846 Z" fill-opacity="1"/><path fill="rgb(203,143,255)" stroke="none" paint-order="stroke fill markers" d=" M 1032.5098488696703 487.5458559833057 L 1037.775589414511 479.3675629759342 L 1028.0735106817094 480.0619463444846 Z" fill-opacity="0.9"/><path fill="none" stroke="rgb(255,0,102)" paint-order="fill stroke markers" d=" M 81.2273378841688 183.76204447876415 L 179.32801301158483 215.40742355212416" stroke-opacity="0.7" stroke-linejoin="round" stroke-miterlimit="10" stroke-width="2"/><path fill="rgb(255,255,255)" stroke="none" paint-order="stroke fill markers" d=" M 173.51952041544624 218.10444297374562 L 183.13484748262704 216.6354346718152 L 176.19044460077424 209.8245779992288 Z" fill-opacity="1"/><path fill="rgb(255,0,102)" stroke="none" paint-order="stroke fill markers" d=" M 173.51952041544624 218.10444297374562 L 183.13484748262704 216.6354346718152 L 176.19044460077424 209.8245779992288 Z" fill-opacity="0.7"/><path fill="none" stroke="rgb(0,255,255)" paint-order="fill stroke markers" d=" M 645.5 525.4799515608181 L 1024.882884639394 583.7758684416292" stroke-opacity="0.7" stroke-linejoin="round" stroke-miterlimit="10" stroke-width="2"/><path fill="rgb(255,255,255)" stroke="none" paint-order="stroke fill markers" d=" M 1019.5767414282205 587.3615823485825 L 1028.8364820633756 584.3833776259924 L 1020.8980739042104 578.7625079514224 Z" fill-opacity="1"/><path fill="rgb(0,255,255)" stroke="none" paint-order="stroke fill markers" d=" M 1019.5767414282205 587.3615823485825 L 1028.8364820633756 584.3833776259924 L 1020.8980739042104 578.7625079514224 Z" fill-opacity="0.7"/><path fill="none" stroke="rgb(0,255,255)" paint-order="fill stroke markers" d=" M 645.5 531.785569105691 L 754.6733466589174 560.8540821388581" stroke-opacity="0.7" stroke-linejoin="round" stroke-miterlimit="10" stroke-width="2"/><path fill="rgb(255,255,255)" stroke="none" paint-order="stroke fill markers" d=" M 749.0123459889646 563.8483385431751 L 758.5386773271339 561.8832657110864 L 751.2508202585614 555.4412443398043 Z" fill-opacity="1"/><path fill="rgb(0,255,255)" stroke="none" paint-order="stroke fill markers" d=" M 749.0123459889646 563.8483385431751 L 758.5386773271339 561.8832657110864 L 751.2508202585614 555.4412443398043 Z" fill-opacity="0.7"/><path fill="none" stroke="rgb(0,255,255)" paint-order="fill stroke markers" d=" M 645.5 506.89668021680217 L 754.3101307143004 487.5084252182514" stroke-opacity="0.7" stroke-linejoin="round" stroke-miterlimit="10" stroke-width="2"/><path fill="rgb(255,255,255)" stroke="none" paint-order="stroke fill markers" d=" M 750.4460939171306 492.6154517141801 L 758.2481045714403 486.8067401746011 L 748.9199289471912 484.05035857490077 Z" fill-opacity="1"/><path fill="rgb(0,255,255)" stroke="none" paint-order="stroke fill markers" d=" M 750.4460939171306 492.6154517141801 L 758.2481045714403 486.8067401746011 L 748.9199289471912 484.05035857490077 Z" fill-opacity="0.7"/><path fill="none" stroke="rgb(0,255,255)" paint-order="fill stroke markers" d=" M 410.8601937731544 221.22376396889473 L 531.4313916622564 420.77068712440706" stroke-opacity="0.7" stroke-linejoin="round" stroke-miterlimit="10" stroke-width="2"/><path fill="rgb(255,255,255)" stroke="none" paint-order="stroke fill markers" d=" M 525.2776400432792 418.9975991367602 L 533.5 424.1942612137203 L 532.7239136875356 414.4983760021677 Z" fill-opacity="1"/><path fill="rgb(0,255,255)" stroke="none" paint-order="stroke fill markers" d=" M 525.2776400432792 418.9975991367602 L 533.5 424.1942612137203 L 532.7239136875356 414.4983760021677 Z" fill-opacity="0.7"/><path fill="rgb(239,68,68)" stroke="rgb(0,0,0)" paint-order="fill stroke markers" d=" M 420 203.25 L 419.93834667466257 204.8191819145569 L 419.7537668119028 206.3786893008046 L 419.44739840795353 207.9189072771181 L 419.0211303259031 209.43033988749895 L 418.47759065022575 210.9036686473018 L 417.82013048376734 212.32980999479093 L 417.0528032870818 213.69997129431897 L 416.180339887499 215.00570504584945 L 415.20811931200063 216.23896096660368 L 414.14213562373095 217.39213562373095 L 412.98896096660366 218.45811931200063 L 411.7557050458495 219.43033988749895 L 410.44997129431897 220.30280328708184 L 409.07980999479093 221.07013048376734 L 407.6536686473018 221.72759065022575 L 406.180339887499 222.27113032590307 L 404.66890727711814 222.69739840795353 L 403.12868930080464 223.00376681190275 L 401.5691819145569 223.18834667466257 L 400 223.25 L 398.4308180854431 223.18834667466257 L 396.87131069919536 223.00376681190275 L 395.3310927228819 222.69739840795353 L 393.819660112501 222.27113032590307 L 392.3463313526982 221.72759065022575 L 390.92019000520907 221.07013048376734 L 389.55002870568103 220.30280328708184 L 388.2442949541505 219.43033988749895 L 387.01103903339634 218.45811931200063 L 385.85786437626905 217.39213562373095 L 384.79188068799937 216.23896096660368 L 383.8196601125011 215.00570504584945 L 382.9471967129182 213.69997129431897 L 382.17986951623266 212.32980999479093 L 381.52240934977425 210.9036686473018 L 380.9788696740969 209.43033988749895 L 380.55260159204647 207.9189072771181 L 380.2462331880972 206.3786893008046 L 380.06165332533743 204.8191819145569 L 380 203.25 L 380.06165332533743 201.6808180854431 L 380.2462331880972 200.1213106991954 L 380.55260159204647 198.5810927228819 L 380.9788696740969 197.06966011250105 L 381.52240934977425 195.5963313526982 L 382.17986951623266 194.17019000520907 L 382.9471967129181 192.80002870568103 L 383.819660112501 191.49429495415055 L 384.79188068799937 190.26103903339634 L 385.85786437626905 189.10786437626905 L 387.01103903339634 188.0418806879994 L 388.2442949541505 187.06966011250105 L 389.55002870568103 186.19719671291816 L 390.92019000520907 185.42986951623263 L 392.3463313526982 184.77240934977425 L 393.8196601125011 184.22886967409693 L 395.3310927228819 183.80260159204647 L 396.8713106991954 183.49623318809725 L 398.43081808544315 183.31165332533743 L 400.00000000000006 183.25 L 401.56918191455696 183.31165332533743 L 403.1286893008047 183.49623318809725 L 404.6689072771182 183.8026015920465 L 406.18033988749903 184.22886967409696 L 407.6536686473019 184.7724093497743 L 409.07980999479105 185.4298695162327 L 410.4499712943191 186.1971967129182 L 411.7557050458496 187.06966011250114 L 412.98896096660377 188.04188068799948 L 414.14213562373106 189.10786437626916 L 415.20811931200075 190.26103903339646 L 416.18033988749903 191.4942949541507 L 417.05280328708193 192.80002870568117 L 417.82013048376746 194.17019000520924 L 418.4775906502258 195.5963313526984 L 419.02113032590313 197.06966011250125 L 419.4473984079536 198.5810927228821 L 419.7537668119028 200.12131069919562 L 419.93834667466257 201.68081808544335 Z" fill-opacity="1" stroke-opacity="1" stroke-miterlimit="10" stroke-width="2"/><text fill="none" stroke="rgb(0,0,0)" font-family="Helvetica Neue, Helvetica, sans-serif" font-size="10px" font-style="normal" font-weight="normal" text-decoration="normal" x="400" y="183.25" text-anchor="middle" dominant-baseline="text-after-edge" stroke-opacity="1" stroke-linejoin="round" stroke-miterlimit="10" stroke-width="4">host_postgres_fb02b9d1</text><text fill="rgb(255,255,255)" stroke="none" font-family="Helvetica Neue, Helvetica, sans-serif" font-size="10px" font-style="normal" font-weight="normal" text-decoration="normal" x="400" y="183.25" text-anchor="middle" dominant-baseline="text-after-edge" fill-opacity="1">host_postgres_fb02b9d1</text><path fill="rgb(99,102,241)" stroke="rgb(255,0,102)" paint-order="fill stroke markers" d=" M 81 178.85000000000002 L 80.95376000599691 180.0268864359177 L 80.81532510892707 181.1965169756035 L 80.58554880596515 182.3516804578386 L 80.2658477444273 183.48525491562424 L 79.8581929876693 184.59025148547636 L 79.36509786282552 185.65985749609322 L 78.78960246531139 186.68747847073925 L 78.13525491562422 187.66677878438713 L 77.40608948400046 188.59172072495278 L 76.60660171779821 189.45660171779824 L 75.74172072495276 190.25608948400048 L 74.8167787843871 190.98525491562424 L 73.83747847073923 191.6396024653114 L 72.8098574960932 192.21509786282553 L 71.74025148547635 192.70819298766932 L 70.63525491562422 193.11584774442733 L 69.50168045783859 193.43554880596517 L 68.34651697560346 193.66532510892708 L 67.17688643591768 193.80376000599693 L 66 193.85000000000002 L 64.82311356408232 193.80376000599693 L 63.653483024396536 193.66532510892708 L 62.49831954216142 193.43554880596517 L 61.36474508437579 193.11584774442733 L 60.25974851452365 192.70819298766932 L 59.1901425039068 192.21509786282553 L 58.16252152926077 191.6396024653114 L 57.1832212156129 190.98525491562424 L 56.258279275047244 190.25608948400048 L 55.39339828220179 189.45660171779824 L 54.59391051599954 188.59172072495278 L 53.86474508437579 187.66677878438713 L 53.21039753468862 186.68747847073925 L 52.634902137174485 185.65985749609322 L 52.1418070123307 184.59025148547636 L 51.734152255572695 183.48525491562424 L 51.414451194034854 182.3516804578386 L 51.18467489107294 181.1965169756035 L 51.04623999400308 180.0268864359177 L 51 178.85000000000002 L 51.04623999400308 177.67311356408234 L 51.18467489107293 176.50348302439656 L 51.414451194034854 175.34831954216145 L 51.734152255572695 174.2147450843758 L 52.141807012330695 173.1097485145237 L 52.63490213717448 172.04014250390682 L 53.21039753468862 171.0125215292608 L 53.864745084375784 170.03322121561294 L 54.59391051599953 169.10827927504727 L 55.39339828220179 168.2433982822018 L 56.25827927504724 167.44391051599956 L 57.1832212156129 166.7147450843758 L 58.16252152926077 166.06039753468863 L 59.190142503906806 165.4849021371745 L 60.25974851452367 164.99180701233072 L 61.36474508437581 164.58415225557272 L 62.49831954216145 164.26445119403488 L 63.65348302439657 164.03467489107294 L 64.82311356408238 163.8962399940031 L 66.00000000000006 163.85000000000002 L 67.17688643591774 163.8962399940031 L 68.34651697560352 164.03467489107297 L 69.50168045783865 164.26445119403488 L 70.63525491562429 164.58415225557275 L 71.74025148547642 164.99180701233075 L 72.80985749609329 165.48490213717454 L 73.83747847073931 166.0603975346887 L 74.81677878438718 166.71474508437586 L 75.74172072495284 167.44391051599962 L 76.6066017177983 168.2433982822019 L 77.40608948400055 169.10827927504735 L 78.13525491562429 170.03322121561303 L 78.78960246531145 171.0125215292609 L 79.36509786282558 172.04014250390694 L 79.85819298766936 173.1097485145238 L 80.26584774442735 174.21474508437595 L 80.58554880596519 175.3483195421616 L 80.8153251089271 176.50348302439673 L 80.95376000599694 177.6731135640825 Z" fill-opacity="1" stroke-opacity="1" stroke-miterlimit="10" stroke-width="2"/><text fill="none" stroke="rgb(0,0,0)" font-family="Helvetica Neue, Helvetica, sans-serif" font-size="10px" font-style="normal" font-weight="normal" text-decoration="normal" x="66" y="163.85000000000002" text-anchor="middle" dominant-baseline="text-after-edge" stroke-opacity="1" stroke-linejoin="round" stroke-miterlimit="10" stroke-width="4">AC:L</text><text fill="rgb(255,255,255)" stroke="none" font-family="Helvetica Neue, Helvetica, sans-serif" font-size="10px" font-style="normal" font-weight="normal" text-decoration="normal" x="66" y="163.85000000000002" text-anchor="middle" dominant-baseline="text-after-edge" fill-opacity="1">AC:L</text><path fill="rgb(255,0,102)" stroke="rgb(0,0,0)" paint-order="fill stroke markers" d=" M 228 223.85000000000002 L 227.93064000899537 225.61532965387653 L 227.7229876633906 227.3697754634052 L 227.37832320894773 229.10252068675788 L 226.89877161664094 230.80288237343635 L 226.28728948150396 232.46037722821455 L 225.5476467942383 234.06478624413984 L 224.68440369796707 235.60621770610888 L 223.70288237343632 237.07516817658066 L 222.6091342260007 238.46258108742916 L 221.40990257669733 239.75990257669733 L 220.11258108742913 240.9591342260007 L 218.72516817658064 242.05288237343635 L 217.25621770610886 243.0344036979671 L 215.71478624413982 243.8976467942383 L 214.11037722821453 244.63728948150398 L 212.45288237343632 245.24877161664097 L 210.75252068675786 245.72832320894776 L 209.01977546340518 246.07298766339062 L 207.2653296538765 246.2806400089954 L 205.5 246.35000000000002 L 203.7346703461235 246.2806400089954 L 201.98022453659482 246.07298766339062 L 200.24747931324214 245.72832320894776 L 198.54711762656368 245.24877161664097 L 196.88962277178547 244.63728948150398 L 195.2852137558602 243.8976467942383 L 193.74378229389114 243.0344036979671 L 192.27483182341936 242.05288237343635 L 190.88741891257087 240.9591342260007 L 189.5900974233027 239.75990257669736 L 188.3908657739993 238.46258108742916 L 187.29711762656368 237.07516817658066 L 186.31559630203293 235.60621770610888 L 185.4523532057617 234.06478624413984 L 184.71271051849604 232.46037722821455 L 184.10122838335906 230.80288237343635 L 183.62167679105227 229.10252068675788 L 183.2770123366094 227.36977546340523 L 183.06935999100463 225.61532965387653 L 183 223.85000000000002 L 183.06935999100463 222.08467034612352 L 183.2770123366094 220.33022453659484 L 183.62167679105227 218.59747931324216 L 184.10122838335906 216.8971176265637 L 184.71271051849604 215.2396227717855 L 185.4523532057617 213.63521375586024 L 186.31559630203293 212.09378229389117 L 187.29711762656368 210.62483182341938 L 188.3908657739993 209.2374189125709 L 189.59009742330267 207.94009742330272 L 190.88741891257087 206.74086577399933 L 192.27483182341936 205.6471176265637 L 193.74378229389114 204.66559630203295 L 195.2852137558602 203.80235320576173 L 196.8896227717855 203.06271051849606 L 198.5471176265637 202.45122838335905 L 200.24747931324217 201.9716767910523 L 201.98022453659485 201.62701233660943 L 203.73467034612355 201.41935999100463 L 205.50000000000009 201.35000000000002 L 207.2653296538766 201.41935999100465 L 209.0197754634053 201.62701233660943 L 210.75252068675798 201.97167679105232 L 212.45288237343644 202.4512283833591 L 214.11037722821465 203.06271051849612 L 215.71478624413993 203.80235320576182 L 217.25621770610897 204.665596302033 L 218.72516817658078 205.64711762656378 L 220.11258108742925 206.74086577399945 L 221.40990257669745 207.94009742330283 L 222.6091342260008 209.23741891257103 L 223.70288237343644 210.62483182341953 L 224.68440369796718 212.09378229389134 L 225.54764679423837 213.6352137558604 L 226.28728948150405 215.23962277178572 L 226.89877161664103 216.89711762656393 L 227.3783232089478 218.5974793132424 L 227.72298766339065 220.33022453659507 L 227.9306400089954 222.08467034612377 Z" fill-opacity="1" stroke-opacity="1" stroke-miterlimit="10" stroke-width="2"/><text fill="none" stroke="rgb(0,0,0)" font-family="Helvetica Neue, Helvetica, sans-serif" font-size="10px" font-style="normal" font-weight="normal" text-decoration="normal" x="205.5" y="201.35000000000002" text-anchor="middle" dominant-baseline="text-after-edge" stroke-opacity="1" stroke-linejoin="round" stroke-miterlimit="10" stroke-width="4">Hacker</text><text fill="rgb(255,255,255)" stroke="none" font-family="Helvetica Neue, Helvetica, sans-serif" font-size="10px" font-style="normal" font-weight="normal" text-decoration="normal" x="205.5" y="201.35000000000002" text-anchor="middle" dominant-baseline="text-after-edge" fill-opacity="1">Hacker</text><path fill="rgb(99,102,241)" stroke="rgb(255,0,102)" paint-order="fill stroke markers" d=" M 81 268.85 L 80.95376000599691 270.0268864359177 L 80.81532510892707 271.19651697560346 L 80.58554880596515 272.3516804578386 L 80.2658477444273 273.48525491562424 L 79.8581929876693 274.59025148547636 L 79.36509786282552 275.6598574960932 L 78.78960246531139 276.6874784707393 L 78.13525491562422 277.66677878438713 L 77.40608948400046 278.5917207249528 L 76.60660171779821 279.4566017177982 L 75.74172072495276 280.2560894840005 L 74.8167787843871 280.98525491562424 L 73.83747847073923 281.6396024653114 L 72.8098574960932 282.21509786282553 L 71.74025148547635 282.70819298766935 L 70.63525491562422 283.1158477444273 L 69.50168045783859 283.4355488059652 L 68.34651697560346 283.6653251089271 L 67.17688643591768 283.80376000599693 L 66 283.85 L 64.82311356408232 283.80376000599693 L 63.653483024396536 283.6653251089271 L 62.49831954216142 283.4355488059652 L 61.36474508437579 283.11584774442736 L 60.25974851452365 282.70819298766935 L 59.1901425039068 282.21509786282553 L 58.16252152926077 281.6396024653114 L 57.1832212156129 280.98525491562424 L 56.258279275047244 280.2560894840005 L 55.39339828220179 279.4566017177982 L 54.59391051599954 278.5917207249528 L 53.86474508437579 277.66677878438713 L 53.21039753468862 276.6874784707393 L 52.634902137174485 275.65985749609325 L 52.1418070123307 274.59025148547636 L 51.734152255572695 273.48525491562424 L 51.414451194034854 272.3516804578386 L 51.18467489107294 271.1965169756035 L 51.04623999400308 270.0268864359177 L 51 268.85 L 51.04623999400308 267.67311356408237 L 51.18467489107293 266.5034830243966 L 51.414451194034854 265.34831954216145 L 51.734152255572695 264.2147450843758 L 52.141807012330695 263.1097485145237 L 52.63490213717448 262.04014250390685 L 53.21039753468862 261.01252152926077 L 53.864745084375784 260.0332212156129 L 54.59391051599953 259.10827927504727 L 55.39339828220179 258.24339828220184 L 56.25827927504724 257.44391051599956 L 57.1832212156129 256.7147450843758 L 58.16252152926077 256.06039753468866 L 59.190142503906806 255.4849021371745 L 60.25974851452367 254.99180701233072 L 61.36474508437581 254.58415225557272 L 62.49831954216145 254.26445119403488 L 63.65348302439657 254.03467489107294 L 64.82311356408238 253.8962399940031 L 66.00000000000006 253.85000000000002 L 67.17688643591774 253.8962399940031 L 68.34651697560352 254.03467489107297 L 69.50168045783865 254.26445119403488 L 70.63525491562429 254.58415225557275 L 71.74025148547642 254.99180701233075 L 72.80985749609329 255.48490213717454 L 73.83747847073931 256.0603975346887 L 74.81677878438718 256.71474508437586 L 75.74172072495284 257.4439105159996 L 76.6066017177983 258.2433982822019 L 77.40608948400055 259.1082792750474 L 78.13525491562429 260.033221215613 L 78.78960246531145 261.0125215292609 L 79.36509786282558 262.04014250390696 L 79.85819298766936 263.1097485145238 L 80.26584774442735 264.214745084376 L 80.58554880596519 265.3483195421616 L 80.8153251089271 266.5034830243967 L 80.95376000599694 267.67311356408254 Z" fill-opacity="1" stroke-opacity="1" stroke-miterlimit="10" stroke-width="2"/><text fill="none" stroke="rgb(0,0,0)" font-family="Helvetica Neue, Helvetica, sans-serif" font-size="10px" font-style="normal" font-weight="normal" text-decoration="normal" x="66" y="253.85000000000002" text-anchor="middle" dominant-baseline="text-after-edge" stroke-opacity="1" stroke-linejoin="round" stroke-miterlimit="10" stroke-width="4">AV:N</text><text fill="rgb(255,255,255)" stroke="none" font-family="Helvetica Neue, Helvetica, sans-serif" font-size="10px" font-style="normal" font-weight="normal" text-decoration="normal" x="66" y="253.85000000000002" text-anchor="middle" dominant-baseline="text-after-edge" fill-opacity="1">AV:N</text><path fill="rgb(99,102,241)" stroke="rgb(255,0,102)" paint-order="fill stroke markers" d=" M 81 313.85 L 80.95376000599691 315.0268864359177 L 80.81532510892707 316.19651697560346 L 80.58554880596515 317.3516804578386 L 80.2658477444273 318.48525491562424 L 79.8581929876693 319.59025148547636 L 79.36509786282552 320.6598574960932 L 78.78960246531139 321.6874784707393 L 78.13525491562422 322.66677878438713 L 77.40608948400046 323.5917207249528 L 76.60660171779821 324.4566017177982 L 75.74172072495276 325.2560894840005 L 74.8167787843871 325.98525491562424 L 73.83747847073923 326.6396024653114 L 72.8098574960932 327.21509786282553 L 71.74025148547635 327.70819298766935 L 70.63525491562422 328.1158477444273 L 69.50168045783859 328.4355488059652 L 68.34651697560346 328.6653251089271 L 67.17688643591768 328.80376000599693 L 66 328.85 L 64.82311356408232 328.80376000599693 L 63.653483024396536 328.6653251089271 L 62.49831954216142 328.4355488059652 L 61.36474508437579 328.11584774442736 L 60.25974851452365 327.70819298766935 L 59.1901425039068 327.21509786282553 L 58.16252152926077 326.6396024653114 L 57.1832212156129 325.98525491562424 L 56.258279275047244 325.2560894840005 L 55.39339828220179 324.4566017177982 L 54.59391051599954 323.5917207249528 L 53.86474508437579 322.66677878438713 L 53.21039753468862 321.6874784707393 L 52.634902137174485 320.65985749609325 L 52.1418070123307 319.59025148547636 L 51.734152255572695 318.48525491562424 L 51.414451194034854 317.3516804578386 L 51.18467489107294 316.1965169756035 L 51.04623999400308 315.0268864359177 L 51 313.85 L 51.04623999400308 312.67311356408237 L 51.18467489107293 311.5034830243966 L 51.414451194034854 310.34831954216145 L 51.734152255572695 309.2147450843758 L 52.141807012330695 308.1097485145237 L 52.63490213717448 307.04014250390685 L 53.21039753468862 306.01252152926077 L 53.864745084375784 305.0332212156129 L 54.59391051599953 304.10827927504727 L 55.39339828220179 303.24339828220184 L 56.25827927504724 302.44391051599956 L 57.1832212156129 301.7147450843758 L 58.16252152926077 301.06039753468866 L 59.190142503906806 300.4849021371745 L 60.25974851452367 299.9918070123307 L 61.36474508437581 299.5841522555727 L 62.49831954216145 299.26445119403485 L 63.65348302439657 299.03467489107294 L 64.82311356408238 298.8962399940031 L 66.00000000000006 298.85 L 67.17688643591774 298.8962399940031 L 68.34651697560352 299.03467489107294 L 69.50168045783865 299.2644511940349 L 70.63525491562429 299.58415225557275 L 71.74025148547642 299.99180701233075 L 72.80985749609329 300.4849021371746 L 73.83747847073931 301.0603975346887 L 74.81677878438718 301.71474508437586 L 75.74172072495284 302.4439105159996 L 76.6066017177983 303.2433982822019 L 77.40608948400055 304.1082792750474 L 78.13525491562429 305.033221215613 L 78.78960246531145 306.0125215292609 L 79.36509786282558 307.04014250390696 L 79.85819298766936 308.1097485145238 L 80.26584774442735 309.214745084376 L 80.58554880596519 310.3483195421616 L 80.8153251089271 311.5034830243967 L 80.95376000599694 312.67311356408254 Z" fill-opacity="1" stroke-opacity="1" stroke-miterlimit="10" stroke-width="2"/><text fill="none" stroke="rgb(0,0,0)" font-family="Helvetica Neue, Helvetica, sans-serif" font-size="10px" font-style="normal" font-weight="normal" text-decoration="normal" x="66" y="298.85" text-anchor="middle" dominant-baseline="text-after-edge" stroke-opacity="1" stroke-linejoin="round" stroke-miterlimit="10" stroke-width="4">PR:N</text><text fill="rgb(255,255,255)" stroke="none" font-family="Helvetica Neue, Helvetica, sans-serif" font-size="10px" font-style="normal" font-weight="normal" text-decoration="normal" x="66" y="298.85" text-anchor="middle" dominant-baseline="text-after-edge" fill-opacity="1">PR:N</text><path fill="rgb(234,179,8)" stroke="rgb(0,0,0)" paint-order="fill stroke markers" d=" M 607 680.375 L 606.9460533403297 681.7480341752373 L 606.7845459604149 683.112603138204 L 606.5164736069594 684.4602938674783 L 606.1434890351652 685.7827974015615 L 605.6678918189475 687.0719600663891 L 605.0926141732964 688.3198337454421 L 604.4212028761966 689.5187248825291 L 603.6577974015615 690.6612419151182 L 602.8071043980005 691.7403408457782 L 601.8743686707646 692.7493686707646 L 600.8653408457782 693.6821043980005 L 599.7862419151182 694.5327974015615 L 598.6437248825291 695.2962028761966 L 597.4448337454421 695.9676141732964 L 596.1969600663891 696.5428918189475 L 594.9077974015615 697.0184890351652 L 593.5852938674783 697.3914736069594 L 592.237603138204 697.6595459604149 L 590.8730341752373 697.8210533403297 L 589.5 697.875 L 588.1269658247627 697.8210533403297 L 586.762396861796 697.6595459604149 L 585.4147061325217 697.3914736069594 L 584.0922025984385 697.0184890351652 L 582.8030399336109 696.5428918189475 L 581.5551662545579 695.9676141732964 L 580.3562751174709 695.2962028761966 L 579.2137580848818 694.5327974015615 L 578.1346591542218 693.6821043980005 L 577.1256313292354 692.7493686707646 L 576.1928956019995 691.7403408457782 L 575.3422025984385 690.6612419151182 L 574.5787971238034 689.5187248825291 L 573.9073858267036 688.3198337454421 L 573.3321081810525 687.0719600663891 L 572.8565109648348 685.7827974015615 L 572.4835263930406 684.4602938674783 L 572.2154540395851 683.112603138204 L 572.0539466596703 681.7480341752373 L 572 680.375 L 572.0539466596703 679.0019658247627 L 572.2154540395851 677.637396861796 L 572.4835263930406 676.2897061325217 L 572.8565109648348 674.9672025984385 L 573.3321081810525 673.6780399336109 L 573.9073858267036 672.4301662545579 L 574.5787971238034 671.2312751174709 L 575.3422025984385 670.0887580848818 L 576.1928956019995 669.0096591542218 L 577.1256313292354 668.0006313292354 L 578.1346591542218 667.0678956019995 L 579.2137580848818 666.2172025984385 L 580.3562751174709 665.4537971238034 L 581.5551662545579 664.7823858267036 L 582.803039933611 664.2071081810525 L 584.0922025984385 663.7315109648348 L 585.4147061325217 663.3585263930406 L 586.762396861796 663.0904540395851 L 588.1269658247628 662.9289466596703 L 589.5000000000001 662.875 L 590.8730341752373 662.9289466596703 L 592.2376031382041 663.0904540395851 L 593.5852938674784 663.3585263930406 L 594.9077974015617 663.7315109648348 L 596.1969600663891 664.2071081810525 L 597.4448337454421 664.7823858267036 L 598.6437248825292 665.4537971238035 L 599.7862419151184 666.2172025984385 L 600.8653408457783 667.0678956019996 L 601.8743686707646 668.0006313292355 L 602.8071043980007 669.0096591542219 L 603.6577974015617 670.0887580848819 L 604.4212028761967 671.231275117471 L 605.0926141732965 672.4301662545581 L 605.6678918189476 673.6780399336111 L 606.1434890351652 674.9672025984386 L 606.5164736069594 676.2897061325218 L 606.7845459604149 677.6373968617961 L 606.9460533403297 679.0019658247629 Z" fill-opacity="1" stroke-opacity="1" stroke-miterlimit="10" stroke-width="2"/><text fill="none" stroke="rgb(0,0,0)" font-family="Helvetica Neue, Helvetica, sans-serif" font-size="10px" font-style="normal" font-weight="normal" text-decoration="normal" x="589.5" y="662.875" text-anchor="middle" dominant-baseline="text-after-edge" stroke-opacity="1" stroke-linejoin="round" stroke-miterlimit="10" stroke-width="4">CVE-2025-68121</text><text fill="rgb(255,255,255)" stroke="none" font-family="Helvetica Neue, Helvetica, sans-serif" font-size="10px" font-style="normal" font-weight="normal" text-decoration="normal" x="589.5" y="662.875" text-anchor="middle" dominant-baseline="text-after-edge" fill-opacity="1">CVE-2025-68121</text><path fill="rgb(99,102,241)" stroke="rgb(0,0,0)" paint-order="fill stroke markers" d=" M 789 484 L 788.953760005997 485.17688643591765 L 788.815325108927 486.34651697560344 L 788.5855488059651 487.5016804578386 L 788.2658477444273 488.6352549156242 L 787.8581929876693 489.74025148547634 L 787.3650978628256 490.8098574960932 L 786.7896024653114 491.83747847073926 L 786.1352549156242 492.8167787843871 L 785.4060894840005 493.74172072495276 L 784.6066017177982 494.6066017177982 L 783.7417207249528 495.40608948400046 L 782.8167787843871 496.1352549156242 L 781.8374784707393 496.78960246531136 L 780.8098574960932 497.3650978628255 L 779.7402514854764 497.8581929876693 L 778.6352549156242 498.2658477444273 L 777.5016804578386 498.5855488059652 L 776.3465169756034 498.8153251089271 L 775.1768864359177 498.9537600059969 L 774 499 L 772.8231135640823 498.9537600059969 L 771.6534830243966 498.8153251089271 L 770.4983195421614 498.5855488059652 L 769.3647450843758 498.26584774442733 L 768.2597485145236 497.8581929876693 L 767.1901425039068 497.3650978628255 L 766.1625215292607 496.78960246531136 L 765.1832212156129 496.1352549156242 L 764.2582792750472 495.40608948400046 L 763.3933982822018 494.6066017177982 L 762.5939105159995 493.74172072495276 L 761.8647450843758 492.8167787843871 L 761.2103975346886 491.83747847073926 L 760.6349021371744 490.80985749609323 L 760.1418070123307 489.74025148547634 L 759.7341522555727 488.6352549156242 L 759.4144511940349 487.5016804578386 L 759.184674891073 486.3465169756035 L 759.046239994003 485.17688643591765 L 759 484 L 759.046239994003 482.82311356408235 L 759.184674891073 481.65348302439656 L 759.4144511940349 480.4983195421614 L 759.7341522555727 479.3647450843758 L 760.1418070123307 478.25974851452366 L 760.6349021371744 477.1901425039068 L 761.2103975346886 476.16252152926074 L 761.8647450843758 475.1832212156129 L 762.5939105159995 474.25827927504724 L 763.3933982822018 473.3933982822018 L 764.2582792750472 472.59391051599954 L 765.1832212156129 471.8647450843758 L 766.1625215292607 471.21039753468864 L 767.1901425039068 470.6349021371745 L 768.2597485145237 470.1418070123307 L 769.3647450843758 469.73415225557267 L 770.4983195421614 469.4144511940348 L 771.6534830243966 469.1846748910729 L 772.8231135640824 469.0462399940031 L 774 469 L 775.1768864359177 469.0462399940031 L 776.3465169756035 469.1846748910729 L 777.5016804578387 469.4144511940349 L 778.6352549156243 469.7341522555727 L 779.7402514854764 470.14180701233073 L 780.8098574960933 470.63490213717455 L 781.8374784707394 471.2103975346887 L 782.8167787843872 471.86474508437584 L 783.7417207249529 472.5939105159996 L 784.6066017177983 473.3933982822019 L 785.4060894840005 474.25827927504736 L 786.1352549156243 475.183221215613 L 786.7896024653114 476.16252152926086 L 787.3650978628256 477.19014250390694 L 787.8581929876693 478.2597485145238 L 788.2658477444273 479.36474508437595 L 788.5855488059652 480.4983195421616 L 788.8153251089271 481.6534830243967 L 788.953760005997 482.8231135640825 Z" fill-opacity="1" stroke-opacity="1" stroke-miterlimit="10" stroke-width="2"/><text fill="none" stroke="rgb(0,0,0)" font-family="Helvetica Neue, Helvetica, sans-serif" font-size="10px" font-style="normal" font-weight="normal" text-decoration="normal" x="774" y="469" text-anchor="middle" dominant-baseline="text-after-edge" stroke-opacity="1" stroke-linejoin="round" stroke-miterlimit="10" stroke-width="4">AV:L</text><text fill="rgb(255,255,255)" stroke="none" font-family="Helvetica Neue, Helvetica, sans-serif" font-size="10px" font-style="normal" font-weight="normal" text-decoration="normal" x="774" y="469" text-anchor="middle" dominant-baseline="text-after-edge" fill-opacity="1">AV:L</text><path fill="rgb(99,102,241)" stroke="rgb(0,0,0)" paint-order="fill stroke markers" d=" M 789 566 L 788.953760005997 567.1768864359177 L 788.815325108927 568.3465169756034 L 788.5855488059651 569.5016804578386 L 788.2658477444273 570.6352549156242 L 787.8581929876693 571.7402514854764 L 787.3650978628256 572.8098574960932 L 786.7896024653114 573.8374784707393 L 786.1352549156242 574.8167787843871 L 785.4060894840005 575.7417207249528 L 784.6066017177982 576.6066017177982 L 783.7417207249528 577.4060894840005 L 782.8167787843871 578.1352549156242 L 781.8374784707393 578.7896024653114 L 780.8098574960932 579.3650978628256 L 779.7402514854764 579.8581929876693 L 778.6352549156242 580.2658477444273 L 777.5016804578386 580.5855488059651 L 776.3465169756034 580.815325108927 L 775.1768864359177 580.953760005997 L 774 581 L 772.8231135640823 580.953760005997 L 771.6534830243966 580.815325108927 L 770.4983195421614 580.5855488059651 L 769.3647450843758 580.2658477444273 L 768.2597485145236 579.8581929876693 L 767.1901425039068 579.3650978628256 L 766.1625215292607 578.7896024653114 L 765.1832212156129 578.1352549156242 L 764.2582792750472 577.4060894840005 L 763.3933982822018 576.6066017177982 L 762.5939105159995 575.7417207249528 L 761.8647450843758 574.8167787843871 L 761.2103975346886 573.8374784707393 L 760.6349021371744 572.8098574960932 L 760.1418070123307 571.7402514854764 L 759.7341522555727 570.6352549156242 L 759.4144511940349 569.5016804578386 L 759.184674891073 568.3465169756034 L 759.046239994003 567.1768864359177 L 759 566 L 759.046239994003 564.8231135640823 L 759.184674891073 563.6534830243966 L 759.4144511940349 562.4983195421614 L 759.7341522555727 561.3647450843758 L 760.1418070123307 560.2597485145236 L 760.6349021371744 559.1901425039068 L 761.2103975346886 558.1625215292607 L 761.8647450843758 557.1832212156129 L 762.5939105159995 556.2582792750472 L 763.3933982822018 555.3933982822018 L 764.2582792750472 554.5939105159996 L 765.1832212156129 553.8647450843758 L 766.1625215292607 553.2103975346886 L 767.1901425039068 552.6349021371744 L 768.2597485145237 552.1418070123307 L 769.3647450843758 551.7341522555727 L 770.4983195421614 551.4144511940349 L 771.6534830243966 551.184674891073 L 772.8231135640824 551.046239994003 L 774 551 L 775.1768864359177 551.046239994003 L 776.3465169756035 551.184674891073 L 777.5016804578387 551.4144511940349 L 778.6352549156243 551.7341522555727 L 779.7402514854764 552.1418070123307 L 780.8098574960933 552.6349021371745 L 781.8374784707394 553.2103975346887 L 782.8167787843872 553.8647450843758 L 783.7417207249529 554.5939105159996 L 784.6066017177983 555.3933982822018 L 785.4060894840005 556.2582792750474 L 786.1352549156243 557.183221215613 L 786.7896024653114 558.1625215292609 L 787.3650978628256 559.1901425039069 L 787.8581929876693 560.2597485145238 L 788.2658477444273 561.364745084376 L 788.5855488059652 562.4983195421615 L 788.8153251089271 563.6534830243967 L 788.953760005997 564.8231135640825 Z" fill-opacity="1" stroke-opacity="1" stroke-miterlimit="10" stroke-width="2"/><text fill="none" stroke="rgb(0,0,0)" font-family="Helvetica Neue, Helvetica, sans-serif" font-size="10px" font-style="normal" font-weight="normal" text-decoration="normal" x="774" y="551" text-anchor="middle" dominant-baseline="text-after-edge" stroke-opacity="1" stroke-linejoin="round" stroke-miterlimit="10" stroke-width="4">PR:H</text><text fill="rgb(255,255,255)" stroke="none" font-family="Helvetica Neue, Helvetica, sans-serif" font-size="10px" font-style="normal" font-weight="normal" text-decoration="normal" x="774" y="551" text-anchor="middle" dominant-baseline="text-after-edge" fill-opacity="1">PR:H</text><path fill="rgb(255,0,0)" stroke="rgb(255,215,0)" paint-order="fill stroke markers" d=" M 1054 563.25 L 1044.7343318831333 577.4799193548821 L 1029 582.3483005625053 L 1039.0078340584334 596.0112555886155 L 1038.5491502812527 613.25 L 1054 607.4642512380153 L 1069.4508497187473 613.25 L 1068.9921659415666 596.0112555886155 L 1079 582.3483005625053 L 1063.2656681168667 577.4799193548821 Z" fill-opacity="1" stroke-opacity="1" stroke-miterlimit="10" stroke-width="4"/><text fill="none" stroke="rgb(0,0,0)" font-family="Helvetica Neue, Helvetica, sans-serif" font-size="10px" font-style="normal" font-weight="bold" text-decoration="normal" x="1054" y="563.25" text-anchor="middle" dominant-baseline="text-after-edge" stroke-opacity="1" stroke-linejoin="round" stroke-miterlimit="10" stroke-width="4">EXPLOITED</text><text fill="rgb(255,255,255)" stroke="none" font-family="Helvetica Neue, Helvetica, sans-serif" font-size="10px" font-style="normal" font-weight="bold" text-decoration="normal" x="1054" y="563.25" text-anchor="middle" dominant-baseline="text-after-edge" fill-opacity="1">EXPLOITED</text><path fill="rgb(234,179,8)" stroke="rgb(0,0,0)" paint-order="fill stroke markers" d=" M 607 635.375 L 606.9460533403297 636.7480341752373 L 606.7845459604149 638.112603138204 L 606.5164736069594 639.4602938674783 L 606.1434890351652 640.7827974015615 L 605.6678918189475 642.0719600663891 L 605.0926141732964 643.3198337454421 L 604.4212028761966 644.5187248825291 L 603.6577974015615 645.6612419151182 L 602.8071043980005 646.7403408457782 L 601.8743686707646 647.7493686707646 L 600.8653408457782 648.6821043980005 L 599.7862419151182 649.5327974015615 L 598.6437248825291 650.2962028761966 L 597.4448337454421 650.9676141732964 L 596.1969600663891 651.5428918189475 L 594.9077974015615 652.0184890351652 L 593.5852938674783 652.3914736069594 L 592.237603138204 652.6595459604149 L 590.8730341752373 652.8210533403297 L 589.5 652.875 L 588.1269658247627 652.8210533403297 L 586.762396861796 652.6595459604149 L 585.4147061325217 652.3914736069594 L 584.0922025984385 652.0184890351652 L 582.8030399336109 651.5428918189475 L 581.5551662545579 650.9676141732964 L 580.3562751174709 650.2962028761966 L 579.2137580848818 649.5327974015615 L 578.1346591542218 648.6821043980005 L 577.1256313292354 647.7493686707646 L 576.1928956019995 646.7403408457782 L 575.3422025984385 645.6612419151182 L 574.5787971238034 644.5187248825291 L 573.9073858267036 643.3198337454421 L 573.3321081810525 642.0719600663891 L 572.8565109648348 640.7827974015615 L 572.4835263930406 639.4602938674783 L 572.2154540395851 638.112603138204 L 572.0539466596703 636.7480341752373 L 572 635.375 L 572.0539466596703 634.0019658247627 L 572.2154540395851 632.637396861796 L 572.4835263930406 631.2897061325217 L 572.8565109648348 629.9672025984385 L 573.3321081810525 628.6780399336109 L 573.9073858267036 627.4301662545579 L 574.5787971238034 626.2312751174709 L 575.3422025984385 625.0887580848818 L 576.1928956019995 624.0096591542218 L 577.1256313292354 623.0006313292354 L 578.1346591542218 622.0678956019995 L 579.2137580848818 621.2172025984385 L 580.3562751174709 620.4537971238034 L 581.5551662545579 619.7823858267036 L 582.803039933611 619.2071081810525 L 584.0922025984385 618.7315109648348 L 585.4147061325217 618.3585263930406 L 586.762396861796 618.0904540395851 L 588.1269658247628 617.9289466596703 L 589.5000000000001 617.875 L 590.8730341752373 617.9289466596703 L 592.2376031382041 618.0904540395851 L 593.5852938674784 618.3585263930406 L 594.9077974015617 618.7315109648348 L 596.1969600663891 619.2071081810525 L 597.4448337454421 619.7823858267036 L 598.6437248825292 620.4537971238035 L 599.7862419151184 621.2172025984385 L 600.8653408457783 622.0678956019996 L 601.8743686707646 623.0006313292355 L 602.8071043980007 624.0096591542219 L 603.6577974015617 625.0887580848819 L 604.4212028761967 626.231275117471 L 605.0926141732965 627.4301662545581 L 605.6678918189476 628.6780399336111 L 606.1434890351652 629.9672025984386 L 606.5164736069594 631.2897061325218 L 606.7845459604149 632.6373968617961 L 606.9460533403297 634.0019658247629 Z" fill-opacity="1" stroke-opacity="1" stroke-miterlimit="10" stroke-width="2"/><text fill="none" stroke="rgb(0,0,0)" font-family="Helvetica Neue, Helvetica, sans-serif" font-size="10px" font-style="normal" font-weight="normal" text-decoration="normal" x="589.5" y="617.875" text-anchor="middle" dominant-baseline="text-after-edge" stroke-opacity="1" stroke-linejoin="round" stroke-miterlimit="10" stroke-width="4">CVE-2025-61729</text><text fill="rgb(255,255,255)" stroke="none" font-family="Helvetica Neue, Helvetica, sans-serif" font-size="10px" font-style="normal" font-weight="normal" text-decoration="normal" x="589.5" y="617.875" text-anchor="middle" dominant-baseline="text-after-edge" fill-opacity="1">CVE-2025-61729</text><path fill="rgb(234,179,8)" stroke="rgb(0,0,0)" paint-order="fill stroke markers" d=" M 607 590.375 L 606.9460533403297 591.7480341752373 L 606.7845459604149 593.112603138204 L 606.5164736069594 594.4602938674783 L 606.1434890351652 595.7827974015615 L 605.6678918189475 597.0719600663891 L 605.0926141732964 598.3198337454421 L 604.4212028761966 599.5187248825291 L 603.6577974015615 600.6612419151182 L 602.8071043980005 601.7403408457782 L 601.8743686707646 602.7493686707646 L 600.8653408457782 603.6821043980005 L 599.7862419151182 604.5327974015615 L 598.6437248825291 605.2962028761966 L 597.4448337454421 605.9676141732964 L 596.1969600663891 606.5428918189475 L 594.9077974015615 607.0184890351652 L 593.5852938674783 607.3914736069594 L 592.237603138204 607.6595459604149 L 590.8730341752373 607.8210533403297 L 589.5 607.875 L 588.1269658247627 607.8210533403297 L 586.762396861796 607.6595459604149 L 585.4147061325217 607.3914736069594 L 584.0922025984385 607.0184890351652 L 582.8030399336109 606.5428918189475 L 581.5551662545579 605.9676141732964 L 580.3562751174709 605.2962028761966 L 579.2137580848818 604.5327974015615 L 578.1346591542218 603.6821043980005 L 577.1256313292354 602.7493686707646 L 576.1928956019995 601.7403408457782 L 575.3422025984385 600.6612419151182 L 574.5787971238034 599.5187248825291 L 573.9073858267036 598.3198337454421 L 573.3321081810525 597.0719600663891 L 572.8565109648348 595.7827974015615 L 572.4835263930406 594.4602938674783 L 572.2154540395851 593.112603138204 L 572.0539466596703 591.7480341752373 L 572 590.375 L 572.0539466596703 589.0019658247627 L 572.2154540395851 587.637396861796 L 572.4835263930406 586.2897061325217 L 572.8565109648348 584.9672025984385 L 573.3321081810525 583.6780399336109 L 573.9073858267036 582.4301662545579 L 574.5787971238034 581.2312751174709 L 575.3422025984385 580.0887580848818 L 576.1928956019995 579.0096591542218 L 577.1256313292354 578.0006313292354 L 578.1346591542218 577.0678956019995 L 579.2137580848818 576.2172025984385 L 580.3562751174709 575.4537971238034 L 581.5551662545579 574.7823858267036 L 582.803039933611 574.2071081810525 L 584.0922025984385 573.7315109648348 L 585.4147061325217 573.3585263930406 L 586.762396861796 573.0904540395851 L 588.1269658247628 572.9289466596703 L 589.5000000000001 572.875 L 590.8730341752373 572.9289466596703 L 592.2376031382041 573.0904540395851 L 593.5852938674784 573.3585263930406 L 594.9077974015617 573.7315109648348 L 596.1969600663891 574.2071081810525 L 597.4448337454421 574.7823858267036 L 598.6437248825292 575.4537971238035 L 599.7862419151184 576.2172025984385 L 600.8653408457783 577.0678956019996 L 601.8743686707646 578.0006313292355 L 602.8071043980007 579.0096591542219 L 603.6577974015617 580.0887580848819 L 604.4212028761967 581.231275117471 L 605.0926141732965 582.4301662545581 L 605.6678918189476 583.6780399336111 L 606.1434890351652 584.9672025984386 L 606.5164736069594 586.2897061325218 L 606.7845459604149 587.6373968617961 L 606.9460533403297 589.0019658247629 Z" fill-opacity="1" stroke-opacity="1" stroke-miterlimit="10" stroke-width="2"/><text fill="none" stroke="rgb(0,0,0)" font-family="Helvetica Neue, Helvetica, sans-serif" font-size="10px" font-style="normal" font-weight="normal" text-decoration="normal" x="589.5" y="572.875" text-anchor="middle" dominant-baseline="text-after-edge" stroke-opacity="1" stroke-linejoin="round" stroke-miterlimit="10" stroke-width="4">CVE-2026-25679</text><text fill="rgb(255,255,255)" stroke="none" font-family="Helvetica Neue, Helvetica, sans-serif" font-size="10px" font-style="normal" font-weight="normal" text-decoration="normal" x="589.5" y="572.875" text-anchor="middle" dominant-baseline="text-after-edge" fill-opacity="1">CVE-2026-25679</text><path fill="rgb(234,179,8)" stroke="rgb(0,0,0)" paint-order="fill stroke markers" d=" M 607 545.375 L 606.9460533403297 546.7480341752373 L 606.7845459604149 548.112603138204 L 606.5164736069594 549.4602938674783 L 606.1434890351652 550.7827974015615 L 605.6678918189475 552.0719600663891 L 605.0926141732964 553.3198337454421 L 604.4212028761966 554.5187248825291 L 603.6577974015615 555.6612419151182 L 602.8071043980005 556.7403408457782 L 601.8743686707646 557.7493686707646 L 600.8653408457782 558.6821043980005 L 599.7862419151182 559.5327974015615 L 598.6437248825291 560.2962028761966 L 597.4448337454421 560.9676141732964 L 596.1969600663891 561.5428918189475 L 594.9077974015615 562.0184890351652 L 593.5852938674783 562.3914736069594 L 592.237603138204 562.6595459604149 L 590.8730341752373 562.8210533403297 L 589.5 562.875 L 588.1269658247627 562.8210533403297 L 586.762396861796 562.6595459604149 L 585.4147061325217 562.3914736069594 L 584.0922025984385 562.0184890351652 L 582.8030399336109 561.5428918189475 L 581.5551662545579 560.9676141732964 L 580.3562751174709 560.2962028761966 L 579.2137580848818 559.5327974015615 L 578.1346591542218 558.6821043980005 L 577.1256313292354 557.7493686707646 L 576.1928956019995 556.7403408457782 L 575.3422025984385 555.6612419151182 L 574.5787971238034 554.5187248825291 L 573.9073858267036 553.3198337454421 L 573.3321081810525 552.0719600663891 L 572.8565109648348 550.7827974015615 L 572.4835263930406 549.4602938674783 L 572.2154540395851 548.112603138204 L 572.0539466596703 546.7480341752373 L 572 545.375 L 572.0539466596703 544.0019658247627 L 572.2154540395851 542.637396861796 L 572.4835263930406 541.2897061325217 L 572.8565109648348 539.9672025984385 L 573.3321081810525 538.6780399336109 L 573.9073858267036 537.4301662545579 L 574.5787971238034 536.2312751174709 L 575.3422025984385 535.0887580848818 L 576.1928956019995 534.0096591542218 L 577.1256313292354 533.0006313292354 L 578.1346591542218 532.0678956019995 L 579.2137580848818 531.2172025984385 L 580.3562751174709 530.4537971238034 L 581.5551662545579 529.7823858267036 L 582.803039933611 529.2071081810525 L 584.0922025984385 528.7315109648348 L 585.4147061325217 528.3585263930406 L 586.762396861796 528.0904540395851 L 588.1269658247628 527.9289466596703 L 589.5000000000001 527.875 L 590.8730341752373 527.9289466596703 L 592.2376031382041 528.0904540395851 L 593.5852938674784 528.3585263930406 L 594.9077974015617 528.7315109648348 L 596.1969600663891 529.2071081810525 L 597.4448337454421 529.7823858267036 L 598.6437248825292 530.4537971238035 L 599.7862419151184 531.2172025984385 L 600.8653408457783 532.0678956019996 L 601.8743686707646 533.0006313292355 L 602.8071043980007 534.0096591542219 L 603.6577974015617 535.0887580848819 L 604.4212028761967 536.231275117471 L 605.0926141732965 537.4301662545581 L 605.6678918189476 538.6780399336111 L 606.1434890351652 539.9672025984386 L 606.5164736069594 541.2897061325218 L 606.7845459604149 542.6373968617961 L 606.9460533403297 544.0019658247629 Z" fill-opacity="1" stroke-opacity="1" stroke-miterlimit="10" stroke-width="2"/><text fill="none" stroke="rgb(0,0,0)" font-family="Helvetica Neue, Helvetica, sans-serif" font-size="10px" font-style="normal" font-weight="normal" text-decoration="normal" x="589.5" y="527.875" text-anchor="middle" dominant-baseline="text-after-edge" stroke-opacity="1" stroke-linejoin="round" stroke-miterlimit="10" stroke-width="4">CVE-2026-32281</text><text fill="rgb(255,255,255)" stroke="none" font-family="Helvetica Neue, Helvetica, sans-serif" font-size="10px" font-style="normal" font-weight="normal" text-decoration="normal" x="589.5" y="527.875" text-anchor="middle" dominant-baseline="text-after-edge" fill-opacity="1">CVE-2026-32281</text><path fill="rgb(234,179,8)" stroke="rgb(0,0,0)" paint-order="fill stroke markers" d=" M 607 500.375 L 606.9460533403297 501.7480341752373 L 606.7845459604149 503.11260313820407 L 606.5164736069594 504.46029386747836 L 606.1434890351652 505.7827974015616 L 605.6678918189475 507.07196006638907 L 605.0926141732964 508.31983374544205 L 604.4212028761966 509.5187248825291 L 603.6577974015615 510.6612419151183 L 602.8071043980005 511.74034084577823 L 601.8743686707646 512.7493686707646 L 600.8653408457782 513.6821043980005 L 599.7862419151182 514.5327974015615 L 598.6437248825291 515.2962028761966 L 597.4448337454421 515.9676141732964 L 596.1969600663891 516.5428918189475 L 594.9077974015615 517.0184890351652 L 593.5852938674783 517.3914736069594 L 592.237603138204 517.6595459604149 L 590.8730341752373 517.8210533403297 L 589.5 517.875 L 588.1269658247627 517.8210533403297 L 586.762396861796 517.6595459604149 L 585.4147061325217 517.3914736069594 L 584.0922025984385 517.0184890351652 L 582.8030399336109 516.5428918189475 L 581.5551662545579 515.9676141732964 L 580.3562751174709 515.2962028761966 L 579.2137580848818 514.5327974015615 L 578.1346591542218 513.6821043980005 L 577.1256313292354 512.7493686707646 L 576.1928956019995 511.74034084577823 L 575.3422025984385 510.6612419151183 L 574.5787971238034 509.5187248825291 L 573.9073858267036 508.31983374544205 L 573.3321081810525 507.07196006638907 L 572.8565109648348 505.7827974015616 L 572.4835263930406 504.46029386747836 L 572.2154540395851 503.11260313820407 L 572.0539466596703 501.7480341752373 L 572 500.375 L 572.0539466596703 499.0019658247627 L 572.2154540395851 497.63739686179593 L 572.4835263930406 496.28970613252164 L 572.8565109648348 494.9672025984384 L 573.3321081810525 493.67803993361093 L 573.9073858267036 492.43016625455795 L 574.5787971238034 491.2312751174709 L 575.3422025984385 490.0887580848817 L 576.1928956019995 489.00965915422177 L 577.1256313292354 488.00063132923543 L 578.1346591542218 487.06789560199945 L 579.2137580848818 486.2172025984384 L 580.3562751174709 485.4537971238034 L 581.5551662545579 484.78238582670355 L 582.803039933611 484.2071081810525 L 584.0922025984385 483.7315109648348 L 585.4147061325217 483.3585263930407 L 586.762396861796 483.0904540395851 L 588.1269658247628 482.92894665967026 L 589.5000000000001 482.875 L 590.8730341752373 482.92894665967026 L 592.2376031382041 483.0904540395851 L 593.5852938674784 483.3585263930407 L 594.9077974015617 483.73151096483485 L 596.1969600663891 484.2071081810525 L 597.4448337454421 484.7823858267036 L 598.6437248825292 485.45379712380344 L 599.7862419151184 486.2172025984385 L 600.8653408457783 487.06789560199957 L 601.8743686707646 488.0006313292355 L 602.8071043980007 489.0096591542219 L 603.6577974015617 490.0887580848818 L 604.4212028761967 491.23127511747106 L 605.0926141732965 492.43016625455806 L 605.6678918189476 493.6780399336111 L 606.1434890351652 494.9672025984386 L 606.5164736069594 496.2897061325218 L 606.7845459604149 497.63739686179616 L 606.9460533403297 499.0019658247629 Z" fill-opacity="1" stroke-opacity="1" stroke-miterlimit="10" stroke-width="2"/><text fill="none" stroke="rgb(0,0,0)" font-family="Helvetica Neue, Helvetica, sans-serif" font-size="10px" font-style="normal" font-weight="normal" text-decoration="normal" x="589.5" y="482.875" text-anchor="middle" dominant-baseline="text-after-edge" stroke-opacity="1" stroke-linejoin="round" stroke-miterlimit="10" stroke-width="4">CVE-2025-58188</text><text fill="rgb(255,255,255)" stroke="none" font-family="Helvetica Neue, Helvetica, sans-serif" font-size="10px" font-style="normal" font-weight="normal" text-decoration="normal" x="589.5" y="482.875" text-anchor="middle" dominant-baseline="text-after-edge" fill-opacity="1">CVE-2025-58188</text><path fill="rgb(234,179,8)" stroke="rgb(0,0,0)" paint-order="fill stroke markers" d=" M 607 18.5 L 606.9460533403297 19.873034175237287 L 606.7845459604149 21.23760313820404 L 606.5164736069594 22.585293867478345 L 606.1434890351652 23.90779740156158 L 605.6678918189475 25.19696006638907 L 605.0926141732964 26.444833745442068 L 604.4212028761966 27.643724882529106 L 603.6577974015615 28.786241915118282 L 602.8071043980005 29.865340845778213 L 601.8743686707646 30.874368670764582 L 600.8653408457782 31.80710439800054 L 599.7862419151182 32.65779740156158 L 598.6437248825291 33.42120287619662 L 597.4448337454421 34.09261417329644 L 596.1969600663891 34.66789181894752 L 594.9077974015615 35.14348903516519 L 593.5852938674783 35.51647360695934 L 592.237603138204 35.78454596041491 L 590.8730341752373 35.94605334032974 L 589.5 36 L 588.1269658247627 35.94605334032974 L 586.762396861796 35.78454596041491 L 585.4147061325217 35.51647360695934 L 584.0922025984385 35.14348903516519 L 582.8030399336109 34.66789181894752 L 581.5551662545579 34.09261417329644 L 580.3562751174709 33.42120287619662 L 579.2137580848818 32.65779740156158 L 578.1346591542218 31.807104398000543 L 577.1256313292354 30.874368670764582 L 576.1928956019995 29.865340845778213 L 575.3422025984385 28.786241915118282 L 574.5787971238034 27.643724882529106 L 573.9073858267036 26.444833745442068 L 573.3321081810525 25.196960066389074 L 572.8565109648348 23.90779740156158 L 572.4835263930406 22.58529386747835 L 572.2154540395851 21.237603138204044 L 572.0539466596703 19.87303417523729 L 572 18.500000000000004 L 572.0539466596703 17.126965824762717 L 572.2154540395851 15.762396861795963 L 572.4835263930406 14.414706132521658 L 572.8565109648348 13.092202598438423 L 573.3321081810525 11.80303993361093 L 573.9073858267036 10.555166254557932 L 574.5787971238034 9.356275117470897 L 575.3422025984385 8.213758084881722 L 576.1928956019995 7.134659154221788 L 577.1256313292354 6.12563132923542 L 578.1346591542218 5.192895601999464 L 579.2137580848818 4.342202598438421 L 580.3562751174709 3.5787971238033833 L 581.5551662545579 2.907385826703557 L 582.803039933611 2.332108181052476 L 584.0922025984385 1.8565109648348042 L 585.4147061325217 1.483526393040652 L 586.762396861796 1.215454039585083 L 588.1269658247628 1.053946659670256 L 589.5000000000001 1 L 590.8730341752373 1.0539466596702667 L 592.2376031382041 1.2154540395851008 L 593.5852938674784 1.4835263930406768 L 594.9077974015617 1.8565109648348397 L 596.1969600663891 2.3321081810525186 L 597.4448337454421 2.90738582670361 L 598.6437248825292 3.5787971238034455 L 599.7862419151184 4.342202598438492 L 600.8653408457783 5.192895601999542 L 601.8743686707646 6.125631329235514 L 602.8071043980007 7.134659154221895 L 603.6577974015617 8.213758084881842 L 604.4212028761967 9.35627511747103 L 605.0926141732965 10.55516625455808 L 605.6678918189476 11.803039933611089 L 606.1434890351652 13.092202598438593 L 606.5164736069594 14.41470613252184 L 606.7845459604149 15.762396861796155 L 606.9460533403297 17.12696582476292 Z" fill-opacity="1" stroke-opacity="1" stroke-miterlimit="10" stroke-width="2"/><text fill="none" stroke="rgb(0,0,0)" font-family="Helvetica Neue, Helvetica, sans-serif" font-size="10px" font-style="normal" font-weight="normal" text-decoration="normal" x="589.5" y="1" text-anchor="middle" dominant-baseline="text-after-edge" stroke-opacity="1" stroke-linejoin="round" stroke-miterlimit="10" stroke-width="4">CVE-2025-58189</text><text fill="rgb(255,255,255)" stroke="none" font-family="Helvetica Neue, Helvetica, sans-serif" font-size="10px" font-style="normal" font-weight="normal" text-decoration="normal" x="589.5" y="1" text-anchor="middle" dominant-baseline="text-after-edge" fill-opacity="1">CVE-2025-58189</text><path fill="rgb(234,179,8)" stroke="rgb(0,0,0)" paint-order="fill stroke markers" d=" M 607 455.375 L 606.9460533403297 456.7480341752373 L 606.7845459604149 458.11260313820407 L 606.5164736069594 459.46029386747836 L 606.1434890351652 460.7827974015616 L 605.6678918189475 462.07196006638907 L 605.0926141732964 463.31983374544205 L 604.4212028761966 464.5187248825291 L 603.6577974015615 465.6612419151183 L 602.8071043980005 466.74034084577823 L 601.8743686707646 467.74936867076457 L 600.8653408457782 468.68210439800055 L 599.7862419151182 469.5327974015616 L 598.6437248825291 470.2962028761966 L 597.4448337454421 470.96761417329645 L 596.1969600663891 471.5428918189475 L 594.9077974015615 472.0184890351652 L 593.5852938674783 472.3914736069593 L 592.237603138204 472.6595459604149 L 590.8730341752373 472.82105334032974 L 589.5 472.875 L 588.1269658247627 472.82105334032974 L 586.762396861796 472.6595459604149 L 585.4147061325217 472.3914736069593 L 584.0922025984385 472.0184890351652 L 582.8030399336109 471.5428918189475 L 581.5551662545579 470.96761417329645 L 580.3562751174709 470.2962028761966 L 579.2137580848818 469.5327974015616 L 578.1346591542218 468.68210439800055 L 577.1256313292354 467.74936867076457 L 576.1928956019995 466.74034084577823 L 575.3422025984385 465.6612419151183 L 574.5787971238034 464.5187248825291 L 573.9073858267036 463.31983374544205 L 573.3321081810525 462.07196006638907 L 572.8565109648348 460.7827974015616 L 572.4835263930406 459.46029386747836 L 572.2154540395851 458.11260313820407 L 572.0539466596703 456.7480341752373 L 572 455.375 L 572.0539466596703 454.0019658247627 L 572.2154540395851 452.63739686179593 L 572.4835263930406 451.28970613252164 L 572.8565109648348 449.9672025984384 L 573.3321081810525 448.67803993361093 L 573.9073858267036 447.43016625455795 L 574.5787971238034 446.2312751174709 L 575.3422025984385 445.0887580848817 L 576.1928956019995 444.00965915422177 L 577.1256313292354 443.00063132923543 L 578.1346591542218 442.06789560199945 L 579.2137580848818 441.2172025984384 L 580.3562751174709 440.4537971238034 L 581.5551662545579 439.78238582670355 L 582.803039933611 439.2071081810525 L 584.0922025984385 438.7315109648348 L 585.4147061325217 438.3585263930407 L 586.762396861796 438.0904540395851 L 588.1269658247628 437.92894665967026 L 589.5000000000001 437.875 L 590.8730341752373 437.92894665967026 L 592.2376031382041 438.0904540395851 L 593.5852938674784 438.3585263930407 L 594.9077974015617 438.73151096483485 L 596.1969600663891 439.2071081810525 L 597.4448337454421 439.7823858267036 L 598.6437248825292 440.45379712380344 L 599.7862419151184 441.2172025984385 L 600.8653408457783 442.06789560199957 L 601.8743686707646 443.0006313292355 L 602.8071043980007 444.0096591542219 L 603.6577974015617 445.0887580848818 L 604.4212028761967 446.23127511747106 L 605.0926141732965 447.43016625455806 L 605.6678918189476 448.6780399336111 L 606.1434890351652 449.9672025984386 L 606.5164736069594 451.2897061325218 L 606.7845459604149 452.63739686179616 L 606.9460533403297 454.0019658247629 Z" fill-opacity="1" stroke-opacity="1" stroke-miterlimit="10" stroke-width="2"/><text fill="none" stroke="rgb(0,0,0)" font-family="Helvetica Neue, Helvetica, sans-serif" font-size="10px" font-style="normal" font-weight="normal" text-decoration="normal" x="589.5" y="437.875" text-anchor="middle" dominant-baseline="text-after-edge" stroke-opacity="1" stroke-linejoin="round" stroke-miterlimit="10" stroke-width="4">CVE-2025-61727</text><text fill="rgb(255,255,255)" stroke="none" font-family="Helvetica Neue, Helvetica, sans-serif" font-size="10px" font-style="normal" font-weight="normal" text-decoration="normal" x="589.5" y="437.875" text-anchor="middle" dominant-baseline="text-after-edge" fill-opacity="1">CVE-2025-61727</text><path fill="rgb(234,179,8)" stroke="rgb(255,102,102)" paint-order="fill stroke markers" d=" M 607 410.375 L 606.9460533403297 411.7480341752373 L 606.7845459604149 413.11260313820407 L 606.5164736069594 414.46029386747836 L 606.1434890351652 415.7827974015616 L 605.6678918189475 417.07196006638907 L 605.0926141732964 418.31983374544205 L 604.4212028761966 419.5187248825291 L 603.6577974015615 420.6612419151183 L 602.8071043980005 421.74034084577823 L 601.8743686707646 422.74936867076457 L 600.8653408457782 423.68210439800055 L 599.7862419151182 424.5327974015616 L 598.6437248825291 425.2962028761966 L 597.4448337454421 425.96761417329645 L 596.1969600663891 426.5428918189475 L 594.9077974015615 427.0184890351652 L 593.5852938674783 427.3914736069593 L 592.237603138204 427.6595459604149 L 590.8730341752373 427.82105334032974 L 589.5 427.875 L 588.1269658247627 427.82105334032974 L 586.762396861796 427.6595459604149 L 585.4147061325217 427.3914736069593 L 584.0922025984385 427.0184890351652 L 582.8030399336109 426.5428918189475 L 581.5551662545579 425.96761417329645 L 580.3562751174709 425.2962028761966 L 579.2137580848818 424.5327974015616 L 578.1346591542218 423.68210439800055 L 577.1256313292354 422.74936867076457 L 576.1928956019995 421.74034084577823 L 575.3422025984385 420.6612419151183 L 574.5787971238034 419.5187248825291 L 573.9073858267036 418.31983374544205 L 573.3321081810525 417.07196006638907 L 572.8565109648348 415.7827974015616 L 572.4835263930406 414.46029386747836 L 572.2154540395851 413.11260313820407 L 572.0539466596703 411.7480341752373 L 572 410.375 L 572.0539466596703 409.0019658247627 L 572.2154540395851 407.63739686179593 L 572.4835263930406 406.28970613252164 L 572.8565109648348 404.9672025984384 L 573.3321081810525 403.67803993361093 L 573.9073858267036 402.43016625455795 L 574.5787971238034 401.2312751174709 L 575.3422025984385 400.0887580848817 L 576.1928956019995 399.00965915422177 L 577.1256313292354 398.00063132923543 L 578.1346591542218 397.06789560199945 L 579.2137580848818 396.2172025984384 L 580.3562751174709 395.4537971238034 L 581.5551662545579 394.78238582670355 L 582.803039933611 394.2071081810525 L 584.0922025984385 393.7315109648348 L 585.4147061325217 393.3585263930407 L 586.762396861796 393.0904540395851 L 588.1269658247628 392.92894665967026 L 589.5000000000001 392.875 L 590.8730341752373 392.92894665967026 L 592.2376031382041 393.0904540395851 L 593.5852938674784 393.3585263930407 L 594.9077974015617 393.73151096483485 L 596.1969600663891 394.2071081810525 L 597.4448337454421 394.7823858267036 L 598.6437248825292 395.45379712380344 L 599.7862419151184 396.2172025984385 L 600.8653408457783 397.06789560199957 L 601.8743686707646 398.0006313292355 L 602.8071043980007 399.0096591542219 L 603.6577974015617 400.0887580848818 L 604.4212028761967 401.23127511747106 L 605.0926141732965 402.43016625455806 L 605.6678918189476 403.6780399336111 L 606.1434890351652 404.9672025984386 L 606.5164736069594 406.2897061325218 L 606.7845459604149 407.63739686179616 L 606.9460533403297 409.0019658247629 Z" fill-opacity="0.25" stroke-opacity="0.25" stroke-miterlimit="10" stroke-width="2" stroke-dasharray="4,2"/><text fill="none" stroke="rgb(0,0,0)" font-family="Helvetica Neue, Helvetica, sans-serif" font-size="10px" font-style="normal" font-weight="normal" text-decoration="normal" x="589.5" y="392.875" text-anchor="middle" dominant-baseline="text-after-edge" stroke-opacity="0.25" stroke-linejoin="round" stroke-miterlimit="10" stroke-width="4">CVE-2026-27142</text><text fill="rgb(255,255,255)" stroke="none" font-family="Helvetica Neue, Helvetica, sans-serif" font-size="10px" font-style="normal" font-weight="normal" text-decoration="normal" x="589.5" y="392.875" text-anchor="middle" dominant-baseline="text-after-edge" fill-opacity="0.25">CVE-2026-27142</text><path fill="rgb(234,179,8)" stroke="rgb(255,102,102)" paint-order="fill stroke markers" d=" M 607 365.375 L 606.9460533403297 366.7480341752373 L 606.7845459604149 368.11260313820407 L 606.5164736069594 369.46029386747836 L 606.1434890351652 370.7827974015616 L 605.6678918189475 372.07196006638907 L 605.0926141732964 373.31983374544205 L 604.4212028761966 374.5187248825291 L 603.6577974015615 375.6612419151183 L 602.8071043980005 376.74034084577823 L 601.8743686707646 377.74936867076457 L 600.8653408457782 378.68210439800055 L 599.7862419151182 379.5327974015616 L 598.6437248825291 380.2962028761966 L 597.4448337454421 380.96761417329645 L 596.1969600663891 381.5428918189475 L 594.9077974015615 382.0184890351652 L 593.5852938674783 382.3914736069593 L 592.237603138204 382.6595459604149 L 590.8730341752373 382.82105334032974 L 589.5 382.875 L 588.1269658247627 382.82105334032974 L 586.762396861796 382.6595459604149 L 585.4147061325217 382.3914736069593 L 584.0922025984385 382.0184890351652 L 582.8030399336109 381.5428918189475 L 581.5551662545579 380.96761417329645 L 580.3562751174709 380.2962028761966 L 579.2137580848818 379.5327974015616 L 578.1346591542218 378.68210439800055 L 577.1256313292354 377.74936867076457 L 576.1928956019995 376.74034084577823 L 575.3422025984385 375.6612419151183 L 574.5787971238034 374.5187248825291 L 573.9073858267036 373.31983374544205 L 573.3321081810525 372.07196006638907 L 572.8565109648348 370.7827974015616 L 572.4835263930406 369.46029386747836 L 572.2154540395851 368.11260313820407 L 572.0539466596703 366.7480341752373 L 572 365.375 L 572.0539466596703 364.0019658247627 L 572.2154540395851 362.63739686179593 L 572.4835263930406 361.28970613252164 L 572.8565109648348 359.9672025984384 L 573.3321081810525 358.67803993361093 L 573.9073858267036 357.43016625455795 L 574.5787971238034 356.2312751174709 L 575.3422025984385 355.0887580848817 L 576.1928956019995 354.00965915422177 L 577.1256313292354 353.00063132923543 L 578.1346591542218 352.06789560199945 L 579.2137580848818 351.2172025984384 L 580.3562751174709 350.4537971238034 L 581.5551662545579 349.78238582670355 L 582.803039933611 349.2071081810525 L 584.0922025984385 348.7315109648348 L 585.4147061325217 348.3585263930407 L 586.762396861796 348.0904540395851 L 588.1269658247628 347.92894665967026 L 589.5000000000001 347.875 L 590.8730341752373 347.92894665967026 L 592.2376031382041 348.0904540395851 L 593.5852938674784 348.3585263930407 L 594.9077974015617 348.73151096483485 L 596.1969600663891 349.2071081810525 L 597.4448337454421 349.7823858267036 L 598.6437248825292 350.45379712380344 L 599.7862419151184 351.2172025984385 L 600.8653408457783 352.06789560199957 L 601.8743686707646 353.0006313292355 L 602.8071043980007 354.0096591542219 L 603.6577974015617 355.0887580848818 L 604.4212028761967 356.23127511747106 L 605.0926141732965 357.43016625455806 L 605.6678918189476 358.6780399336111 L 606.1434890351652 359.9672025984386 L 606.5164736069594 361.2897061325218 L 606.7845459604149 362.63739686179616 L 606.9460533403297 364.0019658247629 Z" fill-opacity="0.25" stroke-opacity="0.25" stroke-miterlimit="10" stroke-width="2" stroke-dasharray="4,2"/><text fill="none" stroke="rgb(0,0,0)" font-family="Helvetica Neue, Helvetica, sans-serif" font-size="10px" font-style="normal" font-weight="normal" text-decoration="normal" x="589.5" y="347.875" text-anchor="middle" dominant-baseline="text-after-edge" stroke-opacity="0.25" stroke-linejoin="round" stroke-miterlimit="10" stroke-width="4">CVE-2026-32289</text><text fill="rgb(255,255,255)" stroke="none" font-family="Helvetica Neue, Helvetica, sans-serif" font-size="10px" font-style="normal" font-weight="normal" text-decoration="normal" x="589.5" y="347.875" text-anchor="middle" dominant-baseline="text-after-edge" fill-opacity="0.25">CVE-2026-32289</text><path fill="rgb(234,179,8)" stroke="rgb(255,102,102)" paint-order="fill stroke markers" d=" M 926 556 L 925.9460533403297 557.3730341752373 L 925.7845459604149 558.737603138204 L 925.5164736069594 560.0852938674783 L 925.1434890351652 561.4077974015615 L 924.6678918189475 562.6969600663891 L 924.0926141732964 563.9448337454421 L 923.4212028761966 565.1437248825291 L 922.6577974015615 566.2862419151182 L 921.8071043980005 567.3653408457782 L 920.8743686707646 568.3743686707646 L 919.8653408457782 569.3071043980005 L 918.7862419151182 570.1577974015615 L 917.6437248825291 570.9212028761966 L 916.4448337454421 571.5926141732964 L 915.1969600663891 572.1678918189475 L 913.9077974015615 572.6434890351652 L 912.5852938674783 573.0164736069594 L 911.237603138204 573.2845459604149 L 909.8730341752373 573.4460533403297 L 908.5 573.5 L 907.1269658247627 573.4460533403297 L 905.762396861796 573.2845459604149 L 904.4147061325217 573.0164736069594 L 903.0922025984385 572.6434890351652 L 901.8030399336109 572.1678918189475 L 900.5551662545579 571.5926141732964 L 899.3562751174709 570.9212028761966 L 898.2137580848818 570.1577974015615 L 897.1346591542218 569.3071043980005 L 896.1256313292354 568.3743686707646 L 895.1928956019995 567.3653408457782 L 894.3422025984385 566.2862419151182 L 893.5787971238034 565.1437248825291 L 892.9073858267036 563.9448337454421 L 892.3321081810525 562.6969600663891 L 891.8565109648348 561.4077974015615 L 891.4835263930406 560.0852938674783 L 891.2154540395851 558.737603138204 L 891.0539466596703 557.3730341752373 L 891 556 L 891.0539466596703 554.6269658247627 L 891.2154540395851 553.262396861796 L 891.4835263930406 551.9147061325217 L 891.8565109648348 550.5922025984385 L 892.3321081810525 549.3030399336109 L 892.9073858267036 548.0551662545579 L 893.5787971238034 546.8562751174709 L 894.3422025984385 545.7137580848818 L 895.1928956019995 544.6346591542218 L 896.1256313292354 543.6256313292354 L 897.1346591542218 542.6928956019995 L 898.2137580848818 541.8422025984385 L 899.3562751174709 541.0787971238034 L 900.5551662545579 540.4073858267036 L 901.803039933611 539.8321081810525 L 903.0922025984385 539.3565109648348 L 904.4147061325217 538.9835263930406 L 905.762396861796 538.7154540395851 L 907.1269658247628 538.5539466596703 L 908.5000000000001 538.5 L 909.8730341752373 538.5539466596703 L 911.2376031382041 538.7154540395851 L 912.5852938674784 538.9835263930406 L 913.9077974015617 539.3565109648348 L 915.1969600663891 539.8321081810525 L 916.4448337454421 540.4073858267036 L 917.6437248825292 541.0787971238035 L 918.7862419151184 541.8422025984385 L 919.8653408457783 542.6928956019996 L 920.8743686707646 543.6256313292355 L 921.8071043980007 544.6346591542219 L 922.6577974015617 545.7137580848819 L 923.4212028761967 546.856275117471 L 924.0926141732965 548.0551662545581 L 924.6678918189476 549.3030399336111 L 925.1434890351652 550.5922025984386 L 925.5164736069594 551.9147061325218 L 925.7845459604149 553.2623968617961 L 925.9460533403297 554.6269658247629 Z" fill-opacity="0.25" stroke-opacity="0.25" stroke-miterlimit="10" stroke-width="2" stroke-dasharray="4,2"/><text fill="none" stroke="rgb(0,0,0)" font-family="Helvetica Neue, Helvetica, sans-serif" font-size="10px" font-style="normal" font-weight="normal" text-decoration="normal" x="908.5" y="538.5" text-anchor="middle" dominant-baseline="text-after-edge" stroke-opacity="0.25" stroke-linejoin="round" stroke-miterlimit="10" stroke-width="4">CVE-2026-32282</text><text fill="rgb(255,255,255)" stroke="none" font-family="Helvetica Neue, Helvetica, sans-serif" font-size="10px" font-style="normal" font-weight="normal" text-decoration="normal" x="908.5" y="538.5" text-anchor="middle" dominant-baseline="text-after-edge" fill-opacity="0.25">CVE-2026-32282</text><path fill="rgb(99,102,241)" stroke="rgb(255,0,102)" paint-order="fill stroke markers" d=" M 81 358.85 L 80.95376000599691 360.0268864359177 L 80.81532510892707 361.19651697560346 L 80.58554880596515 362.3516804578386 L 80.2658477444273 363.48525491562424 L 79.8581929876693 364.59025148547636 L 79.36509786282552 365.6598574960932 L 78.78960246531139 366.6874784707393 L 78.13525491562422 367.66677878438713 L 77.40608948400046 368.5917207249528 L 76.60660171779821 369.4566017177982 L 75.74172072495276 370.2560894840005 L 74.8167787843871 370.98525491562424 L 73.83747847073923 371.6396024653114 L 72.8098574960932 372.21509786282553 L 71.74025148547635 372.70819298766935 L 70.63525491562422 373.1158477444273 L 69.50168045783859 373.4355488059652 L 68.34651697560346 373.6653251089271 L 67.17688643591768 373.80376000599693 L 66 373.85 L 64.82311356408232 373.80376000599693 L 63.653483024396536 373.6653251089271 L 62.49831954216142 373.4355488059652 L 61.36474508437579 373.11584774442736 L 60.25974851452365 372.70819298766935 L 59.1901425039068 372.21509786282553 L 58.16252152926077 371.6396024653114 L 57.1832212156129 370.98525491562424 L 56.258279275047244 370.2560894840005 L 55.39339828220179 369.4566017177982 L 54.59391051599954 368.5917207249528 L 53.86474508437579 367.66677878438713 L 53.21039753468862 366.6874784707393 L 52.634902137174485 365.65985749609325 L 52.1418070123307 364.59025148547636 L 51.734152255572695 363.48525491562424 L 51.414451194034854 362.3516804578386 L 51.18467489107294 361.1965169756035 L 51.04623999400308 360.0268864359177 L 51 358.85 L 51.04623999400308 357.67311356408237 L 51.18467489107293 356.5034830243966 L 51.414451194034854 355.34831954216145 L 51.734152255572695 354.2147450843758 L 52.141807012330695 353.1097485145237 L 52.63490213717448 352.04014250390685 L 53.21039753468862 351.01252152926077 L 53.864745084375784 350.0332212156129 L 54.59391051599953 349.10827927504727 L 55.39339828220179 348.24339828220184 L 56.25827927504724 347.44391051599956 L 57.1832212156129 346.7147450843758 L 58.16252152926077 346.06039753468866 L 59.190142503906806 345.4849021371745 L 60.25974851452367 344.9918070123307 L 61.36474508437581 344.5841522555727 L 62.49831954216145 344.26445119403485 L 63.65348302439657 344.03467489107294 L 64.82311356408238 343.8962399940031 L 66.00000000000006 343.85 L 67.17688643591774 343.8962399940031 L 68.34651697560352 344.03467489107294 L 69.50168045783865 344.2644511940349 L 70.63525491562429 344.58415225557275 L 71.74025148547642 344.99180701233075 L 72.80985749609329 345.4849021371746 L 73.83747847073931 346.0603975346887 L 74.81677878438718 346.71474508437586 L 75.74172072495284 347.4439105159996 L 76.6066017177983 348.2433982822019 L 77.40608948400055 349.1082792750474 L 78.13525491562429 350.033221215613 L 78.78960246531145 351.0125215292609 L 79.36509786282558 352.04014250390696 L 79.85819298766936 353.1097485145238 L 80.26584774442735 354.214745084376 L 80.58554880596519 355.3483195421616 L 80.8153251089271 356.5034830243967 L 80.95376000599694 357.67311356408254 Z" fill-opacity="1" stroke-opacity="1" stroke-miterlimit="10" stroke-width="2"/><text fill="none" stroke="rgb(0,0,0)" font-family="Helvetica Neue, Helvetica, sans-serif" font-size="10px" font-style="normal" font-weight="normal" text-decoration="normal" x="66" y="343.85" text-anchor="middle" dominant-baseline="text-after-edge" stroke-opacity="1" stroke-linejoin="round" stroke-miterlimit="10" stroke-width="4">UI:N</text><text fill="rgb(255,255,255)" stroke="none" font-family="Helvetica Neue, Helvetica, sans-serif" font-size="10px" font-style="normal" font-weight="normal" text-decoration="normal" x="66" y="343.85" text-anchor="middle" dominant-baseline="text-after-edge" fill-opacity="1">UI:N</text><path fill="rgb(255,0,0)" stroke="rgb(255,215,0)" paint-order="fill stroke markers" d=" M 1054 444.75 L 1044.7343318831333 458.97991935488204 L 1029 463.84830056250524 L 1039.0078340584334 477.51125558861554 L 1038.5491502812527 494.75 L 1054 488.9642512380153 L 1069.4508497187473 494.75 L 1068.9921659415666 477.51125558861554 L 1079 463.84830056250524 L 1063.2656681168667 458.97991935488204 Z" fill-opacity="0.25" stroke-opacity="0.25" stroke-miterlimit="10" stroke-width="4" stroke-dasharray="4,2"/><text fill="none" stroke="rgb(0,0,0)" font-family="Helvetica Neue, Helvetica, sans-serif" font-size="10px" font-style="normal" font-weight="bold" text-decoration="normal" x="1054" y="444.75" text-anchor="middle" dominant-baseline="text-after-edge" stroke-opacity="0.25" stroke-linejoin="round" stroke-miterlimit="10" stroke-width="4">EXPLOITED</text><text fill="rgb(255,255,255)" stroke="none" font-family="Helvetica Neue, Helvetica, sans-serif" font-size="10px" font-style="normal" font-weight="bold" text-decoration="normal" x="1054" y="444.75" text-anchor="middle" dominant-baseline="text-after-edge" fill-opacity="0.25">EXPLOITED</text><path fill="rgb(234,179,8)" stroke="rgb(255,102,102)" paint-order="fill stroke markers" d=" M 926 379.5 L 925.9460533403297 380.8730341752373 L 925.7845459604149 382.23760313820407 L 925.5164736069594 383.58529386747836 L 925.1434890351652 384.9077974015616 L 924.6678918189475 386.19696006638907 L 924.0926141732964 387.44483374544205 L 923.4212028761966 388.6437248825291 L 922.6577974015615 389.7862419151183 L 921.8071043980005 390.86534084577823 L 920.8743686707646 391.87436867076457 L 919.8653408457782 392.80710439800055 L 918.7862419151182 393.6577974015616 L 917.6437248825291 394.4212028761966 L 916.4448337454421 395.09261417329645 L 915.1969600663891 395.6678918189475 L 913.9077974015615 396.1434890351652 L 912.5852938674783 396.5164736069593 L 911.237603138204 396.7845459604149 L 909.8730341752373 396.94605334032974 L 908.5 397 L 907.1269658247627 396.94605334032974 L 905.762396861796 396.7845459604149 L 904.4147061325217 396.5164736069593 L 903.0922025984385 396.1434890351652 L 901.8030399336109 395.6678918189475 L 900.5551662545579 395.09261417329645 L 899.3562751174709 394.4212028761966 L 898.2137580848818 393.6577974015616 L 897.1346591542218 392.80710439800055 L 896.1256313292354 391.87436867076457 L 895.1928956019995 390.86534084577823 L 894.3422025984385 389.7862419151183 L 893.5787971238034 388.6437248825291 L 892.9073858267036 387.44483374544205 L 892.3321081810525 386.19696006638907 L 891.8565109648348 384.9077974015616 L 891.4835263930406 383.58529386747836 L 891.2154540395851 382.23760313820407 L 891.0539466596703 380.8730341752373 L 891 379.5 L 891.0539466596703 378.1269658247627 L 891.2154540395851 376.76239686179593 L 891.4835263930406 375.41470613252164 L 891.8565109648348 374.0922025984384 L 892.3321081810525 372.80303993361093 L 892.9073858267036 371.55516625455795 L 893.5787971238034 370.3562751174709 L 894.3422025984385 369.2137580848817 L 895.1928956019995 368.13465915422177 L 896.1256313292354 367.12563132923543 L 897.1346591542218 366.19289560199945 L 898.2137580848818 365.3422025984384 L 899.3562751174709 364.5787971238034 L 900.5551662545579 363.90738582670355 L 901.803039933611 363.3321081810525 L 903.0922025984385 362.8565109648348 L 904.4147061325217 362.4835263930407 L 905.762396861796 362.2154540395851 L 907.1269658247628 362.05394665967026 L 908.5000000000001 362 L 909.8730341752373 362.05394665967026 L 911.2376031382041 362.2154540395851 L 912.5852938674784 362.4835263930407 L 913.9077974015617 362.85651096483485 L 915.1969600663891 363.3321081810525 L 916.4448337454421 363.9073858267036 L 917.6437248825292 364.57879712380344 L 918.7862419151184 365.3422025984385 L 919.8653408457783 366.19289560199957 L 920.8743686707646 367.1256313292355 L 921.8071043980007 368.1346591542219 L 922.6577974015617 369.2137580848818 L 923.4212028761967 370.35627511747106 L 924.0926141732965 371.55516625455806 L 924.6678918189476 372.8030399336111 L 925.1434890351652 374.0922025984386 L 925.5164736069594 375.4147061325218 L 925.7845459604149 376.76239686179616 L 925.9460533403297 378.1269658247629 Z" fill-opacity="0.25" stroke-opacity="0.25" stroke-miterlimit="10" stroke-width="2" stroke-dasharray="4,2"/><text fill="none" stroke="rgb(0,0,0)" font-family="Helvetica Neue, Helvetica, sans-serif" font-size="10px" font-style="normal" font-weight="normal" text-decoration="normal" x="908.5" y="362" text-anchor="middle" dominant-baseline="text-after-edge" stroke-opacity="0.25" stroke-linejoin="round" stroke-miterlimit="10" stroke-width="4">CVE-2026-27139</text><text fill="rgb(255,255,255)" stroke="none" font-family="Helvetica Neue, Helvetica, sans-serif" font-size="10px" font-style="normal" font-weight="normal" text-decoration="normal" x="908.5" y="362" text-anchor="middle" dominant-baseline="text-after-edge" fill-opacity="0.25">CVE-2026-27139</text><path fill="rgb(0,255,136)" stroke="rgb(0,204,102)" paint-order="fill stroke markers" d=" M 1213 566.25 L 1243 536.25 L 1213 506.25 L 1183 536.25 Z" fill-opacity="1" stroke-opacity="1" stroke-miterlimit="10" stroke-width="4"/><text fill="none" stroke="rgb(0,0,0)" font-family="Helvetica Neue, Helvetica, sans-serif" font-size="14px" font-style="normal" font-weight="bold" text-decoration="normal" x="1213" y="506.25" text-anchor="middle" dominant-baseline="text-after-edge" stroke-opacity="1" stroke-linejoin="round" stroke-miterlimit="10" stroke-width="6">INSIDE NETWORK</text><text fill="rgb(255,255,255)" stroke="none" font-family="Helvetica Neue, Helvetica, sans-serif" font-size="14px" font-style="normal" font-weight="bold" text-decoration="normal" x="1213" y="506.25" text-anchor="middle" dominant-baseline="text-after-edge" fill-opacity="1">INSIDE NETWORK</text><g transform="scale(0.6249999906867744,0.6249999906867744) translate(51.20000076293945,-22.40000033378601)"/></g></g></svg>