<svg version="1.1" xmlns="http://www.w3.org/2000/svg" xmlns:xlink="http://www.w3.org/1999/xlink" width="2498" height="704"><defs/><g><rect fill="#ffffff" stroke="none" x="0" y="0" width="2498" height="704"/><g transform="translate(-64,-319) scale(2,2)"><path fill="rgb(100,100,100)" stroke="rgb(136,136,136)" paint-order="fill stroke markers" d=" M 139.5 176.5 L 237 176.5 L 237 176.5 A 8 8 0 0 1 245 184.5 L 245 424.5 L 245 424.5 A 8 8 0 0 1 237 432.5 L 42 432.5 L 42 432.5 A 8 8 0 0 1 34 424.5 L 34 184.5 L 34 184.5 A 8 8 0 0 1 42 176.5 L 139.5 176.5 Z" fill-opacity="1" stroke-opacity="1" stroke-miterlimit="10" stroke-width="2" stroke-dasharray="4,2"/><text fill="none" stroke="rgb(0,0,0)" font-family="Helvetica Neue, Helvetica, sans-serif" font-size="12px" font-style="normal" font-weight="normal" text-decoration="normal" x="139.5" y="176.5" text-anchor="middle" dominant-baseline="text-after-edge" stroke-opacity="1" stroke-linejoin="round" stroke-miterlimit="10" stroke-width="4">Initial State</text><text fill="rgb(204,204,204)" stroke="none" font-family="Helvetica Neue, Helvetica, sans-serif" font-size="12px" font-style="normal" font-weight="normal" text-decoration="normal" x="139.5" y="176.5" text-anchor="middle" dominant-baseline="text-after-edge" fill-opacity="1">Initial State</text><path fill="rgb(234,179,8)" stroke="rgb(234,179,8)" paint-order="fill stroke markers" d=" M 589.5 245.91666666666669 L 636.5 245.91666666666669 L 636.5 245.91666666666669 A 8 8 0 0 1 644.5 253.91666666666669 L 644.5 402.9166666666667 L 644.5 402.9166666666667 A 8 8 0 0 1 636.5 410.9166666666667 L 542.5 410.9166666666667 L 542.5 410.9166666666667 A 8 8 0 0 1 534.5 402.9166666666667 L 534.5 253.91666666666669 L 534.5 253.91666666666669 A 8 8 0 0 1 542.5 245.91666666666669 L 589.5 245.91666666666669 Z" fill-opacity="1" stroke-opacity="1" stroke-miterlimit="10" stroke-width="2" stroke-dasharray="4,2"/><text fill="none" stroke="rgb(0,0,0)" font-family="Helvetica Neue, Helvetica, sans-serif" font-size="10px" font-style="normal" font-weight="normal" text-decoration="normal" x="589.5" y="245.91666666666669" text-anchor="middle" dominant-baseline="text-after-edge" stroke-opacity="1" stroke-linejoin="round" stroke-miterlimit="10" stroke-width="2">→ AV:L, EX:Y, PR:H (×3)</text><text fill="rgb(234,179,8)" stroke="none" font-family="Helvetica Neue, Helvetica, sans-serif" font-size="10px" font-style="normal" font-weight="normal" text-decoration="normal" x="589.5" y="245.91666666666669" text-anchor="middle" dominant-baseline="text-after-edge" fill-opacity="1">→ AV:L, EX:Y, PR:H (×3)</text><path fill="none" stroke="rgb(0,255,255)" paint-order="fill stroke markers" d=" M 785.8839155232001 293.7131952207287 L 891.7882437955 389.1845692208503" stroke-opacity="0.7" stroke-linejoin="round" stroke-miterlimit="10" stroke-width="2"/><path fill="rgb(255,255,255)" stroke="none" paint-order="stroke fill markers" d=" M 885.3846936599243 389.26850765763123 L 894.7592226762999 391.86286802603246 L 891.2099935611955 382.8066285918912 Z" fill-opacity="1"/><path fill="rgb(0,255,255)" stroke="none" paint-order="stroke fill markers" d=" M 885.3846936599243 389.26850765763123 L 894.7592226762999 391.86286802603246 L 891.2099935611955 382.8066285918912 Z" fill-opacity="0.7"/><path fill="none" stroke="rgb(0,255,255)" paint-order="fill stroke markers" d=" M 790 404.25 L 886 404.25" stroke-opacity="0.7" stroke-linejoin="round" stroke-miterlimit="10" stroke-width="2"/><path fill="rgb(255,255,255)" stroke="none" paint-order="stroke fill markers" d=" M 881.3 408.6 L 890 404.25 L 881.3 399.9 Z" fill-opacity="1"/><path fill="rgb(0,255,255)" stroke="none" paint-order="stroke fill markers" d=" M 881.3 408.6 L 890 404.25 L 881.3 399.9 Z" fill-opacity="0.7"/><path fill="none" stroke="rgb(0,255,136)" paint-order="fill stroke markers" d=" M 1068.7561175061292 472.83776813257145 L 1190.7559263055284 388.8190318839285" stroke-opacity="0.25" stroke-linejoin="round" stroke-miterlimit="10" stroke-width="2"/><path fill="rgb(255,255,255)" stroke="none" paint-order="stroke fill markers" d=" M 1189.3523299050564 395.0674250489416 L 1194.0502793296089 386.55027932960894 L 1184.4177930994113 387.9022072215665 Z" fill-opacity="1"/><path fill="rgb(0,255,136)" stroke="none" paint-order="stroke fill markers" d=" M 1189.3523299050564 395.0674250489416 L 1194.0502793296089 386.55027932960894 L 1184.4177930994113 387.9022072215665 Z" fill-opacity="0.25"/><path fill="none" stroke="rgb(203,143,255)" paint-order="fill stroke markers" d=" M 924.7698273188369 413.0558343735973 L 1031.409517251723 470.7731923269634" stroke-opacity="0.9" stroke-linejoin="round" stroke-miterlimit="10" stroke-width="3" stroke-dasharray="6,3"/><path fill="rgb(255,255,255)" stroke="none" paint-order="stroke fill markers" d=" M 1026.9644408578847 473.3136245447055 L 1036.686218003778 473.6291386102923 L 1031.1055629687114 465.6624084542254 Z" fill-opacity="1"/><path fill="rgb(203,143,255)" stroke="none" paint-order="stroke fill markers" d=" M 1026.9644408578847 473.3136245447055 L 1036.686218003778 473.6291386102923 L 1031.1055629687114 465.6624084542254 Z" fill-opacity="0.9"/><path fill="none" stroke="rgb(0,255,136)" paint-order="fill stroke markers" d=" M 1074.212895031695 353.6420966161702 L 1181.04582870259 368.9279408992699" stroke-opacity="0.7" stroke-linejoin="round" stroke-miterlimit="10" stroke-width="2"/><path fill="rgb(255,255,255)" stroke="none" paint-order="stroke fill markers" d=" M 1175.7770817255528 372.56838116000233 L 1185.0055020632738 369.49449793672625 L 1177.0093432820204 363.95609160051515 Z" fill-opacity="1"/><path fill="rgb(0,255,136)" stroke="none" paint-order="stroke fill markers" d=" M 1175.7770817255528 372.56838116000233 L 1185.0055020632738 369.49449793672625 L 1177.0093432820204 363.95609160051515 Z" fill-opacity="0.7"/><path fill="none" stroke="rgb(255,0,102)" paint-order="fill stroke markers" d=" M 81.2273378841688 350.58795552123587 L 179.32801301158483 318.94257644787587" stroke-opacity="0.7" stroke-linejoin="round" stroke-miterlimit="10" stroke-width="2"/><path fill="rgb(255,255,255)" stroke="none" paint-order="stroke fill markers" d=" M 176.19044460077424 324.52542200077124 L 183.13484748262704 317.71456532818485 L 173.51952041544624 316.24555702625446 Z" fill-opacity="1"/><path fill="rgb(255,0,102)" stroke="none" paint-order="stroke fill markers" d=" M 176.19044460077424 324.52542200077124 L 183.13484748262704 317.71456532818485 L 173.51952041544624 316.24555702625446 Z" fill-opacity="0.7"/><path fill="none" stroke="rgb(255,0,102)" paint-order="fill stroke markers" d=" M 81.2273378841688 270.41204447876413 L 179.32801301158483 302.05742355212413" stroke-opacity="0.7" stroke-linejoin="round" stroke-miterlimit="10" stroke-width="2"/><path fill="rgb(255,255,255)" stroke="none" paint-order="stroke fill markers" d=" M 173.51952041544624 304.75444297374554 L 183.13484748262704 303.28543467181515 L 176.19044460077424 296.47457799922876 Z" fill-opacity="1"/><path fill="rgb(255,0,102)" stroke="none" paint-order="stroke fill markers" d=" M 173.51952041544624 304.75444297374554 L 183.13484748262704 303.28543467181515 L 176.19044460077424 296.47457799922876 Z" fill-opacity="0.7"/><path fill="none" stroke="rgb(255,102,0)" paint-order="fill stroke markers" d=" M 229 310.5 L 375 310.5" stroke-opacity="0.7" stroke-linejoin="round" stroke-miterlimit="10" stroke-width="2"/><path fill="rgb(255,255,255)" stroke="none" paint-order="stroke fill markers" d=" M 370.3 314.85 L 379 310.5 L 370.3 306.15 Z" fill-opacity="1"/><path fill="rgb(255,102,0)" stroke="none" paint-order="stroke fill markers" d=" M 370.3 314.85 L 379 310.5 L 370.3 306.15 Z" fill-opacity="0.7"/><path fill="none" stroke="rgb(255,0,102)" paint-order="fill stroke markers" d=" M 79.4447463715879 391.82597008284654 L 182.3918421738333 325.4084889201076" stroke-opacity="0.7" stroke-linejoin="round" stroke-miterlimit="10" stroke-width="2"/><path fill="rgb(255,255,255)" stroke="none" paint-order="stroke fill markers" d=" M 180.80069981090543 331.61177562804687 L 185.75302876673027 323.2399814408192 L 176.08419604345323 324.30119478849593 Z" fill-opacity="1"/><path fill="rgb(255,0,102)" stroke="none" paint-order="stroke fill markers" d=" M 180.80069981090543 331.61177562804687 L 185.75302876673027 323.2399814408192 L 176.08419604345323 324.30119478849593 Z" fill-opacity="0.7"/><path fill="none" stroke="rgb(255,0,102)" paint-order="fill stroke markers" d=" M 79.4447463715879 229.1740299171535 L 182.3918421738333 295.5915110798924" stroke-opacity="0.7" stroke-linejoin="round" stroke-miterlimit="10" stroke-width="2"/><path fill="rgb(255,255,255)" stroke="none" paint-order="stroke fill markers" d=" M 176.08419604345323 296.69880521150407 L 185.75302876673027 297.7600185591808 L 180.80069981090546 289.38822437195313 Z" fill-opacity="1"/><path fill="rgb(255,0,102)" stroke="none" paint-order="stroke fill markers" d=" M 176.08419604345323 296.69880521150407 L 185.75302876673027 297.7600185591808 L 180.80069981090546 289.38822437195313 Z" fill-opacity="0.7"/><path fill="none" stroke="rgb(255,153,119)" paint-order="fill stroke markers" d=" M 420.6519454732241 314.30751207102213 L 884.4060636145718 399.8079025838075" stroke-opacity="0.9" stroke-linejoin="round" stroke-miterlimit="10" stroke-width="3" stroke-dasharray="6,3"/><path fill="rgb(255,255,255)" stroke="none" paint-order="stroke fill markers" d=" M 880.9621145533029 403.5962683084154 L 890.3066194640645 400.89576317552815 L 882.5395124112977 395.04046232665115 Z" fill-opacity="1"/><path fill="rgb(255,153,119)" stroke="none" paint-order="stroke fill markers" d=" M 880.9621145533029 403.5962683084154 L 890.3066194640645 400.89576317552815 L 882.5395124112977 395.04046232665115 Z" fill-opacity="0.9"/><path fill="none" stroke="rgb(0,255,255)" paint-order="fill stroke markers" d=" M 645.5 331.1091675636886 L 1026.858149406936 349.4450096952025" stroke-opacity="0.7" stroke-linejoin="round" stroke-miterlimit="10" stroke-width="2"/><path fill="rgb(255,255,255)" stroke="none" paint-order="stroke fill markers" d=" M 1021.9546642598413 353.56427339302775 L 1030.853533963048 349.6371092755825 L 1022.3724808471677 344.8743119834843 Z" fill-opacity="1"/><path fill="rgb(0,255,255)" stroke="none" paint-order="stroke fill markers" d=" M 1021.9546642598413 353.56427339302775 L 1030.853533963048 349.6371092755825 L 1022.3724808471677 344.8743119834843 Z" fill-opacity="0.7"/><path fill="none" stroke="rgb(0,255,255)" paint-order="fill stroke markers" d=" M 645.5 314.6316621499548 L 754.5797337417828 287.78050818009416" stroke-opacity="0.7" stroke-linejoin="round" stroke-miterlimit="10" stroke-width="2"/><path fill="rgb(255,255,255)" stroke="none" paint-order="stroke fill markers" d=" M 751.0557317002722 293.12783551357853 L 758.4637869934262 286.8244065440753 L 748.9762106419312 284.680019691254 Z" fill-opacity="1"/><path fill="rgb(0,255,255)" stroke="none" paint-order="stroke fill markers" d=" M 751.0557317002722 293.12783551357853 L 758.4637869934262 286.8244065440753 L 748.9762106419312 284.680019691254 Z" fill-opacity="0.7"/><path fill="none" stroke="rgb(0,255,255)" paint-order="fill stroke markers" d=" M 645.5 351.43383017163507 L 755.5015967489895 396.6467719248331" stroke-opacity="0.7" stroke-linejoin="round" stroke-miterlimit="10" stroke-width="2"/><path fill="rgb(255,255,255)" stroke="none" paint-order="stroke fill markers" d=" M 749.5007698786533 398.8834160342637 L 759.2012773991917 398.1674175398665 L 752.8081740913509 390.8366106200741 Z" fill-opacity="1"/><path fill="rgb(0,255,255)" stroke="none" paint-order="stroke fill markers" d=" M 749.5007698786533 398.8834160342637 L 759.2012773991917 398.1674175398665 L 752.8081740913509 390.8366106200741 Z" fill-opacity="0.7"/><path fill="none" stroke="rgb(0,255,255)" paint-order="fill stroke markers" d=" M 420.9067636005017 312.4766728997836 L 529.5177593141901 322.74552253850084" stroke-opacity="0.7" stroke-linejoin="round" stroke-miterlimit="10" stroke-width="2"/><path fill="rgb(255,255,255)" stroke="none" paint-order="stroke fill markers" d=" M 524.4291728362656 326.6338110638913 L 533.5 323.12203166226914 L 525.2480801804617 317.9724375722549 Z" fill-opacity="1"/><path fill="rgb(0,255,255)" stroke="none" paint-order="stroke fill markers" d=" M 524.4291728362656 326.6338110638913 L 533.5 323.12203166226914 L 525.2480801804617 317.9724375722549 Z" fill-opacity="0.7"/><path fill="rgb(239,68,68)" stroke="rgb(0,0,0)" paint-order="fill stroke markers" d=" M 420 310.5 L 419.93834667466257 312.0691819145569 L 419.7537668119028 313.62868930080464 L 419.44739840795353 315.1689072771181 L 419.0211303259031 316.680339887499 L 418.47759065022575 318.1536686473018 L 417.82013048376734 319.57980999479093 L 417.0528032870818 320.94997129431897 L 416.180339887499 322.2557050458495 L 415.20811931200063 323.48896096660366 L 414.14213562373095 324.64213562373095 L 412.98896096660366 325.70811931200063 L 411.7557050458495 326.680339887499 L 410.44997129431897 327.5528032870818 L 409.07980999479093 328.32013048376734 L 407.6536686473018 328.97759065022575 L 406.180339887499 329.5211303259031 L 404.66890727711814 329.94739840795353 L 403.12868930080464 330.2537668119028 L 401.5691819145569 330.43834667466257 L 400 330.5 L 398.4308180854431 330.43834667466257 L 396.87131069919536 330.2537668119028 L 395.3310927228819 329.94739840795353 L 393.819660112501 329.5211303259031 L 392.3463313526982 328.97759065022575 L 390.92019000520907 328.32013048376734 L 389.55002870568103 327.5528032870819 L 388.2442949541505 326.680339887499 L 387.01103903339634 325.70811931200063 L 385.85786437626905 324.64213562373095 L 384.79188068799937 323.48896096660366 L 383.8196601125011 322.2557050458495 L 382.9471967129182 320.94997129431897 L 382.17986951623266 319.57980999479093 L 381.52240934977425 318.1536686473018 L 380.9788696740969 316.680339887499 L 380.55260159204647 315.16890727711814 L 380.2462331880972 313.62868930080464 L 380.06165332533743 312.0691819145569 L 380 310.5 L 380.06165332533743 308.9308180854431 L 380.2462331880972 307.37131069919536 L 380.55260159204647 305.8310927228819 L 380.9788696740969 304.3196601125011 L 381.52240934977425 302.8463313526982 L 382.17986951623266 301.42019000520907 L 382.9471967129181 300.05002870568103 L 383.819660112501 298.7442949541505 L 384.79188068799937 297.51103903339634 L 385.85786437626905 296.35786437626905 L 387.01103903339634 295.29188068799937 L 388.2442949541505 294.3196601125011 L 389.55002870568103 293.4471967129181 L 390.92019000520907 292.67986951623266 L 392.3463313526982 292.02240934977425 L 393.8196601125011 291.4788696740969 L 395.3310927228819 291.05260159204647 L 396.8713106991954 290.7462331880972 L 398.43081808544315 290.56165332533743 L 400.00000000000006 290.5 L 401.56918191455696 290.56165332533743 L 403.1286893008047 290.7462331880973 L 404.6689072771182 291.05260159204647 L 406.18033988749903 291.478869674097 L 407.6536686473019 292.0224093497743 L 409.07980999479105 292.6798695162327 L 410.4499712943191 293.44719671291824 L 411.7557050458496 294.31966011250114 L 412.98896096660377 295.2918806879995 L 414.14213562373106 296.35786437626916 L 415.20811931200075 297.51103903339646 L 416.18033988749903 298.7442949541507 L 417.05280328708193 300.0500287056812 L 417.82013048376746 301.42019000520924 L 418.4775906502258 302.84633135269837 L 419.02113032590313 304.31966011250125 L 419.4473984079536 305.8310927228821 L 419.7537668119028 307.3713106991956 L 419.93834667466257 308.9308180854433 Z" fill-opacity="1" stroke-opacity="1" stroke-miterlimit="10" stroke-width="2"/><text fill="none" stroke="rgb(0,0,0)" font-family="Helvetica Neue, Helvetica, sans-serif" font-size="10px" font-style="normal" font-weight="normal" text-decoration="normal" x="400" y="290.5" text-anchor="middle" dominant-baseline="text-after-edge" stroke-opacity="1" stroke-linejoin="round" stroke-miterlimit="10" stroke-width="4">host_ubuntu_2f69a215</text><text fill="rgb(255,255,255)" stroke="none" font-family="Helvetica Neue, Helvetica, sans-serif" font-size="10px" font-style="normal" font-weight="normal" text-decoration="normal" x="400" y="290.5" text-anchor="middle" dominant-baseline="text-after-edge" fill-opacity="1">host_ubuntu_2f69a215</text><path fill="rgb(99,102,241)" stroke="rgb(255,0,102)" paint-order="fill stroke markers" d=" M 81 220.5 L 80.95376000599691 221.67688643591768 L 80.81532510892707 222.84651697560346 L 80.58554880596515 224.00168045783857 L 80.2658477444273 225.13525491562422 L 79.8581929876693 226.24025148547634 L 79.36509786282552 227.3098574960932 L 78.78960246531139 228.33747847073923 L 78.13525491562422 229.3167787843871 L 77.40608948400046 230.24172072495276 L 76.60660171779821 231.1066017177982 L 75.74172072495276 231.90608948400046 L 74.8167787843871 232.63525491562422 L 73.83747847073923 233.2896024653114 L 72.8098574960932 233.8650978628255 L 71.74025148547635 234.3581929876693 L 70.63525491562422 234.7658477444273 L 69.50168045783859 235.08554880596515 L 68.34651697560346 235.31532510892706 L 67.17688643591768 235.4537600059969 L 66 235.5 L 64.82311356408232 235.4537600059969 L 63.653483024396536 235.31532510892706 L 62.49831954216142 235.08554880596515 L 61.36474508437579 234.7658477444273 L 60.25974851452365 234.3581929876693 L 59.1901425039068 233.8650978628255 L 58.16252152926077 233.2896024653114 L 57.1832212156129 232.63525491562422 L 56.258279275047244 231.90608948400046 L 55.39339828220179 231.1066017177982 L 54.59391051599954 230.24172072495276 L 53.86474508437579 229.3167787843871 L 53.21039753468862 228.33747847073923 L 52.634902137174485 227.3098574960932 L 52.1418070123307 226.24025148547634 L 51.734152255572695 225.13525491562422 L 51.414451194034854 224.00168045783857 L 51.18467489107294 222.84651697560346 L 51.04623999400308 221.67688643591768 L 51 220.5 L 51.04623999400308 219.32311356408232 L 51.18467489107293 218.15348302439654 L 51.414451194034854 216.99831954216143 L 51.734152255572695 215.86474508437578 L 52.141807012330695 214.75974851452366 L 52.63490213717448 213.6901425039068 L 53.21039753468862 212.66252152926077 L 53.864745084375784 211.68322121561292 L 54.59391051599953 210.75827927504724 L 55.39339828220179 209.8933982822018 L 56.25827927504724 209.09391051599954 L 57.1832212156129 208.36474508437578 L 58.16252152926077 207.7103975346886 L 59.190142503906806 207.13490213717446 L 60.25974851452367 206.6418070123307 L 61.36474508437581 206.2341522555727 L 62.49831954216145 205.91445119403485 L 63.65348302439657 205.68467489107292 L 64.82311356408238 205.5462399940031 L 66.00000000000006 205.5 L 67.17688643591774 205.5462399940031 L 68.34651697560352 205.68467489107294 L 69.50168045783865 205.91445119403485 L 70.63525491562429 206.23415225557272 L 71.74025148547642 206.64180701233073 L 72.80985749609329 207.13490213717452 L 73.83747847073931 207.71039753468867 L 74.81677878438718 208.36474508437584 L 75.74172072495284 209.0939105159996 L 76.6066017177983 209.89339828220187 L 77.40608948400055 210.75827927504733 L 78.13525491562429 211.683221215613 L 78.78960246531145 212.66252152926089 L 79.36509786282558 213.6901425039069 L 79.85819298766936 214.75974851452378 L 80.26584774442735 215.86474508437593 L 80.58554880596519 216.99831954216157 L 80.8153251089271 218.1534830243967 L 80.95376000599694 219.3231135640825 Z" fill-opacity="1" stroke-opacity="1" stroke-miterlimit="10" stroke-width="2"/><text fill="none" stroke="rgb(0,0,0)" font-family="Helvetica Neue, Helvetica, sans-serif" font-size="10px" font-style="normal" font-weight="normal" text-decoration="normal" x="66" y="205.5" text-anchor="middle" dominant-baseline="text-after-edge" stroke-opacity="1" stroke-linejoin="round" stroke-miterlimit="10" stroke-width="4">AC:L</text><text fill="rgb(255,255,255)" stroke="none" font-family="Helvetica Neue, Helvetica, sans-serif" font-size="10px" font-style="normal" font-weight="normal" text-decoration="normal" x="66" y="205.5" text-anchor="middle" dominant-baseline="text-after-edge" fill-opacity="1">AC:L</text><path fill="rgb(255,0,102)" stroke="rgb(0,0,0)" paint-order="fill stroke markers" d=" M 228 310.5 L 227.93064000899537 312.2653296538765 L 227.7229876633906 314.0197754634052 L 227.37832320894773 315.75252068675786 L 226.89877161664094 317.4528823734363 L 226.28728948150396 319.11037722821453 L 225.5476467942383 320.7147862441398 L 224.68440369796707 322.2562177061088 L 223.70288237343632 323.72516817658067 L 222.6091342260007 325.11258108742913 L 221.40990257669733 326.40990257669733 L 220.11258108742913 327.6091342260007 L 218.72516817658064 328.7028823734363 L 217.25621770610886 329.68440369796707 L 215.71478624413982 330.5476467942383 L 214.11037722821453 331.28728948150393 L 212.45288237343632 331.89877161664094 L 210.75252068675786 332.37832320894773 L 209.01977546340518 332.7229876633906 L 207.2653296538765 332.9306400089954 L 205.5 333 L 203.7346703461235 332.9306400089954 L 201.98022453659482 332.7229876633906 L 200.24747931324214 332.37832320894773 L 198.54711762656368 331.89877161664094 L 196.88962277178547 331.28728948150393 L 195.2852137558602 330.5476467942383 L 193.74378229389114 329.68440369796707 L 192.27483182341936 328.7028823734363 L 190.88741891257087 327.6091342260007 L 189.5900974233027 326.40990257669733 L 188.3908657739993 325.11258108742913 L 187.29711762656368 323.72516817658067 L 186.31559630203293 322.2562177061088 L 185.4523532057617 320.7147862441398 L 184.71271051849604 319.11037722821453 L 184.10122838335906 317.4528823734363 L 183.62167679105227 315.75252068675786 L 183.2770123366094 314.0197754634052 L 183.06935999100463 312.2653296538765 L 183 310.5 L 183.06935999100463 308.7346703461235 L 183.2770123366094 306.9802245365948 L 183.62167679105227 305.24747931324214 L 184.10122838335906 303.5471176265637 L 184.71271051849604 301.88962277178547 L 185.4523532057617 300.2852137558602 L 186.31559630203293 298.7437822938912 L 187.29711762656368 297.27483182341933 L 188.3908657739993 295.88741891257087 L 189.59009742330267 294.59009742330267 L 190.88741891257087 293.39086577399934 L 192.27483182341936 292.2971176265637 L 193.74378229389114 291.31559630203293 L 195.2852137558602 290.4523532057617 L 196.8896227717855 289.712710518496 L 198.5471176265637 289.10122838335906 L 200.24747931324217 288.62167679105227 L 201.98022453659485 288.2770123366094 L 203.73467034612355 288.0693599910046 L 205.50000000000009 288 L 207.2653296538766 288.0693599910046 L 209.0197754634053 288.2770123366094 L 210.75252068675798 288.6216767910523 L 212.45288237343644 289.10122838335906 L 214.11037722821465 289.7127105184961 L 215.71478624413993 290.45235320576177 L 217.25621770610897 291.315596302033 L 218.72516817658078 292.29711762656376 L 220.11258108742925 293.3908657739994 L 221.40990257669745 294.5900974233028 L 222.6091342260008 295.887418912571 L 223.70288237343644 297.2748318234195 L 224.68440369796718 298.74378229389134 L 225.54764679423837 300.2852137558604 L 226.28728948150405 301.8896227717857 L 226.89877161664103 303.54711762656393 L 227.3783232089478 305.24747931324237 L 227.72298766339065 306.9802245365951 L 227.9306400089954 308.7346703461238 Z" fill-opacity="1" stroke-opacity="1" stroke-miterlimit="10" stroke-width="2"/><text fill="none" stroke="rgb(0,0,0)" font-family="Helvetica Neue, Helvetica, sans-serif" font-size="10px" font-style="normal" font-weight="normal" text-decoration="normal" x="205.5" y="288" text-anchor="middle" dominant-baseline="text-after-edge" stroke-opacity="1" stroke-linejoin="round" stroke-miterlimit="10" stroke-width="4">Hacker</text><text fill="rgb(255,255,255)" stroke="none" font-family="Helvetica Neue, Helvetica, sans-serif" font-size="10px" font-style="normal" font-weight="normal" text-decoration="normal" x="205.5" y="288" text-anchor="middle" dominant-baseline="text-after-edge" fill-opacity="1">Hacker</text><path fill="rgb(99,102,241)" stroke="rgb(255,0,102)" paint-order="fill stroke markers" d=" M 81 265.5 L 80.95376000599691 266.67688643591765 L 80.81532510892707 267.84651697560344 L 80.58554880596515 269.0016804578386 L 80.2658477444273 270.1352549156242 L 79.8581929876693 271.24025148547634 L 79.36509786282552 272.3098574960932 L 78.78960246531139 273.33747847073926 L 78.13525491562422 274.3167787843871 L 77.40608948400046 275.24172072495276 L 76.60660171779821 276.1066017177982 L 75.74172072495276 276.90608948400046 L 74.8167787843871 277.6352549156242 L 73.83747847073923 278.28960246531136 L 72.8098574960932 278.8650978628255 L 71.74025148547635 279.3581929876693 L 70.63525491562422 279.7658477444273 L 69.50168045783859 280.0855488059652 L 68.34651697560346 280.3153251089271 L 67.17688643591768 280.4537600059969 L 66 280.5 L 64.82311356408232 280.4537600059969 L 63.653483024396536 280.3153251089271 L 62.49831954216142 280.0855488059652 L 61.36474508437579 279.76584774442733 L 60.25974851452365 279.3581929876693 L 59.1901425039068 278.8650978628255 L 58.16252152926077 278.28960246531136 L 57.1832212156129 277.6352549156242 L 56.258279275047244 276.90608948400046 L 55.39339828220179 276.1066017177982 L 54.59391051599954 275.24172072495276 L 53.86474508437579 274.3167787843871 L 53.21039753468862 273.33747847073926 L 52.634902137174485 272.30985749609323 L 52.1418070123307 271.24025148547634 L 51.734152255572695 270.1352549156242 L 51.414451194034854 269.0016804578386 L 51.18467489107294 267.8465169756035 L 51.04623999400308 266.67688643591765 L 51 265.5 L 51.04623999400308 264.32311356408235 L 51.18467489107293 263.15348302439656 L 51.414451194034854 261.9983195421614 L 51.734152255572695 260.8647450843758 L 52.141807012330695 259.75974851452366 L 52.63490213717448 258.6901425039068 L 53.21039753468862 257.66252152926074 L 53.864745084375784 256.6832212156129 L 54.59391051599953 255.75827927504724 L 55.39339828220179 254.8933982822018 L 56.25827927504724 254.09391051599954 L 57.1832212156129 253.36474508437578 L 58.16252152926077 252.7103975346886 L 59.190142503906806 252.13490213717446 L 60.25974851452367 251.6418070123307 L 61.36474508437581 251.2341522555727 L 62.49831954216145 250.91445119403485 L 63.65348302439657 250.68467489107292 L 64.82311356408238 250.5462399940031 L 66.00000000000006 250.5 L 67.17688643591774 250.5462399940031 L 68.34651697560352 250.68467489107294 L 69.50168045783865 250.91445119403485 L 70.63525491562429 251.23415225557272 L 71.74025148547642 251.64180701233073 L 72.80985749609329 252.13490213717452 L 73.83747847073931 252.71039753468867 L 74.81677878438718 253.36474508437584 L 75.74172072495284 254.0939105159996 L 76.6066017177983 254.89339828220187 L 77.40608948400055 255.75827927504733 L 78.13525491562429 256.683221215613 L 78.78960246531145 257.66252152926086 L 79.36509786282558 258.69014250390694 L 79.85819298766936 259.7597485145238 L 80.26584774442735 260.86474508437595 L 80.58554880596519 261.9983195421616 L 80.8153251089271 263.1534830243967 L 80.95376000599694 264.3231135640825 Z" fill-opacity="1" stroke-opacity="1" stroke-miterlimit="10" stroke-width="2"/><text fill="none" stroke="rgb(0,0,0)" font-family="Helvetica Neue, Helvetica, sans-serif" font-size="10px" font-style="normal" font-weight="normal" text-decoration="normal" x="66" y="250.5" text-anchor="middle" dominant-baseline="text-after-edge" stroke-opacity="1" stroke-linejoin="round" stroke-miterlimit="10" stroke-width="4">AV:N</text><text fill="rgb(255,255,255)" stroke="none" font-family="Helvetica Neue, Helvetica, sans-serif" font-size="10px" font-style="normal" font-weight="normal" text-decoration="normal" x="66" y="250.5" text-anchor="middle" dominant-baseline="text-after-edge" fill-opacity="1">AV:N</text><path fill="rgb(99,102,241)" stroke="rgb(255,0,102)" paint-order="fill stroke markers" d=" M 81 355.5 L 80.95376000599691 356.67688643591765 L 80.81532510892707 357.84651697560344 L 80.58554880596515 359.0016804578386 L 80.2658477444273 360.1352549156242 L 79.8581929876693 361.24025148547634 L 79.36509786282552 362.3098574960932 L 78.78960246531139 363.33747847073926 L 78.13525491562422 364.3167787843871 L 77.40608948400046 365.24172072495276 L 76.60660171779821 366.1066017177982 L 75.74172072495276 366.90608948400046 L 74.8167787843871 367.6352549156242 L 73.83747847073923 368.28960246531136 L 72.8098574960932 368.8650978628255 L 71.74025148547635 369.3581929876693 L 70.63525491562422 369.7658477444273 L 69.50168045783859 370.0855488059652 L 68.34651697560346 370.3153251089271 L 67.17688643591768 370.4537600059969 L 66 370.5 L 64.82311356408232 370.4537600059969 L 63.653483024396536 370.3153251089271 L 62.49831954216142 370.0855488059652 L 61.36474508437579 369.76584774442733 L 60.25974851452365 369.3581929876693 L 59.1901425039068 368.8650978628255 L 58.16252152926077 368.28960246531136 L 57.1832212156129 367.6352549156242 L 56.258279275047244 366.90608948400046 L 55.39339828220179 366.1066017177982 L 54.59391051599954 365.24172072495276 L 53.86474508437579 364.3167787843871 L 53.21039753468862 363.33747847073926 L 52.634902137174485 362.30985749609323 L 52.1418070123307 361.24025148547634 L 51.734152255572695 360.1352549156242 L 51.414451194034854 359.0016804578386 L 51.18467489107294 357.8465169756035 L 51.04623999400308 356.67688643591765 L 51 355.5 L 51.04623999400308 354.32311356408235 L 51.18467489107293 353.15348302439656 L 51.414451194034854 351.9983195421614 L 51.734152255572695 350.8647450843758 L 52.141807012330695 349.75974851452366 L 52.63490213717448 348.6901425039068 L 53.21039753468862 347.66252152926074 L 53.864745084375784 346.6832212156129 L 54.59391051599953 345.75827927504724 L 55.39339828220179 344.8933982822018 L 56.25827927504724 344.09391051599954 L 57.1832212156129 343.3647450843758 L 58.16252152926077 342.71039753468864 L 59.190142503906806 342.1349021371745 L 60.25974851452367 341.6418070123307 L 61.36474508437581 341.23415225557267 L 62.49831954216145 340.9144511940348 L 63.65348302439657 340.6846748910729 L 64.82311356408238 340.5462399940031 L 66.00000000000006 340.5 L 67.17688643591774 340.5462399940031 L 68.34651697560352 340.6846748910729 L 69.50168045783865 340.9144511940349 L 70.63525491562429 341.2341522555727 L 71.74025148547642 341.64180701233073 L 72.80985749609329 342.13490213717455 L 73.83747847073931 342.7103975346887 L 74.81677878438718 343.36474508437584 L 75.74172072495284 344.0939105159996 L 76.6066017177983 344.8933982822019 L 77.40608948400055 345.75827927504736 L 78.13525491562429 346.683221215613 L 78.78960246531145 347.66252152926086 L 79.36509786282558 348.69014250390694 L 79.85819298766936 349.7597485145238 L 80.26584774442735 350.86474508437595 L 80.58554880596519 351.9983195421616 L 80.8153251089271 353.1534830243967 L 80.95376000599694 354.3231135640825 Z" fill-opacity="1" stroke-opacity="1" stroke-miterlimit="10" stroke-width="2"/><text fill="none" stroke="rgb(0,0,0)" font-family="Helvetica Neue, Helvetica, sans-serif" font-size="10px" font-style="normal" font-weight="normal" text-decoration="normal" x="66" y="340.5" text-anchor="middle" dominant-baseline="text-after-edge" stroke-opacity="1" stroke-linejoin="round" stroke-miterlimit="10" stroke-width="4">PR:N</text><text fill="rgb(255,255,255)" stroke="none" font-family="Helvetica Neue, Helvetica, sans-serif" font-size="10px" font-style="normal" font-weight="normal" text-decoration="normal" x="66" y="340.5" text-anchor="middle" dominant-baseline="text-after-edge" fill-opacity="1">PR:N</text><path fill="rgb(234,179,8)" stroke="rgb(0,0,0)" paint-order="fill stroke markers" d=" M 607 289.4166666666667 L 606.9460533403297 290.789700841904 L 606.7845459604149 292.15426980487075 L 606.5164736069594 293.50196053414504 L 606.1434890351652 294.8244640682283 L 605.6678918189475 296.11362673305575 L 605.0926141732964 297.36150041210874 L 604.4212028761966 298.5603915491958 L 603.6577974015615 299.702908581785 L 602.8071043980005 300.7820075124449 L 601.8743686707646 301.79103533743125 L 600.8653408457782 302.72377106466723 L 599.7862419151182 303.5744640682283 L 598.6437248825291 304.3378695428633 L 597.4448337454421 305.00928083996314 L 596.1969600663891 305.5845584856142 L 594.9077974015615 306.0601557018319 L 593.5852938674783 306.433140273626 L 592.237603138204 306.7012126270816 L 590.8730341752373 306.8627200069964 L 589.5 306.9166666666667 L 588.1269658247627 306.8627200069964 L 586.762396861796 306.7012126270816 L 585.4147061325217 306.433140273626 L 584.0922025984385 306.0601557018319 L 582.8030399336109 305.5845584856142 L 581.5551662545579 305.00928083996314 L 580.3562751174709 304.3378695428633 L 579.2137580848818 303.5744640682283 L 578.1346591542218 302.72377106466723 L 577.1256313292354 301.79103533743125 L 576.1928956019995 300.7820075124449 L 575.3422025984385 299.702908581785 L 574.5787971238034 298.5603915491958 L 573.9073858267036 297.36150041210874 L 573.3321081810525 296.11362673305575 L 572.8565109648348 294.8244640682283 L 572.4835263930406 293.50196053414504 L 572.2154540395851 292.15426980487075 L 572.0539466596703 290.789700841904 L 572 289.4166666666667 L 572.0539466596703 288.0436324914294 L 572.2154540395851 286.6790635284626 L 572.4835263930406 285.33137279918833 L 572.8565109648348 284.0088692651051 L 573.3321081810525 282.7197066002776 L 573.9073858267036 281.47183292122463 L 574.5787971238034 280.2729417841376 L 575.3422025984385 279.1304247515484 L 576.1928956019995 278.05132582088845 L 577.1256313292354 277.0422979959021 L 578.1346591542218 276.10956226866614 L 579.2137580848818 275.2588692651051 L 580.3562751174709 274.49546379047007 L 581.5551662545579 273.82405249337023 L 582.803039933611 273.2487748477192 L 584.0922025984385 272.7731776315015 L 585.4147061325217 272.40019305970736 L 586.762396861796 272.1321207062518 L 588.1269658247628 271.97061332633695 L 589.5000000000001 271.9166666666667 L 590.8730341752373 271.97061332633695 L 592.2376031382041 272.1321207062518 L 593.5852938674784 272.40019305970736 L 594.9077974015617 272.77317763150154 L 596.1969600663891 273.24877484771923 L 597.4448337454421 273.8240524933703 L 598.6437248825292 274.4954637904701 L 599.7862419151184 275.2588692651052 L 600.8653408457783 276.10956226866625 L 601.8743686707646 277.0422979959022 L 602.8071043980007 278.05132582088856 L 603.6577974015617 279.1304247515485 L 604.4212028761967 280.27294178413774 L 605.0926141732965 281.47183292122475 L 605.6678918189476 282.7197066002778 L 606.1434890351652 284.00886926510526 L 606.5164736069594 285.3313727991885 L 606.7845459604149 286.67906352846285 L 606.9460533403297 288.0436324914296 Z" fill-opacity="1" stroke-opacity="1" stroke-miterlimit="10" stroke-width="2"/><text fill="none" stroke="rgb(0,0,0)" font-family="Helvetica Neue, Helvetica, sans-serif" font-size="10px" font-style="normal" font-weight="normal" text-decoration="normal" x="589.5" y="271.9166666666667" text-anchor="middle" dominant-baseline="text-after-edge" stroke-opacity="1" stroke-linejoin="round" stroke-miterlimit="10" stroke-width="4">CVE-2025-68121</text><text fill="rgb(255,255,255)" stroke="none" font-family="Helvetica Neue, Helvetica, sans-serif" font-size="10px" font-style="normal" font-weight="normal" text-decoration="normal" x="589.5" y="271.9166666666667" text-anchor="middle" dominant-baseline="text-after-edge" fill-opacity="1">CVE-2025-68121</text><path fill="rgb(99,102,241)" stroke="rgb(0,0,0)" paint-order="fill stroke markers" d=" M 789 404.25 L 788.953760005997 405.42688643591765 L 788.815325108927 406.59651697560344 L 788.5855488059651 407.7516804578386 L 788.2658477444273 408.8852549156242 L 787.8581929876693 409.99025148547634 L 787.3650978628256 411.0598574960932 L 786.7896024653114 412.08747847073926 L 786.1352549156242 413.0667787843871 L 785.4060894840005 413.99172072495276 L 784.6066017177982 414.8566017177982 L 783.7417207249528 415.65608948400046 L 782.8167787843871 416.3852549156242 L 781.8374784707393 417.03960246531136 L 780.8098574960932 417.6150978628255 L 779.7402514854764 418.1081929876693 L 778.6352549156242 418.5158477444273 L 777.5016804578386 418.8355488059652 L 776.3465169756034 419.0653251089271 L 775.1768864359177 419.2037600059969 L 774 419.25 L 772.8231135640823 419.2037600059969 L 771.6534830243966 419.0653251089271 L 770.4983195421614 418.8355488059652 L 769.3647450843758 418.51584774442733 L 768.2597485145236 418.1081929876693 L 767.1901425039068 417.6150978628255 L 766.1625215292607 417.03960246531136 L 765.1832212156129 416.3852549156242 L 764.2582792750472 415.65608948400046 L 763.3933982822018 414.8566017177982 L 762.5939105159995 413.99172072495276 L 761.8647450843758 413.0667787843871 L 761.2103975346886 412.08747847073926 L 760.6349021371744 411.05985749609323 L 760.1418070123307 409.99025148547634 L 759.7341522555727 408.8852549156242 L 759.4144511940349 407.7516804578386 L 759.184674891073 406.5965169756035 L 759.046239994003 405.42688643591765 L 759 404.25 L 759.046239994003 403.07311356408235 L 759.184674891073 401.90348302439656 L 759.4144511940349 400.7483195421614 L 759.7341522555727 399.6147450843758 L 760.1418070123307 398.50974851452366 L 760.6349021371744 397.4401425039068 L 761.2103975346886 396.41252152926074 L 761.8647450843758 395.4332212156129 L 762.5939105159995 394.50827927504724 L 763.3933982822018 393.6433982822018 L 764.2582792750472 392.84391051599954 L 765.1832212156129 392.1147450843758 L 766.1625215292607 391.46039753468864 L 767.1901425039068 390.8849021371745 L 768.2597485145237 390.3918070123307 L 769.3647450843758 389.98415225557267 L 770.4983195421614 389.6644511940348 L 771.6534830243966 389.4346748910729 L 772.8231135640824 389.2962399940031 L 774 389.25 L 775.1768864359177 389.2962399940031 L 776.3465169756035 389.4346748910729 L 777.5016804578387 389.6644511940349 L 778.6352549156243 389.9841522555727 L 779.7402514854764 390.39180701233073 L 780.8098574960933 390.88490213717455 L 781.8374784707394 391.4603975346887 L 782.8167787843872 392.11474508437584 L 783.7417207249529 392.8439105159996 L 784.6066017177983 393.6433982822019 L 785.4060894840005 394.50827927504736 L 786.1352549156243 395.433221215613 L 786.7896024653114 396.41252152926086 L 787.3650978628256 397.44014250390694 L 787.8581929876693 398.5097485145238 L 788.2658477444273 399.61474508437595 L 788.5855488059652 400.7483195421616 L 788.8153251089271 401.9034830243967 L 788.953760005997 403.0731135640825 Z" fill-opacity="1" stroke-opacity="1" stroke-miterlimit="10" stroke-width="2"/><text fill="none" stroke="rgb(0,0,0)" font-family="Helvetica Neue, Helvetica, sans-serif" font-size="10px" font-style="normal" font-weight="normal" text-decoration="normal" x="774" y="389.25" text-anchor="middle" dominant-baseline="text-after-edge" stroke-opacity="1" stroke-linejoin="round" stroke-miterlimit="10" stroke-width="4">AV:L</text><text fill="rgb(255,255,255)" stroke="none" font-family="Helvetica Neue, Helvetica, sans-serif" font-size="10px" font-style="normal" font-weight="normal" text-decoration="normal" x="774" y="389.25" text-anchor="middle" dominant-baseline="text-after-edge" fill-opacity="1">AV:L</text><path fill="rgb(99,102,241)" stroke="rgb(0,0,0)" paint-order="fill stroke markers" d=" M 789 283 L 788.953760005997 284.17688643591765 L 788.815325108927 285.34651697560344 L 788.5855488059651 286.5016804578386 L 788.2658477444273 287.6352549156242 L 787.8581929876693 288.74025148547634 L 787.3650978628256 289.8098574960932 L 786.7896024653114 290.83747847073926 L 786.1352549156242 291.8167787843871 L 785.4060894840005 292.74172072495276 L 784.6066017177982 293.6066017177982 L 783.7417207249528 294.40608948400046 L 782.8167787843871 295.1352549156242 L 781.8374784707393 295.78960246531136 L 780.8098574960932 296.3650978628255 L 779.7402514854764 296.8581929876693 L 778.6352549156242 297.2658477444273 L 777.5016804578386 297.5855488059652 L 776.3465169756034 297.8153251089271 L 775.1768864359177 297.9537600059969 L 774 298 L 772.8231135640823 297.9537600059969 L 771.6534830243966 297.8153251089271 L 770.4983195421614 297.5855488059652 L 769.3647450843758 297.26584774442733 L 768.2597485145236 296.8581929876693 L 767.1901425039068 296.3650978628255 L 766.1625215292607 295.78960246531136 L 765.1832212156129 295.1352549156242 L 764.2582792750472 294.40608948400046 L 763.3933982822018 293.6066017177982 L 762.5939105159995 292.74172072495276 L 761.8647450843758 291.8167787843871 L 761.2103975346886 290.83747847073926 L 760.6349021371744 289.80985749609323 L 760.1418070123307 288.74025148547634 L 759.7341522555727 287.6352549156242 L 759.4144511940349 286.5016804578386 L 759.184674891073 285.3465169756035 L 759.046239994003 284.17688643591765 L 759 283 L 759.046239994003 281.82311356408235 L 759.184674891073 280.65348302439656 L 759.4144511940349 279.4983195421614 L 759.7341522555727 278.3647450843758 L 760.1418070123307 277.25974851452366 L 760.6349021371744 276.1901425039068 L 761.2103975346886 275.16252152926074 L 761.8647450843758 274.1832212156129 L 762.5939105159995 273.25827927504724 L 763.3933982822018 272.3933982822018 L 764.2582792750472 271.59391051599954 L 765.1832212156129 270.8647450843758 L 766.1625215292607 270.21039753468864 L 767.1901425039068 269.6349021371745 L 768.2597485145237 269.1418070123307 L 769.3647450843758 268.73415225557267 L 770.4983195421614 268.4144511940348 L 771.6534830243966 268.1846748910729 L 772.8231135640824 268.0462399940031 L 774 268 L 775.1768864359177 268.0462399940031 L 776.3465169756035 268.1846748910729 L 777.5016804578387 268.4144511940349 L 778.6352549156243 268.7341522555727 L 779.7402514854764 269.14180701233073 L 780.8098574960933 269.63490213717455 L 781.8374784707394 270.2103975346887 L 782.8167787843872 270.86474508437584 L 783.7417207249529 271.5939105159996 L 784.6066017177983 272.3933982822019 L 785.4060894840005 273.25827927504736 L 786.1352549156243 274.183221215613 L 786.7896024653114 275.16252152926086 L 787.3650978628256 276.19014250390694 L 787.8581929876693 277.2597485145238 L 788.2658477444273 278.36474508437595 L 788.5855488059652 279.4983195421616 L 788.8153251089271 280.6534830243967 L 788.953760005997 281.8231135640825 Z" fill-opacity="1" stroke-opacity="1" stroke-miterlimit="10" stroke-width="2"/><text fill="none" stroke="rgb(0,0,0)" font-family="Helvetica Neue, Helvetica, sans-serif" font-size="10px" font-style="normal" font-weight="normal" text-decoration="normal" x="774" y="268" text-anchor="middle" dominant-baseline="text-after-edge" stroke-opacity="1" stroke-linejoin="round" stroke-miterlimit="10" stroke-width="4">PR:H</text><text fill="rgb(255,255,255)" stroke="none" font-family="Helvetica Neue, Helvetica, sans-serif" font-size="10px" font-style="normal" font-weight="normal" text-decoration="normal" x="774" y="268" text-anchor="middle" dominant-baseline="text-after-edge" fill-opacity="1">PR:H</text><path fill="rgb(255,0,0)" stroke="rgb(255,215,0)" paint-order="fill stroke markers" d=" M 1054 325.75 L 1044.7343318831333 339.97991935488204 L 1029 344.84830056250524 L 1039.0078340584334 358.51125558861554 L 1038.5491502812527 375.75 L 1054 369.9642512380153 L 1069.4508497187473 375.75 L 1068.9921659415666 358.51125558861554 L 1079 344.84830056250524 L 1063.2656681168667 339.97991935488204 Z" fill-opacity="1" stroke-opacity="1" stroke-miterlimit="10" stroke-width="4"/><text fill="none" stroke="rgb(0,0,0)" font-family="Helvetica Neue, Helvetica, sans-serif" font-size="10px" font-style="normal" font-weight="bold" text-decoration="normal" x="1054" y="325.75" text-anchor="middle" dominant-baseline="text-after-edge" stroke-opacity="1" stroke-linejoin="round" stroke-miterlimit="10" stroke-width="4">EXPLOITED</text><text fill="rgb(255,255,255)" stroke="none" font-family="Helvetica Neue, Helvetica, sans-serif" font-size="10px" font-style="normal" font-weight="bold" text-decoration="normal" x="1054" y="325.75" text-anchor="middle" dominant-baseline="text-after-edge" fill-opacity="1">EXPLOITED</text><path fill="rgb(234,179,8)" stroke="rgb(0,0,0)" paint-order="fill stroke markers" d=" M 607 334.4166666666667 L 606.9460533403297 335.789700841904 L 606.7845459604149 337.15426980487075 L 606.5164736069594 338.50196053414504 L 606.1434890351652 339.8244640682283 L 605.6678918189475 341.11362673305575 L 605.0926141732964 342.36150041210874 L 604.4212028761966 343.5603915491958 L 603.6577974015615 344.702908581785 L 602.8071043980005 345.7820075124449 L 601.8743686707646 346.79103533743125 L 600.8653408457782 347.72377106466723 L 599.7862419151182 348.5744640682283 L 598.6437248825291 349.3378695428633 L 597.4448337454421 350.00928083996314 L 596.1969600663891 350.5845584856142 L 594.9077974015615 351.0601557018319 L 593.5852938674783 351.433140273626 L 592.237603138204 351.7012126270816 L 590.8730341752373 351.8627200069964 L 589.5 351.9166666666667 L 588.1269658247627 351.8627200069964 L 586.762396861796 351.7012126270816 L 585.4147061325217 351.433140273626 L 584.0922025984385 351.0601557018319 L 582.8030399336109 350.5845584856142 L 581.5551662545579 350.00928083996314 L 580.3562751174709 349.3378695428633 L 579.2137580848818 348.5744640682283 L 578.1346591542218 347.72377106466723 L 577.1256313292354 346.79103533743125 L 576.1928956019995 345.7820075124449 L 575.3422025984385 344.702908581785 L 574.5787971238034 343.5603915491958 L 573.9073858267036 342.36150041210874 L 573.3321081810525 341.11362673305575 L 572.8565109648348 339.8244640682283 L 572.4835263930406 338.50196053414504 L 572.2154540395851 337.15426980487075 L 572.0539466596703 335.789700841904 L 572 334.4166666666667 L 572.0539466596703 333.0436324914294 L 572.2154540395851 331.6790635284626 L 572.4835263930406 330.33137279918833 L 572.8565109648348 329.0088692651051 L 573.3321081810525 327.7197066002776 L 573.9073858267036 326.47183292122463 L 574.5787971238034 325.2729417841376 L 575.3422025984385 324.1304247515484 L 576.1928956019995 323.05132582088845 L 577.1256313292354 322.0422979959021 L 578.1346591542218 321.10956226866614 L 579.2137580848818 320.2588692651051 L 580.3562751174709 319.49546379047007 L 581.5551662545579 318.82405249337023 L 582.803039933611 318.2487748477192 L 584.0922025984385 317.7731776315015 L 585.4147061325217 317.40019305970736 L 586.762396861796 317.1321207062518 L 588.1269658247628 316.97061332633695 L 589.5000000000001 316.9166666666667 L 590.8730341752373 316.97061332633695 L 592.2376031382041 317.1321207062518 L 593.5852938674784 317.40019305970736 L 594.9077974015617 317.77317763150154 L 596.1969600663891 318.24877484771923 L 597.4448337454421 318.8240524933703 L 598.6437248825292 319.4954637904701 L 599.7862419151184 320.2588692651052 L 600.8653408457783 321.10956226866625 L 601.8743686707646 322.0422979959022 L 602.8071043980007 323.05132582088856 L 603.6577974015617 324.1304247515485 L 604.4212028761967 325.27294178413774 L 605.0926141732965 326.47183292122475 L 605.6678918189476 327.7197066002778 L 606.1434890351652 329.00886926510526 L 606.5164736069594 330.3313727991885 L 606.7845459604149 331.67906352846285 L 606.9460533403297 333.0436324914296 Z" fill-opacity="1" stroke-opacity="1" stroke-miterlimit="10" stroke-width="2"/><text fill="none" stroke="rgb(0,0,0)" font-family="Helvetica Neue, Helvetica, sans-serif" font-size="10px" font-style="normal" font-weight="normal" text-decoration="normal" x="589.5" y="316.9166666666667" text-anchor="middle" dominant-baseline="text-after-edge" stroke-opacity="1" stroke-linejoin="round" stroke-miterlimit="10" stroke-width="4">CVE-2026-32281</text><text fill="rgb(255,255,255)" stroke="none" font-family="Helvetica Neue, Helvetica, sans-serif" font-size="10px" font-style="normal" font-weight="normal" text-decoration="normal" x="589.5" y="316.9166666666667" text-anchor="middle" dominant-baseline="text-after-edge" fill-opacity="1">CVE-2026-32281</text><path fill="rgb(99,102,241)" stroke="rgb(255,0,102)" paint-order="fill stroke markers" d=" M 81 400.5 L 80.95376000599691 401.67688643591765 L 80.81532510892707 402.84651697560344 L 80.58554880596515 404.0016804578386 L 80.2658477444273 405.1352549156242 L 79.8581929876693 406.24025148547634 L 79.36509786282552 407.3098574960932 L 78.78960246531139 408.33747847073926 L 78.13525491562422 409.3167787843871 L 77.40608948400046 410.24172072495276 L 76.60660171779821 411.1066017177982 L 75.74172072495276 411.90608948400046 L 74.8167787843871 412.6352549156242 L 73.83747847073923 413.28960246531136 L 72.8098574960932 413.8650978628255 L 71.74025148547635 414.3581929876693 L 70.63525491562422 414.7658477444273 L 69.50168045783859 415.0855488059652 L 68.34651697560346 415.3153251089271 L 67.17688643591768 415.4537600059969 L 66 415.5 L 64.82311356408232 415.4537600059969 L 63.653483024396536 415.3153251089271 L 62.49831954216142 415.0855488059652 L 61.36474508437579 414.76584774442733 L 60.25974851452365 414.3581929876693 L 59.1901425039068 413.8650978628255 L 58.16252152926077 413.28960246531136 L 57.1832212156129 412.6352549156242 L 56.258279275047244 411.90608948400046 L 55.39339828220179 411.1066017177982 L 54.59391051599954 410.24172072495276 L 53.86474508437579 409.3167787843871 L 53.21039753468862 408.33747847073926 L 52.634902137174485 407.30985749609323 L 52.1418070123307 406.24025148547634 L 51.734152255572695 405.1352549156242 L 51.414451194034854 404.0016804578386 L 51.18467489107294 402.8465169756035 L 51.04623999400308 401.67688643591765 L 51 400.5 L 51.04623999400308 399.32311356408235 L 51.18467489107293 398.15348302439656 L 51.414451194034854 396.9983195421614 L 51.734152255572695 395.8647450843758 L 52.141807012330695 394.75974851452366 L 52.63490213717448 393.6901425039068 L 53.21039753468862 392.66252152926074 L 53.864745084375784 391.6832212156129 L 54.59391051599953 390.75827927504724 L 55.39339828220179 389.8933982822018 L 56.25827927504724 389.09391051599954 L 57.1832212156129 388.3647450843758 L 58.16252152926077 387.71039753468864 L 59.190142503906806 387.1349021371745 L 60.25974851452367 386.6418070123307 L 61.36474508437581 386.23415225557267 L 62.49831954216145 385.9144511940348 L 63.65348302439657 385.6846748910729 L 64.82311356408238 385.5462399940031 L 66.00000000000006 385.5 L 67.17688643591774 385.5462399940031 L 68.34651697560352 385.6846748910729 L 69.50168045783865 385.9144511940349 L 70.63525491562429 386.2341522555727 L 71.74025148547642 386.64180701233073 L 72.80985749609329 387.13490213717455 L 73.83747847073931 387.7103975346887 L 74.81677878438718 388.36474508437584 L 75.74172072495284 389.0939105159996 L 76.6066017177983 389.8933982822019 L 77.40608948400055 390.75827927504736 L 78.13525491562429 391.683221215613 L 78.78960246531145 392.66252152926086 L 79.36509786282558 393.69014250390694 L 79.85819298766936 394.7597485145238 L 80.26584774442735 395.86474508437595 L 80.58554880596519 396.9983195421616 L 80.8153251089271 398.1534830243967 L 80.95376000599694 399.3231135640825 Z" fill-opacity="1" stroke-opacity="1" stroke-miterlimit="10" stroke-width="2"/><text fill="none" stroke="rgb(0,0,0)" font-family="Helvetica Neue, Helvetica, sans-serif" font-size="10px" font-style="normal" font-weight="normal" text-decoration="normal" x="66" y="385.5" text-anchor="middle" dominant-baseline="text-after-edge" stroke-opacity="1" stroke-linejoin="round" stroke-miterlimit="10" stroke-width="4">UI:N</text><text fill="rgb(255,255,255)" stroke="none" font-family="Helvetica Neue, Helvetica, sans-serif" font-size="10px" font-style="normal" font-weight="normal" text-decoration="normal" x="66" y="385.5" text-anchor="middle" dominant-baseline="text-after-edge" fill-opacity="1">UI:N</text><path fill="rgb(234,179,8)" stroke="rgb(255,102,102)" paint-order="fill stroke markers" d=" M 607 379.4166666666667 L 606.9460533403297 380.789700841904 L 606.7845459604149 382.15426980487075 L 606.5164736069594 383.50196053414504 L 606.1434890351652 384.8244640682283 L 605.6678918189475 386.11362673305575 L 605.0926141732964 387.36150041210874 L 604.4212028761966 388.5603915491958 L 603.6577974015615 389.702908581785 L 602.8071043980005 390.7820075124449 L 601.8743686707646 391.79103533743125 L 600.8653408457782 392.72377106466723 L 599.7862419151182 393.5744640682283 L 598.6437248825291 394.3378695428633 L 597.4448337454421 395.00928083996314 L 596.1969600663891 395.5845584856142 L 594.9077974015615 396.0601557018319 L 593.5852938674783 396.433140273626 L 592.237603138204 396.7012126270816 L 590.8730341752373 396.8627200069964 L 589.5 396.9166666666667 L 588.1269658247627 396.8627200069964 L 586.762396861796 396.7012126270816 L 585.4147061325217 396.433140273626 L 584.0922025984385 396.0601557018319 L 582.8030399336109 395.5845584856142 L 581.5551662545579 395.00928083996314 L 580.3562751174709 394.3378695428633 L 579.2137580848818 393.5744640682283 L 578.1346591542218 392.72377106466723 L 577.1256313292354 391.79103533743125 L 576.1928956019995 390.7820075124449 L 575.3422025984385 389.702908581785 L 574.5787971238034 388.5603915491958 L 573.9073858267036 387.36150041210874 L 573.3321081810525 386.11362673305575 L 572.8565109648348 384.8244640682283 L 572.4835263930406 383.50196053414504 L 572.2154540395851 382.15426980487075 L 572.0539466596703 380.789700841904 L 572 379.4166666666667 L 572.0539466596703 378.0436324914294 L 572.2154540395851 376.6790635284626 L 572.4835263930406 375.33137279918833 L 572.8565109648348 374.0088692651051 L 573.3321081810525 372.7197066002776 L 573.9073858267036 371.47183292122463 L 574.5787971238034 370.2729417841376 L 575.3422025984385 369.1304247515484 L 576.1928956019995 368.05132582088845 L 577.1256313292354 367.0422979959021 L 578.1346591542218 366.10956226866614 L 579.2137580848818 365.2588692651051 L 580.3562751174709 364.49546379047007 L 581.5551662545579 363.82405249337023 L 582.803039933611 363.2487748477192 L 584.0922025984385 362.7731776315015 L 585.4147061325217 362.40019305970736 L 586.762396861796 362.1321207062518 L 588.1269658247628 361.97061332633695 L 589.5000000000001 361.9166666666667 L 590.8730341752373 361.97061332633695 L 592.2376031382041 362.1321207062518 L 593.5852938674784 362.40019305970736 L 594.9077974015617 362.77317763150154 L 596.1969600663891 363.24877484771923 L 597.4448337454421 363.8240524933703 L 598.6437248825292 364.4954637904701 L 599.7862419151184 365.2588692651052 L 600.8653408457783 366.10956226866625 L 601.8743686707646 367.0422979959022 L 602.8071043980007 368.05132582088856 L 603.6577974015617 369.1304247515485 L 604.4212028761967 370.27294178413774 L 605.0926141732965 371.47183292122475 L 605.6678918189476 372.7197066002778 L 606.1434890351652 374.00886926510526 L 606.5164736069594 375.3313727991885 L 606.7845459604149 376.67906352846285 L 606.9460533403297 378.0436324914296 Z" fill-opacity="0.25" stroke-opacity="0.25" stroke-miterlimit="10" stroke-width="2" stroke-dasharray="4,2"/><text fill="none" stroke="rgb(0,0,0)" font-family="Helvetica Neue, Helvetica, sans-serif" font-size="10px" font-style="normal" font-weight="normal" text-decoration="normal" x="589.5" y="361.9166666666667" text-anchor="middle" dominant-baseline="text-after-edge" stroke-opacity="0.25" stroke-linejoin="round" stroke-miterlimit="10" stroke-width="4">CVE-2026-32289</text><text fill="rgb(255,255,255)" stroke="none" font-family="Helvetica Neue, Helvetica, sans-serif" font-size="10px" font-style="normal" font-weight="normal" text-decoration="normal" x="589.5" y="361.9166666666667" text-anchor="middle" dominant-baseline="text-after-edge" fill-opacity="0.25">CVE-2026-32289</text><path fill="rgb(234,179,8)" stroke="rgb(255,102,102)" paint-order="fill stroke markers" d=" M 926 404.25 L 925.9460533403297 405.6230341752373 L 925.7845459604149 406.98760313820407 L 925.5164736069594 408.33529386747836 L 925.1434890351652 409.6577974015616 L 924.6678918189475 410.94696006638907 L 924.0926141732964 412.19483374544205 L 923.4212028761966 413.3937248825291 L 922.6577974015615 414.5362419151183 L 921.8071043980005 415.61534084577823 L 920.8743686707646 416.62436867076457 L 919.8653408457782 417.55710439800055 L 918.7862419151182 418.4077974015616 L 917.6437248825291 419.1712028761966 L 916.4448337454421 419.84261417329645 L 915.1969600663891 420.4178918189475 L 913.9077974015615 420.8934890351652 L 912.5852938674783 421.2664736069593 L 911.237603138204 421.5345459604149 L 909.8730341752373 421.69605334032974 L 908.5 421.75 L 907.1269658247627 421.69605334032974 L 905.762396861796 421.5345459604149 L 904.4147061325217 421.2664736069593 L 903.0922025984385 420.8934890351652 L 901.8030399336109 420.4178918189475 L 900.5551662545579 419.84261417329645 L 899.3562751174709 419.1712028761966 L 898.2137580848818 418.4077974015616 L 897.1346591542218 417.55710439800055 L 896.1256313292354 416.62436867076457 L 895.1928956019995 415.61534084577823 L 894.3422025984385 414.5362419151183 L 893.5787971238034 413.3937248825291 L 892.9073858267036 412.19483374544205 L 892.3321081810525 410.94696006638907 L 891.8565109648348 409.6577974015616 L 891.4835263930406 408.33529386747836 L 891.2154540395851 406.98760313820407 L 891.0539466596703 405.6230341752373 L 891 404.25 L 891.0539466596703 402.8769658247627 L 891.2154540395851 401.51239686179593 L 891.4835263930406 400.16470613252164 L 891.8565109648348 398.8422025984384 L 892.3321081810525 397.55303993361093 L 892.9073858267036 396.30516625455795 L 893.5787971238034 395.1062751174709 L 894.3422025984385 393.9637580848817 L 895.1928956019995 392.88465915422177 L 896.1256313292354 391.87563132923543 L 897.1346591542218 390.94289560199945 L 898.2137580848818 390.0922025984384 L 899.3562751174709 389.3287971238034 L 900.5551662545579 388.65738582670355 L 901.803039933611 388.0821081810525 L 903.0922025984385 387.6065109648348 L 904.4147061325217 387.2335263930407 L 905.762396861796 386.9654540395851 L 907.1269658247628 386.80394665967026 L 908.5000000000001 386.75 L 909.8730341752373 386.80394665967026 L 911.2376031382041 386.9654540395851 L 912.5852938674784 387.2335263930407 L 913.9077974015617 387.60651096483485 L 915.1969600663891 388.0821081810525 L 916.4448337454421 388.6573858267036 L 917.6437248825292 389.32879712380344 L 918.7862419151184 390.0922025984385 L 919.8653408457783 390.94289560199957 L 920.8743686707646 391.8756313292355 L 921.8071043980007 392.8846591542219 L 922.6577974015617 393.9637580848818 L 923.4212028761967 395.10627511747106 L 924.0926141732965 396.30516625455806 L 924.6678918189476 397.5530399336111 L 925.1434890351652 398.8422025984386 L 925.5164736069594 400.1647061325218 L 925.7845459604149 401.51239686179616 L 925.9460533403297 402.8769658247629 Z" fill-opacity="0.25" stroke-opacity="0.25" stroke-miterlimit="10" stroke-width="2" stroke-dasharray="4,2"/><text fill="none" stroke="rgb(0,0,0)" font-family="Helvetica Neue, Helvetica, sans-serif" font-size="10px" font-style="normal" font-weight="normal" text-decoration="normal" x="908.5" y="386.75" text-anchor="middle" dominant-baseline="text-after-edge" stroke-opacity="0.25" stroke-linejoin="round" stroke-miterlimit="10" stroke-width="4">CVE-2026-32282</text><text fill="rgb(255,255,255)" stroke="none" font-family="Helvetica Neue, Helvetica, sans-serif" font-size="10px" font-style="normal" font-weight="normal" text-decoration="normal" x="908.5" y="386.75" text-anchor="middle" dominant-baseline="text-after-edge" fill-opacity="0.25">CVE-2026-32282</text><path fill="rgb(255,0,0)" stroke="rgb(255,215,0)" paint-order="fill stroke markers" d=" M 1054 458 L 1044.7343318831333 472.22991935488204 L 1029 477.09830056250524 L 1039.0078340584334 490.76125558861554 L 1038.5491502812527 508 L 1054 502.2142512380153 L 1069.4508497187473 508 L 1068.9921659415666 490.76125558861554 L 1079 477.09830056250524 L 1063.2656681168667 472.22991935488204 Z" fill-opacity="0.25" stroke-opacity="0.25" stroke-miterlimit="10" stroke-width="4" stroke-dasharray="4,2"/><text fill="none" stroke="rgb(0,0,0)" font-family="Helvetica Neue, Helvetica, sans-serif" font-size="10px" font-style="normal" font-weight="bold" text-decoration="normal" x="1054" y="458" text-anchor="middle" dominant-baseline="text-after-edge" stroke-opacity="0.25" stroke-linejoin="round" stroke-miterlimit="10" stroke-width="4">EXPLOITED</text><text fill="rgb(255,255,255)" stroke="none" font-family="Helvetica Neue, Helvetica, sans-serif" font-size="10px" font-style="normal" font-weight="bold" text-decoration="normal" x="1054" y="458" text-anchor="middle" dominant-baseline="text-after-edge" fill-opacity="0.25">EXPLOITED</text><path fill="rgb(0,255,136)" stroke="rgb(0,204,102)" paint-order="fill stroke markers" d=" M 1213 403.5 L 1243 373.5 L 1213 343.5 L 1183 373.5 Z" fill-opacity="1" stroke-opacity="1" stroke-miterlimit="10" stroke-width="4"/><text fill="none" stroke="rgb(0,0,0)" font-family="Helvetica Neue, Helvetica, sans-serif" font-size="14px" font-style="normal" font-weight="bold" text-decoration="normal" x="1213" y="343.5" text-anchor="middle" dominant-baseline="text-after-edge" stroke-opacity="1" stroke-linejoin="round" stroke-miterlimit="10" stroke-width="6">INSIDE NETWORK</text><text fill="rgb(255,255,255)" stroke="none" font-family="Helvetica Neue, Helvetica, sans-serif" font-size="14px" font-style="normal" font-weight="bold" text-decoration="normal" x="1213" y="343.5" text-anchor="middle" dominant-baseline="text-after-edge" fill-opacity="1">INSIDE NETWORK</text><g transform="scale(0.5,0.5) translate(64,319)"/></g></g></svg>