<svg version="1.1" xmlns="http://www.w3.org/2000/svg" xmlns:xlink="http://www.w3.org/1999/xlink" width="2498" height="822"><defs/><g><rect fill="#ffffff" stroke="none" x="0" y="0" width="2498" height="822"/><g transform="translate(-64,-319) scale(2,2)"><path fill="rgb(100,100,100)" stroke="rgb(136,136,136)" paint-order="fill stroke markers" d=" M 139.5 213.85000000000002 L 237 213.85000000000002 L 237 213.85000000000002 A 8 8 0 0 1 245 221.85000000000002 L 245 461.85 L 245 461.85 A 8 8 0 0 1 237 469.85 L 42 469.85 L 42 469.85 A 8 8 0 0 1 34 461.85 L 34 221.85000000000002 L 34 221.85000000000002 A 8 8 0 0 1 42 213.85000000000002 L 139.5 213.85000000000002 Z" fill-opacity="1" stroke-opacity="1" stroke-miterlimit="10" stroke-width="2" stroke-dasharray="4,2"/><text fill="none" stroke="rgb(0,0,0)" font-family="Helvetica Neue, Helvetica, sans-serif" font-size="12px" font-style="normal" font-weight="normal" text-decoration="normal" x="139.5" y="213.85000000000002" text-anchor="middle" dominant-baseline="text-after-edge" stroke-opacity="1" stroke-linejoin="round" stroke-miterlimit="10" stroke-width="4">Initial State</text><text fill="rgb(204,204,204)" stroke="none" font-family="Helvetica Neue, Helvetica, sans-serif" font-size="12px" font-style="normal" font-weight="normal" text-decoration="normal" x="139.5" y="213.85000000000002" text-anchor="middle" dominant-baseline="text-after-edge" fill-opacity="1">Initial State</text><path fill="rgb(234,179,8)" stroke="rgb(234,179,8)" paint-order="fill stroke markers" d=" M 589.5 173.5 L 636.5 173.5 L 636.5 173.5 A 8 8 0 0 1 644.5 181.5 L 644.5 285.5 L 644.5 285.5 A 8 8 0 0 1 636.5 293.5 L 542.5 293.5 L 542.5 293.5 A 8 8 0 0 1 534.5 285.5 L 534.5 181.5 L 534.5 181.5 A 8 8 0 0 1 542.5 173.5 L 589.5 173.5 Z" fill-opacity="1" stroke-opacity="1" stroke-miterlimit="10" stroke-width="2" stroke-dasharray="4,2"/><text fill="none" stroke="rgb(0,0,0)" font-family="Helvetica Neue, Helvetica, sans-serif" font-size="10px" font-style="normal" font-weight="normal" text-decoration="normal" x="589.5" y="173.5" text-anchor="middle" dominant-baseline="text-after-edge" stroke-opacity="1" stroke-linejoin="round" stroke-miterlimit="10" stroke-width="2">AV:N / AC:L / PR:N / UI:N (×2)</text><text fill="rgb(234,179,8)" stroke="none" font-family="Helvetica Neue, Helvetica, sans-serif" font-size="10px" font-style="normal" font-weight="normal" text-decoration="normal" x="589.5" y="173.5" text-anchor="middle" dominant-baseline="text-after-edge" fill-opacity="1">AV:N / AC:L / PR:N / UI:N (×2)</text><path fill="none" stroke="rgb(203,143,255)" paint-order="fill stroke markers" d=" M 607.5299914048105 221.14359867053503 L 1021.3010831466215 316.23523277912136" stroke-opacity="0.9" stroke-linejoin="round" stroke-miterlimit="10" stroke-width="3" stroke-dasharray="6,3"/><path fill="rgb(255,255,255)" stroke="none" paint-order="stroke fill markers" d=" M 1017.6953733623071 319.8699758169852 L 1027.14864792656 317.57910261821377 L 1019.6439846289911 311.3910068860743 Z" fill-opacity="1"/><path fill="rgb(203,143,255)" stroke="none" paint-order="stroke fill markers" d=" M 1017.6953733623071 319.8699758169852 L 1027.14864792656 317.57910261821377 L 1019.6439846289911 311.3910068860743 Z" fill-opacity="0.9"/><path fill="none" stroke="rgb(0,255,255)" paint-order="fill stroke markers" d=" M 782.7397889468344 246.4020927158706 L 896.2096717935142 420.40330711830694" stroke-opacity="0.7" stroke-linejoin="round" stroke-miterlimit="10" stroke-width="2"/><path fill="rgb(255,255,255)" stroke="none" paint-order="stroke fill markers" d=" M 889.9986648332542 418.8425725029406 L 898.3946190302228 423.7538302972746 L 897.2860527475088 414.09031226309935 Z" fill-opacity="1"/><path fill="rgb(0,255,255)" stroke="none" paint-order="stroke fill markers" d=" M 889.9986648332542 418.8425725029406 L 898.3946190302228 423.7538302972746 L 897.2860527475088 414.09031226309935 Z" fill-opacity="0.7"/><path fill="none" stroke="rgb(203,143,255)" paint-order="fill stroke markers" d=" M 601.3166167561565 231.23437980518025 L 759.947807100787 422.32262942086675" stroke-opacity="0.9" stroke-linejoin="round" stroke-miterlimit="10" stroke-width="3" stroke-dasharray="6,3"/><path fill="rgb(255,255,255)" stroke="none" paint-order="stroke fill markers" d=" M 754.8762169713731 423.02368117304474 L 763.7802233460269 426.9391850333576 L 761.570222609485 417.46667761744686 Z" fill-opacity="1"/><path fill="rgb(203,143,255)" stroke="none" paint-order="stroke fill markers" d=" M 754.8762169713731 423.02368117304474 L 763.7802233460269 426.9391850333576 L 761.570222609485 417.46667761744686 Z" fill-opacity="0.9"/><path fill="none" stroke="rgb(203,143,255)" paint-order="fill stroke markers" d=" M 598.7840437730362 534.9982334968809 L 762.9595155131462 252.0291277334391" stroke-opacity="0.9" stroke-linejoin="round" stroke-miterlimit="10" stroke-width="3" stroke-dasharray="6,3"/><path fill="rgb(255,255,255)" stroke="none" paint-order="stroke fill markers" d=" M 765.3671244915987 256.54752556971636 L 765.9705567368336 246.83936562431933 L 757.8419694333751 252.1815157953696 Z" fill-opacity="1"/><path fill="rgb(203,143,255)" stroke="none" paint-order="stroke fill markers" d=" M 765.3671244915987 256.54752556971636 L 765.9705567368336 246.83936562431933 L 757.8419694333751 252.1815157953696 Z" fill-opacity="0.9"/><path fill="none" stroke="rgb(203,143,255)" paint-order="fill stroke markers" d=" M 607.9308252220488 218.59833714662753 L 752.0822618981042 231.09927474455102" stroke-opacity="0.9" stroke-linejoin="round" stroke-miterlimit="10" stroke-width="3" stroke-dasharray="6,3"/><path fill="rgb(255,255,255)" stroke="none" paint-order="stroke fill markers" d=" M 749.016532455544 235.19973849698442 L 758.0598268349848 231.61765435967348 L 749.7681828974717 226.53226933850743 Z" fill-opacity="1"/><path fill="rgb(203,143,255)" stroke="none" paint-order="stroke fill markers" d=" M 749.016532455544 235.19973849698442 L 758.0598268349848 231.61765435967348 L 749.7681828974717 226.53226933850743 Z" fill-opacity="0.9"/><path fill="none" stroke="rgb(0,255,255)" paint-order="fill stroke markers" d=" M 790 439.25 L 886 439.25" stroke-opacity="0.7" stroke-linejoin="round" stroke-miterlimit="10" stroke-width="2"/><path fill="rgb(255,255,255)" stroke="none" paint-order="stroke fill markers" d=" M 881.3 443.6 L 890 439.25 L 881.3 434.9 Z" fill-opacity="1"/><path fill="rgb(0,255,255)" stroke="none" paint-order="stroke fill markers" d=" M 881.3 443.6 L 890 439.25 L 881.3 434.9 Z" fill-opacity="0.7"/><path fill="none" stroke="rgb(0,255,136)" paint-order="fill stroke markers" d=" M 1069.9360332521192 446.20284748179466 L 1189.7755047181404 372.52795228806144" stroke-opacity="0.25" stroke-linejoin="round" stroke-miterlimit="10" stroke-width="2"/><path fill="rgb(255,255,255)" stroke="none" paint-order="stroke fill markers" d=" M 1188.0498283971308 378.69516731877883 L 1193.1830574488802 370.4330574488802 L 1183.4934321219116 371.28374012941987 Z" fill-opacity="1"/><path fill="rgb(0,255,136)" stroke="none" paint-order="stroke fill markers" d=" M 1188.0498283971308 378.69516731877883 L 1193.1830574488802 370.4330574488802 L 1183.4934321219116 371.28374012941987 Z" fill-opacity="0.25"/><path fill="none" stroke="rgb(203,143,255)" paint-order="fill stroke markers" d=" M 926.8786178861678 441.3657515435966 L 1023.6516166525581 452.5062857658443" stroke-opacity="0.9" stroke-linejoin="round" stroke-miterlimit="10" stroke-width="3" stroke-dasharray="6,3"/><path fill="rgb(255,255,255)" stroke="none" paint-order="stroke fill markers" d=" M 1020.4718443548663 456.5189592056886 L 1029.6122494805045 453.19247545565946 L 1021.4668194050982 447.87604160516645 Z" fill-opacity="1"/><path fill="rgb(203,143,255)" stroke="none" paint-order="stroke fill markers" d=" M 1020.4718443548663 456.5189592056886 L 1029.6122494805045 453.19247545565946 L 1021.4668194050982 447.87604160516645 Z" fill-opacity="0.9"/><path fill="none" stroke="rgb(203,143,255)" paint-order="fill stroke markers" d=" M 605.3237512812132 541.4156953621921 L 755.1825660439628 450.64755146117704" stroke-opacity="0.9" stroke-linejoin="round" stroke-miterlimit="10" stroke-width="3" stroke-dasharray="6,3"/><path fill="rgb(255,255,255)" stroke="none" paint-order="stroke fill markers" d=" M 755.126760461 455.7670617636288 L 760.3145934865183 447.5391283354015 L 750.6195469286255 448.3256219719232 Z" fill-opacity="1"/><path fill="rgb(203,143,255)" stroke="none" paint-order="stroke fill markers" d=" M 755.126760461 455.7670617636288 L 760.3145934865183 447.5391283354015 L 750.6195469286255 448.3256219719232 Z" fill-opacity="0.9"/><path fill="none" stroke="rgb(203,143,255)" paint-order="fill stroke markers" d=" M 607.7756183023326 259.12740958933523 L 752.2668322891179 236.41605346133107" stroke-opacity="0.9" stroke-linejoin="round" stroke-miterlimit="10" stroke-width="3" stroke-dasharray="6,3"/><path fill="rgb(255,255,255)" stroke="none" paint-order="stroke fill markers" d=" M 750.2750268226365 241.13253636532792 L 758.1940598466313 235.4844025173317 L 748.9241329538374 232.53805640693363 Z" fill-opacity="1"/><path fill="rgb(203,143,255)" stroke="none" paint-order="stroke fill markers" d=" M 750.2750268226365 241.13253636532792 L 758.1940598466313 235.4844025173317 L 748.9241329538374 232.53805640693363 Z" fill-opacity="0.9"/><path fill="none" stroke="rgb(203,143,255)" paint-order="fill stroke markers" d=" M 607.838663003728 264.43791698704024 L 1023.311938135248 319.670370677829" stroke-opacity="0.9" stroke-linejoin="round" stroke-miterlimit="10" stroke-width="3" stroke-dasharray="6,3"/><path fill="rgb(255,255,255)" stroke="none" paint-order="stroke fill markers" d=" M 1020.0622446755892 323.626630580597 L 1029.2596126229437 320.4610464574096 L 1021.2087245559811 315.00250257343845 Z" fill-opacity="1"/><path fill="rgb(203,143,255)" stroke="none" paint-order="stroke fill markers" d=" M 1020.0622446755892 323.626630580597 L 1029.2596126229437 320.4610464574096 L 1021.2087245559811 315.00250257343845 Z" fill-opacity="0.9"/><path fill="none" stroke="rgb(203,143,255)" paint-order="fill stroke markers" d=" M 602.8409683858276 274.8167297907206 L 758.1350646222589 424.008483492116" stroke-opacity="0.9" stroke-linejoin="round" stroke-miterlimit="10" stroke-width="3" stroke-dasharray="6,3"/><path fill="rgb(255,255,255)" stroke="none" paint-order="stroke fill markers" d=" M 753.1743408800228 425.27486414311085 L 762.4618651798247 428.1652607215389 L 759.201667862686 419.00100333464053 Z" fill-opacity="1"/><path fill="rgb(203,143,255)" stroke="none" paint-order="stroke fill markers" d=" M 753.1743408800228 425.27486414311085 L 762.4618651798247 428.1652607215389 L 759.201667862686 419.00100333464053 Z" fill-opacity="0.9"/><path fill="none" stroke="rgb(0,255,136)" paint-order="fill stroke markers" d=" M 1073.2688212614937 327.93097065107884 L 1182.7963883693665 351.69638615561723" stroke-opacity="0.7" stroke-linejoin="round" stroke-miterlimit="10" stroke-width="2"/><path fill="rgb(255,255,255)" stroke="none" paint-order="stroke fill markers" d=" M 1177.2808648414043 354.95084466856446 L 1186.7054263565892 352.54457364341084 L 1179.1256726273552 346.448687046355 Z" fill-opacity="1"/><path fill="rgb(0,255,136)" stroke="none" paint-order="stroke fill markers" d=" M 1177.2808648414043 354.95084466856446 L 1186.7054263565892 352.54457364341084 L 1179.1256726273552 346.448687046355 Z" fill-opacity="0.7"/><path fill="none" stroke="rgb(255,0,102)" paint-order="fill stroke markers" d=" M 81.2273378841688 387.9379555212359 L 179.32801301158483 356.2925764478759" stroke-opacity="0.7" stroke-linejoin="round" stroke-miterlimit="10" stroke-width="2"/><path fill="rgb(255,255,255)" stroke="none" paint-order="stroke fill markers" d=" M 176.19044460077424 361.87542200077127 L 183.13484748262704 355.06456532818487 L 173.51952041544624 353.5955570262545 Z" fill-opacity="1"/><path fill="rgb(255,0,102)" stroke="none" paint-order="stroke fill markers" d=" M 176.19044460077424 361.87542200077127 L 183.13484748262704 355.06456532818487 L 173.51952041544624 353.5955570262545 Z" fill-opacity="0.7"/><path fill="none" stroke="rgb(255,0,102)" paint-order="fill stroke markers" d=" M 81.2273378841688 307.76204447876415 L 179.32801301158483 339.40742355212416" stroke-opacity="0.7" stroke-linejoin="round" stroke-miterlimit="10" stroke-width="2"/><path fill="rgb(255,255,255)" stroke="none" paint-order="stroke fill markers" d=" M 173.51952041544624 342.10444297374556 L 183.13484748262704 340.6354346718152 L 176.19044460077424 333.8245779992288 Z" fill-opacity="1"/><path fill="rgb(255,0,102)" stroke="none" paint-order="stroke fill markers" d=" M 173.51952041544624 342.10444297374556 L 183.13484748262704 340.6354346718152 L 176.19044460077424 333.8245779992288 Z" fill-opacity="0.7"/><path fill="none" stroke="rgb(255,102,0)" paint-order="fill stroke markers" d=" M 228.9714274828197 346.6915130908223 L 375.03039629487273 339.482432882104" stroke-opacity="0.7" stroke-linejoin="round" stroke-miterlimit="10" stroke-width="2"/><path fill="rgb(255,255,255)" stroke="none" paint-order="stroke fill markers" d=" M 370.55055411979487 344.05884130863166 L 379.0255328876931 339.2852436209673 L 370.12166747682267 335.36941921924733 Z" fill-opacity="1"/><path fill="rgb(255,102,0)" stroke="none" paint-order="stroke fill markers" d=" M 370.55055411979487 344.05884130863166 L 379.0255328876931 339.2852436209673 L 370.12166747682267 335.36941921924733 Z" fill-opacity="0.7"/><path fill="none" stroke="rgb(255,0,102)" paint-order="fill stroke markers" d=" M 79.4447463715879 429.17597008284656 L 182.3918421738333 362.7584889201076" stroke-opacity="0.7" stroke-linejoin="round" stroke-miterlimit="10" stroke-width="2"/><path fill="rgb(255,255,255)" stroke="none" paint-order="stroke fill markers" d=" M 180.80069981090546 368.9617756280469 L 185.75302876673027 360.5899814408192 L 176.08419604345323 361.65119478849596 Z" fill-opacity="1"/><path fill="rgb(255,0,102)" stroke="none" paint-order="stroke fill markers" d=" M 180.80069981090546 368.9617756280469 L 185.75302876673027 360.5899814408192 L 176.08419604345323 361.65119478849596 Z" fill-opacity="0.7"/><path fill="none" stroke="rgb(203,143,255)" paint-order="fill stroke markers" d=" M 606.1178357206272 542.8699608880247 L 1032.17047727876 334.4297826445679" stroke-opacity="0.9" stroke-linejoin="round" stroke-miterlimit="10" stroke-width="3" stroke-dasharray="6,3"/><path fill="rgb(255,255,255)" stroke="none" paint-order="stroke fill markers" d=" M 1031.6568293701869 339.5237659411658 L 1037.560045620585 331.79301320284617 L 1027.8335136796904 331.70889184551953 Z" fill-opacity="1"/><path fill="rgb(203,143,255)" stroke="none" paint-order="stroke fill markers" d=" M 1031.6568293701869 339.5237659411658 L 1037.560045620585 331.79301320284617 L 1027.8335136796904 331.70889184551953 Z" fill-opacity="0.9"/><path fill="none" stroke="rgb(255,0,102)" paint-order="fill stroke markers" d=" M 79.4447463715879 266.5240299171535 L 182.3918421738333 332.94151107989245" stroke-opacity="0.7" stroke-linejoin="round" stroke-miterlimit="10" stroke-width="2"/><path fill="rgb(255,255,255)" stroke="none" paint-order="stroke fill markers" d=" M 176.08419604345323 334.0488052115041 L 185.75302876673027 335.11001855918084 L 180.80069981090546 326.73822437195315 Z" fill-opacity="1"/><path fill="rgb(255,0,102)" stroke="none" paint-order="stroke fill markers" d=" M 176.08419604345323 334.0488052115041 L 185.75302876673027 335.11001855918084 L 180.80069981090546 326.73822437195315 Z" fill-opacity="0.7"/><path fill="none" stroke="rgb(255,153,119)" paint-order="fill stroke markers" d=" M 417.688970750571 326.93185908439716 L 568.8628674576671 230.20449773487" stroke-opacity="0.9" stroke-linejoin="round" stroke-miterlimit="10" stroke-width="3" stroke-dasharray="6,3"/><path fill="rgb(255,255,255)" stroke="none" paint-order="stroke fill markers" d=" M 568.9330432651113 235.3238312223515 L 573.9168591006874 226.9707431875549 L 564.2440991715044 227.99554333997207 Z" fill-opacity="1"/><path fill="rgb(255,153,119)" stroke="none" paint-order="stroke fill markers" d=" M 568.9330432651113 235.3238312223515 L 573.9168591006874 226.9707431875549 L 564.2440991715044 227.99554333997207 Z" fill-opacity="0.9"/><path fill="none" stroke="rgb(255,153,119)" paint-order="fill stroke markers" d=" M 419.4820168356921 330.4109299012057 L 566.7709803583592 271.1455817819267" stroke-opacity="0.9" stroke-linejoin="round" stroke-miterlimit="10" stroke-width="3" stroke-dasharray="6,3"/><path fill="rgb(255,255,255)" stroke="none" paint-order="stroke fill markers" d=" M 565.889956999949 276.18902285345075 L 572.3372708828426 268.90584746798544 L 562.6423422447342 268.11790159294975 Z" fill-opacity="1"/><path fill="rgb(255,153,119)" stroke="none" paint-order="stroke fill markers" d=" M 565.889956999949 276.18902285345075 L 572.3372708828426 268.90584746798544 L 562.6423422447342 268.11790159294975 Z" fill-opacity="0.9"/><path fill="none" stroke="rgb(255,153,119)" paint-order="fill stroke markers" d=" M 413.96764575953904 353.9313542762107 L 573.2044132805379 532.7050866777541" stroke-opacity="0.9" stroke-linejoin="round" stroke-miterlimit="10" stroke-width="3" stroke-dasharray="6,3"/><path fill="rgb(255,255,255)" stroke="none" paint-order="stroke fill markers" d=" M 568.1602925828106 533.5822106067172 L 577.1951692118347 537.1854736138143 L 574.6568536400979 527.7956145063368 Z" fill-opacity="1"/><path fill="rgb(255,153,119)" stroke="none" paint-order="stroke fill markers" d=" M 568.1602925828106 533.5822106067172 L 577.1951692118347 537.1854736138143 L 574.6568536400979 527.7956145063368 Z" fill-opacity="0.9"/><path fill="none" stroke="rgb(255,153,119)" paint-order="fill stroke markers" d=" M 420.5976289582498 342.34117114018335 L 884.4694328820419 434.47696700311946" stroke-opacity="0.9" stroke-linejoin="round" stroke-miterlimit="10" stroke-width="3" stroke-dasharray="6,3"/><path fill="rgb(255,255,255)" stroke="none" paint-order="stroke fill markers" d=" M 880.9737094226575 438.2176109978762 L 890.3544697272562 435.64587304317183 L 882.6686231807336 429.68430757231556 Z" fill-opacity="1"/><path fill="rgb(255,153,119)" stroke="none" paint-order="stroke fill markers" d=" M 880.9737094226575 438.2176109978762 L 890.3544697272562 435.64587304317183 L 882.6686231807336 429.68430757231556 Z" fill-opacity="0.9"/><path fill="rgb(239,68,68)" stroke="rgb(0,0,0)" paint-order="fill stroke markers" d=" M 420 338.25 L 419.93834667466257 339.8191819145569 L 419.7537668119028 341.37868930080464 L 419.44739840795353 342.9189072771181 L 419.0211303259031 344.430339887499 L 418.47759065022575 345.9036686473018 L 417.82013048376734 347.32980999479093 L 417.0528032870818 348.69997129431897 L 416.180339887499 350.0057050458495 L 415.20811931200063 351.23896096660366 L 414.14213562373095 352.39213562373095 L 412.98896096660366 353.45811931200063 L 411.7557050458495 354.430339887499 L 410.44997129431897 355.3028032870818 L 409.07980999479093 356.07013048376734 L 407.6536686473018 356.72759065022575 L 406.180339887499 357.2711303259031 L 404.66890727711814 357.69739840795353 L 403.12868930080464 358.0037668119028 L 401.5691819145569 358.18834667466257 L 400 358.25 L 398.4308180854431 358.18834667466257 L 396.87131069919536 358.0037668119028 L 395.3310927228819 357.69739840795353 L 393.819660112501 357.2711303259031 L 392.3463313526982 356.72759065022575 L 390.92019000520907 356.07013048376734 L 389.55002870568103 355.3028032870819 L 388.2442949541505 354.430339887499 L 387.01103903339634 353.45811931200063 L 385.85786437626905 352.39213562373095 L 384.79188068799937 351.23896096660366 L 383.8196601125011 350.0057050458495 L 382.9471967129182 348.69997129431897 L 382.17986951623266 347.32980999479093 L 381.52240934977425 345.9036686473018 L 380.9788696740969 344.430339887499 L 380.55260159204647 342.91890727711814 L 380.2462331880972 341.37868930080464 L 380.06165332533743 339.8191819145569 L 380 338.25 L 380.06165332533743 336.6808180854431 L 380.2462331880972 335.12131069919536 L 380.55260159204647 333.5810927228819 L 380.9788696740969 332.0696601125011 L 381.52240934977425 330.5963313526982 L 382.17986951623266 329.17019000520907 L 382.9471967129181 327.80002870568103 L 383.819660112501 326.4942949541505 L 384.79188068799937 325.26103903339634 L 385.85786437626905 324.10786437626905 L 387.01103903339634 323.04188068799937 L 388.2442949541505 322.0696601125011 L 389.55002870568103 321.1971967129181 L 390.92019000520907 320.42986951623266 L 392.3463313526982 319.77240934977425 L 393.8196601125011 319.2288696740969 L 395.3310927228819 318.80260159204647 L 396.8713106991954 318.4962331880972 L 398.43081808544315 318.31165332533743 L 400.00000000000006 318.25 L 401.56918191455696 318.31165332533743 L 403.1286893008047 318.4962331880973 L 404.6689072771182 318.80260159204647 L 406.18033988749903 319.228869674097 L 407.6536686473019 319.7724093497743 L 409.07980999479105 320.4298695162327 L 410.4499712943191 321.19719671291824 L 411.7557050458496 322.06966011250114 L 412.98896096660377 323.0418806879995 L 414.14213562373106 324.10786437626916 L 415.20811931200075 325.26103903339646 L 416.18033988749903 326.4942949541507 L 417.05280328708193 327.8000287056812 L 417.82013048376746 329.17019000520924 L 418.4775906502258 330.59633135269837 L 419.02113032590313 332.06966011250125 L 419.4473984079536 333.5810927228821 L 419.7537668119028 335.1213106991956 L 419.93834667466257 336.6808180854433 Z" fill-opacity="1" stroke-opacity="1" stroke-miterlimit="10" stroke-width="2"/><text fill="none" stroke="rgb(0,0,0)" font-family="Helvetica Neue, Helvetica, sans-serif" font-size="10px" font-style="normal" font-weight="normal" text-decoration="normal" x="400" y="318.25" text-anchor="middle" dominant-baseline="text-after-edge" stroke-opacity="1" stroke-linejoin="round" stroke-miterlimit="10" stroke-width="4">host_ubuntu_2f69a215</text><text fill="rgb(255,255,255)" stroke="none" font-family="Helvetica Neue, Helvetica, sans-serif" font-size="10px" font-style="normal" font-weight="normal" text-decoration="normal" x="400" y="318.25" text-anchor="middle" dominant-baseline="text-after-edge" fill-opacity="1">host_ubuntu_2f69a215</text><path fill="rgb(99,102,241)" stroke="rgb(255,0,102)" paint-order="fill stroke markers" d=" M 81 257.85 L 80.95376000599691 259.0268864359177 L 80.81532510892707 260.19651697560346 L 80.58554880596515 261.3516804578386 L 80.2658477444273 262.48525491562424 L 79.8581929876693 263.59025148547636 L 79.36509786282552 264.6598574960932 L 78.78960246531139 265.6874784707393 L 78.13525491562422 266.66677878438713 L 77.40608948400046 267.5917207249528 L 76.60660171779821 268.4566017177982 L 75.74172072495276 269.2560894840005 L 74.8167787843871 269.98525491562424 L 73.83747847073923 270.6396024653114 L 72.8098574960932 271.21509786282553 L 71.74025148547635 271.70819298766935 L 70.63525491562422 272.1158477444273 L 69.50168045783859 272.4355488059652 L 68.34651697560346 272.6653251089271 L 67.17688643591768 272.80376000599693 L 66 272.85 L 64.82311356408232 272.80376000599693 L 63.653483024396536 272.6653251089271 L 62.49831954216142 272.4355488059652 L 61.36474508437579 272.11584774442736 L 60.25974851452365 271.70819298766935 L 59.1901425039068 271.21509786282553 L 58.16252152926077 270.6396024653114 L 57.1832212156129 269.98525491562424 L 56.258279275047244 269.2560894840005 L 55.39339828220179 268.4566017177982 L 54.59391051599954 267.5917207249528 L 53.86474508437579 266.66677878438713 L 53.21039753468862 265.6874784707393 L 52.634902137174485 264.65985749609325 L 52.1418070123307 263.59025148547636 L 51.734152255572695 262.48525491562424 L 51.414451194034854 261.3516804578386 L 51.18467489107294 260.1965169756035 L 51.04623999400308 259.0268864359177 L 51 257.85 L 51.04623999400308 256.67311356408237 L 51.18467489107293 255.50348302439656 L 51.414451194034854 254.34831954216145 L 51.734152255572695 253.2147450843758 L 52.141807012330695 252.1097485145237 L 52.63490213717448 251.04014250390682 L 53.21039753468862 250.0125215292608 L 53.864745084375784 249.03322121561294 L 54.59391051599953 248.10827927504727 L 55.39339828220179 247.2433982822018 L 56.25827927504724 246.44391051599956 L 57.1832212156129 245.7147450843758 L 58.16252152926077 245.06039753468863 L 59.190142503906806 244.4849021371745 L 60.25974851452367 243.99180701233072 L 61.36474508437581 243.58415225557272 L 62.49831954216145 243.26445119403488 L 63.65348302439657 243.03467489107294 L 64.82311356408238 242.8962399940031 L 66.00000000000006 242.85000000000002 L 67.17688643591774 242.8962399940031 L 68.34651697560352 243.03467489107297 L 69.50168045783865 243.26445119403488 L 70.63525491562429 243.58415225557275 L 71.74025148547642 243.99180701233075 L 72.80985749609329 244.48490213717454 L 73.83747847073931 245.0603975346887 L 74.81677878438718 245.71474508437586 L 75.74172072495284 246.44391051599962 L 76.6066017177983 247.2433982822019 L 77.40608948400055 248.10827927504735 L 78.13525491562429 249.03322121561303 L 78.78960246531145 250.0125215292609 L 79.36509786282558 251.04014250390694 L 79.85819298766936 252.1097485145238 L 80.26584774442735 253.21474508437595 L 80.58554880596519 254.3483195421616 L 80.8153251089271 255.50348302439673 L 80.95376000599694 256.67311356408254 Z" fill-opacity="1" stroke-opacity="1" stroke-miterlimit="10" stroke-width="2"/><text fill="none" stroke="rgb(0,0,0)" font-family="Helvetica Neue, Helvetica, sans-serif" font-size="10px" font-style="normal" font-weight="normal" text-decoration="normal" x="66" y="242.85000000000002" text-anchor="middle" dominant-baseline="text-after-edge" stroke-opacity="1" stroke-linejoin="round" stroke-miterlimit="10" stroke-width="4">AC:L</text><text fill="rgb(255,255,255)" stroke="none" font-family="Helvetica Neue, Helvetica, sans-serif" font-size="10px" font-style="normal" font-weight="normal" text-decoration="normal" x="66" y="242.85000000000002" text-anchor="middle" dominant-baseline="text-after-edge" fill-opacity="1">AC:L</text><path fill="rgb(255,0,102)" stroke="rgb(0,0,0)" paint-order="fill stroke markers" d=" M 228 347.85 L 227.93064000899537 349.61532965387653 L 227.7229876633906 351.36977546340523 L 227.37832320894773 353.1025206867579 L 226.89877161664094 354.8028823734363 L 226.28728948150396 356.46037722821455 L 225.5476467942383 358.06478624413984 L 224.68440369796707 359.60621770610885 L 223.70288237343632 361.0751681765807 L 222.6091342260007 362.46258108742916 L 221.40990257669733 363.75990257669736 L 220.11258108742913 364.95913422600074 L 218.72516817658064 366.0528823734363 L 217.25621770610886 367.0344036979671 L 215.71478624413982 367.8976467942383 L 214.11037722821453 368.63728948150396 L 212.45288237343632 369.24877161664097 L 210.75252068675786 369.72832320894776 L 209.01977546340518 370.0729876633906 L 207.2653296538765 370.2806400089954 L 205.5 370.35 L 203.7346703461235 370.2806400089954 L 201.98022453659482 370.0729876633906 L 200.24747931324214 369.72832320894776 L 198.54711762656368 369.24877161664097 L 196.88962277178547 368.63728948150396 L 195.2852137558602 367.8976467942383 L 193.74378229389114 367.0344036979671 L 192.27483182341936 366.0528823734363 L 190.88741891257087 364.95913422600074 L 189.5900974233027 363.75990257669736 L 188.3908657739993 362.46258108742916 L 187.29711762656368 361.0751681765807 L 186.31559630203293 359.60621770610885 L 185.4523532057617 358.06478624413984 L 184.71271051849604 356.46037722821455 L 184.10122838335906 354.8028823734363 L 183.62167679105227 353.1025206867579 L 183.2770123366094 351.36977546340523 L 183.06935999100463 349.61532965387653 L 183 347.85 L 183.06935999100463 346.0846703461235 L 183.2770123366094 344.3302245365948 L 183.62167679105227 342.59747931324216 L 184.10122838335906 340.8971176265637 L 184.71271051849604 339.2396227717855 L 185.4523532057617 337.6352137558602 L 186.31559630203293 336.0937822938912 L 187.29711762656368 334.62483182341936 L 188.3908657739993 333.2374189125709 L 189.59009742330267 331.9400974233027 L 190.88741891257087 330.74086577399936 L 192.27483182341936 329.6471176265637 L 193.74378229389114 328.66559630203295 L 195.2852137558602 327.80235320576173 L 196.8896227717855 327.06271051849603 L 198.5471176265637 326.4512283833591 L 200.24747931324217 325.9716767910523 L 201.98022453659485 325.6270123366094 L 203.73467034612355 325.4193599910046 L 205.50000000000009 325.35 L 207.2653296538766 325.4193599910046 L 209.0197754634053 325.6270123366094 L 210.75252068675798 325.97167679105235 L 212.45288237343644 326.4512283833591 L 214.11037722821465 327.06271051849615 L 215.71478624413993 327.8023532057618 L 217.25621770610897 328.665596302033 L 218.72516817658078 329.6471176265638 L 220.11258108742925 330.7408657739994 L 221.40990257669745 331.9400974233028 L 222.6091342260008 333.237418912571 L 223.70288237343644 334.6248318234195 L 224.68440369796718 336.09378229389137 L 225.54764679423837 337.63521375586043 L 226.28728948150405 339.2396227717857 L 226.89877161664103 340.89711762656395 L 227.3783232089478 342.5974793132424 L 227.72298766339065 344.3302245365951 L 227.9306400089954 346.0846703461238 Z" fill-opacity="1" stroke-opacity="1" stroke-miterlimit="10" stroke-width="2"/><text fill="none" stroke="rgb(0,0,0)" font-family="Helvetica Neue, Helvetica, sans-serif" font-size="10px" font-style="normal" font-weight="normal" text-decoration="normal" x="205.5" y="325.35" text-anchor="middle" dominant-baseline="text-after-edge" stroke-opacity="1" stroke-linejoin="round" stroke-miterlimit="10" stroke-width="4">Hacker</text><text fill="rgb(255,255,255)" stroke="none" font-family="Helvetica Neue, Helvetica, sans-serif" font-size="10px" font-style="normal" font-weight="normal" text-decoration="normal" x="205.5" y="325.35" text-anchor="middle" dominant-baseline="text-after-edge" fill-opacity="1">Hacker</text><path fill="rgb(99,102,241)" stroke="rgb(255,0,102)" paint-order="fill stroke markers" d=" M 81 302.85 L 80.95376000599691 304.0268864359177 L 80.81532510892707 305.19651697560346 L 80.58554880596515 306.3516804578386 L 80.2658477444273 307.48525491562424 L 79.8581929876693 308.59025148547636 L 79.36509786282552 309.6598574960932 L 78.78960246531139 310.6874784707393 L 78.13525491562422 311.66677878438713 L 77.40608948400046 312.5917207249528 L 76.60660171779821 313.4566017177982 L 75.74172072495276 314.2560894840005 L 74.8167787843871 314.98525491562424 L 73.83747847073923 315.6396024653114 L 72.8098574960932 316.21509786282553 L 71.74025148547635 316.70819298766935 L 70.63525491562422 317.1158477444273 L 69.50168045783859 317.4355488059652 L 68.34651697560346 317.6653251089271 L 67.17688643591768 317.80376000599693 L 66 317.85 L 64.82311356408232 317.80376000599693 L 63.653483024396536 317.6653251089271 L 62.49831954216142 317.4355488059652 L 61.36474508437579 317.11584774442736 L 60.25974851452365 316.70819298766935 L 59.1901425039068 316.21509786282553 L 58.16252152926077 315.6396024653114 L 57.1832212156129 314.98525491562424 L 56.258279275047244 314.2560894840005 L 55.39339828220179 313.4566017177982 L 54.59391051599954 312.5917207249528 L 53.86474508437579 311.66677878438713 L 53.21039753468862 310.6874784707393 L 52.634902137174485 309.65985749609325 L 52.1418070123307 308.59025148547636 L 51.734152255572695 307.48525491562424 L 51.414451194034854 306.3516804578386 L 51.18467489107294 305.1965169756035 L 51.04623999400308 304.0268864359177 L 51 302.85 L 51.04623999400308 301.67311356408237 L 51.18467489107293 300.5034830243966 L 51.414451194034854 299.34831954216145 L 51.734152255572695 298.2147450843758 L 52.141807012330695 297.1097485145237 L 52.63490213717448 296.04014250390685 L 53.21039753468862 295.01252152926077 L 53.864745084375784 294.0332212156129 L 54.59391051599953 293.10827927504727 L 55.39339828220179 292.24339828220184 L 56.25827927504724 291.44391051599956 L 57.1832212156129 290.7147450843758 L 58.16252152926077 290.06039753468866 L 59.190142503906806 289.4849021371745 L 60.25974851452367 288.9918070123307 L 61.36474508437581 288.5841522555727 L 62.49831954216145 288.26445119403485 L 63.65348302439657 288.03467489107294 L 64.82311356408238 287.8962399940031 L 66.00000000000006 287.85 L 67.17688643591774 287.8962399940031 L 68.34651697560352 288.03467489107294 L 69.50168045783865 288.2644511940349 L 70.63525491562429 288.58415225557275 L 71.74025148547642 288.99180701233075 L 72.80985749609329 289.4849021371746 L 73.83747847073931 290.0603975346887 L 74.81677878438718 290.71474508437586 L 75.74172072495284 291.4439105159996 L 76.6066017177983 292.2433982822019 L 77.40608948400055 293.1082792750474 L 78.13525491562429 294.033221215613 L 78.78960246531145 295.0125215292609 L 79.36509786282558 296.04014250390696 L 79.85819298766936 297.1097485145238 L 80.26584774442735 298.214745084376 L 80.58554880596519 299.3483195421616 L 80.8153251089271 300.5034830243967 L 80.95376000599694 301.67311356408254 Z" fill-opacity="1" stroke-opacity="1" stroke-miterlimit="10" stroke-width="2"/><text fill="none" stroke="rgb(0,0,0)" font-family="Helvetica Neue, Helvetica, sans-serif" font-size="10px" font-style="normal" font-weight="normal" text-decoration="normal" x="66" y="287.85" text-anchor="middle" dominant-baseline="text-after-edge" stroke-opacity="1" stroke-linejoin="round" stroke-miterlimit="10" stroke-width="4">AV:N</text><text fill="rgb(255,255,255)" stroke="none" font-family="Helvetica Neue, Helvetica, sans-serif" font-size="10px" font-style="normal" font-weight="normal" text-decoration="normal" x="66" y="287.85" text-anchor="middle" dominant-baseline="text-after-edge" fill-opacity="1">AV:N</text><path fill="rgb(99,102,241)" stroke="rgb(255,0,102)" paint-order="fill stroke markers" d=" M 81 392.85 L 80.95376000599691 394.0268864359177 L 80.81532510892707 395.19651697560346 L 80.58554880596515 396.3516804578386 L 80.2658477444273 397.48525491562424 L 79.8581929876693 398.59025148547636 L 79.36509786282552 399.6598574960932 L 78.78960246531139 400.6874784707393 L 78.13525491562422 401.66677878438713 L 77.40608948400046 402.5917207249528 L 76.60660171779821 403.4566017177982 L 75.74172072495276 404.2560894840005 L 74.8167787843871 404.98525491562424 L 73.83747847073923 405.6396024653114 L 72.8098574960932 406.21509786282553 L 71.74025148547635 406.70819298766935 L 70.63525491562422 407.1158477444273 L 69.50168045783859 407.4355488059652 L 68.34651697560346 407.6653251089271 L 67.17688643591768 407.80376000599693 L 66 407.85 L 64.82311356408232 407.80376000599693 L 63.653483024396536 407.6653251089271 L 62.49831954216142 407.4355488059652 L 61.36474508437579 407.11584774442736 L 60.25974851452365 406.70819298766935 L 59.1901425039068 406.21509786282553 L 58.16252152926077 405.6396024653114 L 57.1832212156129 404.98525491562424 L 56.258279275047244 404.2560894840005 L 55.39339828220179 403.4566017177982 L 54.59391051599954 402.5917207249528 L 53.86474508437579 401.66677878438713 L 53.21039753468862 400.6874784707393 L 52.634902137174485 399.65985749609325 L 52.1418070123307 398.59025148547636 L 51.734152255572695 397.48525491562424 L 51.414451194034854 396.3516804578386 L 51.18467489107294 395.1965169756035 L 51.04623999400308 394.0268864359177 L 51 392.85 L 51.04623999400308 391.67311356408237 L 51.18467489107293 390.5034830243966 L 51.414451194034854 389.34831954216145 L 51.734152255572695 388.2147450843758 L 52.141807012330695 387.1097485145237 L 52.63490213717448 386.04014250390685 L 53.21039753468862 385.01252152926077 L 53.864745084375784 384.0332212156129 L 54.59391051599953 383.10827927504727 L 55.39339828220179 382.24339828220184 L 56.25827927504724 381.44391051599956 L 57.1832212156129 380.7147450843758 L 58.16252152926077 380.06039753468866 L 59.190142503906806 379.4849021371745 L 60.25974851452367 378.9918070123307 L 61.36474508437581 378.5841522555727 L 62.49831954216145 378.26445119403485 L 63.65348302439657 378.03467489107294 L 64.82311356408238 377.8962399940031 L 66.00000000000006 377.85 L 67.17688643591774 377.8962399940031 L 68.34651697560352 378.03467489107294 L 69.50168045783865 378.2644511940349 L 70.63525491562429 378.58415225557275 L 71.74025148547642 378.99180701233075 L 72.80985749609329 379.4849021371746 L 73.83747847073931 380.0603975346887 L 74.81677878438718 380.71474508437586 L 75.74172072495284 381.4439105159996 L 76.6066017177983 382.2433982822019 L 77.40608948400055 383.1082792750474 L 78.13525491562429 384.033221215613 L 78.78960246531145 385.0125215292609 L 79.36509786282558 386.04014250390696 L 79.85819298766936 387.1097485145238 L 80.26584774442735 388.214745084376 L 80.58554880596519 389.3483195421616 L 80.8153251089271 390.5034830243967 L 80.95376000599694 391.67311356408254 Z" fill-opacity="1" stroke-opacity="1" stroke-miterlimit="10" stroke-width="2"/><text fill="none" stroke="rgb(0,0,0)" font-family="Helvetica Neue, Helvetica, sans-serif" font-size="10px" font-style="normal" font-weight="normal" text-decoration="normal" x="66" y="377.85" text-anchor="middle" dominant-baseline="text-after-edge" stroke-opacity="1" stroke-linejoin="round" stroke-miterlimit="10" stroke-width="4">PR:N</text><text fill="rgb(255,255,255)" stroke="none" font-family="Helvetica Neue, Helvetica, sans-serif" font-size="10px" font-style="normal" font-weight="normal" text-decoration="normal" x="66" y="377.85" text-anchor="middle" dominant-baseline="text-after-edge" fill-opacity="1">PR:N</text><path fill="rgb(234,179,8)" stroke="rgb(0,0,0)" paint-order="fill stroke markers" d=" M 607 217 L 606.9460533403297 218.37303417523728 L 606.7845459604149 219.73760313820404 L 606.5164736069594 221.08529386747836 L 606.1434890351652 222.40779740156157 L 605.6678918189475 223.69696006638907 L 605.0926141732964 224.94483374544205 L 604.4212028761966 226.1437248825291 L 603.6577974015615 227.28624191511827 L 602.8071043980005 228.3653408457782 L 601.8743686707646 229.37436867076457 L 600.8653408457782 230.30710439800055 L 599.7862419151182 231.1577974015616 L 598.6437248825291 231.92120287619662 L 597.4448337454421 232.59261417329643 L 596.1969600663891 233.1678918189475 L 594.9077974015615 233.64348903516517 L 593.5852938674783 234.01647360695935 L 592.237603138204 234.2845459604149 L 590.8730341752373 234.44605334032974 L 589.5 234.5 L 588.1269658247627 234.44605334032974 L 586.762396861796 234.2845459604149 L 585.4147061325217 234.01647360695935 L 584.0922025984385 233.6434890351652 L 582.8030399336109 233.1678918189475 L 581.5551662545579 232.59261417329643 L 580.3562751174709 231.92120287619662 L 579.2137580848818 231.1577974015616 L 578.1346591542218 230.30710439800055 L 577.1256313292354 229.37436867076457 L 576.1928956019995 228.3653408457782 L 575.3422025984385 227.2862419151183 L 574.5787971238034 226.1437248825291 L 573.9073858267036 224.94483374544208 L 573.3321081810525 223.69696006638907 L 572.8565109648348 222.4077974015616 L 572.4835263930406 221.08529386747836 L 572.2154540395851 219.73760313820404 L 572.0539466596703 218.37303417523728 L 572 217 L 572.0539466596703 215.62696582476272 L 572.2154540395851 214.26239686179596 L 572.4835263930406 212.91470613252164 L 572.8565109648348 211.59220259843843 L 573.3321081810525 210.30303993361093 L 573.9073858267036 209.05516625455795 L 574.5787971238034 207.8562751174709 L 575.3422025984385 206.71375808488173 L 576.1928956019995 205.6346591542218 L 577.1256313292354 204.62563132923543 L 578.1346591542218 203.69289560199945 L 579.2137580848818 202.84220259843843 L 580.3562751174709 202.07879712380338 L 581.5551662545579 201.40738582670355 L 582.803039933611 200.8321081810525 L 584.0922025984385 200.3565109648348 L 585.4147061325217 199.98352639304065 L 586.762396861796 199.7154540395851 L 588.1269658247628 199.55394665967026 L 589.5000000000001 199.5 L 590.8730341752373 199.55394665967026 L 592.2376031382041 199.7154540395851 L 593.5852938674784 199.98352639304068 L 594.9077974015617 200.35651096483485 L 596.1969600663891 200.83210818105252 L 597.4448337454421 201.4073858267036 L 598.6437248825292 202.07879712380344 L 599.7862419151184 202.8422025984385 L 600.8653408457783 203.69289560199954 L 601.8743686707646 204.62563132923552 L 602.8071043980007 205.6346591542219 L 603.6577974015617 206.71375808488185 L 604.4212028761967 207.85627511747103 L 605.0926141732965 209.0551662545581 L 605.6678918189476 210.3030399336111 L 606.1434890351652 211.5922025984386 L 606.5164736069594 212.91470613252184 L 606.7845459604149 214.26239686179616 L 606.9460533403297 215.62696582476292 Z" fill-opacity="1" stroke-opacity="1" stroke-miterlimit="10" stroke-width="2"/><text fill="none" stroke="rgb(0,0,0)" font-family="Helvetica Neue, Helvetica, sans-serif" font-size="10px" font-style="normal" font-weight="normal" text-decoration="normal" x="589.5" y="199.5" text-anchor="middle" dominant-baseline="text-after-edge" stroke-opacity="1" stroke-linejoin="round" stroke-miterlimit="10" stroke-width="4">CVE-2025-68121</text><text fill="rgb(255,255,255)" stroke="none" font-family="Helvetica Neue, Helvetica, sans-serif" font-size="10px" font-style="normal" font-weight="normal" text-decoration="normal" x="589.5" y="199.5" text-anchor="middle" dominant-baseline="text-after-edge" fill-opacity="1">CVE-2025-68121</text><path fill="rgb(99,102,241)" stroke="rgb(0,0,0)" paint-order="fill stroke markers" d=" M 789 439.25 L 788.953760005997 440.42688643591765 L 788.815325108927 441.59651697560344 L 788.5855488059651 442.7516804578386 L 788.2658477444273 443.8852549156242 L 787.8581929876693 444.99025148547634 L 787.3650978628256 446.0598574960932 L 786.7896024653114 447.08747847073926 L 786.1352549156242 448.0667787843871 L 785.4060894840005 448.99172072495276 L 784.6066017177982 449.8566017177982 L 783.7417207249528 450.65608948400046 L 782.8167787843871 451.3852549156242 L 781.8374784707393 452.03960246531136 L 780.8098574960932 452.6150978628255 L 779.7402514854764 453.1081929876693 L 778.6352549156242 453.5158477444273 L 777.5016804578386 453.8355488059652 L 776.3465169756034 454.0653251089271 L 775.1768864359177 454.2037600059969 L 774 454.25 L 772.8231135640823 454.2037600059969 L 771.6534830243966 454.0653251089271 L 770.4983195421614 453.8355488059652 L 769.3647450843758 453.51584774442733 L 768.2597485145236 453.1081929876693 L 767.1901425039068 452.6150978628255 L 766.1625215292607 452.03960246531136 L 765.1832212156129 451.3852549156242 L 764.2582792750472 450.65608948400046 L 763.3933982822018 449.8566017177982 L 762.5939105159995 448.99172072495276 L 761.8647450843758 448.0667787843871 L 761.2103975346886 447.08747847073926 L 760.6349021371744 446.05985749609323 L 760.1418070123307 444.99025148547634 L 759.7341522555727 443.8852549156242 L 759.4144511940349 442.7516804578386 L 759.184674891073 441.5965169756035 L 759.046239994003 440.42688643591765 L 759 439.25 L 759.046239994003 438.07311356408235 L 759.184674891073 436.90348302439656 L 759.4144511940349 435.7483195421614 L 759.7341522555727 434.6147450843758 L 760.1418070123307 433.50974851452366 L 760.6349021371744 432.4401425039068 L 761.2103975346886 431.41252152926074 L 761.8647450843758 430.4332212156129 L 762.5939105159995 429.50827927504724 L 763.3933982822018 428.6433982822018 L 764.2582792750472 427.84391051599954 L 765.1832212156129 427.1147450843758 L 766.1625215292607 426.46039753468864 L 767.1901425039068 425.8849021371745 L 768.2597485145237 425.3918070123307 L 769.3647450843758 424.98415225557267 L 770.4983195421614 424.6644511940348 L 771.6534830243966 424.4346748910729 L 772.8231135640824 424.2962399940031 L 774 424.25 L 775.1768864359177 424.2962399940031 L 776.3465169756035 424.4346748910729 L 777.5016804578387 424.6644511940349 L 778.6352549156243 424.9841522555727 L 779.7402514854764 425.39180701233073 L 780.8098574960933 425.88490213717455 L 781.8374784707394 426.4603975346887 L 782.8167787843872 427.11474508437584 L 783.7417207249529 427.8439105159996 L 784.6066017177983 428.6433982822019 L 785.4060894840005 429.50827927504736 L 786.1352549156243 430.433221215613 L 786.7896024653114 431.41252152926086 L 787.3650978628256 432.44014250390694 L 787.8581929876693 433.5097485145238 L 788.2658477444273 434.61474508437595 L 788.5855488059652 435.7483195421616 L 788.8153251089271 436.9034830243967 L 788.953760005997 438.0731135640825 Z" fill-opacity="1" stroke-opacity="1" stroke-miterlimit="10" stroke-width="2"/><text fill="none" stroke="rgb(0,0,0)" font-family="Helvetica Neue, Helvetica, sans-serif" font-size="10px" font-style="normal" font-weight="normal" text-decoration="normal" x="774" y="424.25" text-anchor="middle" dominant-baseline="text-after-edge" stroke-opacity="1" stroke-linejoin="round" stroke-miterlimit="10" stroke-width="4">AV:L</text><text fill="rgb(255,255,255)" stroke="none" font-family="Helvetica Neue, Helvetica, sans-serif" font-size="10px" font-style="normal" font-weight="normal" text-decoration="normal" x="774" y="424.25" text-anchor="middle" dominant-baseline="text-after-edge" fill-opacity="1">AV:L</text><path fill="rgb(99,102,241)" stroke="rgb(0,0,0)" paint-order="fill stroke markers" d=" M 789 233 L 788.953760005997 234.17688643591768 L 788.815325108927 235.34651697560346 L 788.5855488059651 236.50168045783857 L 788.2658477444273 237.63525491562422 L 787.8581929876693 238.74025148547634 L 787.3650978628256 239.8098574960932 L 786.7896024653114 240.83747847073923 L 786.1352549156242 241.8167787843871 L 785.4060894840005 242.74172072495276 L 784.6066017177982 243.6066017177982 L 783.7417207249528 244.40608948400046 L 782.8167787843871 245.13525491562422 L 781.8374784707393 245.7896024653114 L 780.8098574960932 246.3650978628255 L 779.7402514854764 246.8581929876693 L 778.6352549156242 247.2658477444273 L 777.5016804578386 247.58554880596515 L 776.3465169756034 247.81532510892706 L 775.1768864359177 247.9537600059969 L 774 248 L 772.8231135640823 247.9537600059969 L 771.6534830243966 247.81532510892706 L 770.4983195421614 247.58554880596515 L 769.3647450843758 247.2658477444273 L 768.2597485145236 246.8581929876693 L 767.1901425039068 246.3650978628255 L 766.1625215292607 245.7896024653114 L 765.1832212156129 245.13525491562422 L 764.2582792750472 244.40608948400046 L 763.3933982822018 243.6066017177982 L 762.5939105159995 242.74172072495276 L 761.8647450843758 241.8167787843871 L 761.2103975346886 240.83747847073923 L 760.6349021371744 239.8098574960932 L 760.1418070123307 238.74025148547634 L 759.7341522555727 237.63525491562422 L 759.4144511940349 236.50168045783857 L 759.184674891073 235.34651697560346 L 759.046239994003 234.17688643591768 L 759 233 L 759.046239994003 231.82311356408232 L 759.184674891073 230.65348302439654 L 759.4144511940349 229.49831954216143 L 759.7341522555727 228.36474508437578 L 760.1418070123307 227.25974851452366 L 760.6349021371744 226.1901425039068 L 761.2103975346886 225.16252152926077 L 761.8647450843758 224.18322121561292 L 762.5939105159995 223.25827927504724 L 763.3933982822018 222.3933982822018 L 764.2582792750472 221.59391051599954 L 765.1832212156129 220.86474508437578 L 766.1625215292607 220.2103975346886 L 767.1901425039068 219.63490213717446 L 768.2597485145237 219.1418070123307 L 769.3647450843758 218.7341522555727 L 770.4983195421614 218.41445119403485 L 771.6534830243966 218.18467489107292 L 772.8231135640824 218.0462399940031 L 774 218 L 775.1768864359177 218.0462399940031 L 776.3465169756035 218.18467489107294 L 777.5016804578387 218.41445119403485 L 778.6352549156243 218.73415225557272 L 779.7402514854764 219.14180701233073 L 780.8098574960933 219.63490213717452 L 781.8374784707394 220.21039753468867 L 782.8167787843872 220.86474508437584 L 783.7417207249529 221.5939105159996 L 784.6066017177983 222.39339828220187 L 785.4060894840005 223.25827927504733 L 786.1352549156243 224.183221215613 L 786.7896024653114 225.16252152926089 L 787.3650978628256 226.1901425039069 L 787.8581929876693 227.25974851452378 L 788.2658477444273 228.36474508437593 L 788.5855488059652 229.49831954216157 L 788.8153251089271 230.6534830243967 L 788.953760005997 231.8231135640825 Z" fill-opacity="1" stroke-opacity="1" stroke-miterlimit="10" stroke-width="2"/><text fill="none" stroke="rgb(0,0,0)" font-family="Helvetica Neue, Helvetica, sans-serif" font-size="10px" font-style="normal" font-weight="normal" text-decoration="normal" x="774" y="218" text-anchor="middle" dominant-baseline="text-after-edge" stroke-opacity="1" stroke-linejoin="round" stroke-miterlimit="10" stroke-width="4">PR:H</text><text fill="rgb(255,255,255)" stroke="none" font-family="Helvetica Neue, Helvetica, sans-serif" font-size="10px" font-style="normal" font-weight="normal" text-decoration="normal" x="774" y="218" text-anchor="middle" dominant-baseline="text-after-edge" fill-opacity="1">PR:H</text><path fill="rgb(255,0,0)" stroke="rgb(255,215,0)" paint-order="fill stroke markers" d=" M 1054 298.75 L 1044.7343318831333 312.97991935488204 L 1029 317.84830056250524 L 1039.0078340584334 331.51125558861554 L 1038.5491502812527 348.75 L 1054 342.9642512380153 L 1069.4508497187473 348.75 L 1068.9921659415666 331.51125558861554 L 1079 317.84830056250524 L 1063.2656681168667 312.97991935488204 Z" fill-opacity="1" stroke-opacity="1" stroke-miterlimit="10" stroke-width="4"/><text fill="none" stroke="rgb(0,0,0)" font-family="Helvetica Neue, Helvetica, sans-serif" font-size="10px" font-style="normal" font-weight="bold" text-decoration="normal" x="1054" y="298.75" text-anchor="middle" dominant-baseline="text-after-edge" stroke-opacity="1" stroke-linejoin="round" stroke-miterlimit="10" stroke-width="4">EXPLOITED</text><text fill="rgb(255,255,255)" stroke="none" font-family="Helvetica Neue, Helvetica, sans-serif" font-size="10px" font-style="normal" font-weight="bold" text-decoration="normal" x="1054" y="298.75" text-anchor="middle" dominant-baseline="text-after-edge" fill-opacity="1">EXPLOITED</text><path fill="rgb(234,179,8)" stroke="rgb(0,0,0)" paint-order="fill stroke markers" d=" M 607 262 L 606.9460533403297 263.3730341752373 L 606.7845459604149 264.73760313820407 L 606.5164736069594 266.08529386747836 L 606.1434890351652 267.4077974015616 L 605.6678918189475 268.69696006638907 L 605.0926141732964 269.94483374544205 L 604.4212028761966 271.1437248825291 L 603.6577974015615 272.2862419151183 L 602.8071043980005 273.36534084577823 L 601.8743686707646 274.37436867076457 L 600.8653408457782 275.30710439800055 L 599.7862419151182 276.1577974015616 L 598.6437248825291 276.9212028761966 L 597.4448337454421 277.59261417329645 L 596.1969600663891 278.1678918189475 L 594.9077974015615 278.6434890351652 L 593.5852938674783 279.0164736069593 L 592.237603138204 279.2845459604149 L 590.8730341752373 279.44605334032974 L 589.5 279.5 L 588.1269658247627 279.44605334032974 L 586.762396861796 279.2845459604149 L 585.4147061325217 279.0164736069593 L 584.0922025984385 278.6434890351652 L 582.8030399336109 278.1678918189475 L 581.5551662545579 277.59261417329645 L 580.3562751174709 276.9212028761966 L 579.2137580848818 276.1577974015616 L 578.1346591542218 275.30710439800055 L 577.1256313292354 274.37436867076457 L 576.1928956019995 273.36534084577823 L 575.3422025984385 272.2862419151183 L 574.5787971238034 271.1437248825291 L 573.9073858267036 269.94483374544205 L 573.3321081810525 268.69696006638907 L 572.8565109648348 267.4077974015616 L 572.4835263930406 266.08529386747836 L 572.2154540395851 264.73760313820407 L 572.0539466596703 263.3730341752373 L 572 262 L 572.0539466596703 260.6269658247627 L 572.2154540395851 259.26239686179593 L 572.4835263930406 257.91470613252164 L 572.8565109648348 256.5922025984384 L 573.3321081810525 255.30303993361093 L 573.9073858267036 254.05516625455795 L 574.5787971238034 252.8562751174709 L 575.3422025984385 251.71375808488173 L 576.1928956019995 250.6346591542218 L 577.1256313292354 249.62563132923543 L 578.1346591542218 248.69289560199945 L 579.2137580848818 247.84220259843843 L 580.3562751174709 247.07879712380338 L 581.5551662545579 246.40738582670355 L 582.803039933611 245.8321081810525 L 584.0922025984385 245.3565109648348 L 585.4147061325217 244.98352639304065 L 586.762396861796 244.7154540395851 L 588.1269658247628 244.55394665967026 L 589.5000000000001 244.5 L 590.8730341752373 244.55394665967026 L 592.2376031382041 244.7154540395851 L 593.5852938674784 244.98352639304068 L 594.9077974015617 245.35651096483485 L 596.1969600663891 245.83210818105252 L 597.4448337454421 246.4073858267036 L 598.6437248825292 247.07879712380344 L 599.7862419151184 247.8422025984385 L 600.8653408457783 248.69289560199954 L 601.8743686707646 249.62563132923552 L 602.8071043980007 250.6346591542219 L 603.6577974015617 251.71375808488185 L 604.4212028761967 252.85627511747103 L 605.0926141732965 254.0551662545581 L 605.6678918189476 255.3030399336111 L 606.1434890351652 256.5922025984386 L 606.5164736069594 257.9147061325218 L 606.7845459604149 259.26239686179616 L 606.9460533403297 260.6269658247629 Z" fill-opacity="1" stroke-opacity="1" stroke-miterlimit="10" stroke-width="2"/><text fill="none" stroke="rgb(0,0,0)" font-family="Helvetica Neue, Helvetica, sans-serif" font-size="10px" font-style="normal" font-weight="normal" text-decoration="normal" x="589.5" y="244.5" text-anchor="middle" dominant-baseline="text-after-edge" stroke-opacity="1" stroke-linejoin="round" stroke-miterlimit="10" stroke-width="4">CVE-2026-32281</text><text fill="rgb(255,255,255)" stroke="none" font-family="Helvetica Neue, Helvetica, sans-serif" font-size="10px" font-style="normal" font-weight="normal" text-decoration="normal" x="589.5" y="244.5" text-anchor="middle" dominant-baseline="text-after-edge" fill-opacity="1">CVE-2026-32281</text><path fill="rgb(99,102,241)" stroke="rgb(255,0,102)" paint-order="fill stroke markers" d=" M 81 437.85 L 80.95376000599691 439.0268864359177 L 80.81532510892707 440.19651697560346 L 80.58554880596515 441.3516804578386 L 80.2658477444273 442.48525491562424 L 79.8581929876693 443.59025148547636 L 79.36509786282552 444.6598574960932 L 78.78960246531139 445.6874784707393 L 78.13525491562422 446.66677878438713 L 77.40608948400046 447.5917207249528 L 76.60660171779821 448.4566017177982 L 75.74172072495276 449.2560894840005 L 74.8167787843871 449.98525491562424 L 73.83747847073923 450.6396024653114 L 72.8098574960932 451.21509786282553 L 71.74025148547635 451.70819298766935 L 70.63525491562422 452.1158477444273 L 69.50168045783859 452.4355488059652 L 68.34651697560346 452.6653251089271 L 67.17688643591768 452.80376000599693 L 66 452.85 L 64.82311356408232 452.80376000599693 L 63.653483024396536 452.6653251089271 L 62.49831954216142 452.4355488059652 L 61.36474508437579 452.11584774442736 L 60.25974851452365 451.70819298766935 L 59.1901425039068 451.21509786282553 L 58.16252152926077 450.6396024653114 L 57.1832212156129 449.98525491562424 L 56.258279275047244 449.2560894840005 L 55.39339828220179 448.4566017177982 L 54.59391051599954 447.5917207249528 L 53.86474508437579 446.66677878438713 L 53.21039753468862 445.6874784707393 L 52.634902137174485 444.65985749609325 L 52.1418070123307 443.59025148547636 L 51.734152255572695 442.48525491562424 L 51.414451194034854 441.3516804578386 L 51.18467489107294 440.1965169756035 L 51.04623999400308 439.0268864359177 L 51 437.85 L 51.04623999400308 436.67311356408237 L 51.18467489107293 435.5034830243966 L 51.414451194034854 434.34831954216145 L 51.734152255572695 433.2147450843758 L 52.141807012330695 432.1097485145237 L 52.63490213717448 431.04014250390685 L 53.21039753468862 430.01252152926077 L 53.864745084375784 429.0332212156129 L 54.59391051599953 428.10827927504727 L 55.39339828220179 427.24339828220184 L 56.25827927504724 426.44391051599956 L 57.1832212156129 425.7147450843758 L 58.16252152926077 425.06039753468866 L 59.190142503906806 424.4849021371745 L 60.25974851452367 423.9918070123307 L 61.36474508437581 423.5841522555727 L 62.49831954216145 423.26445119403485 L 63.65348302439657 423.03467489107294 L 64.82311356408238 422.8962399940031 L 66.00000000000006 422.85 L 67.17688643591774 422.8962399940031 L 68.34651697560352 423.03467489107294 L 69.50168045783865 423.2644511940349 L 70.63525491562429 423.58415225557275 L 71.74025148547642 423.99180701233075 L 72.80985749609329 424.4849021371746 L 73.83747847073931 425.0603975346887 L 74.81677878438718 425.71474508437586 L 75.74172072495284 426.4439105159996 L 76.6066017177983 427.2433982822019 L 77.40608948400055 428.1082792750474 L 78.13525491562429 429.033221215613 L 78.78960246531145 430.0125215292609 L 79.36509786282558 431.04014250390696 L 79.85819298766936 432.1097485145238 L 80.26584774442735 433.214745084376 L 80.58554880596519 434.3483195421616 L 80.8153251089271 435.5034830243967 L 80.95376000599694 436.67311356408254 Z" fill-opacity="1" stroke-opacity="1" stroke-miterlimit="10" stroke-width="2"/><text fill="none" stroke="rgb(0,0,0)" font-family="Helvetica Neue, Helvetica, sans-serif" font-size="10px" font-style="normal" font-weight="normal" text-decoration="normal" x="66" y="422.85" text-anchor="middle" dominant-baseline="text-after-edge" stroke-opacity="1" stroke-linejoin="round" stroke-miterlimit="10" stroke-width="4">UI:N</text><text fill="rgb(255,255,255)" stroke="none" font-family="Helvetica Neue, Helvetica, sans-serif" font-size="10px" font-style="normal" font-weight="normal" text-decoration="normal" x="66" y="422.85" text-anchor="middle" dominant-baseline="text-after-edge" fill-opacity="1">UI:N</text><path fill="rgb(234,179,8)" stroke="rgb(255,102,102)" paint-order="fill stroke markers" d=" M 607 551 L 606.9460533403297 552.3730341752373 L 606.7845459604149 553.737603138204 L 606.5164736069594 555.0852938674783 L 606.1434890351652 556.4077974015615 L 605.6678918189475 557.6969600663891 L 605.0926141732964 558.9448337454421 L 604.4212028761966 560.1437248825291 L 603.6577974015615 561.2862419151182 L 602.8071043980005 562.3653408457782 L 601.8743686707646 563.3743686707646 L 600.8653408457782 564.3071043980005 L 599.7862419151182 565.1577974015615 L 598.6437248825291 565.9212028761966 L 597.4448337454421 566.5926141732964 L 596.1969600663891 567.1678918189475 L 594.9077974015615 567.6434890351652 L 593.5852938674783 568.0164736069594 L 592.237603138204 568.2845459604149 L 590.8730341752373 568.4460533403297 L 589.5 568.5 L 588.1269658247627 568.4460533403297 L 586.762396861796 568.2845459604149 L 585.4147061325217 568.0164736069594 L 584.0922025984385 567.6434890351652 L 582.8030399336109 567.1678918189475 L 581.5551662545579 566.5926141732964 L 580.3562751174709 565.9212028761966 L 579.2137580848818 565.1577974015615 L 578.1346591542218 564.3071043980005 L 577.1256313292354 563.3743686707646 L 576.1928956019995 562.3653408457782 L 575.3422025984385 561.2862419151182 L 574.5787971238034 560.1437248825291 L 573.9073858267036 558.9448337454421 L 573.3321081810525 557.6969600663891 L 572.8565109648348 556.4077974015615 L 572.4835263930406 555.0852938674783 L 572.2154540395851 553.737603138204 L 572.0539466596703 552.3730341752373 L 572 551 L 572.0539466596703 549.6269658247627 L 572.2154540395851 548.262396861796 L 572.4835263930406 546.9147061325217 L 572.8565109648348 545.5922025984385 L 573.3321081810525 544.3030399336109 L 573.9073858267036 543.0551662545579 L 574.5787971238034 541.8562751174709 L 575.3422025984385 540.7137580848818 L 576.1928956019995 539.6346591542218 L 577.1256313292354 538.6256313292354 L 578.1346591542218 537.6928956019995 L 579.2137580848818 536.8422025984385 L 580.3562751174709 536.0787971238034 L 581.5551662545579 535.4073858267036 L 582.803039933611 534.8321081810525 L 584.0922025984385 534.3565109648348 L 585.4147061325217 533.9835263930406 L 586.762396861796 533.7154540395851 L 588.1269658247628 533.5539466596703 L 589.5000000000001 533.5 L 590.8730341752373 533.5539466596703 L 592.2376031382041 533.7154540395851 L 593.5852938674784 533.9835263930406 L 594.9077974015617 534.3565109648348 L 596.1969600663891 534.8321081810525 L 597.4448337454421 535.4073858267036 L 598.6437248825292 536.0787971238035 L 599.7862419151184 536.8422025984385 L 600.8653408457783 537.6928956019996 L 601.8743686707646 538.6256313292355 L 602.8071043980007 539.6346591542219 L 603.6577974015617 540.7137580848819 L 604.4212028761967 541.856275117471 L 605.0926141732965 543.0551662545581 L 605.6678918189476 544.3030399336111 L 606.1434890351652 545.5922025984386 L 606.5164736069594 546.9147061325218 L 606.7845459604149 548.2623968617961 L 606.9460533403297 549.6269658247629 Z" fill-opacity="0.25" stroke-opacity="0.25" stroke-miterlimit="10" stroke-width="2" stroke-dasharray="4,2"/><text fill="none" stroke="rgb(0,0,0)" font-family="Helvetica Neue, Helvetica, sans-serif" font-size="10px" font-style="normal" font-weight="normal" text-decoration="normal" x="589.5" y="533.5" text-anchor="middle" dominant-baseline="text-after-edge" stroke-opacity="0.25" stroke-linejoin="round" stroke-miterlimit="10" stroke-width="4">CVE-2026-32289</text><text fill="rgb(255,255,255)" stroke="none" font-family="Helvetica Neue, Helvetica, sans-serif" font-size="10px" font-style="normal" font-weight="normal" text-decoration="normal" x="589.5" y="533.5" text-anchor="middle" dominant-baseline="text-after-edge" fill-opacity="0.25">CVE-2026-32289</text><path fill="rgb(234,179,8)" stroke="rgb(255,102,102)" paint-order="fill stroke markers" d=" M 926 439.25 L 925.9460533403297 440.6230341752373 L 925.7845459604149 441.98760313820407 L 925.5164736069594 443.33529386747836 L 925.1434890351652 444.6577974015616 L 924.6678918189475 445.94696006638907 L 924.0926141732964 447.19483374544205 L 923.4212028761966 448.3937248825291 L 922.6577974015615 449.5362419151183 L 921.8071043980005 450.61534084577823 L 920.8743686707646 451.62436867076457 L 919.8653408457782 452.55710439800055 L 918.7862419151182 453.4077974015616 L 917.6437248825291 454.1712028761966 L 916.4448337454421 454.84261417329645 L 915.1969600663891 455.4178918189475 L 913.9077974015615 455.8934890351652 L 912.5852938674783 456.2664736069593 L 911.237603138204 456.5345459604149 L 909.8730341752373 456.69605334032974 L 908.5 456.75 L 907.1269658247627 456.69605334032974 L 905.762396861796 456.5345459604149 L 904.4147061325217 456.2664736069593 L 903.0922025984385 455.8934890351652 L 901.8030399336109 455.4178918189475 L 900.5551662545579 454.84261417329645 L 899.3562751174709 454.1712028761966 L 898.2137580848818 453.4077974015616 L 897.1346591542218 452.55710439800055 L 896.1256313292354 451.62436867076457 L 895.1928956019995 450.61534084577823 L 894.3422025984385 449.5362419151183 L 893.5787971238034 448.3937248825291 L 892.9073858267036 447.19483374544205 L 892.3321081810525 445.94696006638907 L 891.8565109648348 444.6577974015616 L 891.4835263930406 443.33529386747836 L 891.2154540395851 441.98760313820407 L 891.0539466596703 440.6230341752373 L 891 439.25 L 891.0539466596703 437.8769658247627 L 891.2154540395851 436.51239686179593 L 891.4835263930406 435.16470613252164 L 891.8565109648348 433.8422025984384 L 892.3321081810525 432.55303993361093 L 892.9073858267036 431.30516625455795 L 893.5787971238034 430.1062751174709 L 894.3422025984385 428.9637580848817 L 895.1928956019995 427.88465915422177 L 896.1256313292354 426.87563132923543 L 897.1346591542218 425.94289560199945 L 898.2137580848818 425.0922025984384 L 899.3562751174709 424.3287971238034 L 900.5551662545579 423.65738582670355 L 901.803039933611 423.0821081810525 L 903.0922025984385 422.6065109648348 L 904.4147061325217 422.2335263930407 L 905.762396861796 421.9654540395851 L 907.1269658247628 421.80394665967026 L 908.5000000000001 421.75 L 909.8730341752373 421.80394665967026 L 911.2376031382041 421.9654540395851 L 912.5852938674784 422.2335263930407 L 913.9077974015617 422.60651096483485 L 915.1969600663891 423.0821081810525 L 916.4448337454421 423.6573858267036 L 917.6437248825292 424.32879712380344 L 918.7862419151184 425.0922025984385 L 919.8653408457783 425.94289560199957 L 920.8743686707646 426.8756313292355 L 921.8071043980007 427.8846591542219 L 922.6577974015617 428.9637580848818 L 923.4212028761967 430.10627511747106 L 924.0926141732965 431.30516625455806 L 924.6678918189476 432.5530399336111 L 925.1434890351652 433.8422025984386 L 925.5164736069594 435.1647061325218 L 925.7845459604149 436.51239686179616 L 925.9460533403297 437.8769658247629 Z" fill-opacity="0.25" stroke-opacity="0.25" stroke-miterlimit="10" stroke-width="2" stroke-dasharray="4,2"/><text fill="none" stroke="rgb(0,0,0)" font-family="Helvetica Neue, Helvetica, sans-serif" font-size="10px" font-style="normal" font-weight="normal" text-decoration="normal" x="908.5" y="421.75" text-anchor="middle" dominant-baseline="text-after-edge" stroke-opacity="0.25" stroke-linejoin="round" stroke-miterlimit="10" stroke-width="4">CVE-2026-32282</text><text fill="rgb(255,255,255)" stroke="none" font-family="Helvetica Neue, Helvetica, sans-serif" font-size="10px" font-style="normal" font-weight="normal" text-decoration="normal" x="908.5" y="421.75" text-anchor="middle" dominant-baseline="text-after-edge" fill-opacity="0.25">CVE-2026-32282</text><path fill="rgb(255,0,0)" stroke="rgb(255,215,0)" paint-order="fill stroke markers" d=" M 1054 431 L 1044.7343318831333 445.22991935488204 L 1029 450.09830056250524 L 1039.0078340584334 463.76125558861554 L 1038.5491502812527 481 L 1054 475.2142512380153 L 1069.4508497187473 481 L 1068.9921659415666 463.76125558861554 L 1079 450.09830056250524 L 1063.2656681168667 445.22991935488204 Z" fill-opacity="0.25" stroke-opacity="0.25" stroke-miterlimit="10" stroke-width="4" stroke-dasharray="4,2"/><text fill="none" stroke="rgb(0,0,0)" font-family="Helvetica Neue, Helvetica, sans-serif" font-size="10px" font-style="normal" font-weight="bold" text-decoration="normal" x="1054" y="431" text-anchor="middle" dominant-baseline="text-after-edge" stroke-opacity="0.25" stroke-linejoin="round" stroke-miterlimit="10" stroke-width="4">EXPLOITED</text><text fill="rgb(255,255,255)" stroke="none" font-family="Helvetica Neue, Helvetica, sans-serif" font-size="10px" font-style="normal" font-weight="bold" text-decoration="normal" x="1054" y="431" text-anchor="middle" dominant-baseline="text-after-edge" fill-opacity="0.25">EXPLOITED</text><path fill="rgb(0,255,136)" stroke="rgb(0,204,102)" paint-order="fill stroke markers" d=" M 1213 388.25 L 1243 358.25 L 1213 328.25 L 1183 358.25 Z" fill-opacity="1" stroke-opacity="1" stroke-miterlimit="10" stroke-width="4"/><text fill="none" stroke="rgb(0,0,0)" font-family="Helvetica Neue, Helvetica, sans-serif" font-size="14px" font-style="normal" font-weight="bold" text-decoration="normal" x="1213" y="328.25" text-anchor="middle" dominant-baseline="text-after-edge" stroke-opacity="1" stroke-linejoin="round" stroke-miterlimit="10" stroke-width="6">INSIDE NETWORK</text><text fill="rgb(255,255,255)" stroke="none" font-family="Helvetica Neue, Helvetica, sans-serif" font-size="14px" font-style="normal" font-weight="bold" text-decoration="normal" x="1213" y="328.25" text-anchor="middle" dominant-baseline="text-after-edge" fill-opacity="1">INSIDE NETWORK</text><g transform="scale(0.5,0.5) translate(64,319)"/></g></g></svg>