<svg version="1.1" xmlns="http://www.w3.org/2000/svg" xmlns:xlink="http://www.w3.org/1999/xlink" width="2298" height="988"><defs/><g><rect fill="#ffffff" stroke="none" x="0" y="0" width="2298" height="988"/><g transform="translate(-64,-172) scale(2,2)"><path fill="rgb(100,100,100)" stroke="rgb(136,136,136)" paint-order="fill stroke markers" d=" M 139.5 175.45 L 237 175.45 L 237 175.45 A 8 8 0 0 1 245 183.45 L 245 423.45 L 245 423.45 A 8 8 0 0 1 237 431.45 L 42 431.45 L 42 431.45 A 8 8 0 0 1 34 423.45 L 34 183.45 L 34 183.45 A 8 8 0 0 1 42 175.45 L 139.5 175.45 Z" fill-opacity="1" stroke-opacity="1" stroke-miterlimit="10" stroke-width="2" stroke-dasharray="4,2"/><text fill="none" stroke="rgb(0,0,0)" font-family="Helvetica Neue, Helvetica, sans-serif" font-size="12px" font-style="normal" font-weight="normal" text-decoration="normal" x="139.5" y="175.45" text-anchor="middle" dominant-baseline="text-after-edge" stroke-opacity="1" stroke-linejoin="round" stroke-miterlimit="10" stroke-width="4">Initial State</text><text fill="rgb(204,204,204)" stroke="none" font-family="Helvetica Neue, Helvetica, sans-serif" font-size="12px" font-style="normal" font-weight="normal" text-decoration="normal" x="139.5" y="175.45" text-anchor="middle" dominant-baseline="text-after-edge" fill-opacity="1">Initial State</text><path fill="none" stroke="rgb(203,143,255)" paint-order="fill stroke markers" d=" M 556.1025992818883 126.6611088146797 L 930.2276819448628 310.56457224672084" stroke-opacity="0.9" stroke-linejoin="round" stroke-miterlimit="10" stroke-width="3" stroke-dasharray="6,3"/><path fill="rgb(255,255,255)" stroke="none" paint-order="stroke fill markers" d=" M 925.885636463514 313.27734592653593 L 935.6123087389888 313.21141834877915 L 929.7235633114984 305.46963707505336 Z" fill-opacity="1"/><path fill="rgb(203,143,255)" stroke="none" paint-order="stroke fill markers" d=" M 925.885636463514 313.27734592653593 L 935.6123087389888 313.21141834877915 L 929.7235633114984 305.46963707505336 Z" fill-opacity="0.9"/><path fill="none" stroke="rgb(0,255,255)" paint-order="fill stroke markers" d=" M 681.2197592532109 220.77848298404544 L 798.3472135501721 452.42088330368614" stroke-opacity="0.7" stroke-linejoin="round" stroke-miterlimit="10" stroke-width="2"/><path fill="rgb(255,255,255)" stroke="none" paint-order="stroke fill markers" d=" M 792.344446708254 450.18945097408954 L 800.1521533634749 455.9905040496975 L 800.1083718308288 446.26370688015606 Z" fill-opacity="1"/><path fill="rgb(0,255,255)" stroke="none" paint-order="stroke fill markers" d=" M 792.344446708254 450.18945097408954 L 800.1521533634749 455.9905040496975 L 800.1083718308288 446.26370688015606 Z" fill-opacity="0.7"/><path fill="none" stroke="rgb(203,143,255)" paint-order="fill stroke markers" d=" M 546.0706747956019 135.79382065162127 L 666.1862245673924 451.93437544131524" stroke-opacity="0.9" stroke-linejoin="round" stroke-miterlimit="10" stroke-width="3" stroke-dasharray="6,3"/><path fill="rgb(255,255,255)" stroke="none" paint-order="stroke fill markers" d=" M 661.1608763629233 450.95540893328774 L 668.3172542308308 457.54318213913837 L 669.2936460747668 447.865415921302 Z" fill-opacity="1"/><path fill="rgb(203,143,255)" stroke="none" paint-order="stroke fill markers" d=" M 661.1608763629233 450.95540893328774 L 668.3172542308308 457.54318213913837 L 669.2936460747668 447.865415921302 Z" fill-opacity="0.9"/><path fill="none" stroke="rgb(203,143,255)" paint-order="fill stroke markers" d=" M 547.3730164401072 475.7588646701067 L 664.6374939631158 226.4083771490623" stroke-opacity="0.9" stroke-linejoin="round" stroke-miterlimit="10" stroke-width="3" stroke-dasharray="6,3"/><path fill="rgb(255,255,255)" stroke="none" paint-order="stroke fill markers" d=" M 667.4248882494264 230.7029007655584 L 667.1909047004478 220.97881974477258 L 659.5520300132063 227.00045519642694 Z" fill-opacity="1"/><path fill="rgb(203,143,255)" stroke="none" paint-order="stroke fill markers" d=" M 667.4248882494264 230.7029007655584 L 667.1909047004478 220.97881974477258 L 659.5520300132063 227.00045519642694 Z" fill-opacity="0.9"/><path fill="none" stroke="rgb(203,143,255)" paint-order="fill stroke markers" d=" M 554.9808956678622 128.62876445183548 L 655.5902862328126 194.45498281403349" stroke-opacity="0.9" stroke-linejoin="round" stroke-miterlimit="10" stroke-width="3" stroke-dasharray="6,3"/><path fill="rgb(255,255,255)" stroke="none" paint-order="stroke fill markers" d=" M 650.9492838723415 196.61683319972238 L 660.6111172602273 197.73998750111525 L 655.7125406686101 189.33662820997097 Z" fill-opacity="1"/><path fill="rgb(203,143,255)" stroke="none" paint-order="stroke fill markers" d=" M 650.9492838723415 196.61683319972238 L 660.6111172602273 197.73998750111525 L 655.7125406686101 189.33662820997097 Z" fill-opacity="0.9"/><path fill="none" stroke="rgb(0,255,255)" paint-order="fill stroke markers" d=" M 690 472.5 L 786 472.5" stroke-opacity="0.7" stroke-linejoin="round" stroke-miterlimit="10" stroke-width="2"/><path fill="rgb(255,255,255)" stroke="none" paint-order="stroke fill markers" d=" M 781.3 476.85 L 790 472.5 L 781.3 468.15 Z" fill-opacity="1"/><path fill="rgb(0,255,255)" stroke="none" paint-order="stroke fill markers" d=" M 781.3 476.85 L 790 472.5 L 781.3 468.15 Z" fill-opacity="0.7"/><path fill="none" stroke="rgb(0,255,136)" paint-order="fill stroke markers" d=" M 965.0748764504988 539.9487502887205 L 1094.3621982843483 408.01876307147484" stroke-opacity="0.25" stroke-linejoin="round" stroke-miterlimit="10" stroke-width="2"/><path fill="rgb(255,255,255)" stroke="none" paint-order="stroke fill markers" d=" M 1094.1794604277525 414.42025562210443 L 1097.1618677042802 405.16186770428016 L 1087.9657130041041 408.3309746337526 Z" fill-opacity="1"/><path fill="rgb(0,255,136)" stroke="none" paint-order="stroke fill markers" d=" M 1094.1794604277525 414.42025562210443 L 1097.1618677042802 405.16186770428016 L 1087.9657130041041 408.3309746337526 Z" fill-opacity="0.25"/><path fill="none" stroke="rgb(203,143,255)" paint-order="fill stroke markers" d=" M 824.7698273188369 481.3058343735973 L 931.4095172517227 539.0231923269633" stroke-opacity="0.9" stroke-linejoin="round" stroke-miterlimit="10" stroke-width="3" stroke-dasharray="6,3"/><path fill="rgb(255,255,255)" stroke="none" paint-order="stroke fill markers" d=" M 926.9644408578845 541.5636245447054 L 936.686218003778 541.8791386102922 L 931.1055629687113 533.9124084542253 Z" fill-opacity="1"/><path fill="rgb(203,143,255)" stroke="none" paint-order="stroke fill markers" d=" M 926.9644408578845 541.5636245447054 L 936.686218003778 541.8791386102922 L 931.1055629687113 533.9124084542253 Z" fill-opacity="0.9"/><path fill="none" stroke="rgb(203,143,255)" paint-order="fill stroke markers" d=" M 557.7988004509451 489.7789887805286 L 652.2392643286057 475.73579712585786" stroke-opacity="0.9" stroke-linejoin="round" stroke-miterlimit="10" stroke-width="3" stroke-dasharray="6,3"/><path fill="rgb(255,255,255)" stroke="none" paint-order="stroke fill markers" d=" M 650.2084339279111 480.435608599057 L 658.1740104208042 474.8533070006239 L 648.9288232463218 471.8302267653693 Z" fill-opacity="1"/><path fill="rgb(203,143,255)" stroke="none" paint-order="stroke fill markers" d=" M 650.2084339279111 480.435608599057 L 658.1740104208042 474.8533070006239 L 648.9288232463218 471.8302267653693 Z" fill-opacity="0.9"/><path fill="none" stroke="rgb(203,143,255)" paint-order="fill stroke markers" d=" M 554.3990996038223 294.53337649978886 L 656.2821518224816 219.54139010835922" stroke-opacity="0.9" stroke-linejoin="round" stroke-miterlimit="10" stroke-width="3" stroke-dasharray="6,3"/><path fill="rgb(255,255,255)" stroke="none" paint-order="stroke fill markers" d=" M 656.6863271357572 224.6452261476672 L 661.1142922345321 215.984647351534 L 651.5290501383606 217.63862255019401 Z" fill-opacity="1"/><path fill="rgb(203,143,255)" stroke="none" paint-order="stroke fill markers" d=" M 656.6863271357572 224.6452261476672 L 661.1142922345321 215.984647351534 L 651.5290501383606 217.63862255019401 Z" fill-opacity="0.9"/><path fill="none" stroke="rgb(203,143,255)" paint-order="fill stroke markers" d=" M 557.9849134204142 306.2469778040819 L 924.9924372016435 321.07780053830527" stroke-opacity="0.9" stroke-linejoin="round" stroke-miterlimit="10" stroke-width="3" stroke-dasharray="6,3"/><path fill="rgb(255,255,255)" stroke="none" paint-order="stroke fill markers" d=" M 922.1189982998666 325.31523477115826 L 930.987544256913 321.32006360989936 L 922.470279753678 316.6223295410175 Z" fill-opacity="1"/><path fill="rgb(203,143,255)" stroke="none" paint-order="stroke fill markers" d=" M 922.1189982998666 325.31523477115826 L 930.987544256913 321.32006360989936 L 922.470279753678 316.6223295410175 Z" fill-opacity="0.9"/><path fill="none" stroke="rgb(203,143,255)" paint-order="fill stroke markers" d=" M 551.1041429795068 319.9081180489043 L 660.2004786189649 455.3660217796813" stroke-opacity="0.9" stroke-linejoin="round" stroke-miterlimit="10" stroke-width="3" stroke-dasharray="6,3"/><path fill="rgb(255,255,255)" stroke="none" paint-order="stroke fill markers" d=" M 655.1190462104566 455.9917570893469 L 663.9639844501563 460.03892493067735 L 661.894755779401 450.5346736341194 Z" fill-opacity="1"/><path fill="rgb(203,143,255)" stroke="none" paint-order="stroke fill markers" d=" M 655.1190462104566 455.9917570893469 L 663.9639844501563 460.03892493067735 L 661.894755779401 450.5346736341194 Z" fill-opacity="0.9"/><path fill="none" stroke="rgb(0,255,136)" paint-order="fill stroke markers" d=" M 971.079343955961 329.4201019437761 L 1086.7736172000145 377.98986759811925" stroke-opacity="0.7" stroke-linejoin="round" stroke-miterlimit="10" stroke-width="2"/><path fill="rgb(255,255,255)" stroke="none" paint-order="stroke fill markers" d=" M 1080.756191446242 380.18146229099335 L 1090.4617940199337 379.53820598006644 L 1084.123827426977 372.1596777076692 Z" fill-opacity="1"/><path fill="rgb(0,255,136)" stroke="none" paint-order="stroke fill markers" d=" M 1080.756191446242 380.18146229099335 L 1090.4617940199337 379.53820598006644 L 1084.123827426977 372.1596777076692 Z" fill-opacity="0.7"/><path fill="none" stroke="rgb(255,0,102)" paint-order="fill stroke markers" d=" M 79.4447463715879 345.77597008284647 L 182.3918421738333 279.35848892010756" stroke-opacity="0.7" stroke-linejoin="round" stroke-miterlimit="10" stroke-width="2"/><path fill="rgb(255,255,255)" stroke="none" paint-order="stroke fill markers" d=" M 180.80069981090546 285.56177562804686 L 185.75302876673027 277.18998144081917 L 176.08419604345323 278.2511947884959 Z" fill-opacity="1"/><path fill="rgb(255,0,102)" stroke="none" paint-order="stroke fill markers" d=" M 180.80069981090546 285.56177562804686 L 185.75302876673027 277.18998144081917 L 176.08419604345323 278.2511947884959 Z" fill-opacity="0.7"/><path fill="none" stroke="rgb(255,0,102)" paint-order="fill stroke markers" d=" M 81.2273378841688 304.53795552123586 L 179.32801301158483 272.89257644787585" stroke-opacity="0.7" stroke-linejoin="round" stroke-miterlimit="10" stroke-width="2"/><path fill="rgb(255,255,255)" stroke="none" paint-order="stroke fill markers" d=" M 176.19044460077424 278.47542200077123 L 183.13484748262704 271.66456532818484 L 173.51952041544624 270.19555702625445 Z" fill-opacity="1"/><path fill="rgb(255,0,102)" stroke="none" paint-order="stroke fill markers" d=" M 176.19044460077424 278.47542200077123 L 183.13484748262704 271.66456532818484 L 173.51952041544624 270.19555702625445 Z" fill-opacity="0.7"/><path fill="none" stroke="rgb(255,102,0)" paint-order="fill stroke markers" d=" M 228.98565110114674 265.2710921721738 L 375.0152647860141 270.3764976891768" stroke-opacity="0.7" stroke-linejoin="round" stroke-miterlimit="10" stroke-width="2"/><path fill="rgb(255,255,255)" stroke="none" paint-order="stroke fill markers" d=" M 370.1661451637015 274.5596231819756 L 379.01282242025184 270.51625805890853 L 370.47012396786795 265.86493532750853 Z" fill-opacity="1"/><path fill="rgb(255,102,0)" stroke="none" paint-order="stroke fill markers" d=" M 370.1661451637015 274.5596231819756 L 379.01282242025184 270.51625805890853 L 370.47012396786795 265.86493532750853 Z" fill-opacity="0.7"/><path fill="none" stroke="rgb(255,0,102)" paint-order="fill stroke markers" d=" M 77.49763426826544 388.3232571597431 L 185.73844110141874 283.5740892566915" stroke-opacity="0.7" stroke-linejoin="round" stroke-miterlimit="10" stroke-width="2"/><path fill="rgb(255,255,255)" stroke="none" paint-order="stroke fill markers" d=" M 185.38609424481064 289.9684892827016 L 188.61284966848513 280.79240354662727 L 179.33592782542095 283.7166506493323 Z" fill-opacity="1"/><path fill="rgb(255,0,102)" stroke="none" paint-order="stroke fill markers" d=" M 185.38609424481064 289.9684892827016 L 188.61284966848513 280.79240354662727 L 179.33592782542095 283.7166506493323 Z" fill-opacity="0.7"/><path fill="none" stroke="rgb(203,143,255)" paint-order="fill stroke markers" d=" M 556.6127370926466 485.47118579005286 L 931.2833005313291 331.58056232699926" stroke-opacity="0.9" stroke-linejoin="round" stroke-miterlimit="10" stroke-width="3" stroke-dasharray="6,3"/><path fill="rgb(255,255,255)" stroke="none" paint-order="stroke fill markers" d=" M 930.4384871077142 336.63019501455983 L 936.8333774262416 329.300946907557 L 927.1330447495228 328.58258351693684 Z" fill-opacity="1"/><path fill="rgb(203,143,255)" stroke="none" paint-order="stroke fill markers" d=" M 930.4384871077142 336.63019501455983 L 936.8333774262416 329.300946907557 L 927.1330447495228 328.58258351693684 Z" fill-opacity="0.9"/><path fill="none" stroke="rgb(255,0,102)" paint-order="fill stroke markers" d=" M 81.2273378841688 224.36204447876412 L 179.32801301158483 256.0074235521241" stroke-opacity="0.7" stroke-linejoin="round" stroke-miterlimit="10" stroke-width="2"/><path fill="rgb(255,255,255)" stroke="none" paint-order="stroke fill markers" d=" M 173.51952041544624 258.70444297374553 L 183.13484748262704 257.23543467181514 L 176.19044460077424 250.42457799922875 Z" fill-opacity="1"/><path fill="rgb(255,0,102)" stroke="none" paint-order="stroke fill markers" d=" M 173.51952041544624 258.70444297374553 L 183.13484748262704 257.23543467181514 L 176.19044460077424 250.42457799922875 Z" fill-opacity="0.7"/><path fill="none" stroke="rgb(255,153,119)" paint-order="fill stroke markers" d=" M 414.1614618562487 255.7434530570467 L 522.9782945010433 136.5909714334455" stroke-opacity="0.9" stroke-linejoin="round" stroke-miterlimit="10" stroke-width="3" stroke-dasharray="6,3"/><path fill="rgb(255,255,255)" stroke="none" paint-order="stroke fill markers" d=" M 524.3696055577087 141.51811599633385 L 527.0244264599714 132.16052944974456 L 517.9454646813424 135.65122465588797 Z" fill-opacity="1"/><path fill="rgb(255,153,119)" stroke="none" paint-order="stroke fill markers" d=" M 524.3696055577087 141.51811599633385 L 527.0244264599714 132.16052944974456 L 517.9454646813424 135.65122465588797 Z" fill-opacity="0.9"/><path fill="none" stroke="rgb(255,153,119)" paint-order="fill stroke markers" d=" M 420.3943103763494 276.25720523577036 L 515.7066378942591 299.6582605582679" stroke-opacity="0.9" stroke-linejoin="round" stroke-miterlimit="10" stroke-width="3" stroke-dasharray="6,3"/><path fill="rgb(255,255,255)" stroke="none" paint-order="stroke fill markers" d=" M 512.0473054756045 303.2390127487698 L 521.5335837160732 301.0888906256309 L 514.1217190732808 294.7899413071393 Z" fill-opacity="1"/><path fill="rgb(255,153,119)" stroke="none" paint-order="stroke fill markers" d=" M 512.0473054756045 303.2390127487698 L 521.5335837160732 301.0888906256309 L 514.1217190732808 294.7899413071393 Z" fill-opacity="0.9"/><path fill="none" stroke="rgb(255,153,119)" paint-order="fill stroke markers" d=" M 411.20025612060283 289.0138470729991 L 526.4330345259634 471.7755117481677" stroke-opacity="0.9" stroke-linejoin="round" stroke-miterlimit="10" stroke-width="3" stroke-dasharray="6,3"/><path fill="rgb(255,255,255)" stroke="none" paint-order="stroke fill markers" d=" M 521.3133475596218 471.81164160662127 L 529.6331077032785 476.85089662616747 L 528.6726556327214 467.1715354995144 Z" fill-opacity="1"/><path fill="rgb(255,153,119)" stroke="none" paint-order="stroke fill markers" d=" M 521.3133475596218 471.81164160662127 L 529.6331077032785 476.85089662616747 L 528.6726556327214 467.1715354995144 Z" fill-opacity="0.9"/><path fill="none" stroke="rgb(255,153,119)" paint-order="fill stroke markers" d=" M 418.8379829526588 280.5306464362854 L 786.5223532218981 461.67257915766703" stroke-opacity="0.9" stroke-linejoin="round" stroke-miterlimit="10" stroke-width="3" stroke-dasharray="6,3"/><path fill="rgb(255,255,255)" stroke="none" paint-order="stroke fill markers" d=" M 782.1779072233256 464.3815067989097 L 791.9046340655149 464.32419242517716 L 786.0227464612153 456.5771995756653 Z" fill-opacity="1"/><path fill="rgb(255,153,119)" stroke="none" paint-order="stroke fill markers" d=" M 782.1779072233256 464.3815067989097 L 791.9046340655149 464.32419242517716 L 786.0227464612153 456.5771995756653 Z" fill-opacity="0.9"/><path fill="rgb(239,68,68)" stroke="rgb(0,0,0)" paint-order="fill stroke markers" d=" M 420 271.25 L 419.93834667466257 272.8191819145569 L 419.7537668119028 274.37868930080464 L 419.44739840795353 275.9189072771181 L 419.0211303259031 277.430339887499 L 418.47759065022575 278.9036686473018 L 417.82013048376734 280.32980999479093 L 417.0528032870818 281.69997129431897 L 416.180339887499 283.0057050458495 L 415.20811931200063 284.23896096660366 L 414.14213562373095 285.39213562373095 L 412.98896096660366 286.45811931200063 L 411.7557050458495 287.430339887499 L 410.44997129431897 288.3028032870818 L 409.07980999479093 289.07013048376734 L 407.6536686473018 289.72759065022575 L 406.180339887499 290.2711303259031 L 404.66890727711814 290.69739840795353 L 403.12868930080464 291.0037668119028 L 401.5691819145569 291.18834667466257 L 400 291.25 L 398.4308180854431 291.18834667466257 L 396.87131069919536 291.0037668119028 L 395.3310927228819 290.69739840795353 L 393.819660112501 290.2711303259031 L 392.3463313526982 289.72759065022575 L 390.92019000520907 289.07013048376734 L 389.55002870568103 288.3028032870819 L 388.2442949541505 287.430339887499 L 387.01103903339634 286.45811931200063 L 385.85786437626905 285.39213562373095 L 384.79188068799937 284.23896096660366 L 383.8196601125011 283.0057050458495 L 382.9471967129182 281.69997129431897 L 382.17986951623266 280.32980999479093 L 381.52240934977425 278.9036686473018 L 380.9788696740969 277.430339887499 L 380.55260159204647 275.91890727711814 L 380.2462331880972 274.37868930080464 L 380.06165332533743 272.8191819145569 L 380 271.25 L 380.06165332533743 269.6808180854431 L 380.2462331880972 268.12131069919536 L 380.55260159204647 266.5810927228819 L 380.9788696740969 265.0696601125011 L 381.52240934977425 263.5963313526982 L 382.17986951623266 262.17019000520907 L 382.9471967129181 260.80002870568103 L 383.819660112501 259.4942949541505 L 384.79188068799937 258.26103903339634 L 385.85786437626905 257.10786437626905 L 387.01103903339634 256.04188068799937 L 388.2442949541505 255.06966011250105 L 389.55002870568103 254.19719671291816 L 390.92019000520907 253.42986951623263 L 392.3463313526982 252.77240934977425 L 393.8196601125011 252.22886967409693 L 395.3310927228819 251.80260159204647 L 396.8713106991954 251.49623318809725 L 398.43081808544315 251.31165332533743 L 400.00000000000006 251.25 L 401.56918191455696 251.31165332533743 L 403.1286893008047 251.49623318809725 L 404.6689072771182 251.8026015920465 L 406.18033988749903 252.22886967409696 L 407.6536686473019 252.7724093497743 L 409.07980999479105 253.4298695162327 L 410.4499712943191 254.1971967129182 L 411.7557050458496 255.06966011250114 L 412.98896096660377 256.0418806879995 L 414.14213562373106 257.10786437626916 L 415.20811931200075 258.26103903339646 L 416.18033988749903 259.4942949541507 L 417.05280328708193 260.8000287056812 L 417.82013048376746 262.17019000520924 L 418.4775906502258 263.59633135269837 L 419.02113032590313 265.06966011250125 L 419.4473984079536 266.5810927228821 L 419.7537668119028 268.1213106991956 L 419.93834667466257 269.6808180854433 Z" fill-opacity="1" stroke-opacity="1" stroke-miterlimit="10" stroke-width="2"/><text fill="none" stroke="rgb(0,0,0)" font-family="Helvetica Neue, Helvetica, sans-serif" font-size="10px" font-style="normal" font-weight="normal" text-decoration="normal" x="400" y="251.25" text-anchor="middle" dominant-baseline="text-after-edge" stroke-opacity="1" stroke-linejoin="round" stroke-miterlimit="10" stroke-width="4">host_ubuntu_2f69a215</text><text fill="rgb(255,255,255)" stroke="none" font-family="Helvetica Neue, Helvetica, sans-serif" font-size="10px" font-style="normal" font-weight="normal" text-decoration="normal" x="400" y="251.25" text-anchor="middle" dominant-baseline="text-after-edge" fill-opacity="1">host_ubuntu_2f69a215</text><path fill="rgb(99,102,241)" stroke="rgb(255,0,102)" paint-order="fill stroke markers" d=" M 81 219.45 L 80.95376000599691 220.62688643591767 L 80.81532510892707 221.79651697560345 L 80.58554880596515 222.95168045783856 L 80.2658477444273 224.0852549156242 L 79.8581929876693 225.19025148547632 L 79.36509786282552 226.2598574960932 L 78.78960246531139 227.28747847073922 L 78.13525491562422 228.2667787843871 L 77.40608948400046 229.19172072495275 L 76.60660171779821 230.0566017177982 L 75.74172072495276 230.85608948400045 L 74.8167787843871 231.5852549156242 L 73.83747847073923 232.23960246531138 L 72.8098574960932 232.8150978628255 L 71.74025148547635 233.3081929876693 L 70.63525491562422 233.7158477444273 L 69.50168045783859 234.03554880596513 L 68.34651697560346 234.26532510892704 L 67.17688643591768 234.4037600059969 L 66 234.45 L 64.82311356408232 234.4037600059969 L 63.653483024396536 234.26532510892704 L 62.49831954216142 234.03554880596513 L 61.36474508437579 233.7158477444273 L 60.25974851452365 233.3081929876693 L 59.1901425039068 232.8150978628255 L 58.16252152926077 232.23960246531138 L 57.1832212156129 231.5852549156242 L 56.258279275047244 230.85608948400045 L 55.39339828220179 230.0566017177982 L 54.59391051599954 229.19172072495275 L 53.86474508437579 228.2667787843871 L 53.21039753468862 227.28747847073922 L 52.634902137174485 226.2598574960932 L 52.1418070123307 225.19025148547632 L 51.734152255572695 224.0852549156242 L 51.414451194034854 222.95168045783856 L 51.18467489107294 221.79651697560345 L 51.04623999400308 220.62688643591767 L 51 219.45 L 51.04623999400308 218.2731135640823 L 51.18467489107293 217.10348302439652 L 51.414451194034854 215.9483195421614 L 51.734152255572695 214.81474508437577 L 52.141807012330695 213.70974851452365 L 52.63490213717448 212.6401425039068 L 53.21039753468862 211.61252152926076 L 53.864745084375784 210.6332212156129 L 54.59391051599953 209.70827927504723 L 55.39339828220179 208.84339828220178 L 56.25827927504724 208.04391051599953 L 57.1832212156129 207.31474508437577 L 58.16252152926077 206.6603975346886 L 59.190142503906806 206.08490213717445 L 60.25974851452367 205.5918070123307 L 61.36474508437581 205.18415225557268 L 62.49831954216145 204.86445119403484 L 63.65348302439657 204.6346748910729 L 64.82311356408238 204.49623999400308 L 66.00000000000006 204.45 L 67.17688643591774 204.49623999400308 L 68.34651697560352 204.63467489107293 L 69.50168045783865 204.86445119403484 L 70.63525491562429 205.1841522555727 L 71.74025148547642 205.59180701233072 L 72.80985749609329 206.0849021371745 L 73.83747847073931 206.66039753468866 L 74.81677878438718 207.31474508437583 L 75.74172072495284 208.04391051599958 L 76.6066017177983 208.84339828220186 L 77.40608948400055 209.70827927504732 L 78.13525491562429 210.633221215613 L 78.78960246531145 211.61252152926087 L 79.36509786282558 212.6401425039069 L 79.85819298766936 213.70974851452377 L 80.26584774442735 214.81474508437591 L 80.58554880596519 215.94831954216156 L 80.8153251089271 217.1034830243967 L 80.95376000599694 218.27311356408248 Z" fill-opacity="1" stroke-opacity="1" stroke-miterlimit="10" stroke-width="2"/><text fill="none" stroke="rgb(0,0,0)" font-family="Helvetica Neue, Helvetica, sans-serif" font-size="10px" font-style="normal" font-weight="normal" text-decoration="normal" x="66" y="204.45" text-anchor="middle" dominant-baseline="text-after-edge" stroke-opacity="1" stroke-linejoin="round" stroke-miterlimit="10" stroke-width="4">AC:L</text><text fill="rgb(255,255,255)" stroke="none" font-family="Helvetica Neue, Helvetica, sans-serif" font-size="10px" font-style="normal" font-weight="normal" text-decoration="normal" x="66" y="204.45" text-anchor="middle" dominant-baseline="text-after-edge" fill-opacity="1">AC:L</text><path fill="rgb(255,0,102)" stroke="rgb(0,0,0)" paint-order="fill stroke markers" d=" M 228 264.45 L 227.93064000899537 266.2153296538765 L 227.7229876633906 267.9697754634052 L 227.37832320894773 269.70252068675785 L 226.89877161664094 271.4028823734363 L 226.28728948150396 273.0603772282145 L 225.5476467942383 274.6647862441398 L 224.68440369796707 276.2062177061088 L 223.70288237343632 277.67516817658066 L 222.6091342260007 279.0625810874291 L 221.40990257669733 280.3599025766973 L 220.11258108742913 281.5591342260007 L 218.72516817658064 282.6528823734363 L 217.25621770610886 283.63440369796706 L 215.71478624413982 284.4976467942383 L 214.11037722821453 285.2372894815039 L 212.45288237343632 285.84877161664093 L 210.75252068675786 286.3283232089477 L 209.01977546340518 286.6729876633906 L 207.2653296538765 286.8806400089954 L 205.5 286.95 L 203.7346703461235 286.8806400089954 L 201.98022453659482 286.6729876633906 L 200.24747931324214 286.3283232089477 L 198.54711762656368 285.84877161664093 L 196.88962277178547 285.2372894815039 L 195.2852137558602 284.4976467942383 L 193.74378229389114 283.63440369796706 L 192.27483182341936 282.6528823734363 L 190.88741891257087 281.5591342260007 L 189.5900974233027 280.3599025766973 L 188.3908657739993 279.0625810874291 L 187.29711762656368 277.67516817658066 L 186.31559630203293 276.2062177061088 L 185.4523532057617 274.6647862441398 L 184.71271051849604 273.0603772282145 L 184.10122838335906 271.4028823734363 L 183.62167679105227 269.70252068675785 L 183.2770123366094 267.9697754634052 L 183.06935999100463 266.2153296538765 L 183 264.45 L 183.06935999100463 262.6846703461235 L 183.2770123366094 260.9302245365948 L 183.62167679105227 259.1974793132421 L 184.10122838335906 257.4971176265637 L 184.71271051849604 255.83962277178546 L 185.4523532057617 254.2352137558602 L 186.31559630203293 252.69378229389113 L 187.29711762656368 251.22483182341935 L 188.3908657739993 249.83741891257085 L 189.59009742330267 248.54009742330268 L 190.88741891257087 247.3408657739993 L 192.27483182341936 246.24711762656366 L 193.74378229389114 245.26559630203292 L 195.2852137558602 244.4023532057617 L 196.8896227717855 243.66271051849603 L 198.5471176265637 243.05122838335902 L 200.24747931324217 242.57167679105225 L 201.98022453659485 242.2270123366094 L 203.73467034612355 242.0193599910046 L 205.50000000000009 241.95 L 207.2653296538766 242.01935999100462 L 209.0197754634053 242.2270123366094 L 210.75252068675798 242.57167679105228 L 212.45288237343644 243.05122838335907 L 214.11037722821465 243.66271051849608 L 215.71478624413993 244.40235320576178 L 217.25621770610897 245.26559630203298 L 218.72516817658078 246.24711762656375 L 220.11258108742925 247.3408657739994 L 221.40990257669745 248.5400974233028 L 222.6091342260008 249.837418912571 L 223.70288237343644 251.2248318234195 L 224.68440369796718 252.6937822938913 L 225.54764679423837 254.23521375586037 L 226.28728948150405 255.83962277178568 L 226.89877161664103 257.4971176265639 L 227.3783232089478 259.19747931324235 L 227.72298766339065 260.93022453659506 L 227.9306400089954 262.68467034612377 Z" fill-opacity="1" stroke-opacity="1" stroke-miterlimit="10" stroke-width="2"/><text fill="none" stroke="rgb(0,0,0)" font-family="Helvetica Neue, Helvetica, sans-serif" font-size="10px" font-style="normal" font-weight="normal" text-decoration="normal" x="205.5" y="241.95" text-anchor="middle" dominant-baseline="text-after-edge" stroke-opacity="1" stroke-linejoin="round" stroke-miterlimit="10" stroke-width="4">Hacker</text><text fill="rgb(255,255,255)" stroke="none" font-family="Helvetica Neue, Helvetica, sans-serif" font-size="10px" font-style="normal" font-weight="normal" text-decoration="normal" x="205.5" y="241.95" text-anchor="middle" dominant-baseline="text-after-edge" fill-opacity="1">Hacker</text><path fill="rgb(99,102,241)" stroke="rgb(255,0,102)" paint-order="fill stroke markers" d=" M 81 309.45 L 80.95376000599691 310.62688643591764 L 80.81532510892707 311.7965169756034 L 80.58554880596515 312.95168045783856 L 80.2658477444273 314.0852549156242 L 79.8581929876693 315.1902514854763 L 79.36509786282552 316.2598574960932 L 78.78960246531139 317.28747847073925 L 78.13525491562422 318.2667787843871 L 77.40608948400046 319.19172072495275 L 76.60660171779821 320.0566017177982 L 75.74172072495276 320.85608948400045 L 74.8167787843871 321.5852549156242 L 73.83747847073923 322.23960246531135 L 72.8098574960932 322.8150978628255 L 71.74025148547635 323.3081929876693 L 70.63525491562422 323.71584774442726 L 69.50168045783859 324.03554880596516 L 68.34651697560346 324.2653251089271 L 67.17688643591768 324.4037600059969 L 66 324.45 L 64.82311356408232 324.4037600059969 L 63.653483024396536 324.2653251089271 L 62.49831954216142 324.03554880596516 L 61.36474508437579 323.71584774442726 L 60.25974851452365 323.3081929876693 L 59.1901425039068 322.8150978628255 L 58.16252152926077 322.23960246531135 L 57.1832212156129 321.5852549156242 L 56.258279275047244 320.85608948400045 L 55.39339828220179 320.05660171779823 L 54.59391051599954 319.19172072495275 L 53.86474508437579 318.2667787843871 L 53.21039753468862 317.28747847073925 L 52.634902137174485 316.2598574960932 L 52.1418070123307 315.1902514854763 L 51.734152255572695 314.0852549156242 L 51.414451194034854 312.95168045783856 L 51.18467489107294 311.7965169756035 L 51.04623999400308 310.62688643591764 L 51 309.45 L 51.04623999400308 308.27311356408234 L 51.18467489107293 307.10348302439655 L 51.414451194034854 305.9483195421614 L 51.734152255572695 304.8147450843758 L 52.141807012330695 303.70974851452365 L 52.63490213717448 302.6401425039068 L 53.21039753468862 301.61252152926073 L 53.864745084375784 300.6332212156129 L 54.59391051599953 299.70827927504723 L 55.39339828220179 298.8433982822018 L 56.25827927504724 298.0439105159995 L 57.1832212156129 297.3147450843758 L 58.16252152926077 296.6603975346886 L 59.190142503906806 296.0849021371745 L 60.25974851452367 295.59180701233066 L 61.36474508437581 295.18415225557266 L 62.49831954216145 294.8644511940348 L 63.65348302439657 294.6346748910729 L 64.82311356408238 294.4962399940031 L 66.00000000000006 294.45 L 67.17688643591774 294.4962399940031 L 68.34651697560352 294.6346748910729 L 69.50168045783865 294.86445119403487 L 70.63525491562429 295.1841522555727 L 71.74025148547642 295.5918070123307 L 72.80985749609329 296.08490213717454 L 73.83747847073931 296.6603975346886 L 74.81677878438718 297.31474508437583 L 75.74172072495284 298.0439105159996 L 76.6066017177983 298.84339828220186 L 77.40608948400055 299.70827927504735 L 78.13525491562429 300.633221215613 L 78.78960246531145 301.61252152926085 L 79.36509786282558 302.64014250390693 L 79.85819298766936 303.70974851452377 L 80.26584774442735 304.81474508437594 L 80.58554880596519 305.9483195421616 L 80.8153251089271 307.10348302439667 L 80.95376000599694 308.2731135640825 Z" fill-opacity="1" stroke-opacity="1" stroke-miterlimit="10" stroke-width="2"/><text fill="none" stroke="rgb(0,0,0)" font-family="Helvetica Neue, Helvetica, sans-serif" font-size="10px" font-style="normal" font-weight="normal" text-decoration="normal" x="66" y="294.45" text-anchor="middle" dominant-baseline="text-after-edge" stroke-opacity="1" stroke-linejoin="round" stroke-miterlimit="10" stroke-width="4">AV:N</text><text fill="rgb(255,255,255)" stroke="none" font-family="Helvetica Neue, Helvetica, sans-serif" font-size="10px" font-style="normal" font-weight="normal" text-decoration="normal" x="66" y="294.45" text-anchor="middle" dominant-baseline="text-after-edge" fill-opacity="1">AV:N</text><path fill="rgb(99,102,241)" stroke="rgb(255,0,102)" paint-order="fill stroke markers" d=" M 81 354.45 L 80.95376000599691 355.62688643591764 L 80.81532510892707 356.7965169756034 L 80.58554880596515 357.95168045783856 L 80.2658477444273 359.0852549156242 L 79.8581929876693 360.1902514854763 L 79.36509786282552 361.2598574960932 L 78.78960246531139 362.28747847073925 L 78.13525491562422 363.2667787843871 L 77.40608948400046 364.19172072495275 L 76.60660171779821 365.0566017177982 L 75.74172072495276 365.85608948400045 L 74.8167787843871 366.5852549156242 L 73.83747847073923 367.23960246531135 L 72.8098574960932 367.8150978628255 L 71.74025148547635 368.3081929876693 L 70.63525491562422 368.71584774442726 L 69.50168045783859 369.03554880596516 L 68.34651697560346 369.2653251089271 L 67.17688643591768 369.4037600059969 L 66 369.45 L 64.82311356408232 369.4037600059969 L 63.653483024396536 369.2653251089271 L 62.49831954216142 369.03554880596516 L 61.36474508437579 368.71584774442726 L 60.25974851452365 368.3081929876693 L 59.1901425039068 367.8150978628255 L 58.16252152926077 367.23960246531135 L 57.1832212156129 366.5852549156242 L 56.258279275047244 365.85608948400045 L 55.39339828220179 365.05660171779823 L 54.59391051599954 364.19172072495275 L 53.86474508437579 363.2667787843871 L 53.21039753468862 362.28747847073925 L 52.634902137174485 361.2598574960932 L 52.1418070123307 360.1902514854763 L 51.734152255572695 359.0852549156242 L 51.414451194034854 357.95168045783856 L 51.18467489107294 356.7965169756035 L 51.04623999400308 355.62688643591764 L 51 354.45 L 51.04623999400308 353.27311356408234 L 51.18467489107293 352.10348302439655 L 51.414451194034854 350.9483195421614 L 51.734152255572695 349.8147450843758 L 52.141807012330695 348.70974851452365 L 52.63490213717448 347.6401425039068 L 53.21039753468862 346.61252152926073 L 53.864745084375784 345.6332212156129 L 54.59391051599953 344.70827927504723 L 55.39339828220179 343.8433982822018 L 56.25827927504724 343.0439105159995 L 57.1832212156129 342.3147450843758 L 58.16252152926077 341.6603975346886 L 59.190142503906806 341.0849021371745 L 60.25974851452367 340.59180701233066 L 61.36474508437581 340.18415225557266 L 62.49831954216145 339.8644511940348 L 63.65348302439657 339.6346748910729 L 64.82311356408238 339.4962399940031 L 66.00000000000006 339.45 L 67.17688643591774 339.4962399940031 L 68.34651697560352 339.6346748910729 L 69.50168045783865 339.86445119403487 L 70.63525491562429 340.1841522555727 L 71.74025148547642 340.5918070123307 L 72.80985749609329 341.08490213717454 L 73.83747847073931 341.6603975346886 L 74.81677878438718 342.31474508437583 L 75.74172072495284 343.0439105159996 L 76.6066017177983 343.84339828220186 L 77.40608948400055 344.70827927504735 L 78.13525491562429 345.633221215613 L 78.78960246531145 346.61252152926085 L 79.36509786282558 347.64014250390693 L 79.85819298766936 348.70974851452377 L 80.26584774442735 349.81474508437594 L 80.58554880596519 350.9483195421616 L 80.8153251089271 352.10348302439667 L 80.95376000599694 353.2731135640825 Z" fill-opacity="1" stroke-opacity="1" stroke-miterlimit="10" stroke-width="2"/><text fill="none" stroke="rgb(0,0,0)" font-family="Helvetica Neue, Helvetica, sans-serif" font-size="10px" font-style="normal" font-weight="normal" text-decoration="normal" x="66" y="339.45" text-anchor="middle" dominant-baseline="text-after-edge" stroke-opacity="1" stroke-linejoin="round" stroke-miterlimit="10" stroke-width="4">PR:N</text><text fill="rgb(255,255,255)" stroke="none" font-family="Helvetica Neue, Helvetica, sans-serif" font-size="10px" font-style="normal" font-weight="normal" text-decoration="normal" x="66" y="339.45" text-anchor="middle" dominant-baseline="text-after-edge" fill-opacity="1">PR:N</text><path fill="rgb(234,179,8)" stroke="rgb(0,0,0)" paint-order="fill stroke markers" d=" M 557 118.5 L 556.9460533403297 119.87303417523728 L 556.7845459604149 121.23760313820404 L 556.5164736069594 122.58529386747834 L 556.1434890351652 123.90779740156158 L 555.6678918189475 125.19696006638907 L 555.0926141732964 126.44483374544207 L 554.4212028761966 127.6437248825291 L 553.6577974015615 128.78624191511827 L 552.8071043980005 129.8653408457782 L 551.8743686707646 130.87436867076457 L 550.8653408457782 131.80710439800055 L 549.7862419151182 132.6577974015616 L 548.6437248825291 133.42120287619662 L 547.4448337454421 134.09261417329643 L 546.1969600663891 134.6678918189475 L 544.9077974015615 135.14348903516517 L 543.5852938674783 135.51647360695935 L 542.237603138204 135.7845459604149 L 540.8730341752373 135.94605334032974 L 539.5 136 L 538.1269658247627 135.94605334032974 L 536.762396861796 135.7845459604149 L 535.4147061325217 135.51647360695935 L 534.0922025984385 135.1434890351652 L 532.8030399336109 134.6678918189475 L 531.5551662545579 134.09261417329643 L 530.3562751174709 133.42120287619662 L 529.2137580848818 132.6577974015616 L 528.1346591542218 131.80710439800055 L 527.1256313292354 130.87436867076457 L 526.1928956019995 129.8653408457782 L 525.3422025984385 128.7862419151183 L 524.5787971238034 127.64372488252911 L 523.9073858267036 126.44483374544207 L 523.3321081810525 125.19696006638907 L 522.8565109648348 123.90779740156158 L 522.4835263930406 122.58529386747834 L 522.2154540395851 121.23760313820404 L 522.0539466596703 119.8730341752373 L 522 118.5 L 522.0539466596703 117.12696582476272 L 522.2154540395851 115.76239686179596 L 522.4835263930406 114.41470613252166 L 522.8565109648348 113.09220259843842 L 523.3321081810525 111.80303993361093 L 523.9073858267036 110.55516625455793 L 524.5787971238034 109.3562751174709 L 525.3422025984385 108.21375808488172 L 526.1928956019995 107.1346591542218 L 527.1256313292354 106.12563132923542 L 528.1346591542218 105.19289560199947 L 529.2137580848818 104.34220259843842 L 530.3562751174709 103.57879712380338 L 531.5551662545579 102.90738582670356 L 532.803039933611 102.33210818105248 L 534.0922025984385 101.8565109648348 L 535.4147061325217 101.48352639304065 L 536.762396861796 101.21545403958508 L 538.1269658247628 101.05394665967026 L 539.5000000000001 101 L 540.8730341752373 101.05394665967026 L 542.2376031382041 101.2154540395851 L 543.5852938674784 101.48352639304068 L 544.9077974015617 101.85651096483484 L 546.1969600663891 102.33210818105252 L 547.4448337454421 102.9073858267036 L 548.6437248825292 103.57879712380344 L 549.7862419151184 104.34220259843849 L 550.8653408457783 105.19289560199954 L 551.8743686707646 106.12563132923552 L 552.8071043980007 107.1346591542219 L 553.6577974015617 108.21375808488185 L 554.4212028761967 109.35627511747103 L 555.0926141732965 110.55516625455807 L 555.6678918189476 111.80303993361109 L 556.1434890351652 113.09220259843859 L 556.5164736069594 114.41470613252184 L 556.7845459604149 115.76239686179616 L 556.9460533403297 117.12696582476292 Z" fill-opacity="1" stroke-opacity="1" stroke-miterlimit="10" stroke-width="2"/><text fill="none" stroke="rgb(0,0,0)" font-family="Helvetica Neue, Helvetica, sans-serif" font-size="10px" font-style="normal" font-weight="normal" text-decoration="normal" x="539.5" y="101" text-anchor="middle" dominant-baseline="text-after-edge" stroke-opacity="1" stroke-linejoin="round" stroke-miterlimit="10" stroke-width="4">CVE-2025-68121</text><text fill="rgb(255,255,255)" stroke="none" font-family="Helvetica Neue, Helvetica, sans-serif" font-size="10px" font-style="normal" font-weight="normal" text-decoration="normal" x="539.5" y="101" text-anchor="middle" dominant-baseline="text-after-edge" fill-opacity="1">CVE-2025-68121</text><path fill="rgb(99,102,241)" stroke="rgb(0,0,0)" paint-order="fill stroke markers" d=" M 689 472.5 L 688.953760005997 473.67688643591765 L 688.815325108927 474.84651697560344 L 688.5855488059651 476.0016804578386 L 688.2658477444273 477.1352549156242 L 687.8581929876693 478.24025148547634 L 687.3650978628256 479.3098574960932 L 686.7896024653114 480.33747847073926 L 686.1352549156242 481.3167787843871 L 685.4060894840005 482.24172072495276 L 684.6066017177982 483.1066017177982 L 683.7417207249528 483.90608948400046 L 682.8167787843871 484.6352549156242 L 681.8374784707393 485.28960246531136 L 680.8098574960932 485.8650978628255 L 679.7402514854764 486.3581929876693 L 678.6352549156242 486.7658477444273 L 677.5016804578386 487.0855488059652 L 676.3465169756034 487.3153251089271 L 675.1768864359177 487.4537600059969 L 674 487.5 L 672.8231135640823 487.4537600059969 L 671.6534830243966 487.3153251089271 L 670.4983195421614 487.0855488059652 L 669.3647450843758 486.76584774442733 L 668.2597485145236 486.3581929876693 L 667.1901425039068 485.8650978628255 L 666.1625215292607 485.28960246531136 L 665.1832212156129 484.6352549156242 L 664.2582792750472 483.90608948400046 L 663.3933982822018 483.1066017177982 L 662.5939105159995 482.24172072495276 L 661.8647450843758 481.3167787843871 L 661.2103975346886 480.33747847073926 L 660.6349021371744 479.30985749609323 L 660.1418070123307 478.24025148547634 L 659.7341522555727 477.1352549156242 L 659.4144511940349 476.0016804578386 L 659.184674891073 474.8465169756035 L 659.046239994003 473.67688643591765 L 659 472.5 L 659.046239994003 471.32311356408235 L 659.184674891073 470.15348302439656 L 659.4144511940349 468.9983195421614 L 659.7341522555727 467.8647450843758 L 660.1418070123307 466.75974851452366 L 660.6349021371744 465.6901425039068 L 661.2103975346886 464.66252152926074 L 661.8647450843758 463.6832212156129 L 662.5939105159995 462.75827927504724 L 663.3933982822018 461.8933982822018 L 664.2582792750472 461.09391051599954 L 665.1832212156129 460.3647450843758 L 666.1625215292607 459.71039753468864 L 667.1901425039068 459.1349021371745 L 668.2597485145237 458.6418070123307 L 669.3647450843758 458.23415225557267 L 670.4983195421614 457.9144511940348 L 671.6534830243966 457.6846748910729 L 672.8231135640824 457.5462399940031 L 674 457.5 L 675.1768864359177 457.5462399940031 L 676.3465169756035 457.6846748910729 L 677.5016804578387 457.9144511940349 L 678.6352549156243 458.2341522555727 L 679.7402514854764 458.64180701233073 L 680.8098574960933 459.13490213717455 L 681.8374784707394 459.7103975346887 L 682.8167787843872 460.36474508437584 L 683.7417207249529 461.0939105159996 L 684.6066017177983 461.8933982822019 L 685.4060894840005 462.75827927504736 L 686.1352549156243 463.683221215613 L 686.7896024653114 464.66252152926086 L 687.3650978628256 465.69014250390694 L 687.8581929876693 466.7597485145238 L 688.2658477444273 467.86474508437595 L 688.5855488059652 468.9983195421616 L 688.8153251089271 470.1534830243967 L 688.953760005997 471.3231135640825 Z" fill-opacity="1" stroke-opacity="1" stroke-miterlimit="10" stroke-width="2"/><text fill="none" stroke="rgb(0,0,0)" font-family="Helvetica Neue, Helvetica, sans-serif" font-size="10px" font-style="normal" font-weight="normal" text-decoration="normal" x="674" y="457.5" text-anchor="middle" dominant-baseline="text-after-edge" stroke-opacity="1" stroke-linejoin="round" stroke-miterlimit="10" stroke-width="4">AV:L</text><text fill="rgb(255,255,255)" stroke="none" font-family="Helvetica Neue, Helvetica, sans-serif" font-size="10px" font-style="normal" font-weight="normal" text-decoration="normal" x="674" y="457.5" text-anchor="middle" dominant-baseline="text-after-edge" fill-opacity="1">AV:L</text><path fill="rgb(99,102,241)" stroke="rgb(0,0,0)" paint-order="fill stroke markers" d=" M 689 206.5 L 688.953760005997 207.67688643591768 L 688.815325108927 208.84651697560346 L 688.5855488059651 210.00168045783857 L 688.2658477444273 211.13525491562422 L 687.8581929876693 212.24025148547634 L 687.3650978628256 213.3098574960932 L 686.7896024653114 214.33747847073923 L 686.1352549156242 215.3167787843871 L 685.4060894840005 216.24172072495276 L 684.6066017177982 217.1066017177982 L 683.7417207249528 217.90608948400046 L 682.8167787843871 218.63525491562422 L 681.8374784707393 219.2896024653114 L 680.8098574960932 219.8650978628255 L 679.7402514854764 220.3581929876693 L 678.6352549156242 220.7658477444273 L 677.5016804578386 221.08554880596515 L 676.3465169756034 221.31532510892706 L 675.1768864359177 221.4537600059969 L 674 221.5 L 672.8231135640823 221.4537600059969 L 671.6534830243966 221.31532510892706 L 670.4983195421614 221.08554880596515 L 669.3647450843758 220.7658477444273 L 668.2597485145236 220.3581929876693 L 667.1901425039068 219.8650978628255 L 666.1625215292607 219.2896024653114 L 665.1832212156129 218.63525491562422 L 664.2582792750472 217.90608948400046 L 663.3933982822018 217.1066017177982 L 662.5939105159995 216.24172072495276 L 661.8647450843758 215.3167787843871 L 661.2103975346886 214.33747847073923 L 660.6349021371744 213.3098574960932 L 660.1418070123307 212.24025148547634 L 659.7341522555727 211.13525491562422 L 659.4144511940349 210.00168045783857 L 659.184674891073 208.84651697560346 L 659.046239994003 207.67688643591768 L 659 206.5 L 659.046239994003 205.32311356408232 L 659.184674891073 204.15348302439654 L 659.4144511940349 202.99831954216143 L 659.7341522555727 201.86474508437578 L 660.1418070123307 200.75974851452366 L 660.6349021371744 199.6901425039068 L 661.2103975346886 198.66252152926077 L 661.8647450843758 197.68322121561292 L 662.5939105159995 196.75827927504724 L 663.3933982822018 195.8933982822018 L 664.2582792750472 195.09391051599954 L 665.1832212156129 194.36474508437578 L 666.1625215292607 193.7103975346886 L 667.1901425039068 193.13490213717446 L 668.2597485145237 192.6418070123307 L 669.3647450843758 192.2341522555727 L 670.4983195421614 191.91445119403485 L 671.6534830243966 191.68467489107292 L 672.8231135640824 191.5462399940031 L 674 191.5 L 675.1768864359177 191.5462399940031 L 676.3465169756035 191.68467489107294 L 677.5016804578387 191.91445119403485 L 678.6352549156243 192.23415225557272 L 679.7402514854764 192.64180701233073 L 680.8098574960933 193.13490213717452 L 681.8374784707394 193.71039753468867 L 682.8167787843872 194.36474508437584 L 683.7417207249529 195.0939105159996 L 684.6066017177983 195.89339828220187 L 685.4060894840005 196.75827927504733 L 686.1352549156243 197.683221215613 L 686.7896024653114 198.66252152926089 L 687.3650978628256 199.6901425039069 L 687.8581929876693 200.75974851452378 L 688.2658477444273 201.86474508437593 L 688.5855488059652 202.99831954216157 L 688.8153251089271 204.1534830243967 L 688.953760005997 205.3231135640825 Z" fill-opacity="1" stroke-opacity="1" stroke-miterlimit="10" stroke-width="2"/><text fill="none" stroke="rgb(0,0,0)" font-family="Helvetica Neue, Helvetica, sans-serif" font-size="10px" font-style="normal" font-weight="normal" text-decoration="normal" x="674" y="191.5" text-anchor="middle" dominant-baseline="text-after-edge" stroke-opacity="1" stroke-linejoin="round" stroke-miterlimit="10" stroke-width="4">PR:H</text><text fill="rgb(255,255,255)" stroke="none" font-family="Helvetica Neue, Helvetica, sans-serif" font-size="10px" font-style="normal" font-weight="normal" text-decoration="normal" x="674" y="191.5" text-anchor="middle" dominant-baseline="text-after-edge" fill-opacity="1">PR:H</text><path fill="rgb(255,0,0)" stroke="rgb(255,215,0)" paint-order="fill stroke markers" d=" M 954 297.25 L 944.7343318831332 311.47991935488204 L 929 316.34830056250524 L 939.0078340584333 330.01125558861554 L 938.5491502812527 347.25 L 954 341.4642512380153 L 969.4508497187473 347.25 L 968.9921659415667 330.01125558861554 L 979 316.34830056250524 L 963.2656681168668 311.47991935488204 Z" fill-opacity="1" stroke-opacity="1" stroke-miterlimit="10" stroke-width="4"/><text fill="none" stroke="rgb(0,0,0)" font-family="Helvetica Neue, Helvetica, sans-serif" font-size="10px" font-style="normal" font-weight="bold" text-decoration="normal" x="954" y="297.25" text-anchor="middle" dominant-baseline="text-after-edge" stroke-opacity="1" stroke-linejoin="round" stroke-miterlimit="10" stroke-width="4">EXPLOITED</text><text fill="rgb(255,255,255)" stroke="none" font-family="Helvetica Neue, Helvetica, sans-serif" font-size="10px" font-style="normal" font-weight="bold" text-decoration="normal" x="954" y="297.25" text-anchor="middle" dominant-baseline="text-after-edge" fill-opacity="1">EXPLOITED</text><path fill="rgb(234,179,8)" stroke="rgb(0,0,0)" paint-order="fill stroke markers" d=" M 557 305.5 L 556.9460533403297 306.8730341752373 L 556.7845459604149 308.23760313820407 L 556.5164736069594 309.58529386747836 L 556.1434890351652 310.9077974015616 L 555.6678918189475 312.19696006638907 L 555.0926141732964 313.44483374544205 L 554.4212028761966 314.6437248825291 L 553.6577974015615 315.7862419151183 L 552.8071043980005 316.86534084577823 L 551.8743686707646 317.87436867076457 L 550.8653408457782 318.80710439800055 L 549.7862419151182 319.6577974015616 L 548.6437248825291 320.4212028761966 L 547.4448337454421 321.09261417329645 L 546.1969600663891 321.6678918189475 L 544.9077974015615 322.1434890351652 L 543.5852938674783 322.5164736069593 L 542.237603138204 322.7845459604149 L 540.8730341752373 322.94605334032974 L 539.5 323 L 538.1269658247627 322.94605334032974 L 536.762396861796 322.7845459604149 L 535.4147061325217 322.5164736069593 L 534.0922025984385 322.1434890351652 L 532.8030399336109 321.6678918189475 L 531.5551662545579 321.09261417329645 L 530.3562751174709 320.4212028761966 L 529.2137580848818 319.6577974015616 L 528.1346591542218 318.80710439800055 L 527.1256313292354 317.87436867076457 L 526.1928956019995 316.86534084577823 L 525.3422025984385 315.7862419151183 L 524.5787971238034 314.6437248825291 L 523.9073858267036 313.44483374544205 L 523.3321081810525 312.19696006638907 L 522.8565109648348 310.9077974015616 L 522.4835263930406 309.58529386747836 L 522.2154540395851 308.23760313820407 L 522.0539466596703 306.8730341752373 L 522 305.5 L 522.0539466596703 304.1269658247627 L 522.2154540395851 302.76239686179593 L 522.4835263930406 301.41470613252164 L 522.8565109648348 300.0922025984384 L 523.3321081810525 298.80303993361093 L 523.9073858267036 297.55516625455795 L 524.5787971238034 296.3562751174709 L 525.3422025984385 295.2137580848817 L 526.1928956019995 294.13465915422177 L 527.1256313292354 293.12563132923543 L 528.1346591542218 292.19289560199945 L 529.2137580848818 291.3422025984384 L 530.3562751174709 290.5787971238034 L 531.5551662545579 289.90738582670355 L 532.803039933611 289.3321081810525 L 534.0922025984385 288.8565109648348 L 535.4147061325217 288.4835263930407 L 536.762396861796 288.2154540395851 L 538.1269658247628 288.05394665967026 L 539.5000000000001 288 L 540.8730341752373 288.05394665967026 L 542.2376031382041 288.2154540395851 L 543.5852938674784 288.4835263930407 L 544.9077974015617 288.85651096483485 L 546.1969600663891 289.3321081810525 L 547.4448337454421 289.9073858267036 L 548.6437248825292 290.57879712380344 L 549.7862419151184 291.3422025984385 L 550.8653408457783 292.19289560199957 L 551.8743686707646 293.1256313292355 L 552.8071043980007 294.1346591542219 L 553.6577974015617 295.2137580848818 L 554.4212028761967 296.35627511747106 L 555.0926141732965 297.55516625455806 L 555.6678918189476 298.8030399336111 L 556.1434890351652 300.0922025984386 L 556.5164736069594 301.4147061325218 L 556.7845459604149 302.76239686179616 L 556.9460533403297 304.1269658247629 Z" fill-opacity="1" stroke-opacity="1" stroke-miterlimit="10" stroke-width="2"/><text fill="none" stroke="rgb(0,0,0)" font-family="Helvetica Neue, Helvetica, sans-serif" font-size="10px" font-style="normal" font-weight="normal" text-decoration="normal" x="539.5" y="288" text-anchor="middle" dominant-baseline="text-after-edge" stroke-opacity="1" stroke-linejoin="round" stroke-miterlimit="10" stroke-width="4">CVE-2026-32281</text><text fill="rgb(255,255,255)" stroke="none" font-family="Helvetica Neue, Helvetica, sans-serif" font-size="10px" font-style="normal" font-weight="normal" text-decoration="normal" x="539.5" y="288" text-anchor="middle" dominant-baseline="text-after-edge" fill-opacity="1">CVE-2026-32281</text><path fill="rgb(99,102,241)" stroke="rgb(255,0,102)" paint-order="fill stroke markers" d=" M 81 399.45 L 80.95376000599691 400.62688643591764 L 80.81532510892707 401.7965169756034 L 80.58554880596515 402.95168045783856 L 80.2658477444273 404.0852549156242 L 79.8581929876693 405.1902514854763 L 79.36509786282552 406.2598574960932 L 78.78960246531139 407.28747847073925 L 78.13525491562422 408.2667787843871 L 77.40608948400046 409.19172072495275 L 76.60660171779821 410.0566017177982 L 75.74172072495276 410.85608948400045 L 74.8167787843871 411.5852549156242 L 73.83747847073923 412.23960246531135 L 72.8098574960932 412.8150978628255 L 71.74025148547635 413.3081929876693 L 70.63525491562422 413.71584774442726 L 69.50168045783859 414.03554880596516 L 68.34651697560346 414.2653251089271 L 67.17688643591768 414.4037600059969 L 66 414.45 L 64.82311356408232 414.4037600059969 L 63.653483024396536 414.2653251089271 L 62.49831954216142 414.03554880596516 L 61.36474508437579 413.71584774442726 L 60.25974851452365 413.3081929876693 L 59.1901425039068 412.8150978628255 L 58.16252152926077 412.23960246531135 L 57.1832212156129 411.5852549156242 L 56.258279275047244 410.85608948400045 L 55.39339828220179 410.05660171779823 L 54.59391051599954 409.19172072495275 L 53.86474508437579 408.2667787843871 L 53.21039753468862 407.28747847073925 L 52.634902137174485 406.2598574960932 L 52.1418070123307 405.1902514854763 L 51.734152255572695 404.0852549156242 L 51.414451194034854 402.95168045783856 L 51.18467489107294 401.7965169756035 L 51.04623999400308 400.62688643591764 L 51 399.45 L 51.04623999400308 398.27311356408234 L 51.18467489107293 397.10348302439655 L 51.414451194034854 395.9483195421614 L 51.734152255572695 394.8147450843758 L 52.141807012330695 393.70974851452365 L 52.63490213717448 392.6401425039068 L 53.21039753468862 391.61252152926073 L 53.864745084375784 390.6332212156129 L 54.59391051599953 389.70827927504723 L 55.39339828220179 388.8433982822018 L 56.25827927504724 388.0439105159995 L 57.1832212156129 387.3147450843758 L 58.16252152926077 386.6603975346886 L 59.190142503906806 386.0849021371745 L 60.25974851452367 385.59180701233066 L 61.36474508437581 385.18415225557266 L 62.49831954216145 384.8644511940348 L 63.65348302439657 384.6346748910729 L 64.82311356408238 384.4962399940031 L 66.00000000000006 384.45 L 67.17688643591774 384.4962399940031 L 68.34651697560352 384.6346748910729 L 69.50168045783865 384.86445119403487 L 70.63525491562429 385.1841522555727 L 71.74025148547642 385.5918070123307 L 72.80985749609329 386.08490213717454 L 73.83747847073931 386.6603975346886 L 74.81677878438718 387.31474508437583 L 75.74172072495284 388.0439105159996 L 76.6066017177983 388.84339828220186 L 77.40608948400055 389.70827927504735 L 78.13525491562429 390.633221215613 L 78.78960246531145 391.61252152926085 L 79.36509786282558 392.64014250390693 L 79.85819298766936 393.70974851452377 L 80.26584774442735 394.81474508437594 L 80.58554880596519 395.9483195421616 L 80.8153251089271 397.10348302439667 L 80.95376000599694 398.2731135640825 Z" fill-opacity="1" stroke-opacity="1" stroke-miterlimit="10" stroke-width="2"/><text fill="none" stroke="rgb(0,0,0)" font-family="Helvetica Neue, Helvetica, sans-serif" font-size="10px" font-style="normal" font-weight="normal" text-decoration="normal" x="66" y="384.45" text-anchor="middle" dominant-baseline="text-after-edge" stroke-opacity="1" stroke-linejoin="round" stroke-miterlimit="10" stroke-width="4">UI:N</text><text fill="rgb(255,255,255)" stroke="none" font-family="Helvetica Neue, Helvetica, sans-serif" font-size="10px" font-style="normal" font-weight="normal" text-decoration="normal" x="66" y="384.45" text-anchor="middle" dominant-baseline="text-after-edge" fill-opacity="1">UI:N</text><path fill="rgb(234,179,8)" stroke="rgb(255,102,102)" paint-order="fill stroke markers" d=" M 557 492.5 L 556.9460533403297 493.8730341752373 L 556.7845459604149 495.23760313820407 L 556.5164736069594 496.58529386747836 L 556.1434890351652 497.9077974015616 L 555.6678918189475 499.19696006638907 L 555.0926141732964 500.44483374544205 L 554.4212028761966 501.6437248825291 L 553.6577974015615 502.7862419151183 L 552.8071043980005 503.86534084577823 L 551.8743686707646 504.87436867076457 L 550.8653408457782 505.80710439800055 L 549.7862419151182 506.6577974015616 L 548.6437248825291 507.4212028761966 L 547.4448337454421 508.09261417329645 L 546.1969600663891 508.6678918189475 L 544.9077974015615 509.1434890351652 L 543.5852938674783 509.5164736069593 L 542.237603138204 509.7845459604149 L 540.8730341752373 509.94605334032974 L 539.5 510 L 538.1269658247627 509.94605334032974 L 536.762396861796 509.7845459604149 L 535.4147061325217 509.5164736069593 L 534.0922025984385 509.1434890351652 L 532.8030399336109 508.6678918189475 L 531.5551662545579 508.09261417329645 L 530.3562751174709 507.4212028761966 L 529.2137580848818 506.6577974015616 L 528.1346591542218 505.80710439800055 L 527.1256313292354 504.87436867076457 L 526.1928956019995 503.86534084577823 L 525.3422025984385 502.7862419151183 L 524.5787971238034 501.6437248825291 L 523.9073858267036 500.44483374544205 L 523.3321081810525 499.19696006638907 L 522.8565109648348 497.9077974015616 L 522.4835263930406 496.58529386747836 L 522.2154540395851 495.23760313820407 L 522.0539466596703 493.8730341752373 L 522 492.5 L 522.0539466596703 491.1269658247627 L 522.2154540395851 489.76239686179593 L 522.4835263930406 488.41470613252164 L 522.8565109648348 487.0922025984384 L 523.3321081810525 485.80303993361093 L 523.9073858267036 484.55516625455795 L 524.5787971238034 483.3562751174709 L 525.3422025984385 482.2137580848817 L 526.1928956019995 481.13465915422177 L 527.1256313292354 480.12563132923543 L 528.1346591542218 479.19289560199945 L 529.2137580848818 478.3422025984384 L 530.3562751174709 477.5787971238034 L 531.5551662545579 476.90738582670355 L 532.803039933611 476.3321081810525 L 534.0922025984385 475.8565109648348 L 535.4147061325217 475.4835263930407 L 536.762396861796 475.2154540395851 L 538.1269658247628 475.05394665967026 L 539.5000000000001 475 L 540.8730341752373 475.05394665967026 L 542.2376031382041 475.2154540395851 L 543.5852938674784 475.4835263930407 L 544.9077974015617 475.85651096483485 L 546.1969600663891 476.3321081810525 L 547.4448337454421 476.9073858267036 L 548.6437248825292 477.57879712380344 L 549.7862419151184 478.3422025984385 L 550.8653408457783 479.19289560199957 L 551.8743686707646 480.1256313292355 L 552.8071043980007 481.1346591542219 L 553.6577974015617 482.2137580848818 L 554.4212028761967 483.35627511747106 L 555.0926141732965 484.55516625455806 L 555.6678918189476 485.8030399336111 L 556.1434890351652 487.0922025984386 L 556.5164736069594 488.4147061325218 L 556.7845459604149 489.76239686179616 L 556.9460533403297 491.1269658247629 Z" fill-opacity="0.25" stroke-opacity="0.25" stroke-miterlimit="10" stroke-width="2" stroke-dasharray="4,2"/><text fill="none" stroke="rgb(0,0,0)" font-family="Helvetica Neue, Helvetica, sans-serif" font-size="10px" font-style="normal" font-weight="normal" text-decoration="normal" x="539.5" y="475" text-anchor="middle" dominant-baseline="text-after-edge" stroke-opacity="0.25" stroke-linejoin="round" stroke-miterlimit="10" stroke-width="4">CVE-2026-32289</text><text fill="rgb(255,255,255)" stroke="none" font-family="Helvetica Neue, Helvetica, sans-serif" font-size="10px" font-style="normal" font-weight="normal" text-decoration="normal" x="539.5" y="475" text-anchor="middle" dominant-baseline="text-after-edge" fill-opacity="0.25">CVE-2026-32289</text><path fill="rgb(234,179,8)" stroke="rgb(255,102,102)" paint-order="fill stroke markers" d=" M 826 472.5 L 825.9460533403297 473.8730341752373 L 825.7845459604149 475.23760313820407 L 825.5164736069594 476.58529386747836 L 825.1434890351652 477.9077974015616 L 824.6678918189475 479.19696006638907 L 824.0926141732964 480.44483374544205 L 823.4212028761966 481.6437248825291 L 822.6577974015615 482.7862419151183 L 821.8071043980005 483.86534084577823 L 820.8743686707646 484.87436867076457 L 819.8653408457782 485.80710439800055 L 818.7862419151182 486.6577974015616 L 817.6437248825291 487.4212028761966 L 816.4448337454421 488.09261417329645 L 815.1969600663891 488.6678918189475 L 813.9077974015615 489.1434890351652 L 812.5852938674783 489.5164736069593 L 811.237603138204 489.7845459604149 L 809.8730341752373 489.94605334032974 L 808.5 490 L 807.1269658247627 489.94605334032974 L 805.762396861796 489.7845459604149 L 804.4147061325217 489.5164736069593 L 803.0922025984385 489.1434890351652 L 801.8030399336109 488.6678918189475 L 800.5551662545579 488.09261417329645 L 799.3562751174709 487.4212028761966 L 798.2137580848818 486.6577974015616 L 797.1346591542218 485.80710439800055 L 796.1256313292354 484.87436867076457 L 795.1928956019995 483.86534084577823 L 794.3422025984385 482.7862419151183 L 793.5787971238034 481.6437248825291 L 792.9073858267036 480.44483374544205 L 792.3321081810525 479.19696006638907 L 791.8565109648348 477.9077974015616 L 791.4835263930406 476.58529386747836 L 791.2154540395851 475.23760313820407 L 791.0539466596703 473.8730341752373 L 791 472.5 L 791.0539466596703 471.1269658247627 L 791.2154540395851 469.76239686179593 L 791.4835263930406 468.41470613252164 L 791.8565109648348 467.0922025984384 L 792.3321081810525 465.80303993361093 L 792.9073858267036 464.55516625455795 L 793.5787971238034 463.3562751174709 L 794.3422025984385 462.2137580848817 L 795.1928956019995 461.13465915422177 L 796.1256313292354 460.12563132923543 L 797.1346591542218 459.19289560199945 L 798.2137580848818 458.3422025984384 L 799.3562751174709 457.5787971238034 L 800.5551662545579 456.90738582670355 L 801.803039933611 456.3321081810525 L 803.0922025984385 455.8565109648348 L 804.4147061325217 455.4835263930407 L 805.762396861796 455.2154540395851 L 807.1269658247628 455.05394665967026 L 808.5000000000001 455 L 809.8730341752373 455.05394665967026 L 811.2376031382041 455.2154540395851 L 812.5852938674784 455.4835263930407 L 813.9077974015617 455.85651096483485 L 815.1969600663891 456.3321081810525 L 816.4448337454421 456.9073858267036 L 817.6437248825292 457.57879712380344 L 818.7862419151184 458.3422025984385 L 819.8653408457783 459.19289560199957 L 820.8743686707646 460.1256313292355 L 821.8071043980007 461.1346591542219 L 822.6577974015617 462.2137580848818 L 823.4212028761967 463.35627511747106 L 824.0926141732965 464.55516625455806 L 824.6678918189476 465.8030399336111 L 825.1434890351652 467.0922025984386 L 825.5164736069594 468.4147061325218 L 825.7845459604149 469.76239686179616 L 825.9460533403297 471.1269658247629 Z" fill-opacity="0.25" stroke-opacity="0.25" stroke-miterlimit="10" stroke-width="2" stroke-dasharray="4,2"/><text fill="none" stroke="rgb(0,0,0)" font-family="Helvetica Neue, Helvetica, sans-serif" font-size="10px" font-style="normal" font-weight="normal" text-decoration="normal" x="808.5" y="455" text-anchor="middle" dominant-baseline="text-after-edge" stroke-opacity="0.25" stroke-linejoin="round" stroke-miterlimit="10" stroke-width="4">CVE-2026-32282</text><text fill="rgb(255,255,255)" stroke="none" font-family="Helvetica Neue, Helvetica, sans-serif" font-size="10px" font-style="normal" font-weight="normal" text-decoration="normal" x="808.5" y="455" text-anchor="middle" dominant-baseline="text-after-edge" fill-opacity="0.25">CVE-2026-32282</text><path fill="rgb(255,0,0)" stroke="rgb(255,215,0)" paint-order="fill stroke markers" d=" M 954 526.25 L 944.7343318831332 540.4799193548821 L 929 545.3483005625053 L 939.0078340584333 559.0112555886155 L 938.5491502812527 576.25 L 954 570.4642512380153 L 969.4508497187473 576.25 L 968.9921659415667 559.0112555886155 L 979 545.3483005625053 L 963.2656681168668 540.4799193548821 Z" fill-opacity="0.25" stroke-opacity="0.25" stroke-miterlimit="10" stroke-width="4" stroke-dasharray="4,2"/><text fill="none" stroke="rgb(0,0,0)" font-family="Helvetica Neue, Helvetica, sans-serif" font-size="10px" font-style="normal" font-weight="bold" text-decoration="normal" x="954" y="526.25" text-anchor="middle" dominant-baseline="text-after-edge" stroke-opacity="0.25" stroke-linejoin="round" stroke-miterlimit="10" stroke-width="4">EXPLOITED</text><text fill="rgb(255,255,255)" stroke="none" font-family="Helvetica Neue, Helvetica, sans-serif" font-size="10px" font-style="normal" font-weight="bold" text-decoration="normal" x="954" y="526.25" text-anchor="middle" dominant-baseline="text-after-edge" fill-opacity="0.25">EXPLOITED</text><path fill="rgb(0,255,136)" stroke="rgb(0,204,102)" paint-order="fill stroke markers" d=" M 1113 419 L 1143 389 L 1113 359 L 1083 389 Z" fill-opacity="1" stroke-opacity="1" stroke-miterlimit="10" stroke-width="4"/><text fill="none" stroke="rgb(0,0,0)" font-family="Helvetica Neue, Helvetica, sans-serif" font-size="14px" font-style="normal" font-weight="bold" text-decoration="normal" x="1113" y="359" text-anchor="middle" dominant-baseline="text-after-edge" stroke-opacity="1" stroke-linejoin="round" stroke-miterlimit="10" stroke-width="6">INSIDE NETWORK</text><text fill="rgb(255,255,255)" stroke="none" font-family="Helvetica Neue, Helvetica, sans-serif" font-size="14px" font-style="normal" font-weight="bold" text-decoration="normal" x="1113" y="359" text-anchor="middle" dominant-baseline="text-after-edge" fill-opacity="1">INSIDE NETWORK</text><g transform="scale(0.5,0.5) translate(64,172)"/></g></g></svg>