<svg version="1.1" xmlns="http://www.w3.org/2000/svg" xmlns:xlink="http://www.w3.org/1999/xlink" width="1998.4000297784805" height="1456.0000216960907"><defs/><g><rect fill="#ffffff" stroke="none" x="0" y="0" width="1998.4000297784805" height="1456.0000216960907"/><g transform="translate(-51.20000076293945,-27.200000405311584) scale(1.600000023841858,1.600000023841858)"><path fill="rgb(100,100,100)" stroke="rgb(136,136,136)" paint-order="fill stroke markers" d=" M 139.5 335.79999999999995 L 237 335.79999999999995 L 237 335.79999999999995 A 8 8 0 0 1 245 343.79999999999995 L 245 583.8 L 245 583.8 A 8 8 0 0 1 237 591.8 L 42 591.8 L 42 591.8 A 8 8 0 0 1 34 583.8 L 34 343.79999999999995 L 34 343.79999999999995 A 8 8 0 0 1 42 335.79999999999995 L 139.5 335.79999999999995 Z" fill-opacity="1" stroke-opacity="1" stroke-miterlimit="10" stroke-width="2" stroke-dasharray="4,2"/><text fill="none" stroke="rgb(0,0,0)" font-family="Helvetica Neue, Helvetica, sans-serif" font-size="12px" font-style="normal" font-weight="normal" text-decoration="normal" x="139.5" y="335.79999999999995" text-anchor="middle" dominant-baseline="text-after-edge" stroke-opacity="1" stroke-linejoin="round" stroke-miterlimit="10" stroke-width="4">Initial State</text><text fill="rgb(204,204,204)" stroke="none" font-family="Helvetica Neue, Helvetica, sans-serif" font-size="12px" font-style="normal" font-weight="normal" text-decoration="normal" x="139.5" y="335.79999999999995" text-anchor="middle" dominant-baseline="text-after-edge" fill-opacity="1">Initial State</text><path fill="rgb(234,179,8)" stroke="rgb(234,179,8)" paint-order="fill stroke markers" d=" M 589.5 337.75 L 636.5 337.75 L 636.5 337.75 A 8 8 0 0 1 644.5 345.75 L 644.5 584.75 L 644.5 584.75 A 8 8 0 0 1 636.5 592.75 L 542.5 592.75 L 542.5 592.75 A 8 8 0 0 1 534.5 584.75 L 534.5 345.75 L 534.5 345.75 A 8 8 0 0 1 542.5 337.75 L 589.5 337.75 Z" fill-opacity="1" stroke-opacity="1" stroke-miterlimit="10" stroke-width="2" stroke-dasharray="4,2"/><text fill="none" stroke="rgb(0,0,0)" font-family="Helvetica Neue, Helvetica, sans-serif" font-size="10px" font-style="normal" font-weight="normal" text-decoration="normal" x="589.5" y="337.75" text-anchor="middle" dominant-baseline="text-after-edge" stroke-opacity="1" stroke-linejoin="round" stroke-miterlimit="10" stroke-width="2">→ AV:L, EX:Y, PR:H (×5)</text><text fill="rgb(234,179,8)" stroke="none" font-family="Helvetica Neue, Helvetica, sans-serif" font-size="10px" font-style="normal" font-weight="normal" text-decoration="normal" x="589.5" y="337.75" text-anchor="middle" dominant-baseline="text-after-edge" fill-opacity="1">→ AV:L, EX:Y, PR:H (×5)</text><path fill="rgb(234,179,8)" stroke="rgb(234,179,8)" paint-order="fill stroke markers" d=" M 589.5 31 L 636.5 31 L 636.5 31 A 8 8 0 0 1 644.5 39 L 644.5 143 L 644.5 143 A 8 8 0 0 1 636.5 151 L 542.5 151 L 542.5 151 A 8 8 0 0 1 534.5 143 L 534.5 39 L 534.5 39 A 8 8 0 0 1 542.5 31 L 589.5 31 Z" fill-opacity="1" stroke-opacity="1" stroke-miterlimit="10" stroke-width="2" stroke-dasharray="4,2"/><text fill="none" stroke="rgb(0,0,0)" font-family="Helvetica Neue, Helvetica, sans-serif" font-size="10px" font-style="normal" font-weight="normal" text-decoration="normal" x="589.5" y="31" text-anchor="middle" dominant-baseline="text-after-edge" stroke-opacity="1" stroke-linejoin="round" stroke-miterlimit="10" stroke-width="2">→ no VCs (×2)</text><text fill="rgb(234,179,8)" stroke="none" font-family="Helvetica Neue, Helvetica, sans-serif" font-size="10px" font-style="normal" font-weight="normal" text-decoration="normal" x="589.5" y="31" text-anchor="middle" dominant-baseline="text-after-edge" fill-opacity="1">→ no VCs (×2)</text><path fill="none" stroke="rgb(203,143,255)" paint-order="fill stroke markers" d=" M 915.7694133537534 890.4880739041027 L 1041.0858484389337 597.2217773645569" stroke-opacity="0.9" stroke-linejoin="round" stroke-miterlimit="10" stroke-width="3" stroke-dasharray="6,3"/><path fill="rgb(255,255,255)" stroke="none" paint-order="stroke fill markers" d=" M 1044.0250085720158 601.4138935022731 L 1043.443496013124 591.7043959280497 L 1036.0248054890803 597.9953045196972 Z" fill-opacity="1"/><path fill="rgb(203,143,255)" stroke="none" paint-order="stroke fill markers" d=" M 1044.0250085720158 601.4138935022731 L 1043.443496013124 591.7043959280497 L 1036.0248054890803 597.9953045196972 Z" fill-opacity="0.9"/><path fill="none" stroke="rgb(0,255,136)" paint-order="fill stroke markers" d=" M 1070.5925655485553 227.70395664803635 L 1197.4312139532653 406.99317821381374" stroke-opacity="0.7" stroke-linejoin="round" stroke-miterlimit="10" stroke-width="2"/><path fill="rgb(255,255,255)" stroke="none" paint-order="stroke fill markers" d=" M 1191.165601949034 405.66856271774174 L 1199.7413680781758 410.2586319218241 L 1198.2679637639567 400.64397749606127 Z" fill-opacity="1"/><path fill="rgb(0,255,136)" stroke="none" paint-order="stroke fill markers" d=" M 1191.165601949034 405.66856271774174 L 1199.7413680781758 410.2586319218241 L 1198.2679637639567 400.64397749606127 Z" fill-opacity="0.7"/><path fill="none" stroke="rgb(255,0,102)" paint-order="fill stroke markers" d=" M 79.4447463715879 388.47402991715353 L 182.3918421738333 454.89151107989244" stroke-opacity="0.7" stroke-linejoin="round" stroke-miterlimit="10" stroke-width="2"/><path fill="rgb(255,255,255)" stroke="none" paint-order="stroke fill markers" d=" M 176.08419604345323 455.9988052115041 L 185.75302876673027 457.06001855918083 L 180.80069981090543 448.68822437195314 Z" fill-opacity="1"/><path fill="rgb(255,0,102)" stroke="none" paint-order="stroke fill markers" d=" M 176.08419604345323 455.9988052115041 L 185.75302876673027 457.06001855918083 L 180.80069981090543 448.68822437195314 Z" fill-opacity="0.7"/><path fill="none" stroke="rgb(0,255,136)" paint-order="fill stroke markers" d=" M 1066.509550099931 556.1426546302487 L 1192.8478119491995 446.49057830824194" stroke-opacity="0.25" stroke-linejoin="round" stroke-miterlimit="10" stroke-width="2"/><path fill="rgb(255,255,255)" stroke="none" paint-order="stroke fill markers" d=" M 1192.1495908593179 452.85650222466165 L 1195.8686868686868 443.86868686868684 L 1186.4469769782856 446.28609927477663 Z" fill-opacity="1"/><path fill="rgb(0,255,136)" stroke="none" paint-order="stroke fill markers" d=" M 1192.1495908593179 452.85650222466165 L 1195.8686868686868 443.86868686868684 L 1186.4469769782856 446.28609927477663 Z" fill-opacity="0.25"/><path fill="none" stroke="rgb(0,255,255)" paint-order="fill stroke markers" d=" M 785.0027797914316 777.116317698017 L 893.0273409182993 891.1645532371635" stroke-opacity="0.7" stroke-linejoin="round" stroke-miterlimit="10" stroke-width="2"/><path fill="rgb(255,255,255)" stroke="none" paint-order="stroke fill markers" d=" M 886.6370879804178 890.7436406691666 L 895.7780358661572 894.0686326616678 L 892.9534607287146 884.7608791575756 Z" fill-opacity="1"/><path fill="rgb(0,255,255)" stroke="none" paint-order="stroke fill markers" d=" M 886.6370879804178 890.7436406691666 L 895.7780358661572 894.0686326616678 L 892.9534607287146 884.7608791575756 Z" fill-opacity="0.7"/><path fill="none" stroke="rgb(0,255,255)" paint-order="fill stroke markers" d=" M 783.2932739166802 752.4755975219762 L 895.4313335546685 595.3155659847209" stroke-opacity="0.7" stroke-linejoin="round" stroke-miterlimit="10" stroke-width="2"/><path fill="rgb(255,255,255)" stroke="none" paint-order="stroke fill markers" d=" M 896.2424437653565 601.6680930587379 L 897.7546520338386 592.059465365215 L 889.1604249179311 596.6148753665431 Z" fill-opacity="1"/><path fill="rgb(0,255,255)" stroke="none" paint-order="stroke fill markers" d=" M 896.2424437653565 601.6680930587379 L 897.7546520338386 592.059465365215 L 889.1604249179311 596.6148753665431 Z" fill-opacity="0.7"/><path fill="none" stroke="rgb(0,255,255)" paint-order="fill stroke markers" d=" M 779.1456424162939 526.649995515631 L 901.2639403520867 886.195318806144" stroke-opacity="0.7" stroke-linejoin="round" stroke-miterlimit="10" stroke-width="2"/><path fill="rgb(255,255,255)" stroke="none" paint-order="stroke fill markers" d=" M 895.6335028614882 883.1439791553573 L 902.5503509561602 889.9828176850517 L 903.8713129231126 880.3460360914975 Z" fill-opacity="1"/><path fill="rgb(0,255,255)" stroke="none" paint-order="stroke fill markers" d=" M 895.6335028614882 883.1439791553573 L 902.5503509561602 889.9828176850517 L 903.8713129231126 880.3460360914975 Z" fill-opacity="0.7"/><path fill="none" stroke="rgb(0,255,255)" paint-order="fill stroke markers" d=" M 779.3668453381501 496.42694552798355 L 900.9528737432264 154.94648285127317" stroke-opacity="0.7" stroke-linejoin="round" stroke-miterlimit="10" stroke-width="2"/><path fill="rgb(255,255,255)" stroke="none" paint-order="stroke fill markers" d=" M 903.4743496097243 160.83330367873756 L 902.2945850777639 151.17821923326903 L 895.2783762405653 157.91508152611843 Z" fill-opacity="1"/><path fill="rgb(0,255,255)" stroke="none" paint-order="stroke fill markers" d=" M 903.4743496097243 160.83330367873756 L 902.2945850777639 151.17821923326903 L 895.2783762405653 157.91508152611843 Z" fill-opacity="0.7"/><path fill="none" stroke="rgb(0,255,255)" paint-order="fill stroke markers" d=" M 788.384917470354 518.5052943814735 L 888.2712098073147 567.1488047760529" stroke-opacity="0.7" stroke-linejoin="round" stroke-miterlimit="10" stroke-width="2"/><path fill="rgb(255,255,255)" stroke="none" paint-order="stroke fill markers" d=" M 882.1410758904351 569.0018989887475 L 891.8674391749032 568.9001283714213 L 885.9502047103614 561.1801001142426 Z" fill-opacity="1"/><path fill="rgb(0,255,255)" stroke="none" paint-order="stroke fill markers" d=" M 882.1410758904351 569.0018989887475 L 891.8674391749032 568.9001283714213 L 885.9502047103614 561.1801001142426 Z" fill-opacity="0.7"/><path fill="none" stroke="rgb(203,143,255)" paint-order="fill stroke markers" d=" M 927 907.5 L 1032 907.5" stroke-opacity="0.9" stroke-linejoin="round" stroke-miterlimit="10" stroke-width="3" stroke-dasharray="6,3"/><path fill="rgb(255,255,255)" stroke="none" paint-order="stroke fill markers" d=" M 1029.3 911.85 L 1038 907.5 L 1029.3 903.15 Z" fill-opacity="1"/><path fill="rgb(203,143,255)" stroke="none" paint-order="stroke fill markers" d=" M 1029.3 911.85 L 1038 907.5 L 1029.3 903.15 Z" fill-opacity="0.9"/><path fill="none" stroke="rgb(203,143,255)" paint-order="fill stroke markers" d=" M 926.9564607955961 575.7315147219522 L 1026.7531491546108 568.872635796934" stroke-opacity="0.9" stroke-linejoin="round" stroke-miterlimit="10" stroke-width="3" stroke-dasharray="6,3"/><path fill="rgb(255,255,255)" stroke="none" paint-order="stroke fill markers" d=" M 1024.357768982254 573.397528484046 L 1032.7390283315608 568.4612351662157 L 1023.7612380677125 564.7180036774683 Z" fill-opacity="1"/><path fill="rgb(203,143,255)" stroke="none" paint-order="stroke fill markers" d=" M 1024.357768982254 573.397528484046 L 1032.7390283315608 568.4612351662157 L 1023.7612380677125 564.7180036774683 Z" fill-opacity="0.9"/><path fill="none" stroke="rgb(255,0,102)" paint-order="fill stroke markers" d=" M 81.2273378841688 429.71204447876414 L 179.32801301158483 461.35742355212415" stroke-opacity="0.7" stroke-linejoin="round" stroke-miterlimit="10" stroke-width="2"/><path fill="rgb(255,255,255)" stroke="none" paint-order="stroke fill markers" d=" M 173.51952041544624 464.05444297374555 L 183.13484748262704 462.58543467181516 L 176.19044460077424 455.77457799922877 Z" fill-opacity="1"/><path fill="rgb(255,0,102)" stroke="none" paint-order="stroke fill markers" d=" M 173.51952041544624 464.05444297374555 L 183.13484748262704 462.58543467181516 L 176.19044460077424 455.77457799922877 Z" fill-opacity="0.7"/><path fill="none" stroke="rgb(255,0,102)" paint-order="fill stroke markers" d=" M 81.2273378841688 509.8879555212358 L 179.32801301158483 478.2425764478758" stroke-opacity="0.7" stroke-linejoin="round" stroke-miterlimit="10" stroke-width="2"/><path fill="rgb(255,255,255)" stroke="none" paint-order="stroke fill markers" d=" M 176.19044460077424 483.8254220007712 L 183.13484748262704 477.0145653281848 L 173.51952041544624 475.5455570262544 Z" fill-opacity="1"/><path fill="rgb(255,0,102)" stroke="none" paint-order="stroke fill markers" d=" M 176.19044460077424 483.8254220007712 L 183.13484748262704 477.0145653281848 L 173.51952041544624 475.5455570262544 Z" fill-opacity="0.7"/><path fill="none" stroke="rgb(255,102,0)" paint-order="fill stroke markers" d=" M 228.89778825192292 471.98940743539845 L 375.1087359022097 485.6708431538314" stroke-opacity="0.7" stroke-linejoin="round" stroke-miterlimit="10" stroke-width="2"/><path fill="rgb(255,255,255)" stroke="none" paint-order="stroke fill markers" d=" M 370.0239049605917 489.5640416197673 L 379.0913381578561 486.0435082492184 L 370.8344515430584 480.90188171373626 Z" fill-opacity="1"/><path fill="rgb(255,102,0)" stroke="none" paint-order="stroke fill markers" d=" M 370.0239049605917 489.5640416197673 L 379.0913381578561 486.0435082492184 L 370.8344515430584 480.90188171373626 Z" fill-opacity="0.7"/><path fill="none" stroke="rgb(255,153,119)" paint-order="fill stroke markers" d=" M 416.19903432264863 501.363805109835 L 889.6011266235765 891.9088940385258" stroke-opacity="0.9" stroke-linejoin="round" stroke-miterlimit="10" stroke-width="3" stroke-dasharray="6,3"/><path fill="rgb(255,255,255)" stroke="none" paint-order="stroke fill markers" d=" M 884.7501768664845 893.5462047769528 L 894.2294221443333 895.7271240699072 L 890.2866104119876 886.8351762718555 Z" fill-opacity="1"/><path fill="rgb(255,153,119)" stroke="none" paint-order="stroke fill markers" d=" M 884.7501768664845 893.5462047769528 L 894.2294221443333 895.7271240699072 L 890.2866104119876 886.8351762718555 Z" fill-opacity="0.9"/><path fill="none" stroke="rgb(255,153,119)" paint-order="fill stroke markers" d=" M 417.23088998351454 475.99598274009827 L 888.397295019233 147.75468680321865" stroke-opacity="0.9" stroke-linejoin="round" stroke-miterlimit="10" stroke-width="3" stroke-dasharray="6,3"/><path fill="rgb(255,255,255)" stroke="none" paint-order="stroke fill markers" d=" M 888.6684413109036 152.86731623321973 L 893.3204064430943 144.32496758610387 L 883.6953484460872 145.72880466862085 Z" fill-opacity="1"/><path fill="rgb(255,153,119)" stroke="none" paint-order="stroke fill markers" d=" M 888.6684413109036 152.86731623321973 L 893.3204064430943 144.32496758610387 L 883.6953484460872 145.72880466862085 Z" fill-opacity="0.9"/><path fill="none" stroke="rgb(255,153,119)" paint-order="fill stroke markers" d=" M 420.685553462093 491.6204803502975 L 884.3668542942248 572.7761062579862" stroke-opacity="0.9" stroke-linejoin="round" stroke-miterlimit="10" stroke-width="3" stroke-dasharray="6,3"/><path fill="rgb(255,255,255)" stroke="none" paint-order="stroke fill markers" d=" M 880.9573264908225 576.595480572953 L 890.2770124262513 573.810529215214 L 882.457239778803 568.0257512815144 Z" fill-opacity="1"/><path fill="rgb(255,153,119)" stroke="none" paint-order="stroke fill markers" d=" M 880.9573264908225 576.595480572953 L 890.2770124262513 573.810529215214 L 882.457239778803 568.0257512815144 Z" fill-opacity="0.9"/><path fill="none" stroke="rgb(255,0,102)" paint-order="fill stroke markers" d=" M 79.44474637158791 551.1259700828465 L 182.3918421738333 484.7084889201076" stroke-opacity="0.7" stroke-linejoin="round" stroke-miterlimit="10" stroke-width="2"/><path fill="rgb(255,255,255)" stroke="none" paint-order="stroke fill markers" d=" M 180.80069981090546 490.9117756280469 L 185.75302876673027 482.5399814408192 L 176.08419604345323 483.60119478849595 Z" fill-opacity="1"/><path fill="rgb(255,0,102)" stroke="none" paint-order="stroke fill markers" d=" M 180.80069981090546 490.9117756280469 L 185.75302876673027 482.5399814408192 L 176.08419604345323 483.60119478849595 Z" fill-opacity="0.7"/><path fill="none" stroke="rgb(0,255,255)" paint-order="fill stroke markers" d=" M 645.5 433.7839074273412 L 1034.3019224083685 215.31824166074458" stroke-opacity="0.7" stroke-linejoin="round" stroke-miterlimit="10" stroke-width="2"/><path fill="rgb(255,255,255)" stroke="none" paint-order="stroke fill markers" d=" M 1032.335349555794 221.41291894633704 L 1037.7891264168466 213.3588008723424 L 1028.0735658410192 213.8282502278971 Z" fill-opacity="1"/><path fill="rgb(0,255,255)" stroke="none" paint-order="stroke fill markers" d=" M 1032.335349555794 221.41291894633704 L 1037.7891264168466 213.3588008723424 L 1028.0735658410192 213.8282502278971 Z" fill-opacity="0.7"/><path fill="none" stroke="rgb(0,255,255)" paint-order="fill stroke markers" d=" M 645.5 556.3827913279133 L 763.5291363042354 748.460017210551" stroke-opacity="0.7" stroke-linejoin="round" stroke-miterlimit="10" stroke-width="2"/><path fill="rgb(255,255,255)" stroke="none" paint-order="stroke fill markers" d=" M 757.3622870790256 746.7330341088592 L 765.6233090433883 751.8680137684407 L 764.7746795924359 742.1782084012016 Z" fill-opacity="1"/><path fill="rgb(0,255,255)" stroke="none" paint-order="stroke fill markers" d=" M 757.3622870790256 746.7330341088592 L 765.6233090433883 751.8680137684407 L 764.7746795924359 742.1782084012016 Z" fill-opacity="0.7"/><path fill="none" stroke="rgb(0,255,255)" paint-order="fill stroke markers" d=" M 645.5 479.2879403794038 L 754.6002465203155 506.63691816566177" stroke-opacity="0.7" stroke-linejoin="round" stroke-miterlimit="10" stroke-width="2"/><path fill="rgb(255,255,255)" stroke="none" paint-order="stroke fill markers" d=" M 748.9835841536211 509.7135403164237 L 758.4801972162525 507.60953453252944 L 751.0990247515583 501.27464755276094 Z" fill-opacity="1"/><path fill="rgb(0,255,255)" stroke="none" paint-order="stroke fill markers" d=" M 748.9835841536211 509.7135403164237 L 758.4801972162525 507.60953453252944 L 751.0990247515583 501.27464755276094 Z" fill-opacity="0.7"/><path fill="none" stroke="rgb(0,255,255)" paint-order="fill stroke markers" d=" M 420.85028342084775 485.4968657106898 L 529.5285174436481 472.44974262879686" stroke-opacity="0.7" stroke-linejoin="round" stroke-miterlimit="10" stroke-width="2"/><path fill="rgb(255,255,255)" stroke="none" paint-order="stroke fill markers" d=" M 525.3805318284345 477.3289552021514 L 533.5 471.9729551451187 L 524.3435190514346 468.6909806420859 Z" fill-opacity="1"/><path fill="rgb(0,255,255)" stroke="none" paint-order="stroke fill markers" d=" M 525.3805318284345 477.3289552021514 L 533.5 471.9729551451187 L 524.3435190514346 468.6909806420859 Z" fill-opacity="0.7"/><path fill="none" stroke="rgb(0,255,255)" paint-order="fill stroke markers" d=" M 409.0462049515395 469.0483199695979 L 558.6597848790877 155.60984381531472" stroke-opacity="0.7" stroke-linejoin="round" stroke-miterlimit="10" stroke-width="2"/><path fill="rgb(255,255,255)" stroke="none" paint-order="stroke fill markers" d=" M 560.5608632057551 161.7252670382712 L 560.3828715365239 152 L 552.7094529074457 157.97755355834767 Z" fill-opacity="1"/><path fill="rgb(0,255,255)" stroke="none" paint-order="stroke fill markers" d=" M 560.5608632057551 161.7252670382712 L 560.3828715365239 152 L 552.7094529074457 157.97755355834767 Z" fill-opacity="0.7"/><path fill="rgb(239,68,68)" stroke="rgb(0,0,0)" paint-order="fill stroke markers" d=" M 420 488 L 419.93834667466257 489.5691819145569 L 419.7537668119028 491.12868930080464 L 419.44739840795353 492.6689072771181 L 419.0211303259031 494.180339887499 L 418.47759065022575 495.6536686473018 L 417.82013048376734 497.07980999479093 L 417.0528032870818 498.44997129431897 L 416.180339887499 499.7557050458495 L 415.20811931200063 500.98896096660366 L 414.14213562373095 502.14213562373095 L 412.98896096660366 503.20811931200063 L 411.7557050458495 504.180339887499 L 410.44997129431897 505.0528032870818 L 409.07980999479093 505.82013048376734 L 407.6536686473018 506.47759065022575 L 406.180339887499 507.0211303259031 L 404.66890727711814 507.44739840795353 L 403.12868930080464 507.7537668119028 L 401.5691819145569 507.93834667466257 L 400 508 L 398.4308180854431 507.93834667466257 L 396.87131069919536 507.7537668119028 L 395.3310927228819 507.44739840795353 L 393.819660112501 507.0211303259031 L 392.3463313526982 506.47759065022575 L 390.92019000520907 505.82013048376734 L 389.55002870568103 505.0528032870819 L 388.2442949541505 504.180339887499 L 387.01103903339634 503.20811931200063 L 385.85786437626905 502.14213562373095 L 384.79188068799937 500.98896096660366 L 383.8196601125011 499.7557050458495 L 382.9471967129182 498.44997129431897 L 382.17986951623266 497.07980999479093 L 381.52240934977425 495.6536686473018 L 380.9788696740969 494.180339887499 L 380.55260159204647 492.66890727711814 L 380.2462331880972 491.12868930080464 L 380.06165332533743 489.5691819145569 L 380 488 L 380.06165332533743 486.4308180854431 L 380.2462331880972 484.87131069919536 L 380.55260159204647 483.3310927228819 L 380.9788696740969 481.8196601125011 L 381.52240934977425 480.3463313526982 L 382.17986951623266 478.92019000520907 L 382.9471967129181 477.55002870568103 L 383.819660112501 476.2442949541505 L 384.79188068799937 475.01103903339634 L 385.85786437626905 473.85786437626905 L 387.01103903339634 472.79188068799937 L 388.2442949541505 471.8196601125011 L 389.55002870568103 470.9471967129181 L 390.92019000520907 470.17986951623266 L 392.3463313526982 469.52240934977425 L 393.8196601125011 468.9788696740969 L 395.3310927228819 468.55260159204647 L 396.8713106991954 468.2462331880972 L 398.43081808544315 468.06165332533743 L 400.00000000000006 468 L 401.56918191455696 468.06165332533743 L 403.1286893008047 468.2462331880973 L 404.6689072771182 468.55260159204647 L 406.18033988749903 468.978869674097 L 407.6536686473019 469.5224093497743 L 409.07980999479105 470.1798695162327 L 410.4499712943191 470.94719671291824 L 411.7557050458496 471.81966011250114 L 412.98896096660377 472.7918806879995 L 414.14213562373106 473.85786437626916 L 415.20811931200075 475.01103903339646 L 416.18033988749903 476.2442949541507 L 417.05280328708193 477.5500287056812 L 417.82013048376746 478.92019000520924 L 418.4775906502258 480.34633135269837 L 419.02113032590313 481.81966011250125 L 419.4473984079536 483.3310927228821 L 419.7537668119028 484.8713106991956 L 419.93834667466257 486.4308180854433 Z" fill-opacity="1" stroke-opacity="1" stroke-miterlimit="10" stroke-width="2"/><text fill="none" stroke="rgb(0,0,0)" font-family="Helvetica Neue, Helvetica, sans-serif" font-size="10px" font-style="normal" font-weight="normal" text-decoration="normal" x="400" y="468" text-anchor="middle" dominant-baseline="text-after-edge" stroke-opacity="1" stroke-linejoin="round" stroke-miterlimit="10" stroke-width="4">host_ubuntu_2f69a215</text><text fill="rgb(255,255,255)" stroke="none" font-family="Helvetica Neue, Helvetica, sans-serif" font-size="10px" font-style="normal" font-weight="normal" text-decoration="normal" x="400" y="468" text-anchor="middle" dominant-baseline="text-after-edge" fill-opacity="1">host_ubuntu_2f69a215</text><path fill="rgb(99,102,241)" stroke="rgb(255,0,102)" paint-order="fill stroke markers" d=" M 81 559.8 L 80.95376000599691 560.9768864359177 L 80.81532510892707 562.1465169756034 L 80.58554880596515 563.3016804578385 L 80.2658477444273 564.4352549156241 L 79.8581929876693 565.5402514854763 L 79.36509786282552 566.6098574960931 L 78.78960246531139 567.6374784707392 L 78.13525491562422 568.6167787843871 L 77.40608948400046 569.5417207249527 L 76.60660171779821 570.4066017177981 L 75.74172072495276 571.2060894840005 L 74.8167787843871 571.9352549156241 L 73.83747847073923 572.5896024653114 L 72.8098574960932 573.1650978628255 L 71.74025148547635 573.6581929876693 L 70.63525491562422 574.0658477444273 L 69.50168045783859 574.3855488059651 L 68.34651697560346 574.615325108927 L 67.17688643591768 574.7537600059969 L 66 574.8 L 64.82311356408232 574.7537600059969 L 63.653483024396536 574.615325108927 L 62.49831954216142 574.3855488059651 L 61.36474508437579 574.0658477444273 L 60.25974851452365 573.6581929876693 L 59.1901425039068 573.1650978628255 L 58.16252152926077 572.5896024653114 L 57.1832212156129 571.9352549156241 L 56.258279275047244 571.2060894840005 L 55.39339828220179 570.4066017177981 L 54.59391051599954 569.5417207249527 L 53.86474508437579 568.6167787843871 L 53.21039753468862 567.6374784707392 L 52.634902137174485 566.6098574960931 L 52.1418070123307 565.5402514854763 L 51.734152255572695 564.4352549156241 L 51.414451194034854 563.3016804578385 L 51.18467489107294 562.1465169756034 L 51.04623999400308 560.9768864359177 L 51 559.8 L 51.04623999400308 558.6231135640822 L 51.18467489107293 557.4534830243965 L 51.414451194034854 556.2983195421614 L 51.734152255572695 555.1647450843758 L 52.141807012330695 554.0597485145236 L 52.63490213717448 552.9901425039068 L 53.21039753468862 551.9625215292607 L 53.864745084375784 550.9832212156128 L 54.59391051599953 550.0582792750472 L 55.39339828220179 549.1933982822018 L 56.25827927504724 548.3939105159996 L 57.1832212156129 547.6647450843758 L 58.16252152926077 547.0103975346885 L 59.190142503906806 546.4349021371744 L 60.25974851452367 545.9418070123306 L 61.36474508437581 545.5341522555726 L 62.49831954216145 545.2144511940348 L 63.65348302439657 544.9846748910729 L 64.82311356408238 544.846239994003 L 66.00000000000006 544.8 L 67.17688643591774 544.846239994003 L 68.34651697560352 544.9846748910729 L 69.50168045783865 545.2144511940348 L 70.63525491562429 545.5341522555726 L 71.74025148547642 545.9418070123306 L 72.80985749609329 546.4349021371745 L 73.83747847073931 547.0103975346887 L 74.81677878438718 547.6647450843758 L 75.74172072495284 548.3939105159996 L 76.6066017177983 549.1933982822018 L 77.40608948400055 550.0582792750473 L 78.13525491562429 550.983221215613 L 78.78960246531145 551.9625215292608 L 79.36509786282558 552.9901425039069 L 79.85819298766936 554.0597485145238 L 80.26584774442735 555.1647450843759 L 80.58554880596519 556.2983195421615 L 80.8153251089271 557.4534830243966 L 80.95376000599694 558.6231135640825 Z" fill-opacity="1" stroke-opacity="1" stroke-miterlimit="10" stroke-width="2"/><text fill="none" stroke="rgb(0,0,0)" font-family="Helvetica Neue, Helvetica, sans-serif" font-size="10px" font-style="normal" font-weight="normal" text-decoration="normal" x="66" y="544.8" text-anchor="middle" dominant-baseline="text-after-edge" stroke-opacity="1" stroke-linejoin="round" stroke-miterlimit="10" stroke-width="4">AC:L</text><text fill="rgb(255,255,255)" stroke="none" font-family="Helvetica Neue, Helvetica, sans-serif" font-size="10px" font-style="normal" font-weight="normal" text-decoration="normal" x="66" y="544.8" text-anchor="middle" dominant-baseline="text-after-edge" fill-opacity="1">AC:L</text><path fill="rgb(255,0,102)" stroke="rgb(0,0,0)" paint-order="fill stroke markers" d=" M 228 469.8 L 227.93064000899537 471.5653296538765 L 227.7229876633906 473.3197754634052 L 227.37832320894773 475.0525206867579 L 226.89877161664094 476.7528823734363 L 226.28728948150396 478.41037722821454 L 225.5476467942383 480.0147862441398 L 224.68440369796707 481.55621770610884 L 223.70288237343632 483.0251681765807 L 222.6091342260007 484.41258108742915 L 221.40990257669733 485.70990257669735 L 220.11258108742913 486.90913422600073 L 218.72516817658064 488.0028823734363 L 217.25621770610886 488.9844036979671 L 215.71478624413982 489.8476467942383 L 214.11037722821453 490.58728948150394 L 212.45288237343632 491.19877161664095 L 210.75252068675786 491.67832320894775 L 209.01977546340518 492.0229876633906 L 207.2653296538765 492.2306400089954 L 205.5 492.3 L 203.7346703461235 492.2306400089954 L 201.98022453659482 492.0229876633906 L 200.24747931324214 491.67832320894775 L 198.54711762656368 491.19877161664095 L 196.88962277178547 490.58728948150394 L 195.2852137558602 489.8476467942383 L 193.74378229389114 488.9844036979671 L 192.27483182341936 488.0028823734363 L 190.88741891257087 486.90913422600073 L 189.5900974233027 485.70990257669735 L 188.3908657739993 484.41258108742915 L 187.29711762656368 483.0251681765807 L 186.31559630203293 481.55621770610884 L 185.4523532057617 480.0147862441398 L 184.71271051849604 478.41037722821454 L 184.10122838335906 476.7528823734363 L 183.62167679105227 475.0525206867579 L 183.2770123366094 473.3197754634052 L 183.06935999100463 471.5653296538765 L 183 469.8 L 183.06935999100463 468.0346703461235 L 183.2770123366094 466.2802245365948 L 183.62167679105227 464.54747931324215 L 184.10122838335906 462.8471176265637 L 184.71271051849604 461.1896227717855 L 185.4523532057617 459.5852137558602 L 186.31559630203293 458.0437822938912 L 187.29711762656368 456.57483182341934 L 188.3908657739993 455.1874189125709 L 189.59009742330267 453.8900974233027 L 190.88741891257087 452.69086577399935 L 192.27483182341936 451.5971176265637 L 193.74378229389114 450.61559630203294 L 195.2852137558602 449.7523532057617 L 196.8896227717855 449.0127105184961 L 198.5471176265637 448.40122838335907 L 200.24747931324217 447.9216767910523 L 201.98022453659485 447.5770123366094 L 203.73467034612355 447.3693599910046 L 205.50000000000009 447.3 L 207.2653296538766 447.3693599910046 L 209.0197754634053 447.5770123366094 L 210.75252068675798 447.92167679105233 L 212.45288237343644 448.40122838335907 L 214.11037722821465 449.0127105184961 L 215.71478624413993 449.7523532057618 L 217.25621770610897 450.615596302033 L 218.72516817658078 451.5971176265638 L 220.11258108742925 452.6908657739994 L 221.40990257669745 453.8900974233028 L 222.6091342260008 455.18741891257105 L 223.70288237343644 456.5748318234195 L 224.68440369796718 458.04378229389135 L 225.54764679423837 459.5852137558604 L 226.28728948150405 461.1896227717857 L 226.89877161664103 462.84711762656394 L 227.3783232089478 464.5474793132424 L 227.72298766339065 466.2802245365951 L 227.9306400089954 468.0346703461238 Z" fill-opacity="1" stroke-opacity="1" stroke-miterlimit="10" stroke-width="2"/><text fill="none" stroke="rgb(0,0,0)" font-family="Helvetica Neue, Helvetica, sans-serif" font-size="10px" font-style="normal" font-weight="normal" text-decoration="normal" x="205.5" y="447.3" text-anchor="middle" dominant-baseline="text-after-edge" stroke-opacity="1" stroke-linejoin="round" stroke-miterlimit="10" stroke-width="4">Hacker</text><text fill="rgb(255,255,255)" stroke="none" font-family="Helvetica Neue, Helvetica, sans-serif" font-size="10px" font-style="normal" font-weight="normal" text-decoration="normal" x="205.5" y="447.3" text-anchor="middle" dominant-baseline="text-after-edge" fill-opacity="1">Hacker</text><path fill="rgb(99,102,241)" stroke="rgb(255,0,102)" paint-order="fill stroke markers" d=" M 81 514.8 L 80.95376000599691 515.9768864359177 L 80.81532510892707 517.1465169756034 L 80.58554880596515 518.3016804578385 L 80.2658477444273 519.4352549156241 L 79.8581929876693 520.5402514854763 L 79.36509786282552 521.6098574960931 L 78.78960246531139 522.6374784707392 L 78.13525491562422 523.6167787843871 L 77.40608948400046 524.5417207249527 L 76.60660171779821 525.4066017177981 L 75.74172072495276 526.2060894840005 L 74.8167787843871 526.9352549156241 L 73.83747847073923 527.5896024653114 L 72.8098574960932 528.1650978628255 L 71.74025148547635 528.6581929876693 L 70.63525491562422 529.0658477444273 L 69.50168045783859 529.3855488059651 L 68.34651697560346 529.615325108927 L 67.17688643591768 529.7537600059969 L 66 529.8 L 64.82311356408232 529.7537600059969 L 63.653483024396536 529.615325108927 L 62.49831954216142 529.3855488059651 L 61.36474508437579 529.0658477444273 L 60.25974851452365 528.6581929876693 L 59.1901425039068 528.1650978628255 L 58.16252152926077 527.5896024653114 L 57.1832212156129 526.9352549156241 L 56.258279275047244 526.2060894840005 L 55.39339828220179 525.4066017177981 L 54.59391051599954 524.5417207249527 L 53.86474508437579 523.6167787843871 L 53.21039753468862 522.6374784707392 L 52.634902137174485 521.6098574960931 L 52.1418070123307 520.5402514854763 L 51.734152255572695 519.4352549156241 L 51.414451194034854 518.3016804578385 L 51.18467489107294 517.1465169756034 L 51.04623999400308 515.9768864359177 L 51 514.8 L 51.04623999400308 513.6231135640822 L 51.18467489107293 512.4534830243965 L 51.414451194034854 511.2983195421614 L 51.734152255572695 510.16474508437574 L 52.141807012330695 509.0597485145236 L 52.63490213717448 507.9901425039068 L 53.21039753468862 506.9625215292607 L 53.864745084375784 505.98322121561284 L 54.59391051599953 505.0582792750472 L 55.39339828220179 504.19339828220177 L 56.25827927504724 503.3939105159995 L 57.1832212156129 502.66474508437574 L 58.16252152926077 502.0103975346886 L 59.190142503906806 501.43490213717445 L 60.25974851452367 500.9418070123306 L 61.36474508437581 500.5341522555726 L 62.49831954216145 500.2144511940348 L 63.65348302439657 499.98467489107287 L 64.82311356408238 499.84623999400304 L 66.00000000000006 499.79999999999995 L 67.17688643591774 499.84623999400304 L 68.34651697560352 499.98467489107287 L 69.50168045783865 500.21445119403484 L 70.63525491562429 500.5341522555727 L 71.74025148547642 500.9418070123307 L 72.80985749609329 501.4349021371745 L 73.83747847073931 502.01039753468865 L 74.81677878438718 502.6647450843758 L 75.74172072495284 503.39391051599955 L 76.6066017177983 504.1933982822018 L 77.40608948400055 505.0582792750473 L 78.13525491562429 505.98322121561296 L 78.78960246531145 506.9625215292608 L 79.36509786282558 507.9901425039069 L 79.85819298766936 509.05974851452373 L 80.26584774442735 510.1647450843759 L 80.58554880596519 511.29831954216155 L 80.8153251089271 512.4534830243966 L 80.95376000599694 513.6231135640825 Z" fill-opacity="1" stroke-opacity="1" stroke-miterlimit="10" stroke-width="2"/><text fill="none" stroke="rgb(0,0,0)" font-family="Helvetica Neue, Helvetica, sans-serif" font-size="10px" font-style="normal" font-weight="normal" text-decoration="normal" x="66" y="499.79999999999995" text-anchor="middle" dominant-baseline="text-after-edge" stroke-opacity="1" stroke-linejoin="round" stroke-miterlimit="10" stroke-width="4">AV:N</text><text fill="rgb(255,255,255)" stroke="none" font-family="Helvetica Neue, Helvetica, sans-serif" font-size="10px" font-style="normal" font-weight="normal" text-decoration="normal" x="66" y="499.79999999999995" text-anchor="middle" dominant-baseline="text-after-edge" fill-opacity="1">AV:N</text><path fill="rgb(99,102,241)" stroke="rgb(255,0,102)" paint-order="fill stroke markers" d=" M 81 424.8 L 80.95376000599691 425.97688643591766 L 80.81532510892707 427.14651697560345 L 80.58554880596515 428.3016804578386 L 80.2658477444273 429.4352549156242 L 79.8581929876693 430.54025148547635 L 79.36509786282552 431.60985749609324 L 78.78960246531139 432.63747847073927 L 78.13525491562422 433.6167787843871 L 77.40608948400046 434.54172072495277 L 76.60660171779821 435.4066017177982 L 75.74172072495276 436.2060894840005 L 74.8167787843871 436.9352549156242 L 73.83747847073923 437.5896024653114 L 72.8098574960932 438.1650978628255 L 71.74025148547635 438.65819298766934 L 70.63525491562422 439.0658477444273 L 69.50168045783859 439.3855488059652 L 68.34651697560346 439.6153251089271 L 67.17688643591768 439.7537600059969 L 66 439.8 L 64.82311356408232 439.7537600059969 L 63.653483024396536 439.6153251089271 L 62.49831954216142 439.3855488059652 L 61.36474508437579 439.0658477444273 L 60.25974851452365 438.65819298766934 L 59.1901425039068 438.1650978628255 L 58.16252152926077 437.5896024653114 L 57.1832212156129 436.9352549156242 L 56.258279275047244 436.2060894840005 L 55.39339828220179 435.40660171779825 L 54.59391051599954 434.54172072495277 L 53.86474508437579 433.6167787843871 L 53.21039753468862 432.63747847073927 L 52.634902137174485 431.60985749609324 L 52.1418070123307 430.54025148547635 L 51.734152255572695 429.4352549156242 L 51.414451194034854 428.3016804578386 L 51.18467489107294 427.1465169756035 L 51.04623999400308 425.97688643591766 L 51 424.8 L 51.04623999400308 423.62311356408236 L 51.18467489107293 422.4534830243966 L 51.414451194034854 421.29831954216144 L 51.734152255572695 420.1647450843758 L 52.141807012330695 419.0597485145237 L 52.63490213717448 417.99014250390684 L 53.21039753468862 416.96252152926075 L 53.864745084375784 415.9832212156129 L 54.59391051599953 415.05827927504725 L 55.39339828220179 414.1933982822018 L 56.25827927504724 413.39391051599955 L 57.1832212156129 412.6647450843758 L 58.16252152926077 412.01039753468865 L 59.190142503906806 411.4349021371745 L 60.25974851452367 410.9418070123307 L 61.36474508437581 410.5341522555727 L 62.49831954216145 410.21445119403484 L 63.65348302439657 409.9846748910729 L 64.82311356408238 409.8462399940031 L 66.00000000000006 409.8 L 67.17688643591774 409.8462399940031 L 68.34651697560352 409.9846748910729 L 69.50168045783865 410.2144511940349 L 70.63525491562429 410.53415225557274 L 71.74025148547642 410.94180701233074 L 72.80985749609329 411.43490213717456 L 73.83747847073931 412.01039753468865 L 74.81677878438718 412.66474508437585 L 75.74172072495284 413.3939105159996 L 76.6066017177983 414.1933982822019 L 77.40608948400055 415.05827927504737 L 78.13525491562429 415.983221215613 L 78.78960246531145 416.96252152926087 L 79.36509786282558 417.99014250390695 L 79.85819298766936 419.0597485145238 L 80.26584774442735 420.16474508437597 L 80.58554880596519 421.2983195421616 L 80.8153251089271 422.4534830243967 L 80.95376000599694 423.62311356408253 Z" fill-opacity="1" stroke-opacity="1" stroke-miterlimit="10" stroke-width="2"/><text fill="none" stroke="rgb(0,0,0)" font-family="Helvetica Neue, Helvetica, sans-serif" font-size="10px" font-style="normal" font-weight="normal" text-decoration="normal" x="66" y="409.8" text-anchor="middle" dominant-baseline="text-after-edge" stroke-opacity="1" stroke-linejoin="round" stroke-miterlimit="10" stroke-width="4">PR:N</text><text fill="rgb(255,255,255)" stroke="none" font-family="Helvetica Neue, Helvetica, sans-serif" font-size="10px" font-style="normal" font-weight="normal" text-decoration="normal" x="66" y="409.8" text-anchor="middle" dominant-baseline="text-after-edge" fill-opacity="1">PR:N</text><path fill="rgb(234,179,8)" stroke="rgb(0,0,0)" paint-order="fill stroke markers" d=" M 607 561.25 L 606.9460533403297 562.6230341752373 L 606.7845459604149 563.987603138204 L 606.5164736069594 565.3352938674783 L 606.1434890351652 566.6577974015615 L 605.6678918189475 567.9469600663891 L 605.0926141732964 569.1948337454421 L 604.4212028761966 570.3937248825291 L 603.6577974015615 571.5362419151182 L 602.8071043980005 572.6153408457782 L 601.8743686707646 573.6243686707646 L 600.8653408457782 574.5571043980005 L 599.7862419151182 575.4077974015615 L 598.6437248825291 576.1712028761966 L 597.4448337454421 576.8426141732964 L 596.1969600663891 577.4178918189475 L 594.9077974015615 577.8934890351652 L 593.5852938674783 578.2664736069594 L 592.237603138204 578.5345459604149 L 590.8730341752373 578.6960533403297 L 589.5 578.75 L 588.1269658247627 578.6960533403297 L 586.762396861796 578.5345459604149 L 585.4147061325217 578.2664736069594 L 584.0922025984385 577.8934890351652 L 582.8030399336109 577.4178918189475 L 581.5551662545579 576.8426141732964 L 580.3562751174709 576.1712028761966 L 579.2137580848818 575.4077974015615 L 578.1346591542218 574.5571043980005 L 577.1256313292354 573.6243686707646 L 576.1928956019995 572.6153408457782 L 575.3422025984385 571.5362419151182 L 574.5787971238034 570.3937248825291 L 573.9073858267036 569.1948337454421 L 573.3321081810525 567.9469600663891 L 572.8565109648348 566.6577974015615 L 572.4835263930406 565.3352938674783 L 572.2154540395851 563.987603138204 L 572.0539466596703 562.6230341752373 L 572 561.25 L 572.0539466596703 559.8769658247627 L 572.2154540395851 558.512396861796 L 572.4835263930406 557.1647061325217 L 572.8565109648348 555.8422025984385 L 573.3321081810525 554.5530399336109 L 573.9073858267036 553.3051662545579 L 574.5787971238034 552.1062751174709 L 575.3422025984385 550.9637580848818 L 576.1928956019995 549.8846591542218 L 577.1256313292354 548.8756313292354 L 578.1346591542218 547.9428956019995 L 579.2137580848818 547.0922025984385 L 580.3562751174709 546.3287971238034 L 581.5551662545579 545.6573858267036 L 582.803039933611 545.0821081810525 L 584.0922025984385 544.6065109648348 L 585.4147061325217 544.2335263930406 L 586.762396861796 543.9654540395851 L 588.1269658247628 543.8039466596703 L 589.5000000000001 543.75 L 590.8730341752373 543.8039466596703 L 592.2376031382041 543.9654540395851 L 593.5852938674784 544.2335263930406 L 594.9077974015617 544.6065109648348 L 596.1969600663891 545.0821081810525 L 597.4448337454421 545.6573858267036 L 598.6437248825292 546.3287971238035 L 599.7862419151184 547.0922025984385 L 600.8653408457783 547.9428956019996 L 601.8743686707646 548.8756313292355 L 602.8071043980007 549.8846591542219 L 603.6577974015617 550.9637580848819 L 604.4212028761967 552.106275117471 L 605.0926141732965 553.3051662545581 L 605.6678918189476 554.5530399336111 L 606.1434890351652 555.8422025984386 L 606.5164736069594 557.1647061325218 L 606.7845459604149 558.5123968617961 L 606.9460533403297 559.8769658247629 Z" fill-opacity="1" stroke-opacity="1" stroke-miterlimit="10" stroke-width="2"/><text fill="none" stroke="rgb(0,0,0)" font-family="Helvetica Neue, Helvetica, sans-serif" font-size="10px" font-style="normal" font-weight="normal" text-decoration="normal" x="589.5" y="543.75" text-anchor="middle" dominant-baseline="text-after-edge" stroke-opacity="1" stroke-linejoin="round" stroke-miterlimit="10" stroke-width="4">CVE-2025-68121</text><text fill="rgb(255,255,255)" stroke="none" font-family="Helvetica Neue, Helvetica, sans-serif" font-size="10px" font-style="normal" font-weight="normal" text-decoration="normal" x="589.5" y="543.75" text-anchor="middle" dominant-baseline="text-after-edge" fill-opacity="1">CVE-2025-68121</text><path fill="rgb(99,102,241)" stroke="rgb(0,0,0)" paint-order="fill stroke markers" d=" M 789 511.5 L 788.953760005997 512.6768864359177 L 788.815325108927 513.8465169756034 L 788.5855488059651 515.0016804578386 L 788.2658477444273 516.1352549156242 L 787.8581929876693 517.2402514854764 L 787.3650978628256 518.3098574960932 L 786.7896024653114 519.3374784707393 L 786.1352549156242 520.3167787843871 L 785.4060894840005 521.2417207249528 L 784.6066017177982 522.1066017177982 L 783.7417207249528 522.9060894840005 L 782.8167787843871 523.6352549156242 L 781.8374784707393 524.2896024653114 L 780.8098574960932 524.8650978628256 L 779.7402514854764 525.3581929876693 L 778.6352549156242 525.7658477444273 L 777.5016804578386 526.0855488059651 L 776.3465169756034 526.315325108927 L 775.1768864359177 526.453760005997 L 774 526.5 L 772.8231135640823 526.453760005997 L 771.6534830243966 526.315325108927 L 770.4983195421614 526.0855488059651 L 769.3647450843758 525.7658477444273 L 768.2597485145236 525.3581929876693 L 767.1901425039068 524.8650978628256 L 766.1625215292607 524.2896024653114 L 765.1832212156129 523.6352549156242 L 764.2582792750472 522.9060894840005 L 763.3933982822018 522.1066017177982 L 762.5939105159995 521.2417207249528 L 761.8647450843758 520.3167787843871 L 761.2103975346886 519.3374784707393 L 760.6349021371744 518.3098574960932 L 760.1418070123307 517.2402514854764 L 759.7341522555727 516.1352549156242 L 759.4144511940349 515.0016804578386 L 759.184674891073 513.8465169756034 L 759.046239994003 512.6768864359177 L 759 511.5 L 759.046239994003 510.32311356408235 L 759.184674891073 509.15348302439656 L 759.4144511940349 507.9983195421614 L 759.7341522555727 506.8647450843758 L 760.1418070123307 505.75974851452366 L 760.6349021371744 504.6901425039068 L 761.2103975346886 503.66252152926074 L 761.8647450843758 502.6832212156129 L 762.5939105159995 501.75827927504724 L 763.3933982822018 500.8933982822018 L 764.2582792750472 500.09391051599954 L 765.1832212156129 499.3647450843758 L 766.1625215292607 498.71039753468864 L 767.1901425039068 498.1349021371745 L 768.2597485145237 497.6418070123307 L 769.3647450843758 497.23415225557267 L 770.4983195421614 496.9144511940348 L 771.6534830243966 496.6846748910729 L 772.8231135640824 496.5462399940031 L 774 496.5 L 775.1768864359177 496.5462399940031 L 776.3465169756035 496.6846748910729 L 777.5016804578387 496.9144511940349 L 778.6352549156243 497.2341522555727 L 779.7402514854764 497.64180701233073 L 780.8098574960933 498.13490213717455 L 781.8374784707394 498.7103975346887 L 782.8167787843872 499.36474508437584 L 783.7417207249529 500.0939105159996 L 784.6066017177983 500.8933982822019 L 785.4060894840005 501.75827927504736 L 786.1352549156243 502.683221215613 L 786.7896024653114 503.66252152926086 L 787.3650978628256 504.69014250390694 L 787.8581929876693 505.7597485145238 L 788.2658477444273 506.86474508437595 L 788.5855488059652 507.9983195421616 L 788.8153251089271 509.1534830243967 L 788.953760005997 510.3231135640825 Z" fill-opacity="1" stroke-opacity="1" stroke-miterlimit="10" stroke-width="2"/><text fill="none" stroke="rgb(0,0,0)" font-family="Helvetica Neue, Helvetica, sans-serif" font-size="10px" font-style="normal" font-weight="normal" text-decoration="normal" x="774" y="496.5" text-anchor="middle" dominant-baseline="text-after-edge" stroke-opacity="1" stroke-linejoin="round" stroke-miterlimit="10" stroke-width="4">AV:L</text><text fill="rgb(255,255,255)" stroke="none" font-family="Helvetica Neue, Helvetica, sans-serif" font-size="10px" font-style="normal" font-weight="normal" text-decoration="normal" x="774" y="496.5" text-anchor="middle" dominant-baseline="text-after-edge" fill-opacity="1">AV:L</text><path fill="rgb(99,102,241)" stroke="rgb(0,0,0)" paint-order="fill stroke markers" d=" M 789 765.5 L 788.953760005997 766.6768864359177 L 788.815325108927 767.8465169756034 L 788.5855488059651 769.0016804578386 L 788.2658477444273 770.1352549156242 L 787.8581929876693 771.2402514854764 L 787.3650978628256 772.3098574960932 L 786.7896024653114 773.3374784707393 L 786.1352549156242 774.3167787843871 L 785.4060894840005 775.2417207249528 L 784.6066017177982 776.1066017177982 L 783.7417207249528 776.9060894840005 L 782.8167787843871 777.6352549156242 L 781.8374784707393 778.2896024653114 L 780.8098574960932 778.8650978628256 L 779.7402514854764 779.3581929876693 L 778.6352549156242 779.7658477444273 L 777.5016804578386 780.0855488059651 L 776.3465169756034 780.315325108927 L 775.1768864359177 780.453760005997 L 774 780.5 L 772.8231135640823 780.453760005997 L 771.6534830243966 780.315325108927 L 770.4983195421614 780.0855488059651 L 769.3647450843758 779.7658477444273 L 768.2597485145236 779.3581929876693 L 767.1901425039068 778.8650978628256 L 766.1625215292607 778.2896024653114 L 765.1832212156129 777.6352549156242 L 764.2582792750472 776.9060894840005 L 763.3933982822018 776.1066017177982 L 762.5939105159995 775.2417207249528 L 761.8647450843758 774.3167787843871 L 761.2103975346886 773.3374784707393 L 760.6349021371744 772.3098574960932 L 760.1418070123307 771.2402514854764 L 759.7341522555727 770.1352549156242 L 759.4144511940349 769.0016804578386 L 759.184674891073 767.8465169756034 L 759.046239994003 766.6768864359177 L 759 765.5 L 759.046239994003 764.3231135640823 L 759.184674891073 763.1534830243966 L 759.4144511940349 761.9983195421614 L 759.7341522555727 760.8647450843758 L 760.1418070123307 759.7597485145236 L 760.6349021371744 758.6901425039068 L 761.2103975346886 757.6625215292607 L 761.8647450843758 756.6832212156129 L 762.5939105159995 755.7582792750472 L 763.3933982822018 754.8933982822018 L 764.2582792750472 754.0939105159996 L 765.1832212156129 753.3647450843758 L 766.1625215292607 752.7103975346886 L 767.1901425039068 752.1349021371744 L 768.2597485145237 751.6418070123307 L 769.3647450843758 751.2341522555727 L 770.4983195421614 750.9144511940349 L 771.6534830243966 750.684674891073 L 772.8231135640824 750.546239994003 L 774 750.5 L 775.1768864359177 750.546239994003 L 776.3465169756035 750.684674891073 L 777.5016804578387 750.9144511940349 L 778.6352549156243 751.2341522555727 L 779.7402514854764 751.6418070123307 L 780.8098574960933 752.1349021371745 L 781.8374784707394 752.7103975346887 L 782.8167787843872 753.3647450843758 L 783.7417207249529 754.0939105159996 L 784.6066017177983 754.8933982822018 L 785.4060894840005 755.7582792750474 L 786.1352549156243 756.683221215613 L 786.7896024653114 757.6625215292609 L 787.3650978628256 758.6901425039069 L 787.8581929876693 759.7597485145238 L 788.2658477444273 760.864745084376 L 788.5855488059652 761.9983195421615 L 788.8153251089271 763.1534830243967 L 788.953760005997 764.3231135640825 Z" fill-opacity="1" stroke-opacity="1" stroke-miterlimit="10" stroke-width="2"/><text fill="none" stroke="rgb(0,0,0)" font-family="Helvetica Neue, Helvetica, sans-serif" font-size="10px" font-style="normal" font-weight="normal" text-decoration="normal" x="774" y="750.5" text-anchor="middle" dominant-baseline="text-after-edge" stroke-opacity="1" stroke-linejoin="round" stroke-miterlimit="10" stroke-width="4">PR:H</text><text fill="rgb(255,255,255)" stroke="none" font-family="Helvetica Neue, Helvetica, sans-serif" font-size="10px" font-style="normal" font-weight="normal" text-decoration="normal" x="774" y="750.5" text-anchor="middle" dominant-baseline="text-after-edge" fill-opacity="1">PR:H</text><path fill="rgb(255,0,0)" stroke="rgb(255,215,0)" paint-order="fill stroke markers" d=" M 1054 179.25 L 1044.7343318831333 193.47991935488204 L 1029 198.34830056250524 L 1039.0078340584334 212.01125558861554 L 1038.5491502812527 229.25 L 1054 223.46425123801532 L 1069.4508497187473 229.25 L 1068.9921659415666 212.01125558861554 L 1079 198.34830056250527 L 1063.2656681168667 193.47991935488207 Z" fill-opacity="1" stroke-opacity="1" stroke-miterlimit="10" stroke-width="4"/><text fill="none" stroke="rgb(0,0,0)" font-family="Helvetica Neue, Helvetica, sans-serif" font-size="10px" font-style="normal" font-weight="bold" text-decoration="normal" x="1054" y="179.25" text-anchor="middle" dominant-baseline="text-after-edge" stroke-opacity="1" stroke-linejoin="round" stroke-miterlimit="10" stroke-width="4">EXPLOITED</text><text fill="rgb(255,255,255)" stroke="none" font-family="Helvetica Neue, Helvetica, sans-serif" font-size="10px" font-style="normal" font-weight="bold" text-decoration="normal" x="1054" y="179.25" text-anchor="middle" dominant-baseline="text-after-edge" fill-opacity="1">EXPLOITED</text><path fill="rgb(234,179,8)" stroke="rgb(0,0,0)" paint-order="fill stroke markers" d=" M 607 471.25 L 606.9460533403297 472.6230341752373 L 606.7845459604149 473.98760313820407 L 606.5164736069594 475.33529386747836 L 606.1434890351652 476.6577974015616 L 605.6678918189475 477.94696006638907 L 605.0926141732964 479.19483374544205 L 604.4212028761966 480.3937248825291 L 603.6577974015615 481.5362419151183 L 602.8071043980005 482.61534084577823 L 601.8743686707646 483.62436867076457 L 600.8653408457782 484.55710439800055 L 599.7862419151182 485.4077974015616 L 598.6437248825291 486.1712028761966 L 597.4448337454421 486.84261417329645 L 596.1969600663891 487.4178918189475 L 594.9077974015615 487.8934890351652 L 593.5852938674783 488.2664736069593 L 592.237603138204 488.5345459604149 L 590.8730341752373 488.69605334032974 L 589.5 488.75 L 588.1269658247627 488.69605334032974 L 586.762396861796 488.5345459604149 L 585.4147061325217 488.2664736069593 L 584.0922025984385 487.8934890351652 L 582.8030399336109 487.4178918189475 L 581.5551662545579 486.84261417329645 L 580.3562751174709 486.1712028761966 L 579.2137580848818 485.4077974015616 L 578.1346591542218 484.55710439800055 L 577.1256313292354 483.62436867076457 L 576.1928956019995 482.61534084577823 L 575.3422025984385 481.5362419151183 L 574.5787971238034 480.3937248825291 L 573.9073858267036 479.19483374544205 L 573.3321081810525 477.94696006638907 L 572.8565109648348 476.6577974015616 L 572.4835263930406 475.33529386747836 L 572.2154540395851 473.98760313820407 L 572.0539466596703 472.6230341752373 L 572 471.25 L 572.0539466596703 469.8769658247627 L 572.2154540395851 468.51239686179593 L 572.4835263930406 467.16470613252164 L 572.8565109648348 465.8422025984384 L 573.3321081810525 464.55303993361093 L 573.9073858267036 463.30516625455795 L 574.5787971238034 462.1062751174709 L 575.3422025984385 460.9637580848817 L 576.1928956019995 459.88465915422177 L 577.1256313292354 458.87563132923543 L 578.1346591542218 457.94289560199945 L 579.2137580848818 457.0922025984384 L 580.3562751174709 456.3287971238034 L 581.5551662545579 455.65738582670355 L 582.803039933611 455.0821081810525 L 584.0922025984385 454.6065109648348 L 585.4147061325217 454.2335263930407 L 586.762396861796 453.9654540395851 L 588.1269658247628 453.80394665967026 L 589.5000000000001 453.75 L 590.8730341752373 453.80394665967026 L 592.2376031382041 453.9654540395851 L 593.5852938674784 454.2335263930407 L 594.9077974015617 454.60651096483485 L 596.1969600663891 455.0821081810525 L 597.4448337454421 455.6573858267036 L 598.6437248825292 456.32879712380344 L 599.7862419151184 457.0922025984385 L 600.8653408457783 457.94289560199957 L 601.8743686707646 458.8756313292355 L 602.8071043980007 459.8846591542219 L 603.6577974015617 460.9637580848818 L 604.4212028761967 462.10627511747106 L 605.0926141732965 463.30516625455806 L 605.6678918189476 464.5530399336111 L 606.1434890351652 465.8422025984386 L 606.5164736069594 467.1647061325218 L 606.7845459604149 468.51239686179616 L 606.9460533403297 469.8769658247629 Z" fill-opacity="1" stroke-opacity="1" stroke-miterlimit="10" stroke-width="2"/><text fill="none" stroke="rgb(0,0,0)" font-family="Helvetica Neue, Helvetica, sans-serif" font-size="10px" font-style="normal" font-weight="normal" text-decoration="normal" x="589.5" y="453.75" text-anchor="middle" dominant-baseline="text-after-edge" stroke-opacity="1" stroke-linejoin="round" stroke-miterlimit="10" stroke-width="4">CVE-2026-25679</text><text fill="rgb(255,255,255)" stroke="none" font-family="Helvetica Neue, Helvetica, sans-serif" font-size="10px" font-style="normal" font-weight="normal" text-decoration="normal" x="589.5" y="453.75" text-anchor="middle" dominant-baseline="text-after-edge" fill-opacity="1">CVE-2026-25679</text><path fill="rgb(99,102,241)" stroke="rgb(255,0,102)" paint-order="fill stroke markers" d=" M 81 379.8 L 80.95376000599691 380.97688643591766 L 80.81532510892707 382.14651697560345 L 80.58554880596515 383.3016804578386 L 80.2658477444273 384.4352549156242 L 79.8581929876693 385.54025148547635 L 79.36509786282552 386.60985749609324 L 78.78960246531139 387.63747847073927 L 78.13525491562422 388.6167787843871 L 77.40608948400046 389.54172072495277 L 76.60660171779821 390.4066017177982 L 75.74172072495276 391.2060894840005 L 74.8167787843871 391.9352549156242 L 73.83747847073923 392.5896024653114 L 72.8098574960932 393.1650978628255 L 71.74025148547635 393.65819298766934 L 70.63525491562422 394.0658477444273 L 69.50168045783859 394.3855488059652 L 68.34651697560346 394.6153251089271 L 67.17688643591768 394.7537600059969 L 66 394.8 L 64.82311356408232 394.7537600059969 L 63.653483024396536 394.6153251089271 L 62.49831954216142 394.3855488059652 L 61.36474508437579 394.0658477444273 L 60.25974851452365 393.65819298766934 L 59.1901425039068 393.1650978628255 L 58.16252152926077 392.5896024653114 L 57.1832212156129 391.9352549156242 L 56.258279275047244 391.2060894840005 L 55.39339828220179 390.40660171779825 L 54.59391051599954 389.54172072495277 L 53.86474508437579 388.6167787843871 L 53.21039753468862 387.63747847073927 L 52.634902137174485 386.60985749609324 L 52.1418070123307 385.54025148547635 L 51.734152255572695 384.4352549156242 L 51.414451194034854 383.3016804578386 L 51.18467489107294 382.1465169756035 L 51.04623999400308 380.97688643591766 L 51 379.8 L 51.04623999400308 378.62311356408236 L 51.18467489107293 377.4534830243966 L 51.414451194034854 376.29831954216144 L 51.734152255572695 375.1647450843758 L 52.141807012330695 374.0597485145237 L 52.63490213717448 372.99014250390684 L 53.21039753468862 371.96252152926075 L 53.864745084375784 370.9832212156129 L 54.59391051599953 370.05827927504725 L 55.39339828220179 369.1933982822018 L 56.25827927504724 368.39391051599955 L 57.1832212156129 367.6647450843758 L 58.16252152926077 367.01039753468865 L 59.190142503906806 366.4349021371745 L 60.25974851452367 365.9418070123307 L 61.36474508437581 365.5341522555727 L 62.49831954216145 365.21445119403484 L 63.65348302439657 364.9846748910729 L 64.82311356408238 364.8462399940031 L 66.00000000000006 364.8 L 67.17688643591774 364.8462399940031 L 68.34651697560352 364.9846748910729 L 69.50168045783865 365.2144511940349 L 70.63525491562429 365.53415225557274 L 71.74025148547642 365.94180701233074 L 72.80985749609329 366.43490213717456 L 73.83747847073931 367.01039753468865 L 74.81677878438718 367.66474508437585 L 75.74172072495284 368.3939105159996 L 76.6066017177983 369.1933982822019 L 77.40608948400055 370.05827927504737 L 78.13525491562429 370.983221215613 L 78.78960246531145 371.96252152926087 L 79.36509786282558 372.99014250390695 L 79.85819298766936 374.0597485145238 L 80.26584774442735 375.16474508437597 L 80.58554880596519 376.2983195421616 L 80.8153251089271 377.4534830243967 L 80.95376000599694 378.62311356408253 Z" fill-opacity="1" stroke-opacity="1" stroke-miterlimit="10" stroke-width="2"/><text fill="none" stroke="rgb(0,0,0)" font-family="Helvetica Neue, Helvetica, sans-serif" font-size="10px" font-style="normal" font-weight="normal" text-decoration="normal" x="66" y="364.8" text-anchor="middle" dominant-baseline="text-after-edge" stroke-opacity="1" stroke-linejoin="round" stroke-miterlimit="10" stroke-width="4">UI:N</text><text fill="rgb(255,255,255)" stroke="none" font-family="Helvetica Neue, Helvetica, sans-serif" font-size="10px" font-style="normal" font-weight="normal" text-decoration="normal" x="66" y="364.8" text-anchor="middle" dominant-baseline="text-after-edge" fill-opacity="1">UI:N</text><path fill="rgb(234,179,8)" stroke="rgb(0,0,0)" paint-order="fill stroke markers" d=" M 607 74.5 L 606.9460533403297 75.87303417523728 L 606.7845459604149 77.23760313820404 L 606.5164736069594 78.58529386747834 L 606.1434890351652 79.90779740156158 L 605.6678918189475 81.19696006638907 L 605.0926141732964 82.44483374544207 L 604.4212028761966 83.6437248825291 L 603.6577974015615 84.78624191511828 L 602.8071043980005 85.8653408457782 L 601.8743686707646 86.87436867076458 L 600.8653408457782 87.80710439800055 L 599.7862419151182 88.65779740156158 L 598.6437248825291 89.42120287619662 L 597.4448337454421 90.09261417329644 L 596.1969600663891 90.66789181894751 L 594.9077974015615 91.14348903516519 L 593.5852938674783 91.51647360695934 L 592.237603138204 91.7845459604149 L 590.8730341752373 91.94605334032974 L 589.5 92 L 588.1269658247627 91.94605334032974 L 586.762396861796 91.7845459604149 L 585.4147061325217 91.51647360695934 L 584.0922025984385 91.14348903516519 L 582.8030399336109 90.66789181894751 L 581.5551662545579 90.09261417329644 L 580.3562751174709 89.42120287619662 L 579.2137580848818 88.65779740156158 L 578.1346591542218 87.80710439800055 L 577.1256313292354 86.87436867076458 L 576.1928956019995 85.86534084577822 L 575.3422025984385 84.78624191511828 L 574.5787971238034 83.64372488252911 L 573.9073858267036 82.44483374544207 L 573.3321081810525 81.19696006638907 L 572.8565109648348 79.90779740156158 L 572.4835263930406 78.58529386747834 L 572.2154540395851 77.23760313820404 L 572.0539466596703 75.8730341752373 L 572 74.5 L 572.0539466596703 73.12696582476272 L 572.2154540395851 71.76239686179596 L 572.4835263930406 70.41470613252166 L 572.8565109648348 69.09220259843842 L 573.3321081810525 67.80303993361093 L 573.9073858267036 66.55516625455793 L 574.5787971238034 65.3562751174709 L 575.3422025984385 64.21375808488172 L 576.1928956019995 63.13465915422179 L 577.1256313292354 62.12563132923542 L 578.1346591542218 61.19289560199947 L 579.2137580848818 60.34220259843842 L 580.3562751174709 59.57879712380338 L 581.5551662545579 58.90738582670356 L 582.803039933611 58.332108181052476 L 584.0922025984385 57.856510964834804 L 585.4147061325217 57.48352639304065 L 586.762396861796 57.21545403958508 L 588.1269658247628 57.05394665967026 L 589.5000000000001 57 L 590.8730341752373 57.05394665967027 L 592.2376031382041 57.2154540395851 L 593.5852938674784 57.48352639304068 L 594.9077974015617 57.85651096483484 L 596.1969600663891 58.33210818105252 L 597.4448337454421 58.90738582670361 L 598.6437248825292 59.57879712380345 L 599.7862419151184 60.34220259843849 L 600.8653408457783 61.19289560199954 L 601.8743686707646 62.12563132923552 L 602.8071043980007 63.13465915422189 L 603.6577974015617 64.21375808488185 L 604.4212028761967 65.35627511747103 L 605.0926141732965 66.55516625455807 L 605.6678918189476 67.80303993361109 L 606.1434890351652 69.09220259843859 L 606.5164736069594 70.41470613252184 L 606.7845459604149 71.76239686179616 L 606.9460533403297 73.12696582476292 Z" fill-opacity="1" stroke-opacity="1" stroke-miterlimit="10" stroke-width="2"/><text fill="none" stroke="rgb(0,0,0)" font-family="Helvetica Neue, Helvetica, sans-serif" font-size="10px" font-style="normal" font-weight="normal" text-decoration="normal" x="589.5" y="57" text-anchor="middle" dominant-baseline="text-after-edge" stroke-opacity="1" stroke-linejoin="round" stroke-miterlimit="10" stroke-width="4">CVE-2026-32280</text><text fill="rgb(255,255,255)" stroke="none" font-family="Helvetica Neue, Helvetica, sans-serif" font-size="10px" font-style="normal" font-weight="normal" text-decoration="normal" x="589.5" y="57" text-anchor="middle" dominant-baseline="text-after-edge" fill-opacity="1">CVE-2026-32280</text><path fill="rgb(234,179,8)" stroke="rgb(0,0,0)" paint-order="fill stroke markers" d=" M 607 381.25 L 606.9460533403297 382.6230341752373 L 606.7845459604149 383.98760313820407 L 606.5164736069594 385.33529386747836 L 606.1434890351652 386.6577974015616 L 605.6678918189475 387.94696006638907 L 605.0926141732964 389.19483374544205 L 604.4212028761966 390.3937248825291 L 603.6577974015615 391.5362419151183 L 602.8071043980005 392.61534084577823 L 601.8743686707646 393.62436867076457 L 600.8653408457782 394.55710439800055 L 599.7862419151182 395.4077974015616 L 598.6437248825291 396.1712028761966 L 597.4448337454421 396.84261417329645 L 596.1969600663891 397.4178918189475 L 594.9077974015615 397.8934890351652 L 593.5852938674783 398.2664736069593 L 592.237603138204 398.5345459604149 L 590.8730341752373 398.69605334032974 L 589.5 398.75 L 588.1269658247627 398.69605334032974 L 586.762396861796 398.5345459604149 L 585.4147061325217 398.2664736069593 L 584.0922025984385 397.8934890351652 L 582.8030399336109 397.4178918189475 L 581.5551662545579 396.84261417329645 L 580.3562751174709 396.1712028761966 L 579.2137580848818 395.4077974015616 L 578.1346591542218 394.55710439800055 L 577.1256313292354 393.62436867076457 L 576.1928956019995 392.61534084577823 L 575.3422025984385 391.5362419151183 L 574.5787971238034 390.3937248825291 L 573.9073858267036 389.19483374544205 L 573.3321081810525 387.94696006638907 L 572.8565109648348 386.6577974015616 L 572.4835263930406 385.33529386747836 L 572.2154540395851 383.98760313820407 L 572.0539466596703 382.6230341752373 L 572 381.25 L 572.0539466596703 379.8769658247627 L 572.2154540395851 378.51239686179593 L 572.4835263930406 377.16470613252164 L 572.8565109648348 375.8422025984384 L 573.3321081810525 374.55303993361093 L 573.9073858267036 373.30516625455795 L 574.5787971238034 372.1062751174709 L 575.3422025984385 370.9637580848817 L 576.1928956019995 369.88465915422177 L 577.1256313292354 368.87563132923543 L 578.1346591542218 367.94289560199945 L 579.2137580848818 367.0922025984384 L 580.3562751174709 366.3287971238034 L 581.5551662545579 365.65738582670355 L 582.803039933611 365.0821081810525 L 584.0922025984385 364.6065109648348 L 585.4147061325217 364.2335263930407 L 586.762396861796 363.9654540395851 L 588.1269658247628 363.80394665967026 L 589.5000000000001 363.75 L 590.8730341752373 363.80394665967026 L 592.2376031382041 363.9654540395851 L 593.5852938674784 364.2335263930407 L 594.9077974015617 364.60651096483485 L 596.1969600663891 365.0821081810525 L 597.4448337454421 365.6573858267036 L 598.6437248825292 366.32879712380344 L 599.7862419151184 367.0922025984385 L 600.8653408457783 367.94289560199957 L 601.8743686707646 368.8756313292355 L 602.8071043980007 369.8846591542219 L 603.6577974015617 370.9637580848818 L 604.4212028761967 372.10627511747106 L 605.0926141732965 373.30516625455806 L 605.6678918189476 374.5530399336111 L 606.1434890351652 375.8422025984386 L 606.5164736069594 377.1647061325218 L 606.7845459604149 378.51239686179616 L 606.9460533403297 379.8769658247629 Z" fill-opacity="1" stroke-opacity="1" stroke-miterlimit="10" stroke-width="2"/><text fill="none" stroke="rgb(0,0,0)" font-family="Helvetica Neue, Helvetica, sans-serif" font-size="10px" font-style="normal" font-weight="normal" text-decoration="normal" x="589.5" y="363.75" text-anchor="middle" dominant-baseline="text-after-edge" stroke-opacity="1" stroke-linejoin="round" stroke-miterlimit="10" stroke-width="4">CVE-2026-32281</text><text fill="rgb(255,255,255)" stroke="none" font-family="Helvetica Neue, Helvetica, sans-serif" font-size="10px" font-style="normal" font-weight="normal" text-decoration="normal" x="589.5" y="363.75" text-anchor="middle" dominant-baseline="text-after-edge" fill-opacity="1">CVE-2026-32281</text><path fill="rgb(234,179,8)" stroke="rgb(0,0,0)" paint-order="fill stroke markers" d=" M 607 119.5 L 606.9460533403297 120.87303417523728 L 606.7845459604149 122.23760313820404 L 606.5164736069594 123.58529386747834 L 606.1434890351652 124.90779740156158 L 605.6678918189475 126.19696006638907 L 605.0926141732964 127.44483374544207 L 604.4212028761966 128.6437248825291 L 603.6577974015615 129.78624191511827 L 602.8071043980005 130.8653408457782 L 601.8743686707646 131.87436867076457 L 600.8653408457782 132.80710439800055 L 599.7862419151182 133.6577974015616 L 598.6437248825291 134.42120287619662 L 597.4448337454421 135.09261417329643 L 596.1969600663891 135.6678918189475 L 594.9077974015615 136.14348903516517 L 593.5852938674783 136.51647360695935 L 592.237603138204 136.7845459604149 L 590.8730341752373 136.94605334032974 L 589.5 137 L 588.1269658247627 136.94605334032974 L 586.762396861796 136.7845459604149 L 585.4147061325217 136.51647360695935 L 584.0922025984385 136.1434890351652 L 582.8030399336109 135.6678918189475 L 581.5551662545579 135.09261417329643 L 580.3562751174709 134.42120287619662 L 579.2137580848818 133.6577974015616 L 578.1346591542218 132.80710439800055 L 577.1256313292354 131.87436867076457 L 576.1928956019995 130.8653408457782 L 575.3422025984385 129.7862419151183 L 574.5787971238034 128.6437248825291 L 573.9073858267036 127.44483374544207 L 573.3321081810525 126.19696006638907 L 572.8565109648348 124.90779740156158 L 572.4835263930406 123.58529386747834 L 572.2154540395851 122.23760313820404 L 572.0539466596703 120.8730341752373 L 572 119.5 L 572.0539466596703 118.12696582476272 L 572.2154540395851 116.76239686179596 L 572.4835263930406 115.41470613252166 L 572.8565109648348 114.09220259843842 L 573.3321081810525 112.80303993361093 L 573.9073858267036 111.55516625455793 L 574.5787971238034 110.3562751174709 L 575.3422025984385 109.21375808488172 L 576.1928956019995 108.1346591542218 L 577.1256313292354 107.12563132923542 L 578.1346591542218 106.19289560199947 L 579.2137580848818 105.34220259843842 L 580.3562751174709 104.57879712380338 L 581.5551662545579 103.90738582670356 L 582.803039933611 103.33210818105248 L 584.0922025984385 102.8565109648348 L 585.4147061325217 102.48352639304065 L 586.762396861796 102.21545403958508 L 588.1269658247628 102.05394665967026 L 589.5000000000001 102 L 590.8730341752373 102.05394665967026 L 592.2376031382041 102.2154540395851 L 593.5852938674784 102.48352639304068 L 594.9077974015617 102.85651096483484 L 596.1969600663891 103.33210818105252 L 597.4448337454421 103.9073858267036 L 598.6437248825292 104.57879712380344 L 599.7862419151184 105.34220259843849 L 600.8653408457783 106.19289560199954 L 601.8743686707646 107.12563132923552 L 602.8071043980007 108.1346591542219 L 603.6577974015617 109.21375808488185 L 604.4212028761967 110.35627511747103 L 605.0926141732965 111.55516625455807 L 605.6678918189476 112.80303993361109 L 606.1434890351652 114.09220259843859 L 606.5164736069594 115.41470613252184 L 606.7845459604149 116.76239686179616 L 606.9460533403297 118.12696582476292 Z" fill-opacity="1" stroke-opacity="1" stroke-miterlimit="10" stroke-width="2"/><text fill="none" stroke="rgb(0,0,0)" font-family="Helvetica Neue, Helvetica, sans-serif" font-size="10px" font-style="normal" font-weight="normal" text-decoration="normal" x="589.5" y="102" text-anchor="middle" dominant-baseline="text-after-edge" stroke-opacity="1" stroke-linejoin="round" stroke-miterlimit="10" stroke-width="4">CVE-2026-32283</text><text fill="rgb(255,255,255)" stroke="none" font-family="Helvetica Neue, Helvetica, sans-serif" font-size="10px" font-style="normal" font-weight="normal" text-decoration="normal" x="589.5" y="102" text-anchor="middle" dominant-baseline="text-after-edge" fill-opacity="1">CVE-2026-32283</text><path fill="rgb(234,179,8)" stroke="rgb(255,102,102)" paint-order="fill stroke markers" d=" M 607 516.25 L 606.9460533403297 517.6230341752373 L 606.7845459604149 518.987603138204 L 606.5164736069594 520.3352938674783 L 606.1434890351652 521.6577974015615 L 605.6678918189475 522.9469600663891 L 605.0926141732964 524.1948337454421 L 604.4212028761966 525.3937248825291 L 603.6577974015615 526.5362419151182 L 602.8071043980005 527.6153408457782 L 601.8743686707646 528.6243686707646 L 600.8653408457782 529.5571043980005 L 599.7862419151182 530.4077974015615 L 598.6437248825291 531.1712028761966 L 597.4448337454421 531.8426141732964 L 596.1969600663891 532.4178918189475 L 594.9077974015615 532.8934890351652 L 593.5852938674783 533.2664736069594 L 592.237603138204 533.5345459604149 L 590.8730341752373 533.6960533403297 L 589.5 533.75 L 588.1269658247627 533.6960533403297 L 586.762396861796 533.5345459604149 L 585.4147061325217 533.2664736069594 L 584.0922025984385 532.8934890351652 L 582.8030399336109 532.4178918189475 L 581.5551662545579 531.8426141732964 L 580.3562751174709 531.1712028761966 L 579.2137580848818 530.4077974015615 L 578.1346591542218 529.5571043980005 L 577.1256313292354 528.6243686707646 L 576.1928956019995 527.6153408457782 L 575.3422025984385 526.5362419151182 L 574.5787971238034 525.3937248825291 L 573.9073858267036 524.1948337454421 L 573.3321081810525 522.9469600663891 L 572.8565109648348 521.6577974015615 L 572.4835263930406 520.3352938674783 L 572.2154540395851 518.987603138204 L 572.0539466596703 517.6230341752373 L 572 516.25 L 572.0539466596703 514.8769658247627 L 572.2154540395851 513.512396861796 L 572.4835263930406 512.1647061325217 L 572.8565109648348 510.8422025984384 L 573.3321081810525 509.55303993361093 L 573.9073858267036 508.30516625455795 L 574.5787971238034 507.1062751174709 L 575.3422025984385 505.9637580848817 L 576.1928956019995 504.88465915422177 L 577.1256313292354 503.87563132923543 L 578.1346591542218 502.94289560199945 L 579.2137580848818 502.0922025984384 L 580.3562751174709 501.3287971238034 L 581.5551662545579 500.65738582670355 L 582.803039933611 500.0821081810525 L 584.0922025984385 499.6065109648348 L 585.4147061325217 499.2335263930407 L 586.762396861796 498.9654540395851 L 588.1269658247628 498.80394665967026 L 589.5000000000001 498.75 L 590.8730341752373 498.80394665967026 L 592.2376031382041 498.9654540395851 L 593.5852938674784 499.2335263930407 L 594.9077974015617 499.60651096483485 L 596.1969600663891 500.0821081810525 L 597.4448337454421 500.6573858267036 L 598.6437248825292 501.32879712380344 L 599.7862419151184 502.0922025984385 L 600.8653408457783 502.94289560199957 L 601.8743686707646 503.8756313292355 L 602.8071043980007 504.8846591542219 L 603.6577974015617 505.9637580848818 L 604.4212028761967 507.10627511747106 L 605.0926141732965 508.30516625455806 L 605.6678918189476 509.5530399336111 L 606.1434890351652 510.8422025984386 L 606.5164736069594 512.1647061325218 L 606.7845459604149 513.5123968617961 L 606.9460533403297 514.8769658247629 Z" fill-opacity="0.25" stroke-opacity="0.25" stroke-miterlimit="10" stroke-width="2" stroke-dasharray="4,2"/><text fill="none" stroke="rgb(0,0,0)" font-family="Helvetica Neue, Helvetica, sans-serif" font-size="10px" font-style="normal" font-weight="normal" text-decoration="normal" x="589.5" y="498.75" text-anchor="middle" dominant-baseline="text-after-edge" stroke-opacity="0.25" stroke-linejoin="round" stroke-miterlimit="10" stroke-width="4">CVE-2026-27142</text><text fill="rgb(255,255,255)" stroke="none" font-family="Helvetica Neue, Helvetica, sans-serif" font-size="10px" font-style="normal" font-weight="normal" text-decoration="normal" x="589.5" y="498.75" text-anchor="middle" dominant-baseline="text-after-edge" fill-opacity="0.25">CVE-2026-27142</text><path fill="rgb(234,179,8)" stroke="rgb(255,102,102)" paint-order="fill stroke markers" d=" M 607 426.25 L 606.9460533403297 427.6230341752373 L 606.7845459604149 428.98760313820407 L 606.5164736069594 430.33529386747836 L 606.1434890351652 431.6577974015616 L 605.6678918189475 432.94696006638907 L 605.0926141732964 434.19483374544205 L 604.4212028761966 435.3937248825291 L 603.6577974015615 436.5362419151183 L 602.8071043980005 437.61534084577823 L 601.8743686707646 438.62436867076457 L 600.8653408457782 439.55710439800055 L 599.7862419151182 440.4077974015616 L 598.6437248825291 441.1712028761966 L 597.4448337454421 441.84261417329645 L 596.1969600663891 442.4178918189475 L 594.9077974015615 442.8934890351652 L 593.5852938674783 443.2664736069593 L 592.237603138204 443.5345459604149 L 590.8730341752373 443.69605334032974 L 589.5 443.75 L 588.1269658247627 443.69605334032974 L 586.762396861796 443.5345459604149 L 585.4147061325217 443.2664736069593 L 584.0922025984385 442.8934890351652 L 582.8030399336109 442.4178918189475 L 581.5551662545579 441.84261417329645 L 580.3562751174709 441.1712028761966 L 579.2137580848818 440.4077974015616 L 578.1346591542218 439.55710439800055 L 577.1256313292354 438.62436867076457 L 576.1928956019995 437.61534084577823 L 575.3422025984385 436.5362419151183 L 574.5787971238034 435.3937248825291 L 573.9073858267036 434.19483374544205 L 573.3321081810525 432.94696006638907 L 572.8565109648348 431.6577974015616 L 572.4835263930406 430.33529386747836 L 572.2154540395851 428.98760313820407 L 572.0539466596703 427.6230341752373 L 572 426.25 L 572.0539466596703 424.8769658247627 L 572.2154540395851 423.51239686179593 L 572.4835263930406 422.16470613252164 L 572.8565109648348 420.8422025984384 L 573.3321081810525 419.55303993361093 L 573.9073858267036 418.30516625455795 L 574.5787971238034 417.1062751174709 L 575.3422025984385 415.9637580848817 L 576.1928956019995 414.88465915422177 L 577.1256313292354 413.87563132923543 L 578.1346591542218 412.94289560199945 L 579.2137580848818 412.0922025984384 L 580.3562751174709 411.3287971238034 L 581.5551662545579 410.65738582670355 L 582.803039933611 410.0821081810525 L 584.0922025984385 409.6065109648348 L 585.4147061325217 409.2335263930407 L 586.762396861796 408.9654540395851 L 588.1269658247628 408.80394665967026 L 589.5000000000001 408.75 L 590.8730341752373 408.80394665967026 L 592.2376031382041 408.9654540395851 L 593.5852938674784 409.2335263930407 L 594.9077974015617 409.60651096483485 L 596.1969600663891 410.0821081810525 L 597.4448337454421 410.6573858267036 L 598.6437248825292 411.32879712380344 L 599.7862419151184 412.0922025984385 L 600.8653408457783 412.94289560199957 L 601.8743686707646 413.8756313292355 L 602.8071043980007 414.8846591542219 L 603.6577974015617 415.9637580848818 L 604.4212028761967 417.10627511747106 L 605.0926141732965 418.30516625455806 L 605.6678918189476 419.5530399336111 L 606.1434890351652 420.8422025984386 L 606.5164736069594 422.1647061325218 L 606.7845459604149 423.51239686179616 L 606.9460533403297 424.8769658247629 Z" fill-opacity="0.25" stroke-opacity="0.25" stroke-miterlimit="10" stroke-width="2" stroke-dasharray="4,2"/><text fill="none" stroke="rgb(0,0,0)" font-family="Helvetica Neue, Helvetica, sans-serif" font-size="10px" font-style="normal" font-weight="normal" text-decoration="normal" x="589.5" y="408.75" text-anchor="middle" dominant-baseline="text-after-edge" stroke-opacity="0.25" stroke-linejoin="round" stroke-miterlimit="10" stroke-width="4">CVE-2026-32289</text><text fill="rgb(255,255,255)" stroke="none" font-family="Helvetica Neue, Helvetica, sans-serif" font-size="10px" font-style="normal" font-weight="normal" text-decoration="normal" x="589.5" y="408.75" text-anchor="middle" dominant-baseline="text-after-edge" fill-opacity="0.25">CVE-2026-32289</text><path fill="rgb(234,179,8)" stroke="rgb(255,102,102)" paint-order="fill stroke markers" d=" M 926 577 L 925.9460533403297 578.3730341752373 L 925.7845459604149 579.737603138204 L 925.5164736069594 581.0852938674783 L 925.1434890351652 582.4077974015615 L 924.6678918189475 583.6969600663891 L 924.0926141732964 584.9448337454421 L 923.4212028761966 586.1437248825291 L 922.6577974015615 587.2862419151182 L 921.8071043980005 588.3653408457782 L 920.8743686707646 589.3743686707646 L 919.8653408457782 590.3071043980005 L 918.7862419151182 591.1577974015615 L 917.6437248825291 591.9212028761966 L 916.4448337454421 592.5926141732964 L 915.1969600663891 593.1678918189475 L 913.9077974015615 593.6434890351652 L 912.5852938674783 594.0164736069594 L 911.237603138204 594.2845459604149 L 909.8730341752373 594.4460533403297 L 908.5 594.5 L 907.1269658247627 594.4460533403297 L 905.762396861796 594.2845459604149 L 904.4147061325217 594.0164736069594 L 903.0922025984385 593.6434890351652 L 901.8030399336109 593.1678918189475 L 900.5551662545579 592.5926141732964 L 899.3562751174709 591.9212028761966 L 898.2137580848818 591.1577974015615 L 897.1346591542218 590.3071043980005 L 896.1256313292354 589.3743686707646 L 895.1928956019995 588.3653408457782 L 894.3422025984385 587.2862419151182 L 893.5787971238034 586.1437248825291 L 892.9073858267036 584.9448337454421 L 892.3321081810525 583.6969600663891 L 891.8565109648348 582.4077974015615 L 891.4835263930406 581.0852938674783 L 891.2154540395851 579.737603138204 L 891.0539466596703 578.3730341752373 L 891 577 L 891.0539466596703 575.6269658247627 L 891.2154540395851 574.262396861796 L 891.4835263930406 572.9147061325217 L 891.8565109648348 571.5922025984385 L 892.3321081810525 570.3030399336109 L 892.9073858267036 569.0551662545579 L 893.5787971238034 567.8562751174709 L 894.3422025984385 566.7137580848818 L 895.1928956019995 565.6346591542218 L 896.1256313292354 564.6256313292354 L 897.1346591542218 563.6928956019995 L 898.2137580848818 562.8422025984385 L 899.3562751174709 562.0787971238034 L 900.5551662545579 561.4073858267036 L 901.803039933611 560.8321081810525 L 903.0922025984385 560.3565109648348 L 904.4147061325217 559.9835263930406 L 905.762396861796 559.7154540395851 L 907.1269658247628 559.5539466596703 L 908.5000000000001 559.5 L 909.8730341752373 559.5539466596703 L 911.2376031382041 559.7154540395851 L 912.5852938674784 559.9835263930406 L 913.9077974015617 560.3565109648348 L 915.1969600663891 560.8321081810525 L 916.4448337454421 561.4073858267036 L 917.6437248825292 562.0787971238035 L 918.7862419151184 562.8422025984385 L 919.8653408457783 563.6928956019996 L 920.8743686707646 564.6256313292355 L 921.8071043980007 565.6346591542219 L 922.6577974015617 566.7137580848819 L 923.4212028761967 567.856275117471 L 924.0926141732965 569.0551662545581 L 924.6678918189476 570.3030399336111 L 925.1434890351652 571.5922025984386 L 925.5164736069594 572.9147061325218 L 925.7845459604149 574.2623968617961 L 925.9460533403297 575.6269658247629 Z" fill-opacity="0.25" stroke-opacity="0.25" stroke-miterlimit="10" stroke-width="2" stroke-dasharray="4,2"/><text fill="none" stroke="rgb(0,0,0)" font-family="Helvetica Neue, Helvetica, sans-serif" font-size="10px" font-style="normal" font-weight="normal" text-decoration="normal" x="908.5" y="559.5" text-anchor="middle" dominant-baseline="text-after-edge" stroke-opacity="0.25" stroke-linejoin="round" stroke-miterlimit="10" stroke-width="4">CVE-2026-32282</text><text fill="rgb(255,255,255)" stroke="none" font-family="Helvetica Neue, Helvetica, sans-serif" font-size="10px" font-style="normal" font-weight="normal" text-decoration="normal" x="908.5" y="559.5" text-anchor="middle" dominant-baseline="text-after-edge" fill-opacity="0.25">CVE-2026-32282</text><path fill="rgb(255,0,0)" stroke="rgb(255,215,0)" paint-order="fill stroke markers" d=" M 1054 542 L 1044.7343318831333 556.2299193548821 L 1029 561.0983005625053 L 1039.0078340584334 574.7612555886155 L 1038.5491502812527 592 L 1054 586.2142512380153 L 1069.4508497187473 592 L 1068.9921659415666 574.7612555886155 L 1079 561.0983005625053 L 1063.2656681168667 556.2299193548821 Z" fill-opacity="0.25" stroke-opacity="0.25" stroke-miterlimit="10" stroke-width="4" stroke-dasharray="4,2"/><text fill="none" stroke="rgb(0,0,0)" font-family="Helvetica Neue, Helvetica, sans-serif" font-size="10px" font-style="normal" font-weight="bold" text-decoration="normal" x="1054" y="542" text-anchor="middle" dominant-baseline="text-after-edge" stroke-opacity="0.25" stroke-linejoin="round" stroke-miterlimit="10" stroke-width="4">EXPLOITED</text><text fill="rgb(255,255,255)" stroke="none" font-family="Helvetica Neue, Helvetica, sans-serif" font-size="10px" font-style="normal" font-weight="bold" text-decoration="normal" x="1054" y="542" text-anchor="middle" dominant-baseline="text-after-edge" fill-opacity="0.25">EXPLOITED</text><path fill="rgb(234,179,8)" stroke="rgb(255,102,102)" paint-order="fill stroke markers" d=" M 926 133.75 L 925.9460533403297 135.12303417523728 L 925.7845459604149 136.48760313820404 L 925.5164736069594 137.83529386747836 L 925.1434890351652 139.15779740156157 L 924.6678918189475 140.44696006638907 L 924.0926141732964 141.69483374544205 L 923.4212028761966 142.8937248825291 L 922.6577974015615 144.03624191511827 L 921.8071043980005 145.1153408457782 L 920.8743686707646 146.12436867076457 L 919.8653408457782 147.05710439800055 L 918.7862419151182 147.9077974015616 L 917.6437248825291 148.67120287619662 L 916.4448337454421 149.34261417329643 L 915.1969600663891 149.9178918189475 L 913.9077974015615 150.39348903516517 L 912.5852938674783 150.76647360695935 L 911.237603138204 151.0345459604149 L 909.8730341752373 151.19605334032974 L 908.5 151.25 L 907.1269658247627 151.19605334032974 L 905.762396861796 151.0345459604149 L 904.4147061325217 150.76647360695935 L 903.0922025984385 150.3934890351652 L 901.8030399336109 149.9178918189475 L 900.5551662545579 149.34261417329643 L 899.3562751174709 148.67120287619662 L 898.2137580848818 147.9077974015616 L 897.1346591542218 147.05710439800055 L 896.1256313292354 146.12436867076457 L 895.1928956019995 145.1153408457782 L 894.3422025984385 144.0362419151183 L 893.5787971238034 142.8937248825291 L 892.9073858267036 141.69483374544208 L 892.3321081810525 140.44696006638907 L 891.8565109648348 139.1577974015616 L 891.4835263930406 137.83529386747836 L 891.2154540395851 136.48760313820404 L 891.0539466596703 135.12303417523728 L 891 133.75 L 891.0539466596703 132.37696582476272 L 891.2154540395851 131.01239686179596 L 891.4835263930406 129.66470613252164 L 891.8565109648348 128.34220259843843 L 892.3321081810525 127.05303993361093 L 892.9073858267036 125.80516625455793 L 893.5787971238034 124.6062751174709 L 894.3422025984385 123.46375808488172 L 895.1928956019995 122.3846591542218 L 896.1256313292354 121.37563132923542 L 897.1346591542218 120.44289560199947 L 898.2137580848818 119.59220259843842 L 899.3562751174709 118.82879712380338 L 900.5551662545579 118.15738582670356 L 901.803039933611 117.58210818105248 L 903.0922025984385 117.1065109648348 L 904.4147061325217 116.73352639304065 L 905.762396861796 116.46545403958508 L 907.1269658247628 116.30394665967026 L 908.5000000000001 116.25 L 909.8730341752373 116.30394665967026 L 911.2376031382041 116.4654540395851 L 912.5852938674784 116.73352639304068 L 913.9077974015617 117.10651096483484 L 915.1969600663891 117.58210818105252 L 916.4448337454421 118.1573858267036 L 917.6437248825292 118.82879712380344 L 918.7862419151184 119.59220259843849 L 919.8653408457783 120.44289560199954 L 920.8743686707646 121.37563132923552 L 921.8071043980007 122.3846591542219 L 922.6577974015617 123.46375808488185 L 923.4212028761967 124.60627511747103 L 924.0926141732965 125.80516625455807 L 924.6678918189476 127.05303993361109 L 925.1434890351652 128.3422025984386 L 925.5164736069594 129.66470613252184 L 925.7845459604149 131.01239686179616 L 925.9460533403297 132.37696582476292 Z" fill-opacity="0.25" stroke-opacity="0.25" stroke-miterlimit="10" stroke-width="2" stroke-dasharray="4,2"/><text fill="none" stroke="rgb(0,0,0)" font-family="Helvetica Neue, Helvetica, sans-serif" font-size="10px" font-style="normal" font-weight="normal" text-decoration="normal" x="908.5" y="116.25" text-anchor="middle" dominant-baseline="text-after-edge" stroke-opacity="0.25" stroke-linejoin="round" stroke-miterlimit="10" stroke-width="4">CVE-2026-32288</text><text fill="rgb(255,255,255)" stroke="none" font-family="Helvetica Neue, Helvetica, sans-serif" font-size="10px" font-style="normal" font-weight="normal" text-decoration="normal" x="908.5" y="116.25" text-anchor="middle" dominant-baseline="text-after-edge" fill-opacity="0.25">CVE-2026-32288</text><path fill="rgb(234,179,8)" stroke="rgb(255,102,102)" paint-order="fill stroke markers" d=" M 926 907.5 L 925.9460533403297 908.8730341752373 L 925.7845459604149 910.237603138204 L 925.5164736069594 911.5852938674783 L 925.1434890351652 912.9077974015615 L 924.6678918189475 914.1969600663891 L 924.0926141732964 915.4448337454421 L 923.4212028761966 916.6437248825291 L 922.6577974015615 917.7862419151182 L 921.8071043980005 918.8653408457782 L 920.8743686707646 919.8743686707646 L 919.8653408457782 920.8071043980005 L 918.7862419151182 921.6577974015615 L 917.6437248825291 922.4212028761966 L 916.4448337454421 923.0926141732964 L 915.1969600663891 923.6678918189475 L 913.9077974015615 924.1434890351652 L 912.5852938674783 924.5164736069594 L 911.237603138204 924.7845459604149 L 909.8730341752373 924.9460533403297 L 908.5 925 L 907.1269658247627 924.9460533403297 L 905.762396861796 924.7845459604149 L 904.4147061325217 924.5164736069594 L 903.0922025984385 924.1434890351652 L 901.8030399336109 923.6678918189475 L 900.5551662545579 923.0926141732964 L 899.3562751174709 922.4212028761966 L 898.2137580848818 921.6577974015615 L 897.1346591542218 920.8071043980005 L 896.1256313292354 919.8743686707646 L 895.1928956019995 918.8653408457782 L 894.3422025984385 917.7862419151182 L 893.5787971238034 916.6437248825291 L 892.9073858267036 915.4448337454421 L 892.3321081810525 914.1969600663891 L 891.8565109648348 912.9077974015615 L 891.4835263930406 911.5852938674783 L 891.2154540395851 910.237603138204 L 891.0539466596703 908.8730341752373 L 891 907.5 L 891.0539466596703 906.1269658247627 L 891.2154540395851 904.762396861796 L 891.4835263930406 903.4147061325217 L 891.8565109648348 902.0922025984385 L 892.3321081810525 900.8030399336109 L 892.9073858267036 899.5551662545579 L 893.5787971238034 898.3562751174709 L 894.3422025984385 897.2137580848818 L 895.1928956019995 896.1346591542218 L 896.1256313292354 895.1256313292354 L 897.1346591542218 894.1928956019995 L 898.2137580848818 893.3422025984385 L 899.3562751174709 892.5787971238034 L 900.5551662545579 891.9073858267036 L 901.803039933611 891.3321081810525 L 903.0922025984385 890.8565109648348 L 904.4147061325217 890.4835263930406 L 905.762396861796 890.2154540395851 L 907.1269658247628 890.0539466596703 L 908.5000000000001 890 L 909.8730341752373 890.0539466596703 L 911.2376031382041 890.2154540395851 L 912.5852938674784 890.4835263930406 L 913.9077974015617 890.8565109648348 L 915.1969600663891 891.3321081810525 L 916.4448337454421 891.9073858267036 L 917.6437248825292 892.5787971238035 L 918.7862419151184 893.3422025984385 L 919.8653408457783 894.1928956019996 L 920.8743686707646 895.1256313292355 L 921.8071043980007 896.1346591542219 L 922.6577974015617 897.2137580848819 L 923.4212028761967 898.356275117471 L 924.0926141732965 899.5551662545581 L 924.6678918189476 900.8030399336111 L 925.1434890351652 902.0922025984386 L 925.5164736069594 903.4147061325218 L 925.7845459604149 904.7623968617961 L 925.9460533403297 906.1269658247629 Z" fill-opacity="0.25" stroke-opacity="0.25" stroke-miterlimit="10" stroke-width="2" stroke-dasharray="4,2"/><text fill="none" stroke="rgb(0,0,0)" font-family="Helvetica Neue, Helvetica, sans-serif" font-size="10px" font-style="normal" font-weight="normal" text-decoration="normal" x="908.5" y="890" text-anchor="middle" dominant-baseline="text-after-edge" stroke-opacity="0.25" stroke-linejoin="round" stroke-miterlimit="10" stroke-width="4">CVE-2026-27139</text><text fill="rgb(255,255,255)" stroke="none" font-family="Helvetica Neue, Helvetica, sans-serif" font-size="10px" font-style="normal" font-weight="normal" text-decoration="normal" x="908.5" y="890" text-anchor="middle" dominant-baseline="text-after-edge" fill-opacity="0.25">CVE-2026-27139</text><path fill="rgb(99,102,241)" stroke="rgb(255,102,102)" paint-order="fill stroke markers" d=" M 1069 907.5 L 1068.9537600059969 908.6768864359177 L 1068.815325108927 909.8465169756034 L 1068.5855488059651 911.0016804578386 L 1068.2658477444272 912.1352549156242 L 1067.8581929876693 913.2402514854764 L 1067.3650978628255 914.3098574960932 L 1066.7896024653114 915.3374784707393 L 1066.1352549156243 916.3167787843871 L 1065.4060894840004 917.2417207249528 L 1064.6066017177982 918.1066017177982 L 1063.7417207249528 918.9060894840005 L 1062.816778784387 919.6352549156242 L 1061.8374784707391 920.2896024653114 L 1060.8098574960932 920.8650978628256 L 1059.7402514854764 921.3581929876693 L 1058.6352549156243 921.7658477444273 L 1057.5016804578386 922.0855488059651 L 1056.3465169756034 922.315325108927 L 1055.1768864359176 922.453760005997 L 1054 922.5 L 1052.8231135640824 922.453760005997 L 1051.6534830243966 922.315325108927 L 1050.4983195421614 922.0855488059651 L 1049.3647450843757 921.7658477444273 L 1048.2597485145236 921.3581929876693 L 1047.1901425039068 920.8650978628256 L 1046.1625215292609 920.2896024653114 L 1045.183221215613 919.6352549156242 L 1044.2582792750472 918.9060894840005 L 1043.3933982822018 918.1066017177982 L 1042.5939105159996 917.2417207249528 L 1041.8647450843757 916.3167787843871 L 1041.2103975346886 915.3374784707393 L 1040.6349021371745 914.3098574960932 L 1040.1418070123307 913.2402514854764 L 1039.7341522555728 912.1352549156242 L 1039.4144511940349 911.0016804578386 L 1039.184674891073 909.8465169756034 L 1039.0462399940031 908.6768864359177 L 1039 907.5 L 1039.0462399940031 906.3231135640823 L 1039.184674891073 905.1534830243966 L 1039.4144511940349 903.9983195421614 L 1039.7341522555728 902.8647450843758 L 1040.1418070123307 901.7597485145236 L 1040.6349021371745 900.6901425039068 L 1041.2103975346886 899.6625215292607 L 1041.8647450843757 898.6832212156129 L 1042.5939105159996 897.7582792750472 L 1043.3933982822018 896.8933982822018 L 1044.2582792750472 896.0939105159996 L 1045.183221215613 895.3647450843758 L 1046.1625215292609 894.7103975346886 L 1047.1901425039068 894.1349021371744 L 1048.2597485145236 893.6418070123307 L 1049.3647450843757 893.2341522555727 L 1050.4983195421614 892.9144511940349 L 1051.6534830243966 892.684674891073 L 1052.8231135640824 892.546239994003 L 1054 892.5 L 1055.1768864359178 892.546239994003 L 1056.3465169756034 892.684674891073 L 1057.5016804578386 892.9144511940349 L 1058.6352549156243 893.2341522555727 L 1059.7402514854764 893.6418070123307 L 1060.8098574960932 894.1349021371745 L 1061.8374784707394 894.7103975346887 L 1062.8167787843872 895.3647450843758 L 1063.7417207249528 896.0939105159996 L 1064.6066017177982 896.8933982822018 L 1065.4060894840006 897.7582792750474 L 1066.1352549156243 898.683221215613 L 1066.7896024653114 899.6625215292609 L 1067.3650978628257 900.6901425039069 L 1067.8581929876693 901.7597485145238 L 1068.2658477444274 902.864745084376 L 1068.5855488059651 903.9983195421615 L 1068.815325108927 905.1534830243967 L 1068.9537600059969 906.3231135640825 Z" fill-opacity="0.25" stroke-opacity="0.25" stroke-miterlimit="10" stroke-width="2" stroke-dasharray="4,2"/><text fill="none" stroke="rgb(0,0,0)" font-family="Helvetica Neue, Helvetica, sans-serif" font-size="10px" font-style="normal" font-weight="normal" text-decoration="normal" x="1054" y="892.5" text-anchor="middle" dominant-baseline="text-after-edge" stroke-opacity="0.25" stroke-linejoin="round" stroke-miterlimit="10" stroke-width="4">PR:H</text><text fill="rgb(255,255,255)" stroke="none" font-family="Helvetica Neue, Helvetica, sans-serif" font-size="10px" font-style="normal" font-weight="normal" text-decoration="normal" x="1054" y="892.5" text-anchor="middle" dominant-baseline="text-after-edge" fill-opacity="0.25">PR:H</text><path fill="rgb(0,255,136)" stroke="rgb(0,204,102)" paint-order="fill stroke markers" d=" M 1213 459 L 1243 429 L 1213 399 L 1183 429 Z" fill-opacity="1" stroke-opacity="1" stroke-miterlimit="10" stroke-width="4"/><text fill="none" stroke="rgb(0,0,0)" font-family="Helvetica Neue, Helvetica, sans-serif" font-size="14px" font-style="normal" font-weight="bold" text-decoration="normal" x="1213" y="399" text-anchor="middle" dominant-baseline="text-after-edge" stroke-opacity="1" stroke-linejoin="round" stroke-miterlimit="10" stroke-width="6">INSIDE NETWORK</text><text fill="rgb(255,255,255)" stroke="none" font-family="Helvetica Neue, Helvetica, sans-serif" font-size="14px" font-style="normal" font-weight="bold" text-decoration="normal" x="1213" y="399" text-anchor="middle" dominant-baseline="text-after-edge" fill-opacity="1">INSIDE NETWORK</text><g transform="scale(0.6249999906867744,0.6249999906867744) translate(51.20000076293945,27.200000405311584)"/></g></g></svg>