<svg version="1.1" xmlns="http://www.w3.org/2000/svg" xmlns:xlink="http://www.w3.org/1999/xlink" width="1998.4000297784805" height="580.8000086545944"><defs/><g><rect fill="#ffffff" stroke="none" x="0" y="0" width="1998.4000297784805" height="580.8000086545944"/><g transform="translate(-51.20000076293945,-81.60000121593475) scale(1.600000023841858,1.600000023841858)"><path fill="rgb(100,100,100)" stroke="rgb(136,136,136)" paint-order="fill stroke markers" d=" M 139.5 68 L 237 68 L 237 68 A 8 8 0 0 1 245 76 L 245 316 L 245 316 A 8 8 0 0 1 237 324 L 42 324 L 42 324 A 8 8 0 0 1 34 316 L 34 76 L 34 76 A 8 8 0 0 1 42 68 L 139.5 68 Z" fill-opacity="1" stroke-opacity="1" stroke-miterlimit="10" stroke-width="2" stroke-dasharray="4,2"/><text fill="none" stroke="rgb(0,0,0)" font-family="Helvetica Neue, Helvetica, sans-serif" font-size="12px" font-style="normal" font-weight="normal" text-decoration="normal" x="139.5" y="68" text-anchor="middle" dominant-baseline="text-after-edge" stroke-opacity="1" stroke-linejoin="round" stroke-miterlimit="10" stroke-width="4">Initial State</text><text fill="rgb(204,204,204)" stroke="none" font-family="Helvetica Neue, Helvetica, sans-serif" font-size="12px" font-style="normal" font-weight="normal" text-decoration="normal" x="139.5" y="68" text-anchor="middle" dominant-baseline="text-after-edge" fill-opacity="1">Initial State</text><path fill="rgb(234,179,8)" stroke="rgb(234,179,8)" paint-order="fill stroke markers" d=" M 589.5 156.5 L 636.5 156.5 L 636.5 156.5 A 8 8 0 0 1 644.5 164.5 L 644.5 403.5 L 644.5 403.5 A 8 8 0 0 1 636.5 411.5 L 542.5 411.5 L 542.5 411.5 A 8 8 0 0 1 534.5 403.5 L 534.5 164.5 L 534.5 164.5 A 8 8 0 0 1 542.5 156.5 L 589.5 156.5 Z" fill-opacity="1" stroke-opacity="1" stroke-miterlimit="10" stroke-width="2" stroke-dasharray="4,2"/><text fill="none" stroke="rgb(0,0,0)" font-family="Helvetica Neue, Helvetica, sans-serif" font-size="10px" font-style="normal" font-weight="normal" text-decoration="normal" x="589.5" y="156.5" text-anchor="middle" dominant-baseline="text-after-edge" stroke-opacity="1" stroke-linejoin="round" stroke-miterlimit="10" stroke-width="2">→ AV:L, EX:Y, PR:H (×5)</text><text fill="rgb(234,179,8)" stroke="none" font-family="Helvetica Neue, Helvetica, sans-serif" font-size="10px" font-style="normal" font-weight="normal" text-decoration="normal" x="589.5" y="156.5" text-anchor="middle" dominant-baseline="text-after-edge" fill-opacity="1">→ AV:L, EX:Y, PR:H (×5)</text><path fill="none" stroke="rgb(203,143,255)" paint-order="fill stroke markers" d=" M 919.9845206998529 183.25364727558733 L 1040.6277988413062 335.61242637175263" stroke-opacity="0.9" stroke-linejoin="round" stroke-miterlimit="10" stroke-width="3" stroke-dasharray="6,3"/><path fill="rgb(255,255,255)" stroke="none" paint-order="stroke fill markers" d=" M 1035.5413625419328 336.19609217717283 L 1044.3525082574747 340.3163119746458 L 1042.3619966661279 330.7952635237285 Z" fill-opacity="1"/><path fill="rgb(203,143,255)" stroke="none" paint-order="stroke fill markers" d=" M 1035.5413625419328 336.19609217717283 L 1044.3525082574747 340.3163119746458 L 1042.3619966661279 330.7952635237285 Z" fill-opacity="0.9"/><path fill="none" stroke="rgb(0,255,136)" paint-order="fill stroke markers" d=" M 1072.015603859951 249.89189560199657 L 1185.0844104586004 286.87037323174354" stroke-opacity="0.7" stroke-linejoin="round" stroke-miterlimit="10" stroke-width="2"/><path fill="rgb(255,255,255)" stroke="none" paint-order="stroke fill markers" d=" M 1179.265076243612 289.5439194337503 L 1188.8862559241707 288.1137440758294 L 1181.9694078294988 281.27490554613496 Z" fill-opacity="1"/><path fill="rgb(0,255,136)" stroke="none" paint-order="stroke fill markers" d=" M 1179.265076243612 289.5439194337503 L 1188.8862559241707 288.1137440758294 L 1181.9694078294988 281.27490554613496 Z" fill-opacity="0.7"/><path fill="none" stroke="rgb(255,0,102)" paint-order="fill stroke markers" d=" M 77.49763426826544 280.8732571597431 L 185.73844110141874 176.12408925669155" stroke-opacity="0.7" stroke-linejoin="round" stroke-miterlimit="10" stroke-width="2"/><path fill="rgb(255,255,255)" stroke="none" paint-order="stroke fill markers" d=" M 185.38609424481064 182.51848928270167 L 188.61284966848513 173.3424035466273 L 179.33592782542095 176.26665064933232 Z" fill-opacity="1"/><path fill="rgb(255,0,102)" stroke="none" paint-order="stroke fill markers" d=" M 185.38609424481064 182.51848928270167 L 188.61284966848513 173.3424035466273 L 179.33592782542095 176.26665064933232 Z" fill-opacity="0.7"/><path fill="none" stroke="rgb(0,255,136)" paint-order="fill stroke markers" d=" M 1076.1553682670065 344.62718045857946 L 1185.6206830696708 305.72912834316725" stroke-opacity="0.25" stroke-linejoin="round" stroke-miterlimit="10" stroke-width="2"/><path fill="rgb(255,255,255)" stroke="none" paint-order="stroke fill markers" d=" M 1182.6485101975245 311.4017545795834 L 1189.3897911832946 304.3897911832947 L 1179.7354518748016 303.20394443245175 Z" fill-opacity="1"/><path fill="rgb(0,255,136)" stroke="none" paint-order="stroke fill markers" d=" M 1182.6485101975245 311.4017545795834 L 1189.3897911832946 304.3897911832947 L 1179.7354518748016 303.20394443245175 Z" fill-opacity="0.25"/><path fill="none" stroke="rgb(0,255,255)" paint-order="fill stroke markers" d=" M 786.6346920160264 263.4334549020464 L 890.7324643524629 182.5545165439973" stroke-opacity="0.7" stroke-linejoin="round" stroke-miterlimit="10" stroke-width="2"/><path fill="rgb(255,255,255)" stroke="none" paint-order="stroke fill markers" d=" M 889.6898967712613 188.87318355837837 L 893.8911373564695 180.1003802695089 L 884.3521503742489 182.00306977466397 Z" fill-opacity="1"/><path fill="rgb(0,255,255)" stroke="none" paint-order="stroke fill markers" d=" M 889.6898967712613 188.87318355837837 L 893.8911373564695 180.1003802695089 L 884.3521503742489 182.00306977466397 Z" fill-opacity="0.7"/><path fill="none" stroke="rgb(0,255,255)" paint-order="fill stroke markers" d=" M 788.1060175392771 280.8011766753008 L 888.6634128353916 334.6311578003583" stroke-opacity="0.7" stroke-linejoin="round" stroke-miterlimit="10" stroke-width="2"/><path fill="rgb(255,255,255)" stroke="none" paint-order="stroke fill markers" d=" M 882.4667940246316 336.2480731704797 L 892.1899172202109 336.5189519691835 L 886.5727463418264 328.5779261334977 Z" fill-opacity="1"/><path fill="rgb(0,255,255)" stroke="none" paint-order="stroke fill markers" d=" M 882.4667940246316 336.2480731704797 L 892.1899172202109 336.5189519691835 L 886.5727463418264 328.5779261334977 Z" fill-opacity="0.7"/><path fill="none" stroke="rgb(0,255,255)" paint-order="fill stroke markers" d=" M 783.3589546759057 342.2727134047851 L 895.3389699870077 186.99930927452093" stroke-opacity="0.7" stroke-linejoin="round" stroke-miterlimit="10" stroke-width="2"/><path fill="rgb(255,255,255)" stroke="none" paint-order="stroke fill markers" d=" M 896.1179768440345 193.35585301437715 L 897.6787086559841 183.7549876257172 L 889.0615772578864 188.26692140935347 Z" fill-opacity="1"/><path fill="rgb(0,255,255)" stroke="none" paint-order="stroke fill markers" d=" M 896.1179768440345 193.35585301437715 L 897.6787086559841 183.7549876257172 L 889.0615772578864 188.26692140935347 Z" fill-opacity="0.7"/><path fill="none" stroke="rgb(0,255,255)" paint-order="fill stroke markers" d=" M 789.9559597848995 354.06368328736806 L 886.061931552485 346.9182578771386" stroke-opacity="0.7" stroke-linejoin="round" stroke-miterlimit="10" stroke-width="2"/><path fill="rgb(255,255,255)" stroke="none" paint-order="stroke fill markers" d=" M 881.6973982219176 351.6047649779938 L 890.05092149871 346.62167869898065 L 881.0523385094241 342.9287118449547 Z" fill-opacity="1"/><path fill="rgb(0,255,255)" stroke="none" paint-order="stroke fill markers" d=" M 881.6973982219176 351.6047649779938 L 890.05092149871 346.62167869898065 L 881.0523385094241 342.9287118449547 Z" fill-opacity="0.7"/><path fill="none" stroke="rgb(203,143,255)" paint-order="fill stroke markers" d=" M 926.9770763397656 346.17067906160344 L 1024.8302133123373 351.04652265645666" stroke-opacity="0.9" stroke-linejoin="round" stroke-miterlimit="10" stroke-width="3" stroke-dasharray="6,3"/><path fill="rgb(255,255,255)" stroke="none" paint-order="stroke fill markers" d=" M 1021.9170749320484 355.2567631219513 L 1030.8227786117207 351.34512127103073 L 1022.3500429231809 346.5675434378453 Z" fill-opacity="1"/><path fill="rgb(203,143,255)" stroke="none" paint-order="stroke fill markers" d=" M 1021.9170749320484 355.2567631219513 L 1030.8227786117207 351.34512127103073 L 1022.3500429231809 346.5675434378453 Z" fill-opacity="0.9"/><path fill="none" stroke="rgb(255,0,102)" paint-order="fill stroke markers" d=" M 79.4447463715879 238.3259700828465 L 182.3918421738333 171.90848892010757" stroke-opacity="0.7" stroke-linejoin="round" stroke-miterlimit="10" stroke-width="2"/><path fill="rgb(255,255,255)" stroke="none" paint-order="stroke fill markers" d=" M 180.80069981090546 178.11177562804684 L 185.75302876673027 169.73998144081918 L 176.08419604345323 170.80119478849593 Z" fill-opacity="1"/><path fill="rgb(255,0,102)" stroke="none" paint-order="stroke fill markers" d=" M 180.80069981090546 178.11177562804684 L 185.75302876673027 169.73998144081918 L 176.08419604345323 170.80119478849593 Z" fill-opacity="0.7"/><path fill="none" stroke="rgb(255,0,102)" paint-order="fill stroke markers" d=" M 81.2273378841688 197.08795552123587 L 179.32801301158483 165.44257644787587" stroke-opacity="0.7" stroke-linejoin="round" stroke-miterlimit="10" stroke-width="2"/><path fill="rgb(255,255,255)" stroke="none" paint-order="stroke fill markers" d=" M 176.19044460077424 171.02542200077121 L 183.13484748262704 164.21456532818482 L 173.51952041544624 162.74555702625443 Z" fill-opacity="1"/><path fill="rgb(255,0,102)" stroke="none" paint-order="stroke fill markers" d=" M 176.19044460077424 171.02542200077121 L 183.13484748262704 164.21456532818482 L 173.51952041544624 162.74555702625443 Z" fill-opacity="0.7"/><path fill="none" stroke="rgb(255,102,0)" paint-order="fill stroke markers" d=" M 229 157 L 375 157" stroke-opacity="0.7" stroke-linejoin="round" stroke-miterlimit="10" stroke-width="2"/><path fill="rgb(255,255,255)" stroke="none" paint-order="stroke fill markers" d=" M 370.3 161.35 L 379 157 L 370.3 152.65 Z" fill-opacity="1"/><path fill="rgb(255,102,0)" stroke="none" paint-order="stroke fill markers" d=" M 370.3 161.35 L 379 157 L 370.3 152.65 Z" fill-opacity="0.7"/><path fill="none" stroke="rgb(255,153,119)" paint-order="fill stroke markers" d=" M 420.99439585653806 157.48512124152276 L 884.0065381673722 168.18402521822344" stroke-opacity="0.9" stroke-linejoin="round" stroke-miterlimit="10" stroke-width="3" stroke-dasharray="6,3"/><path fill="rgb(255,255,255)" stroke="none" paint-order="stroke fill markers" d=" M 881.2067693000733 172.47049162888197 L 890.004936983526 168.32263128722994 L 881.4077481001328 163.77281334545904 Z" fill-opacity="1"/><path fill="rgb(255,153,119)" stroke="none" paint-order="stroke fill markers" d=" M 881.2067693000733 172.47049162888197 L 890.004936983526 168.32263128722994 L 881.4077481001328 163.77281334545904 Z" fill-opacity="0.9"/><path fill="none" stroke="rgb(255,153,119)" paint-order="fill stroke markers" d=" M 419.693774923844 164.290763283016 L 885.5239292555153 336.744109503148" stroke-opacity="0.9" stroke-linejoin="round" stroke-miterlimit="10" stroke-width="3" stroke-dasharray="6,3"/><path fill="rgb(255,255,255)" stroke="none" paint-order="stroke fill markers" d=" M 881.4816429423963 339.88615045812793 L 891.1507220908993 338.82718472686685 L 884.5021020167887 331.7273008468211 Z" fill-opacity="1"/><path fill="rgb(255,153,119)" stroke="none" paint-order="stroke fill markers" d=" M 881.4816429423963 339.88615045812793 L 891.1507220908993 338.82718472686685 L 884.5021020167887 331.7273008468211 Z" fill-opacity="0.9"/><path fill="none" stroke="rgb(255,0,102)" paint-order="fill stroke markers" d=" M 81.2273378841688 116.91204447876413 L 179.32801301158483 148.55742355212413" stroke-opacity="0.7" stroke-linejoin="round" stroke-miterlimit="10" stroke-width="2"/><path fill="rgb(255,255,255)" stroke="none" paint-order="stroke fill markers" d=" M 173.51952041544624 151.25444297374557 L 183.13484748262704 149.78543467181518 L 176.19044460077424 142.97457799922879 Z" fill-opacity="1"/><path fill="rgb(255,0,102)" stroke="none" paint-order="stroke fill markers" d=" M 173.51952041544624 151.25444297374557 L 183.13484748262704 149.78543467181518 L 176.19044460077424 142.97457799922879 Z" fill-opacity="0.7"/><path fill="none" stroke="rgb(0,255,255)" paint-order="fill stroke markers" d=" M 645.5 279.17761033369214 L 1029.008462456177 246.1521237927942" stroke-opacity="0.7" stroke-linejoin="round" stroke-miterlimit="10" stroke-width="2"/><path fill="rgb(255,255,255)" stroke="none" paint-order="stroke fill markers" d=" M 1024.6990079608017 250.8893278154524 L 1032.993713160409 245.8089375104061 L 1023.9525777966077 242.22140753374808 Z" fill-opacity="1"/><path fill="rgb(0,255,255)" stroke="none" paint-order="stroke fill markers" d=" M 1024.6990079608017 250.8893278154524 L 1032.993713160409 245.8089375104061 L 1023.9525777966077 242.22140753374808 Z" fill-opacity="0.7"/><path fill="none" stroke="rgb(0,255,255)" paint-order="fill stroke markers" d=" M 645.5 280.7371273712737 L 754.0338625860586 274.4133386298096" stroke-opacity="0.7" stroke-linejoin="round" stroke-miterlimit="10" stroke-width="2"/><path fill="rgb(255,255,255)" stroke="none" paint-order="stroke fill markers" d=" M 749.5948464457659 279.0293580953471 L 758.0270900688469 274.18067090384767 L 749.0887941417988 270.3440883202826 Z" fill-opacity="1"/><path fill="rgb(0,255,255)" stroke="none" paint-order="stroke fill markers" d=" M 749.5948464457659 279.0293580953471 L 758.0270900688469 274.18067090384767 L 749.0887941417988 270.3440883202826 Z" fill-opacity="0.7"/><path fill="none" stroke="rgb(0,255,255)" paint-order="fill stroke markers" d=" M 645.5 305.6260162601626 L 755.3428786197594 348.0450141011266" stroke-opacity="0.7" stroke-linejoin="round" stroke-miterlimit="10" stroke-width="2"/><path fill="rgb(255,255,255)" stroke="none" paint-order="stroke fill markers" d=" M 749.3913706623978 350.4097663150937 L 759.0743028958075 349.48601128090127 L 752.5255395284078 342.293918514689 Z" fill-opacity="1"/><path fill="rgb(0,255,255)" stroke="none" paint-order="stroke fill markers" d=" M 749.3913706623978 350.4097663150937 L 759.0743028958075 349.48601128090127 L 752.5255395284078 342.293918514689 Z" fill-opacity="0.7"/><path fill="none" stroke="rgb(0,255,255)" paint-order="fill stroke markers" d=" M 417.4446794919126 168.69115723204698 L 530.1772039063023 244.24276990026596" stroke-opacity="0.7" stroke-linejoin="round" stroke-miterlimit="10" stroke-width="2"/><path fill="rgb(255,255,255)" stroke="none" paint-order="stroke fill markers" d=" M 523.8511787838551 245.23971831927543 L 533.5 246.46965699208442 L 528.6946582085602 238.01263681548306 Z" fill-opacity="1"/><path fill="rgb(0,255,255)" stroke="none" paint-order="stroke fill markers" d=" M 523.8511787838551 245.23971831927543 L 533.5 246.46965699208442 L 528.6946582085602 238.01263681548306 Z" fill-opacity="0.7"/><path fill="rgb(239,68,68)" stroke="rgb(0,0,0)" paint-order="fill stroke markers" d=" M 420 157 L 419.93834667466257 158.5691819145569 L 419.7537668119028 160.1286893008046 L 419.44739840795353 161.6689072771181 L 419.0211303259031 163.18033988749895 L 418.47759065022575 164.6536686473018 L 417.82013048376734 166.07980999479093 L 417.0528032870818 167.44997129431897 L 416.180339887499 168.75570504584945 L 415.20811931200063 169.98896096660368 L 414.14213562373095 171.14213562373095 L 412.98896096660366 172.20811931200063 L 411.7557050458495 173.18033988749895 L 410.44997129431897 174.05280328708184 L 409.07980999479093 174.82013048376734 L 407.6536686473018 175.47759065022575 L 406.180339887499 176.02113032590307 L 404.66890727711814 176.44739840795353 L 403.12868930080464 176.75376681190275 L 401.5691819145569 176.93834667466257 L 400 177 L 398.4308180854431 176.93834667466257 L 396.87131069919536 176.75376681190275 L 395.3310927228819 176.44739840795353 L 393.819660112501 176.02113032590307 L 392.3463313526982 175.47759065022575 L 390.92019000520907 174.82013048376734 L 389.55002870568103 174.05280328708184 L 388.2442949541505 173.18033988749895 L 387.01103903339634 172.20811931200063 L 385.85786437626905 171.14213562373095 L 384.79188068799937 169.98896096660368 L 383.8196601125011 168.75570504584945 L 382.9471967129182 167.44997129431897 L 382.17986951623266 166.07980999479093 L 381.52240934977425 164.6536686473018 L 380.9788696740969 163.18033988749895 L 380.55260159204647 161.6689072771181 L 380.2462331880972 160.1286893008046 L 380.06165332533743 158.5691819145569 L 380 157 L 380.06165332533743 155.4308180854431 L 380.2462331880972 153.8713106991954 L 380.55260159204647 152.3310927228819 L 380.9788696740969 150.81966011250105 L 381.52240934977425 149.3463313526982 L 382.17986951623266 147.92019000520907 L 382.9471967129181 146.55002870568103 L 383.819660112501 145.24429495415055 L 384.79188068799937 144.01103903339634 L 385.85786437626905 142.85786437626905 L 387.01103903339634 141.7918806879994 L 388.2442949541505 140.81966011250105 L 389.55002870568103 139.94719671291816 L 390.92019000520907 139.17986951623263 L 392.3463313526982 138.52240934977425 L 393.8196601125011 137.97886967409693 L 395.3310927228819 137.55260159204647 L 396.8713106991954 137.24623318809725 L 398.43081808544315 137.06165332533743 L 400.00000000000006 137 L 401.56918191455696 137.06165332533743 L 403.1286893008047 137.24623318809725 L 404.6689072771182 137.5526015920465 L 406.18033988749903 137.97886967409696 L 407.6536686473019 138.5224093497743 L 409.07980999479105 139.1798695162327 L 410.4499712943191 139.9471967129182 L 411.7557050458496 140.81966011250114 L 412.98896096660377 141.79188068799948 L 414.14213562373106 142.85786437626916 L 415.20811931200075 144.01103903339646 L 416.18033988749903 145.2442949541507 L 417.05280328708193 146.55002870568117 L 417.82013048376746 147.92019000520924 L 418.4775906502258 149.3463313526984 L 419.02113032590313 150.81966011250125 L 419.4473984079536 152.3310927228821 L 419.7537668119028 153.87131069919562 L 419.93834667466257 155.43081808544335 Z" fill-opacity="1" stroke-opacity="1" stroke-miterlimit="10" stroke-width="2"/><text fill="none" stroke="rgb(0,0,0)" font-family="Helvetica Neue, Helvetica, sans-serif" font-size="10px" font-style="normal" font-weight="normal" text-decoration="normal" x="400" y="137" text-anchor="middle" dominant-baseline="text-after-edge" stroke-opacity="1" stroke-linejoin="round" stroke-miterlimit="10" stroke-width="4">host_ubuntu_2f69a215</text><text fill="rgb(255,255,255)" stroke="none" font-family="Helvetica Neue, Helvetica, sans-serif" font-size="10px" font-style="normal" font-weight="normal" text-decoration="normal" x="400" y="137" text-anchor="middle" dominant-baseline="text-after-edge" fill-opacity="1">host_ubuntu_2f69a215</text><path fill="rgb(99,102,241)" stroke="rgb(255,0,102)" paint-order="fill stroke markers" d=" M 81 112 L 80.95376000599691 113.17688643591768 L 80.81532510892707 114.34651697560346 L 80.58554880596515 115.50168045783857 L 80.2658477444273 116.63525491562422 L 79.8581929876693 117.74025148547635 L 79.36509786282552 118.8098574960932 L 78.78960246531139 119.83747847073923 L 78.13525491562422 120.8167787843871 L 77.40608948400046 121.74172072495276 L 76.60660171779821 122.60660171779821 L 75.74172072495276 123.40608948400046 L 74.8167787843871 124.13525491562422 L 73.83747847073923 124.78960246531139 L 72.8098574960932 125.36509786282552 L 71.74025148547635 125.8581929876693 L 70.63525491562422 126.2658477444273 L 69.50168045783859 126.58554880596515 L 68.34651697560346 126.81532510892707 L 67.17688643591768 126.95376000599691 L 66 127 L 64.82311356408232 126.95376000599691 L 63.653483024396536 126.81532510892707 L 62.49831954216142 126.58554880596515 L 61.36474508437579 126.2658477444273 L 60.25974851452365 125.8581929876693 L 59.1901425039068 125.36509786282552 L 58.16252152926077 124.78960246531139 L 57.1832212156129 124.13525491562422 L 56.258279275047244 123.40608948400046 L 55.39339828220179 122.60660171779821 L 54.59391051599954 121.74172072495276 L 53.86474508437579 120.8167787843871 L 53.21039753468862 119.83747847073923 L 52.634902137174485 118.8098574960932 L 52.1418070123307 117.74025148547635 L 51.734152255572695 116.63525491562422 L 51.414451194034854 115.50168045783859 L 51.18467489107294 114.34651697560346 L 51.04623999400308 113.17688643591768 L 51 112 L 51.04623999400308 110.82311356408233 L 51.18467489107293 109.65348302439654 L 51.414451194034854 108.49831954216143 L 51.734152255572695 107.36474508437578 L 52.141807012330695 106.25974851452365 L 52.63490213717448 105.1901425039068 L 53.21039753468862 104.16252152926077 L 53.864745084375784 103.1832212156129 L 54.59391051599953 102.25827927504724 L 55.39339828220179 101.39339828220179 L 56.25827927504724 100.59391051599954 L 57.1832212156129 99.86474508437578 L 58.16252152926077 99.21039753468861 L 59.190142503906806 98.63490213717448 L 60.25974851452367 98.14180701233069 L 61.36474508437581 97.7341522555727 L 62.49831954216145 97.41445119403484 L 63.65348302439657 97.18467489107293 L 64.82311356408238 97.04623999400307 L 66.00000000000006 97 L 67.17688643591774 97.04623999400309 L 68.34651697560352 97.18467489107294 L 69.50168045783865 97.41445119403487 L 70.63525491562429 97.73415225557272 L 71.74025148547642 98.14180701233073 L 72.80985749609329 98.63490213717452 L 73.83747847073931 99.21039753468867 L 74.81677878438718 99.86474508437585 L 75.74172072495284 100.59391051599961 L 76.6066017177983 101.39339828220187 L 77.40608948400055 102.25827927504734 L 78.13525491562429 103.183221215613 L 78.78960246531145 104.16252152926089 L 79.36509786282558 105.19014250390693 L 79.85819298766936 106.25974851452379 L 80.26584774442735 107.36474508437594 L 80.58554880596519 108.49831954216158 L 80.8153251089271 109.6534830243967 L 80.95376000599694 110.8231135640825 Z" fill-opacity="1" stroke-opacity="1" stroke-miterlimit="10" stroke-width="2"/><text fill="none" stroke="rgb(0,0,0)" font-family="Helvetica Neue, Helvetica, sans-serif" font-size="10px" font-style="normal" font-weight="normal" text-decoration="normal" x="66" y="97" text-anchor="middle" dominant-baseline="text-after-edge" stroke-opacity="1" stroke-linejoin="round" stroke-miterlimit="10" stroke-width="4">AC:L</text><text fill="rgb(255,255,255)" stroke="none" font-family="Helvetica Neue, Helvetica, sans-serif" font-size="10px" font-style="normal" font-weight="normal" text-decoration="normal" x="66" y="97" text-anchor="middle" dominant-baseline="text-after-edge" fill-opacity="1">AC:L</text><path fill="rgb(255,0,102)" stroke="rgb(0,0,0)" paint-order="fill stroke markers" d=" M 228 157 L 227.93064000899537 158.7653296538765 L 227.7229876633906 160.51977546340518 L 227.37832320894773 162.25252068675786 L 226.89877161664094 163.95288237343632 L 226.28728948150396 165.61037722821453 L 225.5476467942383 167.21478624413982 L 224.68440369796707 168.75621770610886 L 223.70288237343632 170.22516817658064 L 222.6091342260007 171.61258108742913 L 221.40990257669733 172.9099025766973 L 220.11258108742913 174.1091342260007 L 218.72516817658064 175.20288237343632 L 217.25621770610886 176.18440369796707 L 215.71478624413982 177.0476467942383 L 214.11037722821453 177.78728948150396 L 212.45288237343632 178.39877161664094 L 210.75252068675786 178.87832320894773 L 209.01977546340518 179.2229876633906 L 207.2653296538765 179.43064000899537 L 205.5 179.5 L 203.7346703461235 179.43064000899537 L 201.98022453659482 179.2229876633906 L 200.24747931324214 178.87832320894773 L 198.54711762656368 178.39877161664094 L 196.88962277178547 177.78728948150396 L 195.2852137558602 177.0476467942383 L 193.74378229389114 176.18440369796707 L 192.27483182341936 175.20288237343632 L 190.88741891257087 174.1091342260007 L 189.5900974233027 172.90990257669733 L 188.3908657739993 171.61258108742913 L 187.29711762656368 170.22516817658064 L 186.31559630203293 168.75621770610886 L 185.4523532057617 167.21478624413982 L 184.71271051849604 165.61037722821453 L 184.10122838335906 163.95288237343632 L 183.62167679105227 162.25252068675786 L 183.2770123366094 160.5197754634052 L 183.06935999100463 158.7653296538765 L 183 157 L 183.06935999100463 155.2346703461235 L 183.2770123366094 153.48022453659482 L 183.62167679105227 151.74747931324214 L 184.10122838335906 150.04711762656368 L 184.71271051849604 148.38962277178547 L 185.4523532057617 146.7852137558602 L 186.31559630203293 145.24378229389114 L 187.29711762656368 143.77483182341936 L 188.3908657739993 142.38741891257087 L 189.59009742330267 141.0900974233027 L 190.88741891257087 139.8908657739993 L 192.27483182341936 138.79711762656368 L 193.74378229389114 137.81559630203293 L 195.2852137558602 136.9523532057617 L 196.8896227717855 136.21271051849604 L 198.5471176265637 135.60122838335903 L 200.24747931324217 135.12167679105227 L 201.98022453659485 134.7770123366094 L 203.73467034612355 134.5693599910046 L 205.50000000000009 134.5 L 207.2653296538766 134.56935999100463 L 209.0197754634053 134.7770123366094 L 210.75252068675798 135.1216767910523 L 212.45288237343644 135.60122838335909 L 214.11037722821465 136.2127105184961 L 215.71478624413993 136.9523532057618 L 217.25621770610897 137.815596302033 L 218.72516817658078 138.79711762656376 L 220.11258108742925 139.89086577399942 L 221.40990257669745 141.0900974233028 L 222.6091342260008 142.387418912571 L 223.70288237343644 143.7748318234195 L 224.68440369796718 145.24378229389131 L 225.54764679423837 146.78521375586038 L 226.28728948150405 148.3896227717857 L 226.89877161664103 150.0471176265639 L 227.3783232089478 151.74747931324237 L 227.72298766339065 153.48022453659505 L 227.9306400089954 155.23467034612375 Z" fill-opacity="1" stroke-opacity="1" stroke-miterlimit="10" stroke-width="2"/><text fill="none" stroke="rgb(0,0,0)" font-family="Helvetica Neue, Helvetica, sans-serif" font-size="10px" font-style="normal" font-weight="normal" text-decoration="normal" x="205.5" y="134.5" text-anchor="middle" dominant-baseline="text-after-edge" stroke-opacity="1" stroke-linejoin="round" stroke-miterlimit="10" stroke-width="4">Hacker</text><text fill="rgb(255,255,255)" stroke="none" font-family="Helvetica Neue, Helvetica, sans-serif" font-size="10px" font-style="normal" font-weight="normal" text-decoration="normal" x="205.5" y="134.5" text-anchor="middle" dominant-baseline="text-after-edge" fill-opacity="1">Hacker</text><path fill="rgb(99,102,241)" stroke="rgb(255,0,102)" paint-order="fill stroke markers" d=" M 81 202 L 80.95376000599691 203.17688643591768 L 80.81532510892707 204.34651697560346 L 80.58554880596515 205.50168045783857 L 80.2658477444273 206.63525491562422 L 79.8581929876693 207.74025148547634 L 79.36509786282552 208.8098574960932 L 78.78960246531139 209.83747847073923 L 78.13525491562422 210.8167787843871 L 77.40608948400046 211.74172072495276 L 76.60660171779821 212.6066017177982 L 75.74172072495276 213.40608948400046 L 74.8167787843871 214.13525491562422 L 73.83747847073923 214.7896024653114 L 72.8098574960932 215.3650978628255 L 71.74025148547635 215.8581929876693 L 70.63525491562422 216.2658477444273 L 69.50168045783859 216.58554880596515 L 68.34651697560346 216.81532510892706 L 67.17688643591768 216.9537600059969 L 66 217 L 64.82311356408232 216.9537600059969 L 63.653483024396536 216.81532510892706 L 62.49831954216142 216.58554880596515 L 61.36474508437579 216.2658477444273 L 60.25974851452365 215.8581929876693 L 59.1901425039068 215.3650978628255 L 58.16252152926077 214.7896024653114 L 57.1832212156129 214.13525491562422 L 56.258279275047244 213.40608948400046 L 55.39339828220179 212.6066017177982 L 54.59391051599954 211.74172072495276 L 53.86474508437579 210.8167787843871 L 53.21039753468862 209.83747847073923 L 52.634902137174485 208.8098574960932 L 52.1418070123307 207.74025148547634 L 51.734152255572695 206.63525491562422 L 51.414451194034854 205.50168045783857 L 51.18467489107294 204.34651697560346 L 51.04623999400308 203.17688643591768 L 51 202 L 51.04623999400308 200.82311356408232 L 51.18467489107293 199.65348302439654 L 51.414451194034854 198.49831954216143 L 51.734152255572695 197.36474508437578 L 52.141807012330695 196.25974851452366 L 52.63490213717448 195.1901425039068 L 53.21039753468862 194.16252152926077 L 53.864745084375784 193.18322121561292 L 54.59391051599953 192.25827927504724 L 55.39339828220179 191.3933982822018 L 56.25827927504724 190.59391051599954 L 57.1832212156129 189.86474508437578 L 58.16252152926077 189.2103975346886 L 59.190142503906806 188.63490213717446 L 60.25974851452367 188.1418070123307 L 61.36474508437581 187.7341522555727 L 62.49831954216145 187.41445119403485 L 63.65348302439657 187.18467489107292 L 64.82311356408238 187.0462399940031 L 66.00000000000006 187 L 67.17688643591774 187.0462399940031 L 68.34651697560352 187.18467489107294 L 69.50168045783865 187.41445119403485 L 70.63525491562429 187.73415225557272 L 71.74025148547642 188.14180701233073 L 72.80985749609329 188.63490213717452 L 73.83747847073931 189.21039753468867 L 74.81677878438718 189.86474508437584 L 75.74172072495284 190.5939105159996 L 76.6066017177983 191.39339828220187 L 77.40608948400055 192.25827927504733 L 78.13525491562429 193.183221215613 L 78.78960246531145 194.16252152926089 L 79.36509786282558 195.1901425039069 L 79.85819298766936 196.25974851452378 L 80.26584774442735 197.36474508437593 L 80.58554880596519 198.49831954216157 L 80.8153251089271 199.6534830243967 L 80.95376000599694 200.8231135640825 Z" fill-opacity="1" stroke-opacity="1" stroke-miterlimit="10" stroke-width="2"/><text fill="none" stroke="rgb(0,0,0)" font-family="Helvetica Neue, Helvetica, sans-serif" font-size="10px" font-style="normal" font-weight="normal" text-decoration="normal" x="66" y="187" text-anchor="middle" dominant-baseline="text-after-edge" stroke-opacity="1" stroke-linejoin="round" stroke-miterlimit="10" stroke-width="4">AV:N</text><text fill="rgb(255,255,255)" stroke="none" font-family="Helvetica Neue, Helvetica, sans-serif" font-size="10px" font-style="normal" font-weight="normal" text-decoration="normal" x="66" y="187" text-anchor="middle" dominant-baseline="text-after-edge" fill-opacity="1">AV:N</text><path fill="rgb(99,102,241)" stroke="rgb(255,0,102)" paint-order="fill stroke markers" d=" M 81 247 L 80.95376000599691 248.17688643591768 L 80.81532510892707 249.34651697560346 L 80.58554880596515 250.50168045783857 L 80.2658477444273 251.63525491562422 L 79.8581929876693 252.74025148547634 L 79.36509786282552 253.8098574960932 L 78.78960246531139 254.83747847073923 L 78.13525491562422 255.8167787843871 L 77.40608948400046 256.74172072495276 L 76.60660171779821 257.6066017177982 L 75.74172072495276 258.40608948400046 L 74.8167787843871 259.1352549156242 L 73.83747847073923 259.78960246531136 L 72.8098574960932 260.3650978628255 L 71.74025148547635 260.8581929876693 L 70.63525491562422 261.2658477444273 L 69.50168045783859 261.5855488059652 L 68.34651697560346 261.8153251089271 L 67.17688643591768 261.9537600059969 L 66 262 L 64.82311356408232 261.9537600059969 L 63.653483024396536 261.8153251089271 L 62.49831954216142 261.5855488059652 L 61.36474508437579 261.26584774442733 L 60.25974851452365 260.8581929876693 L 59.1901425039068 260.3650978628255 L 58.16252152926077 259.78960246531136 L 57.1832212156129 259.1352549156242 L 56.258279275047244 258.40608948400046 L 55.39339828220179 257.6066017177982 L 54.59391051599954 256.74172072495276 L 53.86474508437579 255.8167787843871 L 53.21039753468862 254.83747847073923 L 52.634902137174485 253.8098574960932 L 52.1418070123307 252.74025148547634 L 51.734152255572695 251.63525491562422 L 51.414451194034854 250.50168045783857 L 51.18467489107294 249.34651697560346 L 51.04623999400308 248.17688643591768 L 51 247 L 51.04623999400308 245.82311356408232 L 51.18467489107293 244.65348302439654 L 51.414451194034854 243.49831954216143 L 51.734152255572695 242.36474508437578 L 52.141807012330695 241.25974851452366 L 52.63490213717448 240.1901425039068 L 53.21039753468862 239.16252152926077 L 53.864745084375784 238.18322121561292 L 54.59391051599953 237.25827927504724 L 55.39339828220179 236.3933982822018 L 56.25827927504724 235.59391051599954 L 57.1832212156129 234.86474508437578 L 58.16252152926077 234.2103975346886 L 59.190142503906806 233.63490213717446 L 60.25974851452367 233.1418070123307 L 61.36474508437581 232.7341522555727 L 62.49831954216145 232.41445119403485 L 63.65348302439657 232.18467489107292 L 64.82311356408238 232.0462399940031 L 66.00000000000006 232 L 67.17688643591774 232.0462399940031 L 68.34651697560352 232.18467489107294 L 69.50168045783865 232.41445119403485 L 70.63525491562429 232.73415225557272 L 71.74025148547642 233.14180701233073 L 72.80985749609329 233.63490213717452 L 73.83747847073931 234.21039753468867 L 74.81677878438718 234.86474508437584 L 75.74172072495284 235.5939105159996 L 76.6066017177983 236.39339828220187 L 77.40608948400055 237.25827927504733 L 78.13525491562429 238.183221215613 L 78.78960246531145 239.16252152926089 L 79.36509786282558 240.1901425039069 L 79.85819298766936 241.25974851452378 L 80.26584774442735 242.36474508437593 L 80.58554880596519 243.49831954216157 L 80.8153251089271 244.6534830243967 L 80.95376000599694 245.8231135640825 Z" fill-opacity="1" stroke-opacity="1" stroke-miterlimit="10" stroke-width="2"/><text fill="none" stroke="rgb(0,0,0)" font-family="Helvetica Neue, Helvetica, sans-serif" font-size="10px" font-style="normal" font-weight="normal" text-decoration="normal" x="66" y="232" text-anchor="middle" dominant-baseline="text-after-edge" stroke-opacity="1" stroke-linejoin="round" stroke-miterlimit="10" stroke-width="4">PR:N</text><text fill="rgb(255,255,255)" stroke="none" font-family="Helvetica Neue, Helvetica, sans-serif" font-size="10px" font-style="normal" font-weight="normal" text-decoration="normal" x="66" y="232" text-anchor="middle" dominant-baseline="text-after-edge" fill-opacity="1">PR:N</text><path fill="rgb(234,179,8)" stroke="rgb(0,0,0)" paint-order="fill stroke markers" d=" M 607 245 L 606.9460533403297 246.37303417523728 L 606.7845459604149 247.73760313820404 L 606.5164736069594 249.08529386747836 L 606.1434890351652 250.40779740156157 L 605.6678918189475 251.69696006638907 L 605.0926141732964 252.94483374544205 L 604.4212028761966 254.1437248825291 L 603.6577974015615 255.28624191511827 L 602.8071043980005 256.36534084577823 L 601.8743686707646 257.37436867076457 L 600.8653408457782 258.30710439800055 L 599.7862419151182 259.1577974015616 L 598.6437248825291 259.9212028761966 L 597.4448337454421 260.59261417329645 L 596.1969600663891 261.1678918189475 L 594.9077974015615 261.6434890351652 L 593.5852938674783 262.0164736069593 L 592.237603138204 262.2845459604149 L 590.8730341752373 262.44605334032974 L 589.5 262.5 L 588.1269658247627 262.44605334032974 L 586.762396861796 262.2845459604149 L 585.4147061325217 262.0164736069593 L 584.0922025984385 261.6434890351652 L 582.8030399336109 261.1678918189475 L 581.5551662545579 260.59261417329645 L 580.3562751174709 259.9212028761966 L 579.2137580848818 259.1577974015616 L 578.1346591542218 258.30710439800055 L 577.1256313292354 257.37436867076457 L 576.1928956019995 256.36534084577823 L 575.3422025984385 255.2862419151183 L 574.5787971238034 254.1437248825291 L 573.9073858267036 252.94483374544208 L 573.3321081810525 251.69696006638907 L 572.8565109648348 250.4077974015616 L 572.4835263930406 249.08529386747836 L 572.2154540395851 247.73760313820404 L 572.0539466596703 246.37303417523728 L 572 245 L 572.0539466596703 243.62696582476272 L 572.2154540395851 242.26239686179596 L 572.4835263930406 240.91470613252164 L 572.8565109648348 239.59220259843843 L 573.3321081810525 238.30303993361093 L 573.9073858267036 237.05516625455795 L 574.5787971238034 235.8562751174709 L 575.3422025984385 234.71375808488173 L 576.1928956019995 233.6346591542218 L 577.1256313292354 232.62563132923543 L 578.1346591542218 231.69289560199945 L 579.2137580848818 230.84220259843843 L 580.3562751174709 230.07879712380338 L 581.5551662545579 229.40738582670355 L 582.803039933611 228.8321081810525 L 584.0922025984385 228.3565109648348 L 585.4147061325217 227.98352639304065 L 586.762396861796 227.7154540395851 L 588.1269658247628 227.55394665967026 L 589.5000000000001 227.5 L 590.8730341752373 227.55394665967026 L 592.2376031382041 227.7154540395851 L 593.5852938674784 227.98352639304068 L 594.9077974015617 228.35651096483485 L 596.1969600663891 228.83210818105252 L 597.4448337454421 229.4073858267036 L 598.6437248825292 230.07879712380344 L 599.7862419151184 230.8422025984385 L 600.8653408457783 231.69289560199954 L 601.8743686707646 232.62563132923552 L 602.8071043980007 233.6346591542219 L 603.6577974015617 234.71375808488185 L 604.4212028761967 235.85627511747103 L 605.0926141732965 237.0551662545581 L 605.6678918189476 238.3030399336111 L 606.1434890351652 239.5922025984386 L 606.5164736069594 240.91470613252184 L 606.7845459604149 242.26239686179616 L 606.9460533403297 243.62696582476292 Z" fill-opacity="1" stroke-opacity="1" stroke-miterlimit="10" stroke-width="2"/><text fill="none" stroke="rgb(0,0,0)" font-family="Helvetica Neue, Helvetica, sans-serif" font-size="10px" font-style="normal" font-weight="normal" text-decoration="normal" x="589.5" y="227.5" text-anchor="middle" dominant-baseline="text-after-edge" stroke-opacity="1" stroke-linejoin="round" stroke-miterlimit="10" stroke-width="4">CVE-2025-68121</text><text fill="rgb(255,255,255)" stroke="none" font-family="Helvetica Neue, Helvetica, sans-serif" font-size="10px" font-style="normal" font-weight="normal" text-decoration="normal" x="589.5" y="227.5" text-anchor="middle" dominant-baseline="text-after-edge" fill-opacity="1">CVE-2025-68121</text><path fill="rgb(99,102,241)" stroke="rgb(0,0,0)" paint-order="fill stroke markers" d=" M 789 355.25 L 788.953760005997 356.42688643591765 L 788.815325108927 357.59651697560344 L 788.5855488059651 358.7516804578386 L 788.2658477444273 359.8852549156242 L 787.8581929876693 360.99025148547634 L 787.3650978628256 362.0598574960932 L 786.7896024653114 363.08747847073926 L 786.1352549156242 364.0667787843871 L 785.4060894840005 364.99172072495276 L 784.6066017177982 365.8566017177982 L 783.7417207249528 366.65608948400046 L 782.8167787843871 367.3852549156242 L 781.8374784707393 368.03960246531136 L 780.8098574960932 368.6150978628255 L 779.7402514854764 369.1081929876693 L 778.6352549156242 369.5158477444273 L 777.5016804578386 369.8355488059652 L 776.3465169756034 370.0653251089271 L 775.1768864359177 370.2037600059969 L 774 370.25 L 772.8231135640823 370.2037600059969 L 771.6534830243966 370.0653251089271 L 770.4983195421614 369.8355488059652 L 769.3647450843758 369.51584774442733 L 768.2597485145236 369.1081929876693 L 767.1901425039068 368.6150978628255 L 766.1625215292607 368.03960246531136 L 765.1832212156129 367.3852549156242 L 764.2582792750472 366.65608948400046 L 763.3933982822018 365.8566017177982 L 762.5939105159995 364.99172072495276 L 761.8647450843758 364.0667787843871 L 761.2103975346886 363.08747847073926 L 760.6349021371744 362.05985749609323 L 760.1418070123307 360.99025148547634 L 759.7341522555727 359.8852549156242 L 759.4144511940349 358.7516804578386 L 759.184674891073 357.5965169756035 L 759.046239994003 356.42688643591765 L 759 355.25 L 759.046239994003 354.07311356408235 L 759.184674891073 352.90348302439656 L 759.4144511940349 351.7483195421614 L 759.7341522555727 350.6147450843758 L 760.1418070123307 349.50974851452366 L 760.6349021371744 348.4401425039068 L 761.2103975346886 347.41252152926074 L 761.8647450843758 346.4332212156129 L 762.5939105159995 345.50827927504724 L 763.3933982822018 344.6433982822018 L 764.2582792750472 343.84391051599954 L 765.1832212156129 343.1147450843758 L 766.1625215292607 342.46039753468864 L 767.1901425039068 341.8849021371745 L 768.2597485145237 341.3918070123307 L 769.3647450843758 340.98415225557267 L 770.4983195421614 340.6644511940348 L 771.6534830243966 340.4346748910729 L 772.8231135640824 340.2962399940031 L 774 340.25 L 775.1768864359177 340.2962399940031 L 776.3465169756035 340.4346748910729 L 777.5016804578387 340.6644511940349 L 778.6352549156243 340.9841522555727 L 779.7402514854764 341.39180701233073 L 780.8098574960933 341.88490213717455 L 781.8374784707394 342.4603975346887 L 782.8167787843872 343.11474508437584 L 783.7417207249529 343.8439105159996 L 784.6066017177983 344.6433982822019 L 785.4060894840005 345.50827927504736 L 786.1352549156243 346.433221215613 L 786.7896024653114 347.41252152926086 L 787.3650978628256 348.44014250390694 L 787.8581929876693 349.5097485145238 L 788.2658477444273 350.61474508437595 L 788.5855488059652 351.7483195421616 L 788.8153251089271 352.9034830243967 L 788.953760005997 354.0731135640825 Z" fill-opacity="1" stroke-opacity="1" stroke-miterlimit="10" stroke-width="2"/><text fill="none" stroke="rgb(0,0,0)" font-family="Helvetica Neue, Helvetica, sans-serif" font-size="10px" font-style="normal" font-weight="normal" text-decoration="normal" x="774" y="340.25" text-anchor="middle" dominant-baseline="text-after-edge" stroke-opacity="1" stroke-linejoin="round" stroke-miterlimit="10" stroke-width="4">AV:L</text><text fill="rgb(255,255,255)" stroke="none" font-family="Helvetica Neue, Helvetica, sans-serif" font-size="10px" font-style="normal" font-weight="normal" text-decoration="normal" x="774" y="340.25" text-anchor="middle" dominant-baseline="text-after-edge" fill-opacity="1">AV:L</text><path fill="rgb(99,102,241)" stroke="rgb(0,0,0)" paint-order="fill stroke markers" d=" M 789 273.25 L 788.953760005997 274.42688643591765 L 788.815325108927 275.59651697560344 L 788.5855488059651 276.7516804578386 L 788.2658477444273 277.8852549156242 L 787.8581929876693 278.99025148547634 L 787.3650978628256 280.0598574960932 L 786.7896024653114 281.08747847073926 L 786.1352549156242 282.0667787843871 L 785.4060894840005 282.99172072495276 L 784.6066017177982 283.8566017177982 L 783.7417207249528 284.65608948400046 L 782.8167787843871 285.3852549156242 L 781.8374784707393 286.03960246531136 L 780.8098574960932 286.6150978628255 L 779.7402514854764 287.1081929876693 L 778.6352549156242 287.5158477444273 L 777.5016804578386 287.8355488059652 L 776.3465169756034 288.0653251089271 L 775.1768864359177 288.2037600059969 L 774 288.25 L 772.8231135640823 288.2037600059969 L 771.6534830243966 288.0653251089271 L 770.4983195421614 287.8355488059652 L 769.3647450843758 287.51584774442733 L 768.2597485145236 287.1081929876693 L 767.1901425039068 286.6150978628255 L 766.1625215292607 286.03960246531136 L 765.1832212156129 285.3852549156242 L 764.2582792750472 284.65608948400046 L 763.3933982822018 283.8566017177982 L 762.5939105159995 282.99172072495276 L 761.8647450843758 282.0667787843871 L 761.2103975346886 281.08747847073926 L 760.6349021371744 280.05985749609323 L 760.1418070123307 278.99025148547634 L 759.7341522555727 277.8852549156242 L 759.4144511940349 276.7516804578386 L 759.184674891073 275.5965169756035 L 759.046239994003 274.42688643591765 L 759 273.25 L 759.046239994003 272.07311356408235 L 759.184674891073 270.90348302439656 L 759.4144511940349 269.7483195421614 L 759.7341522555727 268.6147450843758 L 760.1418070123307 267.50974851452366 L 760.6349021371744 266.4401425039068 L 761.2103975346886 265.41252152926074 L 761.8647450843758 264.4332212156129 L 762.5939105159995 263.50827927504724 L 763.3933982822018 262.6433982822018 L 764.2582792750472 261.84391051599954 L 765.1832212156129 261.1147450843758 L 766.1625215292607 260.46039753468864 L 767.1901425039068 259.8849021371745 L 768.2597485145237 259.3918070123307 L 769.3647450843758 258.98415225557267 L 770.4983195421614 258.6644511940348 L 771.6534830243966 258.4346748910729 L 772.8231135640824 258.2962399940031 L 774 258.25 L 775.1768864359177 258.2962399940031 L 776.3465169756035 258.4346748910729 L 777.5016804578387 258.6644511940349 L 778.6352549156243 258.9841522555727 L 779.7402514854764 259.39180701233073 L 780.8098574960933 259.88490213717455 L 781.8374784707394 260.4603975346887 L 782.8167787843872 261.11474508437584 L 783.7417207249529 261.8439105159996 L 784.6066017177983 262.6433982822019 L 785.4060894840005 263.50827927504736 L 786.1352549156243 264.433221215613 L 786.7896024653114 265.41252152926086 L 787.3650978628256 266.44014250390694 L 787.8581929876693 267.5097485145238 L 788.2658477444273 268.61474508437595 L 788.5855488059652 269.7483195421616 L 788.8153251089271 270.9034830243967 L 788.953760005997 272.0731135640825 Z" fill-opacity="1" stroke-opacity="1" stroke-miterlimit="10" stroke-width="2"/><text fill="none" stroke="rgb(0,0,0)" font-family="Helvetica Neue, Helvetica, sans-serif" font-size="10px" font-style="normal" font-weight="normal" text-decoration="normal" x="774" y="258.25" text-anchor="middle" dominant-baseline="text-after-edge" stroke-opacity="1" stroke-linejoin="round" stroke-miterlimit="10" stroke-width="4">PR:H</text><text fill="rgb(255,255,255)" stroke="none" font-family="Helvetica Neue, Helvetica, sans-serif" font-size="10px" font-style="normal" font-weight="normal" text-decoration="normal" x="774" y="258.25" text-anchor="middle" dominant-baseline="text-after-edge" fill-opacity="1">PR:H</text><path fill="rgb(255,0,0)" stroke="rgb(255,215,0)" paint-order="fill stroke markers" d=" M 1054 219 L 1044.7343318831333 233.22991935488204 L 1029 238.09830056250524 L 1039.0078340584334 251.76125558861554 L 1038.5491502812527 269 L 1054 263.2142512380153 L 1069.4508497187473 269 L 1068.9921659415666 251.76125558861554 L 1079 238.09830056250527 L 1063.2656681168667 233.22991935488207 Z" fill-opacity="1" stroke-opacity="1" stroke-miterlimit="10" stroke-width="4"/><text fill="none" stroke="rgb(0,0,0)" font-family="Helvetica Neue, Helvetica, sans-serif" font-size="10px" font-style="normal" font-weight="bold" text-decoration="normal" x="1054" y="219" text-anchor="middle" dominant-baseline="text-after-edge" stroke-opacity="1" stroke-linejoin="round" stroke-miterlimit="10" stroke-width="4">EXPLOITED</text><text fill="rgb(255,255,255)" stroke="none" font-family="Helvetica Neue, Helvetica, sans-serif" font-size="10px" font-style="normal" font-weight="bold" text-decoration="normal" x="1054" y="219" text-anchor="middle" dominant-baseline="text-after-edge" fill-opacity="1">EXPLOITED</text><path fill="rgb(234,179,8)" stroke="rgb(0,0,0)" paint-order="fill stroke markers" d=" M 607 290 L 606.9460533403297 291.3730341752373 L 606.7845459604149 292.73760313820407 L 606.5164736069594 294.08529386747836 L 606.1434890351652 295.4077974015616 L 605.6678918189475 296.69696006638907 L 605.0926141732964 297.94483374544205 L 604.4212028761966 299.1437248825291 L 603.6577974015615 300.2862419151183 L 602.8071043980005 301.36534084577823 L 601.8743686707646 302.37436867076457 L 600.8653408457782 303.30710439800055 L 599.7862419151182 304.1577974015616 L 598.6437248825291 304.9212028761966 L 597.4448337454421 305.59261417329645 L 596.1969600663891 306.1678918189475 L 594.9077974015615 306.6434890351652 L 593.5852938674783 307.0164736069593 L 592.237603138204 307.2845459604149 L 590.8730341752373 307.44605334032974 L 589.5 307.5 L 588.1269658247627 307.44605334032974 L 586.762396861796 307.2845459604149 L 585.4147061325217 307.0164736069593 L 584.0922025984385 306.6434890351652 L 582.8030399336109 306.1678918189475 L 581.5551662545579 305.59261417329645 L 580.3562751174709 304.9212028761966 L 579.2137580848818 304.1577974015616 L 578.1346591542218 303.30710439800055 L 577.1256313292354 302.37436867076457 L 576.1928956019995 301.36534084577823 L 575.3422025984385 300.2862419151183 L 574.5787971238034 299.1437248825291 L 573.9073858267036 297.94483374544205 L 573.3321081810525 296.69696006638907 L 572.8565109648348 295.4077974015616 L 572.4835263930406 294.08529386747836 L 572.2154540395851 292.73760313820407 L 572.0539466596703 291.3730341752373 L 572 290 L 572.0539466596703 288.6269658247627 L 572.2154540395851 287.26239686179593 L 572.4835263930406 285.91470613252164 L 572.8565109648348 284.5922025984384 L 573.3321081810525 283.30303993361093 L 573.9073858267036 282.05516625455795 L 574.5787971238034 280.8562751174709 L 575.3422025984385 279.7137580848817 L 576.1928956019995 278.63465915422177 L 577.1256313292354 277.62563132923543 L 578.1346591542218 276.69289560199945 L 579.2137580848818 275.8422025984384 L 580.3562751174709 275.0787971238034 L 581.5551662545579 274.40738582670355 L 582.803039933611 273.8321081810525 L 584.0922025984385 273.3565109648348 L 585.4147061325217 272.9835263930407 L 586.762396861796 272.7154540395851 L 588.1269658247628 272.55394665967026 L 589.5000000000001 272.5 L 590.8730341752373 272.55394665967026 L 592.2376031382041 272.7154540395851 L 593.5852938674784 272.9835263930407 L 594.9077974015617 273.35651096483485 L 596.1969600663891 273.8321081810525 L 597.4448337454421 274.4073858267036 L 598.6437248825292 275.07879712380344 L 599.7862419151184 275.8422025984385 L 600.8653408457783 276.69289560199957 L 601.8743686707646 277.6256313292355 L 602.8071043980007 278.6346591542219 L 603.6577974015617 279.7137580848818 L 604.4212028761967 280.85627511747106 L 605.0926141732965 282.05516625455806 L 605.6678918189476 283.3030399336111 L 606.1434890351652 284.5922025984386 L 606.5164736069594 285.9147061325218 L 606.7845459604149 287.26239686179616 L 606.9460533403297 288.6269658247629 Z" fill-opacity="1" stroke-opacity="1" stroke-miterlimit="10" stroke-width="2"/><text fill="none" stroke="rgb(0,0,0)" font-family="Helvetica Neue, Helvetica, sans-serif" font-size="10px" font-style="normal" font-weight="normal" text-decoration="normal" x="589.5" y="272.5" text-anchor="middle" dominant-baseline="text-after-edge" stroke-opacity="1" stroke-linejoin="round" stroke-miterlimit="10" stroke-width="4">CVE-2026-25679</text><text fill="rgb(255,255,255)" stroke="none" font-family="Helvetica Neue, Helvetica, sans-serif" font-size="10px" font-style="normal" font-weight="normal" text-decoration="normal" x="589.5" y="272.5" text-anchor="middle" dominant-baseline="text-after-edge" fill-opacity="1">CVE-2026-25679</text><path fill="rgb(99,102,241)" stroke="rgb(255,0,102)" paint-order="fill stroke markers" d=" M 81 292 L 80.95376000599691 293.17688643591765 L 80.81532510892707 294.34651697560344 L 80.58554880596515 295.5016804578386 L 80.2658477444273 296.6352549156242 L 79.8581929876693 297.74025148547634 L 79.36509786282552 298.8098574960932 L 78.78960246531139 299.83747847073926 L 78.13525491562422 300.8167787843871 L 77.40608948400046 301.74172072495276 L 76.60660171779821 302.6066017177982 L 75.74172072495276 303.40608948400046 L 74.8167787843871 304.1352549156242 L 73.83747847073923 304.78960246531136 L 72.8098574960932 305.3650978628255 L 71.74025148547635 305.8581929876693 L 70.63525491562422 306.2658477444273 L 69.50168045783859 306.5855488059652 L 68.34651697560346 306.8153251089271 L 67.17688643591768 306.9537600059969 L 66 307 L 64.82311356408232 306.9537600059969 L 63.653483024396536 306.8153251089271 L 62.49831954216142 306.5855488059652 L 61.36474508437579 306.26584774442733 L 60.25974851452365 305.8581929876693 L 59.1901425039068 305.3650978628255 L 58.16252152926077 304.78960246531136 L 57.1832212156129 304.1352549156242 L 56.258279275047244 303.40608948400046 L 55.39339828220179 302.6066017177982 L 54.59391051599954 301.74172072495276 L 53.86474508437579 300.8167787843871 L 53.21039753468862 299.83747847073926 L 52.634902137174485 298.80985749609323 L 52.1418070123307 297.74025148547634 L 51.734152255572695 296.6352549156242 L 51.414451194034854 295.5016804578386 L 51.18467489107294 294.3465169756035 L 51.04623999400308 293.17688643591765 L 51 292 L 51.04623999400308 290.82311356408235 L 51.18467489107293 289.65348302439656 L 51.414451194034854 288.4983195421614 L 51.734152255572695 287.3647450843758 L 52.141807012330695 286.25974851452366 L 52.63490213717448 285.1901425039068 L 53.21039753468862 284.16252152926074 L 53.864745084375784 283.1832212156129 L 54.59391051599953 282.25827927504724 L 55.39339828220179 281.3933982822018 L 56.25827927504724 280.59391051599954 L 57.1832212156129 279.8647450843758 L 58.16252152926077 279.21039753468864 L 59.190142503906806 278.6349021371745 L 60.25974851452367 278.1418070123307 L 61.36474508437581 277.73415225557267 L 62.49831954216145 277.4144511940348 L 63.65348302439657 277.1846748910729 L 64.82311356408238 277.0462399940031 L 66.00000000000006 277 L 67.17688643591774 277.0462399940031 L 68.34651697560352 277.1846748910729 L 69.50168045783865 277.4144511940349 L 70.63525491562429 277.7341522555727 L 71.74025148547642 278.14180701233073 L 72.80985749609329 278.63490213717455 L 73.83747847073931 279.2103975346887 L 74.81677878438718 279.86474508437584 L 75.74172072495284 280.5939105159996 L 76.6066017177983 281.3933982822019 L 77.40608948400055 282.25827927504736 L 78.13525491562429 283.183221215613 L 78.78960246531145 284.16252152926086 L 79.36509786282558 285.19014250390694 L 79.85819298766936 286.2597485145238 L 80.26584774442735 287.36474508437595 L 80.58554880596519 288.4983195421616 L 80.8153251089271 289.6534830243967 L 80.95376000599694 290.8231135640825 Z" fill-opacity="1" stroke-opacity="1" stroke-miterlimit="10" stroke-width="2"/><text fill="none" stroke="rgb(0,0,0)" font-family="Helvetica Neue, Helvetica, sans-serif" font-size="10px" font-style="normal" font-weight="normal" text-decoration="normal" x="66" y="277" text-anchor="middle" dominant-baseline="text-after-edge" stroke-opacity="1" stroke-linejoin="round" stroke-miterlimit="10" stroke-width="4">UI:N</text><text fill="rgb(255,255,255)" stroke="none" font-family="Helvetica Neue, Helvetica, sans-serif" font-size="10px" font-style="normal" font-weight="normal" text-decoration="normal" x="66" y="277" text-anchor="middle" dominant-baseline="text-after-edge" fill-opacity="1">UI:N</text><path fill="rgb(234,179,8)" stroke="rgb(0,0,0)" paint-order="fill stroke markers" d=" M 607 335 L 606.9460533403297 336.3730341752373 L 606.7845459604149 337.73760313820407 L 606.5164736069594 339.08529386747836 L 606.1434890351652 340.4077974015616 L 605.6678918189475 341.69696006638907 L 605.0926141732964 342.94483374544205 L 604.4212028761966 344.1437248825291 L 603.6577974015615 345.2862419151183 L 602.8071043980005 346.36534084577823 L 601.8743686707646 347.37436867076457 L 600.8653408457782 348.30710439800055 L 599.7862419151182 349.1577974015616 L 598.6437248825291 349.9212028761966 L 597.4448337454421 350.59261417329645 L 596.1969600663891 351.1678918189475 L 594.9077974015615 351.6434890351652 L 593.5852938674783 352.0164736069593 L 592.237603138204 352.2845459604149 L 590.8730341752373 352.44605334032974 L 589.5 352.5 L 588.1269658247627 352.44605334032974 L 586.762396861796 352.2845459604149 L 585.4147061325217 352.0164736069593 L 584.0922025984385 351.6434890351652 L 582.8030399336109 351.1678918189475 L 581.5551662545579 350.59261417329645 L 580.3562751174709 349.9212028761966 L 579.2137580848818 349.1577974015616 L 578.1346591542218 348.30710439800055 L 577.1256313292354 347.37436867076457 L 576.1928956019995 346.36534084577823 L 575.3422025984385 345.2862419151183 L 574.5787971238034 344.1437248825291 L 573.9073858267036 342.94483374544205 L 573.3321081810525 341.69696006638907 L 572.8565109648348 340.4077974015616 L 572.4835263930406 339.08529386747836 L 572.2154540395851 337.73760313820407 L 572.0539466596703 336.3730341752373 L 572 335 L 572.0539466596703 333.6269658247627 L 572.2154540395851 332.26239686179593 L 572.4835263930406 330.91470613252164 L 572.8565109648348 329.5922025984384 L 573.3321081810525 328.30303993361093 L 573.9073858267036 327.05516625455795 L 574.5787971238034 325.8562751174709 L 575.3422025984385 324.7137580848817 L 576.1928956019995 323.63465915422177 L 577.1256313292354 322.62563132923543 L 578.1346591542218 321.69289560199945 L 579.2137580848818 320.8422025984384 L 580.3562751174709 320.0787971238034 L 581.5551662545579 319.40738582670355 L 582.803039933611 318.8321081810525 L 584.0922025984385 318.3565109648348 L 585.4147061325217 317.9835263930407 L 586.762396861796 317.7154540395851 L 588.1269658247628 317.55394665967026 L 589.5000000000001 317.5 L 590.8730341752373 317.55394665967026 L 592.2376031382041 317.7154540395851 L 593.5852938674784 317.9835263930407 L 594.9077974015617 318.35651096483485 L 596.1969600663891 318.8321081810525 L 597.4448337454421 319.4073858267036 L 598.6437248825292 320.07879712380344 L 599.7862419151184 320.8422025984385 L 600.8653408457783 321.69289560199957 L 601.8743686707646 322.6256313292355 L 602.8071043980007 323.6346591542219 L 603.6577974015617 324.7137580848818 L 604.4212028761967 325.85627511747106 L 605.0926141732965 327.05516625455806 L 605.6678918189476 328.3030399336111 L 606.1434890351652 329.5922025984386 L 606.5164736069594 330.9147061325218 L 606.7845459604149 332.26239686179616 L 606.9460533403297 333.6269658247629 Z" fill-opacity="1" stroke-opacity="1" stroke-miterlimit="10" stroke-width="2"/><text fill="none" stroke="rgb(0,0,0)" font-family="Helvetica Neue, Helvetica, sans-serif" font-size="10px" font-style="normal" font-weight="normal" text-decoration="normal" x="589.5" y="317.5" text-anchor="middle" dominant-baseline="text-after-edge" stroke-opacity="1" stroke-linejoin="round" stroke-miterlimit="10" stroke-width="4">CVE-2026-32281</text><text fill="rgb(255,255,255)" stroke="none" font-family="Helvetica Neue, Helvetica, sans-serif" font-size="10px" font-style="normal" font-weight="normal" text-decoration="normal" x="589.5" y="317.5" text-anchor="middle" dominant-baseline="text-after-edge" fill-opacity="1">CVE-2026-32281</text><path fill="rgb(234,179,8)" stroke="rgb(255,102,102)" paint-order="fill stroke markers" d=" M 607 380 L 606.9460533403297 381.3730341752373 L 606.7845459604149 382.73760313820407 L 606.5164736069594 384.08529386747836 L 606.1434890351652 385.4077974015616 L 605.6678918189475 386.69696006638907 L 605.0926141732964 387.94483374544205 L 604.4212028761966 389.1437248825291 L 603.6577974015615 390.2862419151183 L 602.8071043980005 391.36534084577823 L 601.8743686707646 392.37436867076457 L 600.8653408457782 393.30710439800055 L 599.7862419151182 394.1577974015616 L 598.6437248825291 394.9212028761966 L 597.4448337454421 395.59261417329645 L 596.1969600663891 396.1678918189475 L 594.9077974015615 396.6434890351652 L 593.5852938674783 397.0164736069593 L 592.237603138204 397.2845459604149 L 590.8730341752373 397.44605334032974 L 589.5 397.5 L 588.1269658247627 397.44605334032974 L 586.762396861796 397.2845459604149 L 585.4147061325217 397.0164736069593 L 584.0922025984385 396.6434890351652 L 582.8030399336109 396.1678918189475 L 581.5551662545579 395.59261417329645 L 580.3562751174709 394.9212028761966 L 579.2137580848818 394.1577974015616 L 578.1346591542218 393.30710439800055 L 577.1256313292354 392.37436867076457 L 576.1928956019995 391.36534084577823 L 575.3422025984385 390.2862419151183 L 574.5787971238034 389.1437248825291 L 573.9073858267036 387.94483374544205 L 573.3321081810525 386.69696006638907 L 572.8565109648348 385.4077974015616 L 572.4835263930406 384.08529386747836 L 572.2154540395851 382.73760313820407 L 572.0539466596703 381.3730341752373 L 572 380 L 572.0539466596703 378.6269658247627 L 572.2154540395851 377.26239686179593 L 572.4835263930406 375.91470613252164 L 572.8565109648348 374.5922025984384 L 573.3321081810525 373.30303993361093 L 573.9073858267036 372.05516625455795 L 574.5787971238034 370.8562751174709 L 575.3422025984385 369.7137580848817 L 576.1928956019995 368.63465915422177 L 577.1256313292354 367.62563132923543 L 578.1346591542218 366.69289560199945 L 579.2137580848818 365.8422025984384 L 580.3562751174709 365.0787971238034 L 581.5551662545579 364.40738582670355 L 582.803039933611 363.8321081810525 L 584.0922025984385 363.3565109648348 L 585.4147061325217 362.9835263930407 L 586.762396861796 362.7154540395851 L 588.1269658247628 362.55394665967026 L 589.5000000000001 362.5 L 590.8730341752373 362.55394665967026 L 592.2376031382041 362.7154540395851 L 593.5852938674784 362.9835263930407 L 594.9077974015617 363.35651096483485 L 596.1969600663891 363.8321081810525 L 597.4448337454421 364.4073858267036 L 598.6437248825292 365.07879712380344 L 599.7862419151184 365.8422025984385 L 600.8653408457783 366.69289560199957 L 601.8743686707646 367.6256313292355 L 602.8071043980007 368.6346591542219 L 603.6577974015617 369.7137580848818 L 604.4212028761967 370.85627511747106 L 605.0926141732965 372.05516625455806 L 605.6678918189476 373.3030399336111 L 606.1434890351652 374.5922025984386 L 606.5164736069594 375.9147061325218 L 606.7845459604149 377.26239686179616 L 606.9460533403297 378.6269658247629 Z" fill-opacity="0.25" stroke-opacity="0.25" stroke-miterlimit="10" stroke-width="2" stroke-dasharray="4,2"/><text fill="none" stroke="rgb(0,0,0)" font-family="Helvetica Neue, Helvetica, sans-serif" font-size="10px" font-style="normal" font-weight="normal" text-decoration="normal" x="589.5" y="362.5" text-anchor="middle" dominant-baseline="text-after-edge" stroke-opacity="0.25" stroke-linejoin="round" stroke-miterlimit="10" stroke-width="4">CVE-2026-27142</text><text fill="rgb(255,255,255)" stroke="none" font-family="Helvetica Neue, Helvetica, sans-serif" font-size="10px" font-style="normal" font-weight="normal" text-decoration="normal" x="589.5" y="362.5" text-anchor="middle" dominant-baseline="text-after-edge" fill-opacity="0.25">CVE-2026-27142</text><path fill="rgb(234,179,8)" stroke="rgb(255,102,102)" paint-order="fill stroke markers" d=" M 607 200 L 606.9460533403297 201.37303417523728 L 606.7845459604149 202.73760313820404 L 606.5164736069594 204.08529386747836 L 606.1434890351652 205.40779740156157 L 605.6678918189475 206.69696006638907 L 605.0926141732964 207.94483374544205 L 604.4212028761966 209.1437248825291 L 603.6577974015615 210.28624191511827 L 602.8071043980005 211.3653408457782 L 601.8743686707646 212.37436867076457 L 600.8653408457782 213.30710439800055 L 599.7862419151182 214.1577974015616 L 598.6437248825291 214.92120287619662 L 597.4448337454421 215.59261417329643 L 596.1969600663891 216.1678918189475 L 594.9077974015615 216.64348903516517 L 593.5852938674783 217.01647360695935 L 592.237603138204 217.2845459604149 L 590.8730341752373 217.44605334032974 L 589.5 217.5 L 588.1269658247627 217.44605334032974 L 586.762396861796 217.2845459604149 L 585.4147061325217 217.01647360695935 L 584.0922025984385 216.6434890351652 L 582.8030399336109 216.1678918189475 L 581.5551662545579 215.59261417329643 L 580.3562751174709 214.92120287619662 L 579.2137580848818 214.1577974015616 L 578.1346591542218 213.30710439800055 L 577.1256313292354 212.37436867076457 L 576.1928956019995 211.3653408457782 L 575.3422025984385 210.2862419151183 L 574.5787971238034 209.1437248825291 L 573.9073858267036 207.94483374544208 L 573.3321081810525 206.69696006638907 L 572.8565109648348 205.4077974015616 L 572.4835263930406 204.08529386747836 L 572.2154540395851 202.73760313820404 L 572.0539466596703 201.37303417523728 L 572 200 L 572.0539466596703 198.62696582476272 L 572.2154540395851 197.26239686179596 L 572.4835263930406 195.91470613252164 L 572.8565109648348 194.59220259843843 L 573.3321081810525 193.30303993361093 L 573.9073858267036 192.05516625455795 L 574.5787971238034 190.8562751174709 L 575.3422025984385 189.71375808488173 L 576.1928956019995 188.6346591542218 L 577.1256313292354 187.62563132923543 L 578.1346591542218 186.69289560199945 L 579.2137580848818 185.84220259843843 L 580.3562751174709 185.07879712380338 L 581.5551662545579 184.40738582670355 L 582.803039933611 183.8321081810525 L 584.0922025984385 183.3565109648348 L 585.4147061325217 182.98352639304065 L 586.762396861796 182.7154540395851 L 588.1269658247628 182.55394665967026 L 589.5000000000001 182.5 L 590.8730341752373 182.55394665967026 L 592.2376031382041 182.7154540395851 L 593.5852938674784 182.98352639304068 L 594.9077974015617 183.35651096483485 L 596.1969600663891 183.83210818105252 L 597.4448337454421 184.4073858267036 L 598.6437248825292 185.07879712380344 L 599.7862419151184 185.8422025984385 L 600.8653408457783 186.69289560199954 L 601.8743686707646 187.62563132923552 L 602.8071043980007 188.6346591542219 L 603.6577974015617 189.71375808488185 L 604.4212028761967 190.85627511747103 L 605.0926141732965 192.0551662545581 L 605.6678918189476 193.3030399336111 L 606.1434890351652 194.5922025984386 L 606.5164736069594 195.91470613252184 L 606.7845459604149 197.26239686179616 L 606.9460533403297 198.62696582476292 Z" fill-opacity="0.25" stroke-opacity="0.25" stroke-miterlimit="10" stroke-width="2" stroke-dasharray="4,2"/><text fill="none" stroke="rgb(0,0,0)" font-family="Helvetica Neue, Helvetica, sans-serif" font-size="10px" font-style="normal" font-weight="normal" text-decoration="normal" x="589.5" y="182.5" text-anchor="middle" dominant-baseline="text-after-edge" stroke-opacity="0.25" stroke-linejoin="round" stroke-miterlimit="10" stroke-width="4">CVE-2026-32289</text><text fill="rgb(255,255,255)" stroke="none" font-family="Helvetica Neue, Helvetica, sans-serif" font-size="10px" font-style="normal" font-weight="normal" text-decoration="normal" x="589.5" y="182.5" text-anchor="middle" dominant-baseline="text-after-edge" fill-opacity="0.25">CVE-2026-32289</text><path fill="rgb(234,179,8)" stroke="rgb(255,102,102)" paint-order="fill stroke markers" d=" M 926 345.25 L 925.9460533403297 346.6230341752373 L 925.7845459604149 347.98760313820407 L 925.5164736069594 349.33529386747836 L 925.1434890351652 350.6577974015616 L 924.6678918189475 351.94696006638907 L 924.0926141732964 353.19483374544205 L 923.4212028761966 354.3937248825291 L 922.6577974015615 355.5362419151183 L 921.8071043980005 356.61534084577823 L 920.8743686707646 357.62436867076457 L 919.8653408457782 358.55710439800055 L 918.7862419151182 359.4077974015616 L 917.6437248825291 360.1712028761966 L 916.4448337454421 360.84261417329645 L 915.1969600663891 361.4178918189475 L 913.9077974015615 361.8934890351652 L 912.5852938674783 362.2664736069593 L 911.237603138204 362.5345459604149 L 909.8730341752373 362.69605334032974 L 908.5 362.75 L 907.1269658247627 362.69605334032974 L 905.762396861796 362.5345459604149 L 904.4147061325217 362.2664736069593 L 903.0922025984385 361.8934890351652 L 901.8030399336109 361.4178918189475 L 900.5551662545579 360.84261417329645 L 899.3562751174709 360.1712028761966 L 898.2137580848818 359.4077974015616 L 897.1346591542218 358.55710439800055 L 896.1256313292354 357.62436867076457 L 895.1928956019995 356.61534084577823 L 894.3422025984385 355.5362419151183 L 893.5787971238034 354.3937248825291 L 892.9073858267036 353.19483374544205 L 892.3321081810525 351.94696006638907 L 891.8565109648348 350.6577974015616 L 891.4835263930406 349.33529386747836 L 891.2154540395851 347.98760313820407 L 891.0539466596703 346.6230341752373 L 891 345.25 L 891.0539466596703 343.8769658247627 L 891.2154540395851 342.51239686179593 L 891.4835263930406 341.16470613252164 L 891.8565109648348 339.8422025984384 L 892.3321081810525 338.55303993361093 L 892.9073858267036 337.30516625455795 L 893.5787971238034 336.1062751174709 L 894.3422025984385 334.9637580848817 L 895.1928956019995 333.88465915422177 L 896.1256313292354 332.87563132923543 L 897.1346591542218 331.94289560199945 L 898.2137580848818 331.0922025984384 L 899.3562751174709 330.3287971238034 L 900.5551662545579 329.65738582670355 L 901.803039933611 329.0821081810525 L 903.0922025984385 328.6065109648348 L 904.4147061325217 328.2335263930407 L 905.762396861796 327.9654540395851 L 907.1269658247628 327.80394665967026 L 908.5000000000001 327.75 L 909.8730341752373 327.80394665967026 L 911.2376031382041 327.9654540395851 L 912.5852938674784 328.2335263930407 L 913.9077974015617 328.60651096483485 L 915.1969600663891 329.0821081810525 L 916.4448337454421 329.6573858267036 L 917.6437248825292 330.32879712380344 L 918.7862419151184 331.0922025984385 L 919.8653408457783 331.94289560199957 L 920.8743686707646 332.8756313292355 L 921.8071043980007 333.8846591542219 L 922.6577974015617 334.9637580848818 L 923.4212028761967 336.10627511747106 L 924.0926141732965 337.30516625455806 L 924.6678918189476 338.5530399336111 L 925.1434890351652 339.8422025984386 L 925.5164736069594 341.1647061325218 L 925.7845459604149 342.51239686179616 L 925.9460533403297 343.8769658247629 Z" fill-opacity="0.25" stroke-opacity="0.25" stroke-miterlimit="10" stroke-width="2" stroke-dasharray="4,2"/><text fill="none" stroke="rgb(0,0,0)" font-family="Helvetica Neue, Helvetica, sans-serif" font-size="10px" font-style="normal" font-weight="normal" text-decoration="normal" x="908.5" y="327.75" text-anchor="middle" dominant-baseline="text-after-edge" stroke-opacity="0.25" stroke-linejoin="round" stroke-miterlimit="10" stroke-width="4">CVE-2026-32282</text><text fill="rgb(255,255,255)" stroke="none" font-family="Helvetica Neue, Helvetica, sans-serif" font-size="10px" font-style="normal" font-weight="normal" text-decoration="normal" x="908.5" y="327.75" text-anchor="middle" dominant-baseline="text-after-edge" fill-opacity="0.25">CVE-2026-32282</text><path fill="rgb(255,0,0)" stroke="rgb(255,215,0)" paint-order="fill stroke markers" d=" M 1054 327.5 L 1044.7343318831333 341.72991935488204 L 1029 346.59830056250524 L 1039.0078340584334 360.26125558861554 L 1038.5491502812527 377.5 L 1054 371.7142512380153 L 1069.4508497187473 377.5 L 1068.9921659415666 360.26125558861554 L 1079 346.59830056250524 L 1063.2656681168667 341.72991935488204 Z" fill-opacity="0.25" stroke-opacity="0.25" stroke-miterlimit="10" stroke-width="4" stroke-dasharray="4,2"/><text fill="none" stroke="rgb(0,0,0)" font-family="Helvetica Neue, Helvetica, sans-serif" font-size="10px" font-style="normal" font-weight="bold" text-decoration="normal" x="1054" y="327.5" text-anchor="middle" dominant-baseline="text-after-edge" stroke-opacity="0.25" stroke-linejoin="round" stroke-miterlimit="10" stroke-width="4">EXPLOITED</text><text fill="rgb(255,255,255)" stroke="none" font-family="Helvetica Neue, Helvetica, sans-serif" font-size="10px" font-style="normal" font-weight="bold" text-decoration="normal" x="1054" y="327.5" text-anchor="middle" dominant-baseline="text-after-edge" fill-opacity="0.25">EXPLOITED</text><path fill="rgb(234,179,8)" stroke="rgb(255,102,102)" paint-order="fill stroke markers" d=" M 926 168.75 L 925.9460533403297 170.12303417523728 L 925.7845459604149 171.48760313820404 L 925.5164736069594 172.83529386747836 L 925.1434890351652 174.15779740156157 L 924.6678918189475 175.44696006638907 L 924.0926141732964 176.69483374544205 L 923.4212028761966 177.8937248825291 L 922.6577974015615 179.03624191511827 L 921.8071043980005 180.1153408457782 L 920.8743686707646 181.12436867076457 L 919.8653408457782 182.05710439800055 L 918.7862419151182 182.9077974015616 L 917.6437248825291 183.67120287619662 L 916.4448337454421 184.34261417329643 L 915.1969600663891 184.9178918189475 L 913.9077974015615 185.39348903516517 L 912.5852938674783 185.76647360695935 L 911.237603138204 186.0345459604149 L 909.8730341752373 186.19605334032974 L 908.5 186.25 L 907.1269658247627 186.19605334032974 L 905.762396861796 186.0345459604149 L 904.4147061325217 185.76647360695935 L 903.0922025984385 185.3934890351652 L 901.8030399336109 184.9178918189475 L 900.5551662545579 184.34261417329643 L 899.3562751174709 183.67120287619662 L 898.2137580848818 182.9077974015616 L 897.1346591542218 182.05710439800055 L 896.1256313292354 181.12436867076457 L 895.1928956019995 180.1153408457782 L 894.3422025984385 179.0362419151183 L 893.5787971238034 177.8937248825291 L 892.9073858267036 176.69483374544208 L 892.3321081810525 175.44696006638907 L 891.8565109648348 174.1577974015616 L 891.4835263930406 172.83529386747836 L 891.2154540395851 171.48760313820404 L 891.0539466596703 170.12303417523728 L 891 168.75 L 891.0539466596703 167.37696582476272 L 891.2154540395851 166.01239686179596 L 891.4835263930406 164.66470613252164 L 891.8565109648348 163.34220259843843 L 892.3321081810525 162.05303993361093 L 892.9073858267036 160.80516625455795 L 893.5787971238034 159.6062751174709 L 894.3422025984385 158.46375808488173 L 895.1928956019995 157.3846591542218 L 896.1256313292354 156.37563132923543 L 897.1346591542218 155.44289560199945 L 898.2137580848818 154.59220259843843 L 899.3562751174709 153.82879712380338 L 900.5551662545579 153.15738582670355 L 901.803039933611 152.5821081810525 L 903.0922025984385 152.1065109648348 L 904.4147061325217 151.73352639304065 L 905.762396861796 151.4654540395851 L 907.1269658247628 151.30394665967026 L 908.5000000000001 151.25 L 909.8730341752373 151.30394665967026 L 911.2376031382041 151.4654540395851 L 912.5852938674784 151.73352639304068 L 913.9077974015617 152.10651096483485 L 915.1969600663891 152.58210818105252 L 916.4448337454421 153.1573858267036 L 917.6437248825292 153.82879712380344 L 918.7862419151184 154.5922025984385 L 919.8653408457783 155.44289560199954 L 920.8743686707646 156.37563132923552 L 921.8071043980007 157.3846591542219 L 922.6577974015617 158.46375808488185 L 923.4212028761967 159.60627511747103 L 924.0926141732965 160.8051662545581 L 924.6678918189476 162.0530399336111 L 925.1434890351652 163.3422025984386 L 925.5164736069594 164.66470613252184 L 925.7845459604149 166.01239686179616 L 925.9460533403297 167.37696582476292 Z" fill-opacity="0.25" stroke-opacity="0.25" stroke-miterlimit="10" stroke-width="2" stroke-dasharray="4,2"/><text fill="none" stroke="rgb(0,0,0)" font-family="Helvetica Neue, Helvetica, sans-serif" font-size="10px" font-style="normal" font-weight="normal" text-decoration="normal" x="908.5" y="151.25" text-anchor="middle" dominant-baseline="text-after-edge" stroke-opacity="0.25" stroke-linejoin="round" stroke-miterlimit="10" stroke-width="4">CVE-2026-27139</text><text fill="rgb(255,255,255)" stroke="none" font-family="Helvetica Neue, Helvetica, sans-serif" font-size="10px" font-style="normal" font-weight="normal" text-decoration="normal" x="908.5" y="151.25" text-anchor="middle" dominant-baseline="text-after-edge" fill-opacity="0.25">CVE-2026-27139</text><path fill="rgb(0,255,136)" stroke="rgb(0,204,102)" paint-order="fill stroke markers" d=" M 1213 326 L 1243 296 L 1213 266 L 1183 296 Z" fill-opacity="1" stroke-opacity="1" stroke-miterlimit="10" stroke-width="4"/><text fill="none" stroke="rgb(0,0,0)" font-family="Helvetica Neue, Helvetica, sans-serif" font-size="14px" font-style="normal" font-weight="bold" text-decoration="normal" x="1213" y="266" text-anchor="middle" dominant-baseline="text-after-edge" stroke-opacity="1" stroke-linejoin="round" stroke-miterlimit="10" stroke-width="6">INSIDE NETWORK</text><text fill="rgb(255,255,255)" stroke="none" font-family="Helvetica Neue, Helvetica, sans-serif" font-size="14px" font-style="normal" font-weight="bold" text-decoration="normal" x="1213" y="266" text-anchor="middle" dominant-baseline="text-after-edge" fill-opacity="1">INSIDE NETWORK</text><g transform="scale(0.6249999906867744,0.6249999906867744) translate(51.20000076293945,81.60000121593475)"/></g></g></svg>