<svg version="1.1" xmlns="http://www.w3.org/2000/svg" xmlns:xlink="http://www.w3.org/1999/xlink" width="2498" height="2118"><defs/><g><rect fill="#ffffff" stroke="none" x="0" y="0" width="2498" height="2118"/><g transform="translate(-64,26) scale(2,2)"><path fill="rgb(100,100,100)" stroke="rgb(136,136,136)" paint-order="fill stroke markers" d=" M 139.5 485.5 L 237 485.5 L 237 485.5 A 8 8 0 0 1 245 493.5 L 245 733.5 L 245 733.5 A 8 8 0 0 1 237 741.5 L 42 741.5 L 42 741.5 A 8 8 0 0 1 34 733.5 L 34 493.5 L 34 493.5 A 8 8 0 0 1 42 485.5 L 139.5 485.5 Z" fill-opacity="1" stroke-opacity="1" stroke-miterlimit="10" stroke-width="2" stroke-dasharray="4,2"/><text fill="none" stroke="rgb(0,0,0)" font-family="Helvetica Neue, Helvetica, sans-serif" font-size="12px" font-style="normal" font-weight="normal" text-decoration="normal" x="139.5" y="485.5" text-anchor="middle" dominant-baseline="text-after-edge" stroke-opacity="1" stroke-linejoin="round" stroke-miterlimit="10" stroke-width="4">Initial State</text><text fill="rgb(204,204,204)" stroke="none" font-family="Helvetica Neue, Helvetica, sans-serif" font-size="12px" font-style="normal" font-weight="normal" text-decoration="normal" x="139.5" y="485.5" text-anchor="middle" dominant-baseline="text-after-edge" fill-opacity="1">Initial State</text><path fill="rgb(234,179,8)" stroke="rgb(234,179,8)" paint-order="fill stroke markers" d=" M 858.5 546.9166666666666 L 905.5 546.9166666666666 L 905.5 546.9166666666666 A 8 8 0 0 1 913.5 554.9166666666666 L 913.5 703.9166666666666 L 913.5 703.9166666666666 A 8 8 0 0 1 905.5 711.9166666666666 L 811.5 711.9166666666666 L 811.5 711.9166666666666 A 8 8 0 0 1 803.5 703.9166666666666 L 803.5 554.9166666666666 L 803.5 554.9166666666666 A 8 8 0 0 1 811.5 546.9166666666666 L 858.5 546.9166666666666 Z" fill-opacity="1" stroke-opacity="1" stroke-miterlimit="10" stroke-width="2" stroke-dasharray="4,2"/><text fill="none" stroke="rgb(0,0,0)" font-family="Helvetica Neue, Helvetica, sans-serif" font-size="10px" font-style="normal" font-weight="normal" text-decoration="normal" x="858.5" y="546.9166666666666" text-anchor="middle" dominant-baseline="text-after-edge" stroke-opacity="1" stroke-linejoin="round" stroke-miterlimit="10" stroke-width="2">AV:L / AC:L / PR:N / UI:R (×3)</text><text fill="rgb(234,179,8)" stroke="none" font-family="Helvetica Neue, Helvetica, sans-serif" font-size="10px" font-style="normal" font-weight="normal" text-decoration="normal" x="858.5" y="546.9166666666666" text-anchor="middle" dominant-baseline="text-after-edge" fill-opacity="1">AV:L / AC:L / PR:N / UI:R (×3)</text><path fill="none" stroke="rgb(203,143,255)" paint-order="fill stroke markers" d=" M 865.4205422768254 663.2598576803 L 1041.8957259624028 225.75786777607226" stroke-opacity="0.9" stroke-linejoin="round" stroke-miterlimit="10" stroke-width="3" stroke-dasharray="6,3"/><path fill="rgb(255,255,255)" stroke="none" paint-order="stroke fill markers" d=" M 1044.9198694728495 229.8890971364712 L 1044.140226160292 220.1934972940074 L 1036.8515322738556 226.6345718495317 Z" fill-opacity="1"/><path fill="rgb(203,143,255)" stroke="none" paint-order="stroke fill markers" d=" M 1044.9198694728495 229.8890971364712 L 1044.140226160292 220.1934972940074 L 1036.8515322738556 226.6345718495317 Z" fill-opacity="0.9"/><path fill="none" stroke="rgb(203,143,255)" paint-order="fill stroke markers" d=" M 875.8528982283386 129.91302760612513 L 1026.6806482612676 185.65371783568594" stroke-opacity="0.9" stroke-linejoin="round" stroke-miterlimit="10" stroke-width="3" stroke-dasharray="6,3"/><path fill="rgb(255,255,255)" stroke="none" paint-order="stroke fill markers" d=" M 1022.6401350016374 188.79803852523918 L 1032.3086152542423 187.7336186809157 L 1025.6559912272207 180.6374863854259 Z" fill-opacity="1"/><path fill="rgb(203,143,255)" stroke="none" paint-order="stroke fill markers" d=" M 1022.6401350016374 188.79803852523918 L 1032.3086152542423 187.7336186809157 L 1025.6559912272207 180.6374863854259 Z" fill-opacity="0.9"/><path fill="none" stroke="rgb(203,143,255)" paint-order="fill stroke markers" d=" M 866.7117882615354 573.8390753594921 L 1038.7164718950528 226.60370379583554" stroke-opacity="0.9" stroke-linejoin="round" stroke-miterlimit="10" stroke-width="3" stroke-dasharray="6,3"/><path fill="rgb(255,255,255)" stroke="none" paint-order="stroke fill markers" d=" M 1041.4159688615428 230.9540159832437 L 1041.3797545744696 221.2271876962114 L 1033.6200205170876 227.09225609808922 Z" fill-opacity="1"/><path fill="rgb(203,143,255)" stroke="none" paint-order="stroke fill markers" d=" M 1041.4159688615428 230.9540159832437 L 1041.3797545744696 221.2271876962114 L 1033.6200205170876 227.09225609808922 Z" fill-opacity="0.9"/><path fill="none" stroke="rgb(0,255,255)" paint-order="fill stroke markers" d=" M 684.1520167127562 813.6167520660811 L 844.2237264976867 1008.6092549070736" stroke-opacity="0.7" stroke-linejoin="round" stroke-miterlimit="10" stroke-width="2"/><path fill="rgb(255,255,255)" stroke="none" paint-order="stroke fill markers" d=" M 837.8793608703487 1007.7366010314429 L 846.7617306758757 1011.7009429235939 L 844.6037823062803 1002.2164419438817 Z" fill-opacity="1"/><path fill="rgb(0,255,255)" stroke="none" paint-order="stroke fill markers" d=" M 837.8793608703487 1007.7366010314429 L 846.7617306758757 1011.7009429235939 L 844.6037823062803 1002.2164419438817 Z" fill-opacity="0.7"/><path fill="none" stroke="rgb(0,255,255)" paint-order="fill stroke markers" d=" M 680.2965299606743 539.7910329915956 L 849.6455047428018 144.18448485556877" stroke-opacity="0.7" stroke-linejoin="round" stroke-miterlimit="10" stroke-width="2"/><path fill="rgb(255,255,255)" stroke="none" paint-order="stroke fill markers" d=" M 851.7948994722638 150.2171129973459 L 851.2196372329704 140.50724310346766 L 843.7968986614438 146.79337483122927 Z" fill-opacity="1"/><path fill="rgb(0,255,255)" stroke="none" paint-order="stroke fill markers" d=" M 851.7948994722638 150.2171129973459 L 851.2196372329704 140.50724310346766 L 843.7968986614438 146.79337483122927 Z" fill-opacity="0.7"/><path fill="none" stroke="rgb(203,143,255)" paint-order="fill stroke markers" d=" M 552.9511299816834 686.9510669715523 L 658.0040616434035 786.1460284662621" stroke-opacity="0.9" stroke-linejoin="round" stroke-miterlimit="10" stroke-width="3" stroke-dasharray="6,3"/><path fill="rgb(255,255,255)" stroke="none" paint-order="stroke fill markers" d=" M 653.0544566554685 787.4551924985394 L 662.3665902861117 790.2652934300088 L 659.0273908529012 781.1295259666127 Z" fill-opacity="1"/><path fill="rgb(203,143,255)" stroke="none" paint-order="stroke fill markers" d=" M 653.0544566554685 787.4551924985394 L 662.3665902861117 790.2652934300088 L 659.0273908529012 781.1295259666127 Z" fill-opacity="0.9"/><path fill="none" stroke="rgb(203,143,255)" paint-order="fill stroke markers" d=" M 549.5882156282416 745.7426499543571 L 662.0032030366855 572.941173027251" stroke-opacity="0.9" stroke-linejoin="round" stroke-miterlimit="10" stroke-width="3" stroke-dasharray="6,3"/><path fill="rgb(255,255,255)" stroke="none" paint-order="stroke fill markers" d=" M 664.1771917124852 577.5765018437962 L 665.2750567539531 567.9117622016371 L 656.884546015345 572.8323139537582 Z" fill-opacity="1"/><path fill="rgb(203,143,255)" stroke="none" paint-order="stroke fill markers" d=" M 664.1771917124852 577.5765018437962 L 665.2750567539531 567.9117622016371 L 656.884546015345 572.8323139537582 Z" fill-opacity="0.9"/><path fill="none" stroke="rgb(203,143,255)" paint-order="fill stroke markers" d=" M 551.0117800036682 659.7679793831405 L 1033.7449155694944 52.48125052992191" stroke-opacity="0.9" stroke-linejoin="round" stroke-miterlimit="10" stroke-width="3" stroke-dasharray="6,3"/><path fill="rgb(255,255,255)" stroke="none" paint-order="stroke fill markers" d=" M 1035.4700498221125 57.30166667486665 L 1037.4784658409544 47.784378978508016 L 1028.6595860725624 51.88801878124971 Z" fill-opacity="1"/><path fill="rgb(203,143,255)" stroke="none" paint-order="stroke fill markers" d=" M 1035.4700498221125 57.30166667486665 L 1037.4784658409544 47.784378978508016 L 1028.6595860725624 51.88801878124971 Z" fill-opacity="0.9"/><path fill="none" stroke="rgb(255,0,102)" paint-order="fill stroke markers" d=" M 79.4447463715879 700.8259700828465 L 182.3918421738333 634.4084889201075" stroke-opacity="0.7" stroke-linejoin="round" stroke-miterlimit="10" stroke-width="2"/><path fill="rgb(255,255,255)" stroke="none" paint-order="stroke fill markers" d=" M 180.80069981090543 640.6117756280469 L 185.75302876673027 632.2399814408192 L 176.08419604345323 633.3011947884959 Z" fill-opacity="1"/><path fill="rgb(255,0,102)" stroke="none" paint-order="stroke fill markers" d=" M 180.80069981090543 640.6117756280469 L 185.75302876673027 632.2399814408192 L 176.08419604345323 633.3011947884959 Z" fill-opacity="0.7"/><path fill="none" stroke="rgb(255,0,102)" paint-order="fill stroke markers" d=" M 81.2273378841688 659.5879555212359 L 179.32801301158483 627.9425764478758" stroke-opacity="0.7" stroke-linejoin="round" stroke-miterlimit="10" stroke-width="2"/><path fill="rgb(255,255,255)" stroke="none" paint-order="stroke fill markers" d=" M 176.19044460077424 633.5254220007712 L 183.13484748262704 626.7145653281848 L 173.51952041544624 625.2455570262543 Z" fill-opacity="1"/><path fill="rgb(255,0,102)" stroke="none" paint-order="stroke fill markers" d=" M 176.19044460077424 633.5254220007712 L 183.13484748262704 626.7145653281848 L 173.51952041544624 625.2455570262543 Z" fill-opacity="0.7"/><path fill="none" stroke="rgb(255,102,0)" paint-order="fill stroke markers" d=" M 229 619.5 L 375 619.5" stroke-opacity="0.7" stroke-linejoin="round" stroke-miterlimit="10" stroke-width="2"/><path fill="rgb(255,255,255)" stroke="none" paint-order="stroke fill markers" d=" M 370.3 623.85 L 379 619.5 L 370.3 615.15 Z" fill-opacity="1"/><path fill="rgb(255,102,0)" stroke="none" paint-order="stroke fill markers" d=" M 370.3 623.85 L 379 619.5 L 370.3 615.15 Z" fill-opacity="0.7"/><path fill="none" stroke="rgb(255,153,119)" paint-order="fill stroke markers" d=" M 414.2548544856176 604.0792631954932 L 841.869336433446 141.49085960525787" stroke-opacity="0.9" stroke-linejoin="round" stroke-miterlimit="10" stroke-width="3" stroke-dasharray="6,3"/><path fill="rgb(255,255,255)" stroke="none" paint-order="stroke fill markers" d=" M 843.230864909086 146.4263170521438 L 845.9421520007654 137.0849348039702 L 836.8422739472189 140.52073447953077 Z" fill-opacity="1"/><path fill="rgb(255,153,119)" stroke="none" paint-order="stroke fill markers" d=" M 843.230864909086 146.4263170521438 L 845.9421520007654 137.0849348039702 L 836.8422739472189 140.52073447953077 Z" fill-opacity="0.9"/><path fill="none" stroke="rgb(255,153,119)" paint-order="fill stroke markers" d=" M 420.9873578031131 620.2285687641576 L 834.0147492297012 634.5666697751495" stroke-opacity="0.9" stroke-linejoin="round" stroke-miterlimit="10" stroke-width="3" stroke-dasharray="6,3"/><path fill="rgb(255,255,255)" stroke="none" paint-order="stroke fill markers" d=" M 831.1654568395827 638.8203779075457 L 840.0111371734479 634.7748322791946 L 831.4672924704479 630.125615389113 Z" fill-opacity="1"/><path fill="rgb(255,153,119)" stroke="none" paint-order="stroke fill markers" d=" M 831.1654568395827 638.8203779075457 L 840.0111371734479 634.7748322791946 L 831.4672924704479 630.125615389113 Z" fill-opacity="0.9"/><path fill="none" stroke="rgb(255,153,119)" paint-order="fill stroke markers" d=" M 420.81707238923724 622.2657724312128 L 834.21341554589 677.1899321635851" stroke-opacity="0.9" stroke-linejoin="round" stroke-miterlimit="10" stroke-width="3" stroke-dasharray="6,3"/><path fill="rgb(255,255,255)" stroke="none" paint-order="stroke fill markers" d=" M 830.9640248065225 681.1464407030569 L 840.1611505142434 677.9801528582174 L 832.1098448137392 672.5222249989444 Z" fill-opacity="1"/><path fill="rgb(255,153,119)" stroke="none" paint-order="stroke fill markers" d=" M 830.9640248065225 681.1464407030569 L 840.1611505142434 677.9801528582174 L 832.1098448137392 672.5222249989444 Z" fill-opacity="0.9"/><path fill="none" stroke="rgb(255,153,119)" paint-order="fill stroke markers" d=" M 420.9578797600573 618.1706106804326 L 834.0491402799332 591.9676208728285" stroke-opacity="0.9" stroke-linejoin="round" stroke-miterlimit="10" stroke-width="3" stroke-dasharray="6,3"/><path fill="rgb(255,255,255)" stroke="none" paint-order="stroke fill markers" d=" M 831.6299292412648 596.4798174499277 L 840.0371059256638 591.5877953529522 L 831.079182237444 587.7972672636182 Z" fill-opacity="1"/><path fill="rgb(255,153,119)" stroke="none" paint-order="stroke fill markers" d=" M 831.6299292412648 596.4798174499277 L 840.0371059256638 591.5877953529522 L 831.079182237444 587.7972672636182 Z" fill-opacity="0.9"/><path fill="none" stroke="rgb(255,153,119)" paint-order="fill stroke markers" d=" M 419.54833516285527 627.17219605854 L 516.6936089766688 665.29910459837" stroke-opacity="0.9" stroke-linejoin="round" stroke-miterlimit="10" stroke-width="3" stroke-dasharray="6,3"/><path fill="rgb(255,255,255)" stroke="none" paint-order="stroke fill markers" d=" M 512.5910109864612 668.3619773888635 L 522.2788475946275 667.4911606150957 L 515.7694922107136 660.2633813928235 Z" fill-opacity="1"/><path fill="rgb(255,153,119)" stroke="none" paint-order="stroke fill markers" d=" M 512.5910109864612 668.3619773888635 L 522.2788475946275 667.4911606150957 L 515.7694922107136 660.2633813928235 Z" fill-opacity="0.9"/><path fill="none" stroke="rgb(0,255,255)" paint-order="fill stroke markers" d=" M 687.2155950142757 563.5193152965539 L 839.9155695111749 667.7332545308876" stroke-opacity="0.7" stroke-linejoin="round" stroke-miterlimit="10" stroke-width="2"/><path fill="rgb(255,255,255)" stroke="none" paint-order="stroke fill markers" d=" M 833.5813621294808 668.6768205570311 L 843.2194682647438 669.9880833550261 L 838.485614821982 661.4908407680186 Z" fill-opacity="1"/><path fill="rgb(0,255,255)" stroke="none" paint-order="stroke fill markers" d=" M 833.5813621294808 668.6768205570311 L 843.2194682647438 669.9880833550261 L 838.485614821982 661.4908407680186 Z" fill-opacity="0.7"/><path fill="none" stroke="rgb(255,153,119)" paint-order="fill stroke markers" d=" M 409.30467519726204 600.673874018443 L 528.6445456031944 359.2138136451499" stroke-opacity="0.9" stroke-linejoin="round" stroke-miterlimit="10" stroke-width="3" stroke-dasharray="6,3"/><path fill="rgb(255,255,255)" stroke="none" paint-order="stroke fill markers" d=" M 531.3479277454403 363.5617125622115 L 531.3030242309835 353.8349205075622 L 523.5485326959381 359.7069185519172 Z" fill-opacity="1"/><path fill="rgb(255,153,119)" stroke="none" paint-order="stroke fill markers" d=" M 531.3479277454403 363.5617125622115 L 531.3030242309835 353.8349205075622 L 523.5485326959381 359.7069185519172 Z" fill-opacity="0.9"/><path fill="none" stroke="rgb(255,153,119)" paint-order="fill stroke markers" d=" M 415.71354574804565 633.4314206032291 L 840.1675299606134 1009.7466759628994" stroke-opacity="0.9" stroke-linejoin="round" stroke-miterlimit="10" stroke-width="3" stroke-dasharray="6,3"/><path fill="rgb(255,255,255)" stroke="none" paint-order="stroke fill markers" d=" M 835.261422668053 1011.2104420760079 L 844.657114460055 1013.7270818495363 L 841.0330112036764 1004.7005445518176 Z" fill-opacity="1"/><path fill="rgb(255,153,119)" stroke="none" paint-order="stroke fill markers" d=" M 835.261422668053 1011.2104420760079 L 844.657114460055 1013.7270818495363 L 841.0330112036764 1004.7005445518176 Z" fill-opacity="0.9"/><path fill="none" stroke="rgb(255,153,119)" paint-order="fill stroke markers" d=" M 414.72997711395203 634.4675573899835 L 522.3150267003892 743.7878497116859" stroke-opacity="0.9" stroke-linejoin="round" stroke-miterlimit="10" stroke-width="3" stroke-dasharray="6,3"/><path fill="rgb(255,255,255)" stroke="none" paint-order="stroke fill markers" d=" M 517.3207498978131 744.9146590208638 L 526.5235915900898 748.0642946802526 L 523.5215951022349 738.812239930798 Z" fill-opacity="1"/><path fill="rgb(255,153,119)" stroke="none" paint-order="stroke fill markers" d=" M 517.3207498978131 744.9146590208638 L 526.5235915900898 748.0642946802526 L 523.5215951022349 738.812239930798 Z" fill-opacity="0.9"/><path fill="none" stroke="rgb(203,143,255)" paint-order="fill stroke markers" d=" M 862.7402498878689 1007.9924937626437 L 1047.26590958198 224.3483558545331" stroke-opacity="0.9" stroke-linejoin="round" stroke-miterlimit="10" stroke-width="3" stroke-dasharray="6,3"/><path fill="rgb(255,255,255)" stroke="none" paint-order="stroke fill markers" d=" M 1050.8812597136152 227.97351011686237 L 1048.6411257618292 218.50808356133643 L 1042.41286488848 225.97944665608077 Z" fill-opacity="1"/><path fill="rgb(203,143,255)" stroke="none" paint-order="stroke fill markers" d=" M 1050.8812597136152 227.97351011686237 L 1048.6411257618292 218.50808356133643 L 1042.41286488848 225.97944665608077 Z" fill-opacity="0.9"/><path fill="none" stroke="rgb(255,0,102)" paint-order="fill stroke markers" d=" M 81.2273378841688 579.4120444787641 L 179.32801301158483 611.0574235521242" stroke-opacity="0.7" stroke-linejoin="round" stroke-miterlimit="10" stroke-width="2"/><path fill="rgb(255,255,255)" stroke="none" paint-order="stroke fill markers" d=" M 173.51952041544624 613.7544429737457 L 183.13484748262704 612.2854346718152 L 176.19044460077424 605.4745779992288 Z" fill-opacity="1"/><path fill="rgb(255,0,102)" stroke="none" paint-order="stroke fill markers" d=" M 173.51952041544624 613.7544429737457 L 183.13484748262704 612.2854346718152 L 176.19044460077424 605.4745779992288 Z" fill-opacity="0.7"/><path fill="none" stroke="rgb(255,0,102)" paint-order="fill stroke markers" d=" M 79.4447463715879 538.1740299171535 L 182.3918421738333 604.5915110798925" stroke-opacity="0.7" stroke-linejoin="round" stroke-miterlimit="10" stroke-width="2"/><path fill="rgb(255,255,255)" stroke="none" paint-order="stroke fill markers" d=" M 176.08419604345323 605.6988052115041 L 185.75302876673027 606.7600185591808 L 180.80069981090543 598.3882243719531 Z" fill-opacity="1"/><path fill="rgb(255,0,102)" stroke="none" paint-order="stroke fill markers" d=" M 176.08419604345323 605.6988052115041 L 185.75302876673027 606.7600185591808 L 180.80069981090543 598.3882243719531 Z" fill-opacity="0.7"/><path fill="none" stroke="rgb(203,143,255)" paint-order="fill stroke markers" d=" M 866.0165342696596 618.5124745069379 L 1040.4916838331178 226.12931632415604" stroke-opacity="0.9" stroke-linejoin="round" stroke-miterlimit="10" stroke-width="3" stroke-dasharray="6,3"/><path fill="rgb(255,255,255)" stroke="none" paint-order="stroke fill markers" d=" M 1043.3694456367255 230.36381594060396 L 1042.9294787313859 220.64687562370347 L 1035.4199066210692 226.8290133381154 Z" fill-opacity="1"/><path fill="rgb(203,143,255)" stroke="none" paint-order="stroke fill markers" d=" M 1043.3694456367255 230.36381594060396 L 1042.9294787313859 220.64687562370347 L 1035.4199066210692 226.8290133381154 Z" fill-opacity="0.9"/><path fill="none" stroke="rgb(203,143,255)" paint-order="fill stroke markers" d=" M 544.6505828779016 355.0185535713481 L 667.8749825235765 780.1198281854238" stroke-opacity="0.9" stroke-linejoin="round" stroke-miterlimit="10" stroke-width="3" stroke-dasharray="6,3"/><path fill="rgb(255,255,255)" stroke="none" paint-order="stroke fill markers" d=" M 662.9452645881333 778.7376628273823 L 669.5454418353283 785.8826023166719 L 671.301287078443 776.3154968253422 Z" fill-opacity="1"/><path fill="rgb(203,143,255)" stroke="none" paint-order="stroke fill markers" d=" M 662.9452645881333 778.7376628273823 L 669.5454418353283 785.8826023166719 L 671.301287078443 776.3154968253422 Z" fill-opacity="0.9"/><path fill="none" stroke="rgb(203,143,255)" paint-order="fill stroke markers" d=" M 557.2324358591026 766.5235868725956 L 652.9127789783645 794.9787075028593" stroke-opacity="0.9" stroke-linejoin="round" stroke-miterlimit="10" stroke-width="3" stroke-dasharray="6,3"/><path fill="rgb(255,255,255)" stroke="none" paint-order="stroke fill markers" d=" M 649.0847962910473 798.3785675802154 L 658.6638392569923 796.6890600020795 L 651.5648074149166 790.0395301762051 Z" fill-opacity="1"/><path fill="rgb(203,143,255)" stroke="none" paint-order="stroke fill markers" d=" M 649.0847962910473 798.3785675802154 L 658.6638392569923 796.6890600020795 L 651.5648074149166 790.0395301762051 Z" fill-opacity="0.9"/><path fill="none" stroke="rgb(203,143,255)" paint-order="fill stroke markers" d=" M 555.3425239605714 327.6967579032706 L 1032.6329856683515 39.88457958482786" stroke-opacity="0.9" stroke-linejoin="round" stroke-miterlimit="10" stroke-width="3" stroke-dasharray="6,3"/><path fill="rgb(255,255,255)" stroke="none" paint-order="stroke fill markers" d=" M 1032.5671363941476 45.003970551836254 L 1037.7711015474556 36.78623079669944 L 1028.0745306513613 37.55370252713513 Z" fill-opacity="1"/><path fill="rgb(203,143,255)" stroke="none" paint-order="stroke fill markers" d=" M 1032.5671363941476 45.003970551836254 L 1037.7711015474556 36.78623079669944 L 1028.0745306513613 37.55370252713513 Z" fill-opacity="0.9"/><path fill="none" stroke="rgb(0,255,136)" paint-order="fill stroke markers" d=" M 1066.9774976976596 185.03744293825275 L 1192.385505529632 81.51668175619993" stroke-opacity="0.7" stroke-linejoin="round" stroke-miterlimit="10" stroke-width="2"/><path fill="rgb(255,255,255)" stroke="none" paint-order="stroke fill markers" d=" M 1191.5300978489618 87.86339568545895 L 1195.470284237726 78.97028423772609 L 1185.9916832462811 81.15400199535445 Z" fill-opacity="1"/><path fill="rgb(0,255,136)" stroke="none" paint-order="stroke fill markers" d=" M 1191.5300978489618 87.86339568545895 L 1195.470284237726 78.97028423772609 L 1185.9916832462811 81.15400199535445 Z" fill-opacity="0.7"/><path fill="none" stroke="rgb(0,255,255)" paint-order="fill stroke markers" d=" M 689.7051813343855 557.557332048383 L 836.4145887485205 586.1172934736279" stroke-opacity="0.7" stroke-linejoin="round" stroke-miterlimit="10" stroke-width="2"/><path fill="rgb(255,255,255)" stroke="none" paint-order="stroke fill markers" d=" M 830.9699795808906 589.4890483597014 L 840.3408840821169 586.8816264857237 L 832.6324038821989 580.9493560091294 Z" fill-opacity="1"/><path fill="rgb(0,255,255)" stroke="none" paint-order="stroke fill markers" d=" M 830.9699795808906 589.4890483597014 L 840.3408840821169 586.8816264857237 L 832.6324038821989 580.9493560091294 Z" fill-opacity="0.7"/><path fill="none" stroke="rgb(0,255,255)" paint-order="fill stroke markers" d=" M 678.2026502087376 785.8118093280657 L 852.5900231439629 145.20995563240763" stroke-opacity="0.7" stroke-linejoin="round" stroke-miterlimit="10" stroke-width="2"/><path fill="rgb(255,255,255)" stroke="none" paint-order="stroke fill markers" d=" M 855.5527527340784 150.88751966778878 L 853.6406856961472 141.350407964424 L 847.1582365562141 148.60232861678773 Z" fill-opacity="1"/><path fill="rgb(0,255,255)" stroke="none" paint-order="stroke fill markers" d=" M 855.5527527340784 150.88751966778878 L 853.6406856961472 141.350407964424 L 847.1582365562141 148.60232861678773 Z" fill-opacity="0.7"/><path fill="none" stroke="rgb(203,143,255)" paint-order="fill stroke markers" d=" M 549.2381835020548 352.97951944848626 L 662.4194574570159 535.794625520719" stroke-opacity="0.9" stroke-linejoin="round" stroke-miterlimit="10" stroke-width="3" stroke-dasharray="6,3"/><path fill="rgb(255,255,255)" stroke="none" paint-order="stroke fill markers" d=" M 657.2996463728828 535.788755019261 L 665.5777872414661 540.8960912877957 L 664.6967717351439 531.2091768318081 Z" fill-opacity="1"/><path fill="rgb(203,143,255)" stroke="none" paint-order="stroke fill markers" d=" M 657.2996463728828 535.788755019261 L 665.5777872414661 540.8960912877957 L 664.6967717351439 531.2091768318081 Z" fill-opacity="0.9"/><path fill="none" stroke="rgb(0,255,136)" paint-order="fill stroke markers" d=" M 1073.0417471657952 31.49097810514037 L 1183.2136837748008 57.47492541858507" stroke-opacity="0.25" stroke-linejoin="round" stroke-miterlimit="10" stroke-width="2"/><path fill="rgb(255,255,255)" stroke="none" paint-order="stroke fill markers" d=" M 1177.6406424578647 60.62987557345654 L 1187.1068702290077 58.39312977099237 L 1179.6377369243505 52.16219503555647 Z" fill-opacity="1"/><path fill="rgb(0,255,136)" stroke="none" paint-order="stroke fill markers" d=" M 1177.6406424578647 60.62987557345654 L 1187.1068702290077 58.39312977099237 L 1179.6377369243505 52.16219503555647 Z" fill-opacity="0.25"/><path fill="none" stroke="rgb(0,255,255)" paint-order="fill stroke markers" d=" M 688.6527394654403 560.9262917890436 L 837.8945851267246 626.3796938383241" stroke-opacity="0.7" stroke-linejoin="round" stroke-miterlimit="10" stroke-width="2"/><path fill="rgb(255,255,255)" stroke="none" paint-order="stroke fill markers" d=" M 831.8431948286053 628.4756841674591 L 841.5577699930847 627.986266785585 L 835.3374909888977 620.508257083126 Z" fill-opacity="1"/><path fill="rgb(0,255,255)" stroke="none" paint-order="stroke fill markers" d=" M 831.8431948286053 628.4756841674591 L 841.5577699930847 627.986266785585 L 835.3374909888977 620.508257083126 Z" fill-opacity="0.7"/><path fill="none" stroke="rgb(203,143,255)" paint-order="fill stroke markers" d=" M 553.317149160218 661.948114409397 L 657.5687955932542 569.1292693509873" stroke-opacity="0.9" stroke-linejoin="round" stroke-miterlimit="10" stroke-width="3" stroke-dasharray="6,3"/><path fill="rgb(255,255,255)" stroke="none" paint-order="stroke fill markers" d=" M 658.4448442195534 574.1735769153969 L 662.0500331587303 565.1394686188999 L 652.6596331580265 567.6757824454565 Z" fill-opacity="1"/><path fill="rgb(203,143,255)" stroke="none" paint-order="stroke fill markers" d=" M 658.4448442195534 574.1735769153969 L 662.0500331587303 565.1394686188999 L 652.6596331580265 567.6757824454565 Z" fill-opacity="0.9"/><path fill="rgb(239,68,68)" stroke="rgb(0,0,0)" paint-order="fill stroke markers" d=" M 420 619.5 L 419.93834667466257 621.0691819145569 L 419.7537668119028 622.6286893008046 L 419.44739840795353 624.1689072771181 L 419.0211303259031 625.6803398874989 L 418.47759065022575 627.1536686473017 L 417.82013048376734 628.5798099947909 L 417.0528032870818 629.949971294319 L 416.180339887499 631.2557050458495 L 415.20811931200063 632.4889609666037 L 414.14213562373095 633.642135623731 L 412.98896096660366 634.7081193120006 L 411.7557050458495 635.6803398874989 L 410.44997129431897 636.5528032870818 L 409.07980999479093 637.3201304837673 L 407.6536686473018 637.9775906502257 L 406.180339887499 638.5211303259031 L 404.66890727711814 638.9473984079535 L 403.12868930080464 639.2537668119028 L 401.5691819145569 639.4383466746625 L 400 639.5 L 398.4308180854431 639.4383466746625 L 396.87131069919536 639.2537668119028 L 395.3310927228819 638.9473984079535 L 393.819660112501 638.5211303259031 L 392.3463313526982 637.9775906502257 L 390.92019000520907 637.3201304837673 L 389.55002870568103 636.5528032870818 L 388.2442949541505 635.6803398874989 L 387.01103903339634 634.7081193120006 L 385.85786437626905 633.642135623731 L 384.79188068799937 632.4889609666037 L 383.8196601125011 631.2557050458495 L 382.9471967129182 629.949971294319 L 382.17986951623266 628.5798099947909 L 381.52240934977425 627.1536686473017 L 380.9788696740969 625.6803398874989 L 380.55260159204647 624.1689072771181 L 380.2462331880972 622.6286893008046 L 380.06165332533743 621.0691819145569 L 380 619.5 L 380.06165332533743 617.9308180854431 L 380.2462331880972 616.3713106991954 L 380.55260159204647 614.8310927228819 L 380.9788696740969 613.3196601125011 L 381.52240934977425 611.8463313526983 L 382.17986951623266 610.4201900052091 L 382.9471967129181 609.050028705681 L 383.819660112501 607.7442949541505 L 384.79188068799937 606.5110390333963 L 385.85786437626905 605.357864376269 L 387.01103903339634 604.2918806879994 L 388.2442949541505 603.3196601125011 L 389.55002870568103 602.4471967129182 L 390.92019000520907 601.6798695162327 L 392.3463313526982 601.0224093497743 L 393.8196601125011 600.4788696740969 L 395.3310927228819 600.0526015920465 L 396.8713106991954 599.7462331880972 L 398.43081808544315 599.5616533253375 L 400.00000000000006 599.5 L 401.56918191455696 599.5616533253375 L 403.1286893008047 599.7462331880972 L 404.6689072771182 600.0526015920465 L 406.18033988749903 600.4788696740969 L 407.6536686473019 601.0224093497743 L 409.07980999479105 601.6798695162327 L 410.4499712943191 602.4471967129182 L 411.7557050458496 603.3196601125011 L 412.98896096660377 604.2918806879994 L 414.14213562373106 605.3578643762692 L 415.20811931200075 606.5110390333964 L 416.18033988749903 607.7442949541506 L 417.05280328708193 609.0500287056811 L 417.82013048376746 610.4201900052092 L 418.4775906502258 611.8463313526984 L 419.02113032590313 613.3196601125012 L 419.4473984079536 614.8310927228821 L 419.7537668119028 616.3713106991956 L 419.93834667466257 617.9308180854433 Z" fill-opacity="1" stroke-opacity="1" stroke-miterlimit="10" stroke-width="2"/><text fill="none" stroke="rgb(0,0,0)" font-family="Helvetica Neue, Helvetica, sans-serif" font-size="10px" font-style="normal" font-weight="normal" text-decoration="normal" x="400" y="599.5" text-anchor="middle" dominant-baseline="text-after-edge" stroke-opacity="1" stroke-linejoin="round" stroke-miterlimit="10" stroke-width="4">host_node_3b2819dd</text><text fill="rgb(255,255,255)" stroke="none" font-family="Helvetica Neue, Helvetica, sans-serif" font-size="10px" font-style="normal" font-weight="normal" text-decoration="normal" x="400" y="599.5" text-anchor="middle" dominant-baseline="text-after-edge" fill-opacity="1">host_node_3b2819dd</text><path fill="rgb(255,0,102)" stroke="rgb(0,0,0)" paint-order="fill stroke markers" d=" M 228 619.5 L 227.93064000899537 621.2653296538765 L 227.7229876633906 623.0197754634052 L 227.37832320894773 624.7525206867579 L 226.89877161664094 626.4528823734363 L 226.28728948150396 628.1103772282145 L 225.5476467942383 629.7147862441398 L 224.68440369796707 631.2562177061088 L 223.70288237343632 632.7251681765806 L 222.6091342260007 634.1125810874291 L 221.40990257669733 635.4099025766973 L 220.11258108742913 636.6091342260007 L 218.72516817658064 637.7028823734363 L 217.25621770610886 638.6844036979671 L 215.71478624413982 639.5476467942383 L 214.11037722821453 640.287289481504 L 212.45288237343632 640.8987716166409 L 210.75252068675786 641.3783232089477 L 209.01977546340518 641.7229876633907 L 207.2653296538765 641.9306400089954 L 205.5 642 L 203.7346703461235 641.9306400089954 L 201.98022453659482 641.7229876633907 L 200.24747931324214 641.3783232089477 L 198.54711762656368 640.8987716166409 L 196.88962277178547 640.287289481504 L 195.2852137558602 639.5476467942383 L 193.74378229389114 638.6844036979671 L 192.27483182341936 637.7028823734363 L 190.88741891257087 636.6091342260007 L 189.5900974233027 635.4099025766973 L 188.3908657739993 634.1125810874291 L 187.29711762656368 632.7251681765806 L 186.31559630203293 631.2562177061088 L 185.4523532057617 629.7147862441398 L 184.71271051849604 628.1103772282145 L 184.10122838335906 626.4528823734363 L 183.62167679105227 624.7525206867579 L 183.2770123366094 623.0197754634052 L 183.06935999100463 621.2653296538765 L 183 619.5 L 183.06935999100463 617.7346703461235 L 183.2770123366094 615.9802245365948 L 183.62167679105227 614.2474793132421 L 184.10122838335906 612.5471176265637 L 184.71271051849604 610.8896227717855 L 185.4523532057617 609.2852137558602 L 186.31559630203293 607.7437822938912 L 187.29711762656368 606.2748318234194 L 188.3908657739993 604.8874189125709 L 189.59009742330267 603.5900974233027 L 190.88741891257087 602.3908657739993 L 192.27483182341936 601.2971176265637 L 193.74378229389114 600.3155963020329 L 195.2852137558602 599.4523532057617 L 196.8896227717855 598.712710518496 L 198.5471176265637 598.1012283833591 L 200.24747931324217 597.6216767910523 L 201.98022453659485 597.2770123366093 L 203.73467034612355 597.0693599910046 L 205.50000000000009 597 L 207.2653296538766 597.0693599910046 L 209.0197754634053 597.2770123366095 L 210.75252068675798 597.6216767910523 L 212.45288237343644 598.1012283833591 L 214.11037722821465 598.7127105184961 L 215.71478624413993 599.4523532057618 L 217.25621770610897 600.315596302033 L 218.72516817658078 601.2971176265638 L 220.11258108742925 602.3908657739994 L 221.40990257669745 603.5900974233028 L 222.6091342260008 604.887418912571 L 223.70288237343644 606.2748318234195 L 224.68440369796718 607.7437822938913 L 225.54764679423837 609.2852137558604 L 226.28728948150405 610.8896227717856 L 226.89877161664103 612.5471176265639 L 227.3783232089478 614.2474793132424 L 227.72298766339065 615.9802245365951 L 227.9306400089954 617.7346703461237 Z" fill-opacity="1" stroke-opacity="1" stroke-miterlimit="10" stroke-width="2"/><text fill="none" stroke="rgb(0,0,0)" font-family="Helvetica Neue, Helvetica, sans-serif" font-size="10px" font-style="normal" font-weight="normal" text-decoration="normal" x="205.5" y="597" text-anchor="middle" dominant-baseline="text-after-edge" stroke-opacity="1" stroke-linejoin="round" stroke-miterlimit="10" stroke-width="4">Hacker</text><text fill="rgb(255,255,255)" stroke="none" font-family="Helvetica Neue, Helvetica, sans-serif" font-size="10px" font-style="normal" font-weight="normal" text-decoration="normal" x="205.5" y="597" text-anchor="middle" dominant-baseline="text-after-edge" fill-opacity="1">Hacker</text><path fill="rgb(99,102,241)" stroke="rgb(255,0,102)" paint-order="fill stroke markers" d=" M 81 664.5 L 80.95376000599691 665.6768864359177 L 80.81532510892707 666.8465169756034 L 80.58554880596515 668.0016804578386 L 80.2658477444273 669.1352549156242 L 79.8581929876693 670.2402514854764 L 79.36509786282552 671.3098574960932 L 78.78960246531139 672.3374784707393 L 78.13525491562422 673.3167787843871 L 77.40608948400046 674.2417207249528 L 76.60660171779821 675.1066017177982 L 75.74172072495276 675.9060894840005 L 74.8167787843871 676.6352549156242 L 73.83747847073923 677.2896024653114 L 72.8098574960932 677.8650978628256 L 71.74025148547635 678.3581929876693 L 70.63525491562422 678.7658477444273 L 69.50168045783859 679.0855488059651 L 68.34651697560346 679.315325108927 L 67.17688643591768 679.453760005997 L 66 679.5 L 64.82311356408232 679.453760005997 L 63.653483024396536 679.315325108927 L 62.49831954216142 679.0855488059651 L 61.36474508437579 678.7658477444273 L 60.25974851452365 678.3581929876693 L 59.1901425039068 677.8650978628256 L 58.16252152926077 677.2896024653114 L 57.1832212156129 676.6352549156242 L 56.258279275047244 675.9060894840005 L 55.39339828220179 675.1066017177982 L 54.59391051599954 674.2417207249528 L 53.86474508437579 673.3167787843871 L 53.21039753468862 672.3374784707393 L 52.634902137174485 671.3098574960932 L 52.1418070123307 670.2402514854764 L 51.734152255572695 669.1352549156242 L 51.414451194034854 668.0016804578386 L 51.18467489107294 666.8465169756034 L 51.04623999400308 665.6768864359177 L 51 664.5 L 51.04623999400308 663.3231135640823 L 51.18467489107293 662.1534830243966 L 51.414451194034854 660.9983195421614 L 51.734152255572695 659.8647450843758 L 52.141807012330695 658.7597485145236 L 52.63490213717448 657.6901425039068 L 53.21039753468862 656.6625215292607 L 53.864745084375784 655.6832212156129 L 54.59391051599953 654.7582792750472 L 55.39339828220179 653.8933982822018 L 56.25827927504724 653.0939105159996 L 57.1832212156129 652.3647450843758 L 58.16252152926077 651.7103975346886 L 59.190142503906806 651.1349021371744 L 60.25974851452367 650.6418070123307 L 61.36474508437581 650.2341522555727 L 62.49831954216145 649.9144511940349 L 63.65348302439657 649.684674891073 L 64.82311356408238 649.546239994003 L 66.00000000000006 649.5 L 67.17688643591774 649.546239994003 L 68.34651697560352 649.684674891073 L 69.50168045783865 649.9144511940349 L 70.63525491562429 650.2341522555727 L 71.74025148547642 650.6418070123307 L 72.80985749609329 651.1349021371745 L 73.83747847073931 651.7103975346887 L 74.81677878438718 652.3647450843758 L 75.74172072495284 653.0939105159996 L 76.6066017177983 653.8933982822018 L 77.40608948400055 654.7582792750474 L 78.13525491562429 655.683221215613 L 78.78960246531145 656.6625215292609 L 79.36509786282558 657.6901425039069 L 79.85819298766936 658.7597485145238 L 80.26584774442735 659.864745084376 L 80.58554880596519 660.9983195421615 L 80.8153251089271 662.1534830243967 L 80.95376000599694 663.3231135640825 Z" fill-opacity="1" stroke-opacity="1" stroke-miterlimit="10" stroke-width="2"/><text fill="none" stroke="rgb(0,0,0)" font-family="Helvetica Neue, Helvetica, sans-serif" font-size="10px" font-style="normal" font-weight="normal" text-decoration="normal" x="66" y="649.5" text-anchor="middle" dominant-baseline="text-after-edge" stroke-opacity="1" stroke-linejoin="round" stroke-miterlimit="10" stroke-width="4">AV:N</text><text fill="rgb(255,255,255)" stroke="none" font-family="Helvetica Neue, Helvetica, sans-serif" font-size="10px" font-style="normal" font-weight="normal" text-decoration="normal" x="66" y="649.5" text-anchor="middle" dominant-baseline="text-after-edge" fill-opacity="1">AV:N</text><path fill="rgb(99,102,241)" stroke="rgb(255,0,102)" paint-order="fill stroke markers" d=" M 81 709.5 L 80.95376000599691 710.6768864359177 L 80.81532510892707 711.8465169756034 L 80.58554880596515 713.0016804578386 L 80.2658477444273 714.1352549156242 L 79.8581929876693 715.2402514854764 L 79.36509786282552 716.3098574960932 L 78.78960246531139 717.3374784707393 L 78.13525491562422 718.3167787843871 L 77.40608948400046 719.2417207249528 L 76.60660171779821 720.1066017177982 L 75.74172072495276 720.9060894840005 L 74.8167787843871 721.6352549156242 L 73.83747847073923 722.2896024653114 L 72.8098574960932 722.8650978628256 L 71.74025148547635 723.3581929876693 L 70.63525491562422 723.7658477444273 L 69.50168045783859 724.0855488059651 L 68.34651697560346 724.315325108927 L 67.17688643591768 724.453760005997 L 66 724.5 L 64.82311356408232 724.453760005997 L 63.653483024396536 724.315325108927 L 62.49831954216142 724.0855488059651 L 61.36474508437579 723.7658477444273 L 60.25974851452365 723.3581929876693 L 59.1901425039068 722.8650978628256 L 58.16252152926077 722.2896024653114 L 57.1832212156129 721.6352549156242 L 56.258279275047244 720.9060894840005 L 55.39339828220179 720.1066017177982 L 54.59391051599954 719.2417207249528 L 53.86474508437579 718.3167787843871 L 53.21039753468862 717.3374784707393 L 52.634902137174485 716.3098574960932 L 52.1418070123307 715.2402514854764 L 51.734152255572695 714.1352549156242 L 51.414451194034854 713.0016804578386 L 51.18467489107294 711.8465169756034 L 51.04623999400308 710.6768864359177 L 51 709.5 L 51.04623999400308 708.3231135640823 L 51.18467489107293 707.1534830243966 L 51.414451194034854 705.9983195421614 L 51.734152255572695 704.8647450843758 L 52.141807012330695 703.7597485145236 L 52.63490213717448 702.6901425039068 L 53.21039753468862 701.6625215292607 L 53.864745084375784 700.6832212156129 L 54.59391051599953 699.7582792750472 L 55.39339828220179 698.8933982822018 L 56.25827927504724 698.0939105159996 L 57.1832212156129 697.3647450843758 L 58.16252152926077 696.7103975346886 L 59.190142503906806 696.1349021371744 L 60.25974851452367 695.6418070123307 L 61.36474508437581 695.2341522555727 L 62.49831954216145 694.9144511940349 L 63.65348302439657 694.684674891073 L 64.82311356408238 694.546239994003 L 66.00000000000006 694.5 L 67.17688643591774 694.546239994003 L 68.34651697560352 694.684674891073 L 69.50168045783865 694.9144511940349 L 70.63525491562429 695.2341522555727 L 71.74025148547642 695.6418070123307 L 72.80985749609329 696.1349021371745 L 73.83747847073931 696.7103975346887 L 74.81677878438718 697.3647450843758 L 75.74172072495284 698.0939105159996 L 76.6066017177983 698.8933982822018 L 77.40608948400055 699.7582792750474 L 78.13525491562429 700.683221215613 L 78.78960246531145 701.6625215292609 L 79.36509786282558 702.6901425039069 L 79.85819298766936 703.7597485145238 L 80.26584774442735 704.864745084376 L 80.58554880596519 705.9983195421615 L 80.8153251089271 707.1534830243967 L 80.95376000599694 708.3231135640825 Z" fill-opacity="1" stroke-opacity="1" stroke-miterlimit="10" stroke-width="2"/><text fill="none" stroke="rgb(0,0,0)" font-family="Helvetica Neue, Helvetica, sans-serif" font-size="10px" font-style="normal" font-weight="normal" text-decoration="normal" x="66" y="694.5" text-anchor="middle" dominant-baseline="text-after-edge" stroke-opacity="1" stroke-linejoin="round" stroke-miterlimit="10" stroke-width="4">PR:N</text><text fill="rgb(255,255,255)" stroke="none" font-family="Helvetica Neue, Helvetica, sans-serif" font-size="10px" font-style="normal" font-weight="normal" text-decoration="normal" x="66" y="694.5" text-anchor="middle" dominant-baseline="text-after-edge" fill-opacity="1">PR:N</text><path fill="rgb(234,179,8)" stroke="rgb(0,0,0)" paint-order="fill stroke markers" d=" M 557 761.25 L 556.9460533403297 762.6230341752373 L 556.7845459604149 763.987603138204 L 556.5164736069594 765.3352938674783 L 556.1434890351652 766.6577974015615 L 555.6678918189475 767.9469600663891 L 555.0926141732964 769.1948337454421 L 554.4212028761966 770.3937248825291 L 553.6577974015615 771.5362419151182 L 552.8071043980005 772.6153408457782 L 551.8743686707646 773.6243686707646 L 550.8653408457782 774.5571043980005 L 549.7862419151182 775.4077974015615 L 548.6437248825291 776.1712028761966 L 547.4448337454421 776.8426141732964 L 546.1969600663891 777.4178918189475 L 544.9077974015615 777.8934890351652 L 543.5852938674783 778.2664736069594 L 542.237603138204 778.5345459604149 L 540.8730341752373 778.6960533403297 L 539.5 778.75 L 538.1269658247627 778.6960533403297 L 536.762396861796 778.5345459604149 L 535.4147061325217 778.2664736069594 L 534.0922025984385 777.8934890351652 L 532.8030399336109 777.4178918189475 L 531.5551662545579 776.8426141732964 L 530.3562751174709 776.1712028761966 L 529.2137580848818 775.4077974015615 L 528.1346591542218 774.5571043980005 L 527.1256313292354 773.6243686707646 L 526.1928956019995 772.6153408457782 L 525.3422025984385 771.5362419151182 L 524.5787971238034 770.3937248825291 L 523.9073858267036 769.1948337454421 L 523.3321081810525 767.9469600663891 L 522.8565109648348 766.6577974015615 L 522.4835263930406 765.3352938674783 L 522.2154540395851 763.987603138204 L 522.0539466596703 762.6230341752373 L 522 761.25 L 522.0539466596703 759.8769658247627 L 522.2154540395851 758.512396861796 L 522.4835263930406 757.1647061325217 L 522.8565109648348 755.8422025984385 L 523.3321081810525 754.5530399336109 L 523.9073858267036 753.3051662545579 L 524.5787971238034 752.1062751174709 L 525.3422025984385 750.9637580848818 L 526.1928956019995 749.8846591542218 L 527.1256313292354 748.8756313292354 L 528.1346591542218 747.9428956019995 L 529.2137580848818 747.0922025984385 L 530.3562751174709 746.3287971238034 L 531.5551662545579 745.6573858267036 L 532.803039933611 745.0821081810525 L 534.0922025984385 744.6065109648348 L 535.4147061325217 744.2335263930406 L 536.762396861796 743.9654540395851 L 538.1269658247628 743.8039466596703 L 539.5000000000001 743.75 L 540.8730341752373 743.8039466596703 L 542.2376031382041 743.9654540395851 L 543.5852938674784 744.2335263930406 L 544.9077974015617 744.6065109648348 L 546.1969600663891 745.0821081810525 L 547.4448337454421 745.6573858267036 L 548.6437248825292 746.3287971238035 L 549.7862419151184 747.0922025984385 L 550.8653408457783 747.9428956019996 L 551.8743686707646 748.8756313292355 L 552.8071043980007 749.8846591542219 L 553.6577974015617 750.9637580848819 L 554.4212028761967 752.106275117471 L 555.0926141732965 753.3051662545581 L 555.6678918189476 754.5530399336111 L 556.1434890351652 755.8422025984386 L 556.5164736069594 757.1647061325218 L 556.7845459604149 758.5123968617961 L 556.9460533403297 759.8769658247629 Z" fill-opacity="1" stroke-opacity="1" stroke-miterlimit="10" stroke-width="2"/><text fill="none" stroke="rgb(0,0,0)" font-family="Helvetica Neue, Helvetica, sans-serif" font-size="10px" font-style="normal" font-weight="normal" text-decoration="normal" x="539.5" y="743.75" text-anchor="middle" dominant-baseline="text-after-edge" stroke-opacity="1" stroke-linejoin="round" stroke-miterlimit="10" stroke-width="4">CVE-2026-24001</text><text fill="rgb(255,255,255)" stroke="none" font-family="Helvetica Neue, Helvetica, sans-serif" font-size="10px" font-style="normal" font-weight="normal" text-decoration="normal" x="539.5" y="743.75" text-anchor="middle" dominant-baseline="text-after-edge" fill-opacity="1">CVE-2026-24001</text><path fill="rgb(99,102,241)" stroke="rgb(0,0,0)" paint-order="fill stroke markers" d=" M 689 554.5 L 688.953760005997 555.6768864359177 L 688.815325108927 556.8465169756034 L 688.5855488059651 558.0016804578386 L 688.2658477444273 559.1352549156242 L 687.8581929876693 560.2402514854764 L 687.3650978628256 561.3098574960932 L 686.7896024653114 562.3374784707393 L 686.1352549156242 563.3167787843871 L 685.4060894840005 564.2417207249528 L 684.6066017177982 565.1066017177982 L 683.7417207249528 565.9060894840005 L 682.8167787843871 566.6352549156242 L 681.8374784707393 567.2896024653114 L 680.8098574960932 567.8650978628256 L 679.7402514854764 568.3581929876693 L 678.6352549156242 568.7658477444273 L 677.5016804578386 569.0855488059651 L 676.3465169756034 569.315325108927 L 675.1768864359177 569.453760005997 L 674 569.5 L 672.8231135640823 569.453760005997 L 671.6534830243966 569.315325108927 L 670.4983195421614 569.0855488059651 L 669.3647450843758 568.7658477444273 L 668.2597485145236 568.3581929876693 L 667.1901425039068 567.8650978628256 L 666.1625215292607 567.2896024653114 L 665.1832212156129 566.6352549156242 L 664.2582792750472 565.9060894840005 L 663.3933982822018 565.1066017177982 L 662.5939105159995 564.2417207249528 L 661.8647450843758 563.3167787843871 L 661.2103975346886 562.3374784707393 L 660.6349021371744 561.3098574960932 L 660.1418070123307 560.2402514854764 L 659.7341522555727 559.1352549156242 L 659.4144511940349 558.0016804578386 L 659.184674891073 556.8465169756034 L 659.046239994003 555.6768864359177 L 659 554.5 L 659.046239994003 553.3231135640823 L 659.184674891073 552.1534830243966 L 659.4144511940349 550.9983195421614 L 659.7341522555727 549.8647450843758 L 660.1418070123307 548.7597485145236 L 660.6349021371744 547.6901425039068 L 661.2103975346886 546.6625215292607 L 661.8647450843758 545.6832212156129 L 662.5939105159995 544.7582792750472 L 663.3933982822018 543.8933982822018 L 664.2582792750472 543.0939105159996 L 665.1832212156129 542.3647450843758 L 666.1625215292607 541.7103975346886 L 667.1901425039068 541.1349021371744 L 668.2597485145237 540.6418070123307 L 669.3647450843758 540.2341522555727 L 670.4983195421614 539.9144511940349 L 671.6534830243966 539.684674891073 L 672.8231135640824 539.546239994003 L 674 539.5 L 675.1768864359177 539.546239994003 L 676.3465169756035 539.684674891073 L 677.5016804578387 539.9144511940349 L 678.6352549156243 540.2341522555727 L 679.7402514854764 540.6418070123307 L 680.8098574960933 541.1349021371745 L 681.8374784707394 541.7103975346887 L 682.8167787843872 542.3647450843758 L 683.7417207249529 543.0939105159996 L 684.6066017177983 543.8933982822018 L 685.4060894840005 544.7582792750474 L 686.1352549156243 545.683221215613 L 686.7896024653114 546.6625215292609 L 687.3650978628256 547.6901425039069 L 687.8581929876693 548.7597485145238 L 688.2658477444273 549.864745084376 L 688.5855488059652 550.9983195421615 L 688.8153251089271 552.1534830243967 L 688.953760005997 553.3231135640825 Z" fill-opacity="1" stroke-opacity="1" stroke-miterlimit="10" stroke-width="2"/><text fill="none" stroke="rgb(0,0,0)" font-family="Helvetica Neue, Helvetica, sans-serif" font-size="10px" font-style="normal" font-weight="normal" text-decoration="normal" x="674" y="539.5" text-anchor="middle" dominant-baseline="text-after-edge" stroke-opacity="1" stroke-linejoin="round" stroke-miterlimit="10" stroke-width="4">AV:L</text><text fill="rgb(255,255,255)" stroke="none" font-family="Helvetica Neue, Helvetica, sans-serif" font-size="10px" font-style="normal" font-weight="normal" text-decoration="normal" x="674" y="539.5" text-anchor="middle" dominant-baseline="text-after-edge" fill-opacity="1">AV:L</text><path fill="rgb(99,102,241)" stroke="rgb(0,0,0)" paint-order="fill stroke markers" d=" M 689 801.25 L 688.953760005997 802.4268864359177 L 688.815325108927 803.5965169756034 L 688.5855488059651 804.7516804578386 L 688.2658477444273 805.8852549156242 L 687.8581929876693 806.9902514854764 L 687.3650978628256 808.0598574960932 L 686.7896024653114 809.0874784707393 L 686.1352549156242 810.0667787843871 L 685.4060894840005 810.9917207249528 L 684.6066017177982 811.8566017177982 L 683.7417207249528 812.6560894840005 L 682.8167787843871 813.3852549156242 L 681.8374784707393 814.0396024653114 L 680.8098574960932 814.6150978628256 L 679.7402514854764 815.1081929876693 L 678.6352549156242 815.5158477444273 L 677.5016804578386 815.8355488059651 L 676.3465169756034 816.065325108927 L 675.1768864359177 816.203760005997 L 674 816.25 L 672.8231135640823 816.203760005997 L 671.6534830243966 816.065325108927 L 670.4983195421614 815.8355488059651 L 669.3647450843758 815.5158477444273 L 668.2597485145236 815.1081929876693 L 667.1901425039068 814.6150978628256 L 666.1625215292607 814.0396024653114 L 665.1832212156129 813.3852549156242 L 664.2582792750472 812.6560894840005 L 663.3933982822018 811.8566017177982 L 662.5939105159995 810.9917207249528 L 661.8647450843758 810.0667787843871 L 661.2103975346886 809.0874784707393 L 660.6349021371744 808.0598574960932 L 660.1418070123307 806.9902514854764 L 659.7341522555727 805.8852549156242 L 659.4144511940349 804.7516804578386 L 659.184674891073 803.5965169756034 L 659.046239994003 802.4268864359177 L 659 801.25 L 659.046239994003 800.0731135640823 L 659.184674891073 798.9034830243966 L 659.4144511940349 797.7483195421614 L 659.7341522555727 796.6147450843758 L 660.1418070123307 795.5097485145236 L 660.6349021371744 794.4401425039068 L 661.2103975346886 793.4125215292607 L 661.8647450843758 792.4332212156129 L 662.5939105159995 791.5082792750472 L 663.3933982822018 790.6433982822018 L 664.2582792750472 789.8439105159996 L 665.1832212156129 789.1147450843758 L 666.1625215292607 788.4603975346886 L 667.1901425039068 787.8849021371744 L 668.2597485145237 787.3918070123307 L 669.3647450843758 786.9841522555727 L 670.4983195421614 786.6644511940349 L 671.6534830243966 786.434674891073 L 672.8231135640824 786.296239994003 L 674 786.25 L 675.1768864359177 786.296239994003 L 676.3465169756035 786.434674891073 L 677.5016804578387 786.6644511940349 L 678.6352549156243 786.9841522555727 L 679.7402514854764 787.3918070123307 L 680.8098574960933 787.8849021371745 L 681.8374784707394 788.4603975346887 L 682.8167787843872 789.1147450843758 L 683.7417207249529 789.8439105159996 L 684.6066017177983 790.6433982822018 L 685.4060894840005 791.5082792750474 L 686.1352549156243 792.433221215613 L 686.7896024653114 793.4125215292609 L 687.3650978628256 794.4401425039069 L 687.8581929876693 795.5097485145238 L 688.2658477444273 796.614745084376 L 688.5855488059652 797.7483195421615 L 688.8153251089271 798.9034830243967 L 688.953760005997 800.0731135640825 Z" fill-opacity="1" stroke-opacity="1" stroke-miterlimit="10" stroke-width="2"/><text fill="none" stroke="rgb(0,0,0)" font-family="Helvetica Neue, Helvetica, sans-serif" font-size="10px" font-style="normal" font-weight="normal" text-decoration="normal" x="674" y="786.25" text-anchor="middle" dominant-baseline="text-after-edge" stroke-opacity="1" stroke-linejoin="round" stroke-miterlimit="10" stroke-width="4">PR:H</text><text fill="rgb(255,255,255)" stroke="none" font-family="Helvetica Neue, Helvetica, sans-serif" font-size="10px" font-style="normal" font-weight="normal" text-decoration="normal" x="674" y="786.25" text-anchor="middle" dominant-baseline="text-after-edge" fill-opacity="1">PR:H</text><path fill="rgb(234,179,8)" stroke="rgb(255,102,102)" paint-order="fill stroke markers" d=" M 557 337.25 L 556.9460533403297 338.6230341752373 L 556.7845459604149 339.98760313820407 L 556.5164736069594 341.33529386747836 L 556.1434890351652 342.6577974015616 L 555.6678918189475 343.94696006638907 L 555.0926141732964 345.19483374544205 L 554.4212028761966 346.3937248825291 L 553.6577974015615 347.5362419151183 L 552.8071043980005 348.61534084577823 L 551.8743686707646 349.62436867076457 L 550.8653408457782 350.55710439800055 L 549.7862419151182 351.4077974015616 L 548.6437248825291 352.1712028761966 L 547.4448337454421 352.84261417329645 L 546.1969600663891 353.4178918189475 L 544.9077974015615 353.8934890351652 L 543.5852938674783 354.2664736069593 L 542.237603138204 354.5345459604149 L 540.8730341752373 354.69605334032974 L 539.5 354.75 L 538.1269658247627 354.69605334032974 L 536.762396861796 354.5345459604149 L 535.4147061325217 354.2664736069593 L 534.0922025984385 353.8934890351652 L 532.8030399336109 353.4178918189475 L 531.5551662545579 352.84261417329645 L 530.3562751174709 352.1712028761966 L 529.2137580848818 351.4077974015616 L 528.1346591542218 350.55710439800055 L 527.1256313292354 349.62436867076457 L 526.1928956019995 348.61534084577823 L 525.3422025984385 347.5362419151183 L 524.5787971238034 346.3937248825291 L 523.9073858267036 345.19483374544205 L 523.3321081810525 343.94696006638907 L 522.8565109648348 342.6577974015616 L 522.4835263930406 341.33529386747836 L 522.2154540395851 339.98760313820407 L 522.0539466596703 338.6230341752373 L 522 337.25 L 522.0539466596703 335.8769658247627 L 522.2154540395851 334.51239686179593 L 522.4835263930406 333.16470613252164 L 522.8565109648348 331.8422025984384 L 523.3321081810525 330.55303993361093 L 523.9073858267036 329.30516625455795 L 524.5787971238034 328.1062751174709 L 525.3422025984385 326.9637580848817 L 526.1928956019995 325.88465915422177 L 527.1256313292354 324.87563132923543 L 528.1346591542218 323.94289560199945 L 529.2137580848818 323.0922025984384 L 530.3562751174709 322.3287971238034 L 531.5551662545579 321.65738582670355 L 532.803039933611 321.0821081810525 L 534.0922025984385 320.6065109648348 L 535.4147061325217 320.2335263930407 L 536.762396861796 319.9654540395851 L 538.1269658247628 319.80394665967026 L 539.5000000000001 319.75 L 540.8730341752373 319.80394665967026 L 542.2376031382041 319.9654540395851 L 543.5852938674784 320.2335263930407 L 544.9077974015617 320.60651096483485 L 546.1969600663891 321.0821081810525 L 547.4448337454421 321.6573858267036 L 548.6437248825292 322.32879712380344 L 549.7862419151184 323.0922025984385 L 550.8653408457783 323.94289560199957 L 551.8743686707646 324.8756313292355 L 552.8071043980007 325.8846591542219 L 553.6577974015617 326.9637580848818 L 554.4212028761967 328.10627511747106 L 555.0926141732965 329.30516625455806 L 555.6678918189476 330.5530399336111 L 556.1434890351652 331.8422025984386 L 556.5164736069594 333.1647061325218 L 556.7845459604149 334.51239686179616 L 556.9460533403297 335.8769658247629 Z" fill-opacity="0.25" stroke-opacity="0.25" stroke-miterlimit="10" stroke-width="2" stroke-dasharray="4,2"/><text fill="none" stroke="rgb(0,0,0)" font-family="Helvetica Neue, Helvetica, sans-serif" font-size="10px" font-style="normal" font-weight="normal" text-decoration="normal" x="539.5" y="319.75" text-anchor="middle" dominant-baseline="text-after-edge" stroke-opacity="0.25" stroke-linejoin="round" stroke-miterlimit="10" stroke-width="4">CVE-2026-23950</text><text fill="rgb(255,255,255)" stroke="none" font-family="Helvetica Neue, Helvetica, sans-serif" font-size="10px" font-style="normal" font-weight="normal" text-decoration="normal" x="539.5" y="319.75" text-anchor="middle" dominant-baseline="text-after-edge" fill-opacity="0.25">CVE-2026-23950</text><path fill="rgb(255,0,0)" stroke="rgb(255,215,0)" paint-order="fill stroke markers" d=" M 1054 2 L 1044.7343318831333 16.229919354882053 L 1029 21.09830056250525 L 1039.0078340584334 34.76125558861554 L 1038.5491502812527 51.99999999999999 L 1054 46.21425123801531 L 1069.4508497187473 52 L 1068.9921659415666 34.76125558861555 L 1079 21.098300562505262 L 1063.2656681168667 16.229919354882057 Z" fill-opacity="0.25" stroke-opacity="0.25" stroke-miterlimit="10" stroke-width="4" stroke-dasharray="4,2"/><text fill="none" stroke="rgb(0,0,0)" font-family="Helvetica Neue, Helvetica, sans-serif" font-size="10px" font-style="normal" font-weight="bold" text-decoration="normal" x="1054" y="2" text-anchor="middle" dominant-baseline="text-after-edge" stroke-opacity="0.25" stroke-linejoin="round" stroke-miterlimit="10" stroke-width="4">EXPLOITED</text><text fill="rgb(255,255,255)" stroke="none" font-family="Helvetica Neue, Helvetica, sans-serif" font-size="10px" font-style="normal" font-weight="bold" text-decoration="normal" x="1054" y="2" text-anchor="middle" dominant-baseline="text-after-edge" fill-opacity="0.25">EXPLOITED</text><path fill="rgb(99,102,241)" stroke="rgb(255,0,102)" paint-order="fill stroke markers" d=" M 81 574.5 L 80.95376000599691 575.6768864359177 L 80.81532510892707 576.8465169756034 L 80.58554880596515 578.0016804578386 L 80.2658477444273 579.1352549156242 L 79.8581929876693 580.2402514854764 L 79.36509786282552 581.3098574960932 L 78.78960246531139 582.3374784707393 L 78.13525491562422 583.3167787843871 L 77.40608948400046 584.2417207249528 L 76.60660171779821 585.1066017177982 L 75.74172072495276 585.9060894840005 L 74.8167787843871 586.6352549156242 L 73.83747847073923 587.2896024653114 L 72.8098574960932 587.8650978628256 L 71.74025148547635 588.3581929876693 L 70.63525491562422 588.7658477444273 L 69.50168045783859 589.0855488059651 L 68.34651697560346 589.315325108927 L 67.17688643591768 589.453760005997 L 66 589.5 L 64.82311356408232 589.453760005997 L 63.653483024396536 589.315325108927 L 62.49831954216142 589.0855488059651 L 61.36474508437579 588.7658477444273 L 60.25974851452365 588.3581929876693 L 59.1901425039068 587.8650978628256 L 58.16252152926077 587.2896024653114 L 57.1832212156129 586.6352549156242 L 56.258279275047244 585.9060894840005 L 55.39339828220179 585.1066017177982 L 54.59391051599954 584.2417207249528 L 53.86474508437579 583.3167787843871 L 53.21039753468862 582.3374784707393 L 52.634902137174485 581.3098574960932 L 52.1418070123307 580.2402514854764 L 51.734152255572695 579.1352549156242 L 51.414451194034854 578.0016804578386 L 51.18467489107294 576.8465169756034 L 51.04623999400308 575.6768864359177 L 51 574.5 L 51.04623999400308 573.3231135640823 L 51.18467489107293 572.1534830243966 L 51.414451194034854 570.9983195421614 L 51.734152255572695 569.8647450843758 L 52.141807012330695 568.7597485145236 L 52.63490213717448 567.6901425039068 L 53.21039753468862 566.6625215292607 L 53.864745084375784 565.6832212156129 L 54.59391051599953 564.7582792750472 L 55.39339828220179 563.8933982822018 L 56.25827927504724 563.0939105159996 L 57.1832212156129 562.3647450843758 L 58.16252152926077 561.7103975346886 L 59.190142503906806 561.1349021371744 L 60.25974851452367 560.6418070123307 L 61.36474508437581 560.2341522555727 L 62.49831954216145 559.9144511940349 L 63.65348302439657 559.684674891073 L 64.82311356408238 559.546239994003 L 66.00000000000006 559.5 L 67.17688643591774 559.546239994003 L 68.34651697560352 559.684674891073 L 69.50168045783865 559.9144511940349 L 70.63525491562429 560.2341522555727 L 71.74025148547642 560.6418070123307 L 72.80985749609329 561.1349021371745 L 73.83747847073931 561.7103975346887 L 74.81677878438718 562.3647450843758 L 75.74172072495284 563.0939105159996 L 76.6066017177983 563.8933982822018 L 77.40608948400055 564.7582792750474 L 78.13525491562429 565.683221215613 L 78.78960246531145 566.6625215292609 L 79.36509786282558 567.6901425039069 L 79.85819298766936 568.7597485145238 L 80.26584774442735 569.864745084376 L 80.58554880596519 570.9983195421615 L 80.8153251089271 572.1534830243967 L 80.95376000599694 573.3231135640825 Z" fill-opacity="1" stroke-opacity="1" stroke-miterlimit="10" stroke-width="2"/><text fill="none" stroke="rgb(0,0,0)" font-family="Helvetica Neue, Helvetica, sans-serif" font-size="10px" font-style="normal" font-weight="normal" text-decoration="normal" x="66" y="559.5" text-anchor="middle" dominant-baseline="text-after-edge" stroke-opacity="1" stroke-linejoin="round" stroke-miterlimit="10" stroke-width="4">AC:L</text><text fill="rgb(255,255,255)" stroke="none" font-family="Helvetica Neue, Helvetica, sans-serif" font-size="10px" font-style="normal" font-weight="normal" text-decoration="normal" x="66" y="559.5" text-anchor="middle" dominant-baseline="text-after-edge" fill-opacity="1">AC:L</text><path fill="rgb(99,102,241)" stroke="rgb(255,0,102)" paint-order="fill stroke markers" d=" M 81 529.5 L 80.95376000599691 530.6768864359177 L 80.81532510892707 531.8465169756034 L 80.58554880596515 533.0016804578386 L 80.2658477444273 534.1352549156242 L 79.8581929876693 535.2402514854764 L 79.36509786282552 536.3098574960932 L 78.78960246531139 537.3374784707393 L 78.13525491562422 538.3167787843871 L 77.40608948400046 539.2417207249528 L 76.60660171779821 540.1066017177982 L 75.74172072495276 540.9060894840005 L 74.8167787843871 541.6352549156242 L 73.83747847073923 542.2896024653114 L 72.8098574960932 542.8650978628256 L 71.74025148547635 543.3581929876693 L 70.63525491562422 543.7658477444273 L 69.50168045783859 544.0855488059651 L 68.34651697560346 544.315325108927 L 67.17688643591768 544.453760005997 L 66 544.5 L 64.82311356408232 544.453760005997 L 63.653483024396536 544.315325108927 L 62.49831954216142 544.0855488059651 L 61.36474508437579 543.7658477444273 L 60.25974851452365 543.3581929876693 L 59.1901425039068 542.8650978628256 L 58.16252152926077 542.2896024653114 L 57.1832212156129 541.6352549156242 L 56.258279275047244 540.9060894840005 L 55.39339828220179 540.1066017177982 L 54.59391051599954 539.2417207249528 L 53.86474508437579 538.3167787843871 L 53.21039753468862 537.3374784707393 L 52.634902137174485 536.3098574960932 L 52.1418070123307 535.2402514854764 L 51.734152255572695 534.1352549156242 L 51.414451194034854 533.0016804578386 L 51.18467489107294 531.8465169756034 L 51.04623999400308 530.6768864359177 L 51 529.5 L 51.04623999400308 528.3231135640823 L 51.18467489107293 527.1534830243966 L 51.414451194034854 525.9983195421614 L 51.734152255572695 524.8647450843758 L 52.141807012330695 523.7597485145236 L 52.63490213717448 522.6901425039068 L 53.21039753468862 521.6625215292607 L 53.864745084375784 520.6832212156129 L 54.59391051599953 519.7582792750472 L 55.39339828220179 518.8933982822018 L 56.25827927504724 518.0939105159996 L 57.1832212156129 517.3647450843758 L 58.16252152926077 516.7103975346886 L 59.190142503906806 516.1349021371744 L 60.25974851452367 515.6418070123307 L 61.36474508437581 515.2341522555727 L 62.49831954216145 514.9144511940349 L 63.65348302439657 514.684674891073 L 64.82311356408238 514.546239994003 L 66.00000000000006 514.5 L 67.17688643591774 514.546239994003 L 68.34651697560352 514.684674891073 L 69.50168045783865 514.9144511940349 L 70.63525491562429 515.2341522555727 L 71.74025148547642 515.6418070123307 L 72.80985749609329 516.1349021371745 L 73.83747847073931 516.7103975346887 L 74.81677878438718 517.3647450843758 L 75.74172072495284 518.0939105159996 L 76.6066017177983 518.8933982822018 L 77.40608948400055 519.7582792750474 L 78.13525491562429 520.683221215613 L 78.78960246531145 521.6625215292609 L 79.36509786282558 522.6901425039069 L 79.85819298766936 523.7597485145238 L 80.26584774442735 524.864745084376 L 80.58554880596519 525.9983195421615 L 80.8153251089271 527.1534830243967 L 80.95376000599694 528.3231135640825 Z" fill-opacity="1" stroke-opacity="1" stroke-miterlimit="10" stroke-width="2"/><text fill="none" stroke="rgb(0,0,0)" font-family="Helvetica Neue, Helvetica, sans-serif" font-size="10px" font-style="normal" font-weight="normal" text-decoration="normal" x="66" y="514.5" text-anchor="middle" dominant-baseline="text-after-edge" stroke-opacity="1" stroke-linejoin="round" stroke-miterlimit="10" stroke-width="4">UI:N</text><text fill="rgb(255,255,255)" stroke="none" font-family="Helvetica Neue, Helvetica, sans-serif" font-size="10px" font-style="normal" font-weight="normal" text-decoration="normal" x="66" y="514.5" text-anchor="middle" dominant-baseline="text-after-edge" fill-opacity="1">UI:N</text><path fill="rgb(0,255,136)" stroke="rgb(0,204,102)" paint-order="fill stroke markers" d=" M 1213 94.5 L 1243 64.5 L 1213 34.5 L 1183 64.5 Z" fill-opacity="1" stroke-opacity="1" stroke-miterlimit="10" stroke-width="4"/><text fill="none" stroke="rgb(0,0,0)" font-family="Helvetica Neue, Helvetica, sans-serif" font-size="14px" font-style="normal" font-weight="bold" text-decoration="normal" x="1213" y="34.5" text-anchor="middle" dominant-baseline="text-after-edge" stroke-opacity="1" stroke-linejoin="round" stroke-miterlimit="10" stroke-width="6">INSIDE NETWORK</text><text fill="rgb(255,255,255)" stroke="none" font-family="Helvetica Neue, Helvetica, sans-serif" font-size="14px" font-style="normal" font-weight="bold" text-decoration="normal" x="1213" y="34.5" text-anchor="middle" dominant-baseline="text-after-edge" fill-opacity="1">INSIDE NETWORK</text><path fill="rgb(234,179,8)" stroke="rgb(255,102,102)" paint-order="fill stroke markers" d=" M 557 674.25 L 556.9460533403297 675.6230341752373 L 556.7845459604149 676.987603138204 L 556.5164736069594 678.3352938674783 L 556.1434890351652 679.6577974015615 L 555.6678918189475 680.9469600663891 L 555.0926141732964 682.1948337454421 L 554.4212028761966 683.3937248825291 L 553.6577974015615 684.5362419151182 L 552.8071043980005 685.6153408457782 L 551.8743686707646 686.6243686707646 L 550.8653408457782 687.5571043980005 L 549.7862419151182 688.4077974015615 L 548.6437248825291 689.1712028761966 L 547.4448337454421 689.8426141732964 L 546.1969600663891 690.4178918189475 L 544.9077974015615 690.8934890351652 L 543.5852938674783 691.2664736069594 L 542.237603138204 691.5345459604149 L 540.8730341752373 691.6960533403297 L 539.5 691.75 L 538.1269658247627 691.6960533403297 L 536.762396861796 691.5345459604149 L 535.4147061325217 691.2664736069594 L 534.0922025984385 690.8934890351652 L 532.8030399336109 690.4178918189475 L 531.5551662545579 689.8426141732964 L 530.3562751174709 689.1712028761966 L 529.2137580848818 688.4077974015615 L 528.1346591542218 687.5571043980005 L 527.1256313292354 686.6243686707646 L 526.1928956019995 685.6153408457782 L 525.3422025984385 684.5362419151182 L 524.5787971238034 683.3937248825291 L 523.9073858267036 682.1948337454421 L 523.3321081810525 680.9469600663891 L 522.8565109648348 679.6577974015615 L 522.4835263930406 678.3352938674783 L 522.2154540395851 676.987603138204 L 522.0539466596703 675.6230341752373 L 522 674.25 L 522.0539466596703 672.8769658247627 L 522.2154540395851 671.512396861796 L 522.4835263930406 670.1647061325217 L 522.8565109648348 668.8422025984385 L 523.3321081810525 667.5530399336109 L 523.9073858267036 666.3051662545579 L 524.5787971238034 665.1062751174709 L 525.3422025984385 663.9637580848818 L 526.1928956019995 662.8846591542218 L 527.1256313292354 661.8756313292354 L 528.1346591542218 660.9428956019995 L 529.2137580848818 660.0922025984385 L 530.3562751174709 659.3287971238034 L 531.5551662545579 658.6573858267036 L 532.803039933611 658.0821081810525 L 534.0922025984385 657.6065109648348 L 535.4147061325217 657.2335263930406 L 536.762396861796 656.9654540395851 L 538.1269658247628 656.8039466596703 L 539.5000000000001 656.75 L 540.8730341752373 656.8039466596703 L 542.2376031382041 656.9654540395851 L 543.5852938674784 657.2335263930406 L 544.9077974015617 657.6065109648348 L 546.1969600663891 658.0821081810525 L 547.4448337454421 658.6573858267036 L 548.6437248825292 659.3287971238035 L 549.7862419151184 660.0922025984385 L 550.8653408457783 660.9428956019996 L 551.8743686707646 661.8756313292355 L 552.8071043980007 662.8846591542219 L 553.6577974015617 663.9637580848819 L 554.4212028761967 665.106275117471 L 555.0926141732965 666.3051662545581 L 555.6678918189476 667.5530399336111 L 556.1434890351652 668.8422025984386 L 556.5164736069594 670.1647061325218 L 556.7845459604149 671.5123968617961 L 556.9460533403297 672.8769658247629 Z" fill-opacity="0.25" stroke-opacity="0.25" stroke-miterlimit="10" stroke-width="2" stroke-dasharray="4,2"/><text fill="none" stroke="rgb(0,0,0)" font-family="Helvetica Neue, Helvetica, sans-serif" font-size="10px" font-style="normal" font-weight="normal" text-decoration="normal" x="539.5" y="656.75" text-anchor="middle" dominant-baseline="text-after-edge" stroke-opacity="0.25" stroke-linejoin="round" stroke-miterlimit="10" stroke-width="4">CVE-2026-24842</text><text fill="rgb(255,255,255)" stroke="none" font-family="Helvetica Neue, Helvetica, sans-serif" font-size="10px" font-style="normal" font-weight="normal" text-decoration="normal" x="539.5" y="656.75" text-anchor="middle" dominant-baseline="text-after-edge" fill-opacity="0.25">CVE-2026-24842</text><path fill="rgb(234,179,8)" stroke="rgb(0,0,0)" paint-order="fill stroke markers" d=" M 876 123.5 L 875.9460533403297 124.87303417523728 L 875.7845459604149 126.23760313820404 L 875.5164736069594 127.58529386747834 L 875.1434890351652 128.90779740156157 L 874.6678918189475 130.19696006638907 L 874.0926141732964 131.44483374544205 L 873.4212028761966 132.6437248825291 L 872.6577974015615 133.78624191511827 L 871.8071043980005 134.8653408457782 L 870.8743686707646 135.87436867076457 L 869.8653408457782 136.80710439800055 L 868.7862419151182 137.6577974015616 L 867.6437248825291 138.42120287619662 L 866.4448337454421 139.09261417329643 L 865.1969600663891 139.6678918189475 L 863.9077974015615 140.14348903516517 L 862.5852938674783 140.51647360695935 L 861.237603138204 140.7845459604149 L 859.8730341752373 140.94605334032974 L 858.5 141 L 857.1269658247627 140.94605334032974 L 855.762396861796 140.7845459604149 L 854.4147061325217 140.51647360695935 L 853.0922025984385 140.1434890351652 L 851.8030399336109 139.6678918189475 L 850.5551662545579 139.09261417329643 L 849.3562751174709 138.42120287619662 L 848.2137580848818 137.6577974015616 L 847.1346591542218 136.80710439800055 L 846.1256313292354 135.87436867076457 L 845.1928956019995 134.8653408457782 L 844.3422025984385 133.7862419151183 L 843.5787971238034 132.6437248825291 L 842.9073858267036 131.44483374544208 L 842.3321081810525 130.19696006638907 L 841.8565109648348 128.9077974015616 L 841.4835263930406 127.58529386747834 L 841.2154540395851 126.23760313820404 L 841.0539466596703 124.8730341752373 L 841 123.5 L 841.0539466596703 122.12696582476272 L 841.2154540395851 120.76239686179596 L 841.4835263930406 119.41470613252166 L 841.8565109648348 118.09220259843842 L 842.3321081810525 116.80303993361093 L 842.9073858267036 115.55516625455793 L 843.5787971238034 114.3562751174709 L 844.3422025984385 113.21375808488172 L 845.1928956019995 112.1346591542218 L 846.1256313292354 111.12563132923542 L 847.1346591542218 110.19289560199947 L 848.2137580848818 109.34220259843842 L 849.3562751174709 108.57879712380338 L 850.5551662545579 107.90738582670356 L 851.803039933611 107.33210818105248 L 853.0922025984385 106.8565109648348 L 854.4147061325217 106.48352639304065 L 855.762396861796 106.21545403958508 L 857.1269658247628 106.05394665967026 L 858.5000000000001 106 L 859.8730341752373 106.05394665967026 L 861.2376031382041 106.2154540395851 L 862.5852938674784 106.48352639304068 L 863.9077974015617 106.85651096483484 L 865.1969600663891 107.33210818105252 L 866.4448337454421 107.9073858267036 L 867.6437248825292 108.57879712380344 L 868.7862419151184 109.34220259843849 L 869.8653408457783 110.19289560199954 L 870.8743686707646 111.12563132923552 L 871.8071043980007 112.1346591542219 L 872.6577974015617 113.21375808488185 L 873.4212028761967 114.35627511747103 L 874.0926141732965 115.55516625455807 L 874.6678918189476 116.80303993361109 L 875.1434890351652 118.09220259843859 L 875.5164736069594 119.41470613252184 L 875.7845459604149 120.76239686179616 L 875.9460533403297 122.12696582476292 Z" fill-opacity="1" stroke-opacity="1" stroke-miterlimit="10" stroke-width="2"/><text fill="none" stroke="rgb(0,0,0)" font-family="Helvetica Neue, Helvetica, sans-serif" font-size="10px" font-style="normal" font-weight="normal" text-decoration="normal" x="858.5" y="106" text-anchor="middle" dominant-baseline="text-after-edge" stroke-opacity="1" stroke-linejoin="round" stroke-miterlimit="10" stroke-width="4">CVE-2026-31802</text><text fill="rgb(255,255,255)" stroke="none" font-family="Helvetica Neue, Helvetica, sans-serif" font-size="10px" font-style="normal" font-weight="normal" text-decoration="normal" x="858.5" y="106" text-anchor="middle" dominant-baseline="text-after-edge" fill-opacity="1">CVE-2026-31802</text><path fill="rgb(234,179,8)" stroke="rgb(255,102,102)" paint-order="fill stroke markers" d=" M 876 635.4166666666666 L 875.9460533403297 636.7897008419039 L 875.7845459604149 638.1542698048706 L 875.5164736069594 639.5019605341449 L 875.1434890351652 640.8244640682282 L 874.6678918189475 642.1136267330558 L 874.0926141732964 643.3615004121087 L 873.4212028761966 644.5603915491957 L 872.6577974015615 645.7029085817849 L 871.8071043980005 646.7820075124448 L 870.8743686707646 647.7910353374313 L 869.8653408457782 648.7237710646672 L 868.7862419151182 649.5744640682282 L 867.6437248825291 650.3378695428632 L 866.4448337454421 651.009280839963 L 865.1969600663891 651.5845584856141 L 863.9077974015615 652.0601557018318 L 862.5852938674783 652.433140273626 L 861.237603138204 652.7012126270815 L 859.8730341752373 652.8627200069964 L 858.5 652.9166666666666 L 857.1269658247627 652.8627200069964 L 855.762396861796 652.7012126270815 L 854.4147061325217 652.433140273626 L 853.0922025984385 652.0601557018318 L 851.8030399336109 651.5845584856141 L 850.5551662545579 651.009280839963 L 849.3562751174709 650.3378695428632 L 848.2137580848818 649.5744640682282 L 847.1346591542218 648.7237710646672 L 846.1256313292354 647.7910353374313 L 845.1928956019995 646.7820075124448 L 844.3422025984385 645.7029085817849 L 843.5787971238034 644.5603915491957 L 842.9073858267036 643.3615004121087 L 842.3321081810525 642.1136267330558 L 841.8565109648348 640.8244640682282 L 841.4835263930406 639.5019605341449 L 841.2154540395851 638.1542698048706 L 841.0539466596703 636.7897008419039 L 841 635.4166666666666 L 841.0539466596703 634.0436324914293 L 841.2154540395851 632.6790635284626 L 841.4835263930406 631.3313727991883 L 841.8565109648348 630.0088692651051 L 842.3321081810525 628.7197066002775 L 842.9073858267036 627.4718329212245 L 843.5787971238034 626.2729417841375 L 844.3422025984385 625.1304247515484 L 845.1928956019995 624.0513258208885 L 846.1256313292354 623.042297995902 L 847.1346591542218 622.1095622686661 L 848.2137580848818 621.2588692651051 L 849.3562751174709 620.49546379047 L 850.5551662545579 619.8240524933702 L 851.803039933611 619.2487748477191 L 853.0922025984385 618.7731776315014 L 854.4147061325217 618.4001930597072 L 855.762396861796 618.1321207062517 L 857.1269658247628 617.9706133263369 L 858.5000000000001 617.9166666666666 L 859.8730341752373 617.9706133263369 L 861.2376031382041 618.1321207062517 L 862.5852938674784 618.4001930597074 L 863.9077974015617 618.7731776315014 L 865.1969600663891 619.2487748477191 L 866.4448337454421 619.8240524933702 L 867.6437248825292 620.4954637904701 L 868.7862419151184 621.2588692651051 L 869.8653408457783 622.1095622686662 L 870.8743686707646 623.0422979959021 L 871.8071043980007 624.0513258208886 L 872.6577974015617 625.1304247515485 L 873.4212028761967 626.2729417841376 L 874.0926141732965 627.4718329212247 L 874.6678918189476 628.7197066002777 L 875.1434890351652 630.0088692651052 L 875.5164736069594 631.3313727991884 L 875.7845459604149 632.6790635284627 L 875.9460533403297 634.0436324914295 Z" fill-opacity="0.25" stroke-opacity="0.25" stroke-miterlimit="10" stroke-width="2" stroke-dasharray="4,2"/><text fill="none" stroke="rgb(0,0,0)" font-family="Helvetica Neue, Helvetica, sans-serif" font-size="10px" font-style="normal" font-weight="normal" text-decoration="normal" x="858.5" y="617.9166666666666" text-anchor="middle" dominant-baseline="text-after-edge" stroke-opacity="0.25" stroke-linejoin="round" stroke-miterlimit="10" stroke-width="4">CVE-2026-29786</text><text fill="rgb(255,255,255)" stroke="none" font-family="Helvetica Neue, Helvetica, sans-serif" font-size="10px" font-style="normal" font-weight="normal" text-decoration="normal" x="858.5" y="617.9166666666666" text-anchor="middle" dominant-baseline="text-after-edge" fill-opacity="0.25">CVE-2026-29786</text><path fill="rgb(234,179,8)" stroke="rgb(255,102,102)" paint-order="fill stroke markers" d=" M 876 1026 L 875.9460533403297 1027.3730341752373 L 875.7845459604149 1028.7376031382041 L 875.5164736069594 1030.0852938674784 L 875.1434890351652 1031.4077974015615 L 874.6678918189475 1032.696960066389 L 874.0926141732964 1033.944833745442 L 873.4212028761966 1035.143724882529 L 872.6577974015615 1036.2862419151184 L 871.8071043980005 1037.3653408457783 L 870.8743686707646 1038.3743686707646 L 869.8653408457782 1039.3071043980005 L 868.7862419151182 1040.1577974015615 L 867.6437248825291 1040.9212028761965 L 866.4448337454421 1041.5926141732964 L 865.1969600663891 1042.1678918189475 L 863.9077974015615 1042.6434890351652 L 862.5852938674783 1043.0164736069594 L 861.237603138204 1043.284545960415 L 859.8730341752373 1043.4460533403299 L 858.5 1043.5 L 857.1269658247627 1043.4460533403299 L 855.762396861796 1043.284545960415 L 854.4147061325217 1043.0164736069594 L 853.0922025984385 1042.6434890351652 L 851.8030399336109 1042.1678918189475 L 850.5551662545579 1041.5926141732964 L 849.3562751174709 1040.9212028761965 L 848.2137580848818 1040.1577974015615 L 847.1346591542218 1039.3071043980005 L 846.1256313292354 1038.3743686707646 L 845.1928956019995 1037.3653408457783 L 844.3422025984385 1036.2862419151184 L 843.5787971238034 1035.143724882529 L 842.9073858267036 1033.944833745442 L 842.3321081810525 1032.696960066389 L 841.8565109648348 1031.4077974015615 L 841.4835263930406 1030.0852938674784 L 841.2154540395851 1028.7376031382041 L 841.0539466596703 1027.3730341752373 L 841 1026 L 841.0539466596703 1024.6269658247627 L 841.2154540395851 1023.262396861796 L 841.4835263930406 1021.9147061325217 L 841.8565109648348 1020.5922025984385 L 842.3321081810525 1019.3030399336109 L 842.9073858267036 1018.0551662545579 L 843.5787971238034 1016.8562751174709 L 844.3422025984385 1015.7137580848818 L 845.1928956019995 1014.6346591542218 L 846.1256313292354 1013.6256313292354 L 847.1346591542218 1012.6928956019995 L 848.2137580848818 1011.8422025984385 L 849.3562751174709 1011.0787971238034 L 850.5551662545579 1010.4073858267036 L 851.803039933611 1009.8321081810525 L 853.0922025984385 1009.3565109648348 L 854.4147061325217 1008.9835263930406 L 855.762396861796 1008.7154540395851 L 857.1269658247628 1008.5539466596703 L 858.5000000000001 1008.5 L 859.8730341752373 1008.5539466596703 L 861.2376031382041 1008.7154540395851 L 862.5852938674784 1008.9835263930406 L 863.9077974015617 1009.3565109648348 L 865.1969600663891 1009.8321081810525 L 866.4448337454421 1010.4073858267036 L 867.6437248825292 1011.0787971238035 L 868.7862419151184 1011.8422025984385 L 869.8653408457783 1012.6928956019996 L 870.8743686707646 1013.6256313292355 L 871.8071043980007 1014.6346591542219 L 872.6577974015617 1015.7137580848819 L 873.4212028761967 1016.856275117471 L 874.0926141732965 1018.0551662545581 L 874.6678918189476 1019.3030399336111 L 875.1434890351652 1020.5922025984386 L 875.5164736069594 1021.9147061325218 L 875.7845459604149 1023.2623968617961 L 875.9460533403297 1024.626965824763 Z" fill-opacity="0.25" stroke-opacity="0.25" stroke-miterlimit="10" stroke-width="2" stroke-dasharray="4,2"/><text fill="none" stroke="rgb(0,0,0)" font-family="Helvetica Neue, Helvetica, sans-serif" font-size="10px" font-style="normal" font-weight="normal" text-decoration="normal" x="858.5" y="1008.5" text-anchor="middle" dominant-baseline="text-after-edge" stroke-opacity="0.25" stroke-linejoin="round" stroke-miterlimit="10" stroke-width="4">CVE-2025-64756</text><text fill="rgb(255,255,255)" stroke="none" font-family="Helvetica Neue, Helvetica, sans-serif" font-size="10px" font-style="normal" font-weight="normal" text-decoration="normal" x="858.5" y="1008.5" text-anchor="middle" dominant-baseline="text-after-edge" fill-opacity="0.25">CVE-2025-64756</text><path fill="rgb(234,179,8)" stroke="rgb(255,102,102)" paint-order="fill stroke markers" d=" M 876 590.4166666666666 L 875.9460533403297 591.7897008419039 L 875.7845459604149 593.1542698048706 L 875.5164736069594 594.5019605341449 L 875.1434890351652 595.8244640682282 L 874.6678918189475 597.1136267330558 L 874.0926141732964 598.3615004121087 L 873.4212028761966 599.5603915491957 L 872.6577974015615 600.7029085817849 L 871.8071043980005 601.7820075124448 L 870.8743686707646 602.7910353374313 L 869.8653408457782 603.7237710646672 L 868.7862419151182 604.5744640682282 L 867.6437248825291 605.3378695428632 L 866.4448337454421 606.009280839963 L 865.1969600663891 606.5845584856141 L 863.9077974015615 607.0601557018318 L 862.5852938674783 607.433140273626 L 861.237603138204 607.7012126270815 L 859.8730341752373 607.8627200069964 L 858.5 607.9166666666666 L 857.1269658247627 607.8627200069964 L 855.762396861796 607.7012126270815 L 854.4147061325217 607.433140273626 L 853.0922025984385 607.0601557018318 L 851.8030399336109 606.5845584856141 L 850.5551662545579 606.009280839963 L 849.3562751174709 605.3378695428632 L 848.2137580848818 604.5744640682282 L 847.1346591542218 603.7237710646672 L 846.1256313292354 602.7910353374313 L 845.1928956019995 601.7820075124448 L 844.3422025984385 600.7029085817849 L 843.5787971238034 599.5603915491957 L 842.9073858267036 598.3615004121087 L 842.3321081810525 597.1136267330558 L 841.8565109648348 595.8244640682282 L 841.4835263930406 594.5019605341449 L 841.2154540395851 593.1542698048706 L 841.0539466596703 591.7897008419039 L 841 590.4166666666666 L 841.0539466596703 589.0436324914293 L 841.2154540395851 587.6790635284626 L 841.4835263930406 586.3313727991883 L 841.8565109648348 585.0088692651051 L 842.3321081810525 583.7197066002775 L 842.9073858267036 582.4718329212245 L 843.5787971238034 581.2729417841375 L 844.3422025984385 580.1304247515484 L 845.1928956019995 579.0513258208885 L 846.1256313292354 578.042297995902 L 847.1346591542218 577.1095622686661 L 848.2137580848818 576.2588692651051 L 849.3562751174709 575.49546379047 L 850.5551662545579 574.8240524933702 L 851.803039933611 574.2487748477191 L 853.0922025984385 573.7731776315014 L 854.4147061325217 573.4001930597072 L 855.762396861796 573.1321207062517 L 857.1269658247628 572.9706133263369 L 858.5000000000001 572.9166666666666 L 859.8730341752373 572.9706133263369 L 861.2376031382041 573.1321207062517 L 862.5852938674784 573.4001930597074 L 863.9077974015617 573.7731776315014 L 865.1969600663891 574.2487748477191 L 866.4448337454421 574.8240524933702 L 867.6437248825292 575.4954637904701 L 868.7862419151184 576.2588692651051 L 869.8653408457783 577.1095622686662 L 870.8743686707646 578.0422979959021 L 871.8071043980007 579.0513258208886 L 872.6577974015617 580.1304247515485 L 873.4212028761967 581.2729417841376 L 874.0926141732965 582.4718329212247 L 874.6678918189476 583.7197066002777 L 875.1434890351652 585.0088692651052 L 875.5164736069594 586.3313727991884 L 875.7845459604149 587.6790635284627 L 875.9460533403297 589.0436324914295 Z" fill-opacity="0.25" stroke-opacity="0.25" stroke-miterlimit="10" stroke-width="2" stroke-dasharray="4,2"/><text fill="none" stroke="rgb(0,0,0)" font-family="Helvetica Neue, Helvetica, sans-serif" font-size="10px" font-style="normal" font-weight="normal" text-decoration="normal" x="858.5" y="572.9166666666666" text-anchor="middle" dominant-baseline="text-after-edge" stroke-opacity="0.25" stroke-linejoin="round" stroke-miterlimit="10" stroke-width="4">CVE-2026-23745</text><text fill="rgb(255,255,255)" stroke="none" font-family="Helvetica Neue, Helvetica, sans-serif" font-size="10px" font-style="normal" font-weight="normal" text-decoration="normal" x="858.5" y="572.9166666666666" text-anchor="middle" dominant-baseline="text-after-edge" fill-opacity="0.25">CVE-2026-23745</text><path fill="rgb(255,0,0)" stroke="rgb(255,215,0)" paint-order="fill stroke markers" d=" M 1054 170.75 L 1044.7343318831333 184.97991935488204 L 1029 189.84830056250524 L 1039.0078340584334 203.51125558861554 L 1038.5491502812527 220.75 L 1054 214.96425123801532 L 1069.4508497187473 220.75 L 1068.9921659415666 203.51125558861554 L 1079 189.84830056250527 L 1063.2656681168667 184.97991935488207 Z" fill-opacity="1" stroke-opacity="1" stroke-miterlimit="10" stroke-width="4"/><text fill="none" stroke="rgb(0,0,0)" font-family="Helvetica Neue, Helvetica, sans-serif" font-size="10px" font-style="normal" font-weight="bold" text-decoration="normal" x="1054" y="170.75" text-anchor="middle" dominant-baseline="text-after-edge" stroke-opacity="1" stroke-linejoin="round" stroke-miterlimit="10" stroke-width="4">EXPLOITED</text><text fill="rgb(255,255,255)" stroke="none" font-family="Helvetica Neue, Helvetica, sans-serif" font-size="10px" font-style="normal" font-weight="bold" text-decoration="normal" x="1054" y="170.75" text-anchor="middle" dominant-baseline="text-after-edge" fill-opacity="1">EXPLOITED</text><path fill="rgb(234,179,8)" stroke="rgb(255,102,102)" paint-order="fill stroke markers" d=" M 876 680.4166666666666 L 875.9460533403297 681.7897008419039 L 875.7845459604149 683.1542698048706 L 875.5164736069594 684.5019605341449 L 875.1434890351652 685.8244640682282 L 874.6678918189475 687.1136267330558 L 874.0926141732964 688.3615004121087 L 873.4212028761966 689.5603915491957 L 872.6577974015615 690.7029085817849 L 871.8071043980005 691.7820075124448 L 870.8743686707646 692.7910353374313 L 869.8653408457782 693.7237710646672 L 868.7862419151182 694.5744640682282 L 867.6437248825291 695.3378695428632 L 866.4448337454421 696.009280839963 L 865.1969600663891 696.5845584856141 L 863.9077974015615 697.0601557018318 L 862.5852938674783 697.433140273626 L 861.237603138204 697.7012126270815 L 859.8730341752373 697.8627200069964 L 858.5 697.9166666666666 L 857.1269658247627 697.8627200069964 L 855.762396861796 697.7012126270815 L 854.4147061325217 697.433140273626 L 853.0922025984385 697.0601557018318 L 851.8030399336109 696.5845584856141 L 850.5551662545579 696.009280839963 L 849.3562751174709 695.3378695428632 L 848.2137580848818 694.5744640682282 L 847.1346591542218 693.7237710646672 L 846.1256313292354 692.7910353374313 L 845.1928956019995 691.7820075124448 L 844.3422025984385 690.7029085817849 L 843.5787971238034 689.5603915491957 L 842.9073858267036 688.3615004121087 L 842.3321081810525 687.1136267330558 L 841.8565109648348 685.8244640682282 L 841.4835263930406 684.5019605341449 L 841.2154540395851 683.1542698048706 L 841.0539466596703 681.7897008419039 L 841 680.4166666666666 L 841.0539466596703 679.0436324914293 L 841.2154540395851 677.6790635284626 L 841.4835263930406 676.3313727991883 L 841.8565109648348 675.0088692651051 L 842.3321081810525 673.7197066002775 L 842.9073858267036 672.4718329212245 L 843.5787971238034 671.2729417841375 L 844.3422025984385 670.1304247515484 L 845.1928956019995 669.0513258208885 L 846.1256313292354 668.042297995902 L 847.1346591542218 667.1095622686661 L 848.2137580848818 666.2588692651051 L 849.3562751174709 665.49546379047 L 850.5551662545579 664.8240524933702 L 851.803039933611 664.2487748477191 L 853.0922025984385 663.7731776315014 L 854.4147061325217 663.4001930597072 L 855.762396861796 663.1321207062517 L 857.1269658247628 662.9706133263369 L 858.5000000000001 662.9166666666666 L 859.8730341752373 662.9706133263369 L 861.2376031382041 663.1321207062517 L 862.5852938674784 663.4001930597074 L 863.9077974015617 663.7731776315014 L 865.1969600663891 664.2487748477191 L 866.4448337454421 664.8240524933702 L 867.6437248825292 665.4954637904701 L 868.7862419151184 666.2588692651051 L 869.8653408457783 667.1095622686662 L 870.8743686707646 668.0422979959021 L 871.8071043980007 669.0513258208886 L 872.6577974015617 670.1304247515485 L 873.4212028761967 671.2729417841376 L 874.0926141732965 672.4718329212247 L 874.6678918189476 673.7197066002777 L 875.1434890351652 675.0088692651052 L 875.5164736069594 676.3313727991884 L 875.7845459604149 677.6790635284627 L 875.9460533403297 679.0436324914295 Z" fill-opacity="0.25" stroke-opacity="0.25" stroke-miterlimit="10" stroke-width="2" stroke-dasharray="4,2"/><text fill="none" stroke="rgb(0,0,0)" font-family="Helvetica Neue, Helvetica, sans-serif" font-size="10px" font-style="normal" font-weight="normal" text-decoration="normal" x="858.5" y="662.9166666666666" text-anchor="middle" dominant-baseline="text-after-edge" stroke-opacity="0.25" stroke-linejoin="round" stroke-miterlimit="10" stroke-width="4">CVE-2026-26960</text><text fill="rgb(255,255,255)" stroke="none" font-family="Helvetica Neue, Helvetica, sans-serif" font-size="10px" font-style="normal" font-weight="normal" text-decoration="normal" x="858.5" y="662.9166666666666" text-anchor="middle" dominant-baseline="text-after-edge" fill-opacity="0.25">CVE-2026-26960</text><g transform="scale(0.5,0.5) translate(64,-26)"/></g></g></svg>