<svg version="1.1" xmlns="http://www.w3.org/2000/svg" xmlns:xlink="http://www.w3.org/1999/xlink" width="2698" height="1834"><defs/><g><rect fill="#ffffff" stroke="none" x="0" y="0" width="2698" height="1834"/><g transform="translate(-64,-27) scale(2,2)"><path fill="rgb(100,100,100)" stroke="rgb(136,136,136)" paint-order="fill stroke markers" d=" M 139.5 279 L 237 279 L 237 279 A 8 8 0 0 1 245 287 L 245 527 L 245 527 A 8 8 0 0 1 237 535 L 42 535 L 42 535 A 8 8 0 0 1 34 527 L 34 287 L 34 287 A 8 8 0 0 1 42 279 L 139.5 279 Z" fill-opacity="1" stroke-opacity="1" stroke-miterlimit="10" stroke-width="2" stroke-dasharray="4,2"/><text fill="none" stroke="rgb(0,0,0)" font-family="Helvetica Neue, Helvetica, sans-serif" font-size="12px" font-style="normal" font-weight="normal" text-decoration="normal" x="139.5" y="279" text-anchor="middle" dominant-baseline="text-after-edge" stroke-opacity="1" stroke-linejoin="round" stroke-miterlimit="10" stroke-width="4">Initial State</text><text fill="rgb(204,204,204)" stroke="none" font-family="Helvetica Neue, Helvetica, sans-serif" font-size="12px" font-style="normal" font-weight="normal" text-decoration="normal" x="139.5" y="279" text-anchor="middle" dominant-baseline="text-after-edge" fill-opacity="1">Initial State</text><path fill="rgb(234,179,8)" stroke="rgb(234,179,8)" paint-order="fill stroke markers" d=" M 589.5 329.25 L 636.5 329.25 L 636.5 329.25 A 8 8 0 0 1 644.5 337.25 L 644.5 441.25 L 644.5 441.25 A 8 8 0 0 1 636.5 449.25 L 542.5 449.25 L 542.5 449.25 A 8 8 0 0 1 534.5 441.25 L 534.5 337.25 L 534.5 337.25 A 8 8 0 0 1 542.5 329.25 L 589.5 329.25 Z" fill-opacity="1" stroke-opacity="1" stroke-miterlimit="10" stroke-width="2" stroke-dasharray="4,2"/><text fill="none" stroke="rgb(0,0,0)" font-family="Helvetica Neue, Helvetica, sans-serif" font-size="10px" font-style="normal" font-weight="normal" text-decoration="normal" x="589.5" y="329.25" text-anchor="middle" dominant-baseline="text-after-edge" stroke-opacity="1" stroke-linejoin="round" stroke-miterlimit="10" stroke-width="2">→ AV:L, EX:Y, PR:H (×2)</text><text fill="rgb(234,179,8)" stroke="none" font-family="Helvetica Neue, Helvetica, sans-serif" font-size="10px" font-style="normal" font-weight="normal" text-decoration="normal" x="589.5" y="329.25" text-anchor="middle" dominant-baseline="text-after-edge" fill-opacity="1">→ AV:L, EX:Y, PR:H (×2)</text><path fill="rgb(234,179,8)" stroke="rgb(234,179,8)" paint-order="fill stroke markers" d=" M 958.5 376 L 1005.5 376 L 1005.5 376 A 8 8 0 0 1 1013.5 384 L 1013.5 578 L 1013.5 578 A 8 8 0 0 1 1005.5 586 L 911.5 586 L 911.5 586 A 8 8 0 0 1 903.5 578 L 903.5 384 L 903.5 384 A 8 8 0 0 1 911.5 376 L 958.5 376 Z" fill-opacity="1" stroke-opacity="1" stroke-miterlimit="10" stroke-width="2" stroke-dasharray="4,2"/><text fill="none" stroke="rgb(0,0,0)" font-family="Helvetica Neue, Helvetica, sans-serif" font-size="10px" font-style="normal" font-weight="normal" text-decoration="normal" x="958.5" y="376" text-anchor="middle" dominant-baseline="text-after-edge" stroke-opacity="1" stroke-linejoin="round" stroke-miterlimit="10" stroke-width="2">→ EX:Y, PR:H (×4)</text><text fill="rgb(234,179,8)" stroke="none" font-family="Helvetica Neue, Helvetica, sans-serif" font-size="10px" font-style="normal" font-weight="normal" text-decoration="normal" x="958.5" y="376" text-anchor="middle" dominant-baseline="text-after-edge" fill-opacity="1">→ EX:Y, PR:H (×4)</text><path fill="none" stroke="rgb(0,255,255)" paint-order="fill stroke markers" d=" M 784.3018726847437 703.9921982988078 L 944.0129915370793 893.7844086423015" stroke-opacity="0.7" stroke-linejoin="round" stroke-miterlimit="10" stroke-width="2"/><path fill="rgb(255,255,255)" stroke="none" paint-order="stroke fill markers" d=" M 937.6584687734475 892.9890845281915 L 946.5884597082652 896.8449582170035 L 944.3151640984242 887.3874412558621 Z" fill-opacity="1"/><path fill="rgb(0,255,255)" stroke="none" paint-order="stroke fill markers" d=" M 937.6584687734475 892.9890845281915 L 946.5884597082652 896.8449582170035 L 944.3151640984242 887.3874412558621 Z" fill-opacity="0.7"/><path fill="none" stroke="rgb(203,143,255)" paint-order="fill stroke markers" d=" M 602.5814754519511 735.4185245480489 L 758.4436508138959 579.5563491861041" stroke-opacity="0.9" stroke-linejoin="round" stroke-miterlimit="10" stroke-width="3" stroke-dasharray="6,3"/><path fill="rgb(255,255,255)" stroke="none" paint-order="stroke fill markers" d=" M 759.6103770028537 584.5414519934692 L 762.6862915010153 575.3137084989847 L 753.4585480065308 578.3896229971463 Z" fill-opacity="1"/><path fill="rgb(203,143,255)" stroke="none" paint-order="stroke fill markers" d=" M 759.6103770028537 584.5414519934692 L 762.6862915010153 575.3137084989847 L 753.4585480065308 578.3896229971463 Z" fill-opacity="0.9"/><path fill="none" stroke="rgb(255,0,102)" paint-order="fill stroke markers" d=" M 79.4447463715879 494.32597008284654 L 182.3918421738333 427.9084889201076" stroke-opacity="0.7" stroke-linejoin="round" stroke-miterlimit="10" stroke-width="2"/><path fill="rgb(255,255,255)" stroke="none" paint-order="stroke fill markers" d=" M 180.80069981090543 434.11177562804687 L 185.75302876673027 425.7399814408192 L 176.08419604345323 426.80119478849593 Z" fill-opacity="1"/><path fill="rgb(255,0,102)" stroke="none" paint-order="stroke fill markers" d=" M 180.80069981090543 434.11177562804687 L 185.75302876673027 425.7399814408192 L 176.08419604345323 426.80119478849593 Z" fill-opacity="0.7"/><path fill="none" stroke="rgb(255,0,102)" paint-order="fill stroke markers" d=" M 81.2273378841688 453.08795552123587 L 179.32801301158483 421.44257644787587" stroke-opacity="0.7" stroke-linejoin="round" stroke-miterlimit="10" stroke-width="2"/><path fill="rgb(255,255,255)" stroke="none" paint-order="stroke fill markers" d=" M 176.19044460077424 427.02542200077124 L 183.13484748262704 420.21456532818485 L 173.51952041544624 418.74555702625446 Z" fill-opacity="1"/><path fill="rgb(255,0,102)" stroke="none" paint-order="stroke fill markers" d=" M 176.19044460077424 427.02542200077124 L 183.13484748262704 420.21456532818485 L 173.51952041544624 418.74555702625446 Z" fill-opacity="0.7"/><path fill="none" stroke="rgb(255,102,0)" paint-order="fill stroke markers" d=" M 229 413 L 375 413" stroke-opacity="0.7" stroke-linejoin="round" stroke-miterlimit="10" stroke-width="2"/><path fill="rgb(255,255,255)" stroke="none" paint-order="stroke fill markers" d=" M 370.3 417.35 L 379 413 L 370.3 408.65 Z" fill-opacity="1"/><path fill="rgb(255,102,0)" stroke="none" paint-order="stroke fill markers" d=" M 370.3 417.35 L 379 413 L 370.3 408.65 Z" fill-opacity="0.7"/><path fill="none" stroke="rgb(255,153,119)" paint-order="fill stroke markers" d=" M 415.67389951112625 426.9760106652477 L 940.2137839036861 894.6946542238777" stroke-opacity="0.9" stroke-linejoin="round" stroke-miterlimit="10" stroke-width="3" stroke-dasharray="6,3"/><path fill="rgb(255,255,255)" stroke="none" paint-order="stroke fill markers" d=" M 935.3035374715971 896.144474894222 L 944.692040906865 898.6878001282341 L 941.0935990329141 889.6510022396125 Z" fill-opacity="1"/><path fill="rgb(255,153,119)" stroke="none" paint-order="stroke fill markers" d=" M 935.3035374715971 896.144474894222 L 944.692040906865 898.6878001282341 L 941.0935990329141 889.6510022396125 Z" fill-opacity="0.9"/><path fill="none" stroke="rgb(255,153,119)" paint-order="fill stroke markers" d=" M 410.32781437193364 431.2848639671965 L 577.4508832327441 727.1676587049374" stroke-opacity="0.9" stroke-linejoin="round" stroke-miterlimit="10" stroke-width="3" stroke-dasharray="6,3"/><path fill="rgb(255,255,255)" stroke="none" paint-order="stroke fill markers" d=" M 572.3354424202905 726.9560806004841 L 580.4016873390109 732.3919055527078 L 579.9106003495576 722.6774146463973 Z" fill-opacity="1"/><path fill="rgb(255,153,119)" stroke="none" paint-order="stroke fill markers" d=" M 572.3354424202905 726.9560806004841 L 580.4016873390109 732.3919055527078 L 579.9106003495576 722.6774146463973 Z" fill-opacity="0.9"/><path fill="none" stroke="rgb(203,143,255)" paint-order="fill stroke markers" d=" M 963.6678180626908 893.2364514673749 L 1145.5488240129446 268.049566564201" stroke-opacity="0.9" stroke-linejoin="round" stroke-miterlimit="10" stroke-width="3" stroke-dasharray="6,3"/><path fill="rgb(255,255,255)" stroke="none" paint-order="stroke fill markers" d=" M 1148.9714363020069 271.8572200566762 L 1147.2248731143577 262.288415688755 L 1140.6177675326103 269.42694885962703 Z" fill-opacity="1"/><path fill="rgb(203,143,255)" stroke="none" paint-order="stroke fill markers" d=" M 1148.9714363020069 271.8572200566762 L 1147.2248731143577 262.288415688755 L 1140.6177675326103 269.42694885962703 Z" fill-opacity="0.9"/><path fill="none" stroke="rgb(255,0,102)" paint-order="fill stroke markers" d=" M 81.2273378841688 372.91204447876413 L 179.32801301158483 404.55742355212413" stroke-opacity="0.7" stroke-linejoin="round" stroke-miterlimit="10" stroke-width="2"/><path fill="rgb(255,255,255)" stroke="none" paint-order="stroke fill markers" d=" M 173.51952041544624 407.25444297374554 L 183.13484748262704 405.78543467181515 L 176.19044460077424 398.97457799922876 Z" fill-opacity="1"/><path fill="rgb(255,0,102)" stroke="none" paint-order="stroke fill markers" d=" M 173.51952041544624 407.25444297374554 L 183.13484748262704 405.78543467181515 L 176.19044460077424 398.97457799922876 Z" fill-opacity="0.7"/><path fill="none" stroke="rgb(255,0,102)" paint-order="fill stroke markers" d=" M 79.4447463715879 331.67402991715346 L 182.3918421738333 398.0915110798924" stroke-opacity="0.7" stroke-linejoin="round" stroke-miterlimit="10" stroke-width="2"/><path fill="rgb(255,255,255)" stroke="none" paint-order="stroke fill markers" d=" M 176.08419604345323 399.19880521150407 L 185.75302876673027 400.2600185591808 L 180.80069981090543 391.88822437195313 Z" fill-opacity="1"/><path fill="rgb(255,0,102)" stroke="none" paint-order="stroke fill markers" d=" M 176.08419604345323 399.19880521150407 L 185.75302876673027 400.2600185591808 L 180.80069981090543 391.88822437195313 Z" fill-opacity="0.7"/><path fill="none" stroke="rgb(203,143,255)" paint-order="fill stroke markers" d=" M 607.182429633775 743.0610954920503 L 752.9722458409162 698.2178864418861" stroke-opacity="0.9" stroke-linejoin="round" stroke-miterlimit="10" stroke-width="3" stroke-dasharray="6,3"/><path fill="rgb(255,255,255)" stroke="none" paint-order="stroke fill markers" d=" M 751.6704444678562 703.1694329866638 L 758.7070878843027 696.4539174122808 L 749.1126893749284 694.8539120237533 Z" fill-opacity="1"/><path fill="rgb(203,143,255)" stroke="none" paint-order="stroke fill markers" d=" M 751.6704444678562 703.1694329866638 L 758.7070878843027 696.4539174122808 L 749.1126893749284 694.8539120237533 Z" fill-opacity="0.9"/><path fill="none" stroke="rgb(0,255,136)" paint-order="fill stroke markers" d=" M 1167.6587454449561 228.4982287380762 L 1291.73828140757 133.09745344606637" stroke-opacity="0.7" stroke-linejoin="round" stroke-miterlimit="10" stroke-width="2"/><path fill="rgb(255,255,255)" stroke="none" paint-order="stroke fill markers" d=" M 1290.6637510173955 139.4107635477952 L 1294.9093333333333 130.65933333333334 L 1285.3608397722012 132.5137256092602 Z" fill-opacity="1"/><path fill="rgb(0,255,136)" stroke="none" paint-order="stroke fill markers" d=" M 1290.6637510173955 139.4107635477952 L 1294.9093333333333 130.65933333333334 L 1285.3608397722012 132.5137256092602 Z" fill-opacity="0.7"/><path fill="none" stroke="rgb(0,255,136)" paint-order="fill stroke markers" d=" M 1171.2925913356203 60.37897108162254 L 1286.3901403820735 106.16463131551038" stroke-opacity="0.25" stroke-linejoin="round" stroke-miterlimit="10" stroke-width="2"/><path fill="rgb(255,255,255)" stroke="none" paint-order="stroke fill markers" d=" M 1280.4151164929267 108.4693199114219 L 1290.1068616422947 107.64313835770528 L 1283.6308693097005 100.38545117044085 Z" fill-opacity="1"/><path fill="rgb(0,255,136)" stroke="none" paint-order="stroke fill markers" d=" M 1280.4151164929267 108.4693199114219 L 1290.1068616422947 107.64313835770528 L 1283.6308693097005 100.38545117044085 Z" fill-opacity="0.25"/><path fill="none" stroke="rgb(0,255,255)" paint-order="fill stroke markers" d=" M 645.5 355.94264836138177 L 1134.3368438761736 65.19513670252388" stroke-opacity="0.7" stroke-linejoin="round" stroke-miterlimit="10" stroke-width="2"/><path fill="rgb(255,255,255)" stroke="none" paint-order="stroke fill markers" d=" M 1132.5210176960145 71.33641305874242 L 1137.7747162513078 63.15037912953659 L 1128.0736699747672 63.85904064282544 Z" fill-opacity="1"/><path fill="rgb(0,255,255)" stroke="none" paint-order="stroke fill markers" d=" M 1132.5210176960145 71.33641305874242 L 1137.7747162513078 63.15037912953659 L 1128.0736699747672 63.85904064282544 Z" fill-opacity="0.7"/><path fill="none" stroke="rgb(0,255,255)" paint-order="fill stroke markers" d=" M 626.7049586776859 450.25 L 763.5858444254964 674.6753004808274" stroke-opacity="0.7" stroke-linejoin="round" stroke-miterlimit="10" stroke-width="2"/><path fill="rgb(255,255,255)" stroke="none" paint-order="stroke fill markers" d=" M 757.424770720068 672.9278249312764 L 765.6686755403971 678.0902403846619 L 764.852265010908 668.3976672563673 Z" fill-opacity="1"/><path fill="rgb(0,255,255)" stroke="none" paint-order="stroke fill markers" d=" M 757.424770720068 672.9278249312764 L 765.6686755403971 678.0902403846619 L 764.852265010908 668.3976672563673 Z" fill-opacity="0.7"/><path fill="none" stroke="rgb(0,255,255)" paint-order="fill stroke markers" d=" M 645.5 442.290650406504 L 759.4793953437318 550.2467443702825" stroke-opacity="0.7" stroke-linejoin="round" stroke-miterlimit="10" stroke-width="2"/><path fill="rgb(255,255,255)" stroke="none" paint-order="stroke fill markers" d=" M 753.0757201500451 550.1729608100372 L 762.3835162749854 552.997395496226 L 759.0583863489722 543.8564977845605 Z" fill-opacity="1"/><path fill="rgb(0,255,255)" stroke="none" paint-order="stroke fill markers" d=" M 753.0757201500451 550.1729608100372 L 762.3835162749854 552.997395496226 L 759.0583863489722 543.8564977845605 Z" fill-opacity="0.7"/><path fill="none" stroke="rgb(0,255,255)" paint-order="fill stroke markers" d=" M 420.8369884836925 410.38850408185914 L 529.53104981263 396.76589745092366" stroke-opacity="0.7" stroke-linejoin="round" stroke-miterlimit="10" stroke-width="2"/><path fill="rgb(255,255,255)" stroke="none" paint-order="stroke fill markers" d=" M 525.4084860683708 401.6666084375582 L 533.5 396.26846965699207 L 524.3265806165697 393.0341417800284 Z" fill-opacity="1"/><path fill="rgb(0,255,255)" stroke="none" paint-order="stroke fill markers" d=" M 525.4084860683708 401.6666084375582 L 533.5 396.26846965699207 L 524.3265806165697 393.0341417800284 Z" fill-opacity="0.7"/><path fill="none" stroke="rgb(0,255,255)" paint-order="fill stroke markers" d=" M 1014.5 411.6803069053708 L 1134.9739849746452 262.5513843280606" stroke-opacity="0.7" stroke-linejoin="round" stroke-miterlimit="10" stroke-width="2"/><path fill="rgb(255,255,255)" stroke="none" paint-order="stroke fill markers" d=" M 1135.4042301718555 268.94101570007865 L 1137.4876326714586 259.4398613478619 L 1128.6366676899233 263.4738319595095 Z" fill-opacity="1"/><path fill="rgb(0,255,255)" stroke="none" paint-order="stroke fill markers" d=" M 1135.4042301718555 268.94101570007865 L 1137.4876326714586 259.4398613478619 L 1128.6366676899233 263.4738319595095 Z" fill-opacity="0.7"/><path fill="none" stroke="rgb(0,255,255)" paint-order="fill stroke markers" d=" M 420.8460553086675 415.5381052121565 L 898.5293227983491 473.69828818314727" stroke-opacity="0.7" stroke-linejoin="round" stroke-miterlimit="10" stroke-width="2"/><path fill="rgb(255,255,255)" stroke="none" paint-order="stroke fill markers" d=" M 893.3380267210339 477.44834752103145 L 902.5 474.1817367949866 L 894.3895274517845 468.81212460744064 Z" fill-opacity="1"/><path fill="rgb(0,255,255)" stroke="none" paint-order="stroke fill markers" d=" M 893.3380267210339 477.44834752103145 L 902.5 474.1817367949866 L 894.3895274517845 468.81212460744064 Z" fill-opacity="0.7"/><path fill="none" stroke="rgb(0,255,255)" paint-order="fill stroke markers" d=" M 784.5391064462419 679.7114271894554 L 899.8652233884395 547.977122877433" stroke-opacity="0.7" stroke-linejoin="round" stroke-miterlimit="10" stroke-width="2"/><path fill="rgb(255,255,255)" stroke="none" paint-order="stroke fill markers" d=" M 900.0423478527227 554.3787732056024 L 902.5 544.9674796747968 L 893.4963738869892 548.6481340754584 Z" fill-opacity="1"/><path fill="rgb(0,255,255)" stroke="none" paint-order="stroke fill markers" d=" M 900.0423478527227 554.3787732056024 L 902.5 544.9674796747968 L 893.4963738869892 548.6481340754584 Z" fill-opacity="0.7"/><path fill="none" stroke="rgb(0,255,255)" paint-order="fill stroke markers" d=" M 788.5914838858994 557.4358094171835 L 898.8521290285252 507.8334595698234" stroke-opacity="0.7" stroke-linejoin="round" stroke-miterlimit="10" stroke-width="2"/><path fill="rgb(255,255,255)" stroke="none" paint-order="stroke fill markers" d=" M 896.3505199517455 513.7287502350047 L 902.5 506.19241192411926 L 892.7812413223389 505.79463087204687 Z" fill-opacity="1"/><path fill="rgb(0,255,255)" stroke="none" paint-order="stroke fill markers" d=" M 896.3505199517455 513.7287502350047 L 902.5 506.19241192411926 L 892.7812413223389 505.79463087204687 Z" fill-opacity="0.7"/><path fill="rgb(239,68,68)" stroke="rgb(0,0,0)" paint-order="fill stroke markers" d=" M 420 413 L 419.93834667466257 414.5691819145569 L 419.7537668119028 416.12868930080464 L 419.44739840795353 417.6689072771181 L 419.0211303259031 419.180339887499 L 418.47759065022575 420.6536686473018 L 417.82013048376734 422.07980999479093 L 417.0528032870818 423.44997129431897 L 416.180339887499 424.7557050458495 L 415.20811931200063 425.98896096660366 L 414.14213562373095 427.14213562373095 L 412.98896096660366 428.20811931200063 L 411.7557050458495 429.180339887499 L 410.44997129431897 430.0528032870818 L 409.07980999479093 430.82013048376734 L 407.6536686473018 431.47759065022575 L 406.180339887499 432.0211303259031 L 404.66890727711814 432.44739840795353 L 403.12868930080464 432.7537668119028 L 401.5691819145569 432.93834667466257 L 400 433 L 398.4308180854431 432.93834667466257 L 396.87131069919536 432.7537668119028 L 395.3310927228819 432.44739840795353 L 393.819660112501 432.0211303259031 L 392.3463313526982 431.47759065022575 L 390.92019000520907 430.82013048376734 L 389.55002870568103 430.0528032870819 L 388.2442949541505 429.180339887499 L 387.01103903339634 428.20811931200063 L 385.85786437626905 427.14213562373095 L 384.79188068799937 425.98896096660366 L 383.8196601125011 424.7557050458495 L 382.9471967129182 423.44997129431897 L 382.17986951623266 422.07980999479093 L 381.52240934977425 420.6536686473018 L 380.9788696740969 419.180339887499 L 380.55260159204647 417.66890727711814 L 380.2462331880972 416.12868930080464 L 380.06165332533743 414.5691819145569 L 380 413 L 380.06165332533743 411.4308180854431 L 380.2462331880972 409.87131069919536 L 380.55260159204647 408.3310927228819 L 380.9788696740969 406.8196601125011 L 381.52240934977425 405.3463313526982 L 382.17986951623266 403.92019000520907 L 382.9471967129181 402.55002870568103 L 383.819660112501 401.2442949541505 L 384.79188068799937 400.01103903339634 L 385.85786437626905 398.85786437626905 L 387.01103903339634 397.79188068799937 L 388.2442949541505 396.8196601125011 L 389.55002870568103 395.9471967129181 L 390.92019000520907 395.17986951623266 L 392.3463313526982 394.52240934977425 L 393.8196601125011 393.9788696740969 L 395.3310927228819 393.55260159204647 L 396.8713106991954 393.2462331880972 L 398.43081808544315 393.06165332533743 L 400.00000000000006 393 L 401.56918191455696 393.06165332533743 L 403.1286893008047 393.2462331880973 L 404.6689072771182 393.55260159204647 L 406.18033988749903 393.978869674097 L 407.6536686473019 394.5224093497743 L 409.07980999479105 395.1798695162327 L 410.4499712943191 395.94719671291824 L 411.7557050458496 396.81966011250114 L 412.98896096660377 397.7918806879995 L 414.14213562373106 398.85786437626916 L 415.20811931200075 400.01103903339646 L 416.18033988749903 401.2442949541507 L 417.05280328708193 402.5500287056812 L 417.82013048376746 403.92019000520924 L 418.4775906502258 405.34633135269837 L 419.02113032590313 406.81966011250125 L 419.4473984079536 408.3310927228821 L 419.7537668119028 409.8713106991956 L 419.93834667466257 411.4308180854433 Z" fill-opacity="1" stroke-opacity="1" stroke-miterlimit="10" stroke-width="2"/><text fill="none" stroke="rgb(0,0,0)" font-family="Helvetica Neue, Helvetica, sans-serif" font-size="10px" font-style="normal" font-weight="normal" text-decoration="normal" x="400" y="393" text-anchor="middle" dominant-baseline="text-after-edge" stroke-opacity="1" stroke-linejoin="round" stroke-miterlimit="10" stroke-width="4">host_node_3b2819dd</text><text fill="rgb(255,255,255)" stroke="none" font-family="Helvetica Neue, Helvetica, sans-serif" font-size="10px" font-style="normal" font-weight="normal" text-decoration="normal" x="400" y="393" text-anchor="middle" dominant-baseline="text-after-edge" fill-opacity="1">host_node_3b2819dd</text><path fill="rgb(255,0,102)" stroke="rgb(0,0,0)" paint-order="fill stroke markers" d=" M 228 413 L 227.93064000899537 414.7653296538765 L 227.7229876633906 416.5197754634052 L 227.37832320894773 418.25252068675786 L 226.89877161664094 419.9528823734363 L 226.28728948150396 421.61037722821453 L 225.5476467942383 423.2147862441398 L 224.68440369796707 424.7562177061088 L 223.70288237343632 426.22516817658067 L 222.6091342260007 427.61258108742913 L 221.40990257669733 428.90990257669733 L 220.11258108742913 430.1091342260007 L 218.72516817658064 431.2028823734363 L 217.25621770610886 432.18440369796707 L 215.71478624413982 433.0476467942383 L 214.11037722821453 433.78728948150393 L 212.45288237343632 434.39877161664094 L 210.75252068675786 434.87832320894773 L 209.01977546340518 435.2229876633906 L 207.2653296538765 435.4306400089954 L 205.5 435.5 L 203.7346703461235 435.4306400089954 L 201.98022453659482 435.2229876633906 L 200.24747931324214 434.87832320894773 L 198.54711762656368 434.39877161664094 L 196.88962277178547 433.78728948150393 L 195.2852137558602 433.0476467942383 L 193.74378229389114 432.18440369796707 L 192.27483182341936 431.2028823734363 L 190.88741891257087 430.1091342260007 L 189.5900974233027 428.90990257669733 L 188.3908657739993 427.61258108742913 L 187.29711762656368 426.22516817658067 L 186.31559630203293 424.7562177061088 L 185.4523532057617 423.2147862441398 L 184.71271051849604 421.61037722821453 L 184.10122838335906 419.9528823734363 L 183.62167679105227 418.25252068675786 L 183.2770123366094 416.5197754634052 L 183.06935999100463 414.7653296538765 L 183 413 L 183.06935999100463 411.2346703461235 L 183.2770123366094 409.4802245365948 L 183.62167679105227 407.74747931324214 L 184.10122838335906 406.0471176265637 L 184.71271051849604 404.38962277178547 L 185.4523532057617 402.7852137558602 L 186.31559630203293 401.2437822938912 L 187.29711762656368 399.77483182341933 L 188.3908657739993 398.38741891257087 L 189.59009742330267 397.09009742330267 L 190.88741891257087 395.89086577399934 L 192.27483182341936 394.7971176265637 L 193.74378229389114 393.81559630203293 L 195.2852137558602 392.9523532057617 L 196.8896227717855 392.212710518496 L 198.5471176265637 391.60122838335906 L 200.24747931324217 391.12167679105227 L 201.98022453659485 390.7770123366094 L 203.73467034612355 390.5693599910046 L 205.50000000000009 390.5 L 207.2653296538766 390.5693599910046 L 209.0197754634053 390.7770123366094 L 210.75252068675798 391.1216767910523 L 212.45288237343644 391.60122838335906 L 214.11037722821465 392.2127105184961 L 215.71478624413993 392.95235320576177 L 217.25621770610897 393.815596302033 L 218.72516817658078 394.79711762656376 L 220.11258108742925 395.8908657739994 L 221.40990257669745 397.0900974233028 L 222.6091342260008 398.387418912571 L 223.70288237343644 399.7748318234195 L 224.68440369796718 401.24378229389134 L 225.54764679423837 402.7852137558604 L 226.28728948150405 404.3896227717857 L 226.89877161664103 406.04711762656393 L 227.3783232089478 407.74747931324237 L 227.72298766339065 409.4802245365951 L 227.9306400089954 411.2346703461238 Z" fill-opacity="1" stroke-opacity="1" stroke-miterlimit="10" stroke-width="2"/><text fill="none" stroke="rgb(0,0,0)" font-family="Helvetica Neue, Helvetica, sans-serif" font-size="10px" font-style="normal" font-weight="normal" text-decoration="normal" x="205.5" y="390.5" text-anchor="middle" dominant-baseline="text-after-edge" stroke-opacity="1" stroke-linejoin="round" stroke-miterlimit="10" stroke-width="4">Hacker</text><text fill="rgb(255,255,255)" stroke="none" font-family="Helvetica Neue, Helvetica, sans-serif" font-size="10px" font-style="normal" font-weight="normal" text-decoration="normal" x="205.5" y="390.5" text-anchor="middle" dominant-baseline="text-after-edge" fill-opacity="1">Hacker</text><path fill="rgb(99,102,241)" stroke="rgb(255,0,102)" paint-order="fill stroke markers" d=" M 81 458 L 80.95376000599691 459.17688643591765 L 80.81532510892707 460.34651697560344 L 80.58554880596515 461.5016804578386 L 80.2658477444273 462.6352549156242 L 79.8581929876693 463.74025148547634 L 79.36509786282552 464.8098574960932 L 78.78960246531139 465.83747847073926 L 78.13525491562422 466.8167787843871 L 77.40608948400046 467.74172072495276 L 76.60660171779821 468.6066017177982 L 75.74172072495276 469.40608948400046 L 74.8167787843871 470.1352549156242 L 73.83747847073923 470.78960246531136 L 72.8098574960932 471.3650978628255 L 71.74025148547635 471.8581929876693 L 70.63525491562422 472.2658477444273 L 69.50168045783859 472.5855488059652 L 68.34651697560346 472.8153251089271 L 67.17688643591768 472.9537600059969 L 66 473 L 64.82311356408232 472.9537600059969 L 63.653483024396536 472.8153251089271 L 62.49831954216142 472.5855488059652 L 61.36474508437579 472.26584774442733 L 60.25974851452365 471.8581929876693 L 59.1901425039068 471.3650978628255 L 58.16252152926077 470.78960246531136 L 57.1832212156129 470.1352549156242 L 56.258279275047244 469.40608948400046 L 55.39339828220179 468.6066017177982 L 54.59391051599954 467.74172072495276 L 53.86474508437579 466.8167787843871 L 53.21039753468862 465.83747847073926 L 52.634902137174485 464.80985749609323 L 52.1418070123307 463.74025148547634 L 51.734152255572695 462.6352549156242 L 51.414451194034854 461.5016804578386 L 51.18467489107294 460.3465169756035 L 51.04623999400308 459.17688643591765 L 51 458 L 51.04623999400308 456.82311356408235 L 51.18467489107293 455.65348302439656 L 51.414451194034854 454.4983195421614 L 51.734152255572695 453.3647450843758 L 52.141807012330695 452.25974851452366 L 52.63490213717448 451.1901425039068 L 53.21039753468862 450.16252152926074 L 53.864745084375784 449.1832212156129 L 54.59391051599953 448.25827927504724 L 55.39339828220179 447.3933982822018 L 56.25827927504724 446.59391051599954 L 57.1832212156129 445.8647450843758 L 58.16252152926077 445.21039753468864 L 59.190142503906806 444.6349021371745 L 60.25974851452367 444.1418070123307 L 61.36474508437581 443.73415225557267 L 62.49831954216145 443.4144511940348 L 63.65348302439657 443.1846748910729 L 64.82311356408238 443.0462399940031 L 66.00000000000006 443 L 67.17688643591774 443.0462399940031 L 68.34651697560352 443.1846748910729 L 69.50168045783865 443.4144511940349 L 70.63525491562429 443.7341522555727 L 71.74025148547642 444.14180701233073 L 72.80985749609329 444.63490213717455 L 73.83747847073931 445.2103975346887 L 74.81677878438718 445.86474508437584 L 75.74172072495284 446.5939105159996 L 76.6066017177983 447.3933982822019 L 77.40608948400055 448.25827927504736 L 78.13525491562429 449.183221215613 L 78.78960246531145 450.16252152926086 L 79.36509786282558 451.19014250390694 L 79.85819298766936 452.2597485145238 L 80.26584774442735 453.36474508437595 L 80.58554880596519 454.4983195421616 L 80.8153251089271 455.6534830243967 L 80.95376000599694 456.8231135640825 Z" fill-opacity="1" stroke-opacity="1" stroke-miterlimit="10" stroke-width="2"/><text fill="none" stroke="rgb(0,0,0)" font-family="Helvetica Neue, Helvetica, sans-serif" font-size="10px" font-style="normal" font-weight="normal" text-decoration="normal" x="66" y="443" text-anchor="middle" dominant-baseline="text-after-edge" stroke-opacity="1" stroke-linejoin="round" stroke-miterlimit="10" stroke-width="4">AV:N</text><text fill="rgb(255,255,255)" stroke="none" font-family="Helvetica Neue, Helvetica, sans-serif" font-size="10px" font-style="normal" font-weight="normal" text-decoration="normal" x="66" y="443" text-anchor="middle" dominant-baseline="text-after-edge" fill-opacity="1">AV:N</text><path fill="rgb(99,102,241)" stroke="rgb(255,0,102)" paint-order="fill stroke markers" d=" M 81 503 L 80.95376000599691 504.17688643591765 L 80.81532510892707 505.34651697560344 L 80.58554880596515 506.5016804578386 L 80.2658477444273 507.6352549156242 L 79.8581929876693 508.74025148547634 L 79.36509786282552 509.8098574960932 L 78.78960246531139 510.83747847073926 L 78.13525491562422 511.8167787843871 L 77.40608948400046 512.7417207249528 L 76.60660171779821 513.6066017177982 L 75.74172072495276 514.4060894840005 L 74.8167787843871 515.1352549156242 L 73.83747847073923 515.7896024653114 L 72.8098574960932 516.3650978628256 L 71.74025148547635 516.8581929876693 L 70.63525491562422 517.2658477444273 L 69.50168045783859 517.5855488059651 L 68.34651697560346 517.815325108927 L 67.17688643591768 517.953760005997 L 66 518 L 64.82311356408232 517.953760005997 L 63.653483024396536 517.815325108927 L 62.49831954216142 517.5855488059651 L 61.36474508437579 517.2658477444273 L 60.25974851452365 516.8581929876693 L 59.1901425039068 516.3650978628256 L 58.16252152926077 515.7896024653114 L 57.1832212156129 515.1352549156242 L 56.258279275047244 514.4060894840005 L 55.39339828220179 513.6066017177982 L 54.59391051599954 512.7417207249528 L 53.86474508437579 511.8167787843871 L 53.21039753468862 510.83747847073926 L 52.634902137174485 509.80985749609323 L 52.1418070123307 508.74025148547634 L 51.734152255572695 507.6352549156242 L 51.414451194034854 506.5016804578386 L 51.18467489107294 505.3465169756035 L 51.04623999400308 504.17688643591765 L 51 503 L 51.04623999400308 501.82311356408235 L 51.18467489107293 500.65348302439656 L 51.414451194034854 499.4983195421614 L 51.734152255572695 498.3647450843758 L 52.141807012330695 497.25974851452366 L 52.63490213717448 496.1901425039068 L 53.21039753468862 495.16252152926074 L 53.864745084375784 494.1832212156129 L 54.59391051599953 493.25827927504724 L 55.39339828220179 492.3933982822018 L 56.25827927504724 491.59391051599954 L 57.1832212156129 490.8647450843758 L 58.16252152926077 490.21039753468864 L 59.190142503906806 489.6349021371745 L 60.25974851452367 489.1418070123307 L 61.36474508437581 488.73415225557267 L 62.49831954216145 488.4144511940348 L 63.65348302439657 488.1846748910729 L 64.82311356408238 488.0462399940031 L 66.00000000000006 488 L 67.17688643591774 488.0462399940031 L 68.34651697560352 488.1846748910729 L 69.50168045783865 488.4144511940349 L 70.63525491562429 488.7341522555727 L 71.74025148547642 489.14180701233073 L 72.80985749609329 489.63490213717455 L 73.83747847073931 490.2103975346887 L 74.81677878438718 490.86474508437584 L 75.74172072495284 491.5939105159996 L 76.6066017177983 492.3933982822019 L 77.40608948400055 493.25827927504736 L 78.13525491562429 494.183221215613 L 78.78960246531145 495.16252152926086 L 79.36509786282558 496.19014250390694 L 79.85819298766936 497.2597485145238 L 80.26584774442735 498.36474508437595 L 80.58554880596519 499.4983195421616 L 80.8153251089271 500.6534830243967 L 80.95376000599694 501.8231135640825 Z" fill-opacity="1" stroke-opacity="1" stroke-miterlimit="10" stroke-width="2"/><text fill="none" stroke="rgb(0,0,0)" font-family="Helvetica Neue, Helvetica, sans-serif" font-size="10px" font-style="normal" font-weight="normal" text-decoration="normal" x="66" y="488" text-anchor="middle" dominant-baseline="text-after-edge" stroke-opacity="1" stroke-linejoin="round" stroke-miterlimit="10" stroke-width="4">PR:N</text><text fill="rgb(255,255,255)" stroke="none" font-family="Helvetica Neue, Helvetica, sans-serif" font-size="10px" font-style="normal" font-weight="normal" text-decoration="normal" x="66" y="488" text-anchor="middle" dominant-baseline="text-after-edge" fill-opacity="1">PR:N</text><path fill="rgb(234,179,8)" stroke="rgb(0,0,0)" paint-order="fill stroke markers" d=" M 607 748.5 L 606.9460533403297 749.8730341752373 L 606.7845459604149 751.237603138204 L 606.5164736069594 752.5852938674783 L 606.1434890351652 753.9077974015615 L 605.6678918189475 755.1969600663891 L 605.0926141732964 756.4448337454421 L 604.4212028761966 757.6437248825291 L 603.6577974015615 758.7862419151182 L 602.8071043980005 759.8653408457782 L 601.8743686707646 760.8743686707646 L 600.8653408457782 761.8071043980005 L 599.7862419151182 762.6577974015615 L 598.6437248825291 763.4212028761966 L 597.4448337454421 764.0926141732964 L 596.1969600663891 764.6678918189475 L 594.9077974015615 765.1434890351652 L 593.5852938674783 765.5164736069594 L 592.237603138204 765.7845459604149 L 590.8730341752373 765.9460533403297 L 589.5 766 L 588.1269658247627 765.9460533403297 L 586.762396861796 765.7845459604149 L 585.4147061325217 765.5164736069594 L 584.0922025984385 765.1434890351652 L 582.8030399336109 764.6678918189475 L 581.5551662545579 764.0926141732964 L 580.3562751174709 763.4212028761966 L 579.2137580848818 762.6577974015615 L 578.1346591542218 761.8071043980005 L 577.1256313292354 760.8743686707646 L 576.1928956019995 759.8653408457782 L 575.3422025984385 758.7862419151182 L 574.5787971238034 757.6437248825291 L 573.9073858267036 756.4448337454421 L 573.3321081810525 755.1969600663891 L 572.8565109648348 753.9077974015615 L 572.4835263930406 752.5852938674783 L 572.2154540395851 751.237603138204 L 572.0539466596703 749.8730341752373 L 572 748.5 L 572.0539466596703 747.1269658247627 L 572.2154540395851 745.762396861796 L 572.4835263930406 744.4147061325217 L 572.8565109648348 743.0922025984385 L 573.3321081810525 741.8030399336109 L 573.9073858267036 740.5551662545579 L 574.5787971238034 739.3562751174709 L 575.3422025984385 738.2137580848818 L 576.1928956019995 737.1346591542218 L 577.1256313292354 736.1256313292354 L 578.1346591542218 735.1928956019995 L 579.2137580848818 734.3422025984385 L 580.3562751174709 733.5787971238034 L 581.5551662545579 732.9073858267036 L 582.803039933611 732.3321081810525 L 584.0922025984385 731.8565109648348 L 585.4147061325217 731.4835263930406 L 586.762396861796 731.2154540395851 L 588.1269658247628 731.0539466596703 L 589.5000000000001 731 L 590.8730341752373 731.0539466596703 L 592.2376031382041 731.2154540395851 L 593.5852938674784 731.4835263930406 L 594.9077974015617 731.8565109648348 L 596.1969600663891 732.3321081810525 L 597.4448337454421 732.9073858267036 L 598.6437248825292 733.5787971238035 L 599.7862419151184 734.3422025984385 L 600.8653408457783 735.1928956019996 L 601.8743686707646 736.1256313292355 L 602.8071043980007 737.1346591542219 L 603.6577974015617 738.2137580848819 L 604.4212028761967 739.356275117471 L 605.0926141732965 740.5551662545581 L 605.6678918189476 741.8030399336111 L 606.1434890351652 743.0922025984386 L 606.5164736069594 744.4147061325218 L 606.7845459604149 745.7623968617961 L 606.9460533403297 747.1269658247629 Z" fill-opacity="1" stroke-opacity="1" stroke-miterlimit="10" stroke-width="2"/><text fill="none" stroke="rgb(0,0,0)" font-family="Helvetica Neue, Helvetica, sans-serif" font-size="10px" font-style="normal" font-weight="normal" text-decoration="normal" x="589.5" y="731" text-anchor="middle" dominant-baseline="text-after-edge" stroke-opacity="1" stroke-linejoin="round" stroke-miterlimit="10" stroke-width="4">CVE-2026-24001</text><text fill="rgb(255,255,255)" stroke="none" font-family="Helvetica Neue, Helvetica, sans-serif" font-size="10px" font-style="normal" font-weight="normal" text-decoration="normal" x="589.5" y="731" text-anchor="middle" dominant-baseline="text-after-edge" fill-opacity="1">CVE-2026-24001</text><path fill="rgb(99,102,241)" stroke="rgb(0,0,0)" paint-order="fill stroke markers" d=" M 789 564 L 788.953760005997 565.1768864359177 L 788.815325108927 566.3465169756034 L 788.5855488059651 567.5016804578386 L 788.2658477444273 568.6352549156242 L 787.8581929876693 569.7402514854764 L 787.3650978628256 570.8098574960932 L 786.7896024653114 571.8374784707393 L 786.1352549156242 572.8167787843871 L 785.4060894840005 573.7417207249528 L 784.6066017177982 574.6066017177982 L 783.7417207249528 575.4060894840005 L 782.8167787843871 576.1352549156242 L 781.8374784707393 576.7896024653114 L 780.8098574960932 577.3650978628256 L 779.7402514854764 577.8581929876693 L 778.6352549156242 578.2658477444273 L 777.5016804578386 578.5855488059651 L 776.3465169756034 578.815325108927 L 775.1768864359177 578.953760005997 L 774 579 L 772.8231135640823 578.953760005997 L 771.6534830243966 578.815325108927 L 770.4983195421614 578.5855488059651 L 769.3647450843758 578.2658477444273 L 768.2597485145236 577.8581929876693 L 767.1901425039068 577.3650978628256 L 766.1625215292607 576.7896024653114 L 765.1832212156129 576.1352549156242 L 764.2582792750472 575.4060894840005 L 763.3933982822018 574.6066017177982 L 762.5939105159995 573.7417207249528 L 761.8647450843758 572.8167787843871 L 761.2103975346886 571.8374784707393 L 760.6349021371744 570.8098574960932 L 760.1418070123307 569.7402514854764 L 759.7341522555727 568.6352549156242 L 759.4144511940349 567.5016804578386 L 759.184674891073 566.3465169756034 L 759.046239994003 565.1768864359177 L 759 564 L 759.046239994003 562.8231135640823 L 759.184674891073 561.6534830243966 L 759.4144511940349 560.4983195421614 L 759.7341522555727 559.3647450843758 L 760.1418070123307 558.2597485145236 L 760.6349021371744 557.1901425039068 L 761.2103975346886 556.1625215292607 L 761.8647450843758 555.1832212156129 L 762.5939105159995 554.2582792750472 L 763.3933982822018 553.3933982822018 L 764.2582792750472 552.5939105159996 L 765.1832212156129 551.8647450843758 L 766.1625215292607 551.2103975346886 L 767.1901425039068 550.6349021371744 L 768.2597485145237 550.1418070123307 L 769.3647450843758 549.7341522555727 L 770.4983195421614 549.4144511940349 L 771.6534830243966 549.184674891073 L 772.8231135640824 549.046239994003 L 774 549 L 775.1768864359177 549.046239994003 L 776.3465169756035 549.184674891073 L 777.5016804578387 549.4144511940349 L 778.6352549156243 549.7341522555727 L 779.7402514854764 550.1418070123307 L 780.8098574960933 550.6349021371745 L 781.8374784707394 551.2103975346887 L 782.8167787843872 551.8647450843758 L 783.7417207249529 552.5939105159996 L 784.6066017177983 553.3933982822018 L 785.4060894840005 554.2582792750474 L 786.1352549156243 555.183221215613 L 786.7896024653114 556.1625215292609 L 787.3650978628256 557.1901425039069 L 787.8581929876693 558.2597485145238 L 788.2658477444273 559.364745084376 L 788.5855488059652 560.4983195421615 L 788.8153251089271 561.6534830243967 L 788.953760005997 562.8231135640825 Z" fill-opacity="1" stroke-opacity="1" stroke-miterlimit="10" stroke-width="2"/><text fill="none" stroke="rgb(0,0,0)" font-family="Helvetica Neue, Helvetica, sans-serif" font-size="10px" font-style="normal" font-weight="normal" text-decoration="normal" x="774" y="549" text-anchor="middle" dominant-baseline="text-after-edge" stroke-opacity="1" stroke-linejoin="round" stroke-miterlimit="10" stroke-width="4">AV:L</text><text fill="rgb(255,255,255)" stroke="none" font-family="Helvetica Neue, Helvetica, sans-serif" font-size="10px" font-style="normal" font-weight="normal" text-decoration="normal" x="774" y="549" text-anchor="middle" dominant-baseline="text-after-edge" fill-opacity="1">AV:L</text><path fill="rgb(99,102,241)" stroke="rgb(0,0,0)" paint-order="fill stroke markers" d=" M 789 691.75 L 788.953760005997 692.9268864359177 L 788.815325108927 694.0965169756034 L 788.5855488059651 695.2516804578386 L 788.2658477444273 696.3852549156242 L 787.8581929876693 697.4902514854764 L 787.3650978628256 698.5598574960932 L 786.7896024653114 699.5874784707393 L 786.1352549156242 700.5667787843871 L 785.4060894840005 701.4917207249528 L 784.6066017177982 702.3566017177982 L 783.7417207249528 703.1560894840005 L 782.8167787843871 703.8852549156242 L 781.8374784707393 704.5396024653114 L 780.8098574960932 705.1150978628256 L 779.7402514854764 705.6081929876693 L 778.6352549156242 706.0158477444273 L 777.5016804578386 706.3355488059651 L 776.3465169756034 706.565325108927 L 775.1768864359177 706.703760005997 L 774 706.75 L 772.8231135640823 706.703760005997 L 771.6534830243966 706.565325108927 L 770.4983195421614 706.3355488059651 L 769.3647450843758 706.0158477444273 L 768.2597485145236 705.6081929876693 L 767.1901425039068 705.1150978628256 L 766.1625215292607 704.5396024653114 L 765.1832212156129 703.8852549156242 L 764.2582792750472 703.1560894840005 L 763.3933982822018 702.3566017177982 L 762.5939105159995 701.4917207249528 L 761.8647450843758 700.5667787843871 L 761.2103975346886 699.5874784707393 L 760.6349021371744 698.5598574960932 L 760.1418070123307 697.4902514854764 L 759.7341522555727 696.3852549156242 L 759.4144511940349 695.2516804578386 L 759.184674891073 694.0965169756034 L 759.046239994003 692.9268864359177 L 759 691.75 L 759.046239994003 690.5731135640823 L 759.184674891073 689.4034830243966 L 759.4144511940349 688.2483195421614 L 759.7341522555727 687.1147450843758 L 760.1418070123307 686.0097485145236 L 760.6349021371744 684.9401425039068 L 761.2103975346886 683.9125215292607 L 761.8647450843758 682.9332212156129 L 762.5939105159995 682.0082792750472 L 763.3933982822018 681.1433982822018 L 764.2582792750472 680.3439105159996 L 765.1832212156129 679.6147450843758 L 766.1625215292607 678.9603975346886 L 767.1901425039068 678.3849021371744 L 768.2597485145237 677.8918070123307 L 769.3647450843758 677.4841522555727 L 770.4983195421614 677.1644511940349 L 771.6534830243966 676.934674891073 L 772.8231135640824 676.796239994003 L 774 676.75 L 775.1768864359177 676.796239994003 L 776.3465169756035 676.934674891073 L 777.5016804578387 677.1644511940349 L 778.6352549156243 677.4841522555727 L 779.7402514854764 677.8918070123307 L 780.8098574960933 678.3849021371745 L 781.8374784707394 678.9603975346887 L 782.8167787843872 679.6147450843758 L 783.7417207249529 680.3439105159996 L 784.6066017177983 681.1433982822018 L 785.4060894840005 682.0082792750474 L 786.1352549156243 682.933221215613 L 786.7896024653114 683.9125215292609 L 787.3650978628256 684.9401425039069 L 787.8581929876693 686.0097485145238 L 788.2658477444273 687.114745084376 L 788.5855488059652 688.2483195421615 L 788.8153251089271 689.4034830243967 L 788.953760005997 690.5731135640825 Z" fill-opacity="1" stroke-opacity="1" stroke-miterlimit="10" stroke-width="2"/><text fill="none" stroke="rgb(0,0,0)" font-family="Helvetica Neue, Helvetica, sans-serif" font-size="10px" font-style="normal" font-weight="normal" text-decoration="normal" x="774" y="676.75" text-anchor="middle" dominant-baseline="text-after-edge" stroke-opacity="1" stroke-linejoin="round" stroke-miterlimit="10" stroke-width="4">PR:H</text><text fill="rgb(255,255,255)" stroke="none" font-family="Helvetica Neue, Helvetica, sans-serif" font-size="10px" font-style="normal" font-weight="normal" text-decoration="normal" x="774" y="676.75" text-anchor="middle" dominant-baseline="text-after-edge" fill-opacity="1">PR:H</text><path fill="rgb(234,179,8)" stroke="rgb(255,102,102)" paint-order="fill stroke markers" d=" M 607 372.75 L 606.9460533403297 374.1230341752373 L 606.7845459604149 375.48760313820407 L 606.5164736069594 376.83529386747836 L 606.1434890351652 378.1577974015616 L 605.6678918189475 379.44696006638907 L 605.0926141732964 380.69483374544205 L 604.4212028761966 381.8937248825291 L 603.6577974015615 383.0362419151183 L 602.8071043980005 384.11534084577823 L 601.8743686707646 385.12436867076457 L 600.8653408457782 386.05710439800055 L 599.7862419151182 386.9077974015616 L 598.6437248825291 387.6712028761966 L 597.4448337454421 388.34261417329645 L 596.1969600663891 388.9178918189475 L 594.9077974015615 389.3934890351652 L 593.5852938674783 389.7664736069593 L 592.237603138204 390.0345459604149 L 590.8730341752373 390.19605334032974 L 589.5 390.25 L 588.1269658247627 390.19605334032974 L 586.762396861796 390.0345459604149 L 585.4147061325217 389.7664736069593 L 584.0922025984385 389.3934890351652 L 582.8030399336109 388.9178918189475 L 581.5551662545579 388.34261417329645 L 580.3562751174709 387.6712028761966 L 579.2137580848818 386.9077974015616 L 578.1346591542218 386.05710439800055 L 577.1256313292354 385.12436867076457 L 576.1928956019995 384.11534084577823 L 575.3422025984385 383.0362419151183 L 574.5787971238034 381.8937248825291 L 573.9073858267036 380.69483374544205 L 573.3321081810525 379.44696006638907 L 572.8565109648348 378.1577974015616 L 572.4835263930406 376.83529386747836 L 572.2154540395851 375.48760313820407 L 572.0539466596703 374.1230341752373 L 572 372.75 L 572.0539466596703 371.3769658247627 L 572.2154540395851 370.01239686179593 L 572.4835263930406 368.66470613252164 L 572.8565109648348 367.3422025984384 L 573.3321081810525 366.05303993361093 L 573.9073858267036 364.80516625455795 L 574.5787971238034 363.6062751174709 L 575.3422025984385 362.4637580848817 L 576.1928956019995 361.38465915422177 L 577.1256313292354 360.37563132923543 L 578.1346591542218 359.44289560199945 L 579.2137580848818 358.5922025984384 L 580.3562751174709 357.8287971238034 L 581.5551662545579 357.15738582670355 L 582.803039933611 356.5821081810525 L 584.0922025984385 356.1065109648348 L 585.4147061325217 355.7335263930407 L 586.762396861796 355.4654540395851 L 588.1269658247628 355.30394665967026 L 589.5000000000001 355.25 L 590.8730341752373 355.30394665967026 L 592.2376031382041 355.4654540395851 L 593.5852938674784 355.7335263930407 L 594.9077974015617 356.10651096483485 L 596.1969600663891 356.5821081810525 L 597.4448337454421 357.1573858267036 L 598.6437248825292 357.82879712380344 L 599.7862419151184 358.5922025984385 L 600.8653408457783 359.44289560199957 L 601.8743686707646 360.3756313292355 L 602.8071043980007 361.3846591542219 L 603.6577974015617 362.4637580848818 L 604.4212028761967 363.60627511747106 L 605.0926141732965 364.80516625455806 L 605.6678918189476 366.0530399336111 L 606.1434890351652 367.3422025984386 L 606.5164736069594 368.6647061325218 L 606.7845459604149 370.01239686179616 L 606.9460533403297 371.3769658247629 Z" fill-opacity="0.25" stroke-opacity="0.25" stroke-miterlimit="10" stroke-width="2" stroke-dasharray="4,2"/><text fill="none" stroke="rgb(0,0,0)" font-family="Helvetica Neue, Helvetica, sans-serif" font-size="10px" font-style="normal" font-weight="normal" text-decoration="normal" x="589.5" y="355.25" text-anchor="middle" dominant-baseline="text-after-edge" stroke-opacity="0.25" stroke-linejoin="round" stroke-miterlimit="10" stroke-width="4">CVE-2026-23950</text><text fill="rgb(255,255,255)" stroke="none" font-family="Helvetica Neue, Helvetica, sans-serif" font-size="10px" font-style="normal" font-weight="normal" text-decoration="normal" x="589.5" y="355.25" text-anchor="middle" dominant-baseline="text-after-edge" fill-opacity="0.25">CVE-2026-23950</text><path fill="rgb(255,0,0)" stroke="rgb(255,215,0)" paint-order="fill stroke markers" d=" M 1154 28.5 L 1144.7343318831333 42.72991935488206 L 1129 47.59830056250525 L 1139.0078340584334 61.26125558861554 L 1138.5491502812527 78.5 L 1154 72.71425123801531 L 1169.4508497187473 78.5 L 1168.9921659415666 61.26125558861555 L 1179 47.598300562505266 L 1163.2656681168667 42.72991935488206 Z" fill-opacity="0.25" stroke-opacity="0.25" stroke-miterlimit="10" stroke-width="4" stroke-dasharray="4,2"/><text fill="none" stroke="rgb(0,0,0)" font-family="Helvetica Neue, Helvetica, sans-serif" font-size="10px" font-style="normal" font-weight="bold" text-decoration="normal" x="1154" y="28.5" text-anchor="middle" dominant-baseline="text-after-edge" stroke-opacity="0.25" stroke-linejoin="round" stroke-miterlimit="10" stroke-width="4">EXPLOITED</text><text fill="rgb(255,255,255)" stroke="none" font-family="Helvetica Neue, Helvetica, sans-serif" font-size="10px" font-style="normal" font-weight="bold" text-decoration="normal" x="1154" y="28.5" text-anchor="middle" dominant-baseline="text-after-edge" fill-opacity="0.25">EXPLOITED</text><path fill="rgb(99,102,241)" stroke="rgb(255,0,102)" paint-order="fill stroke markers" d=" M 81 368 L 80.95376000599691 369.17688643591765 L 80.81532510892707 370.34651697560344 L 80.58554880596515 371.5016804578386 L 80.2658477444273 372.6352549156242 L 79.8581929876693 373.74025148547634 L 79.36509786282552 374.8098574960932 L 78.78960246531139 375.83747847073926 L 78.13525491562422 376.8167787843871 L 77.40608948400046 377.74172072495276 L 76.60660171779821 378.6066017177982 L 75.74172072495276 379.40608948400046 L 74.8167787843871 380.1352549156242 L 73.83747847073923 380.78960246531136 L 72.8098574960932 381.3650978628255 L 71.74025148547635 381.8581929876693 L 70.63525491562422 382.2658477444273 L 69.50168045783859 382.5855488059652 L 68.34651697560346 382.8153251089271 L 67.17688643591768 382.9537600059969 L 66 383 L 64.82311356408232 382.9537600059969 L 63.653483024396536 382.8153251089271 L 62.49831954216142 382.5855488059652 L 61.36474508437579 382.26584774442733 L 60.25974851452365 381.8581929876693 L 59.1901425039068 381.3650978628255 L 58.16252152926077 380.78960246531136 L 57.1832212156129 380.1352549156242 L 56.258279275047244 379.40608948400046 L 55.39339828220179 378.6066017177982 L 54.59391051599954 377.74172072495276 L 53.86474508437579 376.8167787843871 L 53.21039753468862 375.83747847073926 L 52.634902137174485 374.80985749609323 L 52.1418070123307 373.74025148547634 L 51.734152255572695 372.6352549156242 L 51.414451194034854 371.5016804578386 L 51.18467489107294 370.3465169756035 L 51.04623999400308 369.17688643591765 L 51 368 L 51.04623999400308 366.82311356408235 L 51.18467489107293 365.65348302439656 L 51.414451194034854 364.4983195421614 L 51.734152255572695 363.3647450843758 L 52.141807012330695 362.25974851452366 L 52.63490213717448 361.1901425039068 L 53.21039753468862 360.16252152926074 L 53.864745084375784 359.1832212156129 L 54.59391051599953 358.25827927504724 L 55.39339828220179 357.3933982822018 L 56.25827927504724 356.59391051599954 L 57.1832212156129 355.8647450843758 L 58.16252152926077 355.21039753468864 L 59.190142503906806 354.6349021371745 L 60.25974851452367 354.1418070123307 L 61.36474508437581 353.73415225557267 L 62.49831954216145 353.4144511940348 L 63.65348302439657 353.1846748910729 L 64.82311356408238 353.0462399940031 L 66.00000000000006 353 L 67.17688643591774 353.0462399940031 L 68.34651697560352 353.1846748910729 L 69.50168045783865 353.4144511940349 L 70.63525491562429 353.7341522555727 L 71.74025148547642 354.14180701233073 L 72.80985749609329 354.63490213717455 L 73.83747847073931 355.2103975346887 L 74.81677878438718 355.86474508437584 L 75.74172072495284 356.5939105159996 L 76.6066017177983 357.3933982822019 L 77.40608948400055 358.25827927504736 L 78.13525491562429 359.183221215613 L 78.78960246531145 360.16252152926086 L 79.36509786282558 361.19014250390694 L 79.85819298766936 362.2597485145238 L 80.26584774442735 363.36474508437595 L 80.58554880596519 364.4983195421616 L 80.8153251089271 365.6534830243967 L 80.95376000599694 366.8231135640825 Z" fill-opacity="1" stroke-opacity="1" stroke-miterlimit="10" stroke-width="2"/><text fill="none" stroke="rgb(0,0,0)" font-family="Helvetica Neue, Helvetica, sans-serif" font-size="10px" font-style="normal" font-weight="normal" text-decoration="normal" x="66" y="353" text-anchor="middle" dominant-baseline="text-after-edge" stroke-opacity="1" stroke-linejoin="round" stroke-miterlimit="10" stroke-width="4">AC:L</text><text fill="rgb(255,255,255)" stroke="none" font-family="Helvetica Neue, Helvetica, sans-serif" font-size="10px" font-style="normal" font-weight="normal" text-decoration="normal" x="66" y="353" text-anchor="middle" dominant-baseline="text-after-edge" fill-opacity="1">AC:L</text><path fill="rgb(99,102,241)" stroke="rgb(255,0,102)" paint-order="fill stroke markers" d=" M 81 323 L 80.95376000599691 324.17688643591765 L 80.81532510892707 325.34651697560344 L 80.58554880596515 326.5016804578386 L 80.2658477444273 327.6352549156242 L 79.8581929876693 328.74025148547634 L 79.36509786282552 329.8098574960932 L 78.78960246531139 330.83747847073926 L 78.13525491562422 331.8167787843871 L 77.40608948400046 332.74172072495276 L 76.60660171779821 333.6066017177982 L 75.74172072495276 334.40608948400046 L 74.8167787843871 335.1352549156242 L 73.83747847073923 335.78960246531136 L 72.8098574960932 336.3650978628255 L 71.74025148547635 336.8581929876693 L 70.63525491562422 337.2658477444273 L 69.50168045783859 337.5855488059652 L 68.34651697560346 337.8153251089271 L 67.17688643591768 337.9537600059969 L 66 338 L 64.82311356408232 337.9537600059969 L 63.653483024396536 337.8153251089271 L 62.49831954216142 337.5855488059652 L 61.36474508437579 337.26584774442733 L 60.25974851452365 336.8581929876693 L 59.1901425039068 336.3650978628255 L 58.16252152926077 335.78960246531136 L 57.1832212156129 335.1352549156242 L 56.258279275047244 334.40608948400046 L 55.39339828220179 333.6066017177982 L 54.59391051599954 332.74172072495276 L 53.86474508437579 331.8167787843871 L 53.21039753468862 330.83747847073926 L 52.634902137174485 329.80985749609323 L 52.1418070123307 328.74025148547634 L 51.734152255572695 327.6352549156242 L 51.414451194034854 326.5016804578386 L 51.18467489107294 325.3465169756035 L 51.04623999400308 324.17688643591765 L 51 323 L 51.04623999400308 321.82311356408235 L 51.18467489107293 320.65348302439656 L 51.414451194034854 319.4983195421614 L 51.734152255572695 318.3647450843758 L 52.141807012330695 317.25974851452366 L 52.63490213717448 316.1901425039068 L 53.21039753468862 315.16252152926074 L 53.864745084375784 314.1832212156129 L 54.59391051599953 313.25827927504724 L 55.39339828220179 312.3933982822018 L 56.25827927504724 311.59391051599954 L 57.1832212156129 310.8647450843758 L 58.16252152926077 310.21039753468864 L 59.190142503906806 309.6349021371745 L 60.25974851452367 309.1418070123307 L 61.36474508437581 308.73415225557267 L 62.49831954216145 308.4144511940348 L 63.65348302439657 308.1846748910729 L 64.82311356408238 308.0462399940031 L 66.00000000000006 308 L 67.17688643591774 308.0462399940031 L 68.34651697560352 308.1846748910729 L 69.50168045783865 308.4144511940349 L 70.63525491562429 308.7341522555727 L 71.74025148547642 309.14180701233073 L 72.80985749609329 309.63490213717455 L 73.83747847073931 310.2103975346887 L 74.81677878438718 310.86474508437584 L 75.74172072495284 311.5939105159996 L 76.6066017177983 312.3933982822019 L 77.40608948400055 313.25827927504736 L 78.13525491562429 314.183221215613 L 78.78960246531145 315.16252152926086 L 79.36509786282558 316.19014250390694 L 79.85819298766936 317.2597485145238 L 80.26584774442735 318.36474508437595 L 80.58554880596519 319.4983195421616 L 80.8153251089271 320.6534830243967 L 80.95376000599694 321.8231135640825 Z" fill-opacity="1" stroke-opacity="1" stroke-miterlimit="10" stroke-width="2"/><text fill="none" stroke="rgb(0,0,0)" font-family="Helvetica Neue, Helvetica, sans-serif" font-size="10px" font-style="normal" font-weight="normal" text-decoration="normal" x="66" y="308" text-anchor="middle" dominant-baseline="text-after-edge" stroke-opacity="1" stroke-linejoin="round" stroke-miterlimit="10" stroke-width="4">UI:N</text><text fill="rgb(255,255,255)" stroke="none" font-family="Helvetica Neue, Helvetica, sans-serif" font-size="10px" font-style="normal" font-weight="normal" text-decoration="normal" x="66" y="308" text-anchor="middle" dominant-baseline="text-after-edge" fill-opacity="1">UI:N</text><path fill="rgb(0,255,136)" stroke="rgb(0,204,102)" paint-order="fill stroke markers" d=" M 1313 146.75 L 1343 116.75 L 1313 86.75 L 1283 116.75 Z" fill-opacity="1" stroke-opacity="1" stroke-miterlimit="10" stroke-width="4"/><text fill="none" stroke="rgb(0,0,0)" font-family="Helvetica Neue, Helvetica, sans-serif" font-size="14px" font-style="normal" font-weight="bold" text-decoration="normal" x="1313" y="86.75" text-anchor="middle" dominant-baseline="text-after-edge" stroke-opacity="1" stroke-linejoin="round" stroke-miterlimit="10" stroke-width="6">INSIDE NETWORK</text><text fill="rgb(255,255,255)" stroke="none" font-family="Helvetica Neue, Helvetica, sans-serif" font-size="14px" font-style="normal" font-weight="bold" text-decoration="normal" x="1313" y="86.75" text-anchor="middle" dominant-baseline="text-after-edge" fill-opacity="1">INSIDE NETWORK</text><path fill="rgb(234,179,8)" stroke="rgb(255,102,102)" paint-order="fill stroke markers" d=" M 607 417.75 L 606.9460533403297 419.1230341752373 L 606.7845459604149 420.48760313820407 L 606.5164736069594 421.83529386747836 L 606.1434890351652 423.1577974015616 L 605.6678918189475 424.44696006638907 L 605.0926141732964 425.69483374544205 L 604.4212028761966 426.8937248825291 L 603.6577974015615 428.0362419151183 L 602.8071043980005 429.11534084577823 L 601.8743686707646 430.12436867076457 L 600.8653408457782 431.05710439800055 L 599.7862419151182 431.9077974015616 L 598.6437248825291 432.6712028761966 L 597.4448337454421 433.34261417329645 L 596.1969600663891 433.9178918189475 L 594.9077974015615 434.3934890351652 L 593.5852938674783 434.7664736069593 L 592.237603138204 435.0345459604149 L 590.8730341752373 435.19605334032974 L 589.5 435.25 L 588.1269658247627 435.19605334032974 L 586.762396861796 435.0345459604149 L 585.4147061325217 434.7664736069593 L 584.0922025984385 434.3934890351652 L 582.8030399336109 433.9178918189475 L 581.5551662545579 433.34261417329645 L 580.3562751174709 432.6712028761966 L 579.2137580848818 431.9077974015616 L 578.1346591542218 431.05710439800055 L 577.1256313292354 430.12436867076457 L 576.1928956019995 429.11534084577823 L 575.3422025984385 428.0362419151183 L 574.5787971238034 426.8937248825291 L 573.9073858267036 425.69483374544205 L 573.3321081810525 424.44696006638907 L 572.8565109648348 423.1577974015616 L 572.4835263930406 421.83529386747836 L 572.2154540395851 420.48760313820407 L 572.0539466596703 419.1230341752373 L 572 417.75 L 572.0539466596703 416.3769658247627 L 572.2154540395851 415.01239686179593 L 572.4835263930406 413.66470613252164 L 572.8565109648348 412.3422025984384 L 573.3321081810525 411.05303993361093 L 573.9073858267036 409.80516625455795 L 574.5787971238034 408.6062751174709 L 575.3422025984385 407.4637580848817 L 576.1928956019995 406.38465915422177 L 577.1256313292354 405.37563132923543 L 578.1346591542218 404.44289560199945 L 579.2137580848818 403.5922025984384 L 580.3562751174709 402.8287971238034 L 581.5551662545579 402.15738582670355 L 582.803039933611 401.5821081810525 L 584.0922025984385 401.1065109648348 L 585.4147061325217 400.7335263930407 L 586.762396861796 400.4654540395851 L 588.1269658247628 400.30394665967026 L 589.5000000000001 400.25 L 590.8730341752373 400.30394665967026 L 592.2376031382041 400.4654540395851 L 593.5852938674784 400.7335263930407 L 594.9077974015617 401.10651096483485 L 596.1969600663891 401.5821081810525 L 597.4448337454421 402.1573858267036 L 598.6437248825292 402.82879712380344 L 599.7862419151184 403.5922025984385 L 600.8653408457783 404.44289560199957 L 601.8743686707646 405.3756313292355 L 602.8071043980007 406.3846591542219 L 603.6577974015617 407.4637580848818 L 604.4212028761967 408.60627511747106 L 605.0926141732965 409.80516625455806 L 605.6678918189476 411.0530399336111 L 606.1434890351652 412.3422025984386 L 606.5164736069594 413.6647061325218 L 606.7845459604149 415.01239686179616 L 606.9460533403297 416.3769658247629 Z" fill-opacity="0.25" stroke-opacity="0.25" stroke-miterlimit="10" stroke-width="2" stroke-dasharray="4,2"/><text fill="none" stroke="rgb(0,0,0)" font-family="Helvetica Neue, Helvetica, sans-serif" font-size="10px" font-style="normal" font-weight="normal" text-decoration="normal" x="589.5" y="400.25" text-anchor="middle" dominant-baseline="text-after-edge" stroke-opacity="0.25" stroke-linejoin="round" stroke-miterlimit="10" stroke-width="4">CVE-2026-24842</text><text fill="rgb(255,255,255)" stroke="none" font-family="Helvetica Neue, Helvetica, sans-serif" font-size="10px" font-style="normal" font-weight="normal" text-decoration="normal" x="589.5" y="400.25" text-anchor="middle" dominant-baseline="text-after-edge" fill-opacity="0.25">CVE-2026-24842</text><path fill="rgb(234,179,8)" stroke="rgb(0,0,0)" paint-order="fill stroke markers" d=" M 976 509.5 L 975.9460533403297 510.8730341752373 L 975.7845459604149 512.237603138204 L 975.5164736069594 513.5852938674783 L 975.1434890351652 514.9077974015615 L 974.6678918189475 516.1969600663891 L 974.0926141732964 517.4448337454421 L 973.4212028761966 518.6437248825291 L 972.6577974015615 519.7862419151182 L 971.8071043980005 520.8653408457782 L 970.8743686707646 521.8743686707646 L 969.8653408457782 522.8071043980005 L 968.7862419151182 523.6577974015615 L 967.6437248825291 524.4212028761966 L 966.4448337454421 525.0926141732964 L 965.1969600663891 525.6678918189475 L 963.9077974015615 526.1434890351652 L 962.5852938674783 526.5164736069594 L 961.237603138204 526.7845459604149 L 959.8730341752373 526.9460533403297 L 958.5 527 L 957.1269658247627 526.9460533403297 L 955.762396861796 526.7845459604149 L 954.4147061325217 526.5164736069594 L 953.0922025984385 526.1434890351652 L 951.8030399336109 525.6678918189475 L 950.5551662545579 525.0926141732964 L 949.3562751174709 524.4212028761966 L 948.2137580848818 523.6577974015615 L 947.1346591542218 522.8071043980005 L 946.1256313292354 521.8743686707646 L 945.1928956019995 520.8653408457782 L 944.3422025984385 519.7862419151182 L 943.5787971238034 518.6437248825291 L 942.9073858267036 517.4448337454421 L 942.3321081810525 516.1969600663891 L 941.8565109648348 514.9077974015615 L 941.4835263930406 513.5852938674783 L 941.2154540395851 512.237603138204 L 941.0539466596703 510.8730341752373 L 941 509.5 L 941.0539466596703 508.1269658247627 L 941.2154540395851 506.76239686179593 L 941.4835263930406 505.41470613252164 L 941.8565109648348 504.0922025984384 L 942.3321081810525 502.80303993361093 L 942.9073858267036 501.55516625455795 L 943.5787971238034 500.3562751174709 L 944.3422025984385 499.2137580848817 L 945.1928956019995 498.13465915422177 L 946.1256313292354 497.12563132923543 L 947.1346591542218 496.19289560199945 L 948.2137580848818 495.3422025984384 L 949.3562751174709 494.5787971238034 L 950.5551662545579 493.90738582670355 L 951.803039933611 493.3321081810525 L 953.0922025984385 492.8565109648348 L 954.4147061325217 492.4835263930407 L 955.762396861796 492.2154540395851 L 957.1269658247628 492.05394665967026 L 958.5000000000001 492 L 959.8730341752373 492.05394665967026 L 961.2376031382041 492.2154540395851 L 962.5852938674784 492.4835263930407 L 963.9077974015617 492.85651096483485 L 965.1969600663891 493.3321081810525 L 966.4448337454421 493.9073858267036 L 967.6437248825292 494.57879712380344 L 968.7862419151184 495.3422025984385 L 969.8653408457783 496.19289560199957 L 970.8743686707646 497.1256313292355 L 971.8071043980007 498.1346591542219 L 972.6577974015617 499.2137580848818 L 973.4212028761967 500.35627511747106 L 974.0926141732965 501.55516625455806 L 974.6678918189476 502.8030399336111 L 975.1434890351652 504.0922025984386 L 975.5164736069594 505.4147061325218 L 975.7845459604149 506.76239686179616 L 975.9460533403297 508.1269658247629 Z" fill-opacity="1" stroke-opacity="1" stroke-miterlimit="10" stroke-width="2"/><text fill="none" stroke="rgb(0,0,0)" font-family="Helvetica Neue, Helvetica, sans-serif" font-size="10px" font-style="normal" font-weight="normal" text-decoration="normal" x="958.5" y="492" text-anchor="middle" dominant-baseline="text-after-edge" stroke-opacity="1" stroke-linejoin="round" stroke-miterlimit="10" stroke-width="4">CVE-2026-31802</text><text fill="rgb(255,255,255)" stroke="none" font-family="Helvetica Neue, Helvetica, sans-serif" font-size="10px" font-style="normal" font-weight="normal" text-decoration="normal" x="958.5" y="492" text-anchor="middle" dominant-baseline="text-after-edge" fill-opacity="1">CVE-2026-31802</text><path fill="rgb(234,179,8)" stroke="rgb(255,102,102)" paint-order="fill stroke markers" d=" M 976 464.5 L 975.9460533403297 465.8730341752373 L 975.7845459604149 467.23760313820407 L 975.5164736069594 468.58529386747836 L 975.1434890351652 469.9077974015616 L 974.6678918189475 471.19696006638907 L 974.0926141732964 472.44483374544205 L 973.4212028761966 473.6437248825291 L 972.6577974015615 474.7862419151183 L 971.8071043980005 475.86534084577823 L 970.8743686707646 476.87436867076457 L 969.8653408457782 477.80710439800055 L 968.7862419151182 478.6577974015616 L 967.6437248825291 479.4212028761966 L 966.4448337454421 480.09261417329645 L 965.1969600663891 480.6678918189475 L 963.9077974015615 481.1434890351652 L 962.5852938674783 481.5164736069593 L 961.237603138204 481.7845459604149 L 959.8730341752373 481.94605334032974 L 958.5 482 L 957.1269658247627 481.94605334032974 L 955.762396861796 481.7845459604149 L 954.4147061325217 481.5164736069593 L 953.0922025984385 481.1434890351652 L 951.8030399336109 480.6678918189475 L 950.5551662545579 480.09261417329645 L 949.3562751174709 479.4212028761966 L 948.2137580848818 478.6577974015616 L 947.1346591542218 477.80710439800055 L 946.1256313292354 476.87436867076457 L 945.1928956019995 475.86534084577823 L 944.3422025984385 474.7862419151183 L 943.5787971238034 473.6437248825291 L 942.9073858267036 472.44483374544205 L 942.3321081810525 471.19696006638907 L 941.8565109648348 469.9077974015616 L 941.4835263930406 468.58529386747836 L 941.2154540395851 467.23760313820407 L 941.0539466596703 465.8730341752373 L 941 464.5 L 941.0539466596703 463.1269658247627 L 941.2154540395851 461.76239686179593 L 941.4835263930406 460.41470613252164 L 941.8565109648348 459.0922025984384 L 942.3321081810525 457.80303993361093 L 942.9073858267036 456.55516625455795 L 943.5787971238034 455.3562751174709 L 944.3422025984385 454.2137580848817 L 945.1928956019995 453.13465915422177 L 946.1256313292354 452.12563132923543 L 947.1346591542218 451.19289560199945 L 948.2137580848818 450.3422025984384 L 949.3562751174709 449.5787971238034 L 950.5551662545579 448.90738582670355 L 951.803039933611 448.3321081810525 L 953.0922025984385 447.8565109648348 L 954.4147061325217 447.4835263930407 L 955.762396861796 447.2154540395851 L 957.1269658247628 447.05394665967026 L 958.5000000000001 447 L 959.8730341752373 447.05394665967026 L 961.2376031382041 447.2154540395851 L 962.5852938674784 447.4835263930407 L 963.9077974015617 447.85651096483485 L 965.1969600663891 448.3321081810525 L 966.4448337454421 448.9073858267036 L 967.6437248825292 449.57879712380344 L 968.7862419151184 450.3422025984385 L 969.8653408457783 451.19289560199957 L 970.8743686707646 452.1256313292355 L 971.8071043980007 453.1346591542219 L 972.6577974015617 454.2137580848818 L 973.4212028761967 455.35627511747106 L 974.0926141732965 456.55516625455806 L 974.6678918189476 457.8030399336111 L 975.1434890351652 459.0922025984386 L 975.5164736069594 460.4147061325218 L 975.7845459604149 461.76239686179616 L 975.9460533403297 463.1269658247629 Z" fill-opacity="0.25" stroke-opacity="0.25" stroke-miterlimit="10" stroke-width="2" stroke-dasharray="4,2"/><text fill="none" stroke="rgb(0,0,0)" font-family="Helvetica Neue, Helvetica, sans-serif" font-size="10px" font-style="normal" font-weight="normal" text-decoration="normal" x="958.5" y="447" text-anchor="middle" dominant-baseline="text-after-edge" stroke-opacity="0.25" stroke-linejoin="round" stroke-miterlimit="10" stroke-width="4">CVE-2026-29786</text><text fill="rgb(255,255,255)" stroke="none" font-family="Helvetica Neue, Helvetica, sans-serif" font-size="10px" font-style="normal" font-weight="normal" text-decoration="normal" x="958.5" y="447" text-anchor="middle" dominant-baseline="text-after-edge" fill-opacity="0.25">CVE-2026-29786</text><path fill="rgb(234,179,8)" stroke="rgb(255,102,102)" paint-order="fill stroke markers" d=" M 976 911 L 975.9460533403297 912.3730341752373 L 975.7845459604149 913.737603138204 L 975.5164736069594 915.0852938674783 L 975.1434890351652 916.4077974015615 L 974.6678918189475 917.6969600663891 L 974.0926141732964 918.9448337454421 L 973.4212028761966 920.1437248825291 L 972.6577974015615 921.2862419151182 L 971.8071043980005 922.3653408457782 L 970.8743686707646 923.3743686707646 L 969.8653408457782 924.3071043980005 L 968.7862419151182 925.1577974015615 L 967.6437248825291 925.9212028761966 L 966.4448337454421 926.5926141732964 L 965.1969600663891 927.1678918189475 L 963.9077974015615 927.6434890351652 L 962.5852938674783 928.0164736069594 L 961.237603138204 928.2845459604149 L 959.8730341752373 928.4460533403297 L 958.5 928.5 L 957.1269658247627 928.4460533403297 L 955.762396861796 928.2845459604149 L 954.4147061325217 928.0164736069594 L 953.0922025984385 927.6434890351652 L 951.8030399336109 927.1678918189475 L 950.5551662545579 926.5926141732964 L 949.3562751174709 925.9212028761966 L 948.2137580848818 925.1577974015615 L 947.1346591542218 924.3071043980005 L 946.1256313292354 923.3743686707646 L 945.1928956019995 922.3653408457782 L 944.3422025984385 921.2862419151182 L 943.5787971238034 920.1437248825291 L 942.9073858267036 918.9448337454421 L 942.3321081810525 917.6969600663891 L 941.8565109648348 916.4077974015615 L 941.4835263930406 915.0852938674783 L 941.2154540395851 913.737603138204 L 941.0539466596703 912.3730341752373 L 941 911 L 941.0539466596703 909.6269658247627 L 941.2154540395851 908.262396861796 L 941.4835263930406 906.9147061325217 L 941.8565109648348 905.5922025984385 L 942.3321081810525 904.3030399336109 L 942.9073858267036 903.0551662545579 L 943.5787971238034 901.8562751174709 L 944.3422025984385 900.7137580848818 L 945.1928956019995 899.6346591542218 L 946.1256313292354 898.6256313292354 L 947.1346591542218 897.6928956019995 L 948.2137580848818 896.8422025984385 L 949.3562751174709 896.0787971238034 L 950.5551662545579 895.4073858267036 L 951.803039933611 894.8321081810525 L 953.0922025984385 894.3565109648348 L 954.4147061325217 893.9835263930406 L 955.762396861796 893.7154540395851 L 957.1269658247628 893.5539466596703 L 958.5000000000001 893.5 L 959.8730341752373 893.5539466596703 L 961.2376031382041 893.7154540395851 L 962.5852938674784 893.9835263930406 L 963.9077974015617 894.3565109648348 L 965.1969600663891 894.8321081810525 L 966.4448337454421 895.4073858267036 L 967.6437248825292 896.0787971238035 L 968.7862419151184 896.8422025984385 L 969.8653408457783 897.6928956019996 L 970.8743686707646 898.6256313292355 L 971.8071043980007 899.6346591542219 L 972.6577974015617 900.7137580848819 L 973.4212028761967 901.856275117471 L 974.0926141732965 903.0551662545581 L 974.6678918189476 904.3030399336111 L 975.1434890351652 905.5922025984386 L 975.5164736069594 906.9147061325218 L 975.7845459604149 908.2623968617961 L 975.9460533403297 909.6269658247629 Z" fill-opacity="0.25" stroke-opacity="0.25" stroke-miterlimit="10" stroke-width="2" stroke-dasharray="4,2"/><text fill="none" stroke="rgb(0,0,0)" font-family="Helvetica Neue, Helvetica, sans-serif" font-size="10px" font-style="normal" font-weight="normal" text-decoration="normal" x="958.5" y="893.5" text-anchor="middle" dominant-baseline="text-after-edge" stroke-opacity="0.25" stroke-linejoin="round" stroke-miterlimit="10" stroke-width="4">CVE-2025-64756</text><text fill="rgb(255,255,255)" stroke="none" font-family="Helvetica Neue, Helvetica, sans-serif" font-size="10px" font-style="normal" font-weight="normal" text-decoration="normal" x="958.5" y="893.5" text-anchor="middle" dominant-baseline="text-after-edge" fill-opacity="0.25">CVE-2025-64756</text><path fill="rgb(234,179,8)" stroke="rgb(255,102,102)" paint-order="fill stroke markers" d=" M 976 419.5 L 975.9460533403297 420.8730341752373 L 975.7845459604149 422.23760313820407 L 975.5164736069594 423.58529386747836 L 975.1434890351652 424.9077974015616 L 974.6678918189475 426.19696006638907 L 974.0926141732964 427.44483374544205 L 973.4212028761966 428.6437248825291 L 972.6577974015615 429.7862419151183 L 971.8071043980005 430.86534084577823 L 970.8743686707646 431.87436867076457 L 969.8653408457782 432.80710439800055 L 968.7862419151182 433.6577974015616 L 967.6437248825291 434.4212028761966 L 966.4448337454421 435.09261417329645 L 965.1969600663891 435.6678918189475 L 963.9077974015615 436.1434890351652 L 962.5852938674783 436.5164736069593 L 961.237603138204 436.7845459604149 L 959.8730341752373 436.94605334032974 L 958.5 437 L 957.1269658247627 436.94605334032974 L 955.762396861796 436.7845459604149 L 954.4147061325217 436.5164736069593 L 953.0922025984385 436.1434890351652 L 951.8030399336109 435.6678918189475 L 950.5551662545579 435.09261417329645 L 949.3562751174709 434.4212028761966 L 948.2137580848818 433.6577974015616 L 947.1346591542218 432.80710439800055 L 946.1256313292354 431.87436867076457 L 945.1928956019995 430.86534084577823 L 944.3422025984385 429.7862419151183 L 943.5787971238034 428.6437248825291 L 942.9073858267036 427.44483374544205 L 942.3321081810525 426.19696006638907 L 941.8565109648348 424.9077974015616 L 941.4835263930406 423.58529386747836 L 941.2154540395851 422.23760313820407 L 941.0539466596703 420.8730341752373 L 941 419.5 L 941.0539466596703 418.1269658247627 L 941.2154540395851 416.76239686179593 L 941.4835263930406 415.41470613252164 L 941.8565109648348 414.0922025984384 L 942.3321081810525 412.80303993361093 L 942.9073858267036 411.55516625455795 L 943.5787971238034 410.3562751174709 L 944.3422025984385 409.2137580848817 L 945.1928956019995 408.13465915422177 L 946.1256313292354 407.12563132923543 L 947.1346591542218 406.19289560199945 L 948.2137580848818 405.3422025984384 L 949.3562751174709 404.5787971238034 L 950.5551662545579 403.90738582670355 L 951.803039933611 403.3321081810525 L 953.0922025984385 402.8565109648348 L 954.4147061325217 402.4835263930407 L 955.762396861796 402.2154540395851 L 957.1269658247628 402.05394665967026 L 958.5000000000001 402 L 959.8730341752373 402.05394665967026 L 961.2376031382041 402.2154540395851 L 962.5852938674784 402.4835263930407 L 963.9077974015617 402.85651096483485 L 965.1969600663891 403.3321081810525 L 966.4448337454421 403.9073858267036 L 967.6437248825292 404.57879712380344 L 968.7862419151184 405.3422025984385 L 969.8653408457783 406.19289560199957 L 970.8743686707646 407.1256313292355 L 971.8071043980007 408.1346591542219 L 972.6577974015617 409.2137580848818 L 973.4212028761967 410.35627511747106 L 974.0926141732965 411.55516625455806 L 974.6678918189476 412.8030399336111 L 975.1434890351652 414.0922025984386 L 975.5164736069594 415.4147061325218 L 975.7845459604149 416.76239686179616 L 975.9460533403297 418.1269658247629 Z" fill-opacity="0.25" stroke-opacity="0.25" stroke-miterlimit="10" stroke-width="2" stroke-dasharray="4,2"/><text fill="none" stroke="rgb(0,0,0)" font-family="Helvetica Neue, Helvetica, sans-serif" font-size="10px" font-style="normal" font-weight="normal" text-decoration="normal" x="958.5" y="402" text-anchor="middle" dominant-baseline="text-after-edge" stroke-opacity="0.25" stroke-linejoin="round" stroke-miterlimit="10" stroke-width="4">CVE-2026-23745</text><text fill="rgb(255,255,255)" stroke="none" font-family="Helvetica Neue, Helvetica, sans-serif" font-size="10px" font-style="normal" font-weight="normal" text-decoration="normal" x="958.5" y="402" text-anchor="middle" dominant-baseline="text-after-edge" fill-opacity="0.25">CVE-2026-23745</text><path fill="rgb(255,0,0)" stroke="rgb(255,215,0)" paint-order="fill stroke markers" d=" M 1154 214 L 1144.7343318831333 228.22991935488204 L 1129 233.09830056250524 L 1139.0078340584334 246.76125558861554 L 1138.5491502812527 264 L 1154 258.2142512380153 L 1169.4508497187473 264 L 1168.9921659415666 246.76125558861554 L 1179 233.09830056250527 L 1163.2656681168667 228.22991935488207 Z" fill-opacity="1" stroke-opacity="1" stroke-miterlimit="10" stroke-width="4"/><text fill="none" stroke="rgb(0,0,0)" font-family="Helvetica Neue, Helvetica, sans-serif" font-size="10px" font-style="normal" font-weight="bold" text-decoration="normal" x="1154" y="214" text-anchor="middle" dominant-baseline="text-after-edge" stroke-opacity="1" stroke-linejoin="round" stroke-miterlimit="10" stroke-width="4">EXPLOITED</text><text fill="rgb(255,255,255)" stroke="none" font-family="Helvetica Neue, Helvetica, sans-serif" font-size="10px" font-style="normal" font-weight="bold" text-decoration="normal" x="1154" y="214" text-anchor="middle" dominant-baseline="text-after-edge" fill-opacity="1">EXPLOITED</text><path fill="rgb(234,179,8)" stroke="rgb(255,102,102)" paint-order="fill stroke markers" d=" M 976 554.5 L 975.9460533403297 555.8730341752373 L 975.7845459604149 557.237603138204 L 975.5164736069594 558.5852938674783 L 975.1434890351652 559.9077974015615 L 974.6678918189475 561.1969600663891 L 974.0926141732964 562.4448337454421 L 973.4212028761966 563.6437248825291 L 972.6577974015615 564.7862419151182 L 971.8071043980005 565.8653408457782 L 970.8743686707646 566.8743686707646 L 969.8653408457782 567.8071043980005 L 968.7862419151182 568.6577974015615 L 967.6437248825291 569.4212028761966 L 966.4448337454421 570.0926141732964 L 965.1969600663891 570.6678918189475 L 963.9077974015615 571.1434890351652 L 962.5852938674783 571.5164736069594 L 961.237603138204 571.7845459604149 L 959.8730341752373 571.9460533403297 L 958.5 572 L 957.1269658247627 571.9460533403297 L 955.762396861796 571.7845459604149 L 954.4147061325217 571.5164736069594 L 953.0922025984385 571.1434890351652 L 951.8030399336109 570.6678918189475 L 950.5551662545579 570.0926141732964 L 949.3562751174709 569.4212028761966 L 948.2137580848818 568.6577974015615 L 947.1346591542218 567.8071043980005 L 946.1256313292354 566.8743686707646 L 945.1928956019995 565.8653408457782 L 944.3422025984385 564.7862419151182 L 943.5787971238034 563.6437248825291 L 942.9073858267036 562.4448337454421 L 942.3321081810525 561.1969600663891 L 941.8565109648348 559.9077974015615 L 941.4835263930406 558.5852938674783 L 941.2154540395851 557.237603138204 L 941.0539466596703 555.8730341752373 L 941 554.5 L 941.0539466596703 553.1269658247627 L 941.2154540395851 551.762396861796 L 941.4835263930406 550.4147061325217 L 941.8565109648348 549.0922025984385 L 942.3321081810525 547.8030399336109 L 942.9073858267036 546.5551662545579 L 943.5787971238034 545.3562751174709 L 944.3422025984385 544.2137580848818 L 945.1928956019995 543.1346591542218 L 946.1256313292354 542.1256313292354 L 947.1346591542218 541.1928956019995 L 948.2137580848818 540.3422025984385 L 949.3562751174709 539.5787971238034 L 950.5551662545579 538.9073858267036 L 951.803039933611 538.3321081810525 L 953.0922025984385 537.8565109648348 L 954.4147061325217 537.4835263930406 L 955.762396861796 537.2154540395851 L 957.1269658247628 537.0539466596703 L 958.5000000000001 537 L 959.8730341752373 537.0539466596703 L 961.2376031382041 537.2154540395851 L 962.5852938674784 537.4835263930406 L 963.9077974015617 537.8565109648348 L 965.1969600663891 538.3321081810525 L 966.4448337454421 538.9073858267036 L 967.6437248825292 539.5787971238035 L 968.7862419151184 540.3422025984385 L 969.8653408457783 541.1928956019996 L 970.8743686707646 542.1256313292355 L 971.8071043980007 543.1346591542219 L 972.6577974015617 544.2137580848819 L 973.4212028761967 545.356275117471 L 974.0926141732965 546.5551662545581 L 974.6678918189476 547.8030399336111 L 975.1434890351652 549.0922025984386 L 975.5164736069594 550.4147061325218 L 975.7845459604149 551.7623968617961 L 975.9460533403297 553.1269658247629 Z" fill-opacity="0.25" stroke-opacity="0.25" stroke-miterlimit="10" stroke-width="2" stroke-dasharray="4,2"/><text fill="none" stroke="rgb(0,0,0)" font-family="Helvetica Neue, Helvetica, sans-serif" font-size="10px" font-style="normal" font-weight="normal" text-decoration="normal" x="958.5" y="537" text-anchor="middle" dominant-baseline="text-after-edge" stroke-opacity="0.25" stroke-linejoin="round" stroke-miterlimit="10" stroke-width="4">CVE-2026-26960</text><text fill="rgb(255,255,255)" stroke="none" font-family="Helvetica Neue, Helvetica, sans-serif" font-size="10px" font-style="normal" font-weight="normal" text-decoration="normal" x="958.5" y="537" text-anchor="middle" dominant-baseline="text-after-edge" fill-opacity="0.25">CVE-2026-26960</text><g transform="scale(0.5,0.5) translate(64,27)"/></g></g></svg>