<svg version="1.1" xmlns="http://www.w3.org/2000/svg" xmlns:xlink="http://www.w3.org/1999/xlink" width="2298" height="1796"><defs/><g><rect fill="#ffffff" stroke="none" x="0" y="0" width="2298" height="1796"/><g transform="translate(-64,28) scale(2,2)"><path fill="rgb(100,100,100)" stroke="rgb(136,136,136)" paint-order="fill stroke markers" d=" M 139.5 342.25 L 237 342.25 L 237 342.25 A 8 8 0 0 1 245 350.25 L 245 590.25 L 245 590.25 A 8 8 0 0 1 237 598.25 L 42 598.25 L 42 598.25 A 8 8 0 0 1 34 590.25 L 34 350.25 L 34 350.25 A 8 8 0 0 1 42 342.25 L 139.5 342.25 Z" fill-opacity="1" stroke-opacity="1" stroke-miterlimit="10" stroke-width="2" stroke-dasharray="4,2"/><text fill="none" stroke="rgb(0,0,0)" font-family="Helvetica Neue, Helvetica, sans-serif" font-size="12px" font-style="normal" font-weight="normal" text-decoration="normal" x="139.5" y="342.25" text-anchor="middle" dominant-baseline="text-after-edge" stroke-opacity="1" stroke-linejoin="round" stroke-miterlimit="10" stroke-width="4">Initial State</text><text fill="rgb(204,204,204)" stroke="none" font-family="Helvetica Neue, Helvetica, sans-serif" font-size="12px" font-style="normal" font-weight="normal" text-decoration="normal" x="139.5" y="342.25" text-anchor="middle" dominant-baseline="text-after-edge" fill-opacity="1">Initial State</text><path fill="none" stroke="rgb(203,143,255)" paint-order="fill stroke markers" d=" M 826.3381915146774 23.40397017585635 L 923.0096077616452 49.98030453928389" stroke-opacity="0.9" stroke-linejoin="round" stroke-miterlimit="10" stroke-width="3" stroke-dasharray="6,3"/><path fill="rgb(255,255,255)" stroke="none" paint-order="stroke fill markers" d=" M 919.2531003370719 53.45897554544794 L 928.7949671718109 51.57078135307514 L 921.5592917170693 45.07020440070772 Z" fill-opacity="1"/><path fill="rgb(203,143,255)" stroke="none" paint-order="stroke fill markers" d=" M 919.2531003370719 53.45897554544794 L 928.7949671718109 51.57078135307514 L 921.5592917170693 45.07020440070772 Z" fill-opacity="0.9"/><path fill="none" stroke="rgb(203,143,255)" paint-order="fill stroke markers" d=" M 812.1890762829682 755.3715495373035 L 948.2323770500304 86.84261449641383" stroke-opacity="0.9" stroke-linejoin="round" stroke-miterlimit="10" stroke-width="3" stroke-dasharray="6,3"/><path fill="rgb(255,255,255)" stroke="none" paint-order="stroke fill markers" d=" M 951.9566069715826 90.35581979804587 L 949.428834222885 80.96311704905281 L 943.4313356729091 88.62095689740673 Z" fill-opacity="1"/><path fill="rgb(203,143,255)" stroke="none" paint-order="stroke fill markers" d=" M 951.9566069715826 90.35581979804587 L 949.428834222885 80.96311704905281 L 943.4313356729091 88.62095689740673 Z" fill-opacity="0.9"/><path fill="none" stroke="rgb(203,143,255)" paint-order="fill stroke markers" d=" M 822.3546187623068 174.9903287584399 L 933.1530626864886 76.94703215886314" stroke-opacity="0.9" stroke-linejoin="round" stroke-miterlimit="10" stroke-width="3" stroke-dasharray="6,3"/><path fill="rgb(255,255,255)" stroke="none" paint-order="stroke fill markers" d=" M 934.0137166996 81.99398913011972 L 937.6464525553449 72.97092256700579 L 928.2483577914068 75.47857382027814 Z" fill-opacity="1"/><path fill="rgb(203,143,255)" stroke="none" paint-order="stroke fill markers" d=" M 934.0137166996 81.99398913011972 L 937.6464525553449 72.97092256700579 L 928.2483577914068 75.47857382027814 Z" fill-opacity="0.9"/><path fill="none" stroke="rgb(0,255,255)" paint-order="fill stroke markers" d=" M 689.4702086567142 833.0832149242628 L 786.7450190764955 858.7579790127553" stroke-opacity="0.7" stroke-linejoin="round" stroke-miterlimit="10" stroke-width="2"/><path fill="rgb(255,255,255)" stroke="none" paint-order="stroke fill markers" d=" M 781.0905212260518 861.7644976072972 L 790.6125712406741 859.778782743821 L 783.3107693411197 853.3525716502089 Z" fill-opacity="1"/><path fill="rgb(0,255,255)" stroke="none" paint-order="stroke fill markers" d=" M 781.0905212260518 861.7644976072972 L 790.6125712406741 859.778782743821 L 783.3107693411197 853.3525716502089 Z" fill-opacity="0.7"/><path fill="none" stroke="rgb(0,255,255)" paint-order="fill stroke markers" d=" M 677.7318683982586 228.30870040389232 L 803.2520600649489 751.6205775570263" stroke-opacity="0.7" stroke-linejoin="round" stroke-miterlimit="10" stroke-width="2"/><path fill="rgb(255,255,255)" stroke="none" paint-order="stroke fill markers" d=" M 797.9258020506521 748.0648110341596 L 804.1850271645135 755.5102526579994 L 806.3858453952686 746.0356075926064 Z" fill-opacity="1"/><path fill="rgb(0,255,255)" stroke="none" paint-order="stroke fill markers" d=" M 797.9258020506521 748.0648110341596 L 804.1850271645135 755.5102526579994 L 806.3858453952686 746.0356075926064 Z" fill-opacity="0.7"/><path fill="none" stroke="rgb(203,143,255)" paint-order="fill stroke markers" d=" M 543.5708778613417 250.7965496269519 L 669.1589560567828 807.5392382814626" stroke-opacity="0.9" stroke-linejoin="round" stroke-miterlimit="10" stroke-width="3" stroke-dasharray="6,3"/><path fill="rgb(255,255,255)" stroke="none" paint-order="stroke fill markers" d=" M 664.3214500512225 805.8626239411419 L 670.4792407685693 813.3921732956092 L 672.8082058217351 803.9482111090514 Z" fill-opacity="1"/><path fill="rgb(203,143,255)" stroke="none" paint-order="stroke fill markers" d=" M 664.3214500512225 805.8626239411419 L 670.4792407685693 813.3921732956092 L 672.8082058217351 803.9482111090514 Z" fill-opacity="0.9"/><path fill="none" stroke="rgb(203,143,255)" paint-order="fill stroke markers" d=" M 545.7163672752131 572.3256842917818 L 666.607563240287 233.47080786923243" stroke-opacity="0.9" stroke-linejoin="round" stroke-miterlimit="10" stroke-width="3" stroke-dasharray="6,3"/><path fill="rgb(255,255,255)" stroke="none" paint-order="stroke fill markers" d=" M 669.7973784666478 237.47550246703602 L 668.6236823565724 227.81967845035086 L 661.6032408092696 234.5521297484223 Z" fill-opacity="1"/><path fill="rgb(203,143,255)" stroke="none" paint-order="stroke fill markers" d=" M 669.7973784666478 237.47550246703602 L 668.6236823565724 227.81967845035086 L 661.6032408092696 234.5521297484223 Z" fill-opacity="0.9"/><path fill="none" stroke="rgb(203,143,255)" paint-order="fill stroke markers" d=" M 556.8723705230329 239.11008981150846 L 926.5631818190855 374.45527826549153" stroke-opacity="0.9" stroke-linejoin="round" stroke-miterlimit="10" stroke-width="3" stroke-dasharray="6,3"/><path fill="rgb(255,255,255)" stroke="none" paint-order="stroke fill markers" d=" M 922.5322741924774 377.6119036322008 L 932.19746415088 376.51801009625103 L 925.5232353470786 369.4421942510987 Z" fill-opacity="1"/><path fill="rgb(203,143,255)" stroke="none" paint-order="stroke fill markers" d=" M 922.5322741924774 377.6119036322008 L 932.19746415088 376.51801009625103 L 925.5232353470786 369.4421942510987 Z" fill-opacity="0.9"/><path fill="none" stroke="rgb(255,0,102)" paint-order="fill stroke markers" d=" M 79.4447463715879 394.92402991715346 L 182.3918421738333 461.3415110798924" stroke-opacity="0.7" stroke-linejoin="round" stroke-miterlimit="10" stroke-width="2"/><path fill="rgb(255,255,255)" stroke="none" paint-order="stroke fill markers" d=" M 176.08419604345323 462.44880521150407 L 185.75302876673027 463.5100185591808 L 180.80069981090543 455.13822437195313 Z" fill-opacity="1"/><path fill="rgb(255,0,102)" stroke="none" paint-order="stroke fill markers" d=" M 176.08419604345323 462.44880521150407 L 185.75302876673027 463.5100185591808 L 180.80069981090543 455.13822437195313 Z" fill-opacity="0.7"/><path fill="none" stroke="rgb(255,0,102)" paint-order="fill stroke markers" d=" M 81.2273378841688 436.16204447876413 L 179.32801301158483 467.80742355212413" stroke-opacity="0.7" stroke-linejoin="round" stroke-miterlimit="10" stroke-width="2"/><path fill="rgb(255,255,255)" stroke="none" paint-order="stroke fill markers" d=" M 173.51952041544624 470.50444297374554 L 183.13484748262704 469.03543467181515 L 176.19044460077424 462.22457799922876 Z" fill-opacity="1"/><path fill="rgb(255,0,102)" stroke="none" paint-order="stroke fill markers" d=" M 173.51952041544624 470.50444297374554 L 183.13484748262704 469.03543467181515 L 176.19044460077424 462.22457799922876 Z" fill-opacity="0.7"/><path fill="none" stroke="rgb(255,102,0)" paint-order="fill stroke markers" d=" M 229 476.25 L 375 476.25" stroke-opacity="0.7" stroke-linejoin="round" stroke-miterlimit="10" stroke-width="2"/><path fill="rgb(255,255,255)" stroke="none" paint-order="stroke fill markers" d=" M 370.3 480.6 L 379 476.25 L 370.3 471.9 Z" fill-opacity="1"/><path fill="rgb(255,102,0)" stroke="none" paint-order="stroke fill markers" d=" M 370.3 480.6 L 379 476.25 L 370.3 471.9 Z" fill-opacity="0.7"/><path fill="none" stroke="rgb(255,153,119)" paint-order="fill stroke markers" d=" M 416.9803115732056 488.60593051440725 L 788.6896364979268 759.0847477331915" stroke-opacity="0.9" stroke-linejoin="round" stroke-miterlimit="10" stroke-width="3" stroke-dasharray="6,3"/><path fill="rgb(255,255,255)" stroke="none" paint-order="stroke fill markers" d=" M 783.9470108319588 761.0134783500747 L 793.5411540902712 762.6150135944508 L 789.0658963307847 753.9787778411752 Z" fill-opacity="1"/><path fill="rgb(255,153,119)" stroke="none" paint-order="stroke fill markers" d=" M 783.9470108319588 761.0134783500747 L 793.5411540902712 762.6150135944508 L 789.0658963307847 753.9787778411752 Z" fill-opacity="0.9"/><path fill="none" stroke="rgb(255,153,119)" paint-order="fill stroke markers" d=" M 420.69830839316666 479.796833751583 L 784.3519735413056 542.1120272898198" stroke-opacity="0.9" stroke-linejoin="round" stroke-miterlimit="10" stroke-width="3" stroke-dasharray="6,3"/><path fill="rgb(255,255,255)" stroke="none" paint-order="stroke fill markers" d=" M 780.9560611850707 545.943512546058 L 790.2657759393533 543.1254083617007 L 782.4254637392978 537.3684990688889 Z" fill-opacity="1"/><path fill="rgb(255,153,119)" stroke="none" paint-order="stroke fill markers" d=" M 780.9560611850707 545.943512546058 L 790.2657759393533 543.1254083617007 L 782.4254637392978 537.3684990688889 Z" fill-opacity="0.9"/><path fill="none" stroke="rgb(255,153,119)" paint-order="fill stroke markers" d=" M 413.9824195634135 460.5818174904467 L 792.1871771760177 36.77954626114547" stroke-opacity="0.9" stroke-linejoin="round" stroke-miterlimit="10" stroke-width="3" stroke-dasharray="6,3"/><path fill="rgb(255,255,255)" stroke="none" paint-order="stroke fill markers" d=" M 793.6349896091291 41.690385207652284 L 796.1821541941358 32.302922686987415 L 787.1438854265999 35.89766853138099 Z" fill-opacity="1"/><path fill="rgb(255,153,119)" stroke="none" paint-order="stroke fill markers" d=" M 793.6349896091291 41.690385207652284 L 796.1821541941358 32.302922686987415 L 787.1438854265999 35.89766853138099 Z" fill-opacity="0.9"/><path fill="none" stroke="rgb(255,153,119)" paint-order="fill stroke markers" d=" M 417.1435219181843 464.121535289216 L 788.4992244287848 201.39987549591467" stroke-opacity="0.9" stroke-linejoin="round" stroke-miterlimit="10" stroke-width="3" stroke-dasharray="6,3"/><path fill="rgb(255,255,255)" stroke="none" paint-order="stroke fill markers" d=" M 788.8073821579665 206.51040764178225 L 793.3973735482662 197.9345998642621 L 783.7827324920703 199.40809141853444 Z" fill-opacity="1"/><path fill="rgb(255,153,119)" stroke="none" paint-order="stroke fill markers" d=" M 788.8073821579665 206.51040764178225 L 793.3973735482662 197.9345998642621 L 783.7827324920703 199.40809141853444 Z" fill-opacity="0.9"/><path fill="none" stroke="rgb(255,153,119)" paint-order="fill stroke markers" d=" M 410.4390584110745 458.02841775557965 L 527.3210985204131 254.0085126184904" stroke-opacity="0.9" stroke-linejoin="round" stroke-miterlimit="10" stroke-width="3" stroke-dasharray="6,3"/><path fill="rgb(255,255,255)" stroke="none" paint-order="stroke fill markers" d=" M 529.7534044753335 258.51366386363844 L 530.3036866378629 248.80234626294174 L 522.2044632597879 254.18891109333617 Z" fill-opacity="1"/><path fill="rgb(255,153,119)" stroke="none" paint-order="stroke fill markers" d=" M 529.7534044753335 258.51366386363844 L 530.3036866378629 248.80234626294174 L 522.2044632597879 254.18891109333617 Z" fill-opacity="0.9"/><path fill="none" stroke="rgb(0,255,255)" paint-order="fill stroke markers" d=" M 683.1082399912254 199.59553443646445 L 795.6915375123393 36.99846719872184" stroke-opacity="0.7" stroke-linejoin="round" stroke-miterlimit="10" stroke-width="2"/><path fill="rgb(255,255,255)" stroke="none" paint-order="stroke fill markers" d=" M 796.5923623400031 43.338894205624825 L 797.9685975101456 33.70985080783797 L 789.4396216898306 38.38628871039602 Z" fill-opacity="1"/><path fill="rgb(0,255,255)" stroke="none" paint-order="stroke fill markers" d=" M 796.5923623400031 43.338894205624825 L 797.9685975101456 33.70985080783797 L 789.4396216898306 38.38628871039602 Z" fill-opacity="0.7"/><path fill="none" stroke="rgb(255,153,119)" paint-order="fill stroke markers" d=" M 411.99361373716357 493.48813300574403 L 525.5074506399759 656.6388448266321" stroke-opacity="0.9" stroke-linejoin="round" stroke-miterlimit="10" stroke-width="3" stroke-dasharray="6,3"/><path fill="rgb(255,255,255)" stroke="none" paint-order="stroke fill markers" d=" M 520.3946584654365 656.9069048571631 L 528.9341974220226 661.564025685416 L 527.5361707106733 651.9381220231953 Z" fill-opacity="1"/><path fill="rgb(255,153,119)" stroke="none" paint-order="stroke fill markers" d=" M 520.3946584654365 656.9069048571631 L 528.9341974220226 661.564025685416 L 527.5361707106733 651.9381220231953 Z" fill-opacity="0.9"/><path fill="none" stroke="rgb(255,153,119)" paint-order="fill stroke markers" d=" M 415.2217315353055 490.71716589616244 L 790.7413132088102 847.6216397878105" stroke-opacity="0.9" stroke-linejoin="round" stroke-miterlimit="10" stroke-width="3" stroke-dasharray="6,3"/><path fill="rgb(255,255,255)" stroke="none" paint-order="stroke fill markers" d=" M 785.7874633614945 848.9146485620458 L 795.0903793617547 851.7551157581427 L 791.781003518476 842.6085026402764 Z" fill-opacity="1"/><path fill="rgb(255,153,119)" stroke="none" paint-order="stroke fill markers" d=" M 785.7874633614945 848.9146485620458 L 795.0903793617547 851.7551157581427 L 791.781003518476 842.6085026402764 Z" fill-opacity="0.9"/><path fill="none" stroke="rgb(255,153,119)" paint-order="fill stroke markers" d=" M 416.2894608013694 489.5034322649135 L 520.495629065069 574.2876623576009" stroke-opacity="0.9" stroke-linejoin="round" stroke-miterlimit="10" stroke-width="3" stroke-dasharray="6,3"/><path fill="rgb(255,255,255)" stroke="none" paint-order="stroke fill markers" d=" M 515.6559159928752 575.9578950895386 L 525.1497607226031 578.0743572904333 L 521.1466236454821 569.209404186114 Z" fill-opacity="1"/><path fill="rgb(255,153,119)" stroke="none" paint-order="stroke fill markers" d=" M 515.6559159928752 575.9578950895386 L 525.1497607226031 578.0743572904333 L 521.1466236454821 569.209404186114 Z" fill-opacity="0.9"/><path fill="none" stroke="rgb(203,143,255)" paint-order="fill stroke markers" d=" M 811.7865191830733 846.294264869023 L 948.9164521621565 86.66040932853537" stroke-opacity="0.9" stroke-linejoin="round" stroke-miterlimit="10" stroke-width="3" stroke-dasharray="6,3"/><path fill="rgb(255,255,255)" stroke="none" paint-order="stroke fill markers" d=" M 952.7176060013701 90.09023869610337 L 949.9823502755856 80.75584658335367 L 944.1559900208565 88.544686431631 Z" fill-opacity="1"/><path fill="rgb(203,143,255)" stroke="none" paint-order="stroke fill markers" d=" M 952.7176060013701 90.09023869610337 L 949.9823502755856 80.75584658335367 L 944.1559900208565 88.544686431631 Z" fill-opacity="0.9"/><path fill="none" stroke="rgb(255,0,102)" paint-order="fill stroke markers" d=" M 81.2273378841688 516.3379555212359 L 179.32801301158483 484.69257644787587" stroke-opacity="0.7" stroke-linejoin="round" stroke-miterlimit="10" stroke-width="2"/><path fill="rgb(255,255,255)" stroke="none" paint-order="stroke fill markers" d=" M 176.19044460077424 490.27542200077124 L 183.13484748262704 483.46456532818485 L 173.51952041544624 481.99555702625446 Z" fill-opacity="1"/><path fill="rgb(255,0,102)" stroke="none" paint-order="stroke fill markers" d=" M 176.19044460077424 490.27542200077124 L 183.13484748262704 483.46456532818485 L 173.51952041544624 481.99555702625446 Z" fill-opacity="0.7"/><path fill="none" stroke="rgb(255,0,102)" paint-order="fill stroke markers" d=" M 79.4447463715879 557.5759700828465 L 182.3918421738333 491.1584889201076" stroke-opacity="0.7" stroke-linejoin="round" stroke-miterlimit="10" stroke-width="2"/><path fill="rgb(255,255,255)" stroke="none" paint-order="stroke fill markers" d=" M 180.80069981090543 497.36177562804687 L 185.75302876673027 488.9899814408192 L 176.08419604345323 490.05119478849593 Z" fill-opacity="1"/><path fill="rgb(255,0,102)" stroke="none" paint-order="stroke fill markers" d=" M 180.80069981090543 497.36177562804687 L 185.75302876673027 488.9899814408192 L 176.08419604345323 490.05119478849593 Z" fill-opacity="0.7"/><path fill="none" stroke="rgb(203,143,255)" paint-order="fill stroke markers" d=" M 813.7884194915224 528.5219820825428 L 945.3160729316193 87.61055276702905" stroke-opacity="0.9" stroke-linejoin="round" stroke-miterlimit="10" stroke-width="3" stroke-dasharray="6,3"/><path fill="rgb(255,255,255)" stroke="none" paint-order="stroke fill markers" d=" M 948.7127294350695 91.44137834352938 L 947.0312360099508 81.86092533434015 L 940.3757696576706 88.95439187994859 Z" fill-opacity="1"/><path fill="rgb(203,143,255)" stroke="none" paint-order="stroke fill markers" d=" M 948.7127294350695 91.44137834352938 L 947.0312360099508 81.86092533434015 L 940.3757696576706 88.95439187994859 Z" fill-opacity="0.9"/><path fill="none" stroke="rgb(203,143,255)" paint-order="fill stroke markers" d=" M 551.7482807931342 690.6146895966891 L 659.4344768946511 812.5122610201535" stroke-opacity="0.9" stroke-linejoin="round" stroke-miterlimit="10" stroke-width="3" stroke-dasharray="6,3"/><path fill="rgb(255,255,255)" stroke="none" paint-order="stroke fill markers" d=" M 654.3868143061615 813.3687669411845 L 663.406892287019 817.0089171055662 L 660.9069656300098 807.6087646222511 Z" fill-opacity="1"/><path fill="rgb(203,143,255)" stroke="none" paint-order="stroke fill markers" d=" M 654.3868143061615 813.3687669411845 L 663.406892287019 817.0089171055662 L 660.9069656300098 807.6087646222511 Z" fill-opacity="0.9"/><path fill="none" stroke="rgb(203,143,255)" paint-order="fill stroke markers" d=" M 548.5658324191588 605.8763970727416 L 663.2190100961354 809.8226629405235" stroke-opacity="0.9" stroke-linejoin="round" stroke-miterlimit="10" stroke-width="3" stroke-dasharray="6,3"/><path fill="rgb(255,255,255)" stroke="none" paint-order="stroke fill markers" d=" M 658.104006052992 809.6007763960337 L 666.1592800699167 815.0528457749261 L 665.6877711628758 805.3373849340509 Z" fill-opacity="1"/><path fill="rgb(203,143,255)" stroke="none" paint-order="stroke fill markers" d=" M 658.104006052992 809.6007763960337 L 666.1592800699167 815.0528457749261 L 665.6877711628758 805.3373849340509 Z" fill-opacity="0.9"/><path fill="none" stroke="rgb(203,143,255)" paint-order="fill stroke markers" d=" M 554.6197159589818 666.0895971314537 L 932.8224991208444 399.43154314097285" stroke-opacity="0.9" stroke-linejoin="round" stroke-miterlimit="10" stroke-width="3" stroke-dasharray="6,3"/><path fill="rgb(255,255,255)" stroke="none" paint-order="stroke fill markers" d=" M 933.1224731418674 404.5425621770077 L 937.7261907832169 395.97411518360644 L 928.1092026036862 397.4322092665676 Z" fill-opacity="1"/><path fill="rgb(203,143,255)" stroke="none" paint-order="stroke fill markers" d=" M 933.1224731418674 404.5425621770077 L 937.7261907832169 395.97411518360644 L 928.1092026036862 397.4322092665676 Z" fill-opacity="0.9"/><path fill="none" stroke="rgb(0,255,136)" paint-order="fill stroke markers" d=" M 969.38497493315 85.01247252630876 L 1099.2417944645267 308.79089108981316" stroke-opacity="0.7" stroke-linejoin="round" stroke-miterlimit="10" stroke-width="2"/><path fill="rgb(255,255,255)" stroke="none" paint-order="stroke fill markers" d=" M 1093.1204225401475 306.90905534686834 L 1101.2494226327944 312.25057736720555 L 1100.6452401934762 302.54246408088574 Z" fill-opacity="1"/><path fill="rgb(0,255,136)" stroke="none" paint-order="stroke fill markers" d=" M 1093.1204225401475 306.90905534686834 L 1101.2494226327944 312.25057736720555 L 1100.6452401934762 302.54246408088574 Z" fill-opacity="0.7"/><path fill="none" stroke="rgb(0,255,255)" paint-order="fill stroke markers" d=" M 689.7199688133451 209.76963416549964 L 786.3937938562335 191.44113945476616" stroke-opacity="0.7" stroke-linejoin="round" stroke-miterlimit="10" stroke-width="2"/><path fill="rgb(255,255,255)" stroke="none" paint-order="stroke fill markers" d=" M 782.5863399785682 196.59048843977885 L 790.3237860595698 190.69604799614106 L 780.9657660560586 188.04275539752243 Z" fill-opacity="1"/><path fill="rgb(0,255,255)" stroke="none" paint-order="stroke fill markers" d=" M 782.5863399785682 196.59048843977885 L 790.3237860595698 190.69604799614106 L 780.9657660560586 188.04275539752243 Z" fill-opacity="0.7"/><path fill="none" stroke="rgb(0,255,255)" paint-order="fill stroke markers" d=" M 688.7902906776785 822.8969432519616 L 787.7011537345146 782.082423551929" stroke-opacity="0.7" stroke-linejoin="round" stroke-miterlimit="10" stroke-width="2"/><path fill="rgb(255,255,255)" stroke="none" paint-order="stroke fill markers" d=" M 785.0157744013195 787.8963067496591 L 791.3987264039342 780.5566593649194 L 781.6972372945736 779.8540861936714 Z" fill-opacity="1"/><path fill="rgb(0,255,255)" stroke="none" paint-order="stroke fill markers" d=" M 785.0157744013195 787.8963067496591 L 791.3987264039342 780.5566593649194 L 781.6972372945736 779.8540861936714 Z" fill-opacity="0.7"/><path fill="none" stroke="rgb(203,143,255)" paint-order="fill stroke markers" d=" M 544.6505828779016 658.9814464286519 L 667.8749825235765 233.8801718145761" stroke-opacity="0.9" stroke-linejoin="round" stroke-miterlimit="10" stroke-width="3" stroke-dasharray="6,3"/><path fill="rgb(255,255,255)" stroke="none" paint-order="stroke fill markers" d=" M 671.301287078443 237.68450317465783 L 669.5454418353283 228.11739768332808 L 662.9452645881333 235.26233717261763 Z" fill-opacity="1"/><path fill="rgb(203,143,255)" stroke="none" paint-order="stroke fill markers" d=" M 671.301287078443 237.68450317465783 L 669.5454418353283 228.11739768332808 L 662.9452645881333 235.26233717261763 Z" fill-opacity="0.9"/><path fill="none" stroke="rgb(0,255,136)" paint-order="fill stroke markers" d=" M 977.1405727728203 376.932013935933 L 1085.0844104586004 341.62962676825646" stroke-opacity="0.25" stroke-linejoin="round" stroke-miterlimit="10" stroke-width="2"/><path fill="rgb(255,255,255)" stroke="none" paint-order="stroke fill markers" d=" M 1081.9694078294988 347.22509445386504 L 1088.8862559241707 340.3862559241706 L 1079.265076243612 338.9560805662497 Z" fill-opacity="1"/><path fill="rgb(0,255,136)" stroke="none" paint-order="stroke fill markers" d=" M 1081.9694078294988 347.22509445386504 L 1088.8862559241707 340.3862559241706 L 1079.265076243612 338.9560805662497 Z" fill-opacity="0.25"/><path fill="none" stroke="rgb(0,255,255)" paint-order="fill stroke markers" d=" M 679.9844192738672 227.58869016977468 L 800.0844103961243 525.3830919487543" stroke-opacity="0.7" stroke-linejoin="round" stroke-miterlimit="10" stroke-width="2"/><path fill="rgb(255,255,255)" stroke="none" paint-order="stroke fill markers" d=" M 794.2922183445183 522.6512407014657 L 801.5805152145911 529.0927644911981 L 802.3607561243333 519.3972127213004 Z" fill-opacity="1"/><path fill="rgb(0,255,255)" stroke="none" paint-order="stroke fill markers" d=" M 794.2922183445183 522.6512407014657 L 801.5805152145911 529.0927644911981 L 802.3607561243333 519.3972127213004 Z" fill-opacity="0.7"/><path fill="none" stroke="rgb(203,143,255)" paint-order="fill stroke markers" d=" M 557.7988004509451 230.0289887805286 L 652.2392643286057 215.98579712585789" stroke-opacity="0.9" stroke-linejoin="round" stroke-miterlimit="10" stroke-width="3" stroke-dasharray="6,3"/><path fill="rgb(255,255,255)" stroke="none" paint-order="stroke fill markers" d=" M 650.2084339279111 220.68560859905702 L 658.1740104208042 215.10330700062391 L 648.9288232463218 212.0802267653693 Z" fill-opacity="1"/><path fill="rgb(203,143,255)" stroke="none" paint-order="stroke fill markers" d=" M 650.2084339279111 220.68560859905702 L 658.1740104208042 215.10330700062391 L 648.9288232463218 212.0802267653693 Z" fill-opacity="0.9"/><path fill="rgb(239,68,68)" stroke="rgb(0,0,0)" paint-order="fill stroke markers" d=" M 420 476.25 L 419.93834667466257 477.8191819145569 L 419.7537668119028 479.37868930080464 L 419.44739840795353 480.9189072771181 L 419.0211303259031 482.430339887499 L 418.47759065022575 483.9036686473018 L 417.82013048376734 485.32980999479093 L 417.0528032870818 486.69997129431897 L 416.180339887499 488.0057050458495 L 415.20811931200063 489.23896096660366 L 414.14213562373095 490.39213562373095 L 412.98896096660366 491.45811931200063 L 411.7557050458495 492.430339887499 L 410.44997129431897 493.3028032870818 L 409.07980999479093 494.07013048376734 L 407.6536686473018 494.72759065022575 L 406.180339887499 495.2711303259031 L 404.66890727711814 495.69739840795353 L 403.12868930080464 496.0037668119028 L 401.5691819145569 496.18834667466257 L 400 496.25 L 398.4308180854431 496.18834667466257 L 396.87131069919536 496.0037668119028 L 395.3310927228819 495.69739840795353 L 393.819660112501 495.2711303259031 L 392.3463313526982 494.72759065022575 L 390.92019000520907 494.07013048376734 L 389.55002870568103 493.3028032870819 L 388.2442949541505 492.430339887499 L 387.01103903339634 491.45811931200063 L 385.85786437626905 490.39213562373095 L 384.79188068799937 489.23896096660366 L 383.8196601125011 488.0057050458495 L 382.9471967129182 486.69997129431897 L 382.17986951623266 485.32980999479093 L 381.52240934977425 483.9036686473018 L 380.9788696740969 482.430339887499 L 380.55260159204647 480.91890727711814 L 380.2462331880972 479.37868930080464 L 380.06165332533743 477.8191819145569 L 380 476.25 L 380.06165332533743 474.6808180854431 L 380.2462331880972 473.12131069919536 L 380.55260159204647 471.5810927228819 L 380.9788696740969 470.0696601125011 L 381.52240934977425 468.5963313526982 L 382.17986951623266 467.17019000520907 L 382.9471967129181 465.80002870568103 L 383.819660112501 464.4942949541505 L 384.79188068799937 463.26103903339634 L 385.85786437626905 462.10786437626905 L 387.01103903339634 461.04188068799937 L 388.2442949541505 460.0696601125011 L 389.55002870568103 459.1971967129181 L 390.92019000520907 458.42986951623266 L 392.3463313526982 457.77240934977425 L 393.8196601125011 457.2288696740969 L 395.3310927228819 456.80260159204647 L 396.8713106991954 456.4962331880972 L 398.43081808544315 456.31165332533743 L 400.00000000000006 456.25 L 401.56918191455696 456.31165332533743 L 403.1286893008047 456.4962331880973 L 404.6689072771182 456.80260159204647 L 406.18033988749903 457.228869674097 L 407.6536686473019 457.7724093497743 L 409.07980999479105 458.4298695162327 L 410.4499712943191 459.19719671291824 L 411.7557050458496 460.06966011250114 L 412.98896096660377 461.0418806879995 L 414.14213562373106 462.10786437626916 L 415.20811931200075 463.26103903339646 L 416.18033988749903 464.4942949541507 L 417.05280328708193 465.8000287056812 L 417.82013048376746 467.17019000520924 L 418.4775906502258 468.59633135269837 L 419.02113032590313 470.06966011250125 L 419.4473984079536 471.5810927228821 L 419.7537668119028 473.1213106991956 L 419.93834667466257 474.6808180854433 Z" fill-opacity="1" stroke-opacity="1" stroke-miterlimit="10" stroke-width="2"/><text fill="none" stroke="rgb(0,0,0)" font-family="Helvetica Neue, Helvetica, sans-serif" font-size="10px" font-style="normal" font-weight="normal" text-decoration="normal" x="400" y="456.25" text-anchor="middle" dominant-baseline="text-after-edge" stroke-opacity="1" stroke-linejoin="round" stroke-miterlimit="10" stroke-width="4">host_node_3b2819dd</text><text fill="rgb(255,255,255)" stroke="none" font-family="Helvetica Neue, Helvetica, sans-serif" font-size="10px" font-style="normal" font-weight="normal" text-decoration="normal" x="400" y="456.25" text-anchor="middle" dominant-baseline="text-after-edge" fill-opacity="1">host_node_3b2819dd</text><path fill="rgb(255,0,102)" stroke="rgb(0,0,0)" paint-order="fill stroke markers" d=" M 228 476.25 L 227.93064000899537 478.0153296538765 L 227.7229876633906 479.7697754634052 L 227.37832320894773 481.50252068675786 L 226.89877161664094 483.2028823734363 L 226.28728948150396 484.86037722821453 L 225.5476467942383 486.4647862441398 L 224.68440369796707 488.0062177061088 L 223.70288237343632 489.47516817658067 L 222.6091342260007 490.86258108742913 L 221.40990257669733 492.15990257669733 L 220.11258108742913 493.3591342260007 L 218.72516817658064 494.4528823734363 L 217.25621770610886 495.43440369796707 L 215.71478624413982 496.2976467942383 L 214.11037722821453 497.03728948150393 L 212.45288237343632 497.64877161664094 L 210.75252068675786 498.12832320894773 L 209.01977546340518 498.4729876633906 L 207.2653296538765 498.6806400089954 L 205.5 498.75 L 203.7346703461235 498.6806400089954 L 201.98022453659482 498.4729876633906 L 200.24747931324214 498.12832320894773 L 198.54711762656368 497.64877161664094 L 196.88962277178547 497.03728948150393 L 195.2852137558602 496.2976467942383 L 193.74378229389114 495.43440369796707 L 192.27483182341936 494.4528823734363 L 190.88741891257087 493.3591342260007 L 189.5900974233027 492.15990257669733 L 188.3908657739993 490.86258108742913 L 187.29711762656368 489.47516817658067 L 186.31559630203293 488.0062177061088 L 185.4523532057617 486.4647862441398 L 184.71271051849604 484.86037722821453 L 184.10122838335906 483.2028823734363 L 183.62167679105227 481.50252068675786 L 183.2770123366094 479.7697754634052 L 183.06935999100463 478.0153296538765 L 183 476.25 L 183.06935999100463 474.4846703461235 L 183.2770123366094 472.7302245365948 L 183.62167679105227 470.99747931324214 L 184.10122838335906 469.2971176265637 L 184.71271051849604 467.63962277178547 L 185.4523532057617 466.0352137558602 L 186.31559630203293 464.4937822938912 L 187.29711762656368 463.02483182341933 L 188.3908657739993 461.63741891257087 L 189.59009742330267 460.34009742330267 L 190.88741891257087 459.14086577399934 L 192.27483182341936 458.0471176265637 L 193.74378229389114 457.06559630203293 L 195.2852137558602 456.2023532057617 L 196.8896227717855 455.462710518496 L 198.5471176265637 454.85122838335906 L 200.24747931324217 454.37167679105227 L 201.98022453659485 454.0270123366094 L 203.73467034612355 453.8193599910046 L 205.50000000000009 453.75 L 207.2653296538766 453.8193599910046 L 209.0197754634053 454.0270123366094 L 210.75252068675798 454.3716767910523 L 212.45288237343644 454.85122838335906 L 214.11037722821465 455.4627105184961 L 215.71478624413993 456.20235320576177 L 217.25621770610897 457.065596302033 L 218.72516817658078 458.04711762656376 L 220.11258108742925 459.1408657739994 L 221.40990257669745 460.3400974233028 L 222.6091342260008 461.637418912571 L 223.70288237343644 463.0248318234195 L 224.68440369796718 464.49378229389134 L 225.54764679423837 466.0352137558604 L 226.28728948150405 467.6396227717857 L 226.89877161664103 469.29711762656393 L 227.3783232089478 470.99747931324237 L 227.72298766339065 472.7302245365951 L 227.9306400089954 474.4846703461238 Z" fill-opacity="1" stroke-opacity="1" stroke-miterlimit="10" stroke-width="2"/><text fill="none" stroke="rgb(0,0,0)" font-family="Helvetica Neue, Helvetica, sans-serif" font-size="10px" font-style="normal" font-weight="normal" text-decoration="normal" x="205.5" y="453.75" text-anchor="middle" dominant-baseline="text-after-edge" stroke-opacity="1" stroke-linejoin="round" stroke-miterlimit="10" stroke-width="4">Hacker</text><text fill="rgb(255,255,255)" stroke="none" font-family="Helvetica Neue, Helvetica, sans-serif" font-size="10px" font-style="normal" font-weight="normal" text-decoration="normal" x="205.5" y="453.75" text-anchor="middle" dominant-baseline="text-after-edge" fill-opacity="1">Hacker</text><path fill="rgb(99,102,241)" stroke="rgb(255,0,102)" paint-order="fill stroke markers" d=" M 81 431.25 L 80.95376000599691 432.42688643591765 L 80.81532510892707 433.59651697560344 L 80.58554880596515 434.7516804578386 L 80.2658477444273 435.8852549156242 L 79.8581929876693 436.99025148547634 L 79.36509786282552 438.0598574960932 L 78.78960246531139 439.08747847073926 L 78.13525491562422 440.0667787843871 L 77.40608948400046 440.99172072495276 L 76.60660171779821 441.8566017177982 L 75.74172072495276 442.65608948400046 L 74.8167787843871 443.3852549156242 L 73.83747847073923 444.03960246531136 L 72.8098574960932 444.6150978628255 L 71.74025148547635 445.1081929876693 L 70.63525491562422 445.5158477444273 L 69.50168045783859 445.8355488059652 L 68.34651697560346 446.0653251089271 L 67.17688643591768 446.2037600059969 L 66 446.25 L 64.82311356408232 446.2037600059969 L 63.653483024396536 446.0653251089271 L 62.49831954216142 445.8355488059652 L 61.36474508437579 445.51584774442733 L 60.25974851452365 445.1081929876693 L 59.1901425039068 444.6150978628255 L 58.16252152926077 444.03960246531136 L 57.1832212156129 443.3852549156242 L 56.258279275047244 442.65608948400046 L 55.39339828220179 441.8566017177982 L 54.59391051599954 440.99172072495276 L 53.86474508437579 440.0667787843871 L 53.21039753468862 439.08747847073926 L 52.634902137174485 438.05985749609323 L 52.1418070123307 436.99025148547634 L 51.734152255572695 435.8852549156242 L 51.414451194034854 434.7516804578386 L 51.18467489107294 433.5965169756035 L 51.04623999400308 432.42688643591765 L 51 431.25 L 51.04623999400308 430.07311356408235 L 51.18467489107293 428.90348302439656 L 51.414451194034854 427.7483195421614 L 51.734152255572695 426.6147450843758 L 52.141807012330695 425.50974851452366 L 52.63490213717448 424.4401425039068 L 53.21039753468862 423.41252152926074 L 53.864745084375784 422.4332212156129 L 54.59391051599953 421.50827927504724 L 55.39339828220179 420.6433982822018 L 56.25827927504724 419.84391051599954 L 57.1832212156129 419.1147450843758 L 58.16252152926077 418.46039753468864 L 59.190142503906806 417.8849021371745 L 60.25974851452367 417.3918070123307 L 61.36474508437581 416.98415225557267 L 62.49831954216145 416.6644511940348 L 63.65348302439657 416.4346748910729 L 64.82311356408238 416.2962399940031 L 66.00000000000006 416.25 L 67.17688643591774 416.2962399940031 L 68.34651697560352 416.4346748910729 L 69.50168045783865 416.6644511940349 L 70.63525491562429 416.9841522555727 L 71.74025148547642 417.39180701233073 L 72.80985749609329 417.88490213717455 L 73.83747847073931 418.4603975346887 L 74.81677878438718 419.11474508437584 L 75.74172072495284 419.8439105159996 L 76.6066017177983 420.6433982822019 L 77.40608948400055 421.50827927504736 L 78.13525491562429 422.433221215613 L 78.78960246531145 423.41252152926086 L 79.36509786282558 424.44014250390694 L 79.85819298766936 425.5097485145238 L 80.26584774442735 426.61474508437595 L 80.58554880596519 427.7483195421616 L 80.8153251089271 428.9034830243967 L 80.95376000599694 430.0731135640825 Z" fill-opacity="1" stroke-opacity="1" stroke-miterlimit="10" stroke-width="2"/><text fill="none" stroke="rgb(0,0,0)" font-family="Helvetica Neue, Helvetica, sans-serif" font-size="10px" font-style="normal" font-weight="normal" text-decoration="normal" x="66" y="416.25" text-anchor="middle" dominant-baseline="text-after-edge" stroke-opacity="1" stroke-linejoin="round" stroke-miterlimit="10" stroke-width="4">AV:N</text><text fill="rgb(255,255,255)" stroke="none" font-family="Helvetica Neue, Helvetica, sans-serif" font-size="10px" font-style="normal" font-weight="normal" text-decoration="normal" x="66" y="416.25" text-anchor="middle" dominant-baseline="text-after-edge" fill-opacity="1">AV:N</text><path fill="rgb(99,102,241)" stroke="rgb(255,0,102)" paint-order="fill stroke markers" d=" M 81 386.25 L 80.95376000599691 387.42688643591765 L 80.81532510892707 388.59651697560344 L 80.58554880596515 389.7516804578386 L 80.2658477444273 390.8852549156242 L 79.8581929876693 391.99025148547634 L 79.36509786282552 393.0598574960932 L 78.78960246531139 394.08747847073926 L 78.13525491562422 395.0667787843871 L 77.40608948400046 395.99172072495276 L 76.60660171779821 396.8566017177982 L 75.74172072495276 397.65608948400046 L 74.8167787843871 398.3852549156242 L 73.83747847073923 399.03960246531136 L 72.8098574960932 399.6150978628255 L 71.74025148547635 400.1081929876693 L 70.63525491562422 400.5158477444273 L 69.50168045783859 400.8355488059652 L 68.34651697560346 401.0653251089271 L 67.17688643591768 401.2037600059969 L 66 401.25 L 64.82311356408232 401.2037600059969 L 63.653483024396536 401.0653251089271 L 62.49831954216142 400.8355488059652 L 61.36474508437579 400.51584774442733 L 60.25974851452365 400.1081929876693 L 59.1901425039068 399.6150978628255 L 58.16252152926077 399.03960246531136 L 57.1832212156129 398.3852549156242 L 56.258279275047244 397.65608948400046 L 55.39339828220179 396.8566017177982 L 54.59391051599954 395.99172072495276 L 53.86474508437579 395.0667787843871 L 53.21039753468862 394.08747847073926 L 52.634902137174485 393.05985749609323 L 52.1418070123307 391.99025148547634 L 51.734152255572695 390.8852549156242 L 51.414451194034854 389.7516804578386 L 51.18467489107294 388.5965169756035 L 51.04623999400308 387.42688643591765 L 51 386.25 L 51.04623999400308 385.07311356408235 L 51.18467489107293 383.90348302439656 L 51.414451194034854 382.7483195421614 L 51.734152255572695 381.6147450843758 L 52.141807012330695 380.50974851452366 L 52.63490213717448 379.4401425039068 L 53.21039753468862 378.41252152926074 L 53.864745084375784 377.4332212156129 L 54.59391051599953 376.50827927504724 L 55.39339828220179 375.6433982822018 L 56.25827927504724 374.84391051599954 L 57.1832212156129 374.1147450843758 L 58.16252152926077 373.46039753468864 L 59.190142503906806 372.8849021371745 L 60.25974851452367 372.3918070123307 L 61.36474508437581 371.98415225557267 L 62.49831954216145 371.6644511940348 L 63.65348302439657 371.4346748910729 L 64.82311356408238 371.2962399940031 L 66.00000000000006 371.25 L 67.17688643591774 371.2962399940031 L 68.34651697560352 371.4346748910729 L 69.50168045783865 371.6644511940349 L 70.63525491562429 371.9841522555727 L 71.74025148547642 372.39180701233073 L 72.80985749609329 372.88490213717455 L 73.83747847073931 373.4603975346887 L 74.81677878438718 374.11474508437584 L 75.74172072495284 374.8439105159996 L 76.6066017177983 375.6433982822019 L 77.40608948400055 376.50827927504736 L 78.13525491562429 377.433221215613 L 78.78960246531145 378.41252152926086 L 79.36509786282558 379.44014250390694 L 79.85819298766936 380.5097485145238 L 80.26584774442735 381.61474508437595 L 80.58554880596519 382.7483195421616 L 80.8153251089271 383.9034830243967 L 80.95376000599694 385.0731135640825 Z" fill-opacity="1" stroke-opacity="1" stroke-miterlimit="10" stroke-width="2"/><text fill="none" stroke="rgb(0,0,0)" font-family="Helvetica Neue, Helvetica, sans-serif" font-size="10px" font-style="normal" font-weight="normal" text-decoration="normal" x="66" y="371.25" text-anchor="middle" dominant-baseline="text-after-edge" stroke-opacity="1" stroke-linejoin="round" stroke-miterlimit="10" stroke-width="4">PR:N</text><text fill="rgb(255,255,255)" stroke="none" font-family="Helvetica Neue, Helvetica, sans-serif" font-size="10px" font-style="normal" font-weight="normal" text-decoration="normal" x="66" y="371.25" text-anchor="middle" dominant-baseline="text-after-edge" fill-opacity="1">PR:N</text><path fill="rgb(234,179,8)" stroke="rgb(0,0,0)" paint-order="fill stroke markers" d=" M 557 589.75 L 556.9460533403297 591.1230341752373 L 556.7845459604149 592.487603138204 L 556.5164736069594 593.8352938674783 L 556.1434890351652 595.1577974015615 L 555.6678918189475 596.4469600663891 L 555.0926141732964 597.6948337454421 L 554.4212028761966 598.8937248825291 L 553.6577974015615 600.0362419151182 L 552.8071043980005 601.1153408457782 L 551.8743686707646 602.1243686707646 L 550.8653408457782 603.0571043980005 L 549.7862419151182 603.9077974015615 L 548.6437248825291 604.6712028761966 L 547.4448337454421 605.3426141732964 L 546.1969600663891 605.9178918189475 L 544.9077974015615 606.3934890351652 L 543.5852938674783 606.7664736069594 L 542.237603138204 607.0345459604149 L 540.8730341752373 607.1960533403297 L 539.5 607.25 L 538.1269658247627 607.1960533403297 L 536.762396861796 607.0345459604149 L 535.4147061325217 606.7664736069594 L 534.0922025984385 606.3934890351652 L 532.8030399336109 605.9178918189475 L 531.5551662545579 605.3426141732964 L 530.3562751174709 604.6712028761966 L 529.2137580848818 603.9077974015615 L 528.1346591542218 603.0571043980005 L 527.1256313292354 602.1243686707646 L 526.1928956019995 601.1153408457782 L 525.3422025984385 600.0362419151182 L 524.5787971238034 598.8937248825291 L 523.9073858267036 597.6948337454421 L 523.3321081810525 596.4469600663891 L 522.8565109648348 595.1577974015615 L 522.4835263930406 593.8352938674783 L 522.2154540395851 592.487603138204 L 522.0539466596703 591.1230341752373 L 522 589.75 L 522.0539466596703 588.3769658247627 L 522.2154540395851 587.012396861796 L 522.4835263930406 585.6647061325217 L 522.8565109648348 584.3422025984385 L 523.3321081810525 583.0530399336109 L 523.9073858267036 581.8051662545579 L 524.5787971238034 580.6062751174709 L 525.3422025984385 579.4637580848818 L 526.1928956019995 578.3846591542218 L 527.1256313292354 577.3756313292354 L 528.1346591542218 576.4428956019995 L 529.2137580848818 575.5922025984385 L 530.3562751174709 574.8287971238034 L 531.5551662545579 574.1573858267036 L 532.803039933611 573.5821081810525 L 534.0922025984385 573.1065109648348 L 535.4147061325217 572.7335263930406 L 536.762396861796 572.4654540395851 L 538.1269658247628 572.3039466596703 L 539.5000000000001 572.25 L 540.8730341752373 572.3039466596703 L 542.2376031382041 572.4654540395851 L 543.5852938674784 572.7335263930406 L 544.9077974015617 573.1065109648348 L 546.1969600663891 573.5821081810525 L 547.4448337454421 574.1573858267036 L 548.6437248825292 574.8287971238035 L 549.7862419151184 575.5922025984385 L 550.8653408457783 576.4428956019996 L 551.8743686707646 577.3756313292355 L 552.8071043980007 578.3846591542219 L 553.6577974015617 579.4637580848819 L 554.4212028761967 580.606275117471 L 555.0926141732965 581.8051662545581 L 555.6678918189476 583.0530399336111 L 556.1434890351652 584.3422025984386 L 556.5164736069594 585.6647061325218 L 556.7845459604149 587.0123968617961 L 556.9460533403297 588.3769658247629 Z" fill-opacity="1" stroke-opacity="1" stroke-miterlimit="10" stroke-width="2"/><text fill="none" stroke="rgb(0,0,0)" font-family="Helvetica Neue, Helvetica, sans-serif" font-size="10px" font-style="normal" font-weight="normal" text-decoration="normal" x="539.5" y="572.25" text-anchor="middle" dominant-baseline="text-after-edge" stroke-opacity="1" stroke-linejoin="round" stroke-miterlimit="10" stroke-width="4">CVE-2026-24001</text><text fill="rgb(255,255,255)" stroke="none" font-family="Helvetica Neue, Helvetica, sans-serif" font-size="10px" font-style="normal" font-weight="normal" text-decoration="normal" x="539.5" y="572.25" text-anchor="middle" dominant-baseline="text-after-edge" fill-opacity="1">CVE-2026-24001</text><path fill="rgb(99,102,241)" stroke="rgb(0,0,0)" paint-order="fill stroke markers" d=" M 689 212.75 L 688.953760005997 213.92688643591768 L 688.815325108927 215.09651697560346 L 688.5855488059651 216.25168045783857 L 688.2658477444273 217.38525491562422 L 687.8581929876693 218.49025148547634 L 687.3650978628256 219.5598574960932 L 686.7896024653114 220.58747847073923 L 686.1352549156242 221.5667787843871 L 685.4060894840005 222.49172072495276 L 684.6066017177982 223.3566017177982 L 683.7417207249528 224.15608948400046 L 682.8167787843871 224.88525491562422 L 681.8374784707393 225.5396024653114 L 680.8098574960932 226.1150978628255 L 679.7402514854764 226.6081929876693 L 678.6352549156242 227.0158477444273 L 677.5016804578386 227.33554880596515 L 676.3465169756034 227.56532510892706 L 675.1768864359177 227.7037600059969 L 674 227.75 L 672.8231135640823 227.7037600059969 L 671.6534830243966 227.56532510892706 L 670.4983195421614 227.33554880596515 L 669.3647450843758 227.0158477444273 L 668.2597485145236 226.6081929876693 L 667.1901425039068 226.1150978628255 L 666.1625215292607 225.5396024653114 L 665.1832212156129 224.88525491562422 L 664.2582792750472 224.15608948400046 L 663.3933982822018 223.3566017177982 L 662.5939105159995 222.49172072495276 L 661.8647450843758 221.5667787843871 L 661.2103975346886 220.58747847073923 L 660.6349021371744 219.5598574960932 L 660.1418070123307 218.49025148547634 L 659.7341522555727 217.38525491562422 L 659.4144511940349 216.25168045783857 L 659.184674891073 215.09651697560346 L 659.046239994003 213.92688643591768 L 659 212.75 L 659.046239994003 211.57311356408232 L 659.184674891073 210.40348302439654 L 659.4144511940349 209.24831954216143 L 659.7341522555727 208.11474508437578 L 660.1418070123307 207.00974851452366 L 660.6349021371744 205.9401425039068 L 661.2103975346886 204.91252152926077 L 661.8647450843758 203.93322121561292 L 662.5939105159995 203.00827927504724 L 663.3933982822018 202.1433982822018 L 664.2582792750472 201.34391051599954 L 665.1832212156129 200.61474508437578 L 666.1625215292607 199.9603975346886 L 667.1901425039068 199.38490213717446 L 668.2597485145237 198.8918070123307 L 669.3647450843758 198.4841522555727 L 670.4983195421614 198.16445119403485 L 671.6534830243966 197.93467489107292 L 672.8231135640824 197.7962399940031 L 674 197.75 L 675.1768864359177 197.7962399940031 L 676.3465169756035 197.93467489107294 L 677.5016804578387 198.16445119403485 L 678.6352549156243 198.48415225557272 L 679.7402514854764 198.89180701233073 L 680.8098574960933 199.38490213717452 L 681.8374784707394 199.96039753468867 L 682.8167787843872 200.61474508437584 L 683.7417207249529 201.3439105159996 L 684.6066017177983 202.14339828220187 L 685.4060894840005 203.00827927504733 L 686.1352549156243 203.933221215613 L 686.7896024653114 204.91252152926089 L 687.3650978628256 205.9401425039069 L 687.8581929876693 207.00974851452378 L 688.2658477444273 208.11474508437593 L 688.5855488059652 209.24831954216157 L 688.8153251089271 210.4034830243967 L 688.953760005997 211.5731135640825 Z" fill-opacity="1" stroke-opacity="1" stroke-miterlimit="10" stroke-width="2"/><text fill="none" stroke="rgb(0,0,0)" font-family="Helvetica Neue, Helvetica, sans-serif" font-size="10px" font-style="normal" font-weight="normal" text-decoration="normal" x="674" y="197.75" text-anchor="middle" dominant-baseline="text-after-edge" stroke-opacity="1" stroke-linejoin="round" stroke-miterlimit="10" stroke-width="4">AV:L</text><text fill="rgb(255,255,255)" stroke="none" font-family="Helvetica Neue, Helvetica, sans-serif" font-size="10px" font-style="normal" font-weight="normal" text-decoration="normal" x="674" y="197.75" text-anchor="middle" dominant-baseline="text-after-edge" fill-opacity="1">AV:L</text><path fill="rgb(99,102,241)" stroke="rgb(0,0,0)" paint-order="fill stroke markers" d=" M 689 829 L 688.953760005997 830.1768864359177 L 688.815325108927 831.3465169756034 L 688.5855488059651 832.5016804578386 L 688.2658477444273 833.6352549156242 L 687.8581929876693 834.7402514854764 L 687.3650978628256 835.8098574960932 L 686.7896024653114 836.8374784707393 L 686.1352549156242 837.8167787843871 L 685.4060894840005 838.7417207249528 L 684.6066017177982 839.6066017177982 L 683.7417207249528 840.4060894840005 L 682.8167787843871 841.1352549156242 L 681.8374784707393 841.7896024653114 L 680.8098574960932 842.3650978628256 L 679.7402514854764 842.8581929876693 L 678.6352549156242 843.2658477444273 L 677.5016804578386 843.5855488059651 L 676.3465169756034 843.815325108927 L 675.1768864359177 843.953760005997 L 674 844 L 672.8231135640823 843.953760005997 L 671.6534830243966 843.815325108927 L 670.4983195421614 843.5855488059651 L 669.3647450843758 843.2658477444273 L 668.2597485145236 842.8581929876693 L 667.1901425039068 842.3650978628256 L 666.1625215292607 841.7896024653114 L 665.1832212156129 841.1352549156242 L 664.2582792750472 840.4060894840005 L 663.3933982822018 839.6066017177982 L 662.5939105159995 838.7417207249528 L 661.8647450843758 837.8167787843871 L 661.2103975346886 836.8374784707393 L 660.6349021371744 835.8098574960932 L 660.1418070123307 834.7402514854764 L 659.7341522555727 833.6352549156242 L 659.4144511940349 832.5016804578386 L 659.184674891073 831.3465169756034 L 659.046239994003 830.1768864359177 L 659 829 L 659.046239994003 827.8231135640823 L 659.184674891073 826.6534830243966 L 659.4144511940349 825.4983195421614 L 659.7341522555727 824.3647450843758 L 660.1418070123307 823.2597485145236 L 660.6349021371744 822.1901425039068 L 661.2103975346886 821.1625215292607 L 661.8647450843758 820.1832212156129 L 662.5939105159995 819.2582792750472 L 663.3933982822018 818.3933982822018 L 664.2582792750472 817.5939105159996 L 665.1832212156129 816.8647450843758 L 666.1625215292607 816.2103975346886 L 667.1901425039068 815.6349021371744 L 668.2597485145237 815.1418070123307 L 669.3647450843758 814.7341522555727 L 670.4983195421614 814.4144511940349 L 671.6534830243966 814.184674891073 L 672.8231135640824 814.046239994003 L 674 814 L 675.1768864359177 814.046239994003 L 676.3465169756035 814.184674891073 L 677.5016804578387 814.4144511940349 L 678.6352549156243 814.7341522555727 L 679.7402514854764 815.1418070123307 L 680.8098574960933 815.6349021371745 L 681.8374784707394 816.2103975346887 L 682.8167787843872 816.8647450843758 L 683.7417207249529 817.5939105159996 L 684.6066017177983 818.3933982822018 L 685.4060894840005 819.2582792750474 L 686.1352549156243 820.183221215613 L 686.7896024653114 821.1625215292609 L 687.3650978628256 822.1901425039069 L 687.8581929876693 823.2597485145238 L 688.2658477444273 824.364745084376 L 688.5855488059652 825.4983195421615 L 688.8153251089271 826.6534830243967 L 688.953760005997 827.8231135640825 Z" fill-opacity="1" stroke-opacity="1" stroke-miterlimit="10" stroke-width="2"/><text fill="none" stroke="rgb(0,0,0)" font-family="Helvetica Neue, Helvetica, sans-serif" font-size="10px" font-style="normal" font-weight="normal" text-decoration="normal" x="674" y="814" text-anchor="middle" dominant-baseline="text-after-edge" stroke-opacity="1" stroke-linejoin="round" stroke-miterlimit="10" stroke-width="4">PR:H</text><text fill="rgb(255,255,255)" stroke="none" font-family="Helvetica Neue, Helvetica, sans-serif" font-size="10px" font-style="normal" font-weight="normal" text-decoration="normal" x="674" y="814" text-anchor="middle" dominant-baseline="text-after-edge" fill-opacity="1">PR:H</text><path fill="rgb(234,179,8)" stroke="rgb(255,102,102)" paint-order="fill stroke markers" d=" M 557 676.75 L 556.9460533403297 678.1230341752373 L 556.7845459604149 679.487603138204 L 556.5164736069594 680.8352938674783 L 556.1434890351652 682.1577974015615 L 555.6678918189475 683.4469600663891 L 555.0926141732964 684.6948337454421 L 554.4212028761966 685.8937248825291 L 553.6577974015615 687.0362419151182 L 552.8071043980005 688.1153408457782 L 551.8743686707646 689.1243686707646 L 550.8653408457782 690.0571043980005 L 549.7862419151182 690.9077974015615 L 548.6437248825291 691.6712028761966 L 547.4448337454421 692.3426141732964 L 546.1969600663891 692.9178918189475 L 544.9077974015615 693.3934890351652 L 543.5852938674783 693.7664736069594 L 542.237603138204 694.0345459604149 L 540.8730341752373 694.1960533403297 L 539.5 694.25 L 538.1269658247627 694.1960533403297 L 536.762396861796 694.0345459604149 L 535.4147061325217 693.7664736069594 L 534.0922025984385 693.3934890351652 L 532.8030399336109 692.9178918189475 L 531.5551662545579 692.3426141732964 L 530.3562751174709 691.6712028761966 L 529.2137580848818 690.9077974015615 L 528.1346591542218 690.0571043980005 L 527.1256313292354 689.1243686707646 L 526.1928956019995 688.1153408457782 L 525.3422025984385 687.0362419151182 L 524.5787971238034 685.8937248825291 L 523.9073858267036 684.6948337454421 L 523.3321081810525 683.4469600663891 L 522.8565109648348 682.1577974015615 L 522.4835263930406 680.8352938674783 L 522.2154540395851 679.487603138204 L 522.0539466596703 678.1230341752373 L 522 676.75 L 522.0539466596703 675.3769658247627 L 522.2154540395851 674.012396861796 L 522.4835263930406 672.6647061325217 L 522.8565109648348 671.3422025984385 L 523.3321081810525 670.0530399336109 L 523.9073858267036 668.8051662545579 L 524.5787971238034 667.6062751174709 L 525.3422025984385 666.4637580848818 L 526.1928956019995 665.3846591542218 L 527.1256313292354 664.3756313292354 L 528.1346591542218 663.4428956019995 L 529.2137580848818 662.5922025984385 L 530.3562751174709 661.8287971238034 L 531.5551662545579 661.1573858267036 L 532.803039933611 660.5821081810525 L 534.0922025984385 660.1065109648348 L 535.4147061325217 659.7335263930406 L 536.762396861796 659.4654540395851 L 538.1269658247628 659.3039466596703 L 539.5000000000001 659.25 L 540.8730341752373 659.3039466596703 L 542.2376031382041 659.4654540395851 L 543.5852938674784 659.7335263930406 L 544.9077974015617 660.1065109648348 L 546.1969600663891 660.5821081810525 L 547.4448337454421 661.1573858267036 L 548.6437248825292 661.8287971238035 L 549.7862419151184 662.5922025984385 L 550.8653408457783 663.4428956019996 L 551.8743686707646 664.3756313292355 L 552.8071043980007 665.3846591542219 L 553.6577974015617 666.4637580848819 L 554.4212028761967 667.606275117471 L 555.0926141732965 668.8051662545581 L 555.6678918189476 670.0530399336111 L 556.1434890351652 671.3422025984386 L 556.5164736069594 672.6647061325218 L 556.7845459604149 674.0123968617961 L 556.9460533403297 675.3769658247629 Z" fill-opacity="0.25" stroke-opacity="0.25" stroke-miterlimit="10" stroke-width="2" stroke-dasharray="4,2"/><text fill="none" stroke="rgb(0,0,0)" font-family="Helvetica Neue, Helvetica, sans-serif" font-size="10px" font-style="normal" font-weight="normal" text-decoration="normal" x="539.5" y="659.25" text-anchor="middle" dominant-baseline="text-after-edge" stroke-opacity="0.25" stroke-linejoin="round" stroke-miterlimit="10" stroke-width="4">CVE-2026-23950</text><text fill="rgb(255,255,255)" stroke="none" font-family="Helvetica Neue, Helvetica, sans-serif" font-size="10px" font-style="normal" font-weight="normal" text-decoration="normal" x="539.5" y="659.25" text-anchor="middle" dominant-baseline="text-after-edge" fill-opacity="0.25">CVE-2026-23950</text><path fill="rgb(255,0,0)" stroke="rgb(255,215,0)" paint-order="fill stroke markers" d=" M 954 359.5 L 944.7343318831332 373.72991935488204 L 929 378.59830056250524 L 939.0078340584333 392.26125558861554 L 938.5491502812527 409.5 L 954 403.7142512380153 L 969.4508497187473 409.5 L 968.9921659415667 392.26125558861554 L 979 378.59830056250524 L 963.2656681168668 373.72991935488204 Z" fill-opacity="0.25" stroke-opacity="0.25" stroke-miterlimit="10" stroke-width="4" stroke-dasharray="4,2"/><text fill="none" stroke="rgb(0,0,0)" font-family="Helvetica Neue, Helvetica, sans-serif" font-size="10px" font-style="normal" font-weight="bold" text-decoration="normal" x="954" y="359.5" text-anchor="middle" dominant-baseline="text-after-edge" stroke-opacity="0.25" stroke-linejoin="round" stroke-miterlimit="10" stroke-width="4">EXPLOITED</text><text fill="rgb(255,255,255)" stroke="none" font-family="Helvetica Neue, Helvetica, sans-serif" font-size="10px" font-style="normal" font-weight="bold" text-decoration="normal" x="954" y="359.5" text-anchor="middle" dominant-baseline="text-after-edge" fill-opacity="0.25">EXPLOITED</text><path fill="rgb(99,102,241)" stroke="rgb(255,0,102)" paint-order="fill stroke markers" d=" M 81 521.25 L 80.95376000599691 522.4268864359177 L 80.81532510892707 523.5965169756034 L 80.58554880596515 524.7516804578386 L 80.2658477444273 525.8852549156242 L 79.8581929876693 526.9902514854764 L 79.36509786282552 528.0598574960932 L 78.78960246531139 529.0874784707393 L 78.13525491562422 530.0667787843871 L 77.40608948400046 530.9917207249528 L 76.60660171779821 531.8566017177982 L 75.74172072495276 532.6560894840005 L 74.8167787843871 533.3852549156242 L 73.83747847073923 534.0396024653114 L 72.8098574960932 534.6150978628256 L 71.74025148547635 535.1081929876693 L 70.63525491562422 535.5158477444273 L 69.50168045783859 535.8355488059651 L 68.34651697560346 536.065325108927 L 67.17688643591768 536.203760005997 L 66 536.25 L 64.82311356408232 536.203760005997 L 63.653483024396536 536.065325108927 L 62.49831954216142 535.8355488059651 L 61.36474508437579 535.5158477444273 L 60.25974851452365 535.1081929876693 L 59.1901425039068 534.6150978628256 L 58.16252152926077 534.0396024653114 L 57.1832212156129 533.3852549156242 L 56.258279275047244 532.6560894840005 L 55.39339828220179 531.8566017177982 L 54.59391051599954 530.9917207249528 L 53.86474508437579 530.0667787843871 L 53.21039753468862 529.0874784707393 L 52.634902137174485 528.0598574960932 L 52.1418070123307 526.9902514854764 L 51.734152255572695 525.8852549156242 L 51.414451194034854 524.7516804578386 L 51.18467489107294 523.5965169756034 L 51.04623999400308 522.4268864359177 L 51 521.25 L 51.04623999400308 520.0731135640823 L 51.18467489107293 518.9034830243966 L 51.414451194034854 517.7483195421614 L 51.734152255572695 516.6147450843758 L 52.141807012330695 515.5097485145236 L 52.63490213717448 514.4401425039068 L 53.21039753468862 513.4125215292607 L 53.864745084375784 512.4332212156129 L 54.59391051599953 511.50827927504724 L 55.39339828220179 510.6433982822018 L 56.25827927504724 509.84391051599954 L 57.1832212156129 509.1147450843758 L 58.16252152926077 508.46039753468864 L 59.190142503906806 507.8849021371745 L 60.25974851452367 507.3918070123307 L 61.36474508437581 506.98415225557267 L 62.49831954216145 506.6644511940348 L 63.65348302439657 506.4346748910729 L 64.82311356408238 506.2962399940031 L 66.00000000000006 506.25 L 67.17688643591774 506.2962399940031 L 68.34651697560352 506.4346748910729 L 69.50168045783865 506.6644511940349 L 70.63525491562429 506.9841522555727 L 71.74025148547642 507.39180701233073 L 72.80985749609329 507.88490213717455 L 73.83747847073931 508.4603975346887 L 74.81677878438718 509.11474508437584 L 75.74172072495284 509.8439105159996 L 76.6066017177983 510.6433982822019 L 77.40608948400055 511.50827927504736 L 78.13525491562429 512.433221215613 L 78.78960246531145 513.4125215292609 L 79.36509786282558 514.4401425039069 L 79.85819298766936 515.5097485145238 L 80.26584774442735 516.614745084376 L 80.58554880596519 517.7483195421615 L 80.8153251089271 518.9034830243967 L 80.95376000599694 520.0731135640825 Z" fill-opacity="1" stroke-opacity="1" stroke-miterlimit="10" stroke-width="2"/><text fill="none" stroke="rgb(0,0,0)" font-family="Helvetica Neue, Helvetica, sans-serif" font-size="10px" font-style="normal" font-weight="normal" text-decoration="normal" x="66" y="506.25" text-anchor="middle" dominant-baseline="text-after-edge" stroke-opacity="1" stroke-linejoin="round" stroke-miterlimit="10" stroke-width="4">AC:L</text><text fill="rgb(255,255,255)" stroke="none" font-family="Helvetica Neue, Helvetica, sans-serif" font-size="10px" font-style="normal" font-weight="normal" text-decoration="normal" x="66" y="506.25" text-anchor="middle" dominant-baseline="text-after-edge" fill-opacity="1">AC:L</text><path fill="rgb(99,102,241)" stroke="rgb(255,0,102)" paint-order="fill stroke markers" d=" M 81 566.25 L 80.95376000599691 567.4268864359177 L 80.81532510892707 568.5965169756034 L 80.58554880596515 569.7516804578386 L 80.2658477444273 570.8852549156242 L 79.8581929876693 571.9902514854764 L 79.36509786282552 573.0598574960932 L 78.78960246531139 574.0874784707393 L 78.13525491562422 575.0667787843871 L 77.40608948400046 575.9917207249528 L 76.60660171779821 576.8566017177982 L 75.74172072495276 577.6560894840005 L 74.8167787843871 578.3852549156242 L 73.83747847073923 579.0396024653114 L 72.8098574960932 579.6150978628256 L 71.74025148547635 580.1081929876693 L 70.63525491562422 580.5158477444273 L 69.50168045783859 580.8355488059651 L 68.34651697560346 581.065325108927 L 67.17688643591768 581.203760005997 L 66 581.25 L 64.82311356408232 581.203760005997 L 63.653483024396536 581.065325108927 L 62.49831954216142 580.8355488059651 L 61.36474508437579 580.5158477444273 L 60.25974851452365 580.1081929876693 L 59.1901425039068 579.6150978628256 L 58.16252152926077 579.0396024653114 L 57.1832212156129 578.3852549156242 L 56.258279275047244 577.6560894840005 L 55.39339828220179 576.8566017177982 L 54.59391051599954 575.9917207249528 L 53.86474508437579 575.0667787843871 L 53.21039753468862 574.0874784707393 L 52.634902137174485 573.0598574960932 L 52.1418070123307 571.9902514854764 L 51.734152255572695 570.8852549156242 L 51.414451194034854 569.7516804578386 L 51.18467489107294 568.5965169756034 L 51.04623999400308 567.4268864359177 L 51 566.25 L 51.04623999400308 565.0731135640823 L 51.18467489107293 563.9034830243966 L 51.414451194034854 562.7483195421614 L 51.734152255572695 561.6147450843758 L 52.141807012330695 560.5097485145236 L 52.63490213717448 559.4401425039068 L 53.21039753468862 558.4125215292607 L 53.864745084375784 557.4332212156129 L 54.59391051599953 556.5082792750472 L 55.39339828220179 555.6433982822018 L 56.25827927504724 554.8439105159996 L 57.1832212156129 554.1147450843758 L 58.16252152926077 553.4603975346886 L 59.190142503906806 552.8849021371744 L 60.25974851452367 552.3918070123307 L 61.36474508437581 551.9841522555727 L 62.49831954216145 551.6644511940349 L 63.65348302439657 551.434674891073 L 64.82311356408238 551.296239994003 L 66.00000000000006 551.25 L 67.17688643591774 551.296239994003 L 68.34651697560352 551.434674891073 L 69.50168045783865 551.6644511940349 L 70.63525491562429 551.9841522555727 L 71.74025148547642 552.3918070123307 L 72.80985749609329 552.8849021371745 L 73.83747847073931 553.4603975346887 L 74.81677878438718 554.1147450843758 L 75.74172072495284 554.8439105159996 L 76.6066017177983 555.6433982822018 L 77.40608948400055 556.5082792750474 L 78.13525491562429 557.433221215613 L 78.78960246531145 558.4125215292609 L 79.36509786282558 559.4401425039069 L 79.85819298766936 560.5097485145238 L 80.26584774442735 561.614745084376 L 80.58554880596519 562.7483195421615 L 80.8153251089271 563.9034830243967 L 80.95376000599694 565.0731135640825 Z" fill-opacity="1" stroke-opacity="1" stroke-miterlimit="10" stroke-width="2"/><text fill="none" stroke="rgb(0,0,0)" font-family="Helvetica Neue, Helvetica, sans-serif" font-size="10px" font-style="normal" font-weight="normal" text-decoration="normal" x="66" y="551.25" text-anchor="middle" dominant-baseline="text-after-edge" stroke-opacity="1" stroke-linejoin="round" stroke-miterlimit="10" stroke-width="4">UI:N</text><text fill="rgb(255,255,255)" stroke="none" font-family="Helvetica Neue, Helvetica, sans-serif" font-size="10px" font-style="normal" font-weight="normal" text-decoration="normal" x="66" y="551.25" text-anchor="middle" dominant-baseline="text-after-edge" fill-opacity="1">UI:N</text><path fill="rgb(0,255,136)" stroke="rgb(0,204,102)" paint-order="fill stroke markers" d=" M 1113 362.5 L 1143 332.5 L 1113 302.5 L 1083 332.5 Z" fill-opacity="1" stroke-opacity="1" stroke-miterlimit="10" stroke-width="4"/><text fill="none" stroke="rgb(0,0,0)" font-family="Helvetica Neue, Helvetica, sans-serif" font-size="14px" font-style="normal" font-weight="bold" text-decoration="normal" x="1113" y="302.5" text-anchor="middle" dominant-baseline="text-after-edge" stroke-opacity="1" stroke-linejoin="round" stroke-miterlimit="10" stroke-width="6">INSIDE NETWORK</text><text fill="rgb(255,255,255)" stroke="none" font-family="Helvetica Neue, Helvetica, sans-serif" font-size="14px" font-style="normal" font-weight="bold" text-decoration="normal" x="1113" y="302.5" text-anchor="middle" dominant-baseline="text-after-edge" fill-opacity="1">INSIDE NETWORK</text><path fill="rgb(234,179,8)" stroke="rgb(255,102,102)" paint-order="fill stroke markers" d=" M 557 232.75 L 556.9460533403297 234.12303417523728 L 556.7845459604149 235.48760313820404 L 556.5164736069594 236.83529386747836 L 556.1434890351652 238.15779740156157 L 555.6678918189475 239.44696006638907 L 555.0926141732964 240.69483374544205 L 554.4212028761966 241.8937248825291 L 553.6577974015615 243.03624191511827 L 552.8071043980005 244.1153408457782 L 551.8743686707646 245.12436867076457 L 550.8653408457782 246.05710439800055 L 549.7862419151182 246.9077974015616 L 548.6437248825291 247.67120287619662 L 547.4448337454421 248.34261417329643 L 546.1969600663891 248.9178918189475 L 544.9077974015615 249.39348903516517 L 543.5852938674783 249.76647360695935 L 542.237603138204 250.0345459604149 L 540.8730341752373 250.19605334032974 L 539.5 250.25 L 538.1269658247627 250.19605334032974 L 536.762396861796 250.0345459604149 L 535.4147061325217 249.76647360695935 L 534.0922025984385 249.3934890351652 L 532.8030399336109 248.9178918189475 L 531.5551662545579 248.34261417329643 L 530.3562751174709 247.67120287619662 L 529.2137580848818 246.9077974015616 L 528.1346591542218 246.05710439800055 L 527.1256313292354 245.12436867076457 L 526.1928956019995 244.1153408457782 L 525.3422025984385 243.0362419151183 L 524.5787971238034 241.8937248825291 L 523.9073858267036 240.69483374544208 L 523.3321081810525 239.44696006638907 L 522.8565109648348 238.1577974015616 L 522.4835263930406 236.83529386747836 L 522.2154540395851 235.48760313820404 L 522.0539466596703 234.12303417523728 L 522 232.75 L 522.0539466596703 231.37696582476272 L 522.2154540395851 230.01239686179596 L 522.4835263930406 228.66470613252164 L 522.8565109648348 227.34220259843843 L 523.3321081810525 226.05303993361093 L 523.9073858267036 224.80516625455795 L 524.5787971238034 223.6062751174709 L 525.3422025984385 222.46375808488173 L 526.1928956019995 221.3846591542218 L 527.1256313292354 220.37563132923543 L 528.1346591542218 219.44289560199945 L 529.2137580848818 218.59220259843843 L 530.3562751174709 217.82879712380338 L 531.5551662545579 217.15738582670355 L 532.803039933611 216.5821081810525 L 534.0922025984385 216.1065109648348 L 535.4147061325217 215.73352639304065 L 536.762396861796 215.4654540395851 L 538.1269658247628 215.30394665967026 L 539.5000000000001 215.25 L 540.8730341752373 215.30394665967026 L 542.2376031382041 215.4654540395851 L 543.5852938674784 215.73352639304068 L 544.9077974015617 216.10651096483485 L 546.1969600663891 216.58210818105252 L 547.4448337454421 217.1573858267036 L 548.6437248825292 217.82879712380344 L 549.7862419151184 218.5922025984385 L 550.8653408457783 219.44289560199954 L 551.8743686707646 220.37563132923552 L 552.8071043980007 221.3846591542219 L 553.6577974015617 222.46375808488185 L 554.4212028761967 223.60627511747103 L 555.0926141732965 224.8051662545581 L 555.6678918189476 226.0530399336111 L 556.1434890351652 227.3422025984386 L 556.5164736069594 228.66470613252184 L 556.7845459604149 230.01239686179616 L 556.9460533403297 231.37696582476292 Z" fill-opacity="0.25" stroke-opacity="0.25" stroke-miterlimit="10" stroke-width="2" stroke-dasharray="4,2"/><text fill="none" stroke="rgb(0,0,0)" font-family="Helvetica Neue, Helvetica, sans-serif" font-size="10px" font-style="normal" font-weight="normal" text-decoration="normal" x="539.5" y="215.25" text-anchor="middle" dominant-baseline="text-after-edge" stroke-opacity="0.25" stroke-linejoin="round" stroke-miterlimit="10" stroke-width="4">CVE-2026-24842</text><text fill="rgb(255,255,255)" stroke="none" font-family="Helvetica Neue, Helvetica, sans-serif" font-size="10px" font-style="normal" font-weight="normal" text-decoration="normal" x="539.5" y="215.25" text-anchor="middle" dominant-baseline="text-after-edge" fill-opacity="0.25">CVE-2026-24842</text><path fill="rgb(234,179,8)" stroke="rgb(0,0,0)" paint-order="fill stroke markers" d=" M 826 773.5 L 825.9460533403297 774.8730341752373 L 825.7845459604149 776.237603138204 L 825.5164736069594 777.5852938674783 L 825.1434890351652 778.9077974015615 L 824.6678918189475 780.1969600663891 L 824.0926141732964 781.4448337454421 L 823.4212028761966 782.6437248825291 L 822.6577974015615 783.7862419151182 L 821.8071043980005 784.8653408457782 L 820.8743686707646 785.8743686707646 L 819.8653408457782 786.8071043980005 L 818.7862419151182 787.6577974015615 L 817.6437248825291 788.4212028761966 L 816.4448337454421 789.0926141732964 L 815.1969600663891 789.6678918189475 L 813.9077974015615 790.1434890351652 L 812.5852938674783 790.5164736069594 L 811.237603138204 790.7845459604149 L 809.8730341752373 790.9460533403297 L 808.5 791 L 807.1269658247627 790.9460533403297 L 805.762396861796 790.7845459604149 L 804.4147061325217 790.5164736069594 L 803.0922025984385 790.1434890351652 L 801.8030399336109 789.6678918189475 L 800.5551662545579 789.0926141732964 L 799.3562751174709 788.4212028761966 L 798.2137580848818 787.6577974015615 L 797.1346591542218 786.8071043980005 L 796.1256313292354 785.8743686707646 L 795.1928956019995 784.8653408457782 L 794.3422025984385 783.7862419151182 L 793.5787971238034 782.6437248825291 L 792.9073858267036 781.4448337454421 L 792.3321081810525 780.1969600663891 L 791.8565109648348 778.9077974015615 L 791.4835263930406 777.5852938674783 L 791.2154540395851 776.237603138204 L 791.0539466596703 774.8730341752373 L 791 773.5 L 791.0539466596703 772.1269658247627 L 791.2154540395851 770.762396861796 L 791.4835263930406 769.4147061325217 L 791.8565109648348 768.0922025984385 L 792.3321081810525 766.8030399336109 L 792.9073858267036 765.5551662545579 L 793.5787971238034 764.3562751174709 L 794.3422025984385 763.2137580848818 L 795.1928956019995 762.1346591542218 L 796.1256313292354 761.1256313292354 L 797.1346591542218 760.1928956019995 L 798.2137580848818 759.3422025984385 L 799.3562751174709 758.5787971238034 L 800.5551662545579 757.9073858267036 L 801.803039933611 757.3321081810525 L 803.0922025984385 756.8565109648348 L 804.4147061325217 756.4835263930406 L 805.762396861796 756.2154540395851 L 807.1269658247628 756.0539466596703 L 808.5000000000001 756 L 809.8730341752373 756.0539466596703 L 811.2376031382041 756.2154540395851 L 812.5852938674784 756.4835263930406 L 813.9077974015617 756.8565109648348 L 815.1969600663891 757.3321081810525 L 816.4448337454421 757.9073858267036 L 817.6437248825292 758.5787971238035 L 818.7862419151184 759.3422025984385 L 819.8653408457783 760.1928956019996 L 820.8743686707646 761.1256313292355 L 821.8071043980007 762.1346591542219 L 822.6577974015617 763.2137580848819 L 823.4212028761967 764.356275117471 L 824.0926141732965 765.5551662545581 L 824.6678918189476 766.8030399336111 L 825.1434890351652 768.0922025984386 L 825.5164736069594 769.4147061325218 L 825.7845459604149 770.7623968617961 L 825.9460533403297 772.1269658247629 Z" fill-opacity="1" stroke-opacity="1" stroke-miterlimit="10" stroke-width="2"/><text fill="none" stroke="rgb(0,0,0)" font-family="Helvetica Neue, Helvetica, sans-serif" font-size="10px" font-style="normal" font-weight="normal" text-decoration="normal" x="808.5" y="756" text-anchor="middle" dominant-baseline="text-after-edge" stroke-opacity="1" stroke-linejoin="round" stroke-miterlimit="10" stroke-width="4">CVE-2026-31802</text><text fill="rgb(255,255,255)" stroke="none" font-family="Helvetica Neue, Helvetica, sans-serif" font-size="10px" font-style="normal" font-weight="normal" text-decoration="normal" x="808.5" y="756" text-anchor="middle" dominant-baseline="text-after-edge" fill-opacity="1">CVE-2026-31802</text><path fill="rgb(234,179,8)" stroke="rgb(255,102,102)" paint-order="fill stroke markers" d=" M 826 546.25 L 825.9460533403297 547.6230341752373 L 825.7845459604149 548.987603138204 L 825.5164736069594 550.3352938674783 L 825.1434890351652 551.6577974015615 L 824.6678918189475 552.9469600663891 L 824.0926141732964 554.1948337454421 L 823.4212028761966 555.3937248825291 L 822.6577974015615 556.5362419151182 L 821.8071043980005 557.6153408457782 L 820.8743686707646 558.6243686707646 L 819.8653408457782 559.5571043980005 L 818.7862419151182 560.4077974015615 L 817.6437248825291 561.1712028761966 L 816.4448337454421 561.8426141732964 L 815.1969600663891 562.4178918189475 L 813.9077974015615 562.8934890351652 L 812.5852938674783 563.2664736069594 L 811.237603138204 563.5345459604149 L 809.8730341752373 563.6960533403297 L 808.5 563.75 L 807.1269658247627 563.6960533403297 L 805.762396861796 563.5345459604149 L 804.4147061325217 563.2664736069594 L 803.0922025984385 562.8934890351652 L 801.8030399336109 562.4178918189475 L 800.5551662545579 561.8426141732964 L 799.3562751174709 561.1712028761966 L 798.2137580848818 560.4077974015615 L 797.1346591542218 559.5571043980005 L 796.1256313292354 558.6243686707646 L 795.1928956019995 557.6153408457782 L 794.3422025984385 556.5362419151182 L 793.5787971238034 555.3937248825291 L 792.9073858267036 554.1948337454421 L 792.3321081810525 552.9469600663891 L 791.8565109648348 551.6577974015615 L 791.4835263930406 550.3352938674783 L 791.2154540395851 548.987603138204 L 791.0539466596703 547.6230341752373 L 791 546.25 L 791.0539466596703 544.8769658247627 L 791.2154540395851 543.512396861796 L 791.4835263930406 542.1647061325217 L 791.8565109648348 540.8422025984385 L 792.3321081810525 539.5530399336109 L 792.9073858267036 538.3051662545579 L 793.5787971238034 537.1062751174709 L 794.3422025984385 535.9637580848818 L 795.1928956019995 534.8846591542218 L 796.1256313292354 533.8756313292354 L 797.1346591542218 532.9428956019995 L 798.2137580848818 532.0922025984385 L 799.3562751174709 531.3287971238034 L 800.5551662545579 530.6573858267036 L 801.803039933611 530.0821081810525 L 803.0922025984385 529.6065109648348 L 804.4147061325217 529.2335263930406 L 805.762396861796 528.9654540395851 L 807.1269658247628 528.8039466596703 L 808.5000000000001 528.75 L 809.8730341752373 528.8039466596703 L 811.2376031382041 528.9654540395851 L 812.5852938674784 529.2335263930406 L 813.9077974015617 529.6065109648348 L 815.1969600663891 530.0821081810525 L 816.4448337454421 530.6573858267036 L 817.6437248825292 531.3287971238035 L 818.7862419151184 532.0922025984385 L 819.8653408457783 532.9428956019996 L 820.8743686707646 533.8756313292355 L 821.8071043980007 534.8846591542219 L 822.6577974015617 535.9637580848819 L 823.4212028761967 537.106275117471 L 824.0926141732965 538.3051662545581 L 824.6678918189476 539.5530399336111 L 825.1434890351652 540.8422025984386 L 825.5164736069594 542.1647061325218 L 825.7845459604149 543.5123968617961 L 825.9460533403297 544.8769658247629 Z" fill-opacity="0.25" stroke-opacity="0.25" stroke-miterlimit="10" stroke-width="2" stroke-dasharray="4,2"/><text fill="none" stroke="rgb(0,0,0)" font-family="Helvetica Neue, Helvetica, sans-serif" font-size="10px" font-style="normal" font-weight="normal" text-decoration="normal" x="808.5" y="528.75" text-anchor="middle" dominant-baseline="text-after-edge" stroke-opacity="0.25" stroke-linejoin="round" stroke-miterlimit="10" stroke-width="4">CVE-2026-29786</text><text fill="rgb(255,255,255)" stroke="none" font-family="Helvetica Neue, Helvetica, sans-serif" font-size="10px" font-style="normal" font-weight="normal" text-decoration="normal" x="808.5" y="528.75" text-anchor="middle" dominant-baseline="text-after-edge" fill-opacity="0.25">CVE-2026-29786</text><path fill="rgb(234,179,8)" stroke="rgb(255,102,102)" paint-order="fill stroke markers" d=" M 826 864.5 L 825.9460533403297 865.8730341752373 L 825.7845459604149 867.237603138204 L 825.5164736069594 868.5852938674783 L 825.1434890351652 869.9077974015615 L 824.6678918189475 871.1969600663891 L 824.0926141732964 872.4448337454421 L 823.4212028761966 873.6437248825291 L 822.6577974015615 874.7862419151182 L 821.8071043980005 875.8653408457782 L 820.8743686707646 876.8743686707646 L 819.8653408457782 877.8071043980005 L 818.7862419151182 878.6577974015615 L 817.6437248825291 879.4212028761966 L 816.4448337454421 880.0926141732964 L 815.1969600663891 880.6678918189475 L 813.9077974015615 881.1434890351652 L 812.5852938674783 881.5164736069594 L 811.237603138204 881.7845459604149 L 809.8730341752373 881.9460533403297 L 808.5 882 L 807.1269658247627 881.9460533403297 L 805.762396861796 881.7845459604149 L 804.4147061325217 881.5164736069594 L 803.0922025984385 881.1434890351652 L 801.8030399336109 880.6678918189475 L 800.5551662545579 880.0926141732964 L 799.3562751174709 879.4212028761966 L 798.2137580848818 878.6577974015615 L 797.1346591542218 877.8071043980005 L 796.1256313292354 876.8743686707646 L 795.1928956019995 875.8653408457782 L 794.3422025984385 874.7862419151182 L 793.5787971238034 873.6437248825291 L 792.9073858267036 872.4448337454421 L 792.3321081810525 871.1969600663891 L 791.8565109648348 869.9077974015615 L 791.4835263930406 868.5852938674783 L 791.2154540395851 867.237603138204 L 791.0539466596703 865.8730341752373 L 791 864.5 L 791.0539466596703 863.1269658247627 L 791.2154540395851 861.762396861796 L 791.4835263930406 860.4147061325217 L 791.8565109648348 859.0922025984385 L 792.3321081810525 857.8030399336109 L 792.9073858267036 856.5551662545579 L 793.5787971238034 855.3562751174709 L 794.3422025984385 854.2137580848818 L 795.1928956019995 853.1346591542218 L 796.1256313292354 852.1256313292354 L 797.1346591542218 851.1928956019995 L 798.2137580848818 850.3422025984385 L 799.3562751174709 849.5787971238034 L 800.5551662545579 848.9073858267036 L 801.803039933611 848.3321081810525 L 803.0922025984385 847.8565109648348 L 804.4147061325217 847.4835263930406 L 805.762396861796 847.2154540395851 L 807.1269658247628 847.0539466596703 L 808.5000000000001 847 L 809.8730341752373 847.0539466596703 L 811.2376031382041 847.2154540395851 L 812.5852938674784 847.4835263930406 L 813.9077974015617 847.8565109648348 L 815.1969600663891 848.3321081810525 L 816.4448337454421 848.9073858267036 L 817.6437248825292 849.5787971238035 L 818.7862419151184 850.3422025984385 L 819.8653408457783 851.1928956019996 L 820.8743686707646 852.1256313292355 L 821.8071043980007 853.1346591542219 L 822.6577974015617 854.2137580848819 L 823.4212028761967 855.356275117471 L 824.0926141732965 856.5551662545581 L 824.6678918189476 857.8030399336111 L 825.1434890351652 859.0922025984386 L 825.5164736069594 860.4147061325218 L 825.7845459604149 861.7623968617961 L 825.9460533403297 863.1269658247629 Z" fill-opacity="0.25" stroke-opacity="0.25" stroke-miterlimit="10" stroke-width="2" stroke-dasharray="4,2"/><text fill="none" stroke="rgb(0,0,0)" font-family="Helvetica Neue, Helvetica, sans-serif" font-size="10px" font-style="normal" font-weight="normal" text-decoration="normal" x="808.5" y="847" text-anchor="middle" dominant-baseline="text-after-edge" stroke-opacity="0.25" stroke-linejoin="round" stroke-miterlimit="10" stroke-width="4">CVE-2025-64756</text><text fill="rgb(255,255,255)" stroke="none" font-family="Helvetica Neue, Helvetica, sans-serif" font-size="10px" font-style="normal" font-weight="normal" text-decoration="normal" x="808.5" y="847" text-anchor="middle" dominant-baseline="text-after-edge" fill-opacity="0.25">CVE-2025-64756</text><path fill="rgb(234,179,8)" stroke="rgb(255,102,102)" paint-order="fill stroke markers" d=" M 826 187.25 L 825.9460533403297 188.62303417523728 L 825.7845459604149 189.98760313820404 L 825.5164736069594 191.33529386747836 L 825.1434890351652 192.65779740156157 L 824.6678918189475 193.94696006638907 L 824.0926141732964 195.19483374544205 L 823.4212028761966 196.3937248825291 L 822.6577974015615 197.53624191511827 L 821.8071043980005 198.6153408457782 L 820.8743686707646 199.62436867076457 L 819.8653408457782 200.55710439800055 L 818.7862419151182 201.4077974015616 L 817.6437248825291 202.17120287619662 L 816.4448337454421 202.84261417329643 L 815.1969600663891 203.4178918189475 L 813.9077974015615 203.89348903516517 L 812.5852938674783 204.26647360695935 L 811.237603138204 204.5345459604149 L 809.8730341752373 204.69605334032974 L 808.5 204.75 L 807.1269658247627 204.69605334032974 L 805.762396861796 204.5345459604149 L 804.4147061325217 204.26647360695935 L 803.0922025984385 203.8934890351652 L 801.8030399336109 203.4178918189475 L 800.5551662545579 202.84261417329643 L 799.3562751174709 202.17120287619662 L 798.2137580848818 201.4077974015616 L 797.1346591542218 200.55710439800055 L 796.1256313292354 199.62436867076457 L 795.1928956019995 198.6153408457782 L 794.3422025984385 197.5362419151183 L 793.5787971238034 196.3937248825291 L 792.9073858267036 195.19483374544208 L 792.3321081810525 193.94696006638907 L 791.8565109648348 192.6577974015616 L 791.4835263930406 191.33529386747836 L 791.2154540395851 189.98760313820404 L 791.0539466596703 188.62303417523728 L 791 187.25 L 791.0539466596703 185.87696582476272 L 791.2154540395851 184.51239686179596 L 791.4835263930406 183.16470613252164 L 791.8565109648348 181.84220259843843 L 792.3321081810525 180.55303993361093 L 792.9073858267036 179.30516625455795 L 793.5787971238034 178.1062751174709 L 794.3422025984385 176.96375808488173 L 795.1928956019995 175.8846591542218 L 796.1256313292354 174.87563132923543 L 797.1346591542218 173.94289560199945 L 798.2137580848818 173.09220259843843 L 799.3562751174709 172.32879712380338 L 800.5551662545579 171.65738582670355 L 801.803039933611 171.0821081810525 L 803.0922025984385 170.6065109648348 L 804.4147061325217 170.23352639304065 L 805.762396861796 169.9654540395851 L 807.1269658247628 169.80394665967026 L 808.5000000000001 169.75 L 809.8730341752373 169.80394665967026 L 811.2376031382041 169.9654540395851 L 812.5852938674784 170.23352639304068 L 813.9077974015617 170.60651096483485 L 815.1969600663891 171.08210818105252 L 816.4448337454421 171.6573858267036 L 817.6437248825292 172.32879712380344 L 818.7862419151184 173.0922025984385 L 819.8653408457783 173.94289560199954 L 820.8743686707646 174.87563132923552 L 821.8071043980007 175.8846591542219 L 822.6577974015617 176.96375808488185 L 823.4212028761967 178.10627511747103 L 824.0926141732965 179.3051662545581 L 824.6678918189476 180.5530399336111 L 825.1434890351652 181.8422025984386 L 825.5164736069594 183.16470613252184 L 825.7845459604149 184.51239686179616 L 825.9460533403297 185.87696582476292 Z" fill-opacity="0.25" stroke-opacity="0.25" stroke-miterlimit="10" stroke-width="2" stroke-dasharray="4,2"/><text fill="none" stroke="rgb(0,0,0)" font-family="Helvetica Neue, Helvetica, sans-serif" font-size="10px" font-style="normal" font-weight="normal" text-decoration="normal" x="808.5" y="169.75" text-anchor="middle" dominant-baseline="text-after-edge" stroke-opacity="0.25" stroke-linejoin="round" stroke-miterlimit="10" stroke-width="4">CVE-2026-23745</text><text fill="rgb(255,255,255)" stroke="none" font-family="Helvetica Neue, Helvetica, sans-serif" font-size="10px" font-style="normal" font-weight="normal" text-decoration="normal" x="808.5" y="169.75" text-anchor="middle" dominant-baseline="text-after-edge" fill-opacity="0.25">CVE-2026-23745</text><path fill="rgb(255,0,0)" stroke="rgb(255,215,0)" paint-order="fill stroke markers" d=" M 954 33.5 L 944.7343318831332 47.72991935488206 L 929 52.59830056250525 L 939.0078340584333 66.26125558861554 L 938.5491502812527 83.5 L 954 77.71425123801531 L 969.4508497187473 83.5 L 968.9921659415667 66.26125558861555 L 979 52.598300562505266 L 963.2656681168668 47.72991935488206 Z" fill-opacity="1" stroke-opacity="1" stroke-miterlimit="10" stroke-width="4"/><text fill="none" stroke="rgb(0,0,0)" font-family="Helvetica Neue, Helvetica, sans-serif" font-size="10px" font-style="normal" font-weight="bold" text-decoration="normal" x="954" y="33.5" text-anchor="middle" dominant-baseline="text-after-edge" stroke-opacity="1" stroke-linejoin="round" stroke-miterlimit="10" stroke-width="4">EXPLOITED</text><text fill="rgb(255,255,255)" stroke="none" font-family="Helvetica Neue, Helvetica, sans-serif" font-size="10px" font-style="normal" font-weight="bold" text-decoration="normal" x="954" y="33.5" text-anchor="middle" dominant-baseline="text-after-edge" fill-opacity="1">EXPLOITED</text><path fill="rgb(234,179,8)" stroke="rgb(255,102,102)" paint-order="fill stroke markers" d=" M 826 18.5 L 825.9460533403297 19.873034175237287 L 825.7845459604149 21.23760313820404 L 825.5164736069594 22.585293867478345 L 825.1434890351652 23.90779740156158 L 824.6678918189475 25.19696006638907 L 824.0926141732964 26.444833745442068 L 823.4212028761966 27.643724882529106 L 822.6577974015615 28.786241915118282 L 821.8071043980005 29.865340845778213 L 820.8743686707646 30.874368670764582 L 819.8653408457782 31.80710439800054 L 818.7862419151182 32.65779740156158 L 817.6437248825291 33.42120287619662 L 816.4448337454421 34.09261417329644 L 815.1969600663891 34.66789181894752 L 813.9077974015615 35.14348903516519 L 812.5852938674783 35.51647360695934 L 811.237603138204 35.78454596041491 L 809.8730341752373 35.94605334032974 L 808.5 36 L 807.1269658247627 35.94605334032974 L 805.762396861796 35.78454596041491 L 804.4147061325217 35.51647360695934 L 803.0922025984385 35.14348903516519 L 801.8030399336109 34.66789181894752 L 800.5551662545579 34.09261417329644 L 799.3562751174709 33.42120287619662 L 798.2137580848818 32.65779740156158 L 797.1346591542218 31.807104398000543 L 796.1256313292354 30.874368670764582 L 795.1928956019995 29.865340845778213 L 794.3422025984385 28.786241915118282 L 793.5787971238034 27.643724882529106 L 792.9073858267036 26.444833745442068 L 792.3321081810525 25.196960066389074 L 791.8565109648348 23.90779740156158 L 791.4835263930406 22.58529386747835 L 791.2154540395851 21.237603138204044 L 791.0539466596703 19.87303417523729 L 791 18.500000000000004 L 791.0539466596703 17.126965824762717 L 791.2154540395851 15.762396861795963 L 791.4835263930406 14.414706132521658 L 791.8565109648348 13.092202598438423 L 792.3321081810525 11.80303993361093 L 792.9073858267036 10.555166254557932 L 793.5787971238034 9.356275117470897 L 794.3422025984385 8.213758084881722 L 795.1928956019995 7.134659154221788 L 796.1256313292354 6.12563132923542 L 797.1346591542218 5.192895601999464 L 798.2137580848818 4.342202598438421 L 799.3562751174709 3.5787971238033833 L 800.5551662545579 2.907385826703557 L 801.803039933611 2.332108181052476 L 803.0922025984385 1.8565109648348042 L 804.4147061325217 1.483526393040652 L 805.762396861796 1.215454039585083 L 807.1269658247628 1.053946659670256 L 808.5000000000001 1 L 809.8730341752373 1.0539466596702667 L 811.2376031382041 1.2154540395851008 L 812.5852938674784 1.4835263930406768 L 813.9077974015617 1.8565109648348397 L 815.1969600663891 2.3321081810525186 L 816.4448337454421 2.90738582670361 L 817.6437248825292 3.5787971238034455 L 818.7862419151184 4.342202598438492 L 819.8653408457783 5.192895601999542 L 820.8743686707646 6.125631329235514 L 821.8071043980007 7.134659154221895 L 822.6577974015617 8.213758084881842 L 823.4212028761967 9.35627511747103 L 824.0926141732965 10.55516625455808 L 824.6678918189476 11.803039933611089 L 825.1434890351652 13.092202598438593 L 825.5164736069594 14.41470613252184 L 825.7845459604149 15.762396861796155 L 825.9460533403297 17.12696582476292 Z" fill-opacity="0.25" stroke-opacity="0.25" stroke-miterlimit="10" stroke-width="2" stroke-dasharray="4,2"/><text fill="none" stroke="rgb(0,0,0)" font-family="Helvetica Neue, Helvetica, sans-serif" font-size="10px" font-style="normal" font-weight="normal" text-decoration="normal" x="808.5" y="1" text-anchor="middle" dominant-baseline="text-after-edge" stroke-opacity="0.25" stroke-linejoin="round" stroke-miterlimit="10" stroke-width="4">CVE-2026-26960</text><text fill="rgb(255,255,255)" stroke="none" font-family="Helvetica Neue, Helvetica, sans-serif" font-size="10px" font-style="normal" font-weight="normal" text-decoration="normal" x="808.5" y="1" text-anchor="middle" dominant-baseline="text-after-edge" fill-opacity="0.25">CVE-2026-26960</text><g transform="scale(0.5,0.5) translate(64,-28)"/></g></g></svg>