<svg version="1.1" xmlns="http://www.w3.org/2000/svg" xmlns:xlink="http://www.w3.org/1999/xlink" width="2498" height="1218"><defs/><g><rect fill="#ffffff" stroke="none" x="0" y="0" width="2498" height="1218"/><g transform="translate(-64,26) scale(2,2)"><path fill="rgb(100,100,100)" stroke="rgb(136,136,136)" paint-order="fill stroke markers" d=" M 139.5 250 L 237 250 L 237 250 A 8 8 0 0 1 245 258 L 245 498 L 245 498 A 8 8 0 0 1 237 506 L 42 506 L 42 506 A 8 8 0 0 1 34 498 L 34 258 L 34 258 A 8 8 0 0 1 42 250 L 139.5 250 Z" fill-opacity="1" stroke-opacity="1" stroke-miterlimit="10" stroke-width="2" stroke-dasharray="4,2"/><text fill="none" stroke="rgb(0,0,0)" font-family="Helvetica Neue, Helvetica, sans-serif" font-size="12px" font-style="normal" font-weight="normal" text-decoration="normal" x="139.5" y="250" text-anchor="middle" dominant-baseline="text-after-edge" stroke-opacity="1" stroke-linejoin="round" stroke-miterlimit="10" stroke-width="4">Initial State</text><text fill="rgb(204,204,204)" stroke="none" font-family="Helvetica Neue, Helvetica, sans-serif" font-size="12px" font-style="normal" font-weight="normal" text-decoration="normal" x="139.5" y="250" text-anchor="middle" dominant-baseline="text-after-edge" fill-opacity="1">Initial State</text><path fill="rgb(234,179,8)" stroke="rgb(234,179,8)" paint-order="fill stroke markers" d=" M 858.5 377.75 L 905.5 377.75 L 905.5 377.75 A 8 8 0 0 1 913.5 385.75 L 913.5 534.75 L 913.5 534.75 A 8 8 0 0 1 905.5 542.75 L 811.5 542.75 L 811.5 542.75 A 8 8 0 0 1 803.5 534.75 L 803.5 385.75 L 803.5 385.75 A 8 8 0 0 1 811.5 377.75 L 858.5 377.75 Z" fill-opacity="1" stroke-opacity="1" stroke-miterlimit="10" stroke-width="2" stroke-dasharray="4,2"/><text fill="none" stroke="rgb(0,0,0)" font-family="Helvetica Neue, Helvetica, sans-serif" font-size="10px" font-style="normal" font-weight="normal" text-decoration="normal" x="858.5" y="377.75" text-anchor="middle" dominant-baseline="text-after-edge" stroke-opacity="1" stroke-linejoin="round" stroke-miterlimit="10" stroke-width="2">→ EX:Y, PR:H (×3)</text><text fill="rgb(234,179,8)" stroke="none" font-family="Helvetica Neue, Helvetica, sans-serif" font-size="10px" font-style="normal" font-weight="normal" text-decoration="normal" x="858.5" y="377.75" text-anchor="middle" dominant-baseline="text-after-edge" fill-opacity="1">→ EX:Y, PR:H (×3)</text><path fill="none" stroke="rgb(255,153,119)" paint-order="fill stroke markers" d=" M 414.57249665805114 399.1209239516337 L 522.4987538989403 511.10892205642733" stroke-opacity="0.9" stroke-linejoin="round" stroke-miterlimit="10" stroke-width="3" stroke-dasharray="6,3"/><path fill="rgb(255,255,255)" stroke="none" paint-order="stroke fill markers" d=" M 517.4929557957811 512.1833918560993 L 526.6623243726692 515.4291860426084 L 523.7573385757436 506.14621466919243 Z" fill-opacity="1"/><path fill="rgb(255,153,119)" stroke="none" paint-order="stroke fill markers" d=" M 517.4929557957811 512.1833918560993 L 526.6623243726692 515.4291860426084 L 523.7573385757436 506.14621466919243 Z" fill-opacity="0.9"/><path fill="none" stroke="rgb(203,143,255)" paint-order="fill stroke markers" d=" M 557.5051405179101 524.4997159000472 L 652.588481546269 502.05439190264656" stroke-opacity="0.9" stroke-linejoin="round" stroke-miterlimit="10" stroke-width="3" stroke-dasharray="6,3"/><path fill="rgb(255,255,255)" stroke="none" paint-order="stroke fill markers" d=" M 650.9600954076981 506.90834478495907 L 658.4279865791048 500.67592138374295 L 648.9613131552878 498.44106248734727 Z" fill-opacity="1"/><path fill="rgb(203,143,255)" stroke="none" paint-order="stroke fill markers" d=" M 650.9600954076981 506.90834478495907 L 658.4279865791048 500.67592138374295 L 648.9613131552878 498.44106248734727 Z" fill-opacity="0.9"/><path fill="none" stroke="rgb(203,143,255)" paint-order="fill stroke markers" d=" M 556.8300195041141 535.22459836492 L 653.3913281572696 571.3004776200952" stroke-opacity="0.9" stroke-linejoin="round" stroke-miterlimit="10" stroke-width="3" stroke-dasharray="6,3"/><path fill="rgb(255,255,255)" stroke="none" paint-order="stroke fill markers" d=" M 649.3396765059989 574.4304327151012 L 659.0118750234689 573.4003473600692 L 652.3844876289612 566.2806397591124 Z" fill-opacity="1"/><path fill="rgb(203,143,255)" stroke="none" paint-order="stroke fill markers" d=" M 649.3396765059989 574.4304327151012 L 659.0118750234689 573.4003473600692 L 652.3844876289612 566.2806397591124 Z" fill-opacity="0.9"/><path fill="none" stroke="rgb(203,143,255)" paint-order="fill stroke markers" d=" M 552.7445549438712 515.8336628900149 L 1033.3105647960685 47.17672325281359" stroke-opacity="0.9" stroke-linejoin="round" stroke-miterlimit="10" stroke-width="3" stroke-dasharray="6,3"/><path fill="rgb(255,255,255)" stroke="none" paint-order="stroke fill markers" d=" M 1034.4146603679596 52.17607050701897 L 1037.606096129216 42.98764094687249 L 1028.340491024345 45.94755007395525 Z" fill-opacity="1"/><path fill="rgb(203,143,255)" stroke="none" paint-order="stroke fill markers" d=" M 1034.4146603679596 52.17607050701897 L 1037.606096129216 42.98764094687249 L 1028.340491024345 45.94755007395525 Z" fill-opacity="0.9"/><path fill="none" stroke="rgb(255,0,102)" paint-order="fill stroke markers" d=" M 79.4447463715879 302.67402991715346 L 182.3918421738333 369.0915110798924" stroke-opacity="0.7" stroke-linejoin="round" stroke-miterlimit="10" stroke-width="2"/><path fill="rgb(255,255,255)" stroke="none" paint-order="stroke fill markers" d=" M 176.08419604345323 370.19880521150407 L 185.75302876673027 371.2600185591808 L 180.80069981090546 362.88822437195313 Z" fill-opacity="1"/><path fill="rgb(255,0,102)" stroke="none" paint-order="stroke fill markers" d=" M 176.08419604345323 370.19880521150407 L 185.75302876673027 371.2600185591808 L 180.80069981090546 362.88822437195313 Z" fill-opacity="0.7"/><path fill="none" stroke="rgb(255,0,102)" paint-order="fill stroke markers" d=" M 81.2273378841688 343.91204447876413 L 179.32801301158483 375.55742355212413" stroke-opacity="0.7" stroke-linejoin="round" stroke-miterlimit="10" stroke-width="2"/><path fill="rgb(255,255,255)" stroke="none" paint-order="stroke fill markers" d=" M 173.51952041544624 378.25444297374554 L 183.13484748262704 376.78543467181515 L 176.19044460077424 369.97457799922876 Z" fill-opacity="1"/><path fill="rgb(255,0,102)" stroke="none" paint-order="stroke fill markers" d=" M 173.51952041544624 378.25444297374554 L 183.13484748262704 376.78543467181515 L 176.19044460077424 369.97457799922876 Z" fill-opacity="0.7"/><path fill="none" stroke="rgb(0,255,136)" paint-order="fill stroke markers" d=" M 1072.270233279513 32.54426890400314 L 1184.6222979125275 66.63852751119151" stroke-opacity="0.25" stroke-linejoin="round" stroke-miterlimit="10" stroke-width="2"/><path fill="rgb(255,255,255)" stroke="none" paint-order="stroke fill markers" d=" M 1178.8616519056109 69.43628689737804 L 1188.4499396863691 67.80006031363088 L 1181.3879857509164 61.111166039272526 Z" fill-opacity="1"/><path fill="rgb(0,255,136)" stroke="none" paint-order="stroke fill markers" d=" M 1178.8616519056109 69.43628689737804 L 1188.4499396863691 67.80006031363088 L 1181.3879857509164 61.111166039272526 Z" fill-opacity="0.25"/><path fill="none" stroke="rgb(255,0,102)" paint-order="fill stroke markers" d=" M 81.2273378841688 424.08795552123587 L 179.32801301158483 392.44257644787587" stroke-opacity="0.7" stroke-linejoin="round" stroke-miterlimit="10" stroke-width="2"/><path fill="rgb(255,255,255)" stroke="none" paint-order="stroke fill markers" d=" M 176.19044460077424 398.02542200077124 L 183.13484748262704 391.21456532818485 L 173.51952041544624 389.74555702625446 Z" fill-opacity="1"/><path fill="rgb(255,0,102)" stroke="none" paint-order="stroke fill markers" d=" M 176.19044460077424 398.02542200077124 L 183.13484748262704 391.21456532818485 L 173.51952041544624 389.74555702625446 Z" fill-opacity="0.7"/><path fill="none" stroke="rgb(255,0,102)" paint-order="fill stroke markers" d=" M 79.4447463715879 465.32597008284654 L 182.3918421738333 398.9084889201076" stroke-opacity="0.7" stroke-linejoin="round" stroke-miterlimit="10" stroke-width="2"/><path fill="rgb(255,255,255)" stroke="none" paint-order="stroke fill markers" d=" M 180.80069981090543 405.11177562804687 L 185.75302876673027 396.7399814408192 L 176.08419604345323 397.80119478849593 Z" fill-opacity="1"/><path fill="rgb(255,0,102)" stroke="none" paint-order="stroke fill markers" d=" M 180.80069981090543 405.11177562804687 L 185.75302876673027 396.7399814408192 L 176.08419604345323 397.80119478849593 Z" fill-opacity="0.7"/><path fill="none" stroke="rgb(255,102,0)" paint-order="fill stroke markers" d=" M 229 384 L 375 384" stroke-opacity="0.7" stroke-linejoin="round" stroke-miterlimit="10" stroke-width="2"/><path fill="rgb(255,255,255)" stroke="none" paint-order="stroke fill markers" d=" M 370.3 388.35 L 379 384 L 370.3 379.65 Z" fill-opacity="1"/><path fill="rgb(255,102,0)" stroke="none" paint-order="stroke fill markers" d=" M 370.3 388.35 L 379 384 L 370.3 379.65 Z" fill-opacity="0.7"/><path fill="none" stroke="rgb(0,255,136)" paint-order="fill stroke markers" d=" M 1073.0468585625822 140.16537220760728 L 1187.5109765490774 87.07273886481474" stroke-opacity="0.7" stroke-linejoin="round" stroke-miterlimit="10" stroke-width="2"/><path fill="rgb(255,255,255)" stroke="none" paint-order="stroke fill markers" d=" M 1185.0776787718132 92.9965519887376 L 1191.139634801289 85.38963480128893 L 1181.4169274336446 85.10422029017748 Z" fill-opacity="1"/><path fill="rgb(0,255,136)" stroke="none" paint-order="stroke fill markers" d=" M 1185.0776787718132 92.9965519887376 L 1191.139634801289 85.38963480128893 L 1181.4169274336446 85.10422029017748 Z" fill-opacity="0.7"/><path fill="none" stroke="rgb(0,255,255)" paint-order="fill stroke markers" d=" M 420.7154922130818 387.4450518674972 L 798.554191959413 450.28082254504966" stroke-opacity="0.7" stroke-linejoin="round" stroke-miterlimit="10" stroke-width="2"/><path fill="rgb(255,255,255)" stroke="none" paint-order="stroke fill markers" d=" M 793.2042496248845 453.8008533712243 L 802.5 450.9370229007634 L 794.631485398562 445.2187208829476 Z" fill-opacity="1"/><path fill="rgb(0,255,255)" stroke="none" paint-order="stroke fill markers" d=" M 793.2042496248845 453.8008533712243 L 802.5 450.9370229007634 L 794.631485398562 445.2187208829476 Z" fill-opacity="0.7"/><path fill="none" stroke="rgb(0,255,255)" paint-order="fill stroke markers" d=" M 910.3330587550504 377.72805863166525 L 1035.1975478521354 178.9348502865621" stroke-opacity="0.7" stroke-linejoin="round" stroke-miterlimit="10" stroke-width="2"/><path fill="rgb(255,255,255)" stroke="none" paint-order="stroke fill markers" d=" M 1036.3812816700877 185.22859910965917 L 1037.32511953746 175.5476038054503 L 1029.0140205736695 180.60113069407768 Z" fill-opacity="1"/><path fill="rgb(0,255,255)" stroke="none" paint-order="stroke fill markers" d=" M 1036.3812816700877 185.22859910965917 L 1037.32511953746 175.5476038054503 L 1029.0140205736695 180.60113069407768 Z" fill-opacity="0.7"/><path fill="none" stroke="rgb(0,255,255)" paint-order="fill stroke markers" d=" M 687.4541149716697 570.3405086564456 L 799.1364712570826 498.4582332694929" stroke-opacity="0.7" stroke-linejoin="round" stroke-miterlimit="10" stroke-width="2"/><path fill="rgb(255,255,255)" stroke="none" paint-order="stroke fill markers" d=" M 797.5386241931834 504.65979635958473 L 802.5 496.29336043360433 L 792.8300257751257 497.3441213437393 Z" fill-opacity="1"/><path fill="rgb(0,255,255)" stroke="none" paint-order="stroke fill markers" d=" M 797.5386241931834 504.65979635958473 L 802.5 496.29336043360433 L 792.8300257751257 497.3441213437393 Z" fill-opacity="0.7"/><path fill="none" stroke="rgb(0,255,255)" paint-order="fill stroke markers" d=" M 689.6917393832088 493.8744096350519 L 798.5770651541978 472.18586913595243" stroke-opacity="0.7" stroke-linejoin="round" stroke-miterlimit="10" stroke-width="2"/><path fill="rgb(255,255,255)" stroke="none" paint-order="stroke fill markers" d=" M 794.8173865908506 477.3702029504658 L 802.5 471.4044715447154 L 793.11784682991 468.8378196608461 Z" fill-opacity="1"/><path fill="rgb(0,255,255)" stroke="none" paint-order="stroke fill markers" d=" M 794.8173865908506 477.3702029504658 L 802.5 471.4044715447154 L 793.11784682991 468.8378196608461 Z" fill-opacity="0.7"/><path fill="rgb(239,68,68)" stroke="rgb(0,0,0)" paint-order="fill stroke markers" d=" M 420 384 L 419.93834667466257 385.5691819145569 L 419.7537668119028 387.12868930080464 L 419.44739840795353 388.6689072771181 L 419.0211303259031 390.180339887499 L 418.47759065022575 391.6536686473018 L 417.82013048376734 393.07980999479093 L 417.0528032870818 394.44997129431897 L 416.180339887499 395.7557050458495 L 415.20811931200063 396.98896096660366 L 414.14213562373095 398.14213562373095 L 412.98896096660366 399.20811931200063 L 411.7557050458495 400.180339887499 L 410.44997129431897 401.0528032870818 L 409.07980999479093 401.82013048376734 L 407.6536686473018 402.47759065022575 L 406.180339887499 403.0211303259031 L 404.66890727711814 403.44739840795353 L 403.12868930080464 403.7537668119028 L 401.5691819145569 403.93834667466257 L 400 404 L 398.4308180854431 403.93834667466257 L 396.87131069919536 403.7537668119028 L 395.3310927228819 403.44739840795353 L 393.819660112501 403.0211303259031 L 392.3463313526982 402.47759065022575 L 390.92019000520907 401.82013048376734 L 389.55002870568103 401.0528032870819 L 388.2442949541505 400.180339887499 L 387.01103903339634 399.20811931200063 L 385.85786437626905 398.14213562373095 L 384.79188068799937 396.98896096660366 L 383.8196601125011 395.7557050458495 L 382.9471967129182 394.44997129431897 L 382.17986951623266 393.07980999479093 L 381.52240934977425 391.6536686473018 L 380.9788696740969 390.180339887499 L 380.55260159204647 388.66890727711814 L 380.2462331880972 387.12868930080464 L 380.06165332533743 385.5691819145569 L 380 384 L 380.06165332533743 382.4308180854431 L 380.2462331880972 380.87131069919536 L 380.55260159204647 379.3310927228819 L 380.9788696740969 377.8196601125011 L 381.52240934977425 376.3463313526982 L 382.17986951623266 374.92019000520907 L 382.9471967129181 373.55002870568103 L 383.819660112501 372.2442949541505 L 384.79188068799937 371.01103903339634 L 385.85786437626905 369.85786437626905 L 387.01103903339634 368.79188068799937 L 388.2442949541505 367.8196601125011 L 389.55002870568103 366.9471967129181 L 390.92019000520907 366.17986951623266 L 392.3463313526982 365.52240934977425 L 393.8196601125011 364.9788696740969 L 395.3310927228819 364.55260159204647 L 396.8713106991954 364.2462331880972 L 398.43081808544315 364.06165332533743 L 400.00000000000006 364 L 401.56918191455696 364.06165332533743 L 403.1286893008047 364.2462331880973 L 404.6689072771182 364.55260159204647 L 406.18033988749903 364.978869674097 L 407.6536686473019 365.5224093497743 L 409.07980999479105 366.1798695162327 L 410.4499712943191 366.94719671291824 L 411.7557050458496 367.81966011250114 L 412.98896096660377 368.7918806879995 L 414.14213562373106 369.85786437626916 L 415.20811931200075 371.01103903339646 L 416.18033988749903 372.2442949541507 L 417.05280328708193 373.5500287056812 L 417.82013048376746 374.92019000520924 L 418.4775906502258 376.34633135269837 L 419.02113032590313 377.81966011250125 L 419.4473984079536 379.3310927228821 L 419.7537668119028 380.8713106991956 L 419.93834667466257 382.4308180854433 Z" fill-opacity="1" stroke-opacity="1" stroke-miterlimit="10" stroke-width="2"/><text fill="none" stroke="rgb(0,0,0)" font-family="Helvetica Neue, Helvetica, sans-serif" font-size="10px" font-style="normal" font-weight="normal" text-decoration="normal" x="400" y="364" text-anchor="middle" dominant-baseline="text-after-edge" stroke-opacity="1" stroke-linejoin="round" stroke-miterlimit="10" stroke-width="4">host_alpine_9eb953fb</text><text fill="rgb(255,255,255)" stroke="none" font-family="Helvetica Neue, Helvetica, sans-serif" font-size="10px" font-style="normal" font-weight="normal" text-decoration="normal" x="400" y="364" text-anchor="middle" dominant-baseline="text-after-edge" fill-opacity="1">host_alpine_9eb953fb</text><path fill="rgb(0,255,136)" stroke="rgb(0,204,102)" paint-order="fill stroke markers" d=" M 1213 105.25 L 1243 75.25 L 1213 45.25 L 1183 75.25 Z" fill-opacity="1" stroke-opacity="1" stroke-miterlimit="10" stroke-width="4"/><text fill="none" stroke="rgb(0,0,0)" font-family="Helvetica Neue, Helvetica, sans-serif" font-size="14px" font-style="normal" font-weight="bold" text-decoration="normal" x="1213" y="45.25" text-anchor="middle" dominant-baseline="text-after-edge" stroke-opacity="1" stroke-linejoin="round" stroke-miterlimit="10" stroke-width="6">INSIDE NETWORK</text><text fill="rgb(255,255,255)" stroke="none" font-family="Helvetica Neue, Helvetica, sans-serif" font-size="14px" font-style="normal" font-weight="bold" text-decoration="normal" x="1213" y="45.25" text-anchor="middle" dominant-baseline="text-after-edge" fill-opacity="1">INSIDE NETWORK</text><path fill="rgb(255,0,102)" stroke="rgb(0,0,0)" paint-order="fill stroke markers" d=" M 228 384 L 227.93064000899537 385.7653296538765 L 227.7229876633906 387.5197754634052 L 227.37832320894773 389.25252068675786 L 226.89877161664094 390.9528823734363 L 226.28728948150396 392.61037722821453 L 225.5476467942383 394.2147862441398 L 224.68440369796707 395.7562177061088 L 223.70288237343632 397.22516817658067 L 222.6091342260007 398.61258108742913 L 221.40990257669733 399.90990257669733 L 220.11258108742913 401.1091342260007 L 218.72516817658064 402.2028823734363 L 217.25621770610886 403.18440369796707 L 215.71478624413982 404.0476467942383 L 214.11037722821453 404.78728948150393 L 212.45288237343632 405.39877161664094 L 210.75252068675786 405.87832320894773 L 209.01977546340518 406.2229876633906 L 207.2653296538765 406.4306400089954 L 205.5 406.5 L 203.7346703461235 406.4306400089954 L 201.98022453659482 406.2229876633906 L 200.24747931324214 405.87832320894773 L 198.54711762656368 405.39877161664094 L 196.88962277178547 404.78728948150393 L 195.2852137558602 404.0476467942383 L 193.74378229389114 403.18440369796707 L 192.27483182341936 402.2028823734363 L 190.88741891257087 401.1091342260007 L 189.5900974233027 399.90990257669733 L 188.3908657739993 398.61258108742913 L 187.29711762656368 397.22516817658067 L 186.31559630203293 395.7562177061088 L 185.4523532057617 394.2147862441398 L 184.71271051849604 392.61037722821453 L 184.10122838335906 390.9528823734363 L 183.62167679105227 389.25252068675786 L 183.2770123366094 387.5197754634052 L 183.06935999100463 385.7653296538765 L 183 384 L 183.06935999100463 382.2346703461235 L 183.2770123366094 380.4802245365948 L 183.62167679105227 378.74747931324214 L 184.10122838335906 377.0471176265637 L 184.71271051849604 375.38962277178547 L 185.4523532057617 373.7852137558602 L 186.31559630203293 372.2437822938912 L 187.29711762656368 370.77483182341933 L 188.3908657739993 369.38741891257087 L 189.59009742330267 368.09009742330267 L 190.88741891257087 366.89086577399934 L 192.27483182341936 365.7971176265637 L 193.74378229389114 364.81559630203293 L 195.2852137558602 363.9523532057617 L 196.8896227717855 363.212710518496 L 198.5471176265637 362.60122838335906 L 200.24747931324217 362.12167679105227 L 201.98022453659485 361.7770123366094 L 203.73467034612355 361.5693599910046 L 205.50000000000009 361.5 L 207.2653296538766 361.5693599910046 L 209.0197754634053 361.7770123366094 L 210.75252068675798 362.1216767910523 L 212.45288237343644 362.60122838335906 L 214.11037722821465 363.2127105184961 L 215.71478624413993 363.95235320576177 L 217.25621770610897 364.815596302033 L 218.72516817658078 365.79711762656376 L 220.11258108742925 366.8908657739994 L 221.40990257669745 368.0900974233028 L 222.6091342260008 369.387418912571 L 223.70288237343644 370.7748318234195 L 224.68440369796718 372.24378229389134 L 225.54764679423837 373.7852137558604 L 226.28728948150405 375.3896227717857 L 226.89877161664103 377.04711762656393 L 227.3783232089478 378.74747931324237 L 227.72298766339065 380.4802245365951 L 227.9306400089954 382.2346703461238 Z" fill-opacity="1" stroke-opacity="1" stroke-miterlimit="10" stroke-width="2"/><text fill="none" stroke="rgb(0,0,0)" font-family="Helvetica Neue, Helvetica, sans-serif" font-size="10px" font-style="normal" font-weight="normal" text-decoration="normal" x="205.5" y="361.5" text-anchor="middle" dominant-baseline="text-after-edge" stroke-opacity="1" stroke-linejoin="round" stroke-miterlimit="10" stroke-width="4">Hacker</text><text fill="rgb(255,255,255)" stroke="none" font-family="Helvetica Neue, Helvetica, sans-serif" font-size="10px" font-style="normal" font-weight="normal" text-decoration="normal" x="205.5" y="361.5" text-anchor="middle" dominant-baseline="text-after-edge" fill-opacity="1">Hacker</text><path fill="rgb(99,102,241)" stroke="rgb(255,0,102)" paint-order="fill stroke markers" d=" M 81 474 L 80.95376000599691 475.17688643591765 L 80.81532510892707 476.34651697560344 L 80.58554880596515 477.5016804578386 L 80.2658477444273 478.6352549156242 L 79.8581929876693 479.74025148547634 L 79.36509786282552 480.8098574960932 L 78.78960246531139 481.83747847073926 L 78.13525491562422 482.8167787843871 L 77.40608948400046 483.74172072495276 L 76.60660171779821 484.6066017177982 L 75.74172072495276 485.40608948400046 L 74.8167787843871 486.1352549156242 L 73.83747847073923 486.78960246531136 L 72.8098574960932 487.3650978628255 L 71.74025148547635 487.8581929876693 L 70.63525491562422 488.2658477444273 L 69.50168045783859 488.5855488059652 L 68.34651697560346 488.8153251089271 L 67.17688643591768 488.9537600059969 L 66 489 L 64.82311356408232 488.9537600059969 L 63.653483024396536 488.8153251089271 L 62.49831954216142 488.5855488059652 L 61.36474508437579 488.26584774442733 L 60.25974851452365 487.8581929876693 L 59.1901425039068 487.3650978628255 L 58.16252152926077 486.78960246531136 L 57.1832212156129 486.1352549156242 L 56.258279275047244 485.40608948400046 L 55.39339828220179 484.6066017177982 L 54.59391051599954 483.74172072495276 L 53.86474508437579 482.8167787843871 L 53.21039753468862 481.83747847073926 L 52.634902137174485 480.80985749609323 L 52.1418070123307 479.74025148547634 L 51.734152255572695 478.6352549156242 L 51.414451194034854 477.5016804578386 L 51.18467489107294 476.3465169756035 L 51.04623999400308 475.17688643591765 L 51 474 L 51.04623999400308 472.82311356408235 L 51.18467489107293 471.65348302439656 L 51.414451194034854 470.4983195421614 L 51.734152255572695 469.3647450843758 L 52.141807012330695 468.25974851452366 L 52.63490213717448 467.1901425039068 L 53.21039753468862 466.16252152926074 L 53.864745084375784 465.1832212156129 L 54.59391051599953 464.25827927504724 L 55.39339828220179 463.3933982822018 L 56.25827927504724 462.59391051599954 L 57.1832212156129 461.8647450843758 L 58.16252152926077 461.21039753468864 L 59.190142503906806 460.6349021371745 L 60.25974851452367 460.1418070123307 L 61.36474508437581 459.73415225557267 L 62.49831954216145 459.4144511940348 L 63.65348302439657 459.1846748910729 L 64.82311356408238 459.0462399940031 L 66.00000000000006 459 L 67.17688643591774 459.0462399940031 L 68.34651697560352 459.1846748910729 L 69.50168045783865 459.4144511940349 L 70.63525491562429 459.7341522555727 L 71.74025148547642 460.14180701233073 L 72.80985749609329 460.63490213717455 L 73.83747847073931 461.2103975346887 L 74.81677878438718 461.86474508437584 L 75.74172072495284 462.5939105159996 L 76.6066017177983 463.3933982822019 L 77.40608948400055 464.25827927504736 L 78.13525491562429 465.183221215613 L 78.78960246531145 466.16252152926086 L 79.36509786282558 467.19014250390694 L 79.85819298766936 468.2597485145238 L 80.26584774442735 469.36474508437595 L 80.58554880596519 470.4983195421616 L 80.8153251089271 471.6534830243967 L 80.95376000599694 472.8231135640825 Z" fill-opacity="1" stroke-opacity="1" stroke-miterlimit="10" stroke-width="2"/><text fill="none" stroke="rgb(0,0,0)" font-family="Helvetica Neue, Helvetica, sans-serif" font-size="10px" font-style="normal" font-weight="normal" text-decoration="normal" x="66" y="459" text-anchor="middle" dominant-baseline="text-after-edge" stroke-opacity="1" stroke-linejoin="round" stroke-miterlimit="10" stroke-width="4">AV:N</text><text fill="rgb(255,255,255)" stroke="none" font-family="Helvetica Neue, Helvetica, sans-serif" font-size="10px" font-style="normal" font-weight="normal" text-decoration="normal" x="66" y="459" text-anchor="middle" dominant-baseline="text-after-edge" fill-opacity="1">AV:N</text><path fill="rgb(99,102,241)" stroke="rgb(255,0,102)" paint-order="fill stroke markers" d=" M 81 429 L 80.95376000599691 430.17688643591765 L 80.81532510892707 431.34651697560344 L 80.58554880596515 432.5016804578386 L 80.2658477444273 433.6352549156242 L 79.8581929876693 434.74025148547634 L 79.36509786282552 435.8098574960932 L 78.78960246531139 436.83747847073926 L 78.13525491562422 437.8167787843871 L 77.40608948400046 438.74172072495276 L 76.60660171779821 439.6066017177982 L 75.74172072495276 440.40608948400046 L 74.8167787843871 441.1352549156242 L 73.83747847073923 441.78960246531136 L 72.8098574960932 442.3650978628255 L 71.74025148547635 442.8581929876693 L 70.63525491562422 443.2658477444273 L 69.50168045783859 443.5855488059652 L 68.34651697560346 443.8153251089271 L 67.17688643591768 443.9537600059969 L 66 444 L 64.82311356408232 443.9537600059969 L 63.653483024396536 443.8153251089271 L 62.49831954216142 443.5855488059652 L 61.36474508437579 443.26584774442733 L 60.25974851452365 442.8581929876693 L 59.1901425039068 442.3650978628255 L 58.16252152926077 441.78960246531136 L 57.1832212156129 441.1352549156242 L 56.258279275047244 440.40608948400046 L 55.39339828220179 439.6066017177982 L 54.59391051599954 438.74172072495276 L 53.86474508437579 437.8167787843871 L 53.21039753468862 436.83747847073926 L 52.634902137174485 435.80985749609323 L 52.1418070123307 434.74025148547634 L 51.734152255572695 433.6352549156242 L 51.414451194034854 432.5016804578386 L 51.18467489107294 431.3465169756035 L 51.04623999400308 430.17688643591765 L 51 429 L 51.04623999400308 427.82311356408235 L 51.18467489107293 426.65348302439656 L 51.414451194034854 425.4983195421614 L 51.734152255572695 424.3647450843758 L 52.141807012330695 423.25974851452366 L 52.63490213717448 422.1901425039068 L 53.21039753468862 421.16252152926074 L 53.864745084375784 420.1832212156129 L 54.59391051599953 419.25827927504724 L 55.39339828220179 418.3933982822018 L 56.25827927504724 417.59391051599954 L 57.1832212156129 416.8647450843758 L 58.16252152926077 416.21039753468864 L 59.190142503906806 415.6349021371745 L 60.25974851452367 415.1418070123307 L 61.36474508437581 414.73415225557267 L 62.49831954216145 414.4144511940348 L 63.65348302439657 414.1846748910729 L 64.82311356408238 414.0462399940031 L 66.00000000000006 414 L 67.17688643591774 414.0462399940031 L 68.34651697560352 414.1846748910729 L 69.50168045783865 414.4144511940349 L 70.63525491562429 414.7341522555727 L 71.74025148547642 415.14180701233073 L 72.80985749609329 415.63490213717455 L 73.83747847073931 416.2103975346887 L 74.81677878438718 416.86474508437584 L 75.74172072495284 417.5939105159996 L 76.6066017177983 418.3933982822019 L 77.40608948400055 419.25827927504736 L 78.13525491562429 420.183221215613 L 78.78960246531145 421.16252152926086 L 79.36509786282558 422.19014250390694 L 79.85819298766936 423.2597485145238 L 80.26584774442735 424.36474508437595 L 80.58554880596519 425.4983195421616 L 80.8153251089271 426.6534830243967 L 80.95376000599694 427.8231135640825 Z" fill-opacity="1" stroke-opacity="1" stroke-miterlimit="10" stroke-width="2"/><text fill="none" stroke="rgb(0,0,0)" font-family="Helvetica Neue, Helvetica, sans-serif" font-size="10px" font-style="normal" font-weight="normal" text-decoration="normal" x="66" y="414" text-anchor="middle" dominant-baseline="text-after-edge" stroke-opacity="1" stroke-linejoin="round" stroke-miterlimit="10" stroke-width="4">PR:N</text><text fill="rgb(255,255,255)" stroke="none" font-family="Helvetica Neue, Helvetica, sans-serif" font-size="10px" font-style="normal" font-weight="normal" text-decoration="normal" x="66" y="414" text-anchor="middle" dominant-baseline="text-after-edge" fill-opacity="1">PR:N</text><path fill="rgb(234,179,8)" stroke="rgb(255,102,102)" paint-order="fill stroke markers" d=" M 557 528.75 L 556.9460533403297 530.1230341752373 L 556.7845459604149 531.487603138204 L 556.5164736069594 532.8352938674783 L 556.1434890351652 534.1577974015615 L 555.6678918189475 535.4469600663891 L 555.0926141732964 536.6948337454421 L 554.4212028761966 537.8937248825291 L 553.6577974015615 539.0362419151182 L 552.8071043980005 540.1153408457782 L 551.8743686707646 541.1243686707646 L 550.8653408457782 542.0571043980005 L 549.7862419151182 542.9077974015615 L 548.6437248825291 543.6712028761966 L 547.4448337454421 544.3426141732964 L 546.1969600663891 544.9178918189475 L 544.9077974015615 545.3934890351652 L 543.5852938674783 545.7664736069594 L 542.237603138204 546.0345459604149 L 540.8730341752373 546.1960533403297 L 539.5 546.25 L 538.1269658247627 546.1960533403297 L 536.762396861796 546.0345459604149 L 535.4147061325217 545.7664736069594 L 534.0922025984385 545.3934890351652 L 532.8030399336109 544.9178918189475 L 531.5551662545579 544.3426141732964 L 530.3562751174709 543.6712028761966 L 529.2137580848818 542.9077974015615 L 528.1346591542218 542.0571043980005 L 527.1256313292354 541.1243686707646 L 526.1928956019995 540.1153408457782 L 525.3422025984385 539.0362419151182 L 524.5787971238034 537.8937248825291 L 523.9073858267036 536.6948337454421 L 523.3321081810525 535.4469600663891 L 522.8565109648348 534.1577974015615 L 522.4835263930406 532.8352938674783 L 522.2154540395851 531.487603138204 L 522.0539466596703 530.1230341752373 L 522 528.75 L 522.0539466596703 527.3769658247627 L 522.2154540395851 526.012396861796 L 522.4835263930406 524.6647061325217 L 522.8565109648348 523.3422025984385 L 523.3321081810525 522.0530399336109 L 523.9073858267036 520.8051662545579 L 524.5787971238034 519.6062751174709 L 525.3422025984385 518.4637580848818 L 526.1928956019995 517.3846591542218 L 527.1256313292354 516.3756313292354 L 528.1346591542218 515.4428956019995 L 529.2137580848818 514.5922025984385 L 530.3562751174709 513.8287971238034 L 531.5551662545579 513.1573858267036 L 532.803039933611 512.5821081810525 L 534.0922025984385 512.1065109648348 L 535.4147061325217 511.7335263930407 L 536.762396861796 511.4654540395851 L 538.1269658247628 511.30394665967026 L 539.5000000000001 511.25 L 540.8730341752373 511.30394665967026 L 542.2376031382041 511.4654540395851 L 543.5852938674784 511.7335263930407 L 544.9077974015617 512.1065109648348 L 546.1969600663891 512.5821081810525 L 547.4448337454421 513.1573858267036 L 548.6437248825292 513.8287971238035 L 549.7862419151184 514.5922025984385 L 550.8653408457783 515.4428956019996 L 551.8743686707646 516.3756313292355 L 552.8071043980007 517.3846591542219 L 553.6577974015617 518.4637580848819 L 554.4212028761967 519.606275117471 L 555.0926141732965 520.8051662545581 L 555.6678918189476 522.0530399336111 L 556.1434890351652 523.3422025984386 L 556.5164736069594 524.6647061325218 L 556.7845459604149 526.0123968617961 L 556.9460533403297 527.3769658247629 Z" fill-opacity="0.25" stroke-opacity="0.25" stroke-miterlimit="10" stroke-width="2" stroke-dasharray="4,2"/><text fill="none" stroke="rgb(0,0,0)" font-family="Helvetica Neue, Helvetica, sans-serif" font-size="10px" font-style="normal" font-weight="normal" text-decoration="normal" x="539.5" y="511.25" text-anchor="middle" dominant-baseline="text-after-edge" stroke-opacity="0.25" stroke-linejoin="round" stroke-miterlimit="10" stroke-width="4">CVE-2026-28387</text><text fill="rgb(255,255,255)" stroke="none" font-family="Helvetica Neue, Helvetica, sans-serif" font-size="10px" font-style="normal" font-weight="normal" text-decoration="normal" x="539.5" y="511.25" text-anchor="middle" dominant-baseline="text-after-edge" fill-opacity="0.25">CVE-2026-28387</text><path fill="rgb(99,102,241)" stroke="rgb(255,0,102)" paint-order="fill stroke markers" d=" M 81 339 L 80.95376000599691 340.17688643591765 L 80.81532510892707 341.34651697560344 L 80.58554880596515 342.5016804578386 L 80.2658477444273 343.6352549156242 L 79.8581929876693 344.74025148547634 L 79.36509786282552 345.8098574960932 L 78.78960246531139 346.83747847073926 L 78.13525491562422 347.8167787843871 L 77.40608948400046 348.74172072495276 L 76.60660171779821 349.6066017177982 L 75.74172072495276 350.40608948400046 L 74.8167787843871 351.1352549156242 L 73.83747847073923 351.78960246531136 L 72.8098574960932 352.3650978628255 L 71.74025148547635 352.8581929876693 L 70.63525491562422 353.2658477444273 L 69.50168045783859 353.5855488059652 L 68.34651697560346 353.8153251089271 L 67.17688643591768 353.9537600059969 L 66 354 L 64.82311356408232 353.9537600059969 L 63.653483024396536 353.8153251089271 L 62.49831954216142 353.5855488059652 L 61.36474508437579 353.26584774442733 L 60.25974851452365 352.8581929876693 L 59.1901425039068 352.3650978628255 L 58.16252152926077 351.78960246531136 L 57.1832212156129 351.1352549156242 L 56.258279275047244 350.40608948400046 L 55.39339828220179 349.6066017177982 L 54.59391051599954 348.74172072495276 L 53.86474508437579 347.8167787843871 L 53.21039753468862 346.83747847073926 L 52.634902137174485 345.80985749609323 L 52.1418070123307 344.74025148547634 L 51.734152255572695 343.6352549156242 L 51.414451194034854 342.5016804578386 L 51.18467489107294 341.3465169756035 L 51.04623999400308 340.17688643591765 L 51 339 L 51.04623999400308 337.82311356408235 L 51.18467489107293 336.65348302439656 L 51.414451194034854 335.4983195421614 L 51.734152255572695 334.3647450843758 L 52.141807012330695 333.25974851452366 L 52.63490213717448 332.1901425039068 L 53.21039753468862 331.16252152926074 L 53.864745084375784 330.1832212156129 L 54.59391051599953 329.25827927504724 L 55.39339828220179 328.3933982822018 L 56.25827927504724 327.59391051599954 L 57.1832212156129 326.8647450843758 L 58.16252152926077 326.21039753468864 L 59.190142503906806 325.6349021371745 L 60.25974851452367 325.1418070123307 L 61.36474508437581 324.73415225557267 L 62.49831954216145 324.4144511940348 L 63.65348302439657 324.1846748910729 L 64.82311356408238 324.0462399940031 L 66.00000000000006 324 L 67.17688643591774 324.0462399940031 L 68.34651697560352 324.1846748910729 L 69.50168045783865 324.4144511940349 L 70.63525491562429 324.7341522555727 L 71.74025148547642 325.14180701233073 L 72.80985749609329 325.63490213717455 L 73.83747847073931 326.2103975346887 L 74.81677878438718 326.86474508437584 L 75.74172072495284 327.5939105159996 L 76.6066017177983 328.3933982822019 L 77.40608948400055 329.25827927504736 L 78.13525491562429 330.183221215613 L 78.78960246531145 331.16252152926086 L 79.36509786282558 332.19014250390694 L 79.85819298766936 333.2597485145238 L 80.26584774442735 334.36474508437595 L 80.58554880596519 335.4983195421616 L 80.8153251089271 336.6534830243967 L 80.95376000599694 337.8231135640825 Z" fill-opacity="1" stroke-opacity="1" stroke-miterlimit="10" stroke-width="2"/><text fill="none" stroke="rgb(0,0,0)" font-family="Helvetica Neue, Helvetica, sans-serif" font-size="10px" font-style="normal" font-weight="normal" text-decoration="normal" x="66" y="324" text-anchor="middle" dominant-baseline="text-after-edge" stroke-opacity="1" stroke-linejoin="round" stroke-miterlimit="10" stroke-width="4">AC:L</text><text fill="rgb(255,255,255)" stroke="none" font-family="Helvetica Neue, Helvetica, sans-serif" font-size="10px" font-style="normal" font-weight="normal" text-decoration="normal" x="66" y="324" text-anchor="middle" dominant-baseline="text-after-edge" fill-opacity="1">AC:L</text><path fill="rgb(99,102,241)" stroke="rgb(255,102,102)" paint-order="fill stroke markers" d=" M 689 579 L 688.953760005997 580.1768864359177 L 688.815325108927 581.3465169756034 L 688.5855488059651 582.5016804578386 L 688.2658477444273 583.6352549156242 L 687.8581929876693 584.7402514854764 L 687.3650978628256 585.8098574960932 L 686.7896024653114 586.8374784707393 L 686.1352549156242 587.8167787843871 L 685.4060894840005 588.7417207249528 L 684.6066017177982 589.6066017177982 L 683.7417207249528 590.4060894840005 L 682.8167787843871 591.1352549156242 L 681.8374784707393 591.7896024653114 L 680.8098574960932 592.3650978628256 L 679.7402514854764 592.8581929876693 L 678.6352549156242 593.2658477444273 L 677.5016804578386 593.5855488059651 L 676.3465169756034 593.815325108927 L 675.1768864359177 593.953760005997 L 674 594 L 672.8231135640823 593.953760005997 L 671.6534830243966 593.815325108927 L 670.4983195421614 593.5855488059651 L 669.3647450843758 593.2658477444273 L 668.2597485145236 592.8581929876693 L 667.1901425039068 592.3650978628256 L 666.1625215292607 591.7896024653114 L 665.1832212156129 591.1352549156242 L 664.2582792750472 590.4060894840005 L 663.3933982822018 589.6066017177982 L 662.5939105159995 588.7417207249528 L 661.8647450843758 587.8167787843871 L 661.2103975346886 586.8374784707393 L 660.6349021371744 585.8098574960932 L 660.1418070123307 584.7402514854764 L 659.7341522555727 583.6352549156242 L 659.4144511940349 582.5016804578386 L 659.184674891073 581.3465169756034 L 659.046239994003 580.1768864359177 L 659 579 L 659.046239994003 577.8231135640823 L 659.184674891073 576.6534830243966 L 659.4144511940349 575.4983195421614 L 659.7341522555727 574.3647450843758 L 660.1418070123307 573.2597485145236 L 660.6349021371744 572.1901425039068 L 661.2103975346886 571.1625215292607 L 661.8647450843758 570.1832212156129 L 662.5939105159995 569.2582792750472 L 663.3933982822018 568.3933982822018 L 664.2582792750472 567.5939105159996 L 665.1832212156129 566.8647450843758 L 666.1625215292607 566.2103975346886 L 667.1901425039068 565.6349021371744 L 668.2597485145237 565.1418070123307 L 669.3647450843758 564.7341522555727 L 670.4983195421614 564.4144511940349 L 671.6534830243966 564.184674891073 L 672.8231135640824 564.046239994003 L 674 564 L 675.1768864359177 564.046239994003 L 676.3465169756035 564.184674891073 L 677.5016804578387 564.4144511940349 L 678.6352549156243 564.7341522555727 L 679.7402514854764 565.1418070123307 L 680.8098574960933 565.6349021371745 L 681.8374784707394 566.2103975346887 L 682.8167787843872 566.8647450843758 L 683.7417207249529 567.5939105159996 L 684.6066017177983 568.3933982822018 L 685.4060894840005 569.2582792750474 L 686.1352549156243 570.183221215613 L 686.7896024653114 571.1625215292609 L 687.3650978628256 572.1901425039069 L 687.8581929876693 573.2597485145238 L 688.2658477444273 574.364745084376 L 688.5855488059652 575.4983195421615 L 688.8153251089271 576.6534830243967 L 688.953760005997 577.8231135640825 Z" fill-opacity="0.25" stroke-opacity="0.25" stroke-miterlimit="10" stroke-width="2" stroke-dasharray="4,2"/><text fill="none" stroke="rgb(0,0,0)" font-family="Helvetica Neue, Helvetica, sans-serif" font-size="10px" font-style="normal" font-weight="normal" text-decoration="normal" x="674" y="564" text-anchor="middle" dominant-baseline="text-after-edge" stroke-opacity="0.25" stroke-linejoin="round" stroke-miterlimit="10" stroke-width="4">AV:L</text><text fill="rgb(255,255,255)" stroke="none" font-family="Helvetica Neue, Helvetica, sans-serif" font-size="10px" font-style="normal" font-weight="normal" text-decoration="normal" x="674" y="564" text-anchor="middle" dominant-baseline="text-after-edge" fill-opacity="0.25">AV:L</text><path fill="rgb(99,102,241)" stroke="rgb(255,102,102)" paint-order="fill stroke markers" d=" M 689 497 L 688.953760005997 498.17688643591765 L 688.815325108927 499.34651697560344 L 688.5855488059651 500.5016804578386 L 688.2658477444273 501.6352549156242 L 687.8581929876693 502.74025148547634 L 687.3650978628256 503.8098574960932 L 686.7896024653114 504.83747847073926 L 686.1352549156242 505.8167787843871 L 685.4060894840005 506.74172072495276 L 684.6066017177982 507.6066017177982 L 683.7417207249528 508.40608948400046 L 682.8167787843871 509.1352549156242 L 681.8374784707393 509.78960246531136 L 680.8098574960932 510.3650978628255 L 679.7402514854764 510.8581929876693 L 678.6352549156242 511.2658477444273 L 677.5016804578386 511.5855488059652 L 676.3465169756034 511.8153251089271 L 675.1768864359177 511.9537600059969 L 674 512 L 672.8231135640823 511.9537600059969 L 671.6534830243966 511.8153251089271 L 670.4983195421614 511.5855488059652 L 669.3647450843758 511.26584774442733 L 668.2597485145236 510.8581929876693 L 667.1901425039068 510.3650978628255 L 666.1625215292607 509.78960246531136 L 665.1832212156129 509.1352549156242 L 664.2582792750472 508.40608948400046 L 663.3933982822018 507.6066017177982 L 662.5939105159995 506.74172072495276 L 661.8647450843758 505.8167787843871 L 661.2103975346886 504.83747847073926 L 660.6349021371744 503.80985749609323 L 660.1418070123307 502.74025148547634 L 659.7341522555727 501.6352549156242 L 659.4144511940349 500.5016804578386 L 659.184674891073 499.3465169756035 L 659.046239994003 498.17688643591765 L 659 497 L 659.046239994003 495.82311356408235 L 659.184674891073 494.65348302439656 L 659.4144511940349 493.4983195421614 L 659.7341522555727 492.3647450843758 L 660.1418070123307 491.25974851452366 L 660.6349021371744 490.1901425039068 L 661.2103975346886 489.16252152926074 L 661.8647450843758 488.1832212156129 L 662.5939105159995 487.25827927504724 L 663.3933982822018 486.3933982822018 L 664.2582792750472 485.59391051599954 L 665.1832212156129 484.8647450843758 L 666.1625215292607 484.21039753468864 L 667.1901425039068 483.6349021371745 L 668.2597485145237 483.1418070123307 L 669.3647450843758 482.73415225557267 L 670.4983195421614 482.4144511940348 L 671.6534830243966 482.1846748910729 L 672.8231135640824 482.0462399940031 L 674 482 L 675.1768864359177 482.0462399940031 L 676.3465169756035 482.1846748910729 L 677.5016804578387 482.4144511940349 L 678.6352549156243 482.7341522555727 L 679.7402514854764 483.14180701233073 L 680.8098574960933 483.63490213717455 L 681.8374784707394 484.2103975346887 L 682.8167787843872 484.86474508437584 L 683.7417207249529 485.5939105159996 L 684.6066017177983 486.3933982822019 L 685.4060894840005 487.25827927504736 L 686.1352549156243 488.183221215613 L 686.7896024653114 489.16252152926086 L 687.3650978628256 490.19014250390694 L 687.8581929876693 491.2597485145238 L 688.2658477444273 492.36474508437595 L 688.5855488059652 493.4983195421616 L 688.8153251089271 494.6534830243967 L 688.953760005997 495.8231135640825 Z" fill-opacity="0.25" stroke-opacity="0.25" stroke-miterlimit="10" stroke-width="2" stroke-dasharray="4,2"/><text fill="none" stroke="rgb(0,0,0)" font-family="Helvetica Neue, Helvetica, sans-serif" font-size="10px" font-style="normal" font-weight="normal" text-decoration="normal" x="674" y="482" text-anchor="middle" dominant-baseline="text-after-edge" stroke-opacity="0.25" stroke-linejoin="round" stroke-miterlimit="10" stroke-width="4">PR:H</text><text fill="rgb(255,255,255)" stroke="none" font-family="Helvetica Neue, Helvetica, sans-serif" font-size="10px" font-style="normal" font-weight="normal" text-decoration="normal" x="674" y="482" text-anchor="middle" dominant-baseline="text-after-edge" fill-opacity="0.25">PR:H</text><path fill="rgb(255,0,0)" stroke="rgb(255,215,0)" paint-order="fill stroke markers" d=" M 1054 2 L 1044.7343318831333 16.229919354882053 L 1029 21.09830056250525 L 1039.0078340584334 34.76125558861554 L 1038.5491502812527 51.99999999999999 L 1054 46.21425123801531 L 1069.4508497187473 52 L 1068.9921659415666 34.76125558861555 L 1079 21.098300562505262 L 1063.2656681168667 16.229919354882057 Z" fill-opacity="0.25" stroke-opacity="0.25" stroke-miterlimit="10" stroke-width="4" stroke-dasharray="4,2"/><text fill="none" stroke="rgb(0,0,0)" font-family="Helvetica Neue, Helvetica, sans-serif" font-size="10px" font-style="normal" font-weight="bold" text-decoration="normal" x="1054" y="2" text-anchor="middle" dominant-baseline="text-after-edge" stroke-opacity="0.25" stroke-linejoin="round" stroke-miterlimit="10" stroke-width="4">EXPLOITED</text><text fill="rgb(255,255,255)" stroke="none" font-family="Helvetica Neue, Helvetica, sans-serif" font-size="10px" font-style="normal" font-weight="bold" text-decoration="normal" x="1054" y="2" text-anchor="middle" dominant-baseline="text-after-edge" fill-opacity="0.25">EXPLOITED</text><path fill="rgb(234,179,8)" stroke="rgb(255,102,102)" paint-order="fill stroke markers" d=" M 876 511.25 L 875.9460533403297 512.6230341752373 L 875.7845459604149 513.987603138204 L 875.5164736069594 515.3352938674783 L 875.1434890351652 516.6577974015615 L 874.6678918189475 517.9469600663891 L 874.0926141732964 519.1948337454421 L 873.4212028761966 520.3937248825291 L 872.6577974015615 521.5362419151182 L 871.8071043980005 522.6153408457782 L 870.8743686707646 523.6243686707646 L 869.8653408457782 524.5571043980005 L 868.7862419151182 525.4077974015615 L 867.6437248825291 526.1712028761966 L 866.4448337454421 526.8426141732964 L 865.1969600663891 527.4178918189475 L 863.9077974015615 527.8934890351652 L 862.5852938674783 528.2664736069594 L 861.237603138204 528.5345459604149 L 859.8730341752373 528.6960533403297 L 858.5 528.75 L 857.1269658247627 528.6960533403297 L 855.762396861796 528.5345459604149 L 854.4147061325217 528.2664736069594 L 853.0922025984385 527.8934890351652 L 851.8030399336109 527.4178918189475 L 850.5551662545579 526.8426141732964 L 849.3562751174709 526.1712028761966 L 848.2137580848818 525.4077974015615 L 847.1346591542218 524.5571043980005 L 846.1256313292354 523.6243686707646 L 845.1928956019995 522.6153408457782 L 844.3422025984385 521.5362419151182 L 843.5787971238034 520.3937248825291 L 842.9073858267036 519.1948337454421 L 842.3321081810525 517.9469600663891 L 841.8565109648348 516.6577974015615 L 841.4835263930406 515.3352938674783 L 841.2154540395851 513.987603138204 L 841.0539466596703 512.6230341752373 L 841 511.25 L 841.0539466596703 509.8769658247627 L 841.2154540395851 508.51239686179593 L 841.4835263930406 507.16470613252164 L 841.8565109648348 505.8422025984384 L 842.3321081810525 504.55303993361093 L 842.9073858267036 503.30516625455795 L 843.5787971238034 502.1062751174709 L 844.3422025984385 500.9637580848817 L 845.1928956019995 499.88465915422177 L 846.1256313292354 498.87563132923543 L 847.1346591542218 497.94289560199945 L 848.2137580848818 497.0922025984384 L 849.3562751174709 496.3287971238034 L 850.5551662545579 495.65738582670355 L 851.803039933611 495.0821081810525 L 853.0922025984385 494.6065109648348 L 854.4147061325217 494.2335263930407 L 855.762396861796 493.9654540395851 L 857.1269658247628 493.80394665967026 L 858.5000000000001 493.75 L 859.8730341752373 493.80394665967026 L 861.2376031382041 493.9654540395851 L 862.5852938674784 494.2335263930407 L 863.9077974015617 494.60651096483485 L 865.1969600663891 495.0821081810525 L 866.4448337454421 495.6573858267036 L 867.6437248825292 496.32879712380344 L 868.7862419151184 497.0922025984385 L 869.8653408457783 497.94289560199957 L 870.8743686707646 498.8756313292355 L 871.8071043980007 499.8846591542219 L 872.6577974015617 500.9637580848818 L 873.4212028761967 502.10627511747106 L 874.0926141732965 503.30516625455806 L 874.6678918189476 504.5530399336111 L 875.1434890351652 505.8422025984386 L 875.5164736069594 507.1647061325218 L 875.7845459604149 508.51239686179616 L 875.9460533403297 509.8769658247629 Z" fill-opacity="0.25" stroke-opacity="0.25" stroke-miterlimit="10" stroke-width="2" stroke-dasharray="4,2"/><text fill="none" stroke="rgb(0,0,0)" font-family="Helvetica Neue, Helvetica, sans-serif" font-size="10px" font-style="normal" font-weight="normal" text-decoration="normal" x="858.5" y="493.75" text-anchor="middle" dominant-baseline="text-after-edge" stroke-opacity="0.25" stroke-linejoin="round" stroke-miterlimit="10" stroke-width="4">CVE-2026-31789</text><text fill="rgb(255,255,255)" stroke="none" font-family="Helvetica Neue, Helvetica, sans-serif" font-size="10px" font-style="normal" font-weight="normal" text-decoration="normal" x="858.5" y="493.75" text-anchor="middle" dominant-baseline="text-after-edge" fill-opacity="0.25">CVE-2026-31789</text><path fill="rgb(99,102,241)" stroke="rgb(255,0,102)" paint-order="fill stroke markers" d=" M 81 294 L 80.95376000599691 295.17688643591765 L 80.81532510892707 296.34651697560344 L 80.58554880596515 297.5016804578386 L 80.2658477444273 298.6352549156242 L 79.8581929876693 299.74025148547634 L 79.36509786282552 300.8098574960932 L 78.78960246531139 301.83747847073926 L 78.13525491562422 302.8167787843871 L 77.40608948400046 303.74172072495276 L 76.60660171779821 304.6066017177982 L 75.74172072495276 305.40608948400046 L 74.8167787843871 306.1352549156242 L 73.83747847073923 306.78960246531136 L 72.8098574960932 307.3650978628255 L 71.74025148547635 307.8581929876693 L 70.63525491562422 308.2658477444273 L 69.50168045783859 308.5855488059652 L 68.34651697560346 308.8153251089271 L 67.17688643591768 308.9537600059969 L 66 309 L 64.82311356408232 308.9537600059969 L 63.653483024396536 308.8153251089271 L 62.49831954216142 308.5855488059652 L 61.36474508437579 308.26584774442733 L 60.25974851452365 307.8581929876693 L 59.1901425039068 307.3650978628255 L 58.16252152926077 306.78960246531136 L 57.1832212156129 306.1352549156242 L 56.258279275047244 305.40608948400046 L 55.39339828220179 304.6066017177982 L 54.59391051599954 303.74172072495276 L 53.86474508437579 302.8167787843871 L 53.21039753468862 301.83747847073926 L 52.634902137174485 300.80985749609323 L 52.1418070123307 299.74025148547634 L 51.734152255572695 298.6352549156242 L 51.414451194034854 297.5016804578386 L 51.18467489107294 296.3465169756035 L 51.04623999400308 295.17688643591765 L 51 294 L 51.04623999400308 292.82311356408235 L 51.18467489107293 291.65348302439656 L 51.414451194034854 290.4983195421614 L 51.734152255572695 289.3647450843758 L 52.141807012330695 288.25974851452366 L 52.63490213717448 287.1901425039068 L 53.21039753468862 286.16252152926074 L 53.864745084375784 285.1832212156129 L 54.59391051599953 284.25827927504724 L 55.39339828220179 283.3933982822018 L 56.25827927504724 282.59391051599954 L 57.1832212156129 281.8647450843758 L 58.16252152926077 281.21039753468864 L 59.190142503906806 280.6349021371745 L 60.25974851452367 280.1418070123307 L 61.36474508437581 279.73415225557267 L 62.49831954216145 279.4144511940348 L 63.65348302439657 279.1846748910729 L 64.82311356408238 279.0462399940031 L 66.00000000000006 279 L 67.17688643591774 279.0462399940031 L 68.34651697560352 279.1846748910729 L 69.50168045783865 279.4144511940349 L 70.63525491562429 279.7341522555727 L 71.74025148547642 280.14180701233073 L 72.80985749609329 280.63490213717455 L 73.83747847073931 281.2103975346887 L 74.81677878438718 281.86474508437584 L 75.74172072495284 282.5939105159996 L 76.6066017177983 283.3933982822019 L 77.40608948400055 284.25827927504736 L 78.13525491562429 285.183221215613 L 78.78960246531145 286.16252152926086 L 79.36509786282558 287.19014250390694 L 79.85819298766936 288.2597485145238 L 80.26584774442735 289.36474508437595 L 80.58554880596519 290.4983195421616 L 80.8153251089271 291.6534830243967 L 80.95376000599694 292.8231135640825 Z" fill-opacity="1" stroke-opacity="1" stroke-miterlimit="10" stroke-width="2"/><text fill="none" stroke="rgb(0,0,0)" font-family="Helvetica Neue, Helvetica, sans-serif" font-size="10px" font-style="normal" font-weight="normal" text-decoration="normal" x="66" y="279" text-anchor="middle" dominant-baseline="text-after-edge" stroke-opacity="1" stroke-linejoin="round" stroke-miterlimit="10" stroke-width="4">UI:N</text><text fill="rgb(255,255,255)" stroke="none" font-family="Helvetica Neue, Helvetica, sans-serif" font-size="10px" font-style="normal" font-weight="normal" text-decoration="normal" x="66" y="279" text-anchor="middle" dominant-baseline="text-after-edge" fill-opacity="1">UI:N</text><path fill="rgb(255,0,0)" stroke="rgb(255,215,0)" paint-order="fill stroke markers" d=" M 1054 124 L 1044.7343318831333 138.22991935488204 L 1029 143.09830056250524 L 1039.0078340584334 156.76125558861554 L 1038.5491502812527 174 L 1054 168.21425123801532 L 1069.4508497187473 174 L 1068.9921659415666 156.76125558861554 L 1079 143.09830056250527 L 1063.2656681168667 138.22991935488207 Z" fill-opacity="1" stroke-opacity="1" stroke-miterlimit="10" stroke-width="4"/><text fill="none" stroke="rgb(0,0,0)" font-family="Helvetica Neue, Helvetica, sans-serif" font-size="10px" font-style="normal" font-weight="bold" text-decoration="normal" x="1054" y="124" text-anchor="middle" dominant-baseline="text-after-edge" stroke-opacity="1" stroke-linejoin="round" stroke-miterlimit="10" stroke-width="4">EXPLOITED</text><text fill="rgb(255,255,255)" stroke="none" font-family="Helvetica Neue, Helvetica, sans-serif" font-size="10px" font-style="normal" font-weight="bold" text-decoration="normal" x="1054" y="124" text-anchor="middle" dominant-baseline="text-after-edge" fill-opacity="1">EXPLOITED</text><path fill="rgb(234,179,8)" stroke="rgb(0,0,0)" paint-order="fill stroke markers" d=" M 876 421.25 L 875.9460533403297 422.6230341752373 L 875.7845459604149 423.98760313820407 L 875.5164736069594 425.33529386747836 L 875.1434890351652 426.6577974015616 L 874.6678918189475 427.94696006638907 L 874.0926141732964 429.19483374544205 L 873.4212028761966 430.3937248825291 L 872.6577974015615 431.5362419151183 L 871.8071043980005 432.61534084577823 L 870.8743686707646 433.62436867076457 L 869.8653408457782 434.55710439800055 L 868.7862419151182 435.4077974015616 L 867.6437248825291 436.1712028761966 L 866.4448337454421 436.84261417329645 L 865.1969600663891 437.4178918189475 L 863.9077974015615 437.8934890351652 L 862.5852938674783 438.2664736069593 L 861.237603138204 438.5345459604149 L 859.8730341752373 438.69605334032974 L 858.5 438.75 L 857.1269658247627 438.69605334032974 L 855.762396861796 438.5345459604149 L 854.4147061325217 438.2664736069593 L 853.0922025984385 437.8934890351652 L 851.8030399336109 437.4178918189475 L 850.5551662545579 436.84261417329645 L 849.3562751174709 436.1712028761966 L 848.2137580848818 435.4077974015616 L 847.1346591542218 434.55710439800055 L 846.1256313292354 433.62436867076457 L 845.1928956019995 432.61534084577823 L 844.3422025984385 431.5362419151183 L 843.5787971238034 430.3937248825291 L 842.9073858267036 429.19483374544205 L 842.3321081810525 427.94696006638907 L 841.8565109648348 426.6577974015616 L 841.4835263930406 425.33529386747836 L 841.2154540395851 423.98760313820407 L 841.0539466596703 422.6230341752373 L 841 421.25 L 841.0539466596703 419.8769658247627 L 841.2154540395851 418.51239686179593 L 841.4835263930406 417.16470613252164 L 841.8565109648348 415.8422025984384 L 842.3321081810525 414.55303993361093 L 842.9073858267036 413.30516625455795 L 843.5787971238034 412.1062751174709 L 844.3422025984385 410.9637580848817 L 845.1928956019995 409.88465915422177 L 846.1256313292354 408.87563132923543 L 847.1346591542218 407.94289560199945 L 848.2137580848818 407.0922025984384 L 849.3562751174709 406.3287971238034 L 850.5551662545579 405.65738582670355 L 851.803039933611 405.0821081810525 L 853.0922025984385 404.6065109648348 L 854.4147061325217 404.2335263930407 L 855.762396861796 403.9654540395851 L 857.1269658247628 403.80394665967026 L 858.5000000000001 403.75 L 859.8730341752373 403.80394665967026 L 861.2376031382041 403.9654540395851 L 862.5852938674784 404.2335263930407 L 863.9077974015617 404.60651096483485 L 865.1969600663891 405.0821081810525 L 866.4448337454421 405.6573858267036 L 867.6437248825292 406.32879712380344 L 868.7862419151184 407.0922025984385 L 869.8653408457783 407.94289560199957 L 870.8743686707646 408.8756313292355 L 871.8071043980007 409.8846591542219 L 872.6577974015617 410.9637580848818 L 873.4212028761967 412.10627511747106 L 874.0926141732965 413.30516625455806 L 874.6678918189476 414.5530399336111 L 875.1434890351652 415.8422025984386 L 875.5164736069594 417.1647061325218 L 875.7845459604149 418.51239686179616 L 875.9460533403297 419.8769658247629 Z" fill-opacity="1" stroke-opacity="1" stroke-miterlimit="10" stroke-width="2"/><text fill="none" stroke="rgb(0,0,0)" font-family="Helvetica Neue, Helvetica, sans-serif" font-size="10px" font-style="normal" font-weight="normal" text-decoration="normal" x="858.5" y="403.75" text-anchor="middle" dominant-baseline="text-after-edge" stroke-opacity="1" stroke-linejoin="round" stroke-miterlimit="10" stroke-width="4">CVE-2026-22184</text><text fill="rgb(255,255,255)" stroke="none" font-family="Helvetica Neue, Helvetica, sans-serif" font-size="10px" font-style="normal" font-weight="normal" text-decoration="normal" x="858.5" y="403.75" text-anchor="middle" dominant-baseline="text-after-edge" fill-opacity="1">CVE-2026-22184</text><path fill="rgb(234,179,8)" stroke="rgb(0,0,0)" paint-order="fill stroke markers" d=" M 876 466.25 L 875.9460533403297 467.6230341752373 L 875.7845459604149 468.98760313820407 L 875.5164736069594 470.33529386747836 L 875.1434890351652 471.6577974015616 L 874.6678918189475 472.94696006638907 L 874.0926141732964 474.19483374544205 L 873.4212028761966 475.3937248825291 L 872.6577974015615 476.5362419151183 L 871.8071043980005 477.61534084577823 L 870.8743686707646 478.62436867076457 L 869.8653408457782 479.55710439800055 L 868.7862419151182 480.4077974015616 L 867.6437248825291 481.1712028761966 L 866.4448337454421 481.84261417329645 L 865.1969600663891 482.4178918189475 L 863.9077974015615 482.8934890351652 L 862.5852938674783 483.2664736069593 L 861.237603138204 483.5345459604149 L 859.8730341752373 483.69605334032974 L 858.5 483.75 L 857.1269658247627 483.69605334032974 L 855.762396861796 483.5345459604149 L 854.4147061325217 483.2664736069593 L 853.0922025984385 482.8934890351652 L 851.8030399336109 482.4178918189475 L 850.5551662545579 481.84261417329645 L 849.3562751174709 481.1712028761966 L 848.2137580848818 480.4077974015616 L 847.1346591542218 479.55710439800055 L 846.1256313292354 478.62436867076457 L 845.1928956019995 477.61534084577823 L 844.3422025984385 476.5362419151183 L 843.5787971238034 475.3937248825291 L 842.9073858267036 474.19483374544205 L 842.3321081810525 472.94696006638907 L 841.8565109648348 471.6577974015616 L 841.4835263930406 470.33529386747836 L 841.2154540395851 468.98760313820407 L 841.0539466596703 467.6230341752373 L 841 466.25 L 841.0539466596703 464.8769658247627 L 841.2154540395851 463.51239686179593 L 841.4835263930406 462.16470613252164 L 841.8565109648348 460.8422025984384 L 842.3321081810525 459.55303993361093 L 842.9073858267036 458.30516625455795 L 843.5787971238034 457.1062751174709 L 844.3422025984385 455.9637580848817 L 845.1928956019995 454.88465915422177 L 846.1256313292354 453.87563132923543 L 847.1346591542218 452.94289560199945 L 848.2137580848818 452.0922025984384 L 849.3562751174709 451.3287971238034 L 850.5551662545579 450.65738582670355 L 851.803039933611 450.0821081810525 L 853.0922025984385 449.6065109648348 L 854.4147061325217 449.2335263930407 L 855.762396861796 448.9654540395851 L 857.1269658247628 448.80394665967026 L 858.5000000000001 448.75 L 859.8730341752373 448.80394665967026 L 861.2376031382041 448.9654540395851 L 862.5852938674784 449.2335263930407 L 863.9077974015617 449.60651096483485 L 865.1969600663891 450.0821081810525 L 866.4448337454421 450.6573858267036 L 867.6437248825292 451.32879712380344 L 868.7862419151184 452.0922025984385 L 869.8653408457783 452.94289560199957 L 870.8743686707646 453.8756313292355 L 871.8071043980007 454.8846591542219 L 872.6577974015617 455.9637580848818 L 873.4212028761967 457.10627511747106 L 874.0926141732965 458.30516625455806 L 874.6678918189476 459.5530399336111 L 875.1434890351652 460.8422025984386 L 875.5164736069594 462.1647061325218 L 875.7845459604149 463.51239686179616 L 875.9460533403297 464.8769658247629 Z" fill-opacity="1" stroke-opacity="1" stroke-miterlimit="10" stroke-width="2"/><text fill="none" stroke="rgb(0,0,0)" font-family="Helvetica Neue, Helvetica, sans-serif" font-size="10px" font-style="normal" font-weight="normal" text-decoration="normal" x="858.5" y="448.75" text-anchor="middle" dominant-baseline="text-after-edge" stroke-opacity="1" stroke-linejoin="round" stroke-miterlimit="10" stroke-width="4">CVE-2026-27171</text><text fill="rgb(255,255,255)" stroke="none" font-family="Helvetica Neue, Helvetica, sans-serif" font-size="10px" font-style="normal" font-weight="normal" text-decoration="normal" x="858.5" y="448.75" text-anchor="middle" dominant-baseline="text-after-edge" fill-opacity="1">CVE-2026-27171</text><g transform="scale(0.5,0.5) translate(64,-26)"/></g></g></svg>