<svg version="1.1" xmlns="http://www.w3.org/2000/svg" xmlns:xlink="http://www.w3.org/1999/xlink" width="2298" height="1488"><defs/><g><rect fill="#ffffff" stroke="none" x="0" y="0" width="2298" height="1488"/><g transform="translate(-64,26) scale(2,2)"><path fill="rgb(100,100,100)" stroke="rgb(136,136,136)" paint-order="fill stroke markers" d=" M 139.5 272 L 237 272 L 237 272 A 8 8 0 0 1 245 280 L 245 520 L 245 520 A 8 8 0 0 1 237 528 L 42 528 L 42 528 A 8 8 0 0 1 34 520 L 34 280 L 34 280 A 8 8 0 0 1 42 272 L 139.5 272 Z" fill-opacity="1" stroke-opacity="1" stroke-miterlimit="10" stroke-width="2" stroke-dasharray="4,2"/><text fill="none" stroke="rgb(0,0,0)" font-family="Helvetica Neue, Helvetica, sans-serif" font-size="12px" font-style="normal" font-weight="normal" text-decoration="normal" x="139.5" y="272" text-anchor="middle" dominant-baseline="text-after-edge" stroke-opacity="1" stroke-linejoin="round" stroke-miterlimit="10" stroke-width="4">Initial State</text><text fill="rgb(204,204,204)" stroke="none" font-family="Helvetica Neue, Helvetica, sans-serif" font-size="12px" font-style="normal" font-weight="normal" text-decoration="normal" x="139.5" y="272" text-anchor="middle" dominant-baseline="text-after-edge" fill-opacity="1">Initial State</text><path fill="none" stroke="rgb(255,153,119)" paint-order="fill stroke markers" d=" M 416.8939888963378 418.47369789478705 L 519.7903462876059 494.4473524560818" stroke-opacity="0.9" stroke-linejoin="round" stroke-miterlimit="10" stroke-width="3" stroke-dasharray="6,3"/><path fill="rgb(255,255,255)" stroke="none" paint-order="stroke fill markers" d=" M 515.0344245798708 496.3430604267077 L 524.6172002579881 498.01126614030665 L 520.2020994219969 489.3441221696535 Z" fill-opacity="1"/><path fill="rgb(255,153,119)" stroke="none" paint-order="stroke fill markers" d=" M 515.0344245798708 496.3430604267077 L 524.6172002579881 498.01126614030665 L 520.2020994219969 489.3441221696535 Z" fill-opacity="0.9"/><path fill="none" stroke="rgb(203,143,255)" paint-order="fill stroke markers" d=" M 558 509 L 652 509" stroke-opacity="0.9" stroke-linejoin="round" stroke-miterlimit="10" stroke-width="3" stroke-dasharray="6,3"/><path fill="rgb(255,255,255)" stroke="none" paint-order="stroke fill markers" d=" M 649.3 513.35 L 658 509 L 649.3 504.65 Z" fill-opacity="1"/><path fill="rgb(203,143,255)" stroke="none" paint-order="stroke fill markers" d=" M 649.3 513.35 L 658 509 L 649.3 504.65 Z" fill-opacity="0.9"/><path fill="none" stroke="rgb(0,255,255)" paint-order="fill stroke markers" d=" M 685.9389391979798 601.6518416636252 L 791.7108667528408 696.0208476605272" stroke-opacity="0.25" stroke-linejoin="round" stroke-miterlimit="10" stroke-width="2"/><path fill="rgb(255,255,255)" stroke="none" paint-order="stroke fill markers" d=" M 785.3078339111362 696.137768266288 L 794.6956015523358 698.6838080764335 L 791.0997728157323 689.6459700773866 Z" fill-opacity="1"/><path fill="rgb(0,255,255)" stroke="none" paint-order="stroke fill markers" d=" M 785.3078339111362 696.137768266288 L 794.6956015523358 698.6838080764335 L 791.0997728157323 689.6459700773866 Z" fill-opacity="0.25"/><path fill="none" stroke="rgb(203,143,255)" paint-order="fill stroke markers" d=" M 555.2958658253478 518.6301932912901 L 655.2157271266134 579.5478782481955" stroke-opacity="0.9" stroke-linejoin="round" stroke-miterlimit="10" stroke-width="3" stroke-dasharray="6,3"/><path fill="rgb(255,255,255)" stroke="none" paint-order="stroke fill markers" d=" M 650.6459877457728 581.8565536240756 L 660.338710637537 582.6711841805059 L 655.1747813476228 574.4282275332363 Z" fill-opacity="1"/><path fill="rgb(203,143,255)" stroke="none" paint-order="stroke fill markers" d=" M 650.6459877457728 581.8565536240756 L 660.338710637537 582.6711841805059 L 655.1747813476228 574.4282275332363 Z" fill-opacity="0.9"/><path fill="none" stroke="rgb(0,255,255)" paint-order="fill stroke markers" d=" M 689.9559597848995 589.8136832873681 L 786.061931552485 582.6682578771387" stroke-opacity="0.25" stroke-linejoin="round" stroke-miterlimit="10" stroke-width="2"/><path fill="rgb(255,255,255)" stroke="none" paint-order="stroke fill markers" d=" M 781.6973982219176 587.3547649779938 L 790.05092149871 582.3716786989806 L 781.0523385094241 578.6787118449547 Z" fill-opacity="1"/><path fill="rgb(0,255,255)" stroke="none" paint-order="stroke fill markers" d=" M 781.6973982219176 587.3547649779938 L 790.05092149871 582.3716786989806 L 781.0523385094241 578.6787118449547 Z" fill-opacity="0.25"/><path fill="none" stroke="rgb(0,255,255)" paint-order="fill stroke markers" d=" M 678.624370736452 575.682846371083 L 801.9969786518644 167.0397472906646" stroke-opacity="0.25" stroke-linejoin="round" stroke-miterlimit="10" stroke-width="2"/><path fill="rgb(255,255,255)" stroke="none" paint-order="stroke fill markers" d=" M 804.8029208908935 172.79641196313187 L 803.1530713359774 163.21045888343536 L 796.4742186051699 170.28191037518613 Z" fill-opacity="1"/><path fill="rgb(0,255,255)" stroke="none" paint-order="stroke fill markers" d=" M 804.8029208908935 172.79641196313187 L 803.1530713359774 163.21045888343536 L 796.4742186051699 170.28191037518613 Z" fill-opacity="0.25"/><path fill="none" stroke="rgb(203,143,255)" paint-order="fill stroke markers" d=" M 551.5623918979616 494.973286140368 L 933.6095116155626 50.71101423715038" stroke-opacity="0.9" stroke-linejoin="round" stroke-miterlimit="10" stroke-width="3" stroke-dasharray="6,3"/><path fill="rgb(255,255,255)" stroke="none" paint-order="stroke fill markers" d=" M 935.1472276785304 55.59444840888763 L 937.5216387176042 46.16180974213461 L 928.5508811607575 49.921864110927345 Z" fill-opacity="1"/><path fill="rgb(203,143,255)" stroke="none" paint-order="stroke fill markers" d=" M 935.1472276785304 55.59444840888763 L 937.5216387176042 46.16180974213461 L 928.5508811607575 49.921864110927345 Z" fill-opacity="0.9"/><path fill="none" stroke="rgb(255,0,102)" paint-order="fill stroke markers" d=" M 79.4447463715879 324.67402991715346 L 182.3918421738333 391.0915110798924" stroke-opacity="0.7" stroke-linejoin="round" stroke-miterlimit="10" stroke-width="2"/><path fill="rgb(255,255,255)" stroke="none" paint-order="stroke fill markers" d=" M 176.08419604345323 392.19880521150407 L 185.75302876673027 393.2600185591808 L 180.80069981090543 384.88822437195313 Z" fill-opacity="1"/><path fill="rgb(255,0,102)" stroke="none" paint-order="stroke fill markers" d=" M 176.08419604345323 392.19880521150407 L 185.75302876673027 393.2600185591808 L 180.80069981090543 384.88822437195313 Z" fill-opacity="0.7"/><path fill="none" stroke="rgb(0,255,255)" paint-order="fill stroke markers" d=" M 688.1060175392771 516.5511766753008 L 788.6634128353916 570.3811578003583" stroke-opacity="0.25" stroke-linejoin="round" stroke-miterlimit="10" stroke-width="2"/><path fill="rgb(255,255,255)" stroke="none" paint-order="stroke fill markers" d=" M 782.4667940246316 571.9980731704796 L 792.1899172202109 572.2689519691835 L 786.5727463418264 564.3279261334977 Z" fill-opacity="1"/><path fill="rgb(0,255,255)" stroke="none" paint-order="stroke fill markers" d=" M 782.4667940246316 571.9980731704796 L 792.1899172202109 572.2689519691835 L 786.5727463418264 564.3279261334977 Z" fill-opacity="0.25"/><path fill="none" stroke="rgb(203,143,255)" paint-order="fill stroke markers" d=" M 814.1915507166236 563.3972658248754 L 944.5201941685393 160.31898710761033" stroke-opacity="0.9" stroke-linejoin="round" stroke-miterlimit="10" stroke-width="3" stroke-dasharray="6,3"/><path fill="rgb(255,255,255)" stroke="none" paint-order="stroke fill markers" d=" M 947.8285566943182 164.22631834491568 L 946.366102509066 154.60999224000233 L 939.5505141362867 161.54975125115214 Z" fill-opacity="1"/><path fill="rgb(203,143,255)" stroke="none" paint-order="stroke fill markers" d=" M 947.8285566943182 164.22631834491568 L 946.366102509066 154.60999224000233 L 939.5505141362867 161.54975125115214 Z" fill-opacity="0.9"/><path fill="none" stroke="rgb(255,0,102)" paint-order="fill stroke markers" d=" M 81.2273378841688 365.91204447876413 L 179.32801301158483 397.55742355212413" stroke-opacity="0.7" stroke-linejoin="round" stroke-miterlimit="10" stroke-width="2"/><path fill="rgb(255,255,255)" stroke="none" paint-order="stroke fill markers" d=" M 173.51952041544624 400.25444297374554 L 183.13484748262704 398.78543467181515 L 176.19044460077424 391.97457799922876 Z" fill-opacity="1"/><path fill="rgb(255,0,102)" stroke="none" paint-order="stroke fill markers" d=" M 173.51952041544624 400.25444297374554 L 183.13484748262704 398.78543467181515 L 176.19044460077424 391.97457799922876 Z" fill-opacity="0.7"/><path fill="none" stroke="rgb(0,255,136)" paint-order="fill stroke markers" d=" M 971.5906627205837 33.472036283988345 L 1085.8529197990536 75.51192332229331" stroke-opacity="0.25" stroke-linejoin="round" stroke-miterlimit="10" stroke-width="2"/><path fill="rgb(255,255,255)" stroke="none" paint-order="stroke fill markers" d=" M 1079.9399637276597 77.97148639279301 L 1089.606896551724 76.89310344827587 L 1082.9440305016717 69.8065869557346 Z" fill-opacity="1"/><path fill="rgb(0,255,136)" stroke="none" paint-order="stroke fill markers" d=" M 1079.9399637276597 77.97148639279301 L 1089.606896551724 76.89310344827587 L 1082.9440305016717 69.8065869557346 Z" fill-opacity="0.25"/><path fill="none" stroke="rgb(203,143,255)" paint-order="fill stroke markers" d=" M 826.9088132951646 143.6654447231623 L 927.217482017564 133.66904818381664" stroke-opacity="0.9" stroke-linejoin="round" stroke-miterlimit="10" stroke-width="3" stroke-dasharray="6,3"/><path fill="rgb(255,255,255)" stroke="none" paint-order="stroke fill markers" d=" M 924.9621587503909 138.26535289092084 L 933.1879079511308 133.07405728322064 L 924.0994219445267 129.60823528724887 Z" fill-opacity="1"/><path fill="rgb(203,143,255)" stroke="none" paint-order="stroke fill markers" d=" M 924.9621587503909 138.26535289092084 L 933.1879079511308 133.07405728322064 L 924.0994219445267 129.60823528724887 Z" fill-opacity="0.9"/><path fill="none" stroke="rgb(0,255,255)" paint-order="fill stroke markers" d=" M 679.5523236599281 493.9942776923134 L 800.6920448532262 166.60179699518432" stroke-opacity="0.25" stroke-linejoin="round" stroke-miterlimit="10" stroke-width="2"/><path fill="rgb(255,255,255)" stroke="none" paint-order="stroke fill markers" d=" M 803.1407305305246 172.51926591811016 L 802.0801257682082 162.85036641826264 L 794.98136902572 169.50018992802427 Z" fill-opacity="1"/><path fill="rgb(0,255,255)" stroke="none" paint-order="stroke fill markers" d=" M 803.1407305305246 172.51926591811016 L 802.0801257682082 162.85036641826264 L 794.98136902572 169.50018992802427 Z" fill-opacity="0.25"/><path fill="none" stroke="rgb(203,143,255)" paint-order="fill stroke markers" d=" M 813.0014666056345 693.0560094070925 L 946.7946102972654 159.72251565351246" stroke-opacity="0.9" stroke-linejoin="round" stroke-miterlimit="10" stroke-width="3" stroke-dasharray="6,3"/><path fill="rgb(255,255,255)" stroke="none" paint-order="stroke fill markers" d=" M 950.3569021482889 163.39982129326174 L 948.2545454126064 153.9028430287857 L 941.9183768424351 161.28291537601737 Z" fill-opacity="1"/><path fill="rgb(203,143,255)" stroke="none" paint-order="stroke fill markers" d=" M 950.3569021482889 163.39982129326174 L 948.2545454126064 153.9028430287857 L 941.9183768424351 161.28291537601737 Z" fill-opacity="0.9"/><path fill="none" stroke="rgb(255,0,102)" paint-order="fill stroke markers" d=" M 81.2273378841688 446.08795552123587 L 179.32801301158483 414.44257644787587" stroke-opacity="0.7" stroke-linejoin="round" stroke-miterlimit="10" stroke-width="2"/><path fill="rgb(255,255,255)" stroke="none" paint-order="stroke fill markers" d=" M 176.19044460077424 420.02542200077124 L 183.13484748262704 413.21456532818485 L 173.51952041544624 411.74555702625446 Z" fill-opacity="1"/><path fill="rgb(255,0,102)" stroke="none" paint-order="stroke fill markers" d=" M 176.19044460077424 420.02542200077124 L 183.13484748262704 413.21456532818485 L 173.51952041544624 411.74555702625446 Z" fill-opacity="0.7"/><path fill="none" stroke="rgb(255,0,102)" paint-order="fill stroke markers" d=" M 79.4447463715879 487.32597008284654 L 182.3918421738333 420.9084889201076" stroke-opacity="0.7" stroke-linejoin="round" stroke-miterlimit="10" stroke-width="2"/><path fill="rgb(255,255,255)" stroke="none" paint-order="stroke fill markers" d=" M 180.80069981090543 427.11177562804687 L 185.75302876673027 418.7399814408192 L 176.08419604345323 419.80119478849593 Z" fill-opacity="1"/><path fill="rgb(255,0,102)" stroke="none" paint-order="stroke fill markers" d=" M 180.80069981090543 427.11177562804687 L 185.75302876673027 418.7399814408192 L 176.08419604345323 419.80119478849593 Z" fill-opacity="0.7"/><path fill="none" stroke="rgb(255,102,0)" paint-order="fill stroke markers" d=" M 229 406 L 375 406" stroke-opacity="0.7" stroke-linejoin="round" stroke-miterlimit="10" stroke-width="2"/><path fill="rgb(255,255,255)" stroke="none" paint-order="stroke fill markers" d=" M 370.3 410.35 L 379 406 L 370.3 401.65 Z" fill-opacity="1"/><path fill="rgb(255,102,0)" stroke="none" paint-order="stroke fill markers" d=" M 370.3 410.35 L 379 406 L 370.3 401.65 Z" fill-opacity="0.7"/><path fill="none" stroke="rgb(255,153,119)" paint-order="fill stroke markers" d=" M 417.7061746419417 394.7087919357997 L 787.8427962510681 158.67307607490034" stroke-opacity="0.9" stroke-linejoin="round" stroke-miterlimit="10" stroke-width="3" stroke-dasharray="6,3"/><path fill="rgb(255,255,255)" stroke="none" paint-order="stroke fill markers" d=" M 787.9051811818314 163.79251043041398 L 792.9017032916229 155.44701662798596 L 783.2273949838055 156.45709522160956 Z" fill-opacity="1"/><path fill="rgb(255,153,119)" stroke="none" paint-order="stroke fill markers" d=" M 787.9051811818314 163.79251043041398 L 792.9017032916229 155.44701662798596 L 783.2273949838055 156.45709522160956 Z" fill-opacity="0.9"/><path fill="none" stroke="rgb(255,153,119)" paint-order="fill stroke markers" d=" M 419.3032675064927 414.26945364415235 L 785.9795212424251 571.3523040818224" stroke-opacity="0.9" stroke-linejoin="round" stroke-miterlimit="10" stroke-width="3" stroke-dasharray="6,3"/><path fill="rgb(255,255,255)" stroke="none" paint-order="stroke fill markers" d=" M 781.7847143081589 574.2876225967763 L 791.4947405299945 573.7150051230087 L 785.2106308178791 566.2905546298007 Z" fill-opacity="1"/><path fill="rgb(255,153,119)" stroke="none" paint-order="stroke fill markers" d=" M 781.7847143081589 574.2876225967763 L 791.4947405299945 573.7150051230087 L 785.2106308178791 566.2905546298007 Z" fill-opacity="0.9"/><path fill="none" stroke="rgb(0,255,136)" paint-order="fill stroke markers" d=" M 978.728951108291 123.92347625517459 L 1084.2741652894117 93.72028603353314" stroke-opacity="0.7" stroke-linejoin="round" stroke-miterlimit="10" stroke-width="2"/><path fill="rgb(255,255,255)" stroke="none" paint-order="stroke fill markers" d=" M 1080.9523131087249 99.19548448561385 L 1088.119804400978 92.619804400978 L 1078.5587655579175 90.83121941795704 Z" fill-opacity="1"/><path fill="rgb(0,255,136)" stroke="none" paint-order="stroke fill markers" d=" M 1080.9523131087249 99.19548448561385 L 1088.119804400978 92.619804400978 L 1078.5587655579175 90.83121941795704 Z" fill-opacity="0.7"/><path fill="none" stroke="rgb(255,153,119)" paint-order="fill stroke markers" d=" M 416.8271479611129 418.56372124391544 L 788.8683273787015 696.3423252154321" stroke-opacity="0.9" stroke-linejoin="round" stroke-miterlimit="10" stroke-width="3" stroke-dasharray="6,3"/><path fill="rgb(255,255,255)" stroke="none" paint-order="stroke fill markers" d=" M 784.1023518117473 698.2126131331592 L 793.6760839390195 699.9319598565507 L 789.3073220413694 691.2413661206981 Z" fill-opacity="1"/><path fill="rgb(255,153,119)" stroke="none" paint-order="stroke fill markers" d=" M 784.1023518117473 698.2126131331592 L 793.6760839390195 699.9319598565507 L 789.3073220413694 691.2413661206981 Z" fill-opacity="0.9"/><path fill="rgb(239,68,68)" stroke="rgb(0,0,0)" paint-order="fill stroke markers" d=" M 420 406 L 419.93834667466257 407.5691819145569 L 419.7537668119028 409.12868930080464 L 419.44739840795353 410.6689072771181 L 419.0211303259031 412.180339887499 L 418.47759065022575 413.6536686473018 L 417.82013048376734 415.07980999479093 L 417.0528032870818 416.44997129431897 L 416.180339887499 417.7557050458495 L 415.20811931200063 418.98896096660366 L 414.14213562373095 420.14213562373095 L 412.98896096660366 421.20811931200063 L 411.7557050458495 422.180339887499 L 410.44997129431897 423.0528032870818 L 409.07980999479093 423.82013048376734 L 407.6536686473018 424.47759065022575 L 406.180339887499 425.0211303259031 L 404.66890727711814 425.44739840795353 L 403.12868930080464 425.7537668119028 L 401.5691819145569 425.93834667466257 L 400 426 L 398.4308180854431 425.93834667466257 L 396.87131069919536 425.7537668119028 L 395.3310927228819 425.44739840795353 L 393.819660112501 425.0211303259031 L 392.3463313526982 424.47759065022575 L 390.92019000520907 423.82013048376734 L 389.55002870568103 423.0528032870819 L 388.2442949541505 422.180339887499 L 387.01103903339634 421.20811931200063 L 385.85786437626905 420.14213562373095 L 384.79188068799937 418.98896096660366 L 383.8196601125011 417.7557050458495 L 382.9471967129182 416.44997129431897 L 382.17986951623266 415.07980999479093 L 381.52240934977425 413.6536686473018 L 380.9788696740969 412.180339887499 L 380.55260159204647 410.66890727711814 L 380.2462331880972 409.12868930080464 L 380.06165332533743 407.5691819145569 L 380 406 L 380.06165332533743 404.4308180854431 L 380.2462331880972 402.87131069919536 L 380.55260159204647 401.3310927228819 L 380.9788696740969 399.8196601125011 L 381.52240934977425 398.3463313526982 L 382.17986951623266 396.92019000520907 L 382.9471967129181 395.55002870568103 L 383.819660112501 394.2442949541505 L 384.79188068799937 393.01103903339634 L 385.85786437626905 391.85786437626905 L 387.01103903339634 390.79188068799937 L 388.2442949541505 389.8196601125011 L 389.55002870568103 388.9471967129181 L 390.92019000520907 388.17986951623266 L 392.3463313526982 387.52240934977425 L 393.8196601125011 386.9788696740969 L 395.3310927228819 386.55260159204647 L 396.8713106991954 386.2462331880972 L 398.43081808544315 386.06165332533743 L 400.00000000000006 386 L 401.56918191455696 386.06165332533743 L 403.1286893008047 386.2462331880973 L 404.6689072771182 386.55260159204647 L 406.18033988749903 386.978869674097 L 407.6536686473019 387.5224093497743 L 409.07980999479105 388.1798695162327 L 410.4499712943191 388.94719671291824 L 411.7557050458496 389.81966011250114 L 412.98896096660377 390.7918806879995 L 414.14213562373106 391.85786437626916 L 415.20811931200075 393.01103903339646 L 416.18033988749903 394.2442949541507 L 417.05280328708193 395.5500287056812 L 417.82013048376746 396.92019000520924 L 418.4775906502258 398.34633135269837 L 419.02113032590313 399.81966011250125 L 419.4473984079536 401.3310927228821 L 419.7537668119028 402.8713106991956 L 419.93834667466257 404.4308180854433 Z" fill-opacity="1" stroke-opacity="1" stroke-miterlimit="10" stroke-width="2"/><text fill="none" stroke="rgb(0,0,0)" font-family="Helvetica Neue, Helvetica, sans-serif" font-size="10px" font-style="normal" font-weight="normal" text-decoration="normal" x="400" y="386" text-anchor="middle" dominant-baseline="text-after-edge" stroke-opacity="1" stroke-linejoin="round" stroke-miterlimit="10" stroke-width="4">host_alpine_9eb953fb</text><text fill="rgb(255,255,255)" stroke="none" font-family="Helvetica Neue, Helvetica, sans-serif" font-size="10px" font-style="normal" font-weight="normal" text-decoration="normal" x="400" y="386" text-anchor="middle" dominant-baseline="text-after-edge" fill-opacity="1">host_alpine_9eb953fb</text><path fill="rgb(0,255,136)" stroke="rgb(0,204,102)" paint-order="fill stroke markers" d=" M 1113 115.5 L 1143 85.5 L 1113 55.5 L 1083 85.5 Z" fill-opacity="1" stroke-opacity="1" stroke-miterlimit="10" stroke-width="4"/><text fill="none" stroke="rgb(0,0,0)" font-family="Helvetica Neue, Helvetica, sans-serif" font-size="14px" font-style="normal" font-weight="bold" text-decoration="normal" x="1113" y="55.5" text-anchor="middle" dominant-baseline="text-after-edge" stroke-opacity="1" stroke-linejoin="round" stroke-miterlimit="10" stroke-width="6">INSIDE NETWORK</text><text fill="rgb(255,255,255)" stroke="none" font-family="Helvetica Neue, Helvetica, sans-serif" font-size="14px" font-style="normal" font-weight="bold" text-decoration="normal" x="1113" y="55.5" text-anchor="middle" dominant-baseline="text-after-edge" fill-opacity="1">INSIDE NETWORK</text><path fill="rgb(255,0,102)" stroke="rgb(0,0,0)" paint-order="fill stroke markers" d=" M 228 406 L 227.93064000899537 407.7653296538765 L 227.7229876633906 409.5197754634052 L 227.37832320894773 411.25252068675786 L 226.89877161664094 412.9528823734363 L 226.28728948150396 414.61037722821453 L 225.5476467942383 416.2147862441398 L 224.68440369796707 417.7562177061088 L 223.70288237343632 419.22516817658067 L 222.6091342260007 420.61258108742913 L 221.40990257669733 421.90990257669733 L 220.11258108742913 423.1091342260007 L 218.72516817658064 424.2028823734363 L 217.25621770610886 425.18440369796707 L 215.71478624413982 426.0476467942383 L 214.11037722821453 426.78728948150393 L 212.45288237343632 427.39877161664094 L 210.75252068675786 427.87832320894773 L 209.01977546340518 428.2229876633906 L 207.2653296538765 428.4306400089954 L 205.5 428.5 L 203.7346703461235 428.4306400089954 L 201.98022453659482 428.2229876633906 L 200.24747931324214 427.87832320894773 L 198.54711762656368 427.39877161664094 L 196.88962277178547 426.78728948150393 L 195.2852137558602 426.0476467942383 L 193.74378229389114 425.18440369796707 L 192.27483182341936 424.2028823734363 L 190.88741891257087 423.1091342260007 L 189.5900974233027 421.90990257669733 L 188.3908657739993 420.61258108742913 L 187.29711762656368 419.22516817658067 L 186.31559630203293 417.7562177061088 L 185.4523532057617 416.2147862441398 L 184.71271051849604 414.61037722821453 L 184.10122838335906 412.9528823734363 L 183.62167679105227 411.25252068675786 L 183.2770123366094 409.5197754634052 L 183.06935999100463 407.7653296538765 L 183 406 L 183.06935999100463 404.2346703461235 L 183.2770123366094 402.4802245365948 L 183.62167679105227 400.74747931324214 L 184.10122838335906 399.0471176265637 L 184.71271051849604 397.38962277178547 L 185.4523532057617 395.7852137558602 L 186.31559630203293 394.2437822938912 L 187.29711762656368 392.77483182341933 L 188.3908657739993 391.38741891257087 L 189.59009742330267 390.09009742330267 L 190.88741891257087 388.89086577399934 L 192.27483182341936 387.7971176265637 L 193.74378229389114 386.81559630203293 L 195.2852137558602 385.9523532057617 L 196.8896227717855 385.212710518496 L 198.5471176265637 384.60122838335906 L 200.24747931324217 384.12167679105227 L 201.98022453659485 383.7770123366094 L 203.73467034612355 383.5693599910046 L 205.50000000000009 383.5 L 207.2653296538766 383.5693599910046 L 209.0197754634053 383.7770123366094 L 210.75252068675798 384.1216767910523 L 212.45288237343644 384.60122838335906 L 214.11037722821465 385.2127105184961 L 215.71478624413993 385.95235320576177 L 217.25621770610897 386.815596302033 L 218.72516817658078 387.79711762656376 L 220.11258108742925 388.8908657739994 L 221.40990257669745 390.0900974233028 L 222.6091342260008 391.387418912571 L 223.70288237343644 392.7748318234195 L 224.68440369796718 394.24378229389134 L 225.54764679423837 395.7852137558604 L 226.28728948150405 397.3896227717857 L 226.89877161664103 399.04711762656393 L 227.3783232089478 400.74747931324237 L 227.72298766339065 402.4802245365951 L 227.9306400089954 404.2346703461238 Z" fill-opacity="1" stroke-opacity="1" stroke-miterlimit="10" stroke-width="2"/><text fill="none" stroke="rgb(0,0,0)" font-family="Helvetica Neue, Helvetica, sans-serif" font-size="10px" font-style="normal" font-weight="normal" text-decoration="normal" x="205.5" y="383.5" text-anchor="middle" dominant-baseline="text-after-edge" stroke-opacity="1" stroke-linejoin="round" stroke-miterlimit="10" stroke-width="4">Hacker</text><text fill="rgb(255,255,255)" stroke="none" font-family="Helvetica Neue, Helvetica, sans-serif" font-size="10px" font-style="normal" font-weight="normal" text-decoration="normal" x="205.5" y="383.5" text-anchor="middle" dominant-baseline="text-after-edge" fill-opacity="1">Hacker</text><path fill="rgb(99,102,241)" stroke="rgb(255,0,102)" paint-order="fill stroke markers" d=" M 81 496 L 80.95376000599691 497.17688643591765 L 80.81532510892707 498.34651697560344 L 80.58554880596515 499.5016804578386 L 80.2658477444273 500.6352549156242 L 79.8581929876693 501.74025148547634 L 79.36509786282552 502.8098574960932 L 78.78960246531139 503.83747847073926 L 78.13525491562422 504.8167787843871 L 77.40608948400046 505.74172072495276 L 76.60660171779821 506.6066017177982 L 75.74172072495276 507.40608948400046 L 74.8167787843871 508.1352549156242 L 73.83747847073923 508.78960246531136 L 72.8098574960932 509.3650978628255 L 71.74025148547635 509.8581929876693 L 70.63525491562422 510.2658477444273 L 69.50168045783859 510.5855488059652 L 68.34651697560346 510.8153251089271 L 67.17688643591768 510.9537600059969 L 66 511 L 64.82311356408232 510.9537600059969 L 63.653483024396536 510.8153251089271 L 62.49831954216142 510.5855488059652 L 61.36474508437579 510.26584774442733 L 60.25974851452365 509.8581929876693 L 59.1901425039068 509.3650978628255 L 58.16252152926077 508.78960246531136 L 57.1832212156129 508.1352549156242 L 56.258279275047244 507.40608948400046 L 55.39339828220179 506.6066017177982 L 54.59391051599954 505.74172072495276 L 53.86474508437579 504.8167787843871 L 53.21039753468862 503.83747847073926 L 52.634902137174485 502.80985749609323 L 52.1418070123307 501.74025148547634 L 51.734152255572695 500.6352549156242 L 51.414451194034854 499.5016804578386 L 51.18467489107294 498.3465169756035 L 51.04623999400308 497.17688643591765 L 51 496 L 51.04623999400308 494.82311356408235 L 51.18467489107293 493.65348302439656 L 51.414451194034854 492.4983195421614 L 51.734152255572695 491.3647450843758 L 52.141807012330695 490.25974851452366 L 52.63490213717448 489.1901425039068 L 53.21039753468862 488.16252152926074 L 53.864745084375784 487.1832212156129 L 54.59391051599953 486.25827927504724 L 55.39339828220179 485.3933982822018 L 56.25827927504724 484.59391051599954 L 57.1832212156129 483.8647450843758 L 58.16252152926077 483.21039753468864 L 59.190142503906806 482.6349021371745 L 60.25974851452367 482.1418070123307 L 61.36474508437581 481.73415225557267 L 62.49831954216145 481.4144511940348 L 63.65348302439657 481.1846748910729 L 64.82311356408238 481.0462399940031 L 66.00000000000006 481 L 67.17688643591774 481.0462399940031 L 68.34651697560352 481.1846748910729 L 69.50168045783865 481.4144511940349 L 70.63525491562429 481.7341522555727 L 71.74025148547642 482.14180701233073 L 72.80985749609329 482.63490213717455 L 73.83747847073931 483.2103975346887 L 74.81677878438718 483.86474508437584 L 75.74172072495284 484.5939105159996 L 76.6066017177983 485.3933982822019 L 77.40608948400055 486.25827927504736 L 78.13525491562429 487.183221215613 L 78.78960246531145 488.16252152926086 L 79.36509786282558 489.19014250390694 L 79.85819298766936 490.2597485145238 L 80.26584774442735 491.36474508437595 L 80.58554880596519 492.4983195421616 L 80.8153251089271 493.6534830243967 L 80.95376000599694 494.8231135640825 Z" fill-opacity="1" stroke-opacity="1" stroke-miterlimit="10" stroke-width="2"/><text fill="none" stroke="rgb(0,0,0)" font-family="Helvetica Neue, Helvetica, sans-serif" font-size="10px" font-style="normal" font-weight="normal" text-decoration="normal" x="66" y="481" text-anchor="middle" dominant-baseline="text-after-edge" stroke-opacity="1" stroke-linejoin="round" stroke-miterlimit="10" stroke-width="4">AV:N</text><text fill="rgb(255,255,255)" stroke="none" font-family="Helvetica Neue, Helvetica, sans-serif" font-size="10px" font-style="normal" font-weight="normal" text-decoration="normal" x="66" y="481" text-anchor="middle" dominant-baseline="text-after-edge" fill-opacity="1">AV:N</text><path fill="rgb(99,102,241)" stroke="rgb(255,0,102)" paint-order="fill stroke markers" d=" M 81 451 L 80.95376000599691 452.17688643591765 L 80.81532510892707 453.34651697560344 L 80.58554880596515 454.5016804578386 L 80.2658477444273 455.6352549156242 L 79.8581929876693 456.74025148547634 L 79.36509786282552 457.8098574960932 L 78.78960246531139 458.83747847073926 L 78.13525491562422 459.8167787843871 L 77.40608948400046 460.74172072495276 L 76.60660171779821 461.6066017177982 L 75.74172072495276 462.40608948400046 L 74.8167787843871 463.1352549156242 L 73.83747847073923 463.78960246531136 L 72.8098574960932 464.3650978628255 L 71.74025148547635 464.8581929876693 L 70.63525491562422 465.2658477444273 L 69.50168045783859 465.5855488059652 L 68.34651697560346 465.8153251089271 L 67.17688643591768 465.9537600059969 L 66 466 L 64.82311356408232 465.9537600059969 L 63.653483024396536 465.8153251089271 L 62.49831954216142 465.5855488059652 L 61.36474508437579 465.26584774442733 L 60.25974851452365 464.8581929876693 L 59.1901425039068 464.3650978628255 L 58.16252152926077 463.78960246531136 L 57.1832212156129 463.1352549156242 L 56.258279275047244 462.40608948400046 L 55.39339828220179 461.6066017177982 L 54.59391051599954 460.74172072495276 L 53.86474508437579 459.8167787843871 L 53.21039753468862 458.83747847073926 L 52.634902137174485 457.80985749609323 L 52.1418070123307 456.74025148547634 L 51.734152255572695 455.6352549156242 L 51.414451194034854 454.5016804578386 L 51.18467489107294 453.3465169756035 L 51.04623999400308 452.17688643591765 L 51 451 L 51.04623999400308 449.82311356408235 L 51.18467489107293 448.65348302439656 L 51.414451194034854 447.4983195421614 L 51.734152255572695 446.3647450843758 L 52.141807012330695 445.25974851452366 L 52.63490213717448 444.1901425039068 L 53.21039753468862 443.16252152926074 L 53.864745084375784 442.1832212156129 L 54.59391051599953 441.25827927504724 L 55.39339828220179 440.3933982822018 L 56.25827927504724 439.59391051599954 L 57.1832212156129 438.8647450843758 L 58.16252152926077 438.21039753468864 L 59.190142503906806 437.6349021371745 L 60.25974851452367 437.1418070123307 L 61.36474508437581 436.73415225557267 L 62.49831954216145 436.4144511940348 L 63.65348302439657 436.1846748910729 L 64.82311356408238 436.0462399940031 L 66.00000000000006 436 L 67.17688643591774 436.0462399940031 L 68.34651697560352 436.1846748910729 L 69.50168045783865 436.4144511940349 L 70.63525491562429 436.7341522555727 L 71.74025148547642 437.14180701233073 L 72.80985749609329 437.63490213717455 L 73.83747847073931 438.2103975346887 L 74.81677878438718 438.86474508437584 L 75.74172072495284 439.5939105159996 L 76.6066017177983 440.3933982822019 L 77.40608948400055 441.25827927504736 L 78.13525491562429 442.183221215613 L 78.78960246531145 443.16252152926086 L 79.36509786282558 444.19014250390694 L 79.85819298766936 445.2597485145238 L 80.26584774442735 446.36474508437595 L 80.58554880596519 447.4983195421616 L 80.8153251089271 448.6534830243967 L 80.95376000599694 449.8231135640825 Z" fill-opacity="1" stroke-opacity="1" stroke-miterlimit="10" stroke-width="2"/><text fill="none" stroke="rgb(0,0,0)" font-family="Helvetica Neue, Helvetica, sans-serif" font-size="10px" font-style="normal" font-weight="normal" text-decoration="normal" x="66" y="436" text-anchor="middle" dominant-baseline="text-after-edge" stroke-opacity="1" stroke-linejoin="round" stroke-miterlimit="10" stroke-width="4">PR:N</text><text fill="rgb(255,255,255)" stroke="none" font-family="Helvetica Neue, Helvetica, sans-serif" font-size="10px" font-style="normal" font-weight="normal" text-decoration="normal" x="66" y="436" text-anchor="middle" dominant-baseline="text-after-edge" fill-opacity="1">PR:N</text><path fill="rgb(234,179,8)" stroke="rgb(255,102,102)" paint-order="fill stroke markers" d=" M 557 509 L 556.9460533403297 510.3730341752373 L 556.7845459604149 511.73760313820407 L 556.5164736069594 513.0852938674783 L 556.1434890351652 514.4077974015615 L 555.6678918189475 515.6969600663891 L 555.0926141732964 516.9448337454421 L 554.4212028761966 518.1437248825291 L 553.6577974015615 519.2862419151182 L 552.8071043980005 520.3653408457782 L 551.8743686707646 521.3743686707646 L 550.8653408457782 522.3071043980005 L 549.7862419151182 523.1577974015615 L 548.6437248825291 523.9212028761966 L 547.4448337454421 524.5926141732964 L 546.1969600663891 525.1678918189475 L 544.9077974015615 525.6434890351652 L 543.5852938674783 526.0164736069594 L 542.237603138204 526.2845459604149 L 540.8730341752373 526.4460533403297 L 539.5 526.5 L 538.1269658247627 526.4460533403297 L 536.762396861796 526.2845459604149 L 535.4147061325217 526.0164736069594 L 534.0922025984385 525.6434890351652 L 532.8030399336109 525.1678918189475 L 531.5551662545579 524.5926141732964 L 530.3562751174709 523.9212028761966 L 529.2137580848818 523.1577974015615 L 528.1346591542218 522.3071043980005 L 527.1256313292354 521.3743686707646 L 526.1928956019995 520.3653408457782 L 525.3422025984385 519.2862419151182 L 524.5787971238034 518.1437248825291 L 523.9073858267036 516.9448337454421 L 523.3321081810525 515.6969600663891 L 522.8565109648348 514.4077974015615 L 522.4835263930406 513.0852938674783 L 522.2154540395851 511.73760313820407 L 522.0539466596703 510.3730341752373 L 522 509 L 522.0539466596703 507.6269658247627 L 522.2154540395851 506.26239686179593 L 522.4835263930406 504.91470613252164 L 522.8565109648348 503.5922025984384 L 523.3321081810525 502.30303993361093 L 523.9073858267036 501.05516625455795 L 524.5787971238034 499.8562751174709 L 525.3422025984385 498.7137580848817 L 526.1928956019995 497.63465915422177 L 527.1256313292354 496.62563132923543 L 528.1346591542218 495.69289560199945 L 529.2137580848818 494.8422025984384 L 530.3562751174709 494.0787971238034 L 531.5551662545579 493.40738582670355 L 532.803039933611 492.8321081810525 L 534.0922025984385 492.3565109648348 L 535.4147061325217 491.9835263930407 L 536.762396861796 491.7154540395851 L 538.1269658247628 491.55394665967026 L 539.5000000000001 491.5 L 540.8730341752373 491.55394665967026 L 542.2376031382041 491.7154540395851 L 543.5852938674784 491.9835263930407 L 544.9077974015617 492.35651096483485 L 546.1969600663891 492.8321081810525 L 547.4448337454421 493.4073858267036 L 548.6437248825292 494.07879712380344 L 549.7862419151184 494.8422025984385 L 550.8653408457783 495.69289560199957 L 551.8743686707646 496.6256313292355 L 552.8071043980007 497.6346591542219 L 553.6577974015617 498.7137580848818 L 554.4212028761967 499.85627511747106 L 555.0926141732965 501.05516625455806 L 555.6678918189476 502.3030399336111 L 556.1434890351652 503.5922025984386 L 556.5164736069594 504.9147061325218 L 556.7845459604149 506.26239686179616 L 556.9460533403297 507.6269658247629 Z" fill-opacity="0.25" stroke-opacity="0.25" stroke-miterlimit="10" stroke-width="2" stroke-dasharray="4,2"/><text fill="none" stroke="rgb(0,0,0)" font-family="Helvetica Neue, Helvetica, sans-serif" font-size="10px" font-style="normal" font-weight="normal" text-decoration="normal" x="539.5" y="491.5" text-anchor="middle" dominant-baseline="text-after-edge" stroke-opacity="0.25" stroke-linejoin="round" stroke-miterlimit="10" stroke-width="4">CVE-2026-28387</text><text fill="rgb(255,255,255)" stroke="none" font-family="Helvetica Neue, Helvetica, sans-serif" font-size="10px" font-style="normal" font-weight="normal" text-decoration="normal" x="539.5" y="491.5" text-anchor="middle" dominant-baseline="text-after-edge" fill-opacity="0.25">CVE-2026-28387</text><path fill="rgb(99,102,241)" stroke="rgb(255,0,102)" paint-order="fill stroke markers" d=" M 81 361 L 80.95376000599691 362.17688643591765 L 80.81532510892707 363.34651697560344 L 80.58554880596515 364.5016804578386 L 80.2658477444273 365.6352549156242 L 79.8581929876693 366.74025148547634 L 79.36509786282552 367.8098574960932 L 78.78960246531139 368.83747847073926 L 78.13525491562422 369.8167787843871 L 77.40608948400046 370.74172072495276 L 76.60660171779821 371.6066017177982 L 75.74172072495276 372.40608948400046 L 74.8167787843871 373.1352549156242 L 73.83747847073923 373.78960246531136 L 72.8098574960932 374.3650978628255 L 71.74025148547635 374.8581929876693 L 70.63525491562422 375.2658477444273 L 69.50168045783859 375.5855488059652 L 68.34651697560346 375.8153251089271 L 67.17688643591768 375.9537600059969 L 66 376 L 64.82311356408232 375.9537600059969 L 63.653483024396536 375.8153251089271 L 62.49831954216142 375.5855488059652 L 61.36474508437579 375.26584774442733 L 60.25974851452365 374.8581929876693 L 59.1901425039068 374.3650978628255 L 58.16252152926077 373.78960246531136 L 57.1832212156129 373.1352549156242 L 56.258279275047244 372.40608948400046 L 55.39339828220179 371.6066017177982 L 54.59391051599954 370.74172072495276 L 53.86474508437579 369.8167787843871 L 53.21039753468862 368.83747847073926 L 52.634902137174485 367.80985749609323 L 52.1418070123307 366.74025148547634 L 51.734152255572695 365.6352549156242 L 51.414451194034854 364.5016804578386 L 51.18467489107294 363.3465169756035 L 51.04623999400308 362.17688643591765 L 51 361 L 51.04623999400308 359.82311356408235 L 51.18467489107293 358.65348302439656 L 51.414451194034854 357.4983195421614 L 51.734152255572695 356.3647450843758 L 52.141807012330695 355.25974851452366 L 52.63490213717448 354.1901425039068 L 53.21039753468862 353.16252152926074 L 53.864745084375784 352.1832212156129 L 54.59391051599953 351.25827927504724 L 55.39339828220179 350.3933982822018 L 56.25827927504724 349.59391051599954 L 57.1832212156129 348.8647450843758 L 58.16252152926077 348.21039753468864 L 59.190142503906806 347.6349021371745 L 60.25974851452367 347.1418070123307 L 61.36474508437581 346.73415225557267 L 62.49831954216145 346.4144511940348 L 63.65348302439657 346.1846748910729 L 64.82311356408238 346.0462399940031 L 66.00000000000006 346 L 67.17688643591774 346.0462399940031 L 68.34651697560352 346.1846748910729 L 69.50168045783865 346.4144511940349 L 70.63525491562429 346.7341522555727 L 71.74025148547642 347.14180701233073 L 72.80985749609329 347.63490213717455 L 73.83747847073931 348.2103975346887 L 74.81677878438718 348.86474508437584 L 75.74172072495284 349.5939105159996 L 76.6066017177983 350.3933982822019 L 77.40608948400055 351.25827927504736 L 78.13525491562429 352.183221215613 L 78.78960246531145 353.16252152926086 L 79.36509786282558 354.19014250390694 L 79.85819298766936 355.2597485145238 L 80.26584774442735 356.36474508437595 L 80.58554880596519 357.4983195421616 L 80.8153251089271 358.6534830243967 L 80.95376000599694 359.8231135640825 Z" fill-opacity="1" stroke-opacity="1" stroke-miterlimit="10" stroke-width="2"/><text fill="none" stroke="rgb(0,0,0)" font-family="Helvetica Neue, Helvetica, sans-serif" font-size="10px" font-style="normal" font-weight="normal" text-decoration="normal" x="66" y="346" text-anchor="middle" dominant-baseline="text-after-edge" stroke-opacity="1" stroke-linejoin="round" stroke-miterlimit="10" stroke-width="4">AC:L</text><text fill="rgb(255,255,255)" stroke="none" font-family="Helvetica Neue, Helvetica, sans-serif" font-size="10px" font-style="normal" font-weight="normal" text-decoration="normal" x="66" y="346" text-anchor="middle" dominant-baseline="text-after-edge" fill-opacity="1">AC:L</text><path fill="rgb(99,102,241)" stroke="rgb(255,102,102)" paint-order="fill stroke markers" d=" M 689 591 L 688.953760005997 592.1768864359177 L 688.815325108927 593.3465169756034 L 688.5855488059651 594.5016804578386 L 688.2658477444273 595.6352549156242 L 687.8581929876693 596.7402514854764 L 687.3650978628256 597.8098574960932 L 686.7896024653114 598.8374784707393 L 686.1352549156242 599.8167787843871 L 685.4060894840005 600.7417207249528 L 684.6066017177982 601.6066017177982 L 683.7417207249528 602.4060894840005 L 682.8167787843871 603.1352549156242 L 681.8374784707393 603.7896024653114 L 680.8098574960932 604.3650978628256 L 679.7402514854764 604.8581929876693 L 678.6352549156242 605.2658477444273 L 677.5016804578386 605.5855488059651 L 676.3465169756034 605.815325108927 L 675.1768864359177 605.953760005997 L 674 606 L 672.8231135640823 605.953760005997 L 671.6534830243966 605.815325108927 L 670.4983195421614 605.5855488059651 L 669.3647450843758 605.2658477444273 L 668.2597485145236 604.8581929876693 L 667.1901425039068 604.3650978628256 L 666.1625215292607 603.7896024653114 L 665.1832212156129 603.1352549156242 L 664.2582792750472 602.4060894840005 L 663.3933982822018 601.6066017177982 L 662.5939105159995 600.7417207249528 L 661.8647450843758 599.8167787843871 L 661.2103975346886 598.8374784707393 L 660.6349021371744 597.8098574960932 L 660.1418070123307 596.7402514854764 L 659.7341522555727 595.6352549156242 L 659.4144511940349 594.5016804578386 L 659.184674891073 593.3465169756034 L 659.046239994003 592.1768864359177 L 659 591 L 659.046239994003 589.8231135640823 L 659.184674891073 588.6534830243966 L 659.4144511940349 587.4983195421614 L 659.7341522555727 586.3647450843758 L 660.1418070123307 585.2597485145236 L 660.6349021371744 584.1901425039068 L 661.2103975346886 583.1625215292607 L 661.8647450843758 582.1832212156129 L 662.5939105159995 581.2582792750472 L 663.3933982822018 580.3933982822018 L 664.2582792750472 579.5939105159996 L 665.1832212156129 578.8647450843758 L 666.1625215292607 578.2103975346886 L 667.1901425039068 577.6349021371744 L 668.2597485145237 577.1418070123307 L 669.3647450843758 576.7341522555727 L 670.4983195421614 576.4144511940349 L 671.6534830243966 576.184674891073 L 672.8231135640824 576.046239994003 L 674 576 L 675.1768864359177 576.046239994003 L 676.3465169756035 576.184674891073 L 677.5016804578387 576.4144511940349 L 678.6352549156243 576.7341522555727 L 679.7402514854764 577.1418070123307 L 680.8098574960933 577.6349021371745 L 681.8374784707394 578.2103975346887 L 682.8167787843872 578.8647450843758 L 683.7417207249529 579.5939105159996 L 684.6066017177983 580.3933982822018 L 685.4060894840005 581.2582792750474 L 686.1352549156243 582.183221215613 L 686.7896024653114 583.1625215292609 L 687.3650978628256 584.1901425039069 L 687.8581929876693 585.2597485145238 L 688.2658477444273 586.364745084376 L 688.5855488059652 587.4983195421615 L 688.8153251089271 588.6534830243967 L 688.953760005997 589.8231135640825 Z" fill-opacity="0.25" stroke-opacity="0.25" stroke-miterlimit="10" stroke-width="2" stroke-dasharray="4,2"/><text fill="none" stroke="rgb(0,0,0)" font-family="Helvetica Neue, Helvetica, sans-serif" font-size="10px" font-style="normal" font-weight="normal" text-decoration="normal" x="674" y="576" text-anchor="middle" dominant-baseline="text-after-edge" stroke-opacity="0.25" stroke-linejoin="round" stroke-miterlimit="10" stroke-width="4">AV:L</text><text fill="rgb(255,255,255)" stroke="none" font-family="Helvetica Neue, Helvetica, sans-serif" font-size="10px" font-style="normal" font-weight="normal" text-decoration="normal" x="674" y="576" text-anchor="middle" dominant-baseline="text-after-edge" fill-opacity="0.25">AV:L</text><path fill="rgb(99,102,241)" stroke="rgb(255,102,102)" paint-order="fill stroke markers" d=" M 689 509 L 688.953760005997 510.17688643591765 L 688.815325108927 511.34651697560344 L 688.5855488059651 512.5016804578386 L 688.2658477444273 513.6352549156242 L 687.8581929876693 514.7402514854764 L 687.3650978628256 515.8098574960932 L 686.7896024653114 516.8374784707393 L 686.1352549156242 517.8167787843871 L 685.4060894840005 518.7417207249528 L 684.6066017177982 519.6066017177982 L 683.7417207249528 520.4060894840005 L 682.8167787843871 521.1352549156242 L 681.8374784707393 521.7896024653114 L 680.8098574960932 522.3650978628256 L 679.7402514854764 522.8581929876693 L 678.6352549156242 523.2658477444273 L 677.5016804578386 523.5855488059651 L 676.3465169756034 523.815325108927 L 675.1768864359177 523.953760005997 L 674 524 L 672.8231135640823 523.953760005997 L 671.6534830243966 523.815325108927 L 670.4983195421614 523.5855488059651 L 669.3647450843758 523.2658477444273 L 668.2597485145236 522.8581929876693 L 667.1901425039068 522.3650978628256 L 666.1625215292607 521.7896024653114 L 665.1832212156129 521.1352549156242 L 664.2582792750472 520.4060894840005 L 663.3933982822018 519.6066017177982 L 662.5939105159995 518.7417207249528 L 661.8647450843758 517.8167787843871 L 661.2103975346886 516.8374784707393 L 660.6349021371744 515.8098574960932 L 660.1418070123307 514.7402514854764 L 659.7341522555727 513.6352549156242 L 659.4144511940349 512.5016804578386 L 659.184674891073 511.3465169756035 L 659.046239994003 510.17688643591765 L 659 509 L 659.046239994003 507.82311356408235 L 659.184674891073 506.65348302439656 L 659.4144511940349 505.4983195421614 L 659.7341522555727 504.3647450843758 L 660.1418070123307 503.25974851452366 L 660.6349021371744 502.1901425039068 L 661.2103975346886 501.16252152926074 L 661.8647450843758 500.1832212156129 L 662.5939105159995 499.25827927504724 L 663.3933982822018 498.3933982822018 L 664.2582792750472 497.59391051599954 L 665.1832212156129 496.8647450843758 L 666.1625215292607 496.21039753468864 L 667.1901425039068 495.6349021371745 L 668.2597485145237 495.1418070123307 L 669.3647450843758 494.73415225557267 L 670.4983195421614 494.4144511940348 L 671.6534830243966 494.1846748910729 L 672.8231135640824 494.0462399940031 L 674 494 L 675.1768864359177 494.0462399940031 L 676.3465169756035 494.1846748910729 L 677.5016804578387 494.4144511940349 L 678.6352549156243 494.7341522555727 L 679.7402514854764 495.14180701233073 L 680.8098574960933 495.63490213717455 L 681.8374784707394 496.2103975346887 L 682.8167787843872 496.86474508437584 L 683.7417207249529 497.5939105159996 L 684.6066017177983 498.3933982822019 L 685.4060894840005 499.25827927504736 L 686.1352549156243 500.183221215613 L 686.7896024653114 501.16252152926086 L 687.3650978628256 502.19014250390694 L 687.8581929876693 503.2597485145238 L 688.2658477444273 504.36474508437595 L 688.5855488059652 505.4983195421616 L 688.8153251089271 506.6534830243967 L 688.953760005997 507.8231135640825 Z" fill-opacity="0.25" stroke-opacity="0.25" stroke-miterlimit="10" stroke-width="2" stroke-dasharray="4,2"/><text fill="none" stroke="rgb(0,0,0)" font-family="Helvetica Neue, Helvetica, sans-serif" font-size="10px" font-style="normal" font-weight="normal" text-decoration="normal" x="674" y="494" text-anchor="middle" dominant-baseline="text-after-edge" stroke-opacity="0.25" stroke-linejoin="round" stroke-miterlimit="10" stroke-width="4">PR:H</text><text fill="rgb(255,255,255)" stroke="none" font-family="Helvetica Neue, Helvetica, sans-serif" font-size="10px" font-style="normal" font-weight="normal" text-decoration="normal" x="674" y="494" text-anchor="middle" dominant-baseline="text-after-edge" fill-opacity="0.25">PR:H</text><path fill="rgb(255,0,0)" stroke="rgb(255,215,0)" paint-order="fill stroke markers" d=" M 954 2 L 944.7343318831332 16.229919354882053 L 929 21.09830056250525 L 939.0078340584333 34.76125558861554 L 938.5491502812527 51.99999999999999 L 954 46.21425123801531 L 969.4508497187473 52 L 968.9921659415667 34.76125558861555 L 979 21.098300562505262 L 963.2656681168668 16.229919354882057 Z" fill-opacity="0.25" stroke-opacity="0.25" stroke-miterlimit="10" stroke-width="4" stroke-dasharray="4,2"/><text fill="none" stroke="rgb(0,0,0)" font-family="Helvetica Neue, Helvetica, sans-serif" font-size="10px" font-style="normal" font-weight="bold" text-decoration="normal" x="954" y="2" text-anchor="middle" dominant-baseline="text-after-edge" stroke-opacity="0.25" stroke-linejoin="round" stroke-miterlimit="10" stroke-width="4">EXPLOITED</text><text fill="rgb(255,255,255)" stroke="none" font-family="Helvetica Neue, Helvetica, sans-serif" font-size="10px" font-style="normal" font-weight="bold" text-decoration="normal" x="954" y="2" text-anchor="middle" dominant-baseline="text-after-edge" fill-opacity="0.25">EXPLOITED</text><path fill="rgb(234,179,8)" stroke="rgb(255,102,102)" paint-order="fill stroke markers" d=" M 826 711 L 825.9460533403297 712.3730341752373 L 825.7845459604149 713.737603138204 L 825.5164736069594 715.0852938674783 L 825.1434890351652 716.4077974015615 L 824.6678918189475 717.6969600663891 L 824.0926141732964 718.9448337454421 L 823.4212028761966 720.1437248825291 L 822.6577974015615 721.2862419151182 L 821.8071043980005 722.3653408457782 L 820.8743686707646 723.3743686707646 L 819.8653408457782 724.3071043980005 L 818.7862419151182 725.1577974015615 L 817.6437248825291 725.9212028761966 L 816.4448337454421 726.5926141732964 L 815.1969600663891 727.1678918189475 L 813.9077974015615 727.6434890351652 L 812.5852938674783 728.0164736069594 L 811.237603138204 728.2845459604149 L 809.8730341752373 728.4460533403297 L 808.5 728.5 L 807.1269658247627 728.4460533403297 L 805.762396861796 728.2845459604149 L 804.4147061325217 728.0164736069594 L 803.0922025984385 727.6434890351652 L 801.8030399336109 727.1678918189475 L 800.5551662545579 726.5926141732964 L 799.3562751174709 725.9212028761966 L 798.2137580848818 725.1577974015615 L 797.1346591542218 724.3071043980005 L 796.1256313292354 723.3743686707646 L 795.1928956019995 722.3653408457782 L 794.3422025984385 721.2862419151182 L 793.5787971238034 720.1437248825291 L 792.9073858267036 718.9448337454421 L 792.3321081810525 717.6969600663891 L 791.8565109648348 716.4077974015615 L 791.4835263930406 715.0852938674783 L 791.2154540395851 713.737603138204 L 791.0539466596703 712.3730341752373 L 791 711 L 791.0539466596703 709.6269658247627 L 791.2154540395851 708.262396861796 L 791.4835263930406 706.9147061325217 L 791.8565109648348 705.5922025984385 L 792.3321081810525 704.3030399336109 L 792.9073858267036 703.0551662545579 L 793.5787971238034 701.8562751174709 L 794.3422025984385 700.7137580848818 L 795.1928956019995 699.6346591542218 L 796.1256313292354 698.6256313292354 L 797.1346591542218 697.6928956019995 L 798.2137580848818 696.8422025984385 L 799.3562751174709 696.0787971238034 L 800.5551662545579 695.4073858267036 L 801.803039933611 694.8321081810525 L 803.0922025984385 694.3565109648348 L 804.4147061325217 693.9835263930406 L 805.762396861796 693.7154540395851 L 807.1269658247628 693.5539466596703 L 808.5000000000001 693.5 L 809.8730341752373 693.5539466596703 L 811.2376031382041 693.7154540395851 L 812.5852938674784 693.9835263930406 L 813.9077974015617 694.3565109648348 L 815.1969600663891 694.8321081810525 L 816.4448337454421 695.4073858267036 L 817.6437248825292 696.0787971238035 L 818.7862419151184 696.8422025984385 L 819.8653408457783 697.6928956019996 L 820.8743686707646 698.6256313292355 L 821.8071043980007 699.6346591542219 L 822.6577974015617 700.7137580848819 L 823.4212028761967 701.856275117471 L 824.0926141732965 703.0551662545581 L 824.6678918189476 704.3030399336111 L 825.1434890351652 705.5922025984386 L 825.5164736069594 706.9147061325218 L 825.7845459604149 708.2623968617961 L 825.9460533403297 709.6269658247629 Z" fill-opacity="0.25" stroke-opacity="0.25" stroke-miterlimit="10" stroke-width="2" stroke-dasharray="4,2"/><text fill="none" stroke="rgb(0,0,0)" font-family="Helvetica Neue, Helvetica, sans-serif" font-size="10px" font-style="normal" font-weight="normal" text-decoration="normal" x="808.5" y="693.5" text-anchor="middle" dominant-baseline="text-after-edge" stroke-opacity="0.25" stroke-linejoin="round" stroke-miterlimit="10" stroke-width="4">CVE-2026-31789</text><text fill="rgb(255,255,255)" stroke="none" font-family="Helvetica Neue, Helvetica, sans-serif" font-size="10px" font-style="normal" font-weight="normal" text-decoration="normal" x="808.5" y="693.5" text-anchor="middle" dominant-baseline="text-after-edge" fill-opacity="0.25">CVE-2026-31789</text><path fill="rgb(99,102,241)" stroke="rgb(255,0,102)" paint-order="fill stroke markers" d=" M 81 316 L 80.95376000599691 317.17688643591765 L 80.81532510892707 318.34651697560344 L 80.58554880596515 319.5016804578386 L 80.2658477444273 320.6352549156242 L 79.8581929876693 321.74025148547634 L 79.36509786282552 322.8098574960932 L 78.78960246531139 323.83747847073926 L 78.13525491562422 324.8167787843871 L 77.40608948400046 325.74172072495276 L 76.60660171779821 326.6066017177982 L 75.74172072495276 327.40608948400046 L 74.8167787843871 328.1352549156242 L 73.83747847073923 328.78960246531136 L 72.8098574960932 329.3650978628255 L 71.74025148547635 329.8581929876693 L 70.63525491562422 330.2658477444273 L 69.50168045783859 330.5855488059652 L 68.34651697560346 330.8153251089271 L 67.17688643591768 330.9537600059969 L 66 331 L 64.82311356408232 330.9537600059969 L 63.653483024396536 330.8153251089271 L 62.49831954216142 330.5855488059652 L 61.36474508437579 330.26584774442733 L 60.25974851452365 329.8581929876693 L 59.1901425039068 329.3650978628255 L 58.16252152926077 328.78960246531136 L 57.1832212156129 328.1352549156242 L 56.258279275047244 327.40608948400046 L 55.39339828220179 326.6066017177982 L 54.59391051599954 325.74172072495276 L 53.86474508437579 324.8167787843871 L 53.21039753468862 323.83747847073926 L 52.634902137174485 322.80985749609323 L 52.1418070123307 321.74025148547634 L 51.734152255572695 320.6352549156242 L 51.414451194034854 319.5016804578386 L 51.18467489107294 318.3465169756035 L 51.04623999400308 317.17688643591765 L 51 316 L 51.04623999400308 314.82311356408235 L 51.18467489107293 313.65348302439656 L 51.414451194034854 312.4983195421614 L 51.734152255572695 311.3647450843758 L 52.141807012330695 310.25974851452366 L 52.63490213717448 309.1901425039068 L 53.21039753468862 308.16252152926074 L 53.864745084375784 307.1832212156129 L 54.59391051599953 306.25827927504724 L 55.39339828220179 305.3933982822018 L 56.25827927504724 304.59391051599954 L 57.1832212156129 303.8647450843758 L 58.16252152926077 303.21039753468864 L 59.190142503906806 302.6349021371745 L 60.25974851452367 302.1418070123307 L 61.36474508437581 301.73415225557267 L 62.49831954216145 301.4144511940348 L 63.65348302439657 301.1846748910729 L 64.82311356408238 301.0462399940031 L 66.00000000000006 301 L 67.17688643591774 301.0462399940031 L 68.34651697560352 301.1846748910729 L 69.50168045783865 301.4144511940349 L 70.63525491562429 301.7341522555727 L 71.74025148547642 302.14180701233073 L 72.80985749609329 302.63490213717455 L 73.83747847073931 303.2103975346887 L 74.81677878438718 303.86474508437584 L 75.74172072495284 304.5939105159996 L 76.6066017177983 305.3933982822019 L 77.40608948400055 306.25827927504736 L 78.13525491562429 307.183221215613 L 78.78960246531145 308.16252152926086 L 79.36509786282558 309.19014250390694 L 79.85819298766936 310.2597485145238 L 80.26584774442735 311.36474508437595 L 80.58554880596519 312.4983195421616 L 80.8153251089271 313.6534830243967 L 80.95376000599694 314.8231135640825 Z" fill-opacity="1" stroke-opacity="1" stroke-miterlimit="10" stroke-width="2"/><text fill="none" stroke="rgb(0,0,0)" font-family="Helvetica Neue, Helvetica, sans-serif" font-size="10px" font-style="normal" font-weight="normal" text-decoration="normal" x="66" y="301" text-anchor="middle" dominant-baseline="text-after-edge" stroke-opacity="1" stroke-linejoin="round" stroke-miterlimit="10" stroke-width="4">UI:N</text><text fill="rgb(255,255,255)" stroke="none" font-family="Helvetica Neue, Helvetica, sans-serif" font-size="10px" font-style="normal" font-weight="normal" text-decoration="normal" x="66" y="301" text-anchor="middle" dominant-baseline="text-after-edge" fill-opacity="1">UI:N</text><path fill="rgb(255,0,0)" stroke="rgb(255,215,0)" paint-order="fill stroke markers" d=" M 954 106 L 944.7343318831332 120.22991935488206 L 929 125.09830056250526 L 939.0078340584333 138.76125558861554 L 938.5491502812527 156 L 954 150.21425123801532 L 969.4508497187473 156 L 968.9921659415667 138.76125558861554 L 979 125.09830056250526 L 963.2656681168668 120.22991935488206 Z" fill-opacity="1" stroke-opacity="1" stroke-miterlimit="10" stroke-width="4"/><text fill="none" stroke="rgb(0,0,0)" font-family="Helvetica Neue, Helvetica, sans-serif" font-size="10px" font-style="normal" font-weight="bold" text-decoration="normal" x="954" y="106" text-anchor="middle" dominant-baseline="text-after-edge" stroke-opacity="1" stroke-linejoin="round" stroke-miterlimit="10" stroke-width="4">EXPLOITED</text><text fill="rgb(255,255,255)" stroke="none" font-family="Helvetica Neue, Helvetica, sans-serif" font-size="10px" font-style="normal" font-weight="bold" text-decoration="normal" x="954" y="106" text-anchor="middle" dominant-baseline="text-after-edge" fill-opacity="1">EXPLOITED</text><path fill="rgb(234,179,8)" stroke="rgb(0,0,0)" paint-order="fill stroke markers" d=" M 826 581 L 825.9460533403297 582.3730341752373 L 825.7845459604149 583.737603138204 L 825.5164736069594 585.0852938674783 L 825.1434890351652 586.4077974015615 L 824.6678918189475 587.6969600663891 L 824.0926141732964 588.9448337454421 L 823.4212028761966 590.1437248825291 L 822.6577974015615 591.2862419151182 L 821.8071043980005 592.3653408457782 L 820.8743686707646 593.3743686707646 L 819.8653408457782 594.3071043980005 L 818.7862419151182 595.1577974015615 L 817.6437248825291 595.9212028761966 L 816.4448337454421 596.5926141732964 L 815.1969600663891 597.1678918189475 L 813.9077974015615 597.6434890351652 L 812.5852938674783 598.0164736069594 L 811.237603138204 598.2845459604149 L 809.8730341752373 598.4460533403297 L 808.5 598.5 L 807.1269658247627 598.4460533403297 L 805.762396861796 598.2845459604149 L 804.4147061325217 598.0164736069594 L 803.0922025984385 597.6434890351652 L 801.8030399336109 597.1678918189475 L 800.5551662545579 596.5926141732964 L 799.3562751174709 595.9212028761966 L 798.2137580848818 595.1577974015615 L 797.1346591542218 594.3071043980005 L 796.1256313292354 593.3743686707646 L 795.1928956019995 592.3653408457782 L 794.3422025984385 591.2862419151182 L 793.5787971238034 590.1437248825291 L 792.9073858267036 588.9448337454421 L 792.3321081810525 587.6969600663891 L 791.8565109648348 586.4077974015615 L 791.4835263930406 585.0852938674783 L 791.2154540395851 583.737603138204 L 791.0539466596703 582.3730341752373 L 791 581 L 791.0539466596703 579.6269658247627 L 791.2154540395851 578.262396861796 L 791.4835263930406 576.9147061325217 L 791.8565109648348 575.5922025984385 L 792.3321081810525 574.3030399336109 L 792.9073858267036 573.0551662545579 L 793.5787971238034 571.8562751174709 L 794.3422025984385 570.7137580848818 L 795.1928956019995 569.6346591542218 L 796.1256313292354 568.6256313292354 L 797.1346591542218 567.6928956019995 L 798.2137580848818 566.8422025984385 L 799.3562751174709 566.0787971238034 L 800.5551662545579 565.4073858267036 L 801.803039933611 564.8321081810525 L 803.0922025984385 564.3565109648348 L 804.4147061325217 563.9835263930406 L 805.762396861796 563.7154540395851 L 807.1269658247628 563.5539466596703 L 808.5000000000001 563.5 L 809.8730341752373 563.5539466596703 L 811.2376031382041 563.7154540395851 L 812.5852938674784 563.9835263930406 L 813.9077974015617 564.3565109648348 L 815.1969600663891 564.8321081810525 L 816.4448337454421 565.4073858267036 L 817.6437248825292 566.0787971238035 L 818.7862419151184 566.8422025984385 L 819.8653408457783 567.6928956019996 L 820.8743686707646 568.6256313292355 L 821.8071043980007 569.6346591542219 L 822.6577974015617 570.7137580848819 L 823.4212028761967 571.856275117471 L 824.0926141732965 573.0551662545581 L 824.6678918189476 574.3030399336111 L 825.1434890351652 575.5922025984386 L 825.5164736069594 576.9147061325218 L 825.7845459604149 578.2623968617961 L 825.9460533403297 579.6269658247629 Z" fill-opacity="1" stroke-opacity="1" stroke-miterlimit="10" stroke-width="2"/><text fill="none" stroke="rgb(0,0,0)" font-family="Helvetica Neue, Helvetica, sans-serif" font-size="10px" font-style="normal" font-weight="normal" text-decoration="normal" x="808.5" y="563.5" text-anchor="middle" dominant-baseline="text-after-edge" stroke-opacity="1" stroke-linejoin="round" stroke-miterlimit="10" stroke-width="4">CVE-2026-22184</text><text fill="rgb(255,255,255)" stroke="none" font-family="Helvetica Neue, Helvetica, sans-serif" font-size="10px" font-style="normal" font-weight="normal" text-decoration="normal" x="808.5" y="563.5" text-anchor="middle" dominant-baseline="text-after-edge" fill-opacity="1">CVE-2026-22184</text><path fill="rgb(234,179,8)" stroke="rgb(0,0,0)" paint-order="fill stroke markers" d=" M 826 145.5 L 825.9460533403297 146.87303417523728 L 825.7845459604149 148.23760313820404 L 825.5164736069594 149.58529386747836 L 825.1434890351652 150.90779740156157 L 824.6678918189475 152.19696006638907 L 824.0926141732964 153.44483374544205 L 823.4212028761966 154.6437248825291 L 822.6577974015615 155.78624191511827 L 821.8071043980005 156.8653408457782 L 820.8743686707646 157.87436867076457 L 819.8653408457782 158.80710439800055 L 818.7862419151182 159.6577974015616 L 817.6437248825291 160.42120287619662 L 816.4448337454421 161.09261417329643 L 815.1969600663891 161.6678918189475 L 813.9077974015615 162.14348903516517 L 812.5852938674783 162.51647360695935 L 811.237603138204 162.7845459604149 L 809.8730341752373 162.94605334032974 L 808.5 163 L 807.1269658247627 162.94605334032974 L 805.762396861796 162.7845459604149 L 804.4147061325217 162.51647360695935 L 803.0922025984385 162.1434890351652 L 801.8030399336109 161.6678918189475 L 800.5551662545579 161.09261417329643 L 799.3562751174709 160.42120287619662 L 798.2137580848818 159.6577974015616 L 797.1346591542218 158.80710439800055 L 796.1256313292354 157.87436867076457 L 795.1928956019995 156.8653408457782 L 794.3422025984385 155.7862419151183 L 793.5787971238034 154.6437248825291 L 792.9073858267036 153.44483374544208 L 792.3321081810525 152.19696006638907 L 791.8565109648348 150.9077974015616 L 791.4835263930406 149.58529386747836 L 791.2154540395851 148.23760313820404 L 791.0539466596703 146.87303417523728 L 791 145.5 L 791.0539466596703 144.12696582476272 L 791.2154540395851 142.76239686179596 L 791.4835263930406 141.41470613252164 L 791.8565109648348 140.09220259843843 L 792.3321081810525 138.80303993361093 L 792.9073858267036 137.55516625455795 L 793.5787971238034 136.3562751174709 L 794.3422025984385 135.21375808488173 L 795.1928956019995 134.1346591542218 L 796.1256313292354 133.12563132923543 L 797.1346591542218 132.19289560199945 L 798.2137580848818 131.34220259843843 L 799.3562751174709 130.57879712380338 L 800.5551662545579 129.90738582670355 L 801.803039933611 129.3321081810525 L 803.0922025984385 128.8565109648348 L 804.4147061325217 128.48352639304065 L 805.762396861796 128.2154540395851 L 807.1269658247628 128.05394665967026 L 808.5000000000001 128 L 809.8730341752373 128.05394665967026 L 811.2376031382041 128.2154540395851 L 812.5852938674784 128.48352639304068 L 813.9077974015617 128.85651096483485 L 815.1969600663891 129.33210818105252 L 816.4448337454421 129.9073858267036 L 817.6437248825292 130.57879712380344 L 818.7862419151184 131.3422025984385 L 819.8653408457783 132.19289560199954 L 820.8743686707646 133.12563132923552 L 821.8071043980007 134.1346591542219 L 822.6577974015617 135.21375808488185 L 823.4212028761967 136.35627511747103 L 824.0926141732965 137.5551662545581 L 824.6678918189476 138.8030399336111 L 825.1434890351652 140.0922025984386 L 825.5164736069594 141.41470613252184 L 825.7845459604149 142.76239686179616 L 825.9460533403297 144.12696582476292 Z" fill-opacity="1" stroke-opacity="1" stroke-miterlimit="10" stroke-width="2"/><text fill="none" stroke="rgb(0,0,0)" font-family="Helvetica Neue, Helvetica, sans-serif" font-size="10px" font-style="normal" font-weight="normal" text-decoration="normal" x="808.5" y="128" text-anchor="middle" dominant-baseline="text-after-edge" stroke-opacity="1" stroke-linejoin="round" stroke-miterlimit="10" stroke-width="4">CVE-2026-27171</text><text fill="rgb(255,255,255)" stroke="none" font-family="Helvetica Neue, Helvetica, sans-serif" font-size="10px" font-style="normal" font-weight="normal" text-decoration="normal" x="808.5" y="128" text-anchor="middle" dominant-baseline="text-after-edge" fill-opacity="1">CVE-2026-27171</text><g transform="scale(0.5,0.5) translate(64,-26)"/></g></g></svg>