<svg version="1.1" xmlns="http://www.w3.org/2000/svg" xmlns:xlink="http://www.w3.org/1999/xlink" width="2498" height="1568"><defs/><g><rect fill="#ffffff" stroke="none" x="0" y="0" width="2498" height="1568"/><g transform="translate(-64,33) scale(2,2)"><path fill="rgb(100,100,100)" stroke="rgb(136,136,136)" paint-order="fill stroke markers" d=" M 139.5 316.35 L 237 316.35 L 237 316.35 A 8 8 0 0 1 245 324.35 L 245 564.35 L 245 564.35 A 8 8 0 0 1 237 572.35 L 42 572.35 L 42 572.35 A 8 8 0 0 1 34 564.35 L 34 324.35 L 34 324.35 A 8 8 0 0 1 42 316.35 L 139.5 316.35 Z" fill-opacity="1" stroke-opacity="1" stroke-miterlimit="10" stroke-width="2" stroke-dasharray="4,2"/><text fill="none" stroke="rgb(0,0,0)" font-family="Helvetica Neue, Helvetica, sans-serif" font-size="12px" font-style="normal" font-weight="normal" text-decoration="normal" x="139.5" y="316.35" text-anchor="middle" dominant-baseline="text-after-edge" stroke-opacity="1" stroke-linejoin="round" stroke-miterlimit="10" stroke-width="4">Initial State</text><text fill="rgb(204,204,204)" stroke="none" font-family="Helvetica Neue, Helvetica, sans-serif" font-size="12px" font-style="normal" font-weight="normal" text-decoration="normal" x="139.5" y="316.35" text-anchor="middle" dominant-baseline="text-after-edge" fill-opacity="1">Initial State</text><path fill="rgb(234,179,8)" stroke="rgb(234,179,8)" paint-order="fill stroke markers" d=" M 858.5 314.125 L 905.5 314.125 L 905.5 314.125 A 8 8 0 0 1 913.5 322.125 L 913.5 426.125 L 913.5 426.125 A 8 8 0 0 1 905.5 434.125 L 811.5 434.125 L 811.5 434.125 A 8 8 0 0 1 803.5 426.125 L 803.5 322.125 L 803.5 322.125 A 8 8 0 0 1 811.5 314.125 L 858.5 314.125 Z" fill-opacity="1" stroke-opacity="1" stroke-miterlimit="10" stroke-width="2" stroke-dasharray="4,2"/><text fill="none" stroke="rgb(0,0,0)" font-family="Helvetica Neue, Helvetica, sans-serif" font-size="10px" font-style="normal" font-weight="normal" text-decoration="normal" x="858.5" y="314.125" text-anchor="middle" dominant-baseline="text-after-edge" stroke-opacity="1" stroke-linejoin="round" stroke-miterlimit="10" stroke-width="2">AV:L / AC:L / PR:L / UI:N (×2)</text><text fill="rgb(234,179,8)" stroke="none" font-family="Helvetica Neue, Helvetica, sans-serif" font-size="10px" font-style="normal" font-weight="normal" text-decoration="normal" x="858.5" y="314.125" text-anchor="middle" dominant-baseline="text-after-edge" fill-opacity="1">AV:L / AC:L / PR:L / UI:N (×2)</text><path fill="none" stroke="rgb(255,153,119)" paint-order="fill stroke markers" d=" M 419.47627091268066 458.60333504543576 L 516.7776839352059 497.83777578032493" stroke-opacity="0.9" stroke-linejoin="round" stroke-miterlimit="10" stroke-width="3" stroke-dasharray="6,3"/><path fill="rgb(255,255,255)" stroke="none" paint-order="stroke fill markers" d=" M 512.6468297013067 500.8624316778242 L 522.3423327674004 500.0815857933066 L 515.9003542201301 492.79369087114225 Z" fill-opacity="1"/><path fill="rgb(255,153,119)" stroke="none" paint-order="stroke fill markers" d=" M 512.6468297013067 500.8624316778242 L 522.3423327674004 500.0815857933066 L 515.9003542201301 492.79369087114225 Z" fill-opacity="0.9"/><path fill="none" stroke="rgb(203,143,255)" paint-order="fill stroke markers" d=" M 558 507 L 652 507" stroke-opacity="0.9" stroke-linejoin="round" stroke-miterlimit="10" stroke-width="3" stroke-dasharray="6,3"/><path fill="rgb(255,255,255)" stroke="none" paint-order="stroke fill markers" d=" M 649.3 511.35 L 658 507 L 649.3 502.65 Z" fill-opacity="1"/><path fill="rgb(203,143,255)" stroke="none" paint-order="stroke fill markers" d=" M 649.3 511.35 L 658 507 L 649.3 502.65 Z" fill-opacity="0.9"/><path fill="none" stroke="rgb(0,255,255)" paint-order="fill stroke markers" d=" M 686.1202396267524 599.4450845563882 L 841.4559130248795 733.311599842579" stroke-opacity="0.25" stroke-linejoin="round" stroke-miterlimit="10" stroke-width="2"/><path fill="rgb(255,255,255)" stroke="none" paint-order="stroke fill markers" d=" M 835.0558352707528 733.5385464026632 L 844.4859729315675 735.922870981676 L 840.7353499982889 726.9481661056167 Z" fill-opacity="1"/><path fill="rgb(0,255,255)" stroke="none" paint-order="stroke fill markers" d=" M 835.0558352707528 733.5385464026632 L 844.4859729315675 735.922870981676 L 840.7353499982889 726.9481661056167 Z" fill-opacity="0.25"/><path fill="none" stroke="rgb(203,143,255)" paint-order="fill stroke markers" d=" M 555.2958658253478 516.6301932912901 L 655.2157271266134 577.5478782481955" stroke-opacity="0.9" stroke-linejoin="round" stroke-miterlimit="10" stroke-width="3" stroke-dasharray="6,3"/><path fill="rgb(255,255,255)" stroke="none" paint-order="stroke fill markers" d=" M 650.6459877457728 579.8565536240756 L 660.338710637537 580.6711841805059 L 655.1747813476228 572.4282275332363 Z" fill-opacity="1"/><path fill="rgb(203,143,255)" stroke="none" paint-order="stroke fill markers" d=" M 650.6459877457728 579.8565536240756 L 660.338710637537 580.6711841805059 L 655.1747813476228 572.4282275332363 Z" fill-opacity="0.9"/><path fill="none" stroke="rgb(0,255,255)" paint-order="fill stroke markers" d=" M 683.9753276913996 576.4902902731839 L 844.4721954339693 375.2167793033352" stroke-opacity="0.25" stroke-linejoin="round" stroke-miterlimit="10" stroke-width="2"/><path fill="rgb(255,255,255)" stroke="none" paint-order="stroke fill markers" d=" M 844.9430202565989 381.6035487516867 L 846.9660273568193 372.08935187163115 L 838.1408655926426 376.17946431948815 Z" fill-opacity="1"/><path fill="rgb(0,255,255)" stroke="none" paint-order="stroke fill markers" d=" M 844.9430202565989 381.6035487516867 L 846.9660273568193 372.08935187163115 L 838.1408655926426 376.17946431948815 Z" fill-opacity="0.25"/><path fill="none" stroke="rgb(0,255,255)" paint-order="fill stroke markers" d=" M 685.2563669305949 577.6292390965332 L 842.670734003851 418.6151325205002" stroke-opacity="0.25" stroke-linejoin="round" stroke-miterlimit="10" stroke-width="2"/><path fill="rgb(255,255,255)" stroke="none" paint-order="stroke fill markers" d=" M 842.4556018386188 425.01561829514907 L 845.4848257364997 415.7724422946335 L 836.2727505973587 418.89496877663805 Z" fill-opacity="1"/><path fill="rgb(0,255,255)" stroke="none" paint-order="stroke fill markers" d=" M 842.4556018386188 425.01561829514907 L 845.4848257364997 415.7724422946335 L 836.2727505973587 418.89496877663805 Z" fill-opacity="0.25"/><path fill="none" stroke="rgb(203,143,255)" paint-order="fill stroke markers" d=" M 553.0271451081479 494.37992293117395 L 1033.2378234650023 46.36996061574132" stroke-opacity="0.9" stroke-linejoin="round" stroke-miterlimit="10" stroke-width="3" stroke-dasharray="6,3"/><path fill="rgb(255,255,255)" stroke="none" paint-order="stroke fill markers" d=" M 1034.2310150032397 51.39251679445887 L 1037.6250056622393 42.276962647473454 L 1028.2961679492512 45.03110260846498 Z" fill-opacity="1"/><path fill="rgb(203,143,255)" stroke="none" paint-order="stroke fill markers" d=" M 1034.2310150032397 51.39251679445887 L 1037.6250056622393 42.276962647473454 L 1028.2961679492512 45.03110260846498 Z" fill-opacity="0.9"/><path fill="none" stroke="rgb(255,0,102)" paint-order="fill stroke markers" d=" M 79.4447463715879 369.0240299171535 L 182.3918421738333 435.44151107989245" stroke-opacity="0.7" stroke-linejoin="round" stroke-miterlimit="10" stroke-width="2"/><path fill="rgb(255,255,255)" stroke="none" paint-order="stroke fill markers" d=" M 176.08419604345323 436.5488052115041 L 185.75302876673027 437.61001855918084 L 180.80069981090546 429.23822437195315 Z" fill-opacity="1"/><path fill="rgb(255,0,102)" stroke="none" paint-order="stroke fill markers" d=" M 176.08419604345323 436.5488052115041 L 185.75302876673027 437.61001855918084 L 180.80069981090546 429.23822437195315 Z" fill-opacity="0.7"/><path fill="none" stroke="rgb(0,255,255)" paint-order="fill stroke markers" d=" M 686.4353293127865 496.9321012677643 L 841.012818153894 371.7829825922064" stroke-opacity="0.25" stroke-linejoin="round" stroke-miterlimit="10" stroke-width="2"/><path fill="rgb(255,255,255)" stroke="none" paint-order="stroke fill markers" d=" M 840.0971501360896 378.12128300171446 L 844.1216504820907 369.2660079091475 L 834.6227302004364 371.35957268788684 Z" fill-opacity="1"/><path fill="rgb(0,255,255)" stroke="none" paint-order="stroke fill markers" d=" M 840.0971501360896 378.12128300171446 L 844.1216504820907 369.2660079091475 L 834.6227302004364 371.35957268788684 Z" fill-opacity="0.25"/><path fill="none" stroke="rgb(203,143,255)" paint-order="fill stroke markers" d=" M 871.4773450757541 344.44021654387905 L 1033.3789510794584 179.95066926773703" stroke-opacity="0.9" stroke-linejoin="round" stroke-miterlimit="10" stroke-width="3" stroke-dasharray="6,3"/><path fill="rgb(255,255,255)" stroke="none" paint-order="stroke fill markers" d=" M 1034.585166016193 184.92636474941577 L 1037.5878197526758 175.67452328196805 L 1028.3847543368279 178.82350517325034 Z" fill-opacity="1"/><path fill="rgb(203,143,255)" stroke="none" paint-order="stroke fill markers" d=" M 1034.585166016193 184.92636474941577 L 1037.5878197526758 175.67452328196805 L 1028.3847543368279 178.82350517325034 Z" fill-opacity="0.9"/><path fill="none" stroke="rgb(255,0,102)" paint-order="fill stroke markers" d=" M 81.2273378841688 410.26204447876415 L 179.32801301158483 441.90742355212416" stroke-opacity="0.7" stroke-linejoin="round" stroke-miterlimit="10" stroke-width="2"/><path fill="rgb(255,255,255)" stroke="none" paint-order="stroke fill markers" d=" M 173.51952041544624 444.60444297374556 L 183.13484748262704 443.1354346718152 L 176.19044460077424 436.3245779992288 Z" fill-opacity="1"/><path fill="rgb(255,0,102)" stroke="none" paint-order="stroke fill markers" d=" M 173.51952041544624 444.60444297374556 L 183.13484748262704 443.1354346718152 L 176.19044460077424 436.3245779992288 Z" fill-opacity="0.7"/><path fill="none" stroke="rgb(0,255,136)" paint-order="fill stroke markers" d=" M 1075.6820464274233 27.88637296715881 L 1178.2601358305403 32.079816873575545" stroke-opacity="0.25" stroke-linejoin="round" stroke-miterlimit="10" stroke-width="2"/><path fill="rgb(255,255,255)" stroke="none" paint-order="stroke fill markers" d=" M 1173.3863764929188 36.23420851603633 L 1182.2567975830816 32.24320241691843 L 1173.7417400496897 27.541469204258988 Z" fill-opacity="1"/><path fill="rgb(0,255,136)" stroke="none" paint-order="stroke fill markers" d=" M 1173.3863764929188 36.23420851603633 L 1182.2567975830816 32.24320241691843 L 1173.7417400496897 27.541469204258988 Z" fill-opacity="0.25"/><path fill="none" stroke="rgb(203,143,255)" paint-order="fill stroke markers" d=" M 870.0785131107923 388.1962774597607 L 1033.728662047367 184.26140515964306" stroke-opacity="0.9" stroke-linejoin="round" stroke-miterlimit="10" stroke-width="3" stroke-dasharray="6,3"/><path fill="rgb(255,255,255)" stroke="none" paint-order="stroke fill markers" d=" M 1035.4315246230915 189.08973396453996 L 1037.483855488705 179.5818194709168 L 1028.6461253744383 183.6447034745998 Z" fill-opacity="1"/><path fill="rgb(203,143,255)" stroke="none" paint-order="stroke fill markers" d=" M 1035.4315246230915 189.08973396453996 L 1037.483855488705 179.5818194709168 L 1028.6461253744383 183.6447034745998 Z" fill-opacity="0.9"/><path fill="none" stroke="rgb(0,255,255)" paint-order="fill stroke markers" d=" M 687.9260171265859 499.12179925426886 L 838.9165384157386 413.7037197986844" stroke-opacity="0.25" stroke-linejoin="round" stroke-miterlimit="10" stroke-width="2"/><path fill="rgb(255,255,255)" stroke="none" paint-order="stroke fill markers" d=" M 836.9676567125497 419.8040771740334 L 842.3980426973851 411.7341696122516 L 832.6838850570584 412.2318053614524 Z" fill-opacity="1"/><path fill="rgb(0,255,255)" stroke="none" paint-order="stroke fill markers" d=" M 836.9676567125497 419.8040771740334 L 842.3980426973851 411.7341696122516 L 832.6838850570584 412.2318053614524 Z" fill-opacity="0.25"/><path fill="none" stroke="rgb(203,143,255)" paint-order="fill stroke markers" d=" M 864.3278514381653 730.4419207310517 L 1044.2445237484694 188.39117909028937" stroke-opacity="0.9" stroke-linejoin="round" stroke-miterlimit="10" stroke-width="3" stroke-dasharray="6,3"/><path fill="rgb(255,255,255)" stroke="none" paint-order="stroke fill markers" d=" M 1047.5224937991115 192.32404221365044 L 1046.1346377284149 182.69666689495477 L 1039.2654511158762 189.58337694272944 Z" fill-opacity="1"/><path fill="rgb(203,143,255)" stroke="none" paint-order="stroke fill markers" d=" M 1047.5224937991115 192.32404221365044 L 1046.1346377284149 182.69666689495477 L 1039.2654511158762 189.58337694272944 Z" fill-opacity="0.9"/><path fill="none" stroke="rgb(255,0,102)" paint-order="fill stroke markers" d=" M 81.2273378841688 490.4379555212359 L 179.32801301158483 458.7925764478759" stroke-opacity="0.7" stroke-linejoin="round" stroke-miterlimit="10" stroke-width="2"/><path fill="rgb(255,255,255)" stroke="none" paint-order="stroke fill markers" d=" M 176.19044460077424 464.37542200077127 L 183.13484748262704 457.56456532818487 L 173.51952041544624 456.0955570262545 Z" fill-opacity="1"/><path fill="rgb(255,0,102)" stroke="none" paint-order="stroke fill markers" d=" M 176.19044460077424 464.37542200077127 L 183.13484748262704 457.56456532818487 L 173.51952041544624 456.0955570262545 Z" fill-opacity="0.7"/><path fill="none" stroke="rgb(255,0,102)" paint-order="fill stroke markers" d=" M 79.4447463715879 531.6759700828466 L 182.3918421738333 465.2584889201076" stroke-opacity="0.7" stroke-linejoin="round" stroke-miterlimit="10" stroke-width="2"/><path fill="rgb(255,255,255)" stroke="none" paint-order="stroke fill markers" d=" M 180.80069981090546 471.4617756280469 L 185.75302876673027 463.0899814408192 L 176.08419604345323 464.15119478849596 Z" fill-opacity="1"/><path fill="rgb(255,0,102)" stroke="none" paint-order="stroke fill markers" d=" M 180.80069981090546 471.4617756280469 L 185.75302876673027 463.0899814408192 L 176.08419604345323 464.15119478849596 Z" fill-opacity="0.7"/><path fill="none" stroke="rgb(255,102,0)" paint-order="fill stroke markers" d=" M 228.9999503044776 450.39832894664164 L 375.000052867577 450.69858622697706" stroke-opacity="0.7" stroke-linejoin="round" stroke-miterlimit="10" stroke-width="2"/><path fill="rgb(255,255,255)" stroke="none" paint-order="stroke fill markers" d=" M 370.2911168101755 455.03891123869033 L 379.00004440876467 450.7068124306607 L 370.30900880318745 446.33892963660713 Z" fill-opacity="1"/><path fill="rgb(255,102,0)" stroke="none" paint-order="stroke fill markers" d=" M 370.2911168101755 455.03891123869033 L 379.00004440876467 450.7068124306607 L 370.30900880318745 446.33892963660713 Z" fill-opacity="0.7"/><path fill="none" stroke="rgb(255,153,119)" paint-order="fill stroke markers" d=" M 420.88526877368577 448.55784392642613 L 834.1338530973667 405.18251541916953" stroke-opacity="0.9" stroke-linejoin="round" stroke-miterlimit="10" stroke-width="3" stroke-dasharray="6,3"/><path fill="rgb(255,255,255)" stroke="none" paint-order="stroke fill markers" d=" M 831.9026937274188 409.79059830317823 L 840.1010727469911 404.55618511243415 L 830.9945147826525 401.1381298112227 Z" fill-opacity="1"/><path fill="rgb(255,153,119)" stroke="none" paint-order="stroke fill markers" d=" M 831.9026937274188 409.79059830317823 L 840.1010727469911 404.55618511243415 L 830.9945147826525 401.1381298112227 Z" fill-opacity="0.9"/><path fill="none" stroke="rgb(255,153,119)" paint-order="fill stroke markers" d=" M 420.57980211477945 446.5700783600025 L 834.4902308660907 362.5015752466637" stroke-opacity="0.9" stroke-linejoin="round" stroke-miterlimit="10" stroke-width="3" stroke-dasharray="6,3"/><path fill="rgb(255,255,255)" stroke="none" paint-order="stroke fill markers" d=" M 832.7100972196184 367.30195275272484 L 840.3701743274562 361.30731192095016 L 830.9784153973338 358.7760347337448 Z" fill-opacity="1"/><path fill="rgb(255,153,119)" stroke="none" paint-order="stroke fill markers" d=" M 832.7100972196184 367.30195275272484 L 840.3701743274562 361.30731192095016 L 830.9784153973338 358.7760347337448 Z" fill-opacity="0.9"/><path fill="none" stroke="rgb(0,255,136)" paint-order="fill stroke markers" d=" M 1067.404642208451 148.41960630716613 L 1191.9762091888015 50.0942499799083" stroke-opacity="0.7" stroke-linejoin="round" stroke-miterlimit="10" stroke-width="2"/><path fill="rgb(255,255,255)" stroke="none" paint-order="stroke fill markers" d=" M 1190.98206774389 56.42071682859324 L 1195.115992970123 47.61599297012302 L 1185.5918587476071 49.59168710421879 Z" fill-opacity="1"/><path fill="rgb(0,255,136)" stroke="none" paint-order="stroke fill markers" d=" M 1190.98206774389 56.42071682859324 L 1195.115992970123 47.61599297012302 L 1185.5918587476071 49.59168710421879 Z" fill-opacity="0.7"/><path fill="none" stroke="rgb(255,153,119)" paint-order="fill stroke markers" d=" M 417.6209132963623 462.17380911089134 L 837.9422678209107 734.67222270396" stroke-opacity="0.9" stroke-linejoin="round" stroke-miterlimit="10" stroke-width="3" stroke-dasharray="6,3"/><path fill="rgb(255,255,255)" stroke="none" paint-order="stroke fill markers" d=" M 833.3103613669795 736.8534935725204 L 842.9768144770142 737.9361681642147 L 838.0430822843488 729.5534009211704 Z" fill-opacity="1"/><path fill="rgb(255,153,119)" stroke="none" paint-order="stroke fill markers" d=" M 833.3103613669795 736.8534935725204 L 842.9768144770142 737.9361681642147 L 838.0430822843488 729.5534009211704 Z" fill-opacity="0.9"/><path fill="rgb(239,68,68)" stroke="rgb(0,0,0)" paint-order="fill stroke markers" d=" M 420 450.75 L 419.93834667466257 452.3191819145569 L 419.7537668119028 453.87868930080464 L 419.44739840795353 455.4189072771181 L 419.0211303259031 456.930339887499 L 418.47759065022575 458.4036686473018 L 417.82013048376734 459.82980999479093 L 417.0528032870818 461.19997129431897 L 416.180339887499 462.5057050458495 L 415.20811931200063 463.73896096660366 L 414.14213562373095 464.89213562373095 L 412.98896096660366 465.95811931200063 L 411.7557050458495 466.930339887499 L 410.44997129431897 467.8028032870818 L 409.07980999479093 468.57013048376734 L 407.6536686473018 469.22759065022575 L 406.180339887499 469.7711303259031 L 404.66890727711814 470.19739840795353 L 403.12868930080464 470.5037668119028 L 401.5691819145569 470.68834667466257 L 400 470.75 L 398.4308180854431 470.68834667466257 L 396.87131069919536 470.5037668119028 L 395.3310927228819 470.19739840795353 L 393.819660112501 469.7711303259031 L 392.3463313526982 469.22759065022575 L 390.92019000520907 468.57013048376734 L 389.55002870568103 467.8028032870819 L 388.2442949541505 466.930339887499 L 387.01103903339634 465.95811931200063 L 385.85786437626905 464.89213562373095 L 384.79188068799937 463.73896096660366 L 383.8196601125011 462.5057050458495 L 382.9471967129182 461.19997129431897 L 382.17986951623266 459.82980999479093 L 381.52240934977425 458.4036686473018 L 380.9788696740969 456.930339887499 L 380.55260159204647 455.41890727711814 L 380.2462331880972 453.87868930080464 L 380.06165332533743 452.3191819145569 L 380 450.75 L 380.06165332533743 449.1808180854431 L 380.2462331880972 447.62131069919536 L 380.55260159204647 446.0810927228819 L 380.9788696740969 444.5696601125011 L 381.52240934977425 443.0963313526982 L 382.17986951623266 441.67019000520907 L 382.9471967129181 440.30002870568103 L 383.819660112501 438.9942949541505 L 384.79188068799937 437.76103903339634 L 385.85786437626905 436.60786437626905 L 387.01103903339634 435.54188068799937 L 388.2442949541505 434.5696601125011 L 389.55002870568103 433.6971967129181 L 390.92019000520907 432.92986951623266 L 392.3463313526982 432.27240934977425 L 393.8196601125011 431.7288696740969 L 395.3310927228819 431.30260159204647 L 396.8713106991954 430.9962331880972 L 398.43081808544315 430.81165332533743 L 400.00000000000006 430.75 L 401.56918191455696 430.81165332533743 L 403.1286893008047 430.9962331880973 L 404.6689072771182 431.30260159204647 L 406.18033988749903 431.728869674097 L 407.6536686473019 432.2724093497743 L 409.07980999479105 432.9298695162327 L 410.4499712943191 433.69719671291824 L 411.7557050458496 434.56966011250114 L 412.98896096660377 435.5418806879995 L 414.14213562373106 436.60786437626916 L 415.20811931200075 437.76103903339646 L 416.18033988749903 438.9942949541507 L 417.05280328708193 440.3000287056812 L 417.82013048376746 441.67019000520924 L 418.4775906502258 443.09633135269837 L 419.02113032590313 444.56966011250125 L 419.4473984079536 446.0810927228821 L 419.7537668119028 447.6213106991956 L 419.93834667466257 449.1808180854433 Z" fill-opacity="1" stroke-opacity="1" stroke-miterlimit="10" stroke-width="2"/><text fill="none" stroke="rgb(0,0,0)" font-family="Helvetica Neue, Helvetica, sans-serif" font-size="10px" font-style="normal" font-weight="normal" text-decoration="normal" x="400" y="430.75" text-anchor="middle" dominant-baseline="text-after-edge" stroke-opacity="1" stroke-linejoin="round" stroke-miterlimit="10" stroke-width="4">host_alpine_9eb953fb</text><text fill="rgb(255,255,255)" stroke="none" font-family="Helvetica Neue, Helvetica, sans-serif" font-size="10px" font-style="normal" font-weight="normal" text-decoration="normal" x="400" y="430.75" text-anchor="middle" dominant-baseline="text-after-edge" fill-opacity="1">host_alpine_9eb953fb</text><path fill="rgb(0,255,136)" stroke="rgb(0,204,102)" paint-order="fill stroke markers" d=" M 1213 63.5 L 1243 33.5 L 1213 3.5 L 1183 33.5 Z" fill-opacity="1" stroke-opacity="1" stroke-miterlimit="10" stroke-width="4"/><text fill="none" stroke="rgb(0,0,0)" font-family="Helvetica Neue, Helvetica, sans-serif" font-size="14px" font-style="normal" font-weight="bold" text-decoration="normal" x="1213" y="3.5" text-anchor="middle" dominant-baseline="text-after-edge" stroke-opacity="1" stroke-linejoin="round" stroke-miterlimit="10" stroke-width="6">INSIDE NETWORK</text><text fill="rgb(255,255,255)" stroke="none" font-family="Helvetica Neue, Helvetica, sans-serif" font-size="14px" font-style="normal" font-weight="bold" text-decoration="normal" x="1213" y="3.5" text-anchor="middle" dominant-baseline="text-after-edge" fill-opacity="1">INSIDE NETWORK</text><path fill="rgb(255,0,102)" stroke="rgb(0,0,0)" paint-order="fill stroke markers" d=" M 228 450.35 L 227.93064000899537 452.11532965387653 L 227.7229876633906 453.86977546340523 L 227.37832320894773 455.6025206867579 L 226.89877161664094 457.3028823734363 L 226.28728948150396 458.96037722821455 L 225.5476467942383 460.56478624413984 L 224.68440369796707 462.10621770610885 L 223.70288237343632 463.5751681765807 L 222.6091342260007 464.96258108742916 L 221.40990257669733 466.25990257669736 L 220.11258108742913 467.45913422600074 L 218.72516817658064 468.5528823734363 L 217.25621770610886 469.5344036979671 L 215.71478624413982 470.3976467942383 L 214.11037722821453 471.13728948150396 L 212.45288237343632 471.74877161664097 L 210.75252068675786 472.22832320894776 L 209.01977546340518 472.5729876633906 L 207.2653296538765 472.7806400089954 L 205.5 472.85 L 203.7346703461235 472.7806400089954 L 201.98022453659482 472.5729876633906 L 200.24747931324214 472.22832320894776 L 198.54711762656368 471.74877161664097 L 196.88962277178547 471.13728948150396 L 195.2852137558602 470.3976467942383 L 193.74378229389114 469.5344036979671 L 192.27483182341936 468.5528823734363 L 190.88741891257087 467.45913422600074 L 189.5900974233027 466.25990257669736 L 188.3908657739993 464.96258108742916 L 187.29711762656368 463.5751681765807 L 186.31559630203293 462.10621770610885 L 185.4523532057617 460.56478624413984 L 184.71271051849604 458.96037722821455 L 184.10122838335906 457.3028823734363 L 183.62167679105227 455.6025206867579 L 183.2770123366094 453.86977546340523 L 183.06935999100463 452.11532965387653 L 183 450.35 L 183.06935999100463 448.5846703461235 L 183.2770123366094 446.8302245365948 L 183.62167679105227 445.09747931324216 L 184.10122838335906 443.3971176265637 L 184.71271051849604 441.7396227717855 L 185.4523532057617 440.1352137558602 L 186.31559630203293 438.5937822938912 L 187.29711762656368 437.12483182341936 L 188.3908657739993 435.7374189125709 L 189.59009742330267 434.4400974233027 L 190.88741891257087 433.24086577399936 L 192.27483182341936 432.1471176265637 L 193.74378229389114 431.16559630203295 L 195.2852137558602 430.30235320576173 L 196.8896227717855 429.56271051849603 L 198.5471176265637 428.9512283833591 L 200.24747931324217 428.4716767910523 L 201.98022453659485 428.1270123366094 L 203.73467034612355 427.9193599910046 L 205.50000000000009 427.85 L 207.2653296538766 427.9193599910046 L 209.0197754634053 428.1270123366094 L 210.75252068675798 428.47167679105235 L 212.45288237343644 428.9512283833591 L 214.11037722821465 429.56271051849615 L 215.71478624413993 430.3023532057618 L 217.25621770610897 431.165596302033 L 218.72516817658078 432.1471176265638 L 220.11258108742925 433.2408657739994 L 221.40990257669745 434.4400974233028 L 222.6091342260008 435.737418912571 L 223.70288237343644 437.1248318234195 L 224.68440369796718 438.59378229389137 L 225.54764679423837 440.13521375586043 L 226.28728948150405 441.7396227717857 L 226.89877161664103 443.39711762656395 L 227.3783232089478 445.0974793132424 L 227.72298766339065 446.8302245365951 L 227.9306400089954 448.5846703461238 Z" fill-opacity="1" stroke-opacity="1" stroke-miterlimit="10" stroke-width="2"/><text fill="none" stroke="rgb(0,0,0)" font-family="Helvetica Neue, Helvetica, sans-serif" font-size="10px" font-style="normal" font-weight="normal" text-decoration="normal" x="205.5" y="427.85" text-anchor="middle" dominant-baseline="text-after-edge" stroke-opacity="1" stroke-linejoin="round" stroke-miterlimit="10" stroke-width="4">Hacker</text><text fill="rgb(255,255,255)" stroke="none" font-family="Helvetica Neue, Helvetica, sans-serif" font-size="10px" font-style="normal" font-weight="normal" text-decoration="normal" x="205.5" y="427.85" text-anchor="middle" dominant-baseline="text-after-edge" fill-opacity="1">Hacker</text><path fill="rgb(99,102,241)" stroke="rgb(255,0,102)" paint-order="fill stroke markers" d=" M 81 540.35 L 80.95376000599691 541.5268864359177 L 80.81532510892707 542.6965169756035 L 80.58554880596515 543.8516804578386 L 80.2658477444273 544.9852549156242 L 79.8581929876693 546.0902514854764 L 79.36509786282552 547.1598574960932 L 78.78960246531139 548.1874784707393 L 78.13525491562422 549.1667787843871 L 77.40608948400046 550.0917207249528 L 76.60660171779821 550.9566017177982 L 75.74172072495276 551.7560894840005 L 74.8167787843871 552.4852549156242 L 73.83747847073923 553.1396024653114 L 72.8098574960932 553.7150978628256 L 71.74025148547635 554.2081929876693 L 70.63525491562422 554.6158477444274 L 69.50168045783859 554.9355488059651 L 68.34651697560346 555.165325108927 L 67.17688643591768 555.303760005997 L 66 555.35 L 64.82311356408232 555.303760005997 L 63.653483024396536 555.165325108927 L 62.49831954216142 554.9355488059651 L 61.36474508437579 554.6158477444274 L 60.25974851452365 554.2081929876693 L 59.1901425039068 553.7150978628256 L 58.16252152926077 553.1396024653114 L 57.1832212156129 552.4852549156242 L 56.258279275047244 551.7560894840005 L 55.39339828220179 550.9566017177982 L 54.59391051599954 550.0917207249528 L 53.86474508437579 549.1667787843871 L 53.21039753468862 548.1874784707393 L 52.634902137174485 547.1598574960932 L 52.1418070123307 546.0902514854764 L 51.734152255572695 544.9852549156242 L 51.414451194034854 543.8516804578386 L 51.18467489107294 542.6965169756035 L 51.04623999400308 541.5268864359177 L 51 540.35 L 51.04623999400308 539.1731135640823 L 51.18467489107293 538.0034830243966 L 51.414451194034854 536.8483195421614 L 51.734152255572695 535.7147450843759 L 52.141807012330695 534.6097485145236 L 52.63490213717448 533.5401425039068 L 53.21039753468862 532.5125215292608 L 53.864745084375784 531.5332212156129 L 54.59391051599953 530.6082792750473 L 55.39339828220179 529.7433982822018 L 56.25827927504724 528.9439105159996 L 57.1832212156129 528.2147450843759 L 58.16252152926077 527.5603975346886 L 59.190142503906806 526.9849021371745 L 60.25974851452367 526.4918070123307 L 61.36474508437581 526.0841522555727 L 62.49831954216145 525.7644511940349 L 63.65348302439657 525.534674891073 L 64.82311356408238 525.396239994003 L 66.00000000000006 525.35 L 67.17688643591774 525.396239994003 L 68.34651697560352 525.534674891073 L 69.50168045783865 525.7644511940349 L 70.63525491562429 526.0841522555727 L 71.74025148547642 526.4918070123308 L 72.80985749609329 526.9849021371746 L 73.83747847073931 527.5603975346887 L 74.81677878438718 528.2147450843759 L 75.74172072495284 528.9439105159996 L 76.6066017177983 529.7433982822018 L 77.40608948400055 530.6082792750474 L 78.13525491562429 531.533221215613 L 78.78960246531145 532.5125215292609 L 79.36509786282558 533.540142503907 L 79.85819298766936 534.6097485145239 L 80.26584774442735 535.714745084376 L 80.58554880596519 536.8483195421616 L 80.8153251089271 538.0034830243967 L 80.95376000599694 539.1731135640825 Z" fill-opacity="1" stroke-opacity="1" stroke-miterlimit="10" stroke-width="2"/><text fill="none" stroke="rgb(0,0,0)" font-family="Helvetica Neue, Helvetica, sans-serif" font-size="10px" font-style="normal" font-weight="normal" text-decoration="normal" x="66" y="525.35" text-anchor="middle" dominant-baseline="text-after-edge" stroke-opacity="1" stroke-linejoin="round" stroke-miterlimit="10" stroke-width="4">AV:N</text><text fill="rgb(255,255,255)" stroke="none" font-family="Helvetica Neue, Helvetica, sans-serif" font-size="10px" font-style="normal" font-weight="normal" text-decoration="normal" x="66" y="525.35" text-anchor="middle" dominant-baseline="text-after-edge" fill-opacity="1">AV:N</text><path fill="rgb(99,102,241)" stroke="rgb(255,0,102)" paint-order="fill stroke markers" d=" M 81 495.35 L 80.95376000599691 496.5268864359177 L 80.81532510892707 497.69651697560346 L 80.58554880596515 498.8516804578386 L 80.2658477444273 499.98525491562424 L 79.8581929876693 501.09025148547636 L 79.36509786282552 502.1598574960932 L 78.78960246531139 503.1874784707393 L 78.13525491562422 504.16677878438713 L 77.40608948400046 505.0917207249528 L 76.60660171779821 505.9566017177982 L 75.74172072495276 506.7560894840005 L 74.8167787843871 507.48525491562424 L 73.83747847073923 508.1396024653114 L 72.8098574960932 508.71509786282553 L 71.74025148547635 509.20819298766935 L 70.63525491562422 509.6158477444273 L 69.50168045783859 509.9355488059652 L 68.34651697560346 510.1653251089271 L 67.17688643591768 510.30376000599693 L 66 510.35 L 64.82311356408232 510.30376000599693 L 63.653483024396536 510.1653251089271 L 62.49831954216142 509.9355488059652 L 61.36474508437579 509.61584774442736 L 60.25974851452365 509.20819298766935 L 59.1901425039068 508.71509786282553 L 58.16252152926077 508.1396024653114 L 57.1832212156129 507.48525491562424 L 56.258279275047244 506.7560894840005 L 55.39339828220179 505.9566017177982 L 54.59391051599954 505.0917207249528 L 53.86474508437579 504.16677878438713 L 53.21039753468862 503.1874784707393 L 52.634902137174485 502.15985749609325 L 52.1418070123307 501.09025148547636 L 51.734152255572695 499.98525491562424 L 51.414451194034854 498.8516804578386 L 51.18467489107294 497.6965169756035 L 51.04623999400308 496.5268864359177 L 51 495.35 L 51.04623999400308 494.17311356408237 L 51.18467489107293 493.0034830243966 L 51.414451194034854 491.84831954216145 L 51.734152255572695 490.7147450843758 L 52.141807012330695 489.6097485145237 L 52.63490213717448 488.54014250390685 L 53.21039753468862 487.51252152926077 L 53.864745084375784 486.5332212156129 L 54.59391051599953 485.60827927504727 L 55.39339828220179 484.74339828220184 L 56.25827927504724 483.94391051599956 L 57.1832212156129 483.2147450843758 L 58.16252152926077 482.56039753468866 L 59.190142503906806 481.9849021371745 L 60.25974851452367 481.4918070123307 L 61.36474508437581 481.0841522555727 L 62.49831954216145 480.76445119403485 L 63.65348302439657 480.53467489107294 L 64.82311356408238 480.3962399940031 L 66.00000000000006 480.35 L 67.17688643591774 480.3962399940031 L 68.34651697560352 480.53467489107294 L 69.50168045783865 480.7644511940349 L 70.63525491562429 481.08415225557275 L 71.74025148547642 481.49180701233075 L 72.80985749609329 481.9849021371746 L 73.83747847073931 482.5603975346887 L 74.81677878438718 483.21474508437586 L 75.74172072495284 483.9439105159996 L 76.6066017177983 484.7433982822019 L 77.40608948400055 485.6082792750474 L 78.13525491562429 486.533221215613 L 78.78960246531145 487.5125215292609 L 79.36509786282558 488.54014250390696 L 79.85819298766936 489.6097485145238 L 80.26584774442735 490.714745084376 L 80.58554880596519 491.8483195421616 L 80.8153251089271 493.0034830243967 L 80.95376000599694 494.17311356408254 Z" fill-opacity="1" stroke-opacity="1" stroke-miterlimit="10" stroke-width="2"/><text fill="none" stroke="rgb(0,0,0)" font-family="Helvetica Neue, Helvetica, sans-serif" font-size="10px" font-style="normal" font-weight="normal" text-decoration="normal" x="66" y="480.35" text-anchor="middle" dominant-baseline="text-after-edge" stroke-opacity="1" stroke-linejoin="round" stroke-miterlimit="10" stroke-width="4">PR:N</text><text fill="rgb(255,255,255)" stroke="none" font-family="Helvetica Neue, Helvetica, sans-serif" font-size="10px" font-style="normal" font-weight="normal" text-decoration="normal" x="66" y="480.35" text-anchor="middle" dominant-baseline="text-after-edge" fill-opacity="1">PR:N</text><path fill="rgb(234,179,8)" stroke="rgb(255,102,102)" paint-order="fill stroke markers" d=" M 557 507 L 556.9460533403297 508.3730341752373 L 556.7845459604149 509.73760313820407 L 556.5164736069594 511.08529386747836 L 556.1434890351652 512.4077974015615 L 555.6678918189475 513.6969600663891 L 555.0926141732964 514.9448337454421 L 554.4212028761966 516.1437248825291 L 553.6577974015615 517.2862419151182 L 552.8071043980005 518.3653408457782 L 551.8743686707646 519.3743686707646 L 550.8653408457782 520.3071043980005 L 549.7862419151182 521.1577974015615 L 548.6437248825291 521.9212028761966 L 547.4448337454421 522.5926141732964 L 546.1969600663891 523.1678918189475 L 544.9077974015615 523.6434890351652 L 543.5852938674783 524.0164736069594 L 542.237603138204 524.2845459604149 L 540.8730341752373 524.4460533403297 L 539.5 524.5 L 538.1269658247627 524.4460533403297 L 536.762396861796 524.2845459604149 L 535.4147061325217 524.0164736069594 L 534.0922025984385 523.6434890351652 L 532.8030399336109 523.1678918189475 L 531.5551662545579 522.5926141732964 L 530.3562751174709 521.9212028761966 L 529.2137580848818 521.1577974015615 L 528.1346591542218 520.3071043980005 L 527.1256313292354 519.3743686707646 L 526.1928956019995 518.3653408457782 L 525.3422025984385 517.2862419151182 L 524.5787971238034 516.1437248825291 L 523.9073858267036 514.9448337454421 L 523.3321081810525 513.6969600663891 L 522.8565109648348 512.4077974015615 L 522.4835263930406 511.08529386747836 L 522.2154540395851 509.73760313820407 L 522.0539466596703 508.3730341752373 L 522 507 L 522.0539466596703 505.6269658247627 L 522.2154540395851 504.26239686179593 L 522.4835263930406 502.91470613252164 L 522.8565109648348 501.5922025984384 L 523.3321081810525 500.30303993361093 L 523.9073858267036 499.05516625455795 L 524.5787971238034 497.8562751174709 L 525.3422025984385 496.7137580848817 L 526.1928956019995 495.63465915422177 L 527.1256313292354 494.62563132923543 L 528.1346591542218 493.69289560199945 L 529.2137580848818 492.8422025984384 L 530.3562751174709 492.0787971238034 L 531.5551662545579 491.40738582670355 L 532.803039933611 490.8321081810525 L 534.0922025984385 490.3565109648348 L 535.4147061325217 489.9835263930407 L 536.762396861796 489.7154540395851 L 538.1269658247628 489.55394665967026 L 539.5000000000001 489.5 L 540.8730341752373 489.55394665967026 L 542.2376031382041 489.7154540395851 L 543.5852938674784 489.9835263930407 L 544.9077974015617 490.35651096483485 L 546.1969600663891 490.8321081810525 L 547.4448337454421 491.4073858267036 L 548.6437248825292 492.07879712380344 L 549.7862419151184 492.8422025984385 L 550.8653408457783 493.69289560199957 L 551.8743686707646 494.6256313292355 L 552.8071043980007 495.6346591542219 L 553.6577974015617 496.7137580848818 L 554.4212028761967 497.85627511747106 L 555.0926141732965 499.05516625455806 L 555.6678918189476 500.3030399336111 L 556.1434890351652 501.5922025984386 L 556.5164736069594 502.9147061325218 L 556.7845459604149 504.26239686179616 L 556.9460533403297 505.6269658247629 Z" fill-opacity="0.25" stroke-opacity="0.25" stroke-miterlimit="10" stroke-width="2" stroke-dasharray="4,2"/><text fill="none" stroke="rgb(0,0,0)" font-family="Helvetica Neue, Helvetica, sans-serif" font-size="10px" font-style="normal" font-weight="normal" text-decoration="normal" x="539.5" y="489.5" text-anchor="middle" dominant-baseline="text-after-edge" stroke-opacity="0.25" stroke-linejoin="round" stroke-miterlimit="10" stroke-width="4">CVE-2026-28387</text><text fill="rgb(255,255,255)" stroke="none" font-family="Helvetica Neue, Helvetica, sans-serif" font-size="10px" font-style="normal" font-weight="normal" text-decoration="normal" x="539.5" y="489.5" text-anchor="middle" dominant-baseline="text-after-edge" fill-opacity="0.25">CVE-2026-28387</text><path fill="rgb(99,102,241)" stroke="rgb(255,0,102)" paint-order="fill stroke markers" d=" M 81 405.35 L 80.95376000599691 406.5268864359177 L 80.81532510892707 407.69651697560346 L 80.58554880596515 408.8516804578386 L 80.2658477444273 409.98525491562424 L 79.8581929876693 411.09025148547636 L 79.36509786282552 412.1598574960932 L 78.78960246531139 413.1874784707393 L 78.13525491562422 414.16677878438713 L 77.40608948400046 415.0917207249528 L 76.60660171779821 415.9566017177982 L 75.74172072495276 416.7560894840005 L 74.8167787843871 417.48525491562424 L 73.83747847073923 418.1396024653114 L 72.8098574960932 418.71509786282553 L 71.74025148547635 419.20819298766935 L 70.63525491562422 419.6158477444273 L 69.50168045783859 419.9355488059652 L 68.34651697560346 420.1653251089271 L 67.17688643591768 420.30376000599693 L 66 420.35 L 64.82311356408232 420.30376000599693 L 63.653483024396536 420.1653251089271 L 62.49831954216142 419.9355488059652 L 61.36474508437579 419.61584774442736 L 60.25974851452365 419.20819298766935 L 59.1901425039068 418.71509786282553 L 58.16252152926077 418.1396024653114 L 57.1832212156129 417.48525491562424 L 56.258279275047244 416.7560894840005 L 55.39339828220179 415.9566017177982 L 54.59391051599954 415.0917207249528 L 53.86474508437579 414.16677878438713 L 53.21039753468862 413.1874784707393 L 52.634902137174485 412.15985749609325 L 52.1418070123307 411.09025148547636 L 51.734152255572695 409.98525491562424 L 51.414451194034854 408.8516804578386 L 51.18467489107294 407.6965169756035 L 51.04623999400308 406.5268864359177 L 51 405.35 L 51.04623999400308 404.17311356408237 L 51.18467489107293 403.0034830243966 L 51.414451194034854 401.84831954216145 L 51.734152255572695 400.7147450843758 L 52.141807012330695 399.6097485145237 L 52.63490213717448 398.54014250390685 L 53.21039753468862 397.51252152926077 L 53.864745084375784 396.5332212156129 L 54.59391051599953 395.60827927504727 L 55.39339828220179 394.74339828220184 L 56.25827927504724 393.94391051599956 L 57.1832212156129 393.2147450843758 L 58.16252152926077 392.56039753468866 L 59.190142503906806 391.9849021371745 L 60.25974851452367 391.4918070123307 L 61.36474508437581 391.0841522555727 L 62.49831954216145 390.76445119403485 L 63.65348302439657 390.53467489107294 L 64.82311356408238 390.3962399940031 L 66.00000000000006 390.35 L 67.17688643591774 390.3962399940031 L 68.34651697560352 390.53467489107294 L 69.50168045783865 390.7644511940349 L 70.63525491562429 391.08415225557275 L 71.74025148547642 391.49180701233075 L 72.80985749609329 391.9849021371746 L 73.83747847073931 392.5603975346887 L 74.81677878438718 393.21474508437586 L 75.74172072495284 393.9439105159996 L 76.6066017177983 394.7433982822019 L 77.40608948400055 395.6082792750474 L 78.13525491562429 396.533221215613 L 78.78960246531145 397.5125215292609 L 79.36509786282558 398.54014250390696 L 79.85819298766936 399.6097485145238 L 80.26584774442735 400.714745084376 L 80.58554880596519 401.8483195421616 L 80.8153251089271 403.0034830243967 L 80.95376000599694 404.17311356408254 Z" fill-opacity="1" stroke-opacity="1" stroke-miterlimit="10" stroke-width="2"/><text fill="none" stroke="rgb(0,0,0)" font-family="Helvetica Neue, Helvetica, sans-serif" font-size="10px" font-style="normal" font-weight="normal" text-decoration="normal" x="66" y="390.35" text-anchor="middle" dominant-baseline="text-after-edge" stroke-opacity="1" stroke-linejoin="round" stroke-miterlimit="10" stroke-width="4">AC:L</text><text fill="rgb(255,255,255)" stroke="none" font-family="Helvetica Neue, Helvetica, sans-serif" font-size="10px" font-style="normal" font-weight="normal" text-decoration="normal" x="66" y="390.35" text-anchor="middle" dominant-baseline="text-after-edge" fill-opacity="1">AC:L</text><path fill="rgb(99,102,241)" stroke="rgb(255,102,102)" paint-order="fill stroke markers" d=" M 689 589 L 688.953760005997 590.1768864359177 L 688.815325108927 591.3465169756034 L 688.5855488059651 592.5016804578386 L 688.2658477444273 593.6352549156242 L 687.8581929876693 594.7402514854764 L 687.3650978628256 595.8098574960932 L 686.7896024653114 596.8374784707393 L 686.1352549156242 597.8167787843871 L 685.4060894840005 598.7417207249528 L 684.6066017177982 599.6066017177982 L 683.7417207249528 600.4060894840005 L 682.8167787843871 601.1352549156242 L 681.8374784707393 601.7896024653114 L 680.8098574960932 602.3650978628256 L 679.7402514854764 602.8581929876693 L 678.6352549156242 603.2658477444273 L 677.5016804578386 603.5855488059651 L 676.3465169756034 603.815325108927 L 675.1768864359177 603.953760005997 L 674 604 L 672.8231135640823 603.953760005997 L 671.6534830243966 603.815325108927 L 670.4983195421614 603.5855488059651 L 669.3647450843758 603.2658477444273 L 668.2597485145236 602.8581929876693 L 667.1901425039068 602.3650978628256 L 666.1625215292607 601.7896024653114 L 665.1832212156129 601.1352549156242 L 664.2582792750472 600.4060894840005 L 663.3933982822018 599.6066017177982 L 662.5939105159995 598.7417207249528 L 661.8647450843758 597.8167787843871 L 661.2103975346886 596.8374784707393 L 660.6349021371744 595.8098574960932 L 660.1418070123307 594.7402514854764 L 659.7341522555727 593.6352549156242 L 659.4144511940349 592.5016804578386 L 659.184674891073 591.3465169756034 L 659.046239994003 590.1768864359177 L 659 589 L 659.046239994003 587.8231135640823 L 659.184674891073 586.6534830243966 L 659.4144511940349 585.4983195421614 L 659.7341522555727 584.3647450843758 L 660.1418070123307 583.2597485145236 L 660.6349021371744 582.1901425039068 L 661.2103975346886 581.1625215292607 L 661.8647450843758 580.1832212156129 L 662.5939105159995 579.2582792750472 L 663.3933982822018 578.3933982822018 L 664.2582792750472 577.5939105159996 L 665.1832212156129 576.8647450843758 L 666.1625215292607 576.2103975346886 L 667.1901425039068 575.6349021371744 L 668.2597485145237 575.1418070123307 L 669.3647450843758 574.7341522555727 L 670.4983195421614 574.4144511940349 L 671.6534830243966 574.184674891073 L 672.8231135640824 574.046239994003 L 674 574 L 675.1768864359177 574.046239994003 L 676.3465169756035 574.184674891073 L 677.5016804578387 574.4144511940349 L 678.6352549156243 574.7341522555727 L 679.7402514854764 575.1418070123307 L 680.8098574960933 575.6349021371745 L 681.8374784707394 576.2103975346887 L 682.8167787843872 576.8647450843758 L 683.7417207249529 577.5939105159996 L 684.6066017177983 578.3933982822018 L 685.4060894840005 579.2582792750474 L 686.1352549156243 580.183221215613 L 686.7896024653114 581.1625215292609 L 687.3650978628256 582.1901425039069 L 687.8581929876693 583.2597485145238 L 688.2658477444273 584.364745084376 L 688.5855488059652 585.4983195421615 L 688.8153251089271 586.6534830243967 L 688.953760005997 587.8231135640825 Z" fill-opacity="0.25" stroke-opacity="0.25" stroke-miterlimit="10" stroke-width="2" stroke-dasharray="4,2"/><text fill="none" stroke="rgb(0,0,0)" font-family="Helvetica Neue, Helvetica, sans-serif" font-size="10px" font-style="normal" font-weight="normal" text-decoration="normal" x="674" y="574" text-anchor="middle" dominant-baseline="text-after-edge" stroke-opacity="0.25" stroke-linejoin="round" stroke-miterlimit="10" stroke-width="4">AV:L</text><text fill="rgb(255,255,255)" stroke="none" font-family="Helvetica Neue, Helvetica, sans-serif" font-size="10px" font-style="normal" font-weight="normal" text-decoration="normal" x="674" y="574" text-anchor="middle" dominant-baseline="text-after-edge" fill-opacity="0.25">AV:L</text><path fill="rgb(99,102,241)" stroke="rgb(255,102,102)" paint-order="fill stroke markers" d=" M 689 507 L 688.953760005997 508.17688643591765 L 688.815325108927 509.34651697560344 L 688.5855488059651 510.5016804578386 L 688.2658477444273 511.6352549156242 L 687.8581929876693 512.7402514854764 L 687.3650978628256 513.8098574960932 L 686.7896024653114 514.8374784707393 L 686.1352549156242 515.8167787843871 L 685.4060894840005 516.7417207249528 L 684.6066017177982 517.6066017177982 L 683.7417207249528 518.4060894840005 L 682.8167787843871 519.1352549156242 L 681.8374784707393 519.7896024653114 L 680.8098574960932 520.3650978628256 L 679.7402514854764 520.8581929876693 L 678.6352549156242 521.2658477444273 L 677.5016804578386 521.5855488059651 L 676.3465169756034 521.815325108927 L 675.1768864359177 521.953760005997 L 674 522 L 672.8231135640823 521.953760005997 L 671.6534830243966 521.815325108927 L 670.4983195421614 521.5855488059651 L 669.3647450843758 521.2658477444273 L 668.2597485145236 520.8581929876693 L 667.1901425039068 520.3650978628256 L 666.1625215292607 519.7896024653114 L 665.1832212156129 519.1352549156242 L 664.2582792750472 518.4060894840005 L 663.3933982822018 517.6066017177982 L 662.5939105159995 516.7417207249528 L 661.8647450843758 515.8167787843871 L 661.2103975346886 514.8374784707393 L 660.6349021371744 513.8098574960932 L 660.1418070123307 512.7402514854764 L 659.7341522555727 511.6352549156242 L 659.4144511940349 510.5016804578386 L 659.184674891073 509.3465169756035 L 659.046239994003 508.17688643591765 L 659 507 L 659.046239994003 505.82311356408235 L 659.184674891073 504.65348302439656 L 659.4144511940349 503.4983195421614 L 659.7341522555727 502.3647450843758 L 660.1418070123307 501.25974851452366 L 660.6349021371744 500.1901425039068 L 661.2103975346886 499.16252152926074 L 661.8647450843758 498.1832212156129 L 662.5939105159995 497.25827927504724 L 663.3933982822018 496.3933982822018 L 664.2582792750472 495.59391051599954 L 665.1832212156129 494.8647450843758 L 666.1625215292607 494.21039753468864 L 667.1901425039068 493.6349021371745 L 668.2597485145237 493.1418070123307 L 669.3647450843758 492.73415225557267 L 670.4983195421614 492.4144511940348 L 671.6534830243966 492.1846748910729 L 672.8231135640824 492.0462399940031 L 674 492 L 675.1768864359177 492.0462399940031 L 676.3465169756035 492.1846748910729 L 677.5016804578387 492.4144511940349 L 678.6352549156243 492.7341522555727 L 679.7402514854764 493.14180701233073 L 680.8098574960933 493.63490213717455 L 681.8374784707394 494.2103975346887 L 682.8167787843872 494.86474508437584 L 683.7417207249529 495.5939105159996 L 684.6066017177983 496.3933982822019 L 685.4060894840005 497.25827927504736 L 686.1352549156243 498.183221215613 L 686.7896024653114 499.16252152926086 L 687.3650978628256 500.19014250390694 L 687.8581929876693 501.2597485145238 L 688.2658477444273 502.36474508437595 L 688.5855488059652 503.4983195421616 L 688.8153251089271 504.6534830243967 L 688.953760005997 505.8231135640825 Z" fill-opacity="0.25" stroke-opacity="0.25" stroke-miterlimit="10" stroke-width="2" stroke-dasharray="4,2"/><text fill="none" stroke="rgb(0,0,0)" font-family="Helvetica Neue, Helvetica, sans-serif" font-size="10px" font-style="normal" font-weight="normal" text-decoration="normal" x="674" y="492" text-anchor="middle" dominant-baseline="text-after-edge" stroke-opacity="0.25" stroke-linejoin="round" stroke-miterlimit="10" stroke-width="4">PR:H</text><text fill="rgb(255,255,255)" stroke="none" font-family="Helvetica Neue, Helvetica, sans-serif" font-size="10px" font-style="normal" font-weight="normal" text-decoration="normal" x="674" y="492" text-anchor="middle" dominant-baseline="text-after-edge" fill-opacity="0.25">PR:H</text><path fill="rgb(255,0,0)" stroke="rgb(255,215,0)" paint-order="fill stroke markers" d=" M 1054 2 L 1044.7343318831333 16.229919354882053 L 1029 21.09830056250525 L 1039.0078340584334 34.76125558861554 L 1038.5491502812527 51.99999999999999 L 1054 46.21425123801531 L 1069.4508497187473 52 L 1068.9921659415666 34.76125558861555 L 1079 21.098300562505262 L 1063.2656681168667 16.229919354882057 Z" fill-opacity="0.25" stroke-opacity="0.25" stroke-miterlimit="10" stroke-width="4" stroke-dasharray="4,2"/><text fill="none" stroke="rgb(0,0,0)" font-family="Helvetica Neue, Helvetica, sans-serif" font-size="10px" font-style="normal" font-weight="bold" text-decoration="normal" x="1054" y="2" text-anchor="middle" dominant-baseline="text-after-edge" stroke-opacity="0.25" stroke-linejoin="round" stroke-miterlimit="10" stroke-width="4">EXPLOITED</text><text fill="rgb(255,255,255)" stroke="none" font-family="Helvetica Neue, Helvetica, sans-serif" font-size="10px" font-style="normal" font-weight="bold" text-decoration="normal" x="1054" y="2" text-anchor="middle" dominant-baseline="text-after-edge" fill-opacity="0.25">EXPLOITED</text><path fill="rgb(234,179,8)" stroke="rgb(255,102,102)" paint-order="fill stroke markers" d=" M 876 748 L 875.9460533403297 749.3730341752373 L 875.7845459604149 750.737603138204 L 875.5164736069594 752.0852938674783 L 875.1434890351652 753.4077974015615 L 874.6678918189475 754.6969600663891 L 874.0926141732964 755.9448337454421 L 873.4212028761966 757.1437248825291 L 872.6577974015615 758.2862419151182 L 871.8071043980005 759.3653408457782 L 870.8743686707646 760.3743686707646 L 869.8653408457782 761.3071043980005 L 868.7862419151182 762.1577974015615 L 867.6437248825291 762.9212028761966 L 866.4448337454421 763.5926141732964 L 865.1969600663891 764.1678918189475 L 863.9077974015615 764.6434890351652 L 862.5852938674783 765.0164736069594 L 861.237603138204 765.2845459604149 L 859.8730341752373 765.4460533403297 L 858.5 765.5 L 857.1269658247627 765.4460533403297 L 855.762396861796 765.2845459604149 L 854.4147061325217 765.0164736069594 L 853.0922025984385 764.6434890351652 L 851.8030399336109 764.1678918189475 L 850.5551662545579 763.5926141732964 L 849.3562751174709 762.9212028761966 L 848.2137580848818 762.1577974015615 L 847.1346591542218 761.3071043980005 L 846.1256313292354 760.3743686707646 L 845.1928956019995 759.3653408457782 L 844.3422025984385 758.2862419151182 L 843.5787971238034 757.1437248825291 L 842.9073858267036 755.9448337454421 L 842.3321081810525 754.6969600663891 L 841.8565109648348 753.4077974015615 L 841.4835263930406 752.0852938674783 L 841.2154540395851 750.737603138204 L 841.0539466596703 749.3730341752373 L 841 748 L 841.0539466596703 746.6269658247627 L 841.2154540395851 745.262396861796 L 841.4835263930406 743.9147061325217 L 841.8565109648348 742.5922025984385 L 842.3321081810525 741.3030399336109 L 842.9073858267036 740.0551662545579 L 843.5787971238034 738.8562751174709 L 844.3422025984385 737.7137580848818 L 845.1928956019995 736.6346591542218 L 846.1256313292354 735.6256313292354 L 847.1346591542218 734.6928956019995 L 848.2137580848818 733.8422025984385 L 849.3562751174709 733.0787971238034 L 850.5551662545579 732.4073858267036 L 851.803039933611 731.8321081810525 L 853.0922025984385 731.3565109648348 L 854.4147061325217 730.9835263930406 L 855.762396861796 730.7154540395851 L 857.1269658247628 730.5539466596703 L 858.5000000000001 730.5 L 859.8730341752373 730.5539466596703 L 861.2376031382041 730.7154540395851 L 862.5852938674784 730.9835263930406 L 863.9077974015617 731.3565109648348 L 865.1969600663891 731.8321081810525 L 866.4448337454421 732.4073858267036 L 867.6437248825292 733.0787971238035 L 868.7862419151184 733.8422025984385 L 869.8653408457783 734.6928956019996 L 870.8743686707646 735.6256313292355 L 871.8071043980007 736.6346591542219 L 872.6577974015617 737.7137580848819 L 873.4212028761967 738.856275117471 L 874.0926141732965 740.0551662545581 L 874.6678918189476 741.3030399336111 L 875.1434890351652 742.5922025984386 L 875.5164736069594 743.9147061325218 L 875.7845459604149 745.2623968617961 L 875.9460533403297 746.6269658247629 Z" fill-opacity="0.25" stroke-opacity="0.25" stroke-miterlimit="10" stroke-width="2" stroke-dasharray="4,2"/><text fill="none" stroke="rgb(0,0,0)" font-family="Helvetica Neue, Helvetica, sans-serif" font-size="10px" font-style="normal" font-weight="normal" text-decoration="normal" x="858.5" y="730.5" text-anchor="middle" dominant-baseline="text-after-edge" stroke-opacity="0.25" stroke-linejoin="round" stroke-miterlimit="10" stroke-width="4">CVE-2026-31789</text><text fill="rgb(255,255,255)" stroke="none" font-family="Helvetica Neue, Helvetica, sans-serif" font-size="10px" font-style="normal" font-weight="normal" text-decoration="normal" x="858.5" y="730.5" text-anchor="middle" dominant-baseline="text-after-edge" fill-opacity="0.25">CVE-2026-31789</text><path fill="rgb(99,102,241)" stroke="rgb(255,0,102)" paint-order="fill stroke markers" d=" M 81 360.35 L 80.95376000599691 361.5268864359177 L 80.81532510892707 362.69651697560346 L 80.58554880596515 363.8516804578386 L 80.2658477444273 364.98525491562424 L 79.8581929876693 366.09025148547636 L 79.36509786282552 367.1598574960932 L 78.78960246531139 368.1874784707393 L 78.13525491562422 369.16677878438713 L 77.40608948400046 370.0917207249528 L 76.60660171779821 370.9566017177982 L 75.74172072495276 371.7560894840005 L 74.8167787843871 372.48525491562424 L 73.83747847073923 373.1396024653114 L 72.8098574960932 373.71509786282553 L 71.74025148547635 374.20819298766935 L 70.63525491562422 374.6158477444273 L 69.50168045783859 374.9355488059652 L 68.34651697560346 375.1653251089271 L 67.17688643591768 375.30376000599693 L 66 375.35 L 64.82311356408232 375.30376000599693 L 63.653483024396536 375.1653251089271 L 62.49831954216142 374.9355488059652 L 61.36474508437579 374.61584774442736 L 60.25974851452365 374.20819298766935 L 59.1901425039068 373.71509786282553 L 58.16252152926077 373.1396024653114 L 57.1832212156129 372.48525491562424 L 56.258279275047244 371.7560894840005 L 55.39339828220179 370.9566017177982 L 54.59391051599954 370.0917207249528 L 53.86474508437579 369.16677878438713 L 53.21039753468862 368.1874784707393 L 52.634902137174485 367.15985749609325 L 52.1418070123307 366.09025148547636 L 51.734152255572695 364.98525491562424 L 51.414451194034854 363.8516804578386 L 51.18467489107294 362.6965169756035 L 51.04623999400308 361.5268864359177 L 51 360.35 L 51.04623999400308 359.17311356408237 L 51.18467489107293 358.0034830243966 L 51.414451194034854 356.84831954216145 L 51.734152255572695 355.7147450843758 L 52.141807012330695 354.6097485145237 L 52.63490213717448 353.54014250390685 L 53.21039753468862 352.51252152926077 L 53.864745084375784 351.5332212156129 L 54.59391051599953 350.60827927504727 L 55.39339828220179 349.74339828220184 L 56.25827927504724 348.94391051599956 L 57.1832212156129 348.2147450843758 L 58.16252152926077 347.56039753468866 L 59.190142503906806 346.9849021371745 L 60.25974851452367 346.4918070123307 L 61.36474508437581 346.0841522555727 L 62.49831954216145 345.76445119403485 L 63.65348302439657 345.53467489107294 L 64.82311356408238 345.3962399940031 L 66.00000000000006 345.35 L 67.17688643591774 345.3962399940031 L 68.34651697560352 345.53467489107294 L 69.50168045783865 345.7644511940349 L 70.63525491562429 346.08415225557275 L 71.74025148547642 346.49180701233075 L 72.80985749609329 346.9849021371746 L 73.83747847073931 347.5603975346887 L 74.81677878438718 348.21474508437586 L 75.74172072495284 348.9439105159996 L 76.6066017177983 349.7433982822019 L 77.40608948400055 350.6082792750474 L 78.13525491562429 351.533221215613 L 78.78960246531145 352.5125215292609 L 79.36509786282558 353.54014250390696 L 79.85819298766936 354.6097485145238 L 80.26584774442735 355.714745084376 L 80.58554880596519 356.8483195421616 L 80.8153251089271 358.0034830243967 L 80.95376000599694 359.17311356408254 Z" fill-opacity="1" stroke-opacity="1" stroke-miterlimit="10" stroke-width="2"/><text fill="none" stroke="rgb(0,0,0)" font-family="Helvetica Neue, Helvetica, sans-serif" font-size="10px" font-style="normal" font-weight="normal" text-decoration="normal" x="66" y="345.35" text-anchor="middle" dominant-baseline="text-after-edge" stroke-opacity="1" stroke-linejoin="round" stroke-miterlimit="10" stroke-width="4">UI:N</text><text fill="rgb(255,255,255)" stroke="none" font-family="Helvetica Neue, Helvetica, sans-serif" font-size="10px" font-style="normal" font-weight="normal" text-decoration="normal" x="66" y="345.35" text-anchor="middle" dominant-baseline="text-after-edge" fill-opacity="1">UI:N</text><path fill="rgb(255,0,0)" stroke="rgb(255,215,0)" paint-order="fill stroke markers" d=" M 1054 134 L 1044.7343318831333 148.22991935488204 L 1029 153.09830056250524 L 1039.0078340584334 166.76125558861554 L 1038.5491502812527 184 L 1054 178.21425123801532 L 1069.4508497187473 184 L 1068.9921659415666 166.76125558861554 L 1079 153.09830056250527 L 1063.2656681168667 148.22991935488207 Z" fill-opacity="1" stroke-opacity="1" stroke-miterlimit="10" stroke-width="4"/><text fill="none" stroke="rgb(0,0,0)" font-family="Helvetica Neue, Helvetica, sans-serif" font-size="10px" font-style="normal" font-weight="bold" text-decoration="normal" x="1054" y="134" text-anchor="middle" dominant-baseline="text-after-edge" stroke-opacity="1" stroke-linejoin="round" stroke-miterlimit="10" stroke-width="4">EXPLOITED</text><text fill="rgb(255,255,255)" stroke="none" font-family="Helvetica Neue, Helvetica, sans-serif" font-size="10px" font-style="normal" font-weight="bold" text-decoration="normal" x="1054" y="134" text-anchor="middle" dominant-baseline="text-after-edge" fill-opacity="1">EXPLOITED</text><path fill="rgb(234,179,8)" stroke="rgb(0,0,0)" paint-order="fill stroke markers" d=" M 876 357.625 L 875.9460533403297 358.9980341752373 L 875.7845459604149 360.36260313820407 L 875.5164736069594 361.71029386747836 L 875.1434890351652 363.0327974015616 L 874.6678918189475 364.32196006638907 L 874.0926141732964 365.56983374544205 L 873.4212028761966 366.7687248825291 L 872.6577974015615 367.9112419151183 L 871.8071043980005 368.99034084577823 L 870.8743686707646 369.99936867076457 L 869.8653408457782 370.93210439800055 L 868.7862419151182 371.7827974015616 L 867.6437248825291 372.5462028761966 L 866.4448337454421 373.21761417329645 L 865.1969600663891 373.7928918189475 L 863.9077974015615 374.2684890351652 L 862.5852938674783 374.6414736069593 L 861.237603138204 374.9095459604149 L 859.8730341752373 375.07105334032974 L 858.5 375.125 L 857.1269658247627 375.07105334032974 L 855.762396861796 374.9095459604149 L 854.4147061325217 374.6414736069593 L 853.0922025984385 374.2684890351652 L 851.8030399336109 373.7928918189475 L 850.5551662545579 373.21761417329645 L 849.3562751174709 372.5462028761966 L 848.2137580848818 371.7827974015616 L 847.1346591542218 370.93210439800055 L 846.1256313292354 369.99936867076457 L 845.1928956019995 368.99034084577823 L 844.3422025984385 367.9112419151183 L 843.5787971238034 366.7687248825291 L 842.9073858267036 365.56983374544205 L 842.3321081810525 364.32196006638907 L 841.8565109648348 363.0327974015616 L 841.4835263930406 361.71029386747836 L 841.2154540395851 360.36260313820407 L 841.0539466596703 358.9980341752373 L 841 357.625 L 841.0539466596703 356.2519658247627 L 841.2154540395851 354.88739686179593 L 841.4835263930406 353.53970613252164 L 841.8565109648348 352.2172025984384 L 842.3321081810525 350.92803993361093 L 842.9073858267036 349.68016625455795 L 843.5787971238034 348.4812751174709 L 844.3422025984385 347.3387580848817 L 845.1928956019995 346.25965915422177 L 846.1256313292354 345.25063132923543 L 847.1346591542218 344.31789560199945 L 848.2137580848818 343.4672025984384 L 849.3562751174709 342.7037971238034 L 850.5551662545579 342.03238582670355 L 851.803039933611 341.4571081810525 L 853.0922025984385 340.9815109648348 L 854.4147061325217 340.6085263930407 L 855.762396861796 340.3404540395851 L 857.1269658247628 340.17894665967026 L 858.5000000000001 340.125 L 859.8730341752373 340.17894665967026 L 861.2376031382041 340.3404540395851 L 862.5852938674784 340.6085263930407 L 863.9077974015617 340.98151096483485 L 865.1969600663891 341.4571081810525 L 866.4448337454421 342.0323858267036 L 867.6437248825292 342.70379712380344 L 868.7862419151184 343.4672025984385 L 869.8653408457783 344.31789560199957 L 870.8743686707646 345.2506313292355 L 871.8071043980007 346.2596591542219 L 872.6577974015617 347.3387580848818 L 873.4212028761967 348.48127511747106 L 874.0926141732965 349.68016625455806 L 874.6678918189476 350.9280399336111 L 875.1434890351652 352.2172025984386 L 875.5164736069594 353.5397061325218 L 875.7845459604149 354.88739686179616 L 875.9460533403297 356.2519658247629 Z" fill-opacity="1" stroke-opacity="1" stroke-miterlimit="10" stroke-width="2"/><text fill="none" stroke="rgb(0,0,0)" font-family="Helvetica Neue, Helvetica, sans-serif" font-size="10px" font-style="normal" font-weight="normal" text-decoration="normal" x="858.5" y="340.125" text-anchor="middle" dominant-baseline="text-after-edge" stroke-opacity="1" stroke-linejoin="round" stroke-miterlimit="10" stroke-width="4">CVE-2026-22184</text><text fill="rgb(255,255,255)" stroke="none" font-family="Helvetica Neue, Helvetica, sans-serif" font-size="10px" font-style="normal" font-weight="normal" text-decoration="normal" x="858.5" y="340.125" text-anchor="middle" dominant-baseline="text-after-edge" fill-opacity="1">CVE-2026-22184</text><path fill="rgb(234,179,8)" stroke="rgb(0,0,0)" paint-order="fill stroke markers" d=" M 876 402.625 L 875.9460533403297 403.9980341752373 L 875.7845459604149 405.36260313820407 L 875.5164736069594 406.71029386747836 L 875.1434890351652 408.0327974015616 L 874.6678918189475 409.32196006638907 L 874.0926141732964 410.56983374544205 L 873.4212028761966 411.7687248825291 L 872.6577974015615 412.9112419151183 L 871.8071043980005 413.99034084577823 L 870.8743686707646 414.99936867076457 L 869.8653408457782 415.93210439800055 L 868.7862419151182 416.7827974015616 L 867.6437248825291 417.5462028761966 L 866.4448337454421 418.21761417329645 L 865.1969600663891 418.7928918189475 L 863.9077974015615 419.2684890351652 L 862.5852938674783 419.6414736069593 L 861.237603138204 419.9095459604149 L 859.8730341752373 420.07105334032974 L 858.5 420.125 L 857.1269658247627 420.07105334032974 L 855.762396861796 419.9095459604149 L 854.4147061325217 419.6414736069593 L 853.0922025984385 419.2684890351652 L 851.8030399336109 418.7928918189475 L 850.5551662545579 418.21761417329645 L 849.3562751174709 417.5462028761966 L 848.2137580848818 416.7827974015616 L 847.1346591542218 415.93210439800055 L 846.1256313292354 414.99936867076457 L 845.1928956019995 413.99034084577823 L 844.3422025984385 412.9112419151183 L 843.5787971238034 411.7687248825291 L 842.9073858267036 410.56983374544205 L 842.3321081810525 409.32196006638907 L 841.8565109648348 408.0327974015616 L 841.4835263930406 406.71029386747836 L 841.2154540395851 405.36260313820407 L 841.0539466596703 403.9980341752373 L 841 402.625 L 841.0539466596703 401.2519658247627 L 841.2154540395851 399.88739686179593 L 841.4835263930406 398.53970613252164 L 841.8565109648348 397.2172025984384 L 842.3321081810525 395.92803993361093 L 842.9073858267036 394.68016625455795 L 843.5787971238034 393.4812751174709 L 844.3422025984385 392.3387580848817 L 845.1928956019995 391.25965915422177 L 846.1256313292354 390.25063132923543 L 847.1346591542218 389.31789560199945 L 848.2137580848818 388.4672025984384 L 849.3562751174709 387.7037971238034 L 850.5551662545579 387.03238582670355 L 851.803039933611 386.4571081810525 L 853.0922025984385 385.9815109648348 L 854.4147061325217 385.6085263930407 L 855.762396861796 385.3404540395851 L 857.1269658247628 385.17894665967026 L 858.5000000000001 385.125 L 859.8730341752373 385.17894665967026 L 861.2376031382041 385.3404540395851 L 862.5852938674784 385.6085263930407 L 863.9077974015617 385.98151096483485 L 865.1969600663891 386.4571081810525 L 866.4448337454421 387.0323858267036 L 867.6437248825292 387.70379712380344 L 868.7862419151184 388.4672025984385 L 869.8653408457783 389.31789560199957 L 870.8743686707646 390.2506313292355 L 871.8071043980007 391.2596591542219 L 872.6577974015617 392.3387580848818 L 873.4212028761967 393.48127511747106 L 874.0926141732965 394.68016625455806 L 874.6678918189476 395.9280399336111 L 875.1434890351652 397.2172025984386 L 875.5164736069594 398.5397061325218 L 875.7845459604149 399.88739686179616 L 875.9460533403297 401.2519658247629 Z" fill-opacity="1" stroke-opacity="1" stroke-miterlimit="10" stroke-width="2"/><text fill="none" stroke="rgb(0,0,0)" font-family="Helvetica Neue, Helvetica, sans-serif" font-size="10px" font-style="normal" font-weight="normal" text-decoration="normal" x="858.5" y="385.125" text-anchor="middle" dominant-baseline="text-after-edge" stroke-opacity="1" stroke-linejoin="round" stroke-miterlimit="10" stroke-width="4">CVE-2026-27171</text><text fill="rgb(255,255,255)" stroke="none" font-family="Helvetica Neue, Helvetica, sans-serif" font-size="10px" font-style="normal" font-weight="normal" text-decoration="normal" x="858.5" y="385.125" text-anchor="middle" dominant-baseline="text-after-edge" fill-opacity="1">CVE-2026-27171</text><g transform="scale(0.5,0.5) translate(64,-33)"/></g></g></svg>