<svg version="1.1" xmlns="http://www.w3.org/2000/svg" xmlns:xlink="http://www.w3.org/1999/xlink" width="2158.4000321626663" height="1068.800015926361"><defs/><g><rect fill="#ffffff" stroke="none" x="0" y="0" width="2158.4000321626663" height="1068.800015926361"/><g transform="translate(-51.20000076293945,-250.40000373125076) scale(1.600000023841858,1.600000023841858)"><path fill="rgb(100,100,100)" stroke="rgb(136,136,136)" paint-order="fill stroke markers" d=" M 139.5 217.5 L 237 217.5 L 237 217.5 A 8 8 0 0 1 245 225.5 L 245 465.5 L 245 465.5 A 8 8 0 0 1 237 473.5 L 42 473.5 L 42 473.5 A 8 8 0 0 1 34 465.5 L 34 225.5 L 34 225.5 A 8 8 0 0 1 42 217.5 L 139.5 217.5 Z" fill-opacity="1" stroke-opacity="1" stroke-miterlimit="10" stroke-width="2" stroke-dasharray="4,2"/><text fill="none" stroke="rgb(0,0,0)" font-family="Helvetica Neue, Helvetica, sans-serif" font-size="12px" font-style="normal" font-weight="normal" text-decoration="normal" x="139.5" y="217.5" text-anchor="middle" dominant-baseline="text-after-edge" stroke-opacity="1" stroke-linejoin="round" stroke-miterlimit="10" stroke-width="4">Initial State</text><text fill="rgb(204,204,204)" stroke="none" font-family="Helvetica Neue, Helvetica, sans-serif" font-size="12px" font-style="normal" font-weight="normal" text-decoration="normal" x="139.5" y="217.5" text-anchor="middle" dominant-baseline="text-after-edge" fill-opacity="1">Initial State</text><path fill="rgb(234,179,8)" stroke="rgb(234,179,8)" paint-order="fill stroke markers" d=" M 589.5 417.5 L 636.5 417.5 L 636.5 417.5 A 8 8 0 0 1 644.5 425.5 L 644.5 529.5 L 644.5 529.5 A 8 8 0 0 1 636.5 537.5 L 542.5 537.5 L 542.5 537.5 A 8 8 0 0 1 534.5 529.5 L 534.5 425.5 L 534.5 425.5 A 8 8 0 0 1 542.5 417.5 L 589.5 417.5 Z" fill-opacity="1" stroke-opacity="1" stroke-miterlimit="10" stroke-width="2" stroke-dasharray="4,2"/><text fill="none" stroke="rgb(0,0,0)" font-family="Helvetica Neue, Helvetica, sans-serif" font-size="10px" font-style="normal" font-weight="normal" text-decoration="normal" x="589.5" y="417.5" text-anchor="middle" dominant-baseline="text-after-edge" stroke-opacity="1" stroke-linejoin="round" stroke-miterlimit="10" stroke-width="2">→ AV:L, EX:Y, PR:H (×2)</text><text fill="rgb(234,179,8)" stroke="none" font-family="Helvetica Neue, Helvetica, sans-serif" font-size="10px" font-style="normal" font-weight="normal" text-decoration="normal" x="589.5" y="417.5" text-anchor="middle" dominant-baseline="text-after-edge" fill-opacity="1">→ AV:L, EX:Y, PR:H (×2)</text><path fill="rgb(234,179,8)" stroke="rgb(234,179,8)" paint-order="fill stroke markers" d=" M 958.5 170.5 L 1005.5 170.5 L 1005.5 170.5 A 8 8 0 0 1 1013.5 178.5 L 1013.5 372.5 L 1013.5 372.5 A 8 8 0 0 1 1005.5 380.5 L 911.5 380.5 L 911.5 380.5 A 8 8 0 0 1 903.5 372.5 L 903.5 178.5 L 903.5 178.5 A 8 8 0 0 1 911.5 170.5 L 958.5 170.5 Z" fill-opacity="1" stroke-opacity="1" stroke-miterlimit="10" stroke-width="2" stroke-dasharray="4,2"/><text fill="none" stroke="rgb(0,0,0)" font-family="Helvetica Neue, Helvetica, sans-serif" font-size="10px" font-style="normal" font-weight="normal" text-decoration="normal" x="958.5" y="170.5" text-anchor="middle" dominant-baseline="text-after-edge" stroke-opacity="1" stroke-linejoin="round" stroke-miterlimit="10" stroke-width="2">→ EX:Y, PR:H (×4)</text><text fill="rgb(234,179,8)" stroke="none" font-family="Helvetica Neue, Helvetica, sans-serif" font-size="10px" font-style="normal" font-weight="normal" text-decoration="normal" x="958.5" y="170.5" text-anchor="middle" dominant-baseline="text-after-edge" fill-opacity="1">→ EX:Y, PR:H (×4)</text><path fill="none" stroke="rgb(0,255,255)" paint-order="fill stroke markers" d=" M 784.6746356637436 513.6685633969171 L 943.4887935978605 690.9895202230853" stroke-opacity="0.7" stroke-linejoin="round" stroke-miterlimit="10" stroke-width="2"/><path fill="rgb(255,255,255)" stroke="none" paint-order="stroke fill markers" d=" M 937.112759948099 690.3906087963212 L 946.1574525137964 693.9691610723146 L 943.5934787951726 684.5862756541607 Z" fill-opacity="1"/><path fill="rgb(0,255,255)" stroke="none" paint-order="stroke fill markers" d=" M 937.112759948099 690.3906087963212 L 946.1574525137964 693.9691610723146 L 943.5934787951726 684.5862756541607 Z" fill-opacity="0.7"/><path fill="none" stroke="rgb(203,143,255)" paint-order="fill stroke markers" d=" M 607.9910222303779 254.07627847059445 L 752.0106762665777 258.5646958728066" stroke-opacity="0.9" stroke-linejoin="round" stroke-miterlimit="10" stroke-width="3" stroke-dasharray="6,3"/><path fill="rgb(255,255,255)" stroke="none" paint-order="stroke fill markers" d=" M 749.1764832195989 262.82847937721414 L 758.007764557511 258.7515969984048 L 749.4474898517163 254.13270135536072 Z" fill-opacity="1"/><path fill="rgb(203,143,255)" stroke="none" paint-order="stroke fill markers" d=" M 749.1764832195989 262.82847937721414 L 758.007764557511 258.7515969984048 L 749.4474898517163 254.13270135536072 Z" fill-opacity="0.9"/><path fill="none" stroke="rgb(255,0,102)" paint-order="fill stroke markers" d=" M 79.4447463715879 270.17402991715346 L 182.3918421738333 336.5915110798924" stroke-opacity="0.7" stroke-linejoin="round" stroke-miterlimit="10" stroke-width="2"/><path fill="rgb(255,255,255)" stroke="none" paint-order="stroke fill markers" d=" M 176.08419604345323 337.69880521150407 L 185.75302876673027 338.7600185591808 L 180.80069981090546 330.38822437195313 Z" fill-opacity="1"/><path fill="rgb(255,0,102)" stroke="none" paint-order="stroke fill markers" d=" M 176.08419604345323 337.69880521150407 L 185.75302876673027 338.7600185591808 L 180.80069981090546 330.38822437195313 Z" fill-opacity="0.7"/><path fill="none" stroke="rgb(255,0,102)" paint-order="fill stroke markers" d=" M 81.2273378841688 311.41204447876413 L 179.32801301158483 343.05742355212413" stroke-opacity="0.7" stroke-linejoin="round" stroke-miterlimit="10" stroke-width="2"/><path fill="rgb(255,255,255)" stroke="none" paint-order="stroke fill markers" d=" M 173.51952041544624 345.75444297374554 L 183.13484748262704 344.28543467181515 L 176.19044460077424 337.47457799922876 Z" fill-opacity="1"/><path fill="rgb(255,0,102)" stroke="none" paint-order="stroke fill markers" d=" M 173.51952041544624 345.75444297374554 L 183.13484748262704 344.28543467181515 L 176.19044460077424 337.47457799922876 Z" fill-opacity="0.7"/><path fill="none" stroke="rgb(255,102,0)" paint-order="fill stroke markers" d=" M 229 351.5 L 375 351.5" stroke-opacity="0.7" stroke-linejoin="round" stroke-miterlimit="10" stroke-width="2"/><path fill="rgb(255,255,255)" stroke="none" paint-order="stroke fill markers" d=" M 370.3 355.85 L 379 351.5 L 370.3 347.15 Z" fill-opacity="1"/><path fill="rgb(255,102,0)" stroke="none" paint-order="stroke fill markers" d=" M 370.3 355.85 L 379 351.5 L 370.3 347.15 Z" fill-opacity="0.7"/><path fill="none" stroke="rgb(255,153,119)" paint-order="fill stroke markers" d=" M 417.70480686850635 362.79335263546176 L 937.8443919867426 694.5744219252946" stroke-opacity="0.9" stroke-linejoin="round" stroke-miterlimit="10" stroke-width="3" stroke-dasharray="6,3"/><path fill="rgb(255,255,255)" stroke="none" paint-order="stroke fill markers" d=" M 933.2287223434462 696.7898437234973 L 942.9029082348873 697.8010941068551 L 937.9073970067088 689.4549951636875 Z" fill-opacity="1"/><path fill="rgb(255,153,119)" stroke="none" paint-order="stroke fill markers" d=" M 933.2287223434462 696.7898437234973 L 942.9029082348873 697.8010941068551 L 937.9073970067088 689.4549951636875 Z" fill-opacity="0.9"/><path fill="none" stroke="rgb(255,153,119)" paint-order="fill stroke markers" d=" M 418.6532630058664 341.8534576539583 L 567.7378598264893 264.7542994037154" stroke-opacity="0.9" stroke-linejoin="round" stroke-miterlimit="10" stroke-width="3" stroke-dasharray="6,3"/><path fill="rgb(255,255,255)" stroke="none" paint-order="stroke fill markers" d=" M 567.3377954974151 269.85845932799305 L 573.0673635424511 261.99814444770345 L 563.3413708111977 262.1306789398484 Z" fill-opacity="1"/><path fill="rgb(255,153,119)" stroke="none" paint-order="stroke fill markers" d=" M 567.3377954974151 269.85845932799305 L 573.0673635424511 261.99814444770345 L 563.3413708111977 262.1306789398484 Z" fill-opacity="0.9"/><path fill="none" stroke="rgb(203,143,255)" paint-order="fill stroke markers" d=" M 966.945804527905 691.2904014059753 L 1138.0802084573272 357.7752714974849" stroke-opacity="0.9" stroke-linejoin="round" stroke-miterlimit="10" stroke-width="3" stroke-dasharray="6,3"/><path fill="rgb(255,255,255)" stroke="none" paint-order="stroke fill markers" d=" M 1140.7178074659037 362.16338857317425 L 1140.8193883042154 352.43702330482824 L 1132.9773475865516 358.1915777951865 Z" fill-opacity="1"/><path fill="rgb(203,143,255)" stroke="none" paint-order="stroke fill markers" d=" M 1140.7178074659037 362.16338857317425 L 1140.8193883042154 352.43702330482824 L 1132.9773475865516 358.1915777951865 Z" fill-opacity="0.9"/><path fill="none" stroke="rgb(255,0,102)" paint-order="fill stroke markers" d=" M 81.2273378841688 391.58795552123587 L 179.32801301158483 359.94257644787587" stroke-opacity="0.7" stroke-linejoin="round" stroke-miterlimit="10" stroke-width="2"/><path fill="rgb(255,255,255)" stroke="none" paint-order="stroke fill markers" d=" M 176.19044460077424 365.52542200077124 L 183.13484748262704 358.71456532818485 L 173.51952041544624 357.24555702625446 Z" fill-opacity="1"/><path fill="rgb(255,0,102)" stroke="none" paint-order="stroke fill markers" d=" M 176.19044460077424 365.52542200077124 L 183.13484748262704 358.71456532818485 L 173.51952041544624 357.24555702625446 Z" fill-opacity="0.7"/><path fill="none" stroke="rgb(255,0,102)" paint-order="fill stroke markers" d=" M 79.4447463715879 432.82597008284654 L 182.3918421738333 366.4084889201076" stroke-opacity="0.7" stroke-linejoin="round" stroke-miterlimit="10" stroke-width="2"/><path fill="rgb(255,255,255)" stroke="none" paint-order="stroke fill markers" d=" M 180.80069981090543 372.61177562804687 L 185.75302876673027 364.2399814408192 L 176.08419604345323 365.30119478849593 Z" fill-opacity="1"/><path fill="rgb(255,0,102)" stroke="none" paint-order="stroke fill markers" d=" M 180.80069981090543 372.61177562804687 L 185.75302876673027 364.2399814408192 L 176.08419604345323 365.30119478849593 Z" fill-opacity="0.7"/><path fill="none" stroke="rgb(203,143,255)" paint-order="fill stroke markers" d=" M 600.5352974080383 268.3483066750435 L 760.8769436228733 484.0925542242726" stroke-opacity="0.9" stroke-linejoin="round" stroke-miterlimit="10" stroke-width="3" stroke-dasharray="6,3"/><path fill="rgb(255,255,255)" stroke="none" paint-order="stroke fill markers" d=" M 755.775028107298 484.5202902081834 L 764.4559589984533 488.90822125401644 L 762.7577453004266 479.33071791359237 Z" fill-opacity="1"/><path fill="rgb(203,143,255)" stroke="none" paint-order="stroke fill markers" d=" M 755.775028107298 484.5202902081834 L 764.4559589984533 488.90822125401644 L 762.7577453004266 479.33071791359237 Z" fill-opacity="0.9"/><path fill="none" stroke="rgb(0,255,136)" paint-order="fill stroke markers" d=" M 1170.6737459149774 353.25496402522344 L 1298.5130666712082 556.4712427745151" stroke-opacity="0.7" stroke-linejoin="round" stroke-miterlimit="10" stroke-width="2"/><path fill="rgb(255,255,255)" stroke="none" paint-order="stroke fill markers" d=" M 1292.3283851428278 554.8092516817259 L 1300.6429872495446 559.8570127504554 L 1299.6924348404982 550.1766744238442 Z" fill-opacity="1"/><path fill="rgb(0,255,136)" stroke="none" paint-order="stroke fill markers" d=" M 1292.3283851428278 554.8092516817259 L 1300.6429872495446 559.8570127504554 L 1299.6924348404982 550.1766744238442 Z" fill-opacity="0.7"/><path fill="none" stroke="rgb(0,255,136)" paint-order="fill stroke markers" d=" M 1163.3085852727547 783.795830162341 L 1297.103919857324 601.1946502576145" stroke-opacity="0.25" stroke-linejoin="round" stroke-miterlimit="10" stroke-width="2"/><path fill="rgb(255,255,255)" stroke="none" paint-order="stroke fill markers" d=" M 1297.8349152916437 607.5568940186632 L 1299.468085106383 597.968085106383 L 1290.8171360877152 602.4148346019598 Z" fill-opacity="1"/><path fill="rgb(0,255,136)" stroke="none" paint-order="stroke fill markers" d=" M 1297.8349152916437 607.5568940186632 L 1299.468085106383 597.968085106383 L 1290.8171360877152 602.4148346019598 Z" fill-opacity="0.25"/><path fill="none" stroke="rgb(0,255,255)" paint-order="fill stroke markers" d=" M 645.5 509.1457041629761 L 1133.6762731850797 785.0150241736767" stroke-opacity="0.7" stroke-linejoin="round" stroke-miterlimit="10" stroke-width="2"/><path fill="rgb(255,255,255)" stroke="none" paint-order="stroke fill markers" d=" M 1127.4443078929687 786.4898491117368 L 1137.1586968708812 786.9829482760163 L 1131.7245428155572 778.9155775951186 Z" fill-opacity="1"/><path fill="rgb(0,255,255)" stroke="none" paint-order="stroke fill markers" d=" M 1127.4443078929687 786.4898491117368 L 1137.1586968708812 786.9829482760163 L 1131.7245428155572 778.9155775951186 Z" fill-opacity="0.7"/><path fill="none" stroke="rgb(0,255,255)" paint-order="fill stroke markers" d=" M 645.5 484.86043360433604 L 754.1705484681844 499.1436899748156" stroke-opacity="0.7" stroke-linejoin="round" stroke-miterlimit="10" stroke-width="2"/><path fill="rgb(255,255,255)" stroke="none" paint-order="stroke fill markers" d=" M 748.9437549277301 502.84411282706714 L 758.1364387745475 499.66495197985245 L 750.0774997886854 494.21830141072735 Z" fill-opacity="1"/><path fill="rgb(0,255,255)" stroke="none" paint-order="stroke fill markers" d=" M 748.9437549277301 502.84411282706714 L 758.1364387745475 499.66495197985245 L 750.0774997886854 494.21830141072735 Z" fill-opacity="0.7"/><path fill="none" stroke="rgb(0,255,255)" paint-order="fill stroke markers" d=" M 640.5546131704257 417.1061283227891 L 761.0882151384994 274.52369672640924" stroke-opacity="0.7" stroke-linejoin="round" stroke-miterlimit="10" stroke-width="2"/><path fill="rgb(255,255,255)" stroke="none" paint-order="stroke fill markers" d=" M 761.3759747340408 280.9213286644918 L 763.6705721107995 271.4689573811274 L 754.7319166580528 275.304702249739 Z" fill-opacity="1"/><path fill="rgb(0,255,255)" stroke="none" paint-order="stroke fill markers" d=" M 761.3759747340408 280.9213286644918 L 763.6705721107995 271.4689573811274 L 754.7319166580528 275.304702249739 Z" fill-opacity="0.7"/><path fill="none" stroke="rgb(0,255,255)" paint-order="fill stroke markers" d=" M 417.48724027332037 363.1273998651101 L 530.1690970907962 438.05042867250825" stroke-opacity="0.7" stroke-linejoin="round" stroke-miterlimit="10" stroke-width="2"/><path fill="rgb(255,255,255)" stroke="none" paint-order="stroke fill markers" d=" M 523.8467533432802 439.07046275931424 L 533.5 440.2651715039578 L 528.6638190016829 431.82574893179583 Z" fill-opacity="1"/><path fill="rgb(0,255,255)" stroke="none" paint-order="stroke fill markers" d=" M 523.8467533432802 439.07046275931424 L 533.5 440.2651715039578 L 528.6638190016829 431.82574893179583 Z" fill-opacity="0.7"/><path fill="none" stroke="rgb(0,255,255)" paint-order="fill stroke markers" d=" M 1014.5 290.18030690537086 L 1124.3627564749368 318.9806458789796" stroke-opacity="0.7" stroke-linejoin="round" stroke-miterlimit="10" stroke-width="2"/><path fill="rgb(255,255,255)" stroke="none" paint-order="stroke fill markers" d=" M 1118.7133060985566 321.99663832671837 L 1128.2320142784504 319.9949653799007 L 1120.9194510130599 313.5810026040762 Z" fill-opacity="1"/><path fill="rgb(0,255,255)" stroke="none" paint-order="stroke fill markers" d=" M 1118.7133060985566 321.99663832671837 L 1128.2320142784504 319.9949653799007 L 1120.9194510130599 313.5810026040762 Z" fill-opacity="0.7"/><path fill="none" stroke="rgb(0,255,255)" paint-order="fill stroke markers" d=" M 420.8082262286297 348.6684419098015 L 898.5365283374039 283.659756215501" stroke-opacity="0.7" stroke-linejoin="round" stroke-miterlimit="10" stroke-width="2"/><path fill="rgb(255,255,255)" stroke="none" paint-order="stroke fill markers" d=" M 894.4659861668231 288.6037613163806 L 902.5 283.12041181736794 L 893.2929121008838 279.983210450234 Z" fill-opacity="1"/><path fill="rgb(0,255,255)" stroke="none" paint-order="stroke fill markers" d=" M 894.4659861668231 288.6037613163806 L 902.5 283.12041181736794 L 893.2929121008838 279.983210450234 Z" fill-opacity="0.7"/><path fill="none" stroke="rgb(0,255,255)" paint-order="fill stroke markers" d=" M 784.1116460839511 489.35021720057495 L 899.9720884790122 347.2720324207235" stroke-opacity="0.7" stroke-linejoin="round" stroke-miterlimit="10" stroke-width="2"/><path fill="rgb(255,255,255)" stroke="none" paint-order="stroke fill markers" d=" M 900.3729833904453 353.6635723971288 L 902.5 344.17208672086724 L 893.6306014932579 348.16536483898045 Z" fill-opacity="1"/><path fill="rgb(0,255,255)" stroke="none" paint-order="stroke fill markers" d=" M 900.3729833904453 353.6635723971288 L 902.5 344.17208672086724 L 893.6306014932579 348.16536483898045 Z" fill-opacity="0.7"/><path fill="none" stroke="rgb(0,255,255)" paint-order="fill stroke markers" d=" M 789.9382998553785 260.65377979756045 L 898.5154250361553 270.21680572811664" stroke-opacity="0.7" stroke-linejoin="round" stroke-miterlimit="10" stroke-width="2"/><path fill="rgb(255,255,255)" stroke="none" paint-order="stroke fill markers" d=" M 893.4518968211761 274.1376706857643 L 902.5 270.56775067750675 L 894.2152020860997 265.4712201394022 Z" fill-opacity="1"/><path fill="rgb(0,255,255)" stroke="none" paint-order="stroke fill markers" d=" M 893.4518968211761 274.1376706857643 L 902.5 270.56775067750675 L 894.2152020860997 265.4712201394022 Z" fill-opacity="0.7"/><path fill="rgb(239,68,68)" stroke="rgb(0,0,0)" paint-order="fill stroke markers" d=" M 420 351.5 L 419.93834667466257 353.0691819145569 L 419.7537668119028 354.62868930080464 L 419.44739840795353 356.1689072771181 L 419.0211303259031 357.680339887499 L 418.47759065022575 359.1536686473018 L 417.82013048376734 360.57980999479093 L 417.0528032870818 361.94997129431897 L 416.180339887499 363.2557050458495 L 415.20811931200063 364.48896096660366 L 414.14213562373095 365.64213562373095 L 412.98896096660366 366.70811931200063 L 411.7557050458495 367.680339887499 L 410.44997129431897 368.5528032870818 L 409.07980999479093 369.32013048376734 L 407.6536686473018 369.97759065022575 L 406.180339887499 370.5211303259031 L 404.66890727711814 370.94739840795353 L 403.12868930080464 371.2537668119028 L 401.5691819145569 371.43834667466257 L 400 371.5 L 398.4308180854431 371.43834667466257 L 396.87131069919536 371.2537668119028 L 395.3310927228819 370.94739840795353 L 393.819660112501 370.5211303259031 L 392.3463313526982 369.97759065022575 L 390.92019000520907 369.32013048376734 L 389.55002870568103 368.5528032870819 L 388.2442949541505 367.680339887499 L 387.01103903339634 366.70811931200063 L 385.85786437626905 365.64213562373095 L 384.79188068799937 364.48896096660366 L 383.8196601125011 363.2557050458495 L 382.9471967129182 361.94997129431897 L 382.17986951623266 360.57980999479093 L 381.52240934977425 359.1536686473018 L 380.9788696740969 357.680339887499 L 380.55260159204647 356.16890727711814 L 380.2462331880972 354.62868930080464 L 380.06165332533743 353.0691819145569 L 380 351.5 L 380.06165332533743 349.9308180854431 L 380.2462331880972 348.37131069919536 L 380.55260159204647 346.8310927228819 L 380.9788696740969 345.3196601125011 L 381.52240934977425 343.8463313526982 L 382.17986951623266 342.42019000520907 L 382.9471967129181 341.05002870568103 L 383.819660112501 339.7442949541505 L 384.79188068799937 338.51103903339634 L 385.85786437626905 337.35786437626905 L 387.01103903339634 336.29188068799937 L 388.2442949541505 335.3196601125011 L 389.55002870568103 334.4471967129181 L 390.92019000520907 333.67986951623266 L 392.3463313526982 333.02240934977425 L 393.8196601125011 332.4788696740969 L 395.3310927228819 332.05260159204647 L 396.8713106991954 331.7462331880972 L 398.43081808544315 331.56165332533743 L 400.00000000000006 331.5 L 401.56918191455696 331.56165332533743 L 403.1286893008047 331.7462331880973 L 404.6689072771182 332.05260159204647 L 406.18033988749903 332.478869674097 L 407.6536686473019 333.0224093497743 L 409.07980999479105 333.6798695162327 L 410.4499712943191 334.44719671291824 L 411.7557050458496 335.31966011250114 L 412.98896096660377 336.2918806879995 L 414.14213562373106 337.35786437626916 L 415.20811931200075 338.51103903339646 L 416.18033988749903 339.7442949541507 L 417.05280328708193 341.0500287056812 L 417.82013048376746 342.42019000520924 L 418.4775906502258 343.84633135269837 L 419.02113032590313 345.31966011250125 L 419.4473984079536 346.8310927228821 L 419.7537668119028 348.3713106991956 L 419.93834667466257 349.9308180854433 Z" fill-opacity="1" stroke-opacity="1" stroke-miterlimit="10" stroke-width="2"/><text fill="none" stroke="rgb(0,0,0)" font-family="Helvetica Neue, Helvetica, sans-serif" font-size="10px" font-style="normal" font-weight="normal" text-decoration="normal" x="400" y="331.5" text-anchor="middle" dominant-baseline="text-after-edge" stroke-opacity="1" stroke-linejoin="round" stroke-miterlimit="10" stroke-width="4">host_node_3b2819dd</text><text fill="rgb(255,255,255)" stroke="none" font-family="Helvetica Neue, Helvetica, sans-serif" font-size="10px" font-style="normal" font-weight="normal" text-decoration="normal" x="400" y="331.5" text-anchor="middle" dominant-baseline="text-after-edge" fill-opacity="1">host_node_3b2819dd</text><path fill="rgb(255,0,102)" stroke="rgb(0,0,0)" paint-order="fill stroke markers" d=" M 228 351.5 L 227.93064000899537 353.2653296538765 L 227.7229876633906 355.0197754634052 L 227.37832320894773 356.75252068675786 L 226.89877161664094 358.4528823734363 L 226.28728948150396 360.11037722821453 L 225.5476467942383 361.7147862441398 L 224.68440369796707 363.2562177061088 L 223.70288237343632 364.72516817658067 L 222.6091342260007 366.11258108742913 L 221.40990257669733 367.40990257669733 L 220.11258108742913 368.6091342260007 L 218.72516817658064 369.7028823734363 L 217.25621770610886 370.68440369796707 L 215.71478624413982 371.5476467942383 L 214.11037722821453 372.28728948150393 L 212.45288237343632 372.89877161664094 L 210.75252068675786 373.37832320894773 L 209.01977546340518 373.7229876633906 L 207.2653296538765 373.9306400089954 L 205.5 374 L 203.7346703461235 373.9306400089954 L 201.98022453659482 373.7229876633906 L 200.24747931324214 373.37832320894773 L 198.54711762656368 372.89877161664094 L 196.88962277178547 372.28728948150393 L 195.2852137558602 371.5476467942383 L 193.74378229389114 370.68440369796707 L 192.27483182341936 369.7028823734363 L 190.88741891257087 368.6091342260007 L 189.5900974233027 367.40990257669733 L 188.3908657739993 366.11258108742913 L 187.29711762656368 364.72516817658067 L 186.31559630203293 363.2562177061088 L 185.4523532057617 361.7147862441398 L 184.71271051849604 360.11037722821453 L 184.10122838335906 358.4528823734363 L 183.62167679105227 356.75252068675786 L 183.2770123366094 355.0197754634052 L 183.06935999100463 353.2653296538765 L 183 351.5 L 183.06935999100463 349.7346703461235 L 183.2770123366094 347.9802245365948 L 183.62167679105227 346.24747931324214 L 184.10122838335906 344.5471176265637 L 184.71271051849604 342.88962277178547 L 185.4523532057617 341.2852137558602 L 186.31559630203293 339.7437822938912 L 187.29711762656368 338.27483182341933 L 188.3908657739993 336.88741891257087 L 189.59009742330267 335.59009742330267 L 190.88741891257087 334.39086577399934 L 192.27483182341936 333.2971176265637 L 193.74378229389114 332.31559630203293 L 195.2852137558602 331.4523532057617 L 196.8896227717855 330.712710518496 L 198.5471176265637 330.10122838335906 L 200.24747931324217 329.62167679105227 L 201.98022453659485 329.2770123366094 L 203.73467034612355 329.0693599910046 L 205.50000000000009 329 L 207.2653296538766 329.0693599910046 L 209.0197754634053 329.2770123366094 L 210.75252068675798 329.6216767910523 L 212.45288237343644 330.10122838335906 L 214.11037722821465 330.7127105184961 L 215.71478624413993 331.45235320576177 L 217.25621770610897 332.315596302033 L 218.72516817658078 333.29711762656376 L 220.11258108742925 334.3908657739994 L 221.40990257669745 335.5900974233028 L 222.6091342260008 336.887418912571 L 223.70288237343644 338.2748318234195 L 224.68440369796718 339.74378229389134 L 225.54764679423837 341.2852137558604 L 226.28728948150405 342.8896227717857 L 226.89877161664103 344.54711762656393 L 227.3783232089478 346.24747931324237 L 227.72298766339065 347.9802245365951 L 227.9306400089954 349.7346703461238 Z" fill-opacity="1" stroke-opacity="1" stroke-miterlimit="10" stroke-width="2"/><text fill="none" stroke="rgb(0,0,0)" font-family="Helvetica Neue, Helvetica, sans-serif" font-size="10px" font-style="normal" font-weight="normal" text-decoration="normal" x="205.5" y="329" text-anchor="middle" dominant-baseline="text-after-edge" stroke-opacity="1" stroke-linejoin="round" stroke-miterlimit="10" stroke-width="4">Hacker</text><text fill="rgb(255,255,255)" stroke="none" font-family="Helvetica Neue, Helvetica, sans-serif" font-size="10px" font-style="normal" font-weight="normal" text-decoration="normal" x="205.5" y="329" text-anchor="middle" dominant-baseline="text-after-edge" fill-opacity="1">Hacker</text><path fill="rgb(99,102,241)" stroke="rgb(255,0,102)" paint-order="fill stroke markers" d=" M 81 306.5 L 80.95376000599691 307.67688643591765 L 80.81532510892707 308.84651697560344 L 80.58554880596515 310.0016804578386 L 80.2658477444273 311.1352549156242 L 79.8581929876693 312.24025148547634 L 79.36509786282552 313.3098574960932 L 78.78960246531139 314.33747847073926 L 78.13525491562422 315.3167787843871 L 77.40608948400046 316.24172072495276 L 76.60660171779821 317.1066017177982 L 75.74172072495276 317.90608948400046 L 74.8167787843871 318.6352549156242 L 73.83747847073923 319.28960246531136 L 72.8098574960932 319.8650978628255 L 71.74025148547635 320.3581929876693 L 70.63525491562422 320.7658477444273 L 69.50168045783859 321.0855488059652 L 68.34651697560346 321.3153251089271 L 67.17688643591768 321.4537600059969 L 66 321.5 L 64.82311356408232 321.4537600059969 L 63.653483024396536 321.3153251089271 L 62.49831954216142 321.0855488059652 L 61.36474508437579 320.76584774442733 L 60.25974851452365 320.3581929876693 L 59.1901425039068 319.8650978628255 L 58.16252152926077 319.28960246531136 L 57.1832212156129 318.6352549156242 L 56.258279275047244 317.90608948400046 L 55.39339828220179 317.1066017177982 L 54.59391051599954 316.24172072495276 L 53.86474508437579 315.3167787843871 L 53.21039753468862 314.33747847073926 L 52.634902137174485 313.30985749609323 L 52.1418070123307 312.24025148547634 L 51.734152255572695 311.1352549156242 L 51.414451194034854 310.0016804578386 L 51.18467489107294 308.8465169756035 L 51.04623999400308 307.67688643591765 L 51 306.5 L 51.04623999400308 305.32311356408235 L 51.18467489107293 304.15348302439656 L 51.414451194034854 302.9983195421614 L 51.734152255572695 301.8647450843758 L 52.141807012330695 300.75974851452366 L 52.63490213717448 299.6901425039068 L 53.21039753468862 298.66252152926074 L 53.864745084375784 297.6832212156129 L 54.59391051599953 296.75827927504724 L 55.39339828220179 295.8933982822018 L 56.25827927504724 295.09391051599954 L 57.1832212156129 294.3647450843758 L 58.16252152926077 293.71039753468864 L 59.190142503906806 293.1349021371745 L 60.25974851452367 292.6418070123307 L 61.36474508437581 292.23415225557267 L 62.49831954216145 291.9144511940348 L 63.65348302439657 291.6846748910729 L 64.82311356408238 291.5462399940031 L 66.00000000000006 291.5 L 67.17688643591774 291.5462399940031 L 68.34651697560352 291.6846748910729 L 69.50168045783865 291.9144511940349 L 70.63525491562429 292.2341522555727 L 71.74025148547642 292.64180701233073 L 72.80985749609329 293.13490213717455 L 73.83747847073931 293.7103975346887 L 74.81677878438718 294.36474508437584 L 75.74172072495284 295.0939105159996 L 76.6066017177983 295.8933982822019 L 77.40608948400055 296.75827927504736 L 78.13525491562429 297.683221215613 L 78.78960246531145 298.66252152926086 L 79.36509786282558 299.69014250390694 L 79.85819298766936 300.7597485145238 L 80.26584774442735 301.86474508437595 L 80.58554880596519 302.9983195421616 L 80.8153251089271 304.1534830243967 L 80.95376000599694 305.3231135640825 Z" fill-opacity="1" stroke-opacity="1" stroke-miterlimit="10" stroke-width="2"/><text fill="none" stroke="rgb(0,0,0)" font-family="Helvetica Neue, Helvetica, sans-serif" font-size="10px" font-style="normal" font-weight="normal" text-decoration="normal" x="66" y="291.5" text-anchor="middle" dominant-baseline="text-after-edge" stroke-opacity="1" stroke-linejoin="round" stroke-miterlimit="10" stroke-width="4">AV:N</text><text fill="rgb(255,255,255)" stroke="none" font-family="Helvetica Neue, Helvetica, sans-serif" font-size="10px" font-style="normal" font-weight="normal" text-decoration="normal" x="66" y="291.5" text-anchor="middle" dominant-baseline="text-after-edge" fill-opacity="1">AV:N</text><path fill="rgb(99,102,241)" stroke="rgb(255,0,102)" paint-order="fill stroke markers" d=" M 81 261.5 L 80.95376000599691 262.67688643591765 L 80.81532510892707 263.84651697560344 L 80.58554880596515 265.0016804578386 L 80.2658477444273 266.1352549156242 L 79.8581929876693 267.24025148547634 L 79.36509786282552 268.3098574960932 L 78.78960246531139 269.33747847073926 L 78.13525491562422 270.3167787843871 L 77.40608948400046 271.24172072495276 L 76.60660171779821 272.1066017177982 L 75.74172072495276 272.90608948400046 L 74.8167787843871 273.6352549156242 L 73.83747847073923 274.28960246531136 L 72.8098574960932 274.8650978628255 L 71.74025148547635 275.3581929876693 L 70.63525491562422 275.7658477444273 L 69.50168045783859 276.0855488059652 L 68.34651697560346 276.3153251089271 L 67.17688643591768 276.4537600059969 L 66 276.5 L 64.82311356408232 276.4537600059969 L 63.653483024396536 276.3153251089271 L 62.49831954216142 276.0855488059652 L 61.36474508437579 275.76584774442733 L 60.25974851452365 275.3581929876693 L 59.1901425039068 274.8650978628255 L 58.16252152926077 274.28960246531136 L 57.1832212156129 273.6352549156242 L 56.258279275047244 272.90608948400046 L 55.39339828220179 272.1066017177982 L 54.59391051599954 271.24172072495276 L 53.86474508437579 270.3167787843871 L 53.21039753468862 269.33747847073926 L 52.634902137174485 268.30985749609323 L 52.1418070123307 267.24025148547634 L 51.734152255572695 266.1352549156242 L 51.414451194034854 265.0016804578386 L 51.18467489107294 263.8465169756035 L 51.04623999400308 262.67688643591765 L 51 261.5 L 51.04623999400308 260.32311356408235 L 51.18467489107293 259.15348302439656 L 51.414451194034854 257.9983195421614 L 51.734152255572695 256.8647450843758 L 52.141807012330695 255.75974851452366 L 52.63490213717448 254.6901425039068 L 53.21039753468862 253.66252152926077 L 53.864745084375784 252.68322121561292 L 54.59391051599953 251.75827927504724 L 55.39339828220179 250.8933982822018 L 56.25827927504724 250.09391051599954 L 57.1832212156129 249.36474508437578 L 58.16252152926077 248.7103975346886 L 59.190142503906806 248.13490213717446 L 60.25974851452367 247.6418070123307 L 61.36474508437581 247.2341522555727 L 62.49831954216145 246.91445119403485 L 63.65348302439657 246.68467489107292 L 64.82311356408238 246.5462399940031 L 66.00000000000006 246.5 L 67.17688643591774 246.5462399940031 L 68.34651697560352 246.68467489107294 L 69.50168045783865 246.91445119403485 L 70.63525491562429 247.23415225557272 L 71.74025148547642 247.64180701233073 L 72.80985749609329 248.13490213717452 L 73.83747847073931 248.71039753468867 L 74.81677878438718 249.36474508437584 L 75.74172072495284 250.0939105159996 L 76.6066017177983 250.89339828220187 L 77.40608948400055 251.75827927504733 L 78.13525491562429 252.683221215613 L 78.78960246531145 253.66252152926089 L 79.36509786282558 254.6901425039069 L 79.85819298766936 255.75974851452378 L 80.26584774442735 256.86474508437595 L 80.58554880596519 257.9983195421616 L 80.8153251089271 259.1534830243967 L 80.95376000599694 260.3231135640825 Z" fill-opacity="1" stroke-opacity="1" stroke-miterlimit="10" stroke-width="2"/><text fill="none" stroke="rgb(0,0,0)" font-family="Helvetica Neue, Helvetica, sans-serif" font-size="10px" font-style="normal" font-weight="normal" text-decoration="normal" x="66" y="246.5" text-anchor="middle" dominant-baseline="text-after-edge" stroke-opacity="1" stroke-linejoin="round" stroke-miterlimit="10" stroke-width="4">PR:N</text><text fill="rgb(255,255,255)" stroke="none" font-family="Helvetica Neue, Helvetica, sans-serif" font-size="10px" font-style="normal" font-weight="normal" text-decoration="normal" x="66" y="246.5" text-anchor="middle" dominant-baseline="text-after-edge" fill-opacity="1">PR:N</text><path fill="rgb(234,179,8)" stroke="rgb(0,0,0)" paint-order="fill stroke markers" d=" M 607 253.5 L 606.9460533403297 254.87303417523728 L 606.7845459604149 256.23760313820407 L 606.5164736069594 257.58529386747836 L 606.1434890351652 258.9077974015616 L 605.6678918189475 260.19696006638907 L 605.0926141732964 261.44483374544205 L 604.4212028761966 262.6437248825291 L 603.6577974015615 263.7862419151183 L 602.8071043980005 264.86534084577823 L 601.8743686707646 265.87436867076457 L 600.8653408457782 266.80710439800055 L 599.7862419151182 267.6577974015616 L 598.6437248825291 268.4212028761966 L 597.4448337454421 269.09261417329645 L 596.1969600663891 269.6678918189475 L 594.9077974015615 270.1434890351652 L 593.5852938674783 270.5164736069593 L 592.237603138204 270.7845459604149 L 590.8730341752373 270.94605334032974 L 589.5 271 L 588.1269658247627 270.94605334032974 L 586.762396861796 270.7845459604149 L 585.4147061325217 270.5164736069593 L 584.0922025984385 270.1434890351652 L 582.8030399336109 269.6678918189475 L 581.5551662545579 269.09261417329645 L 580.3562751174709 268.4212028761966 L 579.2137580848818 267.6577974015616 L 578.1346591542218 266.80710439800055 L 577.1256313292354 265.87436867076457 L 576.1928956019995 264.86534084577823 L 575.3422025984385 263.7862419151183 L 574.5787971238034 262.6437248825291 L 573.9073858267036 261.44483374544205 L 573.3321081810525 260.19696006638907 L 572.8565109648348 258.9077974015616 L 572.4835263930406 257.58529386747836 L 572.2154540395851 256.23760313820407 L 572.0539466596703 254.87303417523728 L 572 253.5 L 572.0539466596703 252.12696582476272 L 572.2154540395851 250.76239686179596 L 572.4835263930406 249.41470613252164 L 572.8565109648348 248.09220259843843 L 573.3321081810525 246.80303993361093 L 573.9073858267036 245.55516625455795 L 574.5787971238034 244.3562751174709 L 575.3422025984385 243.21375808488173 L 576.1928956019995 242.1346591542218 L 577.1256313292354 241.12563132923543 L 578.1346591542218 240.19289560199945 L 579.2137580848818 239.34220259843843 L 580.3562751174709 238.57879712380338 L 581.5551662545579 237.90738582670355 L 582.803039933611 237.3321081810525 L 584.0922025984385 236.8565109648348 L 585.4147061325217 236.48352639304065 L 586.762396861796 236.2154540395851 L 588.1269658247628 236.05394665967026 L 589.5000000000001 236 L 590.8730341752373 236.05394665967026 L 592.2376031382041 236.2154540395851 L 593.5852938674784 236.48352639304068 L 594.9077974015617 236.85651096483485 L 596.1969600663891 237.33210818105252 L 597.4448337454421 237.9073858267036 L 598.6437248825292 238.57879712380344 L 599.7862419151184 239.3422025984385 L 600.8653408457783 240.19289560199954 L 601.8743686707646 241.12563132923552 L 602.8071043980007 242.1346591542219 L 603.6577974015617 243.21375808488185 L 604.4212028761967 244.35627511747103 L 605.0926141732965 245.5551662545581 L 605.6678918189476 246.8030399336111 L 606.1434890351652 248.0922025984386 L 606.5164736069594 249.41470613252184 L 606.7845459604149 250.76239686179616 L 606.9460533403297 252.12696582476292 Z" fill-opacity="1" stroke-opacity="1" stroke-miterlimit="10" stroke-width="2"/><text fill="none" stroke="rgb(0,0,0)" font-family="Helvetica Neue, Helvetica, sans-serif" font-size="10px" font-style="normal" font-weight="normal" text-decoration="normal" x="589.5" y="236" text-anchor="middle" dominant-baseline="text-after-edge" stroke-opacity="1" stroke-linejoin="round" stroke-miterlimit="10" stroke-width="4">CVE-2026-24001</text><text fill="rgb(255,255,255)" stroke="none" font-family="Helvetica Neue, Helvetica, sans-serif" font-size="10px" font-style="normal" font-weight="normal" text-decoration="normal" x="589.5" y="236" text-anchor="middle" dominant-baseline="text-after-edge" fill-opacity="1">CVE-2026-24001</text><path fill="rgb(99,102,241)" stroke="rgb(0,0,0)" paint-order="fill stroke markers" d=" M 789 259.25 L 788.953760005997 260.42688643591765 L 788.815325108927 261.59651697560344 L 788.5855488059651 262.7516804578386 L 788.2658477444273 263.8852549156242 L 787.8581929876693 264.99025148547634 L 787.3650978628256 266.0598574960932 L 786.7896024653114 267.08747847073926 L 786.1352549156242 268.0667787843871 L 785.4060894840005 268.99172072495276 L 784.6066017177982 269.8566017177982 L 783.7417207249528 270.65608948400046 L 782.8167787843871 271.3852549156242 L 781.8374784707393 272.03960246531136 L 780.8098574960932 272.6150978628255 L 779.7402514854764 273.1081929876693 L 778.6352549156242 273.5158477444273 L 777.5016804578386 273.8355488059652 L 776.3465169756034 274.0653251089271 L 775.1768864359177 274.2037600059969 L 774 274.25 L 772.8231135640823 274.2037600059969 L 771.6534830243966 274.0653251089271 L 770.4983195421614 273.8355488059652 L 769.3647450843758 273.51584774442733 L 768.2597485145236 273.1081929876693 L 767.1901425039068 272.6150978628255 L 766.1625215292607 272.03960246531136 L 765.1832212156129 271.3852549156242 L 764.2582792750472 270.65608948400046 L 763.3933982822018 269.8566017177982 L 762.5939105159995 268.99172072495276 L 761.8647450843758 268.0667787843871 L 761.2103975346886 267.08747847073926 L 760.6349021371744 266.05985749609323 L 760.1418070123307 264.99025148547634 L 759.7341522555727 263.8852549156242 L 759.4144511940349 262.7516804578386 L 759.184674891073 261.5965169756035 L 759.046239994003 260.42688643591765 L 759 259.25 L 759.046239994003 258.07311356408235 L 759.184674891073 256.90348302439656 L 759.4144511940349 255.74831954216143 L 759.7341522555727 254.61474508437578 L 760.1418070123307 253.50974851452366 L 760.6349021371744 252.4401425039068 L 761.2103975346886 251.41252152926077 L 761.8647450843758 250.43322121561292 L 762.5939105159995 249.50827927504724 L 763.3933982822018 248.6433982822018 L 764.2582792750472 247.84391051599954 L 765.1832212156129 247.11474508437578 L 766.1625215292607 246.4603975346886 L 767.1901425039068 245.88490213717446 L 768.2597485145237 245.3918070123307 L 769.3647450843758 244.9841522555727 L 770.4983195421614 244.66445119403485 L 771.6534830243966 244.43467489107292 L 772.8231135640824 244.2962399940031 L 774 244.25 L 775.1768864359177 244.2962399940031 L 776.3465169756035 244.43467489107294 L 777.5016804578387 244.66445119403485 L 778.6352549156243 244.98415225557272 L 779.7402514854764 245.39180701233073 L 780.8098574960933 245.88490213717452 L 781.8374784707394 246.46039753468867 L 782.8167787843872 247.11474508437584 L 783.7417207249529 247.8439105159996 L 784.6066017177983 248.64339828220187 L 785.4060894840005 249.50827927504733 L 786.1352549156243 250.433221215613 L 786.7896024653114 251.41252152926089 L 787.3650978628256 252.4401425039069 L 787.8581929876693 253.50974851452378 L 788.2658477444273 254.61474508437593 L 788.5855488059652 255.74831954216157 L 788.8153251089271 256.9034830243967 L 788.953760005997 258.0731135640825 Z" fill-opacity="1" stroke-opacity="1" stroke-miterlimit="10" stroke-width="2"/><text fill="none" stroke="rgb(0,0,0)" font-family="Helvetica Neue, Helvetica, sans-serif" font-size="10px" font-style="normal" font-weight="normal" text-decoration="normal" x="774" y="244.25" text-anchor="middle" dominant-baseline="text-after-edge" stroke-opacity="1" stroke-linejoin="round" stroke-miterlimit="10" stroke-width="4">AV:L</text><text fill="rgb(255,255,255)" stroke="none" font-family="Helvetica Neue, Helvetica, sans-serif" font-size="10px" font-style="normal" font-weight="normal" text-decoration="normal" x="774" y="244.25" text-anchor="middle" dominant-baseline="text-after-edge" fill-opacity="1">AV:L</text><path fill="rgb(99,102,241)" stroke="rgb(0,0,0)" paint-order="fill stroke markers" d=" M 789 501.75 L 788.953760005997 502.92688643591765 L 788.815325108927 504.09651697560344 L 788.5855488059651 505.2516804578386 L 788.2658477444273 506.3852549156242 L 787.8581929876693 507.49025148547634 L 787.3650978628256 508.5598574960932 L 786.7896024653114 509.58747847073926 L 786.1352549156242 510.5667787843871 L 785.4060894840005 511.49172072495276 L 784.6066017177982 512.3566017177982 L 783.7417207249528 513.1560894840005 L 782.8167787843871 513.8852549156242 L 781.8374784707393 514.5396024653114 L 780.8098574960932 515.1150978628256 L 779.7402514854764 515.6081929876693 L 778.6352549156242 516.0158477444273 L 777.5016804578386 516.3355488059651 L 776.3465169756034 516.565325108927 L 775.1768864359177 516.703760005997 L 774 516.75 L 772.8231135640823 516.703760005997 L 771.6534830243966 516.565325108927 L 770.4983195421614 516.3355488059651 L 769.3647450843758 516.0158477444273 L 768.2597485145236 515.6081929876693 L 767.1901425039068 515.1150978628256 L 766.1625215292607 514.5396024653114 L 765.1832212156129 513.8852549156242 L 764.2582792750472 513.1560894840005 L 763.3933982822018 512.3566017177982 L 762.5939105159995 511.49172072495276 L 761.8647450843758 510.5667787843871 L 761.2103975346886 509.58747847073926 L 760.6349021371744 508.55985749609323 L 760.1418070123307 507.49025148547634 L 759.7341522555727 506.3852549156242 L 759.4144511940349 505.2516804578386 L 759.184674891073 504.0965169756035 L 759.046239994003 502.92688643591765 L 759 501.75 L 759.046239994003 500.57311356408235 L 759.184674891073 499.40348302439656 L 759.4144511940349 498.2483195421614 L 759.7341522555727 497.1147450843758 L 760.1418070123307 496.00974851452366 L 760.6349021371744 494.9401425039068 L 761.2103975346886 493.91252152926074 L 761.8647450843758 492.9332212156129 L 762.5939105159995 492.00827927504724 L 763.3933982822018 491.1433982822018 L 764.2582792750472 490.34391051599954 L 765.1832212156129 489.6147450843758 L 766.1625215292607 488.96039753468864 L 767.1901425039068 488.3849021371745 L 768.2597485145237 487.8918070123307 L 769.3647450843758 487.48415225557267 L 770.4983195421614 487.1644511940348 L 771.6534830243966 486.9346748910729 L 772.8231135640824 486.7962399940031 L 774 486.75 L 775.1768864359177 486.7962399940031 L 776.3465169756035 486.9346748910729 L 777.5016804578387 487.1644511940349 L 778.6352549156243 487.4841522555727 L 779.7402514854764 487.89180701233073 L 780.8098574960933 488.38490213717455 L 781.8374784707394 488.9603975346887 L 782.8167787843872 489.61474508437584 L 783.7417207249529 490.3439105159996 L 784.6066017177983 491.1433982822019 L 785.4060894840005 492.00827927504736 L 786.1352549156243 492.933221215613 L 786.7896024653114 493.91252152926086 L 787.3650978628256 494.94014250390694 L 787.8581929876693 496.0097485145238 L 788.2658477444273 497.11474508437595 L 788.5855488059652 498.2483195421616 L 788.8153251089271 499.4034830243967 L 788.953760005997 500.5731135640825 Z" fill-opacity="1" stroke-opacity="1" stroke-miterlimit="10" stroke-width="2"/><text fill="none" stroke="rgb(0,0,0)" font-family="Helvetica Neue, Helvetica, sans-serif" font-size="10px" font-style="normal" font-weight="normal" text-decoration="normal" x="774" y="486.75" text-anchor="middle" dominant-baseline="text-after-edge" stroke-opacity="1" stroke-linejoin="round" stroke-miterlimit="10" stroke-width="4">PR:H</text><text fill="rgb(255,255,255)" stroke="none" font-family="Helvetica Neue, Helvetica, sans-serif" font-size="10px" font-style="normal" font-weight="normal" text-decoration="normal" x="774" y="486.75" text-anchor="middle" dominant-baseline="text-after-edge" fill-opacity="1">PR:H</text><path fill="rgb(234,179,8)" stroke="rgb(255,102,102)" paint-order="fill stroke markers" d=" M 607 506 L 606.9460533403297 507.3730341752373 L 606.7845459604149 508.73760313820407 L 606.5164736069594 510.08529386747836 L 606.1434890351652 511.4077974015616 L 605.6678918189475 512.6969600663891 L 605.0926141732964 513.9448337454421 L 604.4212028761966 515.1437248825291 L 603.6577974015615 516.2862419151182 L 602.8071043980005 517.3653408457782 L 601.8743686707646 518.3743686707646 L 600.8653408457782 519.3071043980005 L 599.7862419151182 520.1577974015615 L 598.6437248825291 520.9212028761966 L 597.4448337454421 521.5926141732964 L 596.1969600663891 522.1678918189475 L 594.9077974015615 522.6434890351652 L 593.5852938674783 523.0164736069594 L 592.237603138204 523.2845459604149 L 590.8730341752373 523.4460533403297 L 589.5 523.5 L 588.1269658247627 523.4460533403297 L 586.762396861796 523.2845459604149 L 585.4147061325217 523.0164736069594 L 584.0922025984385 522.6434890351652 L 582.8030399336109 522.1678918189475 L 581.5551662545579 521.5926141732964 L 580.3562751174709 520.9212028761966 L 579.2137580848818 520.1577974015615 L 578.1346591542218 519.3071043980005 L 577.1256313292354 518.3743686707646 L 576.1928956019995 517.3653408457782 L 575.3422025984385 516.2862419151182 L 574.5787971238034 515.1437248825291 L 573.9073858267036 513.9448337454421 L 573.3321081810525 512.6969600663891 L 572.8565109648348 511.4077974015616 L 572.4835263930406 510.08529386747836 L 572.2154540395851 508.73760313820407 L 572.0539466596703 507.3730341752373 L 572 506 L 572.0539466596703 504.6269658247627 L 572.2154540395851 503.26239686179593 L 572.4835263930406 501.91470613252164 L 572.8565109648348 500.5922025984384 L 573.3321081810525 499.30303993361093 L 573.9073858267036 498.05516625455795 L 574.5787971238034 496.8562751174709 L 575.3422025984385 495.7137580848817 L 576.1928956019995 494.63465915422177 L 577.1256313292354 493.62563132923543 L 578.1346591542218 492.69289560199945 L 579.2137580848818 491.8422025984384 L 580.3562751174709 491.0787971238034 L 581.5551662545579 490.40738582670355 L 582.803039933611 489.8321081810525 L 584.0922025984385 489.3565109648348 L 585.4147061325217 488.9835263930407 L 586.762396861796 488.7154540395851 L 588.1269658247628 488.55394665967026 L 589.5000000000001 488.5 L 590.8730341752373 488.55394665967026 L 592.2376031382041 488.7154540395851 L 593.5852938674784 488.9835263930407 L 594.9077974015617 489.35651096483485 L 596.1969600663891 489.8321081810525 L 597.4448337454421 490.4073858267036 L 598.6437248825292 491.07879712380344 L 599.7862419151184 491.8422025984385 L 600.8653408457783 492.69289560199957 L 601.8743686707646 493.6256313292355 L 602.8071043980007 494.6346591542219 L 603.6577974015617 495.7137580848818 L 604.4212028761967 496.85627511747106 L 605.0926141732965 498.05516625455806 L 605.6678918189476 499.3030399336111 L 606.1434890351652 500.5922025984386 L 606.5164736069594 501.9147061325218 L 606.7845459604149 503.26239686179616 L 606.9460533403297 504.6269658247629 Z" fill-opacity="0.25" stroke-opacity="0.25" stroke-miterlimit="10" stroke-width="2" stroke-dasharray="4,2"/><text fill="none" stroke="rgb(0,0,0)" font-family="Helvetica Neue, Helvetica, sans-serif" font-size="10px" font-style="normal" font-weight="normal" text-decoration="normal" x="589.5" y="488.5" text-anchor="middle" dominant-baseline="text-after-edge" stroke-opacity="0.25" stroke-linejoin="round" stroke-miterlimit="10" stroke-width="4">CVE-2026-23950</text><text fill="rgb(255,255,255)" stroke="none" font-family="Helvetica Neue, Helvetica, sans-serif" font-size="10px" font-style="normal" font-weight="normal" text-decoration="normal" x="589.5" y="488.5" text-anchor="middle" dominant-baseline="text-after-edge" fill-opacity="0.25">CVE-2026-23950</text><path fill="rgb(255,0,0)" stroke="rgb(255,215,0)" paint-order="fill stroke markers" d=" M 1154 771.5 L 1144.7343318831333 785.7299193548821 L 1129 790.5983005625053 L 1139.0078340584334 804.2612555886155 L 1138.5491502812527 821.5 L 1154 815.7142512380153 L 1169.4508497187473 821.5 L 1168.9921659415666 804.2612555886155 L 1179 790.5983005625053 L 1163.2656681168667 785.7299193548821 Z" fill-opacity="0.25" stroke-opacity="0.25" stroke-miterlimit="10" stroke-width="4" stroke-dasharray="4,2"/><text fill="none" stroke="rgb(0,0,0)" font-family="Helvetica Neue, Helvetica, sans-serif" font-size="10px" font-style="normal" font-weight="bold" text-decoration="normal" x="1154" y="771.5" text-anchor="middle" dominant-baseline="text-after-edge" stroke-opacity="0.25" stroke-linejoin="round" stroke-miterlimit="10" stroke-width="4">EXPLOITED</text><text fill="rgb(255,255,255)" stroke="none" font-family="Helvetica Neue, Helvetica, sans-serif" font-size="10px" font-style="normal" font-weight="bold" text-decoration="normal" x="1154" y="771.5" text-anchor="middle" dominant-baseline="text-after-edge" fill-opacity="0.25">EXPLOITED</text><path fill="rgb(99,102,241)" stroke="rgb(255,0,102)" paint-order="fill stroke markers" d=" M 81 396.5 L 80.95376000599691 397.67688643591765 L 80.81532510892707 398.84651697560344 L 80.58554880596515 400.0016804578386 L 80.2658477444273 401.1352549156242 L 79.8581929876693 402.24025148547634 L 79.36509786282552 403.3098574960932 L 78.78960246531139 404.33747847073926 L 78.13525491562422 405.3167787843871 L 77.40608948400046 406.24172072495276 L 76.60660171779821 407.1066017177982 L 75.74172072495276 407.90608948400046 L 74.8167787843871 408.6352549156242 L 73.83747847073923 409.28960246531136 L 72.8098574960932 409.8650978628255 L 71.74025148547635 410.3581929876693 L 70.63525491562422 410.7658477444273 L 69.50168045783859 411.0855488059652 L 68.34651697560346 411.3153251089271 L 67.17688643591768 411.4537600059969 L 66 411.5 L 64.82311356408232 411.4537600059969 L 63.653483024396536 411.3153251089271 L 62.49831954216142 411.0855488059652 L 61.36474508437579 410.76584774442733 L 60.25974851452365 410.3581929876693 L 59.1901425039068 409.8650978628255 L 58.16252152926077 409.28960246531136 L 57.1832212156129 408.6352549156242 L 56.258279275047244 407.90608948400046 L 55.39339828220179 407.1066017177982 L 54.59391051599954 406.24172072495276 L 53.86474508437579 405.3167787843871 L 53.21039753468862 404.33747847073926 L 52.634902137174485 403.30985749609323 L 52.1418070123307 402.24025148547634 L 51.734152255572695 401.1352549156242 L 51.414451194034854 400.0016804578386 L 51.18467489107294 398.8465169756035 L 51.04623999400308 397.67688643591765 L 51 396.5 L 51.04623999400308 395.32311356408235 L 51.18467489107293 394.15348302439656 L 51.414451194034854 392.9983195421614 L 51.734152255572695 391.8647450843758 L 52.141807012330695 390.75974851452366 L 52.63490213717448 389.6901425039068 L 53.21039753468862 388.66252152926074 L 53.864745084375784 387.6832212156129 L 54.59391051599953 386.75827927504724 L 55.39339828220179 385.8933982822018 L 56.25827927504724 385.09391051599954 L 57.1832212156129 384.3647450843758 L 58.16252152926077 383.71039753468864 L 59.190142503906806 383.1349021371745 L 60.25974851452367 382.6418070123307 L 61.36474508437581 382.23415225557267 L 62.49831954216145 381.9144511940348 L 63.65348302439657 381.6846748910729 L 64.82311356408238 381.5462399940031 L 66.00000000000006 381.5 L 67.17688643591774 381.5462399940031 L 68.34651697560352 381.6846748910729 L 69.50168045783865 381.9144511940349 L 70.63525491562429 382.2341522555727 L 71.74025148547642 382.64180701233073 L 72.80985749609329 383.13490213717455 L 73.83747847073931 383.7103975346887 L 74.81677878438718 384.36474508437584 L 75.74172072495284 385.0939105159996 L 76.6066017177983 385.8933982822019 L 77.40608948400055 386.75827927504736 L 78.13525491562429 387.683221215613 L 78.78960246531145 388.66252152926086 L 79.36509786282558 389.69014250390694 L 79.85819298766936 390.7597485145238 L 80.26584774442735 391.86474508437595 L 80.58554880596519 392.9983195421616 L 80.8153251089271 394.1534830243967 L 80.95376000599694 395.3231135640825 Z" fill-opacity="1" stroke-opacity="1" stroke-miterlimit="10" stroke-width="2"/><text fill="none" stroke="rgb(0,0,0)" font-family="Helvetica Neue, Helvetica, sans-serif" font-size="10px" font-style="normal" font-weight="normal" text-decoration="normal" x="66" y="381.5" text-anchor="middle" dominant-baseline="text-after-edge" stroke-opacity="1" stroke-linejoin="round" stroke-miterlimit="10" stroke-width="4">AC:L</text><text fill="rgb(255,255,255)" stroke="none" font-family="Helvetica Neue, Helvetica, sans-serif" font-size="10px" font-style="normal" font-weight="normal" text-decoration="normal" x="66" y="381.5" text-anchor="middle" dominant-baseline="text-after-edge" fill-opacity="1">AC:L</text><path fill="rgb(99,102,241)" stroke="rgb(255,0,102)" paint-order="fill stroke markers" d=" M 81 441.5 L 80.95376000599691 442.67688643591765 L 80.81532510892707 443.84651697560344 L 80.58554880596515 445.0016804578386 L 80.2658477444273 446.1352549156242 L 79.8581929876693 447.24025148547634 L 79.36509786282552 448.3098574960932 L 78.78960246531139 449.33747847073926 L 78.13525491562422 450.3167787843871 L 77.40608948400046 451.24172072495276 L 76.60660171779821 452.1066017177982 L 75.74172072495276 452.90608948400046 L 74.8167787843871 453.6352549156242 L 73.83747847073923 454.28960246531136 L 72.8098574960932 454.8650978628255 L 71.74025148547635 455.3581929876693 L 70.63525491562422 455.7658477444273 L 69.50168045783859 456.0855488059652 L 68.34651697560346 456.3153251089271 L 67.17688643591768 456.4537600059969 L 66 456.5 L 64.82311356408232 456.4537600059969 L 63.653483024396536 456.3153251089271 L 62.49831954216142 456.0855488059652 L 61.36474508437579 455.76584774442733 L 60.25974851452365 455.3581929876693 L 59.1901425039068 454.8650978628255 L 58.16252152926077 454.28960246531136 L 57.1832212156129 453.6352549156242 L 56.258279275047244 452.90608948400046 L 55.39339828220179 452.1066017177982 L 54.59391051599954 451.24172072495276 L 53.86474508437579 450.3167787843871 L 53.21039753468862 449.33747847073926 L 52.634902137174485 448.30985749609323 L 52.1418070123307 447.24025148547634 L 51.734152255572695 446.1352549156242 L 51.414451194034854 445.0016804578386 L 51.18467489107294 443.8465169756035 L 51.04623999400308 442.67688643591765 L 51 441.5 L 51.04623999400308 440.32311356408235 L 51.18467489107293 439.15348302439656 L 51.414451194034854 437.9983195421614 L 51.734152255572695 436.8647450843758 L 52.141807012330695 435.75974851452366 L 52.63490213717448 434.6901425039068 L 53.21039753468862 433.66252152926074 L 53.864745084375784 432.6832212156129 L 54.59391051599953 431.75827927504724 L 55.39339828220179 430.8933982822018 L 56.25827927504724 430.09391051599954 L 57.1832212156129 429.3647450843758 L 58.16252152926077 428.71039753468864 L 59.190142503906806 428.1349021371745 L 60.25974851452367 427.6418070123307 L 61.36474508437581 427.23415225557267 L 62.49831954216145 426.9144511940348 L 63.65348302439657 426.6846748910729 L 64.82311356408238 426.5462399940031 L 66.00000000000006 426.5 L 67.17688643591774 426.5462399940031 L 68.34651697560352 426.6846748910729 L 69.50168045783865 426.9144511940349 L 70.63525491562429 427.2341522555727 L 71.74025148547642 427.64180701233073 L 72.80985749609329 428.13490213717455 L 73.83747847073931 428.7103975346887 L 74.81677878438718 429.36474508437584 L 75.74172072495284 430.0939105159996 L 76.6066017177983 430.8933982822019 L 77.40608948400055 431.75827927504736 L 78.13525491562429 432.683221215613 L 78.78960246531145 433.66252152926086 L 79.36509786282558 434.69014250390694 L 79.85819298766936 435.7597485145238 L 80.26584774442735 436.86474508437595 L 80.58554880596519 437.9983195421616 L 80.8153251089271 439.1534830243967 L 80.95376000599694 440.3231135640825 Z" fill-opacity="1" stroke-opacity="1" stroke-miterlimit="10" stroke-width="2"/><text fill="none" stroke="rgb(0,0,0)" font-family="Helvetica Neue, Helvetica, sans-serif" font-size="10px" font-style="normal" font-weight="normal" text-decoration="normal" x="66" y="426.5" text-anchor="middle" dominant-baseline="text-after-edge" stroke-opacity="1" stroke-linejoin="round" stroke-miterlimit="10" stroke-width="4">UI:N</text><text fill="rgb(255,255,255)" stroke="none" font-family="Helvetica Neue, Helvetica, sans-serif" font-size="10px" font-style="normal" font-weight="normal" text-decoration="normal" x="66" y="426.5" text-anchor="middle" dominant-baseline="text-after-edge" fill-opacity="1">UI:N</text><path fill="rgb(0,255,136)" stroke="rgb(0,204,102)" paint-order="fill stroke markers" d=" M 1313 609.5 L 1343 579.5 L 1313 549.5 L 1283 579.5 Z" fill-opacity="1" stroke-opacity="1" stroke-miterlimit="10" stroke-width="4"/><text fill="none" stroke="rgb(0,0,0)" font-family="Helvetica Neue, Helvetica, sans-serif" font-size="14px" font-style="normal" font-weight="bold" text-decoration="normal" x="1313" y="549.5" text-anchor="middle" dominant-baseline="text-after-edge" stroke-opacity="1" stroke-linejoin="round" stroke-miterlimit="10" stroke-width="6">INSIDE NETWORK</text><text fill="rgb(255,255,255)" stroke="none" font-family="Helvetica Neue, Helvetica, sans-serif" font-size="14px" font-style="normal" font-weight="bold" text-decoration="normal" x="1313" y="549.5" text-anchor="middle" dominant-baseline="text-after-edge" fill-opacity="1">INSIDE NETWORK</text><path fill="rgb(234,179,8)" stroke="rgb(255,102,102)" paint-order="fill stroke markers" d=" M 607 461 L 606.9460533403297 462.3730341752373 L 606.7845459604149 463.73760313820407 L 606.5164736069594 465.08529386747836 L 606.1434890351652 466.4077974015616 L 605.6678918189475 467.69696006638907 L 605.0926141732964 468.94483374544205 L 604.4212028761966 470.1437248825291 L 603.6577974015615 471.2862419151183 L 602.8071043980005 472.36534084577823 L 601.8743686707646 473.37436867076457 L 600.8653408457782 474.30710439800055 L 599.7862419151182 475.1577974015616 L 598.6437248825291 475.9212028761966 L 597.4448337454421 476.59261417329645 L 596.1969600663891 477.1678918189475 L 594.9077974015615 477.6434890351652 L 593.5852938674783 478.0164736069593 L 592.237603138204 478.2845459604149 L 590.8730341752373 478.44605334032974 L 589.5 478.5 L 588.1269658247627 478.44605334032974 L 586.762396861796 478.2845459604149 L 585.4147061325217 478.0164736069593 L 584.0922025984385 477.6434890351652 L 582.8030399336109 477.1678918189475 L 581.5551662545579 476.59261417329645 L 580.3562751174709 475.9212028761966 L 579.2137580848818 475.1577974015616 L 578.1346591542218 474.30710439800055 L 577.1256313292354 473.37436867076457 L 576.1928956019995 472.36534084577823 L 575.3422025984385 471.2862419151183 L 574.5787971238034 470.1437248825291 L 573.9073858267036 468.94483374544205 L 573.3321081810525 467.69696006638907 L 572.8565109648348 466.4077974015616 L 572.4835263930406 465.08529386747836 L 572.2154540395851 463.73760313820407 L 572.0539466596703 462.3730341752373 L 572 461 L 572.0539466596703 459.6269658247627 L 572.2154540395851 458.26239686179593 L 572.4835263930406 456.91470613252164 L 572.8565109648348 455.5922025984384 L 573.3321081810525 454.30303993361093 L 573.9073858267036 453.05516625455795 L 574.5787971238034 451.8562751174709 L 575.3422025984385 450.7137580848817 L 576.1928956019995 449.63465915422177 L 577.1256313292354 448.62563132923543 L 578.1346591542218 447.69289560199945 L 579.2137580848818 446.8422025984384 L 580.3562751174709 446.0787971238034 L 581.5551662545579 445.40738582670355 L 582.803039933611 444.8321081810525 L 584.0922025984385 444.3565109648348 L 585.4147061325217 443.9835263930407 L 586.762396861796 443.7154540395851 L 588.1269658247628 443.55394665967026 L 589.5000000000001 443.5 L 590.8730341752373 443.55394665967026 L 592.2376031382041 443.7154540395851 L 593.5852938674784 443.9835263930407 L 594.9077974015617 444.35651096483485 L 596.1969600663891 444.8321081810525 L 597.4448337454421 445.4073858267036 L 598.6437248825292 446.07879712380344 L 599.7862419151184 446.8422025984385 L 600.8653408457783 447.69289560199957 L 601.8743686707646 448.6256313292355 L 602.8071043980007 449.6346591542219 L 603.6577974015617 450.7137580848818 L 604.4212028761967 451.85627511747106 L 605.0926141732965 453.05516625455806 L 605.6678918189476 454.3030399336111 L 606.1434890351652 455.5922025984386 L 606.5164736069594 456.9147061325218 L 606.7845459604149 458.26239686179616 L 606.9460533403297 459.6269658247629 Z" fill-opacity="0.25" stroke-opacity="0.25" stroke-miterlimit="10" stroke-width="2" stroke-dasharray="4,2"/><text fill="none" stroke="rgb(0,0,0)" font-family="Helvetica Neue, Helvetica, sans-serif" font-size="10px" font-style="normal" font-weight="normal" text-decoration="normal" x="589.5" y="443.5" text-anchor="middle" dominant-baseline="text-after-edge" stroke-opacity="0.25" stroke-linejoin="round" stroke-miterlimit="10" stroke-width="4">CVE-2026-24842</text><text fill="rgb(255,255,255)" stroke="none" font-family="Helvetica Neue, Helvetica, sans-serif" font-size="10px" font-style="normal" font-weight="normal" text-decoration="normal" x="589.5" y="443.5" text-anchor="middle" dominant-baseline="text-after-edge" fill-opacity="0.25">CVE-2026-24842</text><path fill="rgb(234,179,8)" stroke="rgb(0,0,0)" paint-order="fill stroke markers" d=" M 976 259 L 975.9460533403297 260.3730341752373 L 975.7845459604149 261.73760313820407 L 975.5164736069594 263.08529386747836 L 975.1434890351652 264.4077974015616 L 974.6678918189475 265.69696006638907 L 974.0926141732964 266.94483374544205 L 973.4212028761966 268.1437248825291 L 972.6577974015615 269.2862419151183 L 971.8071043980005 270.36534084577823 L 970.8743686707646 271.37436867076457 L 969.8653408457782 272.30710439800055 L 968.7862419151182 273.1577974015616 L 967.6437248825291 273.9212028761966 L 966.4448337454421 274.59261417329645 L 965.1969600663891 275.1678918189475 L 963.9077974015615 275.6434890351652 L 962.5852938674783 276.0164736069593 L 961.237603138204 276.2845459604149 L 959.8730341752373 276.44605334032974 L 958.5 276.5 L 957.1269658247627 276.44605334032974 L 955.762396861796 276.2845459604149 L 954.4147061325217 276.0164736069593 L 953.0922025984385 275.6434890351652 L 951.8030399336109 275.1678918189475 L 950.5551662545579 274.59261417329645 L 949.3562751174709 273.9212028761966 L 948.2137580848818 273.1577974015616 L 947.1346591542218 272.30710439800055 L 946.1256313292354 271.37436867076457 L 945.1928956019995 270.36534084577823 L 944.3422025984385 269.2862419151183 L 943.5787971238034 268.1437248825291 L 942.9073858267036 266.94483374544205 L 942.3321081810525 265.69696006638907 L 941.8565109648348 264.4077974015616 L 941.4835263930406 263.08529386747836 L 941.2154540395851 261.73760313820407 L 941.0539466596703 260.3730341752373 L 941 259 L 941.0539466596703 257.6269658247627 L 941.2154540395851 256.26239686179593 L 941.4835263930406 254.91470613252164 L 941.8565109648348 253.59220259843843 L 942.3321081810525 252.30303993361093 L 942.9073858267036 251.05516625455795 L 943.5787971238034 249.8562751174709 L 944.3422025984385 248.71375808488173 L 945.1928956019995 247.6346591542218 L 946.1256313292354 246.62563132923543 L 947.1346591542218 245.69289560199945 L 948.2137580848818 244.84220259843843 L 949.3562751174709 244.07879712380338 L 950.5551662545579 243.40738582670355 L 951.803039933611 242.8321081810525 L 953.0922025984385 242.3565109648348 L 954.4147061325217 241.98352639304065 L 955.762396861796 241.7154540395851 L 957.1269658247628 241.55394665967026 L 958.5000000000001 241.5 L 959.8730341752373 241.55394665967026 L 961.2376031382041 241.7154540395851 L 962.5852938674784 241.98352639304068 L 963.9077974015617 242.35651096483485 L 965.1969600663891 242.83210818105252 L 966.4448337454421 243.4073858267036 L 967.6437248825292 244.07879712380344 L 968.7862419151184 244.8422025984385 L 969.8653408457783 245.69289560199954 L 970.8743686707646 246.62563132923552 L 971.8071043980007 247.6346591542219 L 972.6577974015617 248.71375808488185 L 973.4212028761967 249.85627511747103 L 974.0926141732965 251.0551662545581 L 974.6678918189476 252.3030399336111 L 975.1434890351652 253.5922025984386 L 975.5164736069594 254.91470613252184 L 975.7845459604149 256.26239686179616 L 975.9460533403297 257.6269658247629 Z" fill-opacity="1" stroke-opacity="1" stroke-miterlimit="10" stroke-width="2"/><text fill="none" stroke="rgb(0,0,0)" font-family="Helvetica Neue, Helvetica, sans-serif" font-size="10px" font-style="normal" font-weight="normal" text-decoration="normal" x="958.5" y="241.5" text-anchor="middle" dominant-baseline="text-after-edge" stroke-opacity="1" stroke-linejoin="round" stroke-miterlimit="10" stroke-width="4">CVE-2026-31802</text><text fill="rgb(255,255,255)" stroke="none" font-family="Helvetica Neue, Helvetica, sans-serif" font-size="10px" font-style="normal" font-weight="normal" text-decoration="normal" x="958.5" y="241.5" text-anchor="middle" dominant-baseline="text-after-edge" fill-opacity="1">CVE-2026-31802</text><path fill="rgb(234,179,8)" stroke="rgb(255,102,102)" paint-order="fill stroke markers" d=" M 976 349 L 975.9460533403297 350.3730341752373 L 975.7845459604149 351.73760313820407 L 975.5164736069594 353.08529386747836 L 975.1434890351652 354.4077974015616 L 974.6678918189475 355.69696006638907 L 974.0926141732964 356.94483374544205 L 973.4212028761966 358.1437248825291 L 972.6577974015615 359.2862419151183 L 971.8071043980005 360.36534084577823 L 970.8743686707646 361.37436867076457 L 969.8653408457782 362.30710439800055 L 968.7862419151182 363.1577974015616 L 967.6437248825291 363.9212028761966 L 966.4448337454421 364.59261417329645 L 965.1969600663891 365.1678918189475 L 963.9077974015615 365.6434890351652 L 962.5852938674783 366.0164736069593 L 961.237603138204 366.2845459604149 L 959.8730341752373 366.44605334032974 L 958.5 366.5 L 957.1269658247627 366.44605334032974 L 955.762396861796 366.2845459604149 L 954.4147061325217 366.0164736069593 L 953.0922025984385 365.6434890351652 L 951.8030399336109 365.1678918189475 L 950.5551662545579 364.59261417329645 L 949.3562751174709 363.9212028761966 L 948.2137580848818 363.1577974015616 L 947.1346591542218 362.30710439800055 L 946.1256313292354 361.37436867076457 L 945.1928956019995 360.36534084577823 L 944.3422025984385 359.2862419151183 L 943.5787971238034 358.1437248825291 L 942.9073858267036 356.94483374544205 L 942.3321081810525 355.69696006638907 L 941.8565109648348 354.4077974015616 L 941.4835263930406 353.08529386747836 L 941.2154540395851 351.73760313820407 L 941.0539466596703 350.3730341752373 L 941 349 L 941.0539466596703 347.6269658247627 L 941.2154540395851 346.26239686179593 L 941.4835263930406 344.91470613252164 L 941.8565109648348 343.5922025984384 L 942.3321081810525 342.30303993361093 L 942.9073858267036 341.05516625455795 L 943.5787971238034 339.8562751174709 L 944.3422025984385 338.7137580848817 L 945.1928956019995 337.63465915422177 L 946.1256313292354 336.62563132923543 L 947.1346591542218 335.69289560199945 L 948.2137580848818 334.8422025984384 L 949.3562751174709 334.0787971238034 L 950.5551662545579 333.40738582670355 L 951.803039933611 332.8321081810525 L 953.0922025984385 332.3565109648348 L 954.4147061325217 331.9835263930407 L 955.762396861796 331.7154540395851 L 957.1269658247628 331.55394665967026 L 958.5000000000001 331.5 L 959.8730341752373 331.55394665967026 L 961.2376031382041 331.7154540395851 L 962.5852938674784 331.9835263930407 L 963.9077974015617 332.35651096483485 L 965.1969600663891 332.8321081810525 L 966.4448337454421 333.4073858267036 L 967.6437248825292 334.07879712380344 L 968.7862419151184 334.8422025984385 L 969.8653408457783 335.69289560199957 L 970.8743686707646 336.6256313292355 L 971.8071043980007 337.6346591542219 L 972.6577974015617 338.7137580848818 L 973.4212028761967 339.85627511747106 L 974.0926141732965 341.05516625455806 L 974.6678918189476 342.3030399336111 L 975.1434890351652 343.5922025984386 L 975.5164736069594 344.9147061325218 L 975.7845459604149 346.26239686179616 L 975.9460533403297 347.6269658247629 Z" fill-opacity="0.25" stroke-opacity="0.25" stroke-miterlimit="10" stroke-width="2" stroke-dasharray="4,2"/><text fill="none" stroke="rgb(0,0,0)" font-family="Helvetica Neue, Helvetica, sans-serif" font-size="10px" font-style="normal" font-weight="normal" text-decoration="normal" x="958.5" y="331.5" text-anchor="middle" dominant-baseline="text-after-edge" stroke-opacity="0.25" stroke-linejoin="round" stroke-miterlimit="10" stroke-width="4">CVE-2026-29786</text><text fill="rgb(255,255,255)" stroke="none" font-family="Helvetica Neue, Helvetica, sans-serif" font-size="10px" font-style="normal" font-weight="normal" text-decoration="normal" x="958.5" y="331.5" text-anchor="middle" dominant-baseline="text-after-edge" fill-opacity="0.25">CVE-2026-29786</text><path fill="rgb(234,179,8)" stroke="rgb(255,102,102)" paint-order="fill stroke markers" d=" M 976 707.75 L 975.9460533403297 709.1230341752373 L 975.7845459604149 710.487603138204 L 975.5164736069594 711.8352938674783 L 975.1434890351652 713.1577974015615 L 974.6678918189475 714.4469600663891 L 974.0926141732964 715.6948337454421 L 973.4212028761966 716.8937248825291 L 972.6577974015615 718.0362419151182 L 971.8071043980005 719.1153408457782 L 970.8743686707646 720.1243686707646 L 969.8653408457782 721.0571043980005 L 968.7862419151182 721.9077974015615 L 967.6437248825291 722.6712028761966 L 966.4448337454421 723.3426141732964 L 965.1969600663891 723.9178918189475 L 963.9077974015615 724.3934890351652 L 962.5852938674783 724.7664736069594 L 961.237603138204 725.0345459604149 L 959.8730341752373 725.1960533403297 L 958.5 725.25 L 957.1269658247627 725.1960533403297 L 955.762396861796 725.0345459604149 L 954.4147061325217 724.7664736069594 L 953.0922025984385 724.3934890351652 L 951.8030399336109 723.9178918189475 L 950.5551662545579 723.3426141732964 L 949.3562751174709 722.6712028761966 L 948.2137580848818 721.9077974015615 L 947.1346591542218 721.0571043980005 L 946.1256313292354 720.1243686707646 L 945.1928956019995 719.1153408457782 L 944.3422025984385 718.0362419151182 L 943.5787971238034 716.8937248825291 L 942.9073858267036 715.6948337454421 L 942.3321081810525 714.4469600663891 L 941.8565109648348 713.1577974015615 L 941.4835263930406 711.8352938674783 L 941.2154540395851 710.487603138204 L 941.0539466596703 709.1230341752373 L 941 707.75 L 941.0539466596703 706.3769658247627 L 941.2154540395851 705.012396861796 L 941.4835263930406 703.6647061325217 L 941.8565109648348 702.3422025984385 L 942.3321081810525 701.0530399336109 L 942.9073858267036 699.8051662545579 L 943.5787971238034 698.6062751174709 L 944.3422025984385 697.4637580848818 L 945.1928956019995 696.3846591542218 L 946.1256313292354 695.3756313292354 L 947.1346591542218 694.4428956019995 L 948.2137580848818 693.5922025984385 L 949.3562751174709 692.8287971238034 L 950.5551662545579 692.1573858267036 L 951.803039933611 691.5821081810525 L 953.0922025984385 691.1065109648348 L 954.4147061325217 690.7335263930406 L 955.762396861796 690.4654540395851 L 957.1269658247628 690.3039466596703 L 958.5000000000001 690.25 L 959.8730341752373 690.3039466596703 L 961.2376031382041 690.4654540395851 L 962.5852938674784 690.7335263930406 L 963.9077974015617 691.1065109648348 L 965.1969600663891 691.5821081810525 L 966.4448337454421 692.1573858267036 L 967.6437248825292 692.8287971238035 L 968.7862419151184 693.5922025984385 L 969.8653408457783 694.4428956019996 L 970.8743686707646 695.3756313292355 L 971.8071043980007 696.3846591542219 L 972.6577974015617 697.4637580848819 L 973.4212028761967 698.606275117471 L 974.0926141732965 699.8051662545581 L 974.6678918189476 701.0530399336111 L 975.1434890351652 702.3422025984386 L 975.5164736069594 703.6647061325218 L 975.7845459604149 705.0123968617961 L 975.9460533403297 706.3769658247629 Z" fill-opacity="0.25" stroke-opacity="0.25" stroke-miterlimit="10" stroke-width="2" stroke-dasharray="4,2"/><text fill="none" stroke="rgb(0,0,0)" font-family="Helvetica Neue, Helvetica, sans-serif" font-size="10px" font-style="normal" font-weight="normal" text-decoration="normal" x="958.5" y="690.25" text-anchor="middle" dominant-baseline="text-after-edge" stroke-opacity="0.25" stroke-linejoin="round" stroke-miterlimit="10" stroke-width="4">CVE-2025-64756</text><text fill="rgb(255,255,255)" stroke="none" font-family="Helvetica Neue, Helvetica, sans-serif" font-size="10px" font-style="normal" font-weight="normal" text-decoration="normal" x="958.5" y="690.25" text-anchor="middle" dominant-baseline="text-after-edge" fill-opacity="0.25">CVE-2025-64756</text><path fill="rgb(234,179,8)" stroke="rgb(255,102,102)" paint-order="fill stroke markers" d=" M 976 304 L 975.9460533403297 305.3730341752373 L 975.7845459604149 306.73760313820407 L 975.5164736069594 308.08529386747836 L 975.1434890351652 309.4077974015616 L 974.6678918189475 310.69696006638907 L 974.0926141732964 311.94483374544205 L 973.4212028761966 313.1437248825291 L 972.6577974015615 314.2862419151183 L 971.8071043980005 315.36534084577823 L 970.8743686707646 316.37436867076457 L 969.8653408457782 317.30710439800055 L 968.7862419151182 318.1577974015616 L 967.6437248825291 318.9212028761966 L 966.4448337454421 319.59261417329645 L 965.1969600663891 320.1678918189475 L 963.9077974015615 320.6434890351652 L 962.5852938674783 321.0164736069593 L 961.237603138204 321.2845459604149 L 959.8730341752373 321.44605334032974 L 958.5 321.5 L 957.1269658247627 321.44605334032974 L 955.762396861796 321.2845459604149 L 954.4147061325217 321.0164736069593 L 953.0922025984385 320.6434890351652 L 951.8030399336109 320.1678918189475 L 950.5551662545579 319.59261417329645 L 949.3562751174709 318.9212028761966 L 948.2137580848818 318.1577974015616 L 947.1346591542218 317.30710439800055 L 946.1256313292354 316.37436867076457 L 945.1928956019995 315.36534084577823 L 944.3422025984385 314.2862419151183 L 943.5787971238034 313.1437248825291 L 942.9073858267036 311.94483374544205 L 942.3321081810525 310.69696006638907 L 941.8565109648348 309.4077974015616 L 941.4835263930406 308.08529386747836 L 941.2154540395851 306.73760313820407 L 941.0539466596703 305.3730341752373 L 941 304 L 941.0539466596703 302.6269658247627 L 941.2154540395851 301.26239686179593 L 941.4835263930406 299.91470613252164 L 941.8565109648348 298.5922025984384 L 942.3321081810525 297.30303993361093 L 942.9073858267036 296.05516625455795 L 943.5787971238034 294.8562751174709 L 944.3422025984385 293.7137580848817 L 945.1928956019995 292.63465915422177 L 946.1256313292354 291.62563132923543 L 947.1346591542218 290.69289560199945 L 948.2137580848818 289.8422025984384 L 949.3562751174709 289.0787971238034 L 950.5551662545579 288.40738582670355 L 951.803039933611 287.8321081810525 L 953.0922025984385 287.3565109648348 L 954.4147061325217 286.9835263930407 L 955.762396861796 286.7154540395851 L 957.1269658247628 286.55394665967026 L 958.5000000000001 286.5 L 959.8730341752373 286.55394665967026 L 961.2376031382041 286.7154540395851 L 962.5852938674784 286.9835263930407 L 963.9077974015617 287.35651096483485 L 965.1969600663891 287.8321081810525 L 966.4448337454421 288.4073858267036 L 967.6437248825292 289.07879712380344 L 968.7862419151184 289.8422025984385 L 969.8653408457783 290.69289560199957 L 970.8743686707646 291.6256313292355 L 971.8071043980007 292.6346591542219 L 972.6577974015617 293.7137580848818 L 973.4212028761967 294.85627511747106 L 974.0926141732965 296.05516625455806 L 974.6678918189476 297.3030399336111 L 975.1434890351652 298.5922025984386 L 975.5164736069594 299.9147061325218 L 975.7845459604149 301.26239686179616 L 975.9460533403297 302.6269658247629 Z" fill-opacity="0.25" stroke-opacity="0.25" stroke-miterlimit="10" stroke-width="2" stroke-dasharray="4,2"/><text fill="none" stroke="rgb(0,0,0)" font-family="Helvetica Neue, Helvetica, sans-serif" font-size="10px" font-style="normal" font-weight="normal" text-decoration="normal" x="958.5" y="286.5" text-anchor="middle" dominant-baseline="text-after-edge" stroke-opacity="0.25" stroke-linejoin="round" stroke-miterlimit="10" stroke-width="4">CVE-2026-23745</text><text fill="rgb(255,255,255)" stroke="none" font-family="Helvetica Neue, Helvetica, sans-serif" font-size="10px" font-style="normal" font-weight="normal" text-decoration="normal" x="958.5" y="286.5" text-anchor="middle" dominant-baseline="text-after-edge" fill-opacity="0.25">CVE-2026-23745</text><path fill="rgb(255,0,0)" stroke="rgb(255,215,0)" paint-order="fill stroke markers" d=" M 1154 301.75 L 1144.7343318831333 315.97991935488204 L 1129 320.84830056250524 L 1139.0078340584334 334.51125558861554 L 1138.5491502812527 351.75 L 1154 345.9642512380153 L 1169.4508497187473 351.75 L 1168.9921659415666 334.51125558861554 L 1179 320.84830056250524 L 1163.2656681168667 315.97991935488204 Z" fill-opacity="1" stroke-opacity="1" stroke-miterlimit="10" stroke-width="4"/><text fill="none" stroke="rgb(0,0,0)" font-family="Helvetica Neue, Helvetica, sans-serif" font-size="10px" font-style="normal" font-weight="bold" text-decoration="normal" x="1154" y="301.75" text-anchor="middle" dominant-baseline="text-after-edge" stroke-opacity="1" stroke-linejoin="round" stroke-miterlimit="10" stroke-width="4">EXPLOITED</text><text fill="rgb(255,255,255)" stroke="none" font-family="Helvetica Neue, Helvetica, sans-serif" font-size="10px" font-style="normal" font-weight="bold" text-decoration="normal" x="1154" y="301.75" text-anchor="middle" dominant-baseline="text-after-edge" fill-opacity="1">EXPLOITED</text><path fill="rgb(234,179,8)" stroke="rgb(255,102,102)" paint-order="fill stroke markers" d=" M 976 214 L 975.9460533403297 215.37303417523728 L 975.7845459604149 216.73760313820404 L 975.5164736069594 218.08529386747836 L 975.1434890351652 219.40779740156157 L 974.6678918189475 220.69696006638907 L 974.0926141732964 221.94483374544205 L 973.4212028761966 223.1437248825291 L 972.6577974015615 224.28624191511827 L 971.8071043980005 225.3653408457782 L 970.8743686707646 226.37436867076457 L 969.8653408457782 227.30710439800055 L 968.7862419151182 228.1577974015616 L 967.6437248825291 228.92120287619662 L 966.4448337454421 229.59261417329643 L 965.1969600663891 230.1678918189475 L 963.9077974015615 230.64348903516517 L 962.5852938674783 231.01647360695935 L 961.237603138204 231.2845459604149 L 959.8730341752373 231.44605334032974 L 958.5 231.5 L 957.1269658247627 231.44605334032974 L 955.762396861796 231.2845459604149 L 954.4147061325217 231.01647360695935 L 953.0922025984385 230.6434890351652 L 951.8030399336109 230.1678918189475 L 950.5551662545579 229.59261417329643 L 949.3562751174709 228.92120287619662 L 948.2137580848818 228.1577974015616 L 947.1346591542218 227.30710439800055 L 946.1256313292354 226.37436867076457 L 945.1928956019995 225.3653408457782 L 944.3422025984385 224.2862419151183 L 943.5787971238034 223.1437248825291 L 942.9073858267036 221.94483374544208 L 942.3321081810525 220.69696006638907 L 941.8565109648348 219.4077974015616 L 941.4835263930406 218.08529386747836 L 941.2154540395851 216.73760313820404 L 941.0539466596703 215.37303417523728 L 941 214 L 941.0539466596703 212.62696582476272 L 941.2154540395851 211.26239686179596 L 941.4835263930406 209.91470613252164 L 941.8565109648348 208.59220259843843 L 942.3321081810525 207.30303993361093 L 942.9073858267036 206.05516625455795 L 943.5787971238034 204.8562751174709 L 944.3422025984385 203.71375808488173 L 945.1928956019995 202.6346591542218 L 946.1256313292354 201.62563132923543 L 947.1346591542218 200.69289560199945 L 948.2137580848818 199.84220259843843 L 949.3562751174709 199.07879712380338 L 950.5551662545579 198.40738582670355 L 951.803039933611 197.8321081810525 L 953.0922025984385 197.3565109648348 L 954.4147061325217 196.98352639304065 L 955.762396861796 196.7154540395851 L 957.1269658247628 196.55394665967026 L 958.5000000000001 196.5 L 959.8730341752373 196.55394665967026 L 961.2376031382041 196.7154540395851 L 962.5852938674784 196.98352639304068 L 963.9077974015617 197.35651096483485 L 965.1969600663891 197.83210818105252 L 966.4448337454421 198.4073858267036 L 967.6437248825292 199.07879712380344 L 968.7862419151184 199.8422025984385 L 969.8653408457783 200.69289560199954 L 970.8743686707646 201.62563132923552 L 971.8071043980007 202.6346591542219 L 972.6577974015617 203.71375808488185 L 973.4212028761967 204.85627511747103 L 974.0926141732965 206.0551662545581 L 974.6678918189476 207.3030399336111 L 975.1434890351652 208.5922025984386 L 975.5164736069594 209.91470613252184 L 975.7845459604149 211.26239686179616 L 975.9460533403297 212.62696582476292 Z" fill-opacity="0.25" stroke-opacity="0.25" stroke-miterlimit="10" stroke-width="2" stroke-dasharray="4,2"/><text fill="none" stroke="rgb(0,0,0)" font-family="Helvetica Neue, Helvetica, sans-serif" font-size="10px" font-style="normal" font-weight="normal" text-decoration="normal" x="958.5" y="196.5" text-anchor="middle" dominant-baseline="text-after-edge" stroke-opacity="0.25" stroke-linejoin="round" stroke-miterlimit="10" stroke-width="4">CVE-2026-26960</text><text fill="rgb(255,255,255)" stroke="none" font-family="Helvetica Neue, Helvetica, sans-serif" font-size="10px" font-style="normal" font-weight="normal" text-decoration="normal" x="958.5" y="196.5" text-anchor="middle" dominant-baseline="text-after-edge" fill-opacity="0.25">CVE-2026-26960</text><g transform="scale(0.6249999906867744,0.6249999906867744) translate(51.20000076293945,250.40000373125076)"/></g></g></svg>