<svg version="1.1" xmlns="http://www.w3.org/2000/svg" xmlns:xlink="http://www.w3.org/1999/xlink" width="2498" height="1926"><defs/><g><rect fill="#ffffff" stroke="none" x="0" y="0" width="2498" height="1926"/><g transform="translate(-64,-212) scale(2,2)"><path fill="rgb(100,100,100)" stroke="rgb(136,136,136)" paint-order="fill stroke markers" d=" M 139.5 522.5 L 237 522.5 L 237 522.5 A 8 8 0 0 1 245 530.5 L 245 770.5 L 245 770.5 A 8 8 0 0 1 237 778.5 L 42 778.5 L 42 778.5 A 8 8 0 0 1 34 770.5 L 34 530.5 L 34 530.5 A 8 8 0 0 1 42 522.5 L 139.5 522.5 Z" fill-opacity="1" stroke-opacity="1" stroke-miterlimit="10" stroke-width="2" stroke-dasharray="4,2"/><text fill="none" stroke="rgb(0,0,0)" font-family="Helvetica Neue, Helvetica, sans-serif" font-size="12px" font-style="normal" font-weight="normal" text-decoration="normal" x="139.5" y="522.5" text-anchor="middle" dominant-baseline="text-after-edge" stroke-opacity="1" stroke-linejoin="round" stroke-miterlimit="10" stroke-width="4">Initial State</text><text fill="rgb(204,204,204)" stroke="none" font-family="Helvetica Neue, Helvetica, sans-serif" font-size="12px" font-style="normal" font-weight="normal" text-decoration="normal" x="139.5" y="522.5" text-anchor="middle" dominant-baseline="text-after-edge" fill-opacity="1">Initial State</text><path fill="rgb(234,179,8)" stroke="rgb(234,179,8)" paint-order="fill stroke markers" d=" M 589.5 767 L 636.5 767 L 636.5 767 A 8 8 0 0 1 644.5 775 L 644.5 1059 L 644.5 1059 A 8 8 0 0 1 636.5 1067 L 542.5 1067 L 542.5 1067 A 8 8 0 0 1 534.5 1059 L 534.5 775 L 534.5 775 A 8 8 0 0 1 542.5 767 L 589.5 767 Z" fill-opacity="1" stroke-opacity="1" stroke-miterlimit="10" stroke-width="2" stroke-dasharray="4,2"/><text fill="none" stroke="rgb(0,0,0)" font-family="Helvetica Neue, Helvetica, sans-serif" font-size="10px" font-style="normal" font-weight="normal" text-decoration="normal" x="589.5" y="767" text-anchor="middle" dominant-baseline="text-after-edge" stroke-opacity="1" stroke-linejoin="round" stroke-miterlimit="10" stroke-width="2">AV:N / AC:L / PR:N / UI:N (×6)</text><text fill="rgb(234,179,8)" stroke="none" font-family="Helvetica Neue, Helvetica, sans-serif" font-size="10px" font-style="normal" font-weight="normal" text-decoration="normal" x="589.5" y="767" text-anchor="middle" dominant-baseline="text-after-edge" fill-opacity="1">AV:N / AC:L / PR:N / UI:N (×6)</text><path fill="none" stroke="rgb(203,143,255)" paint-order="fill stroke markers" d=" M 607.4955631026507 1031.2093463646531 L 1029.1524812506464 930.6743545780214" stroke-opacity="0.9" stroke-linejoin="round" stroke-miterlimit="10" stroke-width="3" stroke-dasharray="6,3"/><path fill="rgb(255,255,255)" stroke="none" paint-order="stroke fill markers" d=" M 1027.5349851931653 935.5319472435331 L 1034.9888800947492 929.2827912368278 L 1025.5172183484347 927.0691689195838 Z" fill-opacity="1"/><path fill="rgb(203,143,255)" stroke="none" paint-order="stroke fill markers" d=" M 1027.5349851931653 935.5319472435331 L 1034.9888800947492 929.2827912368278 L 1025.5172183484347 927.0691689195838 Z" fill-opacity="0.9"/><path fill="none" stroke="rgb(0,255,255)" paint-order="fill stroke markers" d=" M 784.7607734583895 870.1591489082406 L 893.3676623241398 750.6511968477867" stroke-opacity="0.7" stroke-linejoin="round" stroke-miterlimit="10" stroke-width="2"/><path fill="rgb(255,255,255)" stroke="none" paint-order="stroke fill markers" d=" M 893.42591651131 757.0550321399907 L 896.0578556887372 747.6909840748468 L 886.9874537301658 751.2038615719914 Z" fill-opacity="1"/><path fill="rgb(0,255,255)" stroke="none" paint-order="stroke fill markers" d=" M 893.42591651131 757.0550321399907 L 896.0578556887372 747.6909840748468 L 886.9874537301658 751.2038615719914 Z" fill-opacity="0.7"/><path fill="none" stroke="rgb(203,143,255)" paint-order="fill stroke markers" d=" M 598.9099565746758 154.4280481309769 L 1042.58497216262 905.4280072397418" stroke-opacity="0.9" stroke-linejoin="round" stroke-miterlimit="10" stroke-width="3" stroke-dasharray="6,3"/><path fill="rgb(255,255,255)" stroke="none" paint-order="stroke fill markers" d=" M 1037.4663833993025 905.3159845989959 L 1045.636849970623 910.5938606876261 L 1044.956870898735 900.8907617773916 Z" fill-opacity="1"/><path fill="rgb(203,143,255)" stroke="none" paint-order="stroke fill markers" d=" M 1037.4663833993025 905.3159845989959 L 1045.636849970623 910.5938606876261 L 1044.956870898735 900.8907617773916 Z" fill-opacity="0.9"/><path fill="none" stroke="rgb(203,143,255)" paint-order="fill stroke markers" d=" M 606.7499702250973 1028.8150521891898 L 753.4865218944789 971.9496676669094" stroke-opacity="0.9" stroke-linejoin="round" stroke-miterlimit="10" stroke-width="3" stroke-dasharray="6,3"/><path fill="rgb(255,255,255)" stroke="none" paint-order="stroke fill markers" d=" M 752.5408247793038 976.9813827787126 L 759.0811068323483 969.781576485025 L 749.3970925655715 968.8692346188019 Z" fill-opacity="1"/><path fill="rgb(203,143,255)" stroke="none" paint-order="stroke fill markers" d=" M 752.5408247793038 976.9813827787126 L 759.0811068323483 969.781576485025 L 749.3970925655715 968.8692346188019 Z" fill-opacity="0.9"/><path fill="none" stroke="rgb(203,143,255)" paint-order="fill stroke markers" d=" M 603.7215663756062 1023.6679651021379 L 757.0878670127926 896.0705279866468" stroke-opacity="0.9" stroke-linejoin="round" stroke-miterlimit="10" stroke-width="3" stroke-dasharray="6,3"/><path fill="rgb(255,255,255)" stroke="none" paint-order="stroke fill markers" d=" M 757.7944141799042 901.1413554438423 L 761.7002669183946 892.2331112630159 L 752.2301599306393 894.4533755807192 Z" fill-opacity="1"/><path fill="rgb(203,143,255)" stroke="none" paint-order="stroke fill markers" d=" M 757.7944141799042 901.1413554438423 L 761.7002669183946 892.2331112630159 L 752.2301599306393 894.4533755807192 Z" fill-opacity="0.9"/><path fill="none" stroke="rgb(203,143,255)" paint-order="fill stroke markers" d=" M 593.5352102031991 156.55455838883904 L 769.2013716502498 942.5297143484075" stroke-opacity="0.9" stroke-linejoin="round" stroke-miterlimit="10" stroke-width="3" stroke-dasharray="6,3"/><path fill="rgb(255,255,255)" stroke="none" paint-order="stroke fill markers" d=" M 764.3671880534883 940.84354444214 L 770.5100884729089 948.3852467988419 L 772.857710106618 938.9459050492843 Z" fill-opacity="1"/><path fill="rgb(203,143,255)" stroke="none" paint-order="stroke fill markers" d=" M 764.3671880534883 940.84354444214 L 770.5100884729089 948.3852467988419 L 772.857710106618 938.9459050492843 Z" fill-opacity="0.9"/><path fill="none" stroke="rgb(255,0,102)" paint-order="fill stroke markers" d=" M 79.4447463715879 737.8259700828465 L 182.3918421738333 671.4084889201075" stroke-opacity="0.7" stroke-linejoin="round" stroke-miterlimit="10" stroke-width="2"/><path fill="rgb(255,255,255)" stroke="none" paint-order="stroke fill markers" d=" M 180.80069981090543 677.6117756280469 L 185.75302876673027 669.2399814408192 L 176.08419604345323 670.3011947884959 Z" fill-opacity="1"/><path fill="rgb(255,0,102)" stroke="none" paint-order="stroke fill markers" d=" M 180.80069981090543 677.6117756280469 L 185.75302876673027 669.2399814408192 L 176.08419604345323 670.3011947884959 Z" fill-opacity="0.7"/><path fill="none" stroke="rgb(0,255,136)" paint-order="fill stroke markers" d=" M 1070.637406738507 657.6392262196623 L 1198.0485310992917 850.1582364566342" stroke-opacity="0.25" stroke-linejoin="round" stroke-miterlimit="10" stroke-width="2"/><path fill="rgb(255,255,255)" stroke="none" paint-order="stroke fill markers" d=" M 1191.8271030827902 848.6395747314662 L 1200.2561051972448 853.4938948027552 L 1199.0821599856033 843.8381010684182 Z" fill-opacity="1"/><path fill="rgb(0,255,136)" stroke="none" paint-order="stroke fill markers" d=" M 1191.8271030827902 848.6395747314662 L 1200.2561051972448 853.4938948027552 L 1199.0821599856033 843.8381010684182 Z" fill-opacity="0.25"/><path fill="none" stroke="rgb(255,0,102)" paint-order="fill stroke markers" d=" M 81.2273378841688 696.5879555212359 L 179.32801301158483 664.9425764478758" stroke-opacity="0.7" stroke-linejoin="round" stroke-miterlimit="10" stroke-width="2"/><path fill="rgb(255,255,255)" stroke="none" paint-order="stroke fill markers" d=" M 176.19044460077424 670.5254220007712 L 183.13484748262704 663.7145653281848 L 173.51952041544624 662.2455570262543 Z" fill-opacity="1"/><path fill="rgb(255,0,102)" stroke="none" paint-order="stroke fill markers" d=" M 176.19044460077424 670.5254220007712 L 183.13484748262704 663.7145653281848 L 173.51952041544624 662.2455570262543 Z" fill-opacity="0.7"/><path fill="none" stroke="rgb(255,0,102)" paint-order="fill stroke markers" d=" M 81.2273378841688 616.4120444787641 L 179.32801301158483 648.0574235521242" stroke-opacity="0.7" stroke-linejoin="round" stroke-miterlimit="10" stroke-width="2"/><path fill="rgb(255,255,255)" stroke="none" paint-order="stroke fill markers" d=" M 173.51952041544624 650.7544429737457 L 183.13484748262704 649.2854346718152 L 176.19044460077424 642.4745779992288 Z" fill-opacity="1"/><path fill="rgb(255,0,102)" stroke="none" paint-order="stroke fill markers" d=" M 173.51952041544624 650.7544429737457 L 183.13484748262704 649.2854346718152 L 176.19044460077424 642.4745779992288 Z" fill-opacity="0.7"/><path fill="none" stroke="rgb(203,143,255)" paint-order="fill stroke markers" d=" M 605.4468938329541 981.1220163638184 L 755.0361262527033 893.1521967565404" stroke-opacity="0.9" stroke-linejoin="round" stroke-miterlimit="10" stroke-width="3" stroke-dasharray="6,3"/><path fill="rgb(255,255,255)" stroke="none" paint-order="stroke fill markers" d=" M 754.9138351969419 898.2705504857859 L 760.2080918201478 890.1106885502112 L 750.5036482977646 890.7712004129912 Z" fill-opacity="1"/><path fill="rgb(203,143,255)" stroke="none" paint-order="stroke fill markers" d=" M 754.9138351969419 898.2705504857859 L 760.2080918201478 890.1106885502112 L 750.5036482977646 890.7712004129912 Z" fill-opacity="0.9"/><path fill="none" stroke="rgb(203,143,255)" paint-order="fill stroke markers" d=" M 607.4645690135624 814.918626501183 L 1021.6547274453078 916.794246739777" stroke-opacity="0.9" stroke-linejoin="round" stroke-miterlimit="10" stroke-width="3" stroke-dasharray="6,3"/><path fill="rgb(255,255,255)" stroke="none" paint-order="stroke fill markers" d=" M 1017.9938970876449 920.3734674779284 L 1027.481074152409 918.2273147942147 L 1020.0718457665795 911.9252647526316 Z" fill-opacity="1"/><path fill="rgb(203,143,255)" stroke="none" paint-order="stroke fill markers" d=" M 1017.9938970876449 920.3734674779284 L 1027.481074152409 918.2273147942147 L 1020.0718457665795 911.9252647526316 Z" fill-opacity="0.9"/><path fill="none" stroke="rgb(255,102,0)" paint-order="fill stroke markers" d=" M 229 656.5 L 375 656.5" stroke-opacity="0.7" stroke-linejoin="round" stroke-miterlimit="10" stroke-width="2"/><path fill="rgb(255,255,255)" stroke="none" paint-order="stroke fill markers" d=" M 370.3 660.85 L 379 656.5 L 370.3 652.15 Z" fill-opacity="1"/><path fill="rgb(255,102,0)" stroke="none" paint-order="stroke fill markers" d=" M 370.3 660.85 L 379 656.5 L 370.3 652.15 Z" fill-opacity="0.7"/><path fill="none" stroke="rgb(203,143,255)" paint-order="fill stroke markers" d=" M 606.7499702250973 817.1849478108101 L 753.4865218944789 874.0503323330906" stroke-opacity="0.9" stroke-linejoin="round" stroke-miterlimit="10" stroke-width="3" stroke-dasharray="6,3"/><path fill="rgb(255,255,255)" stroke="none" paint-order="stroke fill markers" d=" M 749.3970925655715 877.130765381198 L 759.0811068323483 876.218423514975 L 752.5408247793038 869.0186172212874 Z" fill-opacity="1"/><path fill="rgb(203,143,255)" stroke="none" paint-order="stroke fill markers" d=" M 749.3970925655715 877.130765381198 L 759.0811068323483 876.218423514975 L 752.5408247793038 869.0186172212874 Z" fill-opacity="0.9"/><path fill="none" stroke="rgb(203,143,255)" paint-order="fill stroke markers" d=" M 607.812075312544 858.1301896790375 L 752.2234780067045 878.8722068681716" stroke-opacity="0.9" stroke-linejoin="round" stroke-miterlimit="10" stroke-width="3" stroke-dasharray="6,3"/><path fill="rgb(255,255,255)" stroke="none" paint-order="stroke fill markers" d=" M 748.9324548473703 882.794153650667 L 758.1625294594214 879.7252413586702 L 750.1693548585934 874.1825290442274 Z" fill-opacity="1"/><path fill="rgb(203,143,255)" stroke="none" paint-order="stroke fill markers" d=" M 748.9324548473703 882.794153650667 L 758.1625294594214 879.7252413586702 L 750.1693548585934 874.1825290442274 Z" fill-opacity="0.9"/><path fill="none" stroke="rgb(255,153,119)" paint-order="fill stroke markers" d=" M 420.76026902218734 659.6640528008251 L 884.2796861407815 730.3086050657041" stroke-opacity="0.9" stroke-linejoin="round" stroke-miterlimit="10" stroke-width="3" stroke-dasharray="6,3"/><path fill="rgb(255,255,255)" stroke="none" paint-order="stroke fill markers" d=" M 880.9550977577578 734.2021397173369 L 890.211191575692 731.2126201516542 L 882.2659196323854 725.6014568367165 Z" fill-opacity="1"/><path fill="rgb(255,153,119)" stroke="none" paint-order="stroke fill markers" d=" M 880.9550977577578 734.2021397173369 L 890.211191575692 731.2126201516542 L 882.2659196323854 725.6014568367165 Z" fill-opacity="0.9"/><path fill="none" stroke="rgb(203,143,255)" paint-order="fill stroke markers" d=" M 606.9929236746007 906.5205997470848 L 753.1976042788533 956.8403678683317" stroke-opacity="0.9" stroke-linejoin="round" stroke-miterlimit="10" stroke-width="3" stroke-dasharray="6,3"/><path fill="rgb(255,255,255)" stroke="none" paint-order="stroke fill markers" d=" M 749.2289284506782 960.0748867152173 L 758.8709849300751 958.7929948133321 L 752.0602375209288 951.8484847709457 Z" fill-opacity="1"/><path fill="rgb(203,143,255)" stroke="none" paint-order="stroke fill markers" d=" M 749.2289284506782 960.0748867152173 L 758.8709849300751 958.7929948133321 L 752.0602375209288 951.8484847709457 Z" fill-opacity="0.9"/><path fill="none" stroke="rgb(203,143,255)" paint-order="fill stroke markers" d=" M 607.9076934419309 947.3457578790012 L 752.1097699609471 961.8050446844311" stroke-opacity="0.9" stroke-linejoin="round" stroke-miterlimit="10" stroke-width="3" stroke-dasharray="6,3"/><path fill="rgb(255,255,255)" stroke="none" paint-order="stroke fill markers" d=" M 748.9892392005759 965.8639592897875 L 758.0798326988706 962.4036688614044 L 749.8572442571872 957.2073683197984 Z" fill-opacity="1"/><path fill="rgb(203,143,255)" stroke="none" paint-order="stroke fill markers" d=" M 748.9892392005759 965.8639592897875 L 758.0798326988706 962.4036688614044 L 749.8572442571872 957.2073683197984 Z" fill-opacity="0.9"/><path fill="none" stroke="rgb(255,153,119)" paint-order="fill stroke markers" d=" M 407.214802662238 636.7782702953072 L 581.082730227389 161.50868465547495" stroke-opacity="0.9" stroke-linejoin="round" stroke-miterlimit="10" stroke-width="3" stroke-dasharray="6,3"/><path fill="rgb(255,255,255)" stroke="none" paint-order="stroke fill markers" d=" M 584.2403281810733 165.53883045468478 L 583.1441024165998 155.87390473984846 L 576.0698973034148 162.54984078032905 Z" fill-opacity="1"/><path fill="rgb(255,153,119)" stroke="none" paint-order="stroke fill markers" d=" M 584.2403281810733 165.53883045468478 L 583.1441024165998 155.87390473984846 L 576.0698973034148 162.54984078032905 Z" fill-opacity="0.9"/><path fill="none" stroke="rgb(203,143,255)" paint-order="fill stroke markers" d=" M 607.974840203456 901.4645099568005 L 1024.7889537032302 923.2249884333764" stroke-opacity="0.9" stroke-linejoin="round" stroke-miterlimit="10" stroke-width="3" stroke-dasharray="6,3"/><path fill="rgb(255,255,255)" stroke="none" paint-order="stroke fill markers" d=" M 1021.8658354945052 927.4283061631966 L 1030.780793769216 923.5378024734198 L 1022.3194158525681 918.7401380675173 Z" fill-opacity="1"/><path fill="rgb(203,143,255)" stroke="none" paint-order="stroke fill markers" d=" M 1021.8658354945052 927.4283061631966 L 1030.780793769216 923.5378024734198 L 1022.3194158525681 918.7401380675173 Z" fill-opacity="0.9"/><path fill="none" stroke="rgb(203,143,255)" paint-order="fill stroke markers" d=" M 923.6729176462247 723.4154560749704 L 1032.808541084173 647.2830452230684" stroke-opacity="0.9" stroke-linejoin="round" stroke-miterlimit="10" stroke-width="3" stroke-dasharray="6,3"/><path fill="rgb(255,255,255)" stroke="none" paint-order="stroke fill markers" d=" M 1033.0829134316903 652.3955025397526 L 1037.7294873478133 643.850220166302 L 1028.1053170993791 645.2601304574739 Z" fill-opacity="1"/><path fill="rgb(203,143,255)" stroke="none" paint-order="stroke fill markers" d=" M 1033.0829134316903 652.3955025397526 L 1037.7294873478133 643.850220166302 L 1028.1053170993791 645.2601304574739 Z" fill-opacity="0.9"/><path fill="none" stroke="rgb(255,153,119)" paint-order="fill stroke markers" d=" M 416.29707862158364 669.744063893002 L 570.4867416081524 795.048592124831" stroke-opacity="0.9" stroke-linejoin="round" stroke-miterlimit="10" stroke-width="3" stroke-dasharray="6,3"/><path fill="rgb(255,255,255)" stroke="none" paint-order="stroke fill markers" d=" M 565.6479896932555 796.7216073387731 L 575.1430497857477 798.8326103799744 L 571.1348161632135 789.9699604812598 Z" fill-opacity="1"/><path fill="rgb(255,153,119)" stroke="none" paint-order="stroke fill markers" d=" M 565.6479896932555 796.7216073387731 L 575.1430497857477 798.8326103799744 L 571.1348161632135 789.9699604812598 Z" fill-opacity="0.9"/><path fill="none" stroke="rgb(203,143,255)" paint-order="fill stroke markers" d=" M 593.9556494981923 156.4554222325529 L 768.7013897859334 860.6476059937207" stroke-opacity="0.9" stroke-linejoin="round" stroke-miterlimit="10" stroke-width="3" stroke-dasharray="6,3"/><path fill="rgb(255,255,255)" stroke="none" paint-order="stroke fill markers" d=" M 763.8291551720564 859.0747646580043 L 770.1464652988607 866.4709861772515 L 772.2730564381759 856.9794051642597 Z" fill-opacity="1"/><path fill="rgb(203,143,255)" stroke="none" paint-order="stroke fill markers" d=" M 763.8291551720564 859.0747646580043 L 770.1464652988607 866.4709861772515 L 772.2730564381759 856.9794051642597 Z" fill-opacity="0.9"/><path fill="none" stroke="rgb(203,143,255)" paint-order="fill stroke markers" d=" M 607.981568652111 944.6743970946582 L 1026.3822338995678 925.9837322854337" stroke-opacity="0.9" stroke-linejoin="round" stroke-miterlimit="10" stroke-width="3" stroke-dasharray="6,3"/><path fill="rgb(255,255,255)" stroke="none" paint-order="stroke fill markers" d=" M 1023.8790521307861 930.4498918249529 L 1032.3762561651174 925.7159691809985 L 1023.4907956293551 921.7585595399062 Z" fill-opacity="1"/><path fill="rgb(203,143,255)" stroke="none" paint-order="stroke fill markers" d=" M 1023.8790521307861 930.4498918249529 L 1032.3762561651174 925.7159691809985 L 1023.4907956293551 921.7585595399062 Z" fill-opacity="0.9"/><path fill="none" stroke="rgb(203,143,255)" paint-order="fill stroke markers" d=" M 606.9929236746007 939.4794002529152 L 753.1976042788533 889.1596321316683" stroke-opacity="0.9" stroke-linejoin="round" stroke-miterlimit="10" stroke-width="3" stroke-dasharray="6,3"/><path fill="rgb(255,255,255)" stroke="none" paint-order="stroke fill markers" d=" M 752.0602375209288 894.1515152290543 L 758.8709849300751 887.2070051866679 L 749.2289284506782 885.9251132847827 Z" fill-opacity="1"/><path fill="rgb(203,143,255)" stroke="none" paint-order="stroke fill markers" d=" M 752.0602375209288 894.1515152290543 L 758.8709849300751 887.2070051866679 L 749.2289284506782 885.9251132847827 Z" fill-opacity="0.9"/><path fill="none" stroke="rgb(255,153,119)" paint-order="fill stroke markers" d=" M 414.4818044639028 671.7078052153913 L 572.60456145878 837.7575605820434" stroke-opacity="0.9" stroke-linejoin="round" stroke-miterlimit="10" stroke-width="3" stroke-dasharray="6,3"/><path fill="rgb(255,255,255)" stroke="none" paint-order="stroke fill markers" d=" M 567.5924269473758 838.8020736933015 L 576.742219877038 842.1026477864409 L 573.8928033937522 832.8024689868275 Z" fill-opacity="1"/><path fill="rgb(255,153,119)" stroke="none" paint-order="stroke fill markers" d=" M 567.5924269473758 838.8020736933015 L 576.742219877038 842.1026477864409 L 573.8928033937522 832.8024689868275 Z" fill-opacity="0.9"/><path fill="none" stroke="rgb(203,143,255)" paint-order="fill stroke markers" d=" M 603.7215663756062 822.3320348978621 L 757.0878670127926 949.9294720133532" stroke-opacity="0.9" stroke-linejoin="round" stroke-miterlimit="10" stroke-width="3" stroke-dasharray="6,3"/><path fill="rgb(255,255,255)" stroke="none" paint-order="stroke fill markers" d=" M 752.2301599306393 951.5466244192808 L 761.7002669183946 953.7668887369841 L 757.7944141799042 944.8586445561577 Z" fill-opacity="1"/><path fill="rgb(203,143,255)" stroke="none" paint-order="stroke fill markers" d=" M 752.2301599306393 951.5466244192808 L 761.7002669183946 953.7668887369841 L 757.7944141799042 944.8586445561577 Z" fill-opacity="0.9"/><path fill="none" stroke="rgb(255,153,119)" paint-order="fill stroke markers" d=" M 412.8809849863461 673.0855426737121 L 574.4721841825963 881.1502002140026" stroke-opacity="0.9" stroke-linejoin="round" stroke-miterlimit="10" stroke-width="3" stroke-dasharray="6,3"/><path fill="rgb(255,255,255)" stroke="none" paint-order="stroke fill markers" d=" M 569.380480844797 881.685977331697 L 578.1524656072665 885.888926692206 L 576.2516342381921 876.3495692659251 Z" fill-opacity="1"/><path fill="rgb(255,153,119)" stroke="none" paint-order="stroke fill markers" d=" M 569.380480844797 881.685977331697 L 578.1524656072665 885.888926692206 L 576.2516342381921 876.3495692659251 Z" fill-opacity="0.9"/><path fill="none" stroke="rgb(203,143,255)" paint-order="fill stroke markers" d=" M 607.8174025487983 987.907170683351 L 1027.8257784251819 928.4549624726465" stroke-opacity="0.9" stroke-linejoin="round" stroke-miterlimit="10" stroke-width="3" stroke-dasharray="6,3"/><path fill="rgb(255,255,255)" stroke="none" paint-order="stroke fill markers" d=" M 1025.7620930546775 933.1404403235775 L 1033.7665576301977 927.614044856436 L 1024.5427625111722 924.5263104763048 Z" fill-opacity="1"/><path fill="rgb(203,143,255)" stroke="none" paint-order="stroke fill markers" d=" M 1025.7620930546775 933.1404403235775 L 1033.7665576301977 927.614044856436 L 1024.5427625111722 924.5263104763048 Z" fill-opacity="0.9"/><path fill="none" stroke="rgb(203,143,255)" paint-order="fill stroke markers" d=" M 607.812075312544 987.8698103209625 L 752.2234780067045 967.1277931318284" stroke-opacity="0.9" stroke-linejoin="round" stroke-miterlimit="10" stroke-width="3" stroke-dasharray="6,3"/><path fill="rgb(255,255,255)" stroke="none" paint-order="stroke fill markers" d=" M 750.1693548585934 971.8174709557726 L 758.1625294594214 966.2747586413298 L 748.9324548473703 963.205846349333 Z" fill-opacity="1"/><path fill="rgb(203,143,255)" stroke="none" paint-order="stroke fill markers" d=" M 750.1693548585934 971.8174709557726 L 758.1625294594214 966.2747586413298 L 748.9324548473703 963.205846349333 Z" fill-opacity="0.9"/><path fill="none" stroke="rgb(0,255,136)" paint-order="fill stroke markers" d=" M 1077.1405727728202 917.182013935933 L 1185.0844104586004 881.8796267682566" stroke-opacity="0.7" stroke-linejoin="round" stroke-miterlimit="10" stroke-width="2"/><path fill="rgb(255,255,255)" stroke="none" paint-order="stroke fill markers" d=" M 1181.9694078294988 887.475094453865 L 1188.8862559241707 880.6362559241707 L 1179.265076243612 879.2060805662497 Z" fill-opacity="1"/><path fill="rgb(0,255,136)" stroke="none" paint-order="stroke fill markers" d=" M 1181.9694078294988 887.475094453865 L 1188.8862559241707 880.6362559241707 L 1179.265076243612 879.2060805662497 Z" fill-opacity="0.7"/><path fill="none" stroke="rgb(203,143,255)" paint-order="fill stroke markers" d=" M 607.9076934419309 898.6542421209988 L 752.1097699609471 884.1949553155689" stroke-opacity="0.9" stroke-linejoin="round" stroke-miterlimit="10" stroke-width="3" stroke-dasharray="6,3"/><path fill="rgb(255,255,255)" stroke="none" paint-order="stroke fill markers" d=" M 749.8572442571872 888.7926316802016 L 758.0798326988706 883.5963311385956 L 748.9892392005759 880.1360407102125 Z" fill-opacity="1"/><path fill="rgb(203,143,255)" stroke="none" paint-order="stroke fill markers" d=" M 749.8572442571872 888.7926316802016 L 758.0798326988706 883.5963311385956 L 748.9892392005759 880.1360407102125 Z" fill-opacity="0.9"/><path fill="none" stroke="rgb(255,153,119)" paint-order="fill stroke markers" d=" M 411.5151478936037 674.0613601121449 L 576.0656607907957 925.011746535831" stroke-opacity="0.9" stroke-linejoin="round" stroke-miterlimit="10" stroke-width="3" stroke-dasharray="6,3"/><path fill="rgb(255,255,255)" stroke="none" paint-order="stroke fill markers" d=" M 570.9474314669595 925.1391380136588 L 579.3557030461111 930.0292779964437 L 578.2228520848481 920.3685767434515 Z" fill-opacity="1"/><path fill="rgb(255,153,119)" stroke="none" paint-order="stroke fill markers" d=" M 570.9474314669595 925.1391380136588 L 579.3557030461111 930.0292779964437 L 578.2228520848481 920.3685767434515 Z" fill-opacity="0.9"/><path fill="none" stroke="rgb(255,153,119)" paint-order="fill stroke markers" d=" M 410.36292108122 674.7649901906464 L 577.4099254052434 969.1908447775793" stroke-opacity="0.9" stroke-linejoin="round" stroke-miterlimit="10" stroke-width="3" stroke-dasharray="6,3"/><path fill="rgb(255,255,255)" stroke="none" paint-order="stroke fill markers" d=" M 572.2940875838813 968.9890939770347 L 580.3707599998777 974.4094134034783 L 579.8610120914348 964.695883814815 Z" fill-opacity="1"/><path fill="rgb(255,153,119)" stroke="none" paint-order="stroke fill markers" d=" M 572.2940875838813 968.9890939770347 L 580.3707599998777 974.4094134034783 L 579.8610120914348 964.695883814815 Z" fill-opacity="0.9"/><path fill="none" stroke="rgb(0,255,255)" paint-order="fill stroke markers" d=" M 782.0768666780717 950.1882577252305 L 897.1419062339617 753.4227625738946" stroke-opacity="0.7" stroke-linejoin="round" stroke-miterlimit="10" stroke-width="2"/><path fill="rgb(255,255,255)" stroke="none" paint-order="stroke fill markers" d=" M 898.5243940782311 759.6758599952088 L 899.1611229034796 749.9698270052022 L 891.0142592163252 755.2840637390074 Z" fill-opacity="1"/><path fill="rgb(0,255,255)" stroke="none" paint-order="stroke fill markers" d=" M 898.5243940782311 759.6758599952088 L 899.1611229034796 749.9698270052022 L 891.0142592163252 755.2840637390074 Z" fill-opacity="0.7"/><path fill="none" stroke="rgb(255,0,102)" paint-order="fill stroke markers" d=" M 79.4447463715879 575.1740299171535 L 182.3918421738333 641.5915110798925" stroke-opacity="0.7" stroke-linejoin="round" stroke-miterlimit="10" stroke-width="2"/><path fill="rgb(255,255,255)" stroke="none" paint-order="stroke fill markers" d=" M 176.08419604345323 642.6988052115041 L 185.75302876673027 643.7600185591808 L 180.80069981090543 635.3882243719531 Z" fill-opacity="1"/><path fill="rgb(255,0,102)" stroke="none" paint-order="stroke fill markers" d=" M 176.08419604345323 642.6988052115041 L 185.75302876673027 643.7600185591808 L 180.80069981090543 635.3882243719531 Z" fill-opacity="0.7"/><path fill="none" stroke="rgb(255,153,119)" paint-order="fill stroke markers" d=" M 409.3914855054991 675.2829710109982 L 578.5432669102511 1013.5865338205022" stroke-opacity="0.9" stroke-linejoin="round" stroke-miterlimit="10" stroke-width="3" stroke-dasharray="6,3"/><path fill="rgb(255,255,255)" stroke="none" paint-order="stroke fill markers" d=" M 573.4450319215515 1013.1169595452271 L 581.2265484832508 1018.9530969665016 L 581.2265484832508 1009.2262012643774 Z" fill-opacity="1"/><path fill="rgb(255,153,119)" stroke="none" paint-order="stroke fill markers" d=" M 573.4450319215515 1013.1169595452271 L 581.2265484832508 1018.9530969665016 L 581.2265484832508 1009.2262012643774 Z" fill-opacity="0.9"/><path fill="rgb(239,68,68)" stroke="rgb(0,0,0)" paint-order="fill stroke markers" d=" M 420 656.5 L 419.93834667466257 658.0691819145569 L 419.7537668119028 659.6286893008046 L 419.44739840795353 661.1689072771181 L 419.0211303259031 662.6803398874989 L 418.47759065022575 664.1536686473017 L 417.82013048376734 665.5798099947909 L 417.0528032870818 666.949971294319 L 416.180339887499 668.2557050458495 L 415.20811931200063 669.4889609666037 L 414.14213562373095 670.642135623731 L 412.98896096660366 671.7081193120006 L 411.7557050458495 672.6803398874989 L 410.44997129431897 673.5528032870818 L 409.07980999479093 674.3201304837673 L 407.6536686473018 674.9775906502257 L 406.180339887499 675.5211303259031 L 404.66890727711814 675.9473984079535 L 403.12868930080464 676.2537668119028 L 401.5691819145569 676.4383466746625 L 400 676.5 L 398.4308180854431 676.4383466746625 L 396.87131069919536 676.2537668119028 L 395.3310927228819 675.9473984079535 L 393.819660112501 675.5211303259031 L 392.3463313526982 674.9775906502257 L 390.92019000520907 674.3201304837673 L 389.55002870568103 673.5528032870818 L 388.2442949541505 672.6803398874989 L 387.01103903339634 671.7081193120006 L 385.85786437626905 670.642135623731 L 384.79188068799937 669.4889609666037 L 383.8196601125011 668.2557050458495 L 382.9471967129182 666.949971294319 L 382.17986951623266 665.5798099947909 L 381.52240934977425 664.1536686473017 L 380.9788696740969 662.6803398874989 L 380.55260159204647 661.1689072771181 L 380.2462331880972 659.6286893008046 L 380.06165332533743 658.0691819145569 L 380 656.5 L 380.06165332533743 654.9308180854431 L 380.2462331880972 653.3713106991954 L 380.55260159204647 651.8310927228819 L 380.9788696740969 650.3196601125011 L 381.52240934977425 648.8463313526983 L 382.17986951623266 647.4201900052091 L 382.9471967129181 646.050028705681 L 383.819660112501 644.7442949541505 L 384.79188068799937 643.5110390333963 L 385.85786437626905 642.357864376269 L 387.01103903339634 641.2918806879994 L 388.2442949541505 640.3196601125011 L 389.55002870568103 639.4471967129182 L 390.92019000520907 638.6798695162327 L 392.3463313526982 638.0224093497743 L 393.8196601125011 637.4788696740969 L 395.3310927228819 637.0526015920465 L 396.8713106991954 636.7462331880972 L 398.43081808544315 636.5616533253375 L 400.00000000000006 636.5 L 401.56918191455696 636.5616533253375 L 403.1286893008047 636.7462331880972 L 404.6689072771182 637.0526015920465 L 406.18033988749903 637.4788696740969 L 407.6536686473019 638.0224093497743 L 409.07980999479105 638.6798695162327 L 410.4499712943191 639.4471967129182 L 411.7557050458496 640.3196601125011 L 412.98896096660377 641.2918806879994 L 414.14213562373106 642.3578643762692 L 415.20811931200075 643.5110390333964 L 416.18033988749903 644.7442949541506 L 417.05280328708193 646.0500287056811 L 417.82013048376746 647.4201900052092 L 418.4775906502258 648.8463313526984 L 419.02113032590313 650.3196601125012 L 419.4473984079536 651.8310927228821 L 419.7537668119028 653.3713106991956 L 419.93834667466257 654.9308180854433 Z" fill-opacity="1" stroke-opacity="1" stroke-miterlimit="10" stroke-width="2"/><text fill="none" stroke="rgb(0,0,0)" font-family="Helvetica Neue, Helvetica, sans-serif" font-size="10px" font-style="normal" font-weight="normal" text-decoration="normal" x="400" y="636.5" text-anchor="middle" dominant-baseline="text-after-edge" stroke-opacity="1" stroke-linejoin="round" stroke-miterlimit="10" stroke-width="4">host_postgres_fb02b9d1</text><text fill="rgb(255,255,255)" stroke="none" font-family="Helvetica Neue, Helvetica, sans-serif" font-size="10px" font-style="normal" font-weight="normal" text-decoration="normal" x="400" y="636.5" text-anchor="middle" dominant-baseline="text-after-edge" fill-opacity="1">host_postgres_fb02b9d1</text><path fill="rgb(99,102,241)" stroke="rgb(255,0,102)" paint-order="fill stroke markers" d=" M 81 566.5 L 80.95376000599691 567.6768864359177 L 80.81532510892707 568.8465169756034 L 80.58554880596515 570.0016804578386 L 80.2658477444273 571.1352549156242 L 79.8581929876693 572.2402514854764 L 79.36509786282552 573.3098574960932 L 78.78960246531139 574.3374784707393 L 78.13525491562422 575.3167787843871 L 77.40608948400046 576.2417207249528 L 76.60660171779821 577.1066017177982 L 75.74172072495276 577.9060894840005 L 74.8167787843871 578.6352549156242 L 73.83747847073923 579.2896024653114 L 72.8098574960932 579.8650978628256 L 71.74025148547635 580.3581929876693 L 70.63525491562422 580.7658477444273 L 69.50168045783859 581.0855488059651 L 68.34651697560346 581.315325108927 L 67.17688643591768 581.453760005997 L 66 581.5 L 64.82311356408232 581.453760005997 L 63.653483024396536 581.315325108927 L 62.49831954216142 581.0855488059651 L 61.36474508437579 580.7658477444273 L 60.25974851452365 580.3581929876693 L 59.1901425039068 579.8650978628256 L 58.16252152926077 579.2896024653114 L 57.1832212156129 578.6352549156242 L 56.258279275047244 577.9060894840005 L 55.39339828220179 577.1066017177982 L 54.59391051599954 576.2417207249528 L 53.86474508437579 575.3167787843871 L 53.21039753468862 574.3374784707393 L 52.634902137174485 573.3098574960932 L 52.1418070123307 572.2402514854764 L 51.734152255572695 571.1352549156242 L 51.414451194034854 570.0016804578386 L 51.18467489107294 568.8465169756034 L 51.04623999400308 567.6768864359177 L 51 566.5 L 51.04623999400308 565.3231135640823 L 51.18467489107293 564.1534830243966 L 51.414451194034854 562.9983195421614 L 51.734152255572695 561.8647450843758 L 52.141807012330695 560.7597485145236 L 52.63490213717448 559.6901425039068 L 53.21039753468862 558.6625215292607 L 53.864745084375784 557.6832212156129 L 54.59391051599953 556.7582792750472 L 55.39339828220179 555.8933982822018 L 56.25827927504724 555.0939105159996 L 57.1832212156129 554.3647450843758 L 58.16252152926077 553.7103975346886 L 59.190142503906806 553.1349021371744 L 60.25974851452367 552.6418070123307 L 61.36474508437581 552.2341522555727 L 62.49831954216145 551.9144511940349 L 63.65348302439657 551.684674891073 L 64.82311356408238 551.546239994003 L 66.00000000000006 551.5 L 67.17688643591774 551.546239994003 L 68.34651697560352 551.684674891073 L 69.50168045783865 551.9144511940349 L 70.63525491562429 552.2341522555727 L 71.74025148547642 552.6418070123307 L 72.80985749609329 553.1349021371745 L 73.83747847073931 553.7103975346887 L 74.81677878438718 554.3647450843758 L 75.74172072495284 555.0939105159996 L 76.6066017177983 555.8933982822018 L 77.40608948400055 556.7582792750474 L 78.13525491562429 557.683221215613 L 78.78960246531145 558.6625215292609 L 79.36509786282558 559.6901425039069 L 79.85819298766936 560.7597485145238 L 80.26584774442735 561.864745084376 L 80.58554880596519 562.9983195421615 L 80.8153251089271 564.1534830243967 L 80.95376000599694 565.3231135640825 Z" fill-opacity="1" stroke-opacity="1" stroke-miterlimit="10" stroke-width="2"/><text fill="none" stroke="rgb(0,0,0)" font-family="Helvetica Neue, Helvetica, sans-serif" font-size="10px" font-style="normal" font-weight="normal" text-decoration="normal" x="66" y="551.5" text-anchor="middle" dominant-baseline="text-after-edge" stroke-opacity="1" stroke-linejoin="round" stroke-miterlimit="10" stroke-width="4">AC:L</text><text fill="rgb(255,255,255)" stroke="none" font-family="Helvetica Neue, Helvetica, sans-serif" font-size="10px" font-style="normal" font-weight="normal" text-decoration="normal" x="66" y="551.5" text-anchor="middle" dominant-baseline="text-after-edge" fill-opacity="1">AC:L</text><path fill="rgb(255,0,102)" stroke="rgb(0,0,0)" paint-order="fill stroke markers" d=" M 228 656.5 L 227.93064000899537 658.2653296538765 L 227.7229876633906 660.0197754634052 L 227.37832320894773 661.7525206867579 L 226.89877161664094 663.4528823734363 L 226.28728948150396 665.1103772282145 L 225.5476467942383 666.7147862441398 L 224.68440369796707 668.2562177061088 L 223.70288237343632 669.7251681765806 L 222.6091342260007 671.1125810874291 L 221.40990257669733 672.4099025766973 L 220.11258108742913 673.6091342260007 L 218.72516817658064 674.7028823734363 L 217.25621770610886 675.6844036979671 L 215.71478624413982 676.5476467942383 L 214.11037722821453 677.287289481504 L 212.45288237343632 677.8987716166409 L 210.75252068675786 678.3783232089477 L 209.01977546340518 678.7229876633907 L 207.2653296538765 678.9306400089954 L 205.5 679 L 203.7346703461235 678.9306400089954 L 201.98022453659482 678.7229876633907 L 200.24747931324214 678.3783232089477 L 198.54711762656368 677.8987716166409 L 196.88962277178547 677.287289481504 L 195.2852137558602 676.5476467942383 L 193.74378229389114 675.6844036979671 L 192.27483182341936 674.7028823734363 L 190.88741891257087 673.6091342260007 L 189.5900974233027 672.4099025766973 L 188.3908657739993 671.1125810874291 L 187.29711762656368 669.7251681765806 L 186.31559630203293 668.2562177061088 L 185.4523532057617 666.7147862441398 L 184.71271051849604 665.1103772282145 L 184.10122838335906 663.4528823734363 L 183.62167679105227 661.7525206867579 L 183.2770123366094 660.0197754634052 L 183.06935999100463 658.2653296538765 L 183 656.5 L 183.06935999100463 654.7346703461235 L 183.2770123366094 652.9802245365948 L 183.62167679105227 651.2474793132421 L 184.10122838335906 649.5471176265637 L 184.71271051849604 647.8896227717855 L 185.4523532057617 646.2852137558602 L 186.31559630203293 644.7437822938912 L 187.29711762656368 643.2748318234194 L 188.3908657739993 641.8874189125709 L 189.59009742330267 640.5900974233027 L 190.88741891257087 639.3908657739993 L 192.27483182341936 638.2971176265637 L 193.74378229389114 637.3155963020329 L 195.2852137558602 636.4523532057617 L 196.8896227717855 635.712710518496 L 198.5471176265637 635.1012283833591 L 200.24747931324217 634.6216767910523 L 201.98022453659485 634.2770123366093 L 203.73467034612355 634.0693599910046 L 205.50000000000009 634 L 207.2653296538766 634.0693599910046 L 209.0197754634053 634.2770123366095 L 210.75252068675798 634.6216767910523 L 212.45288237343644 635.1012283833591 L 214.11037722821465 635.7127105184961 L 215.71478624413993 636.4523532057618 L 217.25621770610897 637.315596302033 L 218.72516817658078 638.2971176265638 L 220.11258108742925 639.3908657739994 L 221.40990257669745 640.5900974233028 L 222.6091342260008 641.887418912571 L 223.70288237343644 643.2748318234195 L 224.68440369796718 644.7437822938913 L 225.54764679423837 646.2852137558604 L 226.28728948150405 647.8896227717856 L 226.89877161664103 649.5471176265639 L 227.3783232089478 651.2474793132424 L 227.72298766339065 652.9802245365951 L 227.9306400089954 654.7346703461237 Z" fill-opacity="1" stroke-opacity="1" stroke-miterlimit="10" stroke-width="2"/><text fill="none" stroke="rgb(0,0,0)" font-family="Helvetica Neue, Helvetica, sans-serif" font-size="10px" font-style="normal" font-weight="normal" text-decoration="normal" x="205.5" y="634" text-anchor="middle" dominant-baseline="text-after-edge" stroke-opacity="1" stroke-linejoin="round" stroke-miterlimit="10" stroke-width="4">Hacker</text><text fill="rgb(255,255,255)" stroke="none" font-family="Helvetica Neue, Helvetica, sans-serif" font-size="10px" font-style="normal" font-weight="normal" text-decoration="normal" x="205.5" y="634" text-anchor="middle" dominant-baseline="text-after-edge" fill-opacity="1">Hacker</text><path fill="rgb(99,102,241)" stroke="rgb(255,0,102)" paint-order="fill stroke markers" d=" M 81 611.5 L 80.95376000599691 612.6768864359177 L 80.81532510892707 613.8465169756034 L 80.58554880596515 615.0016804578386 L 80.2658477444273 616.1352549156242 L 79.8581929876693 617.2402514854764 L 79.36509786282552 618.3098574960932 L 78.78960246531139 619.3374784707393 L 78.13525491562422 620.3167787843871 L 77.40608948400046 621.2417207249528 L 76.60660171779821 622.1066017177982 L 75.74172072495276 622.9060894840005 L 74.8167787843871 623.6352549156242 L 73.83747847073923 624.2896024653114 L 72.8098574960932 624.8650978628256 L 71.74025148547635 625.3581929876693 L 70.63525491562422 625.7658477444273 L 69.50168045783859 626.0855488059651 L 68.34651697560346 626.315325108927 L 67.17688643591768 626.453760005997 L 66 626.5 L 64.82311356408232 626.453760005997 L 63.653483024396536 626.315325108927 L 62.49831954216142 626.0855488059651 L 61.36474508437579 625.7658477444273 L 60.25974851452365 625.3581929876693 L 59.1901425039068 624.8650978628256 L 58.16252152926077 624.2896024653114 L 57.1832212156129 623.6352549156242 L 56.258279275047244 622.9060894840005 L 55.39339828220179 622.1066017177982 L 54.59391051599954 621.2417207249528 L 53.86474508437579 620.3167787843871 L 53.21039753468862 619.3374784707393 L 52.634902137174485 618.3098574960932 L 52.1418070123307 617.2402514854764 L 51.734152255572695 616.1352549156242 L 51.414451194034854 615.0016804578386 L 51.18467489107294 613.8465169756034 L 51.04623999400308 612.6768864359177 L 51 611.5 L 51.04623999400308 610.3231135640823 L 51.18467489107293 609.1534830243966 L 51.414451194034854 607.9983195421614 L 51.734152255572695 606.8647450843758 L 52.141807012330695 605.7597485145236 L 52.63490213717448 604.6901425039068 L 53.21039753468862 603.6625215292607 L 53.864745084375784 602.6832212156129 L 54.59391051599953 601.7582792750472 L 55.39339828220179 600.8933982822018 L 56.25827927504724 600.0939105159996 L 57.1832212156129 599.3647450843758 L 58.16252152926077 598.7103975346886 L 59.190142503906806 598.1349021371744 L 60.25974851452367 597.6418070123307 L 61.36474508437581 597.2341522555727 L 62.49831954216145 596.9144511940349 L 63.65348302439657 596.684674891073 L 64.82311356408238 596.546239994003 L 66.00000000000006 596.5 L 67.17688643591774 596.546239994003 L 68.34651697560352 596.684674891073 L 69.50168045783865 596.9144511940349 L 70.63525491562429 597.2341522555727 L 71.74025148547642 597.6418070123307 L 72.80985749609329 598.1349021371745 L 73.83747847073931 598.7103975346887 L 74.81677878438718 599.3647450843758 L 75.74172072495284 600.0939105159996 L 76.6066017177983 600.8933982822018 L 77.40608948400055 601.7582792750474 L 78.13525491562429 602.683221215613 L 78.78960246531145 603.6625215292609 L 79.36509786282558 604.6901425039069 L 79.85819298766936 605.7597485145238 L 80.26584774442735 606.864745084376 L 80.58554880596519 607.9983195421615 L 80.8153251089271 609.1534830243967 L 80.95376000599694 610.3231135640825 Z" fill-opacity="1" stroke-opacity="1" stroke-miterlimit="10" stroke-width="2"/><text fill="none" stroke="rgb(0,0,0)" font-family="Helvetica Neue, Helvetica, sans-serif" font-size="10px" font-style="normal" font-weight="normal" text-decoration="normal" x="66" y="596.5" text-anchor="middle" dominant-baseline="text-after-edge" stroke-opacity="1" stroke-linejoin="round" stroke-miterlimit="10" stroke-width="4">AV:N</text><text fill="rgb(255,255,255)" stroke="none" font-family="Helvetica Neue, Helvetica, sans-serif" font-size="10px" font-style="normal" font-weight="normal" text-decoration="normal" x="66" y="596.5" text-anchor="middle" dominant-baseline="text-after-edge" fill-opacity="1">AV:N</text><path fill="rgb(99,102,241)" stroke="rgb(255,0,102)" paint-order="fill stroke markers" d=" M 81 701.5 L 80.95376000599691 702.6768864359177 L 80.81532510892707 703.8465169756034 L 80.58554880596515 705.0016804578386 L 80.2658477444273 706.1352549156242 L 79.8581929876693 707.2402514854764 L 79.36509786282552 708.3098574960932 L 78.78960246531139 709.3374784707393 L 78.13525491562422 710.3167787843871 L 77.40608948400046 711.2417207249528 L 76.60660171779821 712.1066017177982 L 75.74172072495276 712.9060894840005 L 74.8167787843871 713.6352549156242 L 73.83747847073923 714.2896024653114 L 72.8098574960932 714.8650978628256 L 71.74025148547635 715.3581929876693 L 70.63525491562422 715.7658477444273 L 69.50168045783859 716.0855488059651 L 68.34651697560346 716.315325108927 L 67.17688643591768 716.453760005997 L 66 716.5 L 64.82311356408232 716.453760005997 L 63.653483024396536 716.315325108927 L 62.49831954216142 716.0855488059651 L 61.36474508437579 715.7658477444273 L 60.25974851452365 715.3581929876693 L 59.1901425039068 714.8650978628256 L 58.16252152926077 714.2896024653114 L 57.1832212156129 713.6352549156242 L 56.258279275047244 712.9060894840005 L 55.39339828220179 712.1066017177982 L 54.59391051599954 711.2417207249528 L 53.86474508437579 710.3167787843871 L 53.21039753468862 709.3374784707393 L 52.634902137174485 708.3098574960932 L 52.1418070123307 707.2402514854764 L 51.734152255572695 706.1352549156242 L 51.414451194034854 705.0016804578386 L 51.18467489107294 703.8465169756034 L 51.04623999400308 702.6768864359177 L 51 701.5 L 51.04623999400308 700.3231135640823 L 51.18467489107293 699.1534830243966 L 51.414451194034854 697.9983195421614 L 51.734152255572695 696.8647450843758 L 52.141807012330695 695.7597485145236 L 52.63490213717448 694.6901425039068 L 53.21039753468862 693.6625215292607 L 53.864745084375784 692.6832212156129 L 54.59391051599953 691.7582792750472 L 55.39339828220179 690.8933982822018 L 56.25827927504724 690.0939105159996 L 57.1832212156129 689.3647450843758 L 58.16252152926077 688.7103975346886 L 59.190142503906806 688.1349021371744 L 60.25974851452367 687.6418070123307 L 61.36474508437581 687.2341522555727 L 62.49831954216145 686.9144511940349 L 63.65348302439657 686.684674891073 L 64.82311356408238 686.546239994003 L 66.00000000000006 686.5 L 67.17688643591774 686.546239994003 L 68.34651697560352 686.684674891073 L 69.50168045783865 686.9144511940349 L 70.63525491562429 687.2341522555727 L 71.74025148547642 687.6418070123307 L 72.80985749609329 688.1349021371745 L 73.83747847073931 688.7103975346887 L 74.81677878438718 689.3647450843758 L 75.74172072495284 690.0939105159996 L 76.6066017177983 690.8933982822018 L 77.40608948400055 691.7582792750474 L 78.13525491562429 692.683221215613 L 78.78960246531145 693.6625215292609 L 79.36509786282558 694.6901425039069 L 79.85819298766936 695.7597485145238 L 80.26584774442735 696.864745084376 L 80.58554880596519 697.9983195421615 L 80.8153251089271 699.1534830243967 L 80.95376000599694 700.3231135640825 Z" fill-opacity="1" stroke-opacity="1" stroke-miterlimit="10" stroke-width="2"/><text fill="none" stroke="rgb(0,0,0)" font-family="Helvetica Neue, Helvetica, sans-serif" font-size="10px" font-style="normal" font-weight="normal" text-decoration="normal" x="66" y="686.5" text-anchor="middle" dominant-baseline="text-after-edge" stroke-opacity="1" stroke-linejoin="round" stroke-miterlimit="10" stroke-width="4">PR:N</text><text fill="rgb(255,255,255)" stroke="none" font-family="Helvetica Neue, Helvetica, sans-serif" font-size="10px" font-style="normal" font-weight="normal" text-decoration="normal" x="66" y="686.5" text-anchor="middle" dominant-baseline="text-after-edge" fill-opacity="1">PR:N</text><path fill="rgb(234,179,8)" stroke="rgb(0,0,0)" paint-order="fill stroke markers" d=" M 607 1035.5 L 606.9460533403297 1036.8730341752373 L 606.7845459604149 1038.2376031382041 L 606.5164736069594 1039.5852938674784 L 606.1434890351652 1040.9077974015615 L 605.6678918189475 1042.196960066389 L 605.0926141732964 1043.444833745442 L 604.4212028761966 1044.643724882529 L 603.6577974015615 1045.7862419151184 L 602.8071043980005 1046.8653408457783 L 601.8743686707646 1047.8743686707646 L 600.8653408457782 1048.8071043980005 L 599.7862419151182 1049.6577974015615 L 598.6437248825291 1050.4212028761965 L 597.4448337454421 1051.0926141732964 L 596.1969600663891 1051.6678918189475 L 594.9077974015615 1052.1434890351652 L 593.5852938674783 1052.5164736069594 L 592.237603138204 1052.784545960415 L 590.8730341752373 1052.9460533403299 L 589.5 1053 L 588.1269658247627 1052.9460533403299 L 586.762396861796 1052.784545960415 L 585.4147061325217 1052.5164736069594 L 584.0922025984385 1052.1434890351652 L 582.8030399336109 1051.6678918189475 L 581.5551662545579 1051.0926141732964 L 580.3562751174709 1050.4212028761965 L 579.2137580848818 1049.6577974015615 L 578.1346591542218 1048.8071043980005 L 577.1256313292354 1047.8743686707646 L 576.1928956019995 1046.8653408457783 L 575.3422025984385 1045.7862419151184 L 574.5787971238034 1044.643724882529 L 573.9073858267036 1043.444833745442 L 573.3321081810525 1042.196960066389 L 572.8565109648348 1040.9077974015615 L 572.4835263930406 1039.5852938674784 L 572.2154540395851 1038.2376031382041 L 572.0539466596703 1036.8730341752373 L 572 1035.5 L 572.0539466596703 1034.1269658247627 L 572.2154540395851 1032.7623968617959 L 572.4835263930406 1031.4147061325216 L 572.8565109648348 1030.0922025984385 L 573.3321081810525 1028.803039933611 L 573.9073858267036 1027.555166254558 L 574.5787971238034 1026.356275117471 L 575.3422025984385 1025.2137580848816 L 576.1928956019995 1024.1346591542217 L 577.1256313292354 1023.1256313292354 L 578.1346591542218 1022.1928956019995 L 579.2137580848818 1021.3422025984385 L 580.3562751174709 1020.5787971238034 L 581.5551662545579 1019.9073858267036 L 582.803039933611 1019.3321081810525 L 584.0922025984385 1018.8565109648348 L 585.4147061325217 1018.4835263930406 L 586.762396861796 1018.2154540395851 L 588.1269658247628 1018.0539466596703 L 589.5000000000001 1018 L 590.8730341752373 1018.0539466596703 L 592.2376031382041 1018.2154540395851 L 593.5852938674784 1018.4835263930406 L 594.9077974015617 1018.8565109648348 L 596.1969600663891 1019.3321081810525 L 597.4448337454421 1019.9073858267036 L 598.6437248825292 1020.5787971238035 L 599.7862419151184 1021.3422025984385 L 600.8653408457783 1022.1928956019996 L 601.8743686707646 1023.1256313292355 L 602.8071043980007 1024.134659154222 L 603.6577974015617 1025.2137580848819 L 604.4212028761967 1026.3562751174711 L 605.0926141732965 1027.5551662545581 L 605.6678918189476 1028.803039933611 L 606.1434890351652 1030.0922025984387 L 606.5164736069594 1031.4147061325218 L 606.7845459604149 1032.762396861796 L 606.9460533403297 1034.126965824763 Z" fill-opacity="1" stroke-opacity="1" stroke-miterlimit="10" stroke-width="2"/><text fill="none" stroke="rgb(0,0,0)" font-family="Helvetica Neue, Helvetica, sans-serif" font-size="10px" font-style="normal" font-weight="normal" text-decoration="normal" x="589.5" y="1018" text-anchor="middle" dominant-baseline="text-after-edge" stroke-opacity="1" stroke-linejoin="round" stroke-miterlimit="10" stroke-width="4">CVE-2025-68121</text><text fill="rgb(255,255,255)" stroke="none" font-family="Helvetica Neue, Helvetica, sans-serif" font-size="10px" font-style="normal" font-weight="normal" text-decoration="normal" x="589.5" y="1018" text-anchor="middle" dominant-baseline="text-after-edge" fill-opacity="1">CVE-2025-68121</text><path fill="rgb(99,102,241)" stroke="rgb(0,0,0)" paint-order="fill stroke markers" d=" M 789 882 L 788.953760005997 883.1768864359177 L 788.815325108927 884.3465169756034 L 788.5855488059651 885.5016804578386 L 788.2658477444273 886.6352549156242 L 787.8581929876693 887.7402514854764 L 787.3650978628256 888.8098574960932 L 786.7896024653114 889.8374784707393 L 786.1352549156242 890.8167787843871 L 785.4060894840005 891.7417207249528 L 784.6066017177982 892.6066017177982 L 783.7417207249528 893.4060894840005 L 782.8167787843871 894.1352549156242 L 781.8374784707393 894.7896024653114 L 780.8098574960932 895.3650978628256 L 779.7402514854764 895.8581929876693 L 778.6352549156242 896.2658477444273 L 777.5016804578386 896.5855488059651 L 776.3465169756034 896.815325108927 L 775.1768864359177 896.953760005997 L 774 897 L 772.8231135640823 896.953760005997 L 771.6534830243966 896.815325108927 L 770.4983195421614 896.5855488059651 L 769.3647450843758 896.2658477444273 L 768.2597485145236 895.8581929876693 L 767.1901425039068 895.3650978628256 L 766.1625215292607 894.7896024653114 L 765.1832212156129 894.1352549156242 L 764.2582792750472 893.4060894840005 L 763.3933982822018 892.6066017177982 L 762.5939105159995 891.7417207249528 L 761.8647450843758 890.8167787843871 L 761.2103975346886 889.8374784707393 L 760.6349021371744 888.8098574960932 L 760.1418070123307 887.7402514854764 L 759.7341522555727 886.6352549156242 L 759.4144511940349 885.5016804578386 L 759.184674891073 884.3465169756034 L 759.046239994003 883.1768864359177 L 759 882 L 759.046239994003 880.8231135640823 L 759.184674891073 879.6534830243966 L 759.4144511940349 878.4983195421614 L 759.7341522555727 877.3647450843758 L 760.1418070123307 876.2597485145236 L 760.6349021371744 875.1901425039068 L 761.2103975346886 874.1625215292607 L 761.8647450843758 873.1832212156129 L 762.5939105159995 872.2582792750472 L 763.3933982822018 871.3933982822018 L 764.2582792750472 870.5939105159996 L 765.1832212156129 869.8647450843758 L 766.1625215292607 869.2103975346886 L 767.1901425039068 868.6349021371744 L 768.2597485145237 868.1418070123307 L 769.3647450843758 867.7341522555727 L 770.4983195421614 867.4144511940349 L 771.6534830243966 867.184674891073 L 772.8231135640824 867.046239994003 L 774 867 L 775.1768864359177 867.046239994003 L 776.3465169756035 867.184674891073 L 777.5016804578387 867.4144511940349 L 778.6352549156243 867.7341522555727 L 779.7402514854764 868.1418070123307 L 780.8098574960933 868.6349021371745 L 781.8374784707394 869.2103975346887 L 782.8167787843872 869.8647450843758 L 783.7417207249529 870.5939105159996 L 784.6066017177983 871.3933982822018 L 785.4060894840005 872.2582792750474 L 786.1352549156243 873.183221215613 L 786.7896024653114 874.1625215292609 L 787.3650978628256 875.1901425039069 L 787.8581929876693 876.2597485145238 L 788.2658477444273 877.364745084376 L 788.5855488059652 878.4983195421615 L 788.8153251089271 879.6534830243967 L 788.953760005997 880.8231135640825 Z" fill-opacity="1" stroke-opacity="1" stroke-miterlimit="10" stroke-width="2"/><text fill="none" stroke="rgb(0,0,0)" font-family="Helvetica Neue, Helvetica, sans-serif" font-size="10px" font-style="normal" font-weight="normal" text-decoration="normal" x="774" y="867" text-anchor="middle" dominant-baseline="text-after-edge" stroke-opacity="1" stroke-linejoin="round" stroke-miterlimit="10" stroke-width="4">AV:L</text><text fill="rgb(255,255,255)" stroke="none" font-family="Helvetica Neue, Helvetica, sans-serif" font-size="10px" font-style="normal" font-weight="normal" text-decoration="normal" x="774" y="867" text-anchor="middle" dominant-baseline="text-after-edge" fill-opacity="1">AV:L</text><path fill="rgb(99,102,241)" stroke="rgb(0,0,0)" paint-order="fill stroke markers" d=" M 789 964 L 788.953760005997 965.1768864359177 L 788.815325108927 966.3465169756034 L 788.5855488059651 967.5016804578386 L 788.2658477444273 968.6352549156242 L 787.8581929876693 969.7402514854764 L 787.3650978628256 970.8098574960932 L 786.7896024653114 971.8374784707393 L 786.1352549156242 972.8167787843871 L 785.4060894840005 973.7417207249528 L 784.6066017177982 974.6066017177982 L 783.7417207249528 975.4060894840005 L 782.8167787843871 976.1352549156242 L 781.8374784707393 976.7896024653114 L 780.8098574960932 977.3650978628256 L 779.7402514854764 977.8581929876693 L 778.6352549156242 978.2658477444273 L 777.5016804578386 978.5855488059651 L 776.3465169756034 978.815325108927 L 775.1768864359177 978.953760005997 L 774 979 L 772.8231135640823 978.953760005997 L 771.6534830243966 978.815325108927 L 770.4983195421614 978.5855488059651 L 769.3647450843758 978.2658477444273 L 768.2597485145236 977.8581929876693 L 767.1901425039068 977.3650978628256 L 766.1625215292607 976.7896024653114 L 765.1832212156129 976.1352549156242 L 764.2582792750472 975.4060894840005 L 763.3933982822018 974.6066017177982 L 762.5939105159995 973.7417207249528 L 761.8647450843758 972.8167787843871 L 761.2103975346886 971.8374784707393 L 760.6349021371744 970.8098574960932 L 760.1418070123307 969.7402514854764 L 759.7341522555727 968.6352549156242 L 759.4144511940349 967.5016804578386 L 759.184674891073 966.3465169756034 L 759.046239994003 965.1768864359177 L 759 964 L 759.046239994003 962.8231135640823 L 759.184674891073 961.6534830243966 L 759.4144511940349 960.4983195421614 L 759.7341522555727 959.3647450843758 L 760.1418070123307 958.2597485145236 L 760.6349021371744 957.1901425039068 L 761.2103975346886 956.1625215292607 L 761.8647450843758 955.1832212156129 L 762.5939105159995 954.2582792750472 L 763.3933982822018 953.3933982822018 L 764.2582792750472 952.5939105159996 L 765.1832212156129 951.8647450843758 L 766.1625215292607 951.2103975346886 L 767.1901425039068 950.6349021371744 L 768.2597485145237 950.1418070123307 L 769.3647450843758 949.7341522555727 L 770.4983195421614 949.4144511940349 L 771.6534830243966 949.184674891073 L 772.8231135640824 949.046239994003 L 774 949 L 775.1768864359177 949.046239994003 L 776.3465169756035 949.184674891073 L 777.5016804578387 949.4144511940349 L 778.6352549156243 949.7341522555727 L 779.7402514854764 950.1418070123307 L 780.8098574960933 950.6349021371745 L 781.8374784707394 951.2103975346887 L 782.8167787843872 951.8647450843758 L 783.7417207249529 952.5939105159996 L 784.6066017177983 953.3933982822018 L 785.4060894840005 954.2582792750474 L 786.1352549156243 955.183221215613 L 786.7896024653114 956.1625215292609 L 787.3650978628256 957.1901425039069 L 787.8581929876693 958.2597485145238 L 788.2658477444273 959.364745084376 L 788.5855488059652 960.4983195421615 L 788.8153251089271 961.6534830243967 L 788.953760005997 962.8231135640825 Z" fill-opacity="1" stroke-opacity="1" stroke-miterlimit="10" stroke-width="2"/><text fill="none" stroke="rgb(0,0,0)" font-family="Helvetica Neue, Helvetica, sans-serif" font-size="10px" font-style="normal" font-weight="normal" text-decoration="normal" x="774" y="949" text-anchor="middle" dominant-baseline="text-after-edge" stroke-opacity="1" stroke-linejoin="round" stroke-miterlimit="10" stroke-width="4">PR:H</text><text fill="rgb(255,255,255)" stroke="none" font-family="Helvetica Neue, Helvetica, sans-serif" font-size="10px" font-style="normal" font-weight="normal" text-decoration="normal" x="774" y="949" text-anchor="middle" dominant-baseline="text-after-edge" fill-opacity="1">PR:H</text><path fill="rgb(255,0,0)" stroke="rgb(255,215,0)" paint-order="fill stroke markers" d=" M 1054 899.75 L 1044.7343318831333 913.9799193548821 L 1029 918.8483005625053 L 1039.0078340584334 932.5112555886155 L 1038.5491502812527 949.75 L 1054 943.9642512380153 L 1069.4508497187473 949.75 L 1068.9921659415666 932.5112555886155 L 1079 918.8483005625053 L 1063.2656681168667 913.9799193548821 Z" fill-opacity="1" stroke-opacity="1" stroke-miterlimit="10" stroke-width="4"/><text fill="none" stroke="rgb(0,0,0)" font-family="Helvetica Neue, Helvetica, sans-serif" font-size="10px" font-style="normal" font-weight="bold" text-decoration="normal" x="1054" y="899.75" text-anchor="middle" dominant-baseline="text-after-edge" stroke-opacity="1" stroke-linejoin="round" stroke-miterlimit="10" stroke-width="4">EXPLOITED</text><text fill="rgb(255,255,255)" stroke="none" font-family="Helvetica Neue, Helvetica, sans-serif" font-size="10px" font-style="normal" font-weight="bold" text-decoration="normal" x="1054" y="899.75" text-anchor="middle" dominant-baseline="text-after-edge" fill-opacity="1">EXPLOITED</text><path fill="rgb(234,179,8)" stroke="rgb(0,0,0)" paint-order="fill stroke markers" d=" M 607 990.5 L 606.9460533403297 991.8730341752373 L 606.7845459604149 993.237603138204 L 606.5164736069594 994.5852938674783 L 606.1434890351652 995.9077974015615 L 605.6678918189475 997.1969600663891 L 605.0926141732964 998.4448337454421 L 604.4212028761966 999.6437248825291 L 603.6577974015615 1000.7862419151182 L 602.8071043980005 1001.8653408457782 L 601.8743686707646 1002.8743686707646 L 600.8653408457782 1003.8071043980005 L 599.7862419151182 1004.6577974015615 L 598.6437248825291 1005.4212028761966 L 597.4448337454421 1006.0926141732964 L 596.1969600663891 1006.6678918189475 L 594.9077974015615 1007.1434890351652 L 593.5852938674783 1007.5164736069594 L 592.237603138204 1007.7845459604149 L 590.8730341752373 1007.9460533403297 L 589.5 1008 L 588.1269658247627 1007.9460533403297 L 586.762396861796 1007.7845459604149 L 585.4147061325217 1007.5164736069594 L 584.0922025984385 1007.1434890351652 L 582.8030399336109 1006.6678918189475 L 581.5551662545579 1006.0926141732964 L 580.3562751174709 1005.4212028761966 L 579.2137580848818 1004.6577974015615 L 578.1346591542218 1003.8071043980005 L 577.1256313292354 1002.8743686707646 L 576.1928956019995 1001.8653408457782 L 575.3422025984385 1000.7862419151182 L 574.5787971238034 999.6437248825291 L 573.9073858267036 998.4448337454421 L 573.3321081810525 997.1969600663891 L 572.8565109648348 995.9077974015615 L 572.4835263930406 994.5852938674783 L 572.2154540395851 993.237603138204 L 572.0539466596703 991.8730341752373 L 572 990.5 L 572.0539466596703 989.1269658247627 L 572.2154540395851 987.762396861796 L 572.4835263930406 986.4147061325217 L 572.8565109648348 985.0922025984385 L 573.3321081810525 983.8030399336109 L 573.9073858267036 982.5551662545579 L 574.5787971238034 981.3562751174709 L 575.3422025984385 980.2137580848818 L 576.1928956019995 979.1346591542218 L 577.1256313292354 978.1256313292354 L 578.1346591542218 977.1928956019995 L 579.2137580848818 976.3422025984385 L 580.3562751174709 975.5787971238034 L 581.5551662545579 974.9073858267036 L 582.803039933611 974.3321081810525 L 584.0922025984385 973.8565109648348 L 585.4147061325217 973.4835263930406 L 586.762396861796 973.2154540395851 L 588.1269658247628 973.0539466596703 L 589.5000000000001 973 L 590.8730341752373 973.0539466596703 L 592.2376031382041 973.2154540395851 L 593.5852938674784 973.4835263930406 L 594.9077974015617 973.8565109648348 L 596.1969600663891 974.3321081810525 L 597.4448337454421 974.9073858267036 L 598.6437248825292 975.5787971238035 L 599.7862419151184 976.3422025984385 L 600.8653408457783 977.1928956019996 L 601.8743686707646 978.1256313292355 L 602.8071043980007 979.1346591542219 L 603.6577974015617 980.2137580848819 L 604.4212028761967 981.356275117471 L 605.0926141732965 982.5551662545581 L 605.6678918189476 983.8030399336111 L 606.1434890351652 985.0922025984386 L 606.5164736069594 986.4147061325218 L 606.7845459604149 987.7623968617961 L 606.9460533403297 989.1269658247629 Z" fill-opacity="1" stroke-opacity="1" stroke-miterlimit="10" stroke-width="2"/><text fill="none" stroke="rgb(0,0,0)" font-family="Helvetica Neue, Helvetica, sans-serif" font-size="10px" font-style="normal" font-weight="normal" text-decoration="normal" x="589.5" y="973" text-anchor="middle" dominant-baseline="text-after-edge" stroke-opacity="1" stroke-linejoin="round" stroke-miterlimit="10" stroke-width="4">CVE-2025-61729</text><text fill="rgb(255,255,255)" stroke="none" font-family="Helvetica Neue, Helvetica, sans-serif" font-size="10px" font-style="normal" font-weight="normal" text-decoration="normal" x="589.5" y="973" text-anchor="middle" dominant-baseline="text-after-edge" fill-opacity="1">CVE-2025-61729</text><path fill="rgb(99,102,241)" stroke="rgb(255,0,102)" paint-order="fill stroke markers" d=" M 81 746.5 L 80.95376000599691 747.6768864359177 L 80.81532510892707 748.8465169756034 L 80.58554880596515 750.0016804578386 L 80.2658477444273 751.1352549156242 L 79.8581929876693 752.2402514854764 L 79.36509786282552 753.3098574960932 L 78.78960246531139 754.3374784707393 L 78.13525491562422 755.3167787843871 L 77.40608948400046 756.2417207249528 L 76.60660171779821 757.1066017177982 L 75.74172072495276 757.9060894840005 L 74.8167787843871 758.6352549156242 L 73.83747847073923 759.2896024653114 L 72.8098574960932 759.8650978628256 L 71.74025148547635 760.3581929876693 L 70.63525491562422 760.7658477444273 L 69.50168045783859 761.0855488059651 L 68.34651697560346 761.315325108927 L 67.17688643591768 761.453760005997 L 66 761.5 L 64.82311356408232 761.453760005997 L 63.653483024396536 761.315325108927 L 62.49831954216142 761.0855488059651 L 61.36474508437579 760.7658477444273 L 60.25974851452365 760.3581929876693 L 59.1901425039068 759.8650978628256 L 58.16252152926077 759.2896024653114 L 57.1832212156129 758.6352549156242 L 56.258279275047244 757.9060894840005 L 55.39339828220179 757.1066017177982 L 54.59391051599954 756.2417207249528 L 53.86474508437579 755.3167787843871 L 53.21039753468862 754.3374784707393 L 52.634902137174485 753.3098574960932 L 52.1418070123307 752.2402514854764 L 51.734152255572695 751.1352549156242 L 51.414451194034854 750.0016804578386 L 51.18467489107294 748.8465169756034 L 51.04623999400308 747.6768864359177 L 51 746.5 L 51.04623999400308 745.3231135640823 L 51.18467489107293 744.1534830243966 L 51.414451194034854 742.9983195421614 L 51.734152255572695 741.8647450843758 L 52.141807012330695 740.7597485145236 L 52.63490213717448 739.6901425039068 L 53.21039753468862 738.6625215292607 L 53.864745084375784 737.6832212156129 L 54.59391051599953 736.7582792750472 L 55.39339828220179 735.8933982822018 L 56.25827927504724 735.0939105159996 L 57.1832212156129 734.3647450843758 L 58.16252152926077 733.7103975346886 L 59.190142503906806 733.1349021371744 L 60.25974851452367 732.6418070123307 L 61.36474508437581 732.2341522555727 L 62.49831954216145 731.9144511940349 L 63.65348302439657 731.684674891073 L 64.82311356408238 731.546239994003 L 66.00000000000006 731.5 L 67.17688643591774 731.546239994003 L 68.34651697560352 731.684674891073 L 69.50168045783865 731.9144511940349 L 70.63525491562429 732.2341522555727 L 71.74025148547642 732.6418070123307 L 72.80985749609329 733.1349021371745 L 73.83747847073931 733.7103975346887 L 74.81677878438718 734.3647450843758 L 75.74172072495284 735.0939105159996 L 76.6066017177983 735.8933982822018 L 77.40608948400055 736.7582792750474 L 78.13525491562429 737.683221215613 L 78.78960246531145 738.6625215292609 L 79.36509786282558 739.6901425039069 L 79.85819298766936 740.7597485145238 L 80.26584774442735 741.864745084376 L 80.58554880596519 742.9983195421615 L 80.8153251089271 744.1534830243967 L 80.95376000599694 745.3231135640825 Z" fill-opacity="1" stroke-opacity="1" stroke-miterlimit="10" stroke-width="2"/><text fill="none" stroke="rgb(0,0,0)" font-family="Helvetica Neue, Helvetica, sans-serif" font-size="10px" font-style="normal" font-weight="normal" text-decoration="normal" x="66" y="731.5" text-anchor="middle" dominant-baseline="text-after-edge" stroke-opacity="1" stroke-linejoin="round" stroke-miterlimit="10" stroke-width="4">UI:N</text><text fill="rgb(255,255,255)" stroke="none" font-family="Helvetica Neue, Helvetica, sans-serif" font-size="10px" font-style="normal" font-weight="normal" text-decoration="normal" x="66" y="731.5" text-anchor="middle" dominant-baseline="text-after-edge" fill-opacity="1">UI:N</text><path fill="rgb(234,179,8)" stroke="rgb(0,0,0)" paint-order="fill stroke markers" d=" M 607 945.5 L 606.9460533403297 946.8730341752373 L 606.7845459604149 948.237603138204 L 606.5164736069594 949.5852938674783 L 606.1434890351652 950.9077974015615 L 605.6678918189475 952.1969600663891 L 605.0926141732964 953.4448337454421 L 604.4212028761966 954.6437248825291 L 603.6577974015615 955.7862419151182 L 602.8071043980005 956.8653408457782 L 601.8743686707646 957.8743686707646 L 600.8653408457782 958.8071043980005 L 599.7862419151182 959.6577974015615 L 598.6437248825291 960.4212028761966 L 597.4448337454421 961.0926141732964 L 596.1969600663891 961.6678918189475 L 594.9077974015615 962.1434890351652 L 593.5852938674783 962.5164736069594 L 592.237603138204 962.7845459604149 L 590.8730341752373 962.9460533403297 L 589.5 963 L 588.1269658247627 962.9460533403297 L 586.762396861796 962.7845459604149 L 585.4147061325217 962.5164736069594 L 584.0922025984385 962.1434890351652 L 582.8030399336109 961.6678918189475 L 581.5551662545579 961.0926141732964 L 580.3562751174709 960.4212028761966 L 579.2137580848818 959.6577974015615 L 578.1346591542218 958.8071043980005 L 577.1256313292354 957.8743686707646 L 576.1928956019995 956.8653408457782 L 575.3422025984385 955.7862419151182 L 574.5787971238034 954.6437248825291 L 573.9073858267036 953.4448337454421 L 573.3321081810525 952.1969600663891 L 572.8565109648348 950.9077974015615 L 572.4835263930406 949.5852938674783 L 572.2154540395851 948.237603138204 L 572.0539466596703 946.8730341752373 L 572 945.5 L 572.0539466596703 944.1269658247627 L 572.2154540395851 942.762396861796 L 572.4835263930406 941.4147061325217 L 572.8565109648348 940.0922025984385 L 573.3321081810525 938.8030399336109 L 573.9073858267036 937.5551662545579 L 574.5787971238034 936.3562751174709 L 575.3422025984385 935.2137580848818 L 576.1928956019995 934.1346591542218 L 577.1256313292354 933.1256313292354 L 578.1346591542218 932.1928956019995 L 579.2137580848818 931.3422025984385 L 580.3562751174709 930.5787971238034 L 581.5551662545579 929.9073858267036 L 582.803039933611 929.3321081810525 L 584.0922025984385 928.8565109648348 L 585.4147061325217 928.4835263930406 L 586.762396861796 928.2154540395851 L 588.1269658247628 928.0539466596703 L 589.5000000000001 928 L 590.8730341752373 928.0539466596703 L 592.2376031382041 928.2154540395851 L 593.5852938674784 928.4835263930406 L 594.9077974015617 928.8565109648348 L 596.1969600663891 929.3321081810525 L 597.4448337454421 929.9073858267036 L 598.6437248825292 930.5787971238035 L 599.7862419151184 931.3422025984385 L 600.8653408457783 932.1928956019996 L 601.8743686707646 933.1256313292355 L 602.8071043980007 934.1346591542219 L 603.6577974015617 935.2137580848819 L 604.4212028761967 936.356275117471 L 605.0926141732965 937.5551662545581 L 605.6678918189476 938.8030399336111 L 606.1434890351652 940.0922025984386 L 606.5164736069594 941.4147061325218 L 606.7845459604149 942.7623968617961 L 606.9460533403297 944.1269658247629 Z" fill-opacity="1" stroke-opacity="1" stroke-miterlimit="10" stroke-width="2"/><text fill="none" stroke="rgb(0,0,0)" font-family="Helvetica Neue, Helvetica, sans-serif" font-size="10px" font-style="normal" font-weight="normal" text-decoration="normal" x="589.5" y="928" text-anchor="middle" dominant-baseline="text-after-edge" stroke-opacity="1" stroke-linejoin="round" stroke-miterlimit="10" stroke-width="4">CVE-2026-32281</text><text fill="rgb(255,255,255)" stroke="none" font-family="Helvetica Neue, Helvetica, sans-serif" font-size="10px" font-style="normal" font-weight="normal" text-decoration="normal" x="589.5" y="928" text-anchor="middle" dominant-baseline="text-after-edge" fill-opacity="1">CVE-2026-32281</text><path fill="rgb(234,179,8)" stroke="rgb(0,0,0)" paint-order="fill stroke markers" d=" M 607 900.5 L 606.9460533403297 901.8730341752373 L 606.7845459604149 903.237603138204 L 606.5164736069594 904.5852938674783 L 606.1434890351652 905.9077974015615 L 605.6678918189475 907.1969600663891 L 605.0926141732964 908.4448337454421 L 604.4212028761966 909.6437248825291 L 603.6577974015615 910.7862419151182 L 602.8071043980005 911.8653408457782 L 601.8743686707646 912.8743686707646 L 600.8653408457782 913.8071043980005 L 599.7862419151182 914.6577974015615 L 598.6437248825291 915.4212028761966 L 597.4448337454421 916.0926141732964 L 596.1969600663891 916.6678918189475 L 594.9077974015615 917.1434890351652 L 593.5852938674783 917.5164736069594 L 592.237603138204 917.7845459604149 L 590.8730341752373 917.9460533403297 L 589.5 918 L 588.1269658247627 917.9460533403297 L 586.762396861796 917.7845459604149 L 585.4147061325217 917.5164736069594 L 584.0922025984385 917.1434890351652 L 582.8030399336109 916.6678918189475 L 581.5551662545579 916.0926141732964 L 580.3562751174709 915.4212028761966 L 579.2137580848818 914.6577974015615 L 578.1346591542218 913.8071043980005 L 577.1256313292354 912.8743686707646 L 576.1928956019995 911.8653408457782 L 575.3422025984385 910.7862419151182 L 574.5787971238034 909.6437248825291 L 573.9073858267036 908.4448337454421 L 573.3321081810525 907.1969600663891 L 572.8565109648348 905.9077974015615 L 572.4835263930406 904.5852938674783 L 572.2154540395851 903.237603138204 L 572.0539466596703 901.8730341752373 L 572 900.5 L 572.0539466596703 899.1269658247627 L 572.2154540395851 897.762396861796 L 572.4835263930406 896.4147061325217 L 572.8565109648348 895.0922025984385 L 573.3321081810525 893.8030399336109 L 573.9073858267036 892.5551662545579 L 574.5787971238034 891.3562751174709 L 575.3422025984385 890.2137580848818 L 576.1928956019995 889.1346591542218 L 577.1256313292354 888.1256313292354 L 578.1346591542218 887.1928956019995 L 579.2137580848818 886.3422025984385 L 580.3562751174709 885.5787971238034 L 581.5551662545579 884.9073858267036 L 582.803039933611 884.3321081810525 L 584.0922025984385 883.8565109648348 L 585.4147061325217 883.4835263930406 L 586.762396861796 883.2154540395851 L 588.1269658247628 883.0539466596703 L 589.5000000000001 883 L 590.8730341752373 883.0539466596703 L 592.2376031382041 883.2154540395851 L 593.5852938674784 883.4835263930406 L 594.9077974015617 883.8565109648348 L 596.1969600663891 884.3321081810525 L 597.4448337454421 884.9073858267036 L 598.6437248825292 885.5787971238035 L 599.7862419151184 886.3422025984385 L 600.8653408457783 887.1928956019996 L 601.8743686707646 888.1256313292355 L 602.8071043980007 889.1346591542219 L 603.6577974015617 890.2137580848819 L 604.4212028761967 891.356275117471 L 605.0926141732965 892.5551662545581 L 605.6678918189476 893.8030399336111 L 606.1434890351652 895.0922025984386 L 606.5164736069594 896.4147061325218 L 606.7845459604149 897.7623968617961 L 606.9460533403297 899.1269658247629 Z" fill-opacity="1" stroke-opacity="1" stroke-miterlimit="10" stroke-width="2"/><text fill="none" stroke="rgb(0,0,0)" font-family="Helvetica Neue, Helvetica, sans-serif" font-size="10px" font-style="normal" font-weight="normal" text-decoration="normal" x="589.5" y="883" text-anchor="middle" dominant-baseline="text-after-edge" stroke-opacity="1" stroke-linejoin="round" stroke-miterlimit="10" stroke-width="4">CVE-2025-58188</text><text fill="rgb(255,255,255)" stroke="none" font-family="Helvetica Neue, Helvetica, sans-serif" font-size="10px" font-style="normal" font-weight="normal" text-decoration="normal" x="589.5" y="883" text-anchor="middle" dominant-baseline="text-after-edge" fill-opacity="1">CVE-2025-58188</text><path fill="rgb(234,179,8)" stroke="rgb(0,0,0)" paint-order="fill stroke markers" d=" M 607 855.5 L 606.9460533403297 856.8730341752373 L 606.7845459604149 858.237603138204 L 606.5164736069594 859.5852938674783 L 606.1434890351652 860.9077974015615 L 605.6678918189475 862.1969600663891 L 605.0926141732964 863.4448337454421 L 604.4212028761966 864.6437248825291 L 603.6577974015615 865.7862419151182 L 602.8071043980005 866.8653408457782 L 601.8743686707646 867.8743686707646 L 600.8653408457782 868.8071043980005 L 599.7862419151182 869.6577974015615 L 598.6437248825291 870.4212028761966 L 597.4448337454421 871.0926141732964 L 596.1969600663891 871.6678918189475 L 594.9077974015615 872.1434890351652 L 593.5852938674783 872.5164736069594 L 592.237603138204 872.7845459604149 L 590.8730341752373 872.9460533403297 L 589.5 873 L 588.1269658247627 872.9460533403297 L 586.762396861796 872.7845459604149 L 585.4147061325217 872.5164736069594 L 584.0922025984385 872.1434890351652 L 582.8030399336109 871.6678918189475 L 581.5551662545579 871.0926141732964 L 580.3562751174709 870.4212028761966 L 579.2137580848818 869.6577974015615 L 578.1346591542218 868.8071043980005 L 577.1256313292354 867.8743686707646 L 576.1928956019995 866.8653408457782 L 575.3422025984385 865.7862419151182 L 574.5787971238034 864.6437248825291 L 573.9073858267036 863.4448337454421 L 573.3321081810525 862.1969600663891 L 572.8565109648348 860.9077974015615 L 572.4835263930406 859.5852938674783 L 572.2154540395851 858.237603138204 L 572.0539466596703 856.8730341752373 L 572 855.5 L 572.0539466596703 854.1269658247627 L 572.2154540395851 852.762396861796 L 572.4835263930406 851.4147061325217 L 572.8565109648348 850.0922025984385 L 573.3321081810525 848.8030399336109 L 573.9073858267036 847.5551662545579 L 574.5787971238034 846.3562751174709 L 575.3422025984385 845.2137580848818 L 576.1928956019995 844.1346591542218 L 577.1256313292354 843.1256313292354 L 578.1346591542218 842.1928956019995 L 579.2137580848818 841.3422025984385 L 580.3562751174709 840.5787971238034 L 581.5551662545579 839.9073858267036 L 582.803039933611 839.3321081810525 L 584.0922025984385 838.8565109648348 L 585.4147061325217 838.4835263930406 L 586.762396861796 838.2154540395851 L 588.1269658247628 838.0539466596703 L 589.5000000000001 838 L 590.8730341752373 838.0539466596703 L 592.2376031382041 838.2154540395851 L 593.5852938674784 838.4835263930406 L 594.9077974015617 838.8565109648348 L 596.1969600663891 839.3321081810525 L 597.4448337454421 839.9073858267036 L 598.6437248825292 840.5787971238035 L 599.7862419151184 841.3422025984385 L 600.8653408457783 842.1928956019996 L 601.8743686707646 843.1256313292355 L 602.8071043980007 844.1346591542219 L 603.6577974015617 845.2137580848819 L 604.4212028761967 846.356275117471 L 605.0926141732965 847.5551662545581 L 605.6678918189476 848.8030399336111 L 606.1434890351652 850.0922025984386 L 606.5164736069594 851.4147061325218 L 606.7845459604149 852.7623968617961 L 606.9460533403297 854.1269658247629 Z" fill-opacity="1" stroke-opacity="1" stroke-miterlimit="10" stroke-width="2"/><text fill="none" stroke="rgb(0,0,0)" font-family="Helvetica Neue, Helvetica, sans-serif" font-size="10px" font-style="normal" font-weight="normal" text-decoration="normal" x="589.5" y="838" text-anchor="middle" dominant-baseline="text-after-edge" stroke-opacity="1" stroke-linejoin="round" stroke-miterlimit="10" stroke-width="4">CVE-2025-58189</text><text fill="rgb(255,255,255)" stroke="none" font-family="Helvetica Neue, Helvetica, sans-serif" font-size="10px" font-style="normal" font-weight="normal" text-decoration="normal" x="589.5" y="838" text-anchor="middle" dominant-baseline="text-after-edge" fill-opacity="1">CVE-2025-58189</text><path fill="rgb(234,179,8)" stroke="rgb(0,0,0)" paint-order="fill stroke markers" d=" M 607 810.5 L 606.9460533403297 811.8730341752373 L 606.7845459604149 813.237603138204 L 606.5164736069594 814.5852938674783 L 606.1434890351652 815.9077974015615 L 605.6678918189475 817.1969600663891 L 605.0926141732964 818.4448337454421 L 604.4212028761966 819.6437248825291 L 603.6577974015615 820.7862419151182 L 602.8071043980005 821.8653408457782 L 601.8743686707646 822.8743686707646 L 600.8653408457782 823.8071043980005 L 599.7862419151182 824.6577974015615 L 598.6437248825291 825.4212028761966 L 597.4448337454421 826.0926141732964 L 596.1969600663891 826.6678918189475 L 594.9077974015615 827.1434890351652 L 593.5852938674783 827.5164736069594 L 592.237603138204 827.7845459604149 L 590.8730341752373 827.9460533403297 L 589.5 828 L 588.1269658247627 827.9460533403297 L 586.762396861796 827.7845459604149 L 585.4147061325217 827.5164736069594 L 584.0922025984385 827.1434890351652 L 582.8030399336109 826.6678918189475 L 581.5551662545579 826.0926141732964 L 580.3562751174709 825.4212028761966 L 579.2137580848818 824.6577974015615 L 578.1346591542218 823.8071043980005 L 577.1256313292354 822.8743686707646 L 576.1928956019995 821.8653408457782 L 575.3422025984385 820.7862419151182 L 574.5787971238034 819.6437248825291 L 573.9073858267036 818.4448337454421 L 573.3321081810525 817.1969600663891 L 572.8565109648348 815.9077974015615 L 572.4835263930406 814.5852938674783 L 572.2154540395851 813.237603138204 L 572.0539466596703 811.8730341752373 L 572 810.5 L 572.0539466596703 809.1269658247627 L 572.2154540395851 807.762396861796 L 572.4835263930406 806.4147061325217 L 572.8565109648348 805.0922025984385 L 573.3321081810525 803.8030399336109 L 573.9073858267036 802.5551662545579 L 574.5787971238034 801.3562751174709 L 575.3422025984385 800.2137580848818 L 576.1928956019995 799.1346591542218 L 577.1256313292354 798.1256313292354 L 578.1346591542218 797.1928956019995 L 579.2137580848818 796.3422025984385 L 580.3562751174709 795.5787971238034 L 581.5551662545579 794.9073858267036 L 582.803039933611 794.3321081810525 L 584.0922025984385 793.8565109648348 L 585.4147061325217 793.4835263930406 L 586.762396861796 793.2154540395851 L 588.1269658247628 793.0539466596703 L 589.5000000000001 793 L 590.8730341752373 793.0539466596703 L 592.2376031382041 793.2154540395851 L 593.5852938674784 793.4835263930406 L 594.9077974015617 793.8565109648348 L 596.1969600663891 794.3321081810525 L 597.4448337454421 794.9073858267036 L 598.6437248825292 795.5787971238035 L 599.7862419151184 796.3422025984385 L 600.8653408457783 797.1928956019996 L 601.8743686707646 798.1256313292355 L 602.8071043980007 799.1346591542219 L 603.6577974015617 800.2137580848819 L 604.4212028761967 801.356275117471 L 605.0926141732965 802.5551662545581 L 605.6678918189476 803.8030399336111 L 606.1434890351652 805.0922025984386 L 606.5164736069594 806.4147061325218 L 606.7845459604149 807.7623968617961 L 606.9460533403297 809.1269658247629 Z" fill-opacity="1" stroke-opacity="1" stroke-miterlimit="10" stroke-width="2"/><text fill="none" stroke="rgb(0,0,0)" font-family="Helvetica Neue, Helvetica, sans-serif" font-size="10px" font-style="normal" font-weight="normal" text-decoration="normal" x="589.5" y="793" text-anchor="middle" dominant-baseline="text-after-edge" stroke-opacity="1" stroke-linejoin="round" stroke-miterlimit="10" stroke-width="4">CVE-2025-61727</text><text fill="rgb(255,255,255)" stroke="none" font-family="Helvetica Neue, Helvetica, sans-serif" font-size="10px" font-style="normal" font-weight="normal" text-decoration="normal" x="589.5" y="793" text-anchor="middle" dominant-baseline="text-after-edge" fill-opacity="1">CVE-2025-61727</text><path fill="rgb(234,179,8)" stroke="rgb(255,102,102)" paint-order="fill stroke markers" d=" M 607 138.5 L 606.9460533403297 139.87303417523728 L 606.7845459604149 141.23760313820404 L 606.5164736069594 142.58529386747836 L 606.1434890351652 143.90779740156157 L 605.6678918189475 145.19696006638907 L 605.0926141732964 146.44483374544205 L 604.4212028761966 147.6437248825291 L 603.6577974015615 148.78624191511827 L 602.8071043980005 149.8653408457782 L 601.8743686707646 150.87436867076457 L 600.8653408457782 151.80710439800055 L 599.7862419151182 152.6577974015616 L 598.6437248825291 153.42120287619662 L 597.4448337454421 154.09261417329643 L 596.1969600663891 154.6678918189475 L 594.9077974015615 155.14348903516517 L 593.5852938674783 155.51647360695935 L 592.237603138204 155.7845459604149 L 590.8730341752373 155.94605334032974 L 589.5 156 L 588.1269658247627 155.94605334032974 L 586.762396861796 155.7845459604149 L 585.4147061325217 155.51647360695935 L 584.0922025984385 155.1434890351652 L 582.8030399336109 154.6678918189475 L 581.5551662545579 154.09261417329643 L 580.3562751174709 153.42120287619662 L 579.2137580848818 152.6577974015616 L 578.1346591542218 151.80710439800055 L 577.1256313292354 150.87436867076457 L 576.1928956019995 149.8653408457782 L 575.3422025984385 148.7862419151183 L 574.5787971238034 147.6437248825291 L 573.9073858267036 146.44483374544208 L 573.3321081810525 145.19696006638907 L 572.8565109648348 143.9077974015616 L 572.4835263930406 142.58529386747836 L 572.2154540395851 141.23760313820404 L 572.0539466596703 139.87303417523728 L 572 138.5 L 572.0539466596703 137.12696582476272 L 572.2154540395851 135.76239686179596 L 572.4835263930406 134.41470613252164 L 572.8565109648348 133.09220259843843 L 573.3321081810525 131.80303993361093 L 573.9073858267036 130.55516625455795 L 574.5787971238034 129.3562751174709 L 575.3422025984385 128.21375808488173 L 576.1928956019995 127.1346591542218 L 577.1256313292354 126.12563132923542 L 578.1346591542218 125.19289560199947 L 579.2137580848818 124.34220259843842 L 580.3562751174709 123.57879712380338 L 581.5551662545579 122.90738582670356 L 582.803039933611 122.33210818105248 L 584.0922025984385 121.8565109648348 L 585.4147061325217 121.48352639304065 L 586.762396861796 121.21545403958508 L 588.1269658247628 121.05394665967026 L 589.5000000000001 121 L 590.8730341752373 121.05394665967026 L 592.2376031382041 121.2154540395851 L 593.5852938674784 121.48352639304068 L 594.9077974015617 121.85651096483484 L 596.1969600663891 122.33210818105252 L 597.4448337454421 122.9073858267036 L 598.6437248825292 123.57879712380344 L 599.7862419151184 124.34220259843849 L 600.8653408457783 125.19289560199954 L 601.8743686707646 126.12563132923552 L 602.8071043980007 127.1346591542219 L 603.6577974015617 128.21375808488185 L 604.4212028761967 129.35627511747103 L 605.0926141732965 130.5551662545581 L 605.6678918189476 131.8030399336111 L 606.1434890351652 133.0922025984386 L 606.5164736069594 134.41470613252184 L 606.7845459604149 135.76239686179616 L 606.9460533403297 137.12696582476292 Z" fill-opacity="0.25" stroke-opacity="0.25" stroke-miterlimit="10" stroke-width="2" stroke-dasharray="4,2"/><text fill="none" stroke="rgb(0,0,0)" font-family="Helvetica Neue, Helvetica, sans-serif" font-size="10px" font-style="normal" font-weight="normal" text-decoration="normal" x="589.5" y="121" text-anchor="middle" dominant-baseline="text-after-edge" stroke-opacity="0.25" stroke-linejoin="round" stroke-miterlimit="10" stroke-width="4">CVE-2026-32289</text><text fill="rgb(255,255,255)" stroke="none" font-family="Helvetica Neue, Helvetica, sans-serif" font-size="10px" font-style="normal" font-weight="normal" text-decoration="normal" x="589.5" y="121" text-anchor="middle" dominant-baseline="text-after-edge" fill-opacity="0.25">CVE-2026-32289</text><path fill="rgb(234,179,8)" stroke="rgb(255,102,102)" paint-order="fill stroke markers" d=" M 926 734 L 925.9460533403297 735.3730341752373 L 925.7845459604149 736.737603138204 L 925.5164736069594 738.0852938674783 L 925.1434890351652 739.4077974015615 L 924.6678918189475 740.6969600663891 L 924.0926141732964 741.9448337454421 L 923.4212028761966 743.1437248825291 L 922.6577974015615 744.2862419151182 L 921.8071043980005 745.3653408457782 L 920.8743686707646 746.3743686707646 L 919.8653408457782 747.3071043980005 L 918.7862419151182 748.1577974015615 L 917.6437248825291 748.9212028761966 L 916.4448337454421 749.5926141732964 L 915.1969600663891 750.1678918189475 L 913.9077974015615 750.6434890351652 L 912.5852938674783 751.0164736069594 L 911.237603138204 751.2845459604149 L 909.8730341752373 751.4460533403297 L 908.5 751.5 L 907.1269658247627 751.4460533403297 L 905.762396861796 751.2845459604149 L 904.4147061325217 751.0164736069594 L 903.0922025984385 750.6434890351652 L 901.8030399336109 750.1678918189475 L 900.5551662545579 749.5926141732964 L 899.3562751174709 748.9212028761966 L 898.2137580848818 748.1577974015615 L 897.1346591542218 747.3071043980005 L 896.1256313292354 746.3743686707646 L 895.1928956019995 745.3653408457782 L 894.3422025984385 744.2862419151182 L 893.5787971238034 743.1437248825291 L 892.9073858267036 741.9448337454421 L 892.3321081810525 740.6969600663891 L 891.8565109648348 739.4077974015615 L 891.4835263930406 738.0852938674783 L 891.2154540395851 736.737603138204 L 891.0539466596703 735.3730341752373 L 891 734 L 891.0539466596703 732.6269658247627 L 891.2154540395851 731.262396861796 L 891.4835263930406 729.9147061325217 L 891.8565109648348 728.5922025984385 L 892.3321081810525 727.3030399336109 L 892.9073858267036 726.0551662545579 L 893.5787971238034 724.8562751174709 L 894.3422025984385 723.7137580848818 L 895.1928956019995 722.6346591542218 L 896.1256313292354 721.6256313292354 L 897.1346591542218 720.6928956019995 L 898.2137580848818 719.8422025984385 L 899.3562751174709 719.0787971238034 L 900.5551662545579 718.4073858267036 L 901.803039933611 717.8321081810525 L 903.0922025984385 717.3565109648348 L 904.4147061325217 716.9835263930406 L 905.762396861796 716.7154540395851 L 907.1269658247628 716.5539466596703 L 908.5000000000001 716.5 L 909.8730341752373 716.5539466596703 L 911.2376031382041 716.7154540395851 L 912.5852938674784 716.9835263930406 L 913.9077974015617 717.3565109648348 L 915.1969600663891 717.8321081810525 L 916.4448337454421 718.4073858267036 L 917.6437248825292 719.0787971238035 L 918.7862419151184 719.8422025984385 L 919.8653408457783 720.6928956019996 L 920.8743686707646 721.6256313292355 L 921.8071043980007 722.6346591542219 L 922.6577974015617 723.7137580848819 L 923.4212028761967 724.856275117471 L 924.0926141732965 726.0551662545581 L 924.6678918189476 727.3030399336111 L 925.1434890351652 728.5922025984386 L 925.5164736069594 729.9147061325218 L 925.7845459604149 731.2623968617961 L 925.9460533403297 732.6269658247629 Z" fill-opacity="0.25" stroke-opacity="0.25" stroke-miterlimit="10" stroke-width="2" stroke-dasharray="4,2"/><text fill="none" stroke="rgb(0,0,0)" font-family="Helvetica Neue, Helvetica, sans-serif" font-size="10px" font-style="normal" font-weight="normal" text-decoration="normal" x="908.5" y="716.5" text-anchor="middle" dominant-baseline="text-after-edge" stroke-opacity="0.25" stroke-linejoin="round" stroke-miterlimit="10" stroke-width="4">CVE-2026-32282</text><text fill="rgb(255,255,255)" stroke="none" font-family="Helvetica Neue, Helvetica, sans-serif" font-size="10px" font-style="normal" font-weight="normal" text-decoration="normal" x="908.5" y="716.5" text-anchor="middle" dominant-baseline="text-after-edge" fill-opacity="0.25">CVE-2026-32282</text><path fill="rgb(255,0,0)" stroke="rgb(255,215,0)" paint-order="fill stroke markers" d=" M 1054 607.5 L 1044.7343318831333 621.7299193548821 L 1029 626.5983005625053 L 1039.0078340584334 640.2612555886155 L 1038.5491502812527 657.5 L 1054 651.7142512380153 L 1069.4508497187473 657.5 L 1068.9921659415666 640.2612555886155 L 1079 626.5983005625053 L 1063.2656681168667 621.7299193548821 Z" fill-opacity="0.25" stroke-opacity="0.25" stroke-miterlimit="10" stroke-width="4" stroke-dasharray="4,2"/><text fill="none" stroke="rgb(0,0,0)" font-family="Helvetica Neue, Helvetica, sans-serif" font-size="10px" font-style="normal" font-weight="bold" text-decoration="normal" x="1054" y="607.5" text-anchor="middle" dominant-baseline="text-after-edge" stroke-opacity="0.25" stroke-linejoin="round" stroke-miterlimit="10" stroke-width="4">EXPLOITED</text><text fill="rgb(255,255,255)" stroke="none" font-family="Helvetica Neue, Helvetica, sans-serif" font-size="10px" font-style="normal" font-weight="bold" text-decoration="normal" x="1054" y="607.5" text-anchor="middle" dominant-baseline="text-after-edge" fill-opacity="0.25">EXPLOITED</text><path fill="rgb(0,255,136)" stroke="rgb(0,204,102)" paint-order="fill stroke markers" d=" M 1213 902.75 L 1243 872.75 L 1213 842.75 L 1183 872.75 Z" fill-opacity="1" stroke-opacity="1" stroke-miterlimit="10" stroke-width="4"/><text fill="none" stroke="rgb(0,0,0)" font-family="Helvetica Neue, Helvetica, sans-serif" font-size="14px" font-style="normal" font-weight="bold" text-decoration="normal" x="1213" y="842.75" text-anchor="middle" dominant-baseline="text-after-edge" stroke-opacity="1" stroke-linejoin="round" stroke-miterlimit="10" stroke-width="6">INSIDE NETWORK</text><text fill="rgb(255,255,255)" stroke="none" font-family="Helvetica Neue, Helvetica, sans-serif" font-size="14px" font-style="normal" font-weight="bold" text-decoration="normal" x="1213" y="842.75" text-anchor="middle" dominant-baseline="text-after-edge" fill-opacity="1">INSIDE NETWORK</text><g transform="scale(0.5,0.5) translate(64,212)"/></g></g></svg>