<svg version="1.1" xmlns="http://www.w3.org/2000/svg" xmlns:xlink="http://www.w3.org/1999/xlink" width="2498" height="3378"><defs/><g><rect fill="#ffffff" stroke="none" x="0" y="0" width="2498" height="3378"/><g transform="translate(-64,28) scale(2,2)"><path fill="rgb(100,100,100)" stroke="rgb(136,136,136)" paint-order="fill stroke markers" d=" M 139.5 483.75 L 237 483.75 L 237 483.75 A 8 8 0 0 1 245 491.75 L 245 731.75 L 245 731.75 A 8 8 0 0 1 237 739.75 L 42 739.75 L 42 739.75 A 8 8 0 0 1 34 731.75 L 34 491.75 L 34 491.75 A 8 8 0 0 1 42 483.75 L 139.5 483.75 Z" fill-opacity="1" stroke-opacity="1" stroke-miterlimit="10" stroke-width="2" stroke-dasharray="4,2"/><text fill="none" stroke="rgb(0,0,0)" font-family="Helvetica Neue, Helvetica, sans-serif" font-size="12px" font-style="normal" font-weight="normal" text-decoration="normal" x="139.5" y="483.75" text-anchor="middle" dominant-baseline="text-after-edge" stroke-opacity="1" stroke-linejoin="round" stroke-miterlimit="10" stroke-width="4">Initial State</text><text fill="rgb(204,204,204)" stroke="none" font-family="Helvetica Neue, Helvetica, sans-serif" font-size="12px" font-style="normal" font-weight="normal" text-decoration="normal" x="139.5" y="483.75" text-anchor="middle" dominant-baseline="text-after-edge" fill-opacity="1">Initial State</text><path fill="rgb(234,179,8)" stroke="rgb(234,179,8)" paint-order="fill stroke markers" d=" M 589.5 1220 L 636.5 1220 L 636.5 1220 A 8 8 0 0 1 644.5 1228 L 644.5 1512 L 644.5 1512 A 8 8 0 0 1 636.5 1520 L 542.5 1520 L 542.5 1520 A 8 8 0 0 1 534.5 1512 L 534.5 1228 L 534.5 1228 A 8 8 0 0 1 542.5 1220 L 589.5 1220 Z" fill-opacity="1" stroke-opacity="1" stroke-miterlimit="10" stroke-width="2" stroke-dasharray="4,2"/><text fill="none" stroke="rgb(0,0,0)" font-family="Helvetica Neue, Helvetica, sans-serif" font-size="10px" font-style="normal" font-weight="normal" text-decoration="normal" x="589.5" y="1220" text-anchor="middle" dominant-baseline="text-after-edge" stroke-opacity="1" stroke-linejoin="round" stroke-miterlimit="10" stroke-width="2">→ AV:L, EX:Y, PR:H (×6)</text><text fill="rgb(234,179,8)" stroke="none" font-family="Helvetica Neue, Helvetica, sans-serif" font-size="10px" font-style="normal" font-weight="normal" text-decoration="normal" x="589.5" y="1220" text-anchor="middle" dominant-baseline="text-after-edge" fill-opacity="1">→ AV:L, EX:Y, PR:H (×6)</text><path fill="none" stroke="rgb(0,255,255)" paint-order="fill stroke markers" d=" M 781.0711758399971 542.1026468722616 L 898.5561589750041 780.5665903358821" stroke-opacity="0.7" stroke-linejoin="round" stroke-miterlimit="10" stroke-width="2"/><path fill="rgb(255,255,255)" stroke="none" paint-order="stroke fill markers" d=" M 892.5768752036089 778.2729762486545 L 900.3239529350034 784.1547520539475 L 900.3811269404011 774.428024385656 Z" fill-opacity="1"/><path fill="rgb(0,255,255)" stroke="none" paint-order="stroke fill markers" d=" M 892.5768752036089 778.2729762486545 L 900.3239529350034 784.1547520539475 L 900.3811269404011 774.428024385656 Z" fill-opacity="0.7"/><path fill="none" stroke="rgb(255,0,102)" paint-order="fill stroke markers" d=" M 79.4447463715879 536.4240299171535 L 182.3918421738333 602.8415110798925" stroke-opacity="0.7" stroke-linejoin="round" stroke-miterlimit="10" stroke-width="2"/><path fill="rgb(255,255,255)" stroke="none" paint-order="stroke fill markers" d=" M 176.08419604345323 603.9488052115041 L 185.75302876673027 605.0100185591808 L 180.80069981090543 596.6382243719531 Z" fill-opacity="1"/><path fill="rgb(255,0,102)" stroke="none" paint-order="stroke fill markers" d=" M 176.08419604345323 603.9488052115041 L 185.75302876673027 605.0100185591808 L 180.80069981090543 596.6382243719531 Z" fill-opacity="0.7"/><path fill="none" stroke="rgb(0,255,136)" paint-order="fill stroke markers" d=" M 1058.9525947748339 823.3559475335575 L 1206.3931911161649 1496.3434493871482" stroke-opacity="0.25" stroke-linejoin="round" stroke-miterlimit="10" stroke-width="2"/><path fill="rgb(255,255,255)" stroke="none" paint-order="stroke fill markers" d=" M 1201.1381348785528 1492.683273989775 L 1207.2492229443346 1500.2507770556654 L 1209.636572557578 1490.8214047635058 Z" fill-opacity="1"/><path fill="rgb(0,255,136)" stroke="none" paint-order="stroke fill markers" d=" M 1201.1381348785528 1492.683273989775 L 1207.2492229443346 1500.2507770556654 L 1209.636572557578 1490.8214047635058 Z" fill-opacity="0.25"/><path fill="none" stroke="rgb(255,0,102)" paint-order="fill stroke markers" d=" M 81.2273378841688 577.6620444787641 L 179.32801301158483 609.3074235521242" stroke-opacity="0.7" stroke-linejoin="round" stroke-miterlimit="10" stroke-width="2"/><path fill="rgb(255,255,255)" stroke="none" paint-order="stroke fill markers" d=" M 173.51952041544624 612.0044429737457 L 183.13484748262704 610.5354346718152 L 176.19044460077424 603.7245779992288 Z" fill-opacity="1"/><path fill="rgb(255,0,102)" stroke="none" paint-order="stroke fill markers" d=" M 173.51952041544624 612.0044429737457 L 183.13484748262704 610.5354346718152 L 176.19044460077424 603.7245779992288 Z" fill-opacity="0.7"/><path fill="none" stroke="rgb(255,0,102)" paint-order="fill stroke markers" d=" M 81.2273378841688 657.8379555212359 L 179.32801301158483 626.1925764478758" stroke-opacity="0.7" stroke-linejoin="round" stroke-miterlimit="10" stroke-width="2"/><path fill="rgb(255,255,255)" stroke="none" paint-order="stroke fill markers" d=" M 176.19044460077424 631.7754220007712 L 183.13484748262704 624.9645653281848 L 173.51952041544624 623.4955570262543 Z" fill-opacity="1"/><path fill="rgb(255,0,102)" stroke="none" paint-order="stroke fill markers" d=" M 176.19044460077424 631.7754220007712 L 183.13484748262704 624.9645653281848 L 173.51952041544624 623.4955570262543 Z" fill-opacity="0.7"/><path fill="none" stroke="rgb(255,102,0)" paint-order="fill stroke markers" d=" M 229 617.75 L 375 617.75" stroke-opacity="0.7" stroke-linejoin="round" stroke-miterlimit="10" stroke-width="2"/><path fill="rgb(255,255,255)" stroke="none" paint-order="stroke fill markers" d=" M 370.3 622.1 L 379 617.75 L 370.3 613.4 Z" fill-opacity="1"/><path fill="rgb(255,102,0)" stroke="none" paint-order="stroke fill markers" d=" M 370.3 622.1 L 379 617.75 L 370.3 613.4 Z" fill-opacity="0.7"/><path fill="none" stroke="rgb(203,143,255)" paint-order="fill stroke markers" d=" M 595.8016742007475 35.893645456534784 L 766.5061171666787 507.0656648624991" stroke-opacity="0.9" stroke-linejoin="round" stroke-miterlimit="10" stroke-width="3" stroke-dasharray="6,3"/><path fill="rgb(255,255,255)" stroke="none" paint-order="stroke fill markers" d=" M 761.4965561894925 506.0088778376671 L 768.5499033939482 512.7068471727266 L 769.6762705393223 503.0453878081264 Z" fill-opacity="1"/><path fill="rgb(203,143,255)" stroke="none" paint-order="stroke fill markers" d=" M 761.4965561894925 506.0088778376671 L 768.5499033939482 512.7068471727266 L 769.6762705393223 503.0453878081264 Z" fill-opacity="0.9"/><path fill="none" stroke="rgb(255,153,119)" paint-order="fill stroke markers" d=" M 419.7593785800692 624.861044798727 L 885.4473916565859 792.4537810681519" stroke-opacity="0.9" stroke-linejoin="round" stroke-miterlimit="10" stroke-width="3" stroke-dasharray="6,3"/><path fill="rgb(255,255,255)" stroke="none" paint-order="stroke fill markers" d=" M 881.4338979879835 795.632518014187 L 891.0929283937485 794.4855081535025 L 884.3799022617418 787.4464897453013 Z" fill-opacity="1"/><path fill="rgb(255,153,119)" stroke="none" paint-order="stroke fill markers" d=" M 881.4338979879835 795.632518014187 L 891.0929283937485 794.4855081535025 L 884.3799022617418 787.4464897453013 Z" fill-opacity="0.9"/><path fill="none" stroke="rgb(203,143,255)" paint-order="fill stroke markers" d=" M 927 800.75 L 1025.6687035712225 800.75" stroke-opacity="0.9" stroke-linejoin="round" stroke-miterlimit="10" stroke-width="3" stroke-dasharray="6,3"/><path fill="rgb(255,255,255)" stroke="none" paint-order="stroke fill markers" d=" M 1022.9687035712225 805.1 L 1031.6687035712225 800.75 L 1022.9687035712225 796.4 Z" fill-opacity="1"/><path fill="rgb(203,143,255)" stroke="none" paint-order="stroke fill markers" d=" M 1022.9687035712225 805.1 L 1031.6687035712225 800.75 L 1022.9687035712225 796.4 Z" fill-opacity="0.9"/><path fill="none" stroke="rgb(255,153,119)" paint-order="fill stroke markers" d=" M 406.3317537644773 597.7272905363428 L 582.112953941443 41.85982770760006" stroke-opacity="0.9" stroke-linejoin="round" stroke-miterlimit="10" stroke-width="3" stroke-dasharray="6,3"/><path fill="rgb(255,255,255)" stroke="none" paint-order="stroke fill markers" d=" M 585.446432560625 45.74575363271201 L 583.9220264455795 36.13905357512658 L 577.1513100685385 43.12259850171426 Z" fill-opacity="1"/><path fill="rgb(255,153,119)" stroke="none" paint-order="stroke fill markers" d=" M 585.446432560625 45.74575363271201 L 583.9220264455795 36.13905357512658 L 577.1513100685385 43.12259850171426 Z" fill-opacity="0.9"/><path fill="none" stroke="rgb(0,255,136)" paint-order="fill stroke markers" d=" M 1067.8199615557091 1636.2981108360125 L 1191.589424224743 1542.6925895407212" stroke-opacity="0.7" stroke-linejoin="round" stroke-miterlimit="10" stroke-width="2"/><path fill="rgb(255,255,255)" stroke="none" paint-order="stroke fill markers" d=" M 1190.4647154481909 1548.9971537737151 L 1194.7797672336617 1540.2797672336617 L 1185.2168269303365 1542.0581577293171 Z" fill-opacity="1"/><path fill="rgb(0,255,136)" stroke="none" paint-order="stroke fill markers" d=" M 1190.4647154481909 1548.9971537737151 L 1194.7797672336617 1540.2797672336617 L 1185.2168269303365 1542.0581577293171 Z" fill-opacity="0.7"/><path fill="none" stroke="rgb(0,255,255)" paint-order="fill stroke markers" d=" M 777.5850972852784 1370.1568259339192 L 903.4584569425772 822.6779010304259" stroke-opacity="0.7" stroke-linejoin="round" stroke-miterlimit="10" stroke-width="2"/><path fill="rgb(255,255,255)" stroke="none" paint-order="stroke fill markers" d=" M 906.6447288142424 828.2330942367721 L 904.3547312638968 818.7796075139057 L 898.1659404158111 826.283697587902 Z" fill-opacity="1"/><path fill="rgb(0,255,255)" stroke="none" paint-order="stroke fill markers" d=" M 906.6447288142424 828.2330942367721 L 904.3547312638968 818.7796075139057 L 898.1659404158111 826.283697587902 Z" fill-opacity="0.7"/><path fill="none" stroke="rgb(255,0,102)" paint-order="fill stroke markers" d=" M 79.4447463715879 699.0759700828465 L 182.3918421738333 632.6584889201075" stroke-opacity="0.7" stroke-linejoin="round" stroke-miterlimit="10" stroke-width="2"/><path fill="rgb(255,255,255)" stroke="none" paint-order="stroke fill markers" d=" M 180.80069981090543 638.8617756280469 L 185.75302876673027 630.4899814408192 L 176.08419604345323 631.5511947884959 Z" fill-opacity="1"/><path fill="rgb(255,0,102)" stroke="none" paint-order="stroke fill markers" d=" M 180.80069981090543 638.8617756280469 L 185.75302876673027 630.4899814408192 L 176.08419604345323 631.5511947884959 Z" fill-opacity="0.7"/><path fill="none" stroke="rgb(0,255,255)" paint-order="fill stroke markers" d=" M 645.5 1403.3649085037675 L 1034.2935456907458 1635.0088563399654" stroke-opacity="0.7" stroke-linejoin="round" stroke-miterlimit="10" stroke-width="2"/><path fill="rgb(255,255,255)" stroke="none" paint-order="stroke fill markers" d=" M 1028.0293596578158 1636.3401990249438 L 1037.7298653527441 1637.0562222526846 L 1032.48238051798 1628.8662037600975 Z" fill-opacity="1"/><path fill="rgb(0,255,255)" stroke="none" paint-order="stroke fill markers" d=" M 1028.0293596578158 1636.3401990249438 L 1037.7298653527441 1637.0562222526846 L 1032.48238051798 1628.8662037600975 Z" fill-opacity="0.7"/><path fill="none" stroke="rgb(0,255,255)" paint-order="fill stroke markers" d=" M 645.5 1374.780487804878 L 754.0724774043772 1384.0488700223248" stroke-opacity="0.7" stroke-linejoin="round" stroke-miterlimit="10" stroke-width="2"/><path fill="rgb(255,255,255)" stroke="none" paint-order="stroke fill markers" d=" M 749.0195138242615 1387.9833406421192 L 758.0579819235018 1384.3890960178599 L 749.7595053645503 1379.3148683130232 Z" fill-opacity="1"/><path fill="rgb(0,255,255)" stroke="none" paint-order="stroke fill markers" d=" M 749.0195138242615 1387.9833406421192 L 758.0579819235018 1384.3890960178599 L 749.7595053645503 1379.3148683130232 Z" fill-opacity="0.7"/><path fill="none" stroke="rgb(0,255,255)" paint-order="fill stroke markers" d=" M 622.5774710596615 1219 L 769.720355505619 547.286751086138" stroke-opacity="0.7" stroke-linejoin="round" stroke-miterlimit="10" stroke-width="2"/><path fill="rgb(255,255,255)" stroke="none" paint-order="stroke fill markers" d=" M 772.9638824106744 552.8087102689083 L 770.5762844044951 543.3794008689104 L 764.4653956882044 550.9470649138525 Z" fill-opacity="1"/><path fill="rgb(0,255,255)" stroke="none" paint-order="stroke fill markers" d=" M 772.9638824106744 552.8087102689083 L 770.5762844044951 543.3794008689104 L 764.4653956882044 550.9470649138525 Z" fill-opacity="0.7"/><path fill="none" stroke="rgb(0,255,255)" paint-order="fill stroke markers" d=" M 405.1298647252704 638.113803375117 L 550.4843318958465 1215.1211803095016" stroke-opacity="0.7" stroke-linejoin="round" stroke-miterlimit="10" stroke-width="2"/><path fill="rgb(255,255,255)" stroke="none" paint-order="stroke fill markers" d=" M 545.1180029010594 1211.6261820091147 L 551.4614489863742 1219 L 553.5544357278935 1209.5009523372169 Z" fill-opacity="1"/><path fill="rgb(0,255,255)" stroke="none" paint-order="stroke fill markers" d=" M 545.1180029010594 1211.6261820091147 L 551.4614489863742 1219 L 553.5544357278935 1209.5009523372169 Z" fill-opacity="0.7"/><path fill="rgb(239,68,68)" stroke="rgb(0,0,0)" paint-order="fill stroke markers" d=" M 420 617.75 L 419.93834667466257 619.3191819145569 L 419.7537668119028 620.8786893008046 L 419.44739840795353 622.4189072771181 L 419.0211303259031 623.9303398874989 L 418.47759065022575 625.4036686473017 L 417.82013048376734 626.8298099947909 L 417.0528032870818 628.199971294319 L 416.180339887499 629.5057050458495 L 415.20811931200063 630.7389609666037 L 414.14213562373095 631.892135623731 L 412.98896096660366 632.9581193120006 L 411.7557050458495 633.9303398874989 L 410.44997129431897 634.8028032870818 L 409.07980999479093 635.5701304837673 L 407.6536686473018 636.2275906502257 L 406.180339887499 636.7711303259031 L 404.66890727711814 637.1973984079535 L 403.12868930080464 637.5037668119028 L 401.5691819145569 637.6883466746625 L 400 637.75 L 398.4308180854431 637.6883466746625 L 396.87131069919536 637.5037668119028 L 395.3310927228819 637.1973984079535 L 393.819660112501 636.7711303259031 L 392.3463313526982 636.2275906502257 L 390.92019000520907 635.5701304837673 L 389.55002870568103 634.8028032870818 L 388.2442949541505 633.9303398874989 L 387.01103903339634 632.9581193120006 L 385.85786437626905 631.892135623731 L 384.79188068799937 630.7389609666037 L 383.8196601125011 629.5057050458495 L 382.9471967129182 628.199971294319 L 382.17986951623266 626.8298099947909 L 381.52240934977425 625.4036686473017 L 380.9788696740969 623.9303398874989 L 380.55260159204647 622.4189072771181 L 380.2462331880972 620.8786893008046 L 380.06165332533743 619.3191819145569 L 380 617.75 L 380.06165332533743 616.1808180854431 L 380.2462331880972 614.6213106991954 L 380.55260159204647 613.0810927228819 L 380.9788696740969 611.5696601125011 L 381.52240934977425 610.0963313526983 L 382.17986951623266 608.6701900052091 L 382.9471967129181 607.300028705681 L 383.819660112501 605.9942949541505 L 384.79188068799937 604.7610390333963 L 385.85786437626905 603.607864376269 L 387.01103903339634 602.5418806879994 L 388.2442949541505 601.5696601125011 L 389.55002870568103 600.6971967129182 L 390.92019000520907 599.9298695162327 L 392.3463313526982 599.2724093497743 L 393.8196601125011 598.7288696740969 L 395.3310927228819 598.3026015920465 L 396.8713106991954 597.9962331880972 L 398.43081808544315 597.8116533253375 L 400.00000000000006 597.75 L 401.56918191455696 597.8116533253375 L 403.1286893008047 597.9962331880972 L 404.6689072771182 598.3026015920465 L 406.18033988749903 598.7288696740969 L 407.6536686473019 599.2724093497743 L 409.07980999479105 599.9298695162327 L 410.4499712943191 600.6971967129182 L 411.7557050458496 601.5696601125011 L 412.98896096660377 602.5418806879994 L 414.14213562373106 603.6078643762692 L 415.20811931200075 604.7610390333964 L 416.18033988749903 605.9942949541506 L 417.05280328708193 607.3000287056811 L 417.82013048376746 608.6701900052092 L 418.4775906502258 610.0963313526984 L 419.02113032590313 611.5696601125012 L 419.4473984079536 613.0810927228821 L 419.7537668119028 614.6213106991956 L 419.93834667466257 616.1808180854433 Z" fill-opacity="1" stroke-opacity="1" stroke-miterlimit="10" stroke-width="2"/><text fill="none" stroke="rgb(0,0,0)" font-family="Helvetica Neue, Helvetica, sans-serif" font-size="10px" font-style="normal" font-weight="normal" text-decoration="normal" x="400" y="597.75" text-anchor="middle" dominant-baseline="text-after-edge" stroke-opacity="1" stroke-linejoin="round" stroke-miterlimit="10" stroke-width="4">host_postgres_fb02b9d1</text><text fill="rgb(255,255,255)" stroke="none" font-family="Helvetica Neue, Helvetica, sans-serif" font-size="10px" font-style="normal" font-weight="normal" text-decoration="normal" x="400" y="597.75" text-anchor="middle" dominant-baseline="text-after-edge" fill-opacity="1">host_postgres_fb02b9d1</text><path fill="rgb(99,102,241)" stroke="rgb(255,0,102)" paint-order="fill stroke markers" d=" M 81 707.75 L 80.95376000599691 708.9268864359177 L 80.81532510892707 710.0965169756034 L 80.58554880596515 711.2516804578386 L 80.2658477444273 712.3852549156242 L 79.8581929876693 713.4902514854764 L 79.36509786282552 714.5598574960932 L 78.78960246531139 715.5874784707393 L 78.13525491562422 716.5667787843871 L 77.40608948400046 717.4917207249528 L 76.60660171779821 718.3566017177982 L 75.74172072495276 719.1560894840005 L 74.8167787843871 719.8852549156242 L 73.83747847073923 720.5396024653114 L 72.8098574960932 721.1150978628256 L 71.74025148547635 721.6081929876693 L 70.63525491562422 722.0158477444273 L 69.50168045783859 722.3355488059651 L 68.34651697560346 722.565325108927 L 67.17688643591768 722.703760005997 L 66 722.75 L 64.82311356408232 722.703760005997 L 63.653483024396536 722.565325108927 L 62.49831954216142 722.3355488059651 L 61.36474508437579 722.0158477444273 L 60.25974851452365 721.6081929876693 L 59.1901425039068 721.1150978628256 L 58.16252152926077 720.5396024653114 L 57.1832212156129 719.8852549156242 L 56.258279275047244 719.1560894840005 L 55.39339828220179 718.3566017177982 L 54.59391051599954 717.4917207249528 L 53.86474508437579 716.5667787843871 L 53.21039753468862 715.5874784707393 L 52.634902137174485 714.5598574960932 L 52.1418070123307 713.4902514854764 L 51.734152255572695 712.3852549156242 L 51.414451194034854 711.2516804578386 L 51.18467489107294 710.0965169756034 L 51.04623999400308 708.9268864359177 L 51 707.75 L 51.04623999400308 706.5731135640823 L 51.18467489107293 705.4034830243966 L 51.414451194034854 704.2483195421614 L 51.734152255572695 703.1147450843758 L 52.141807012330695 702.0097485145236 L 52.63490213717448 700.9401425039068 L 53.21039753468862 699.9125215292607 L 53.864745084375784 698.9332212156129 L 54.59391051599953 698.0082792750472 L 55.39339828220179 697.1433982822018 L 56.25827927504724 696.3439105159996 L 57.1832212156129 695.6147450843758 L 58.16252152926077 694.9603975346886 L 59.190142503906806 694.3849021371744 L 60.25974851452367 693.8918070123307 L 61.36474508437581 693.4841522555727 L 62.49831954216145 693.1644511940349 L 63.65348302439657 692.934674891073 L 64.82311356408238 692.796239994003 L 66.00000000000006 692.75 L 67.17688643591774 692.796239994003 L 68.34651697560352 692.934674891073 L 69.50168045783865 693.1644511940349 L 70.63525491562429 693.4841522555727 L 71.74025148547642 693.8918070123307 L 72.80985749609329 694.3849021371745 L 73.83747847073931 694.9603975346887 L 74.81677878438718 695.6147450843758 L 75.74172072495284 696.3439105159996 L 76.6066017177983 697.1433982822018 L 77.40608948400055 698.0082792750474 L 78.13525491562429 698.933221215613 L 78.78960246531145 699.9125215292609 L 79.36509786282558 700.9401425039069 L 79.85819298766936 702.0097485145238 L 80.26584774442735 703.114745084376 L 80.58554880596519 704.2483195421615 L 80.8153251089271 705.4034830243967 L 80.95376000599694 706.5731135640825 Z" fill-opacity="1" stroke-opacity="1" stroke-miterlimit="10" stroke-width="2"/><text fill="none" stroke="rgb(0,0,0)" font-family="Helvetica Neue, Helvetica, sans-serif" font-size="10px" font-style="normal" font-weight="normal" text-decoration="normal" x="66" y="692.75" text-anchor="middle" dominant-baseline="text-after-edge" stroke-opacity="1" stroke-linejoin="round" stroke-miterlimit="10" stroke-width="4">AC:L</text><text fill="rgb(255,255,255)" stroke="none" font-family="Helvetica Neue, Helvetica, sans-serif" font-size="10px" font-style="normal" font-weight="normal" text-decoration="normal" x="66" y="692.75" text-anchor="middle" dominant-baseline="text-after-edge" fill-opacity="1">AC:L</text><path fill="rgb(255,0,102)" stroke="rgb(0,0,0)" paint-order="fill stroke markers" d=" M 228 617.75 L 227.93064000899537 619.5153296538765 L 227.7229876633906 621.2697754634052 L 227.37832320894773 623.0025206867579 L 226.89877161664094 624.7028823734363 L 226.28728948150396 626.3603772282145 L 225.5476467942383 627.9647862441398 L 224.68440369796707 629.5062177061088 L 223.70288237343632 630.9751681765806 L 222.6091342260007 632.3625810874291 L 221.40990257669733 633.6599025766973 L 220.11258108742913 634.8591342260007 L 218.72516817658064 635.9528823734363 L 217.25621770610886 636.9344036979671 L 215.71478624413982 637.7976467942383 L 214.11037722821453 638.537289481504 L 212.45288237343632 639.1487716166409 L 210.75252068675786 639.6283232089477 L 209.01977546340518 639.9729876633907 L 207.2653296538765 640.1806400089954 L 205.5 640.25 L 203.7346703461235 640.1806400089954 L 201.98022453659482 639.9729876633907 L 200.24747931324214 639.6283232089477 L 198.54711762656368 639.1487716166409 L 196.88962277178547 638.537289481504 L 195.2852137558602 637.7976467942383 L 193.74378229389114 636.9344036979671 L 192.27483182341936 635.9528823734363 L 190.88741891257087 634.8591342260007 L 189.5900974233027 633.6599025766973 L 188.3908657739993 632.3625810874291 L 187.29711762656368 630.9751681765806 L 186.31559630203293 629.5062177061088 L 185.4523532057617 627.9647862441398 L 184.71271051849604 626.3603772282145 L 184.10122838335906 624.7028823734363 L 183.62167679105227 623.0025206867579 L 183.2770123366094 621.2697754634052 L 183.06935999100463 619.5153296538765 L 183 617.75 L 183.06935999100463 615.9846703461235 L 183.2770123366094 614.2302245365948 L 183.62167679105227 612.4974793132421 L 184.10122838335906 610.7971176265637 L 184.71271051849604 609.1396227717855 L 185.4523532057617 607.5352137558602 L 186.31559630203293 605.9937822938912 L 187.29711762656368 604.5248318234194 L 188.3908657739993 603.1374189125709 L 189.59009742330267 601.8400974233027 L 190.88741891257087 600.6408657739993 L 192.27483182341936 599.5471176265637 L 193.74378229389114 598.5655963020329 L 195.2852137558602 597.7023532057617 L 196.8896227717855 596.962710518496 L 198.5471176265637 596.3512283833591 L 200.24747931324217 595.8716767910523 L 201.98022453659485 595.5270123366093 L 203.73467034612355 595.3193599910046 L 205.50000000000009 595.25 L 207.2653296538766 595.3193599910046 L 209.0197754634053 595.5270123366095 L 210.75252068675798 595.8716767910523 L 212.45288237343644 596.3512283833591 L 214.11037722821465 596.9627105184961 L 215.71478624413993 597.7023532057618 L 217.25621770610897 598.565596302033 L 218.72516817658078 599.5471176265638 L 220.11258108742925 600.6408657739994 L 221.40990257669745 601.8400974233028 L 222.6091342260008 603.137418912571 L 223.70288237343644 604.5248318234195 L 224.68440369796718 605.9937822938913 L 225.54764679423837 607.5352137558604 L 226.28728948150405 609.1396227717856 L 226.89877161664103 610.7971176265639 L 227.3783232089478 612.4974793132424 L 227.72298766339065 614.2302245365951 L 227.9306400089954 615.9846703461237 Z" fill-opacity="1" stroke-opacity="1" stroke-miterlimit="10" stroke-width="2"/><text fill="none" stroke="rgb(0,0,0)" font-family="Helvetica Neue, Helvetica, sans-serif" font-size="10px" font-style="normal" font-weight="normal" text-decoration="normal" x="205.5" y="595.25" text-anchor="middle" dominant-baseline="text-after-edge" stroke-opacity="1" stroke-linejoin="round" stroke-miterlimit="10" stroke-width="4">Hacker</text><text fill="rgb(255,255,255)" stroke="none" font-family="Helvetica Neue, Helvetica, sans-serif" font-size="10px" font-style="normal" font-weight="normal" text-decoration="normal" x="205.5" y="595.25" text-anchor="middle" dominant-baseline="text-after-edge" fill-opacity="1">Hacker</text><path fill="rgb(99,102,241)" stroke="rgb(255,0,102)" paint-order="fill stroke markers" d=" M 81 662.75 L 80.95376000599691 663.9268864359177 L 80.81532510892707 665.0965169756034 L 80.58554880596515 666.2516804578386 L 80.2658477444273 667.3852549156242 L 79.8581929876693 668.4902514854764 L 79.36509786282552 669.5598574960932 L 78.78960246531139 670.5874784707393 L 78.13525491562422 671.5667787843871 L 77.40608948400046 672.4917207249528 L 76.60660171779821 673.3566017177982 L 75.74172072495276 674.1560894840005 L 74.8167787843871 674.8852549156242 L 73.83747847073923 675.5396024653114 L 72.8098574960932 676.1150978628256 L 71.74025148547635 676.6081929876693 L 70.63525491562422 677.0158477444273 L 69.50168045783859 677.3355488059651 L 68.34651697560346 677.565325108927 L 67.17688643591768 677.703760005997 L 66 677.75 L 64.82311356408232 677.703760005997 L 63.653483024396536 677.565325108927 L 62.49831954216142 677.3355488059651 L 61.36474508437579 677.0158477444273 L 60.25974851452365 676.6081929876693 L 59.1901425039068 676.1150978628256 L 58.16252152926077 675.5396024653114 L 57.1832212156129 674.8852549156242 L 56.258279275047244 674.1560894840005 L 55.39339828220179 673.3566017177982 L 54.59391051599954 672.4917207249528 L 53.86474508437579 671.5667787843871 L 53.21039753468862 670.5874784707393 L 52.634902137174485 669.5598574960932 L 52.1418070123307 668.4902514854764 L 51.734152255572695 667.3852549156242 L 51.414451194034854 666.2516804578386 L 51.18467489107294 665.0965169756034 L 51.04623999400308 663.9268864359177 L 51 662.75 L 51.04623999400308 661.5731135640823 L 51.18467489107293 660.4034830243966 L 51.414451194034854 659.2483195421614 L 51.734152255572695 658.1147450843758 L 52.141807012330695 657.0097485145236 L 52.63490213717448 655.9401425039068 L 53.21039753468862 654.9125215292607 L 53.864745084375784 653.9332212156129 L 54.59391051599953 653.0082792750472 L 55.39339828220179 652.1433982822018 L 56.25827927504724 651.3439105159996 L 57.1832212156129 650.6147450843758 L 58.16252152926077 649.9603975346886 L 59.190142503906806 649.3849021371744 L 60.25974851452367 648.8918070123307 L 61.36474508437581 648.4841522555727 L 62.49831954216145 648.1644511940349 L 63.65348302439657 647.934674891073 L 64.82311356408238 647.796239994003 L 66.00000000000006 647.75 L 67.17688643591774 647.796239994003 L 68.34651697560352 647.934674891073 L 69.50168045783865 648.1644511940349 L 70.63525491562429 648.4841522555727 L 71.74025148547642 648.8918070123307 L 72.80985749609329 649.3849021371745 L 73.83747847073931 649.9603975346887 L 74.81677878438718 650.6147450843758 L 75.74172072495284 651.3439105159996 L 76.6066017177983 652.1433982822018 L 77.40608948400055 653.0082792750474 L 78.13525491562429 653.933221215613 L 78.78960246531145 654.9125215292609 L 79.36509786282558 655.9401425039069 L 79.85819298766936 657.0097485145238 L 80.26584774442735 658.114745084376 L 80.58554880596519 659.2483195421615 L 80.8153251089271 660.4034830243967 L 80.95376000599694 661.5731135640825 Z" fill-opacity="1" stroke-opacity="1" stroke-miterlimit="10" stroke-width="2"/><text fill="none" stroke="rgb(0,0,0)" font-family="Helvetica Neue, Helvetica, sans-serif" font-size="10px" font-style="normal" font-weight="normal" text-decoration="normal" x="66" y="647.75" text-anchor="middle" dominant-baseline="text-after-edge" stroke-opacity="1" stroke-linejoin="round" stroke-miterlimit="10" stroke-width="4">AV:N</text><text fill="rgb(255,255,255)" stroke="none" font-family="Helvetica Neue, Helvetica, sans-serif" font-size="10px" font-style="normal" font-weight="normal" text-decoration="normal" x="66" y="647.75" text-anchor="middle" dominant-baseline="text-after-edge" fill-opacity="1">AV:N</text><path fill="rgb(99,102,241)" stroke="rgb(255,0,102)" paint-order="fill stroke markers" d=" M 81 572.75 L 80.95376000599691 573.9268864359177 L 80.81532510892707 575.0965169756034 L 80.58554880596515 576.2516804578386 L 80.2658477444273 577.3852549156242 L 79.8581929876693 578.4902514854764 L 79.36509786282552 579.5598574960932 L 78.78960246531139 580.5874784707393 L 78.13525491562422 581.5667787843871 L 77.40608948400046 582.4917207249528 L 76.60660171779821 583.3566017177982 L 75.74172072495276 584.1560894840005 L 74.8167787843871 584.8852549156242 L 73.83747847073923 585.5396024653114 L 72.8098574960932 586.1150978628256 L 71.74025148547635 586.6081929876693 L 70.63525491562422 587.0158477444273 L 69.50168045783859 587.3355488059651 L 68.34651697560346 587.565325108927 L 67.17688643591768 587.703760005997 L 66 587.75 L 64.82311356408232 587.703760005997 L 63.653483024396536 587.565325108927 L 62.49831954216142 587.3355488059651 L 61.36474508437579 587.0158477444273 L 60.25974851452365 586.6081929876693 L 59.1901425039068 586.1150978628256 L 58.16252152926077 585.5396024653114 L 57.1832212156129 584.8852549156242 L 56.258279275047244 584.1560894840005 L 55.39339828220179 583.3566017177982 L 54.59391051599954 582.4917207249528 L 53.86474508437579 581.5667787843871 L 53.21039753468862 580.5874784707393 L 52.634902137174485 579.5598574960932 L 52.1418070123307 578.4902514854764 L 51.734152255572695 577.3852549156242 L 51.414451194034854 576.2516804578386 L 51.18467489107294 575.0965169756034 L 51.04623999400308 573.9268864359177 L 51 572.75 L 51.04623999400308 571.5731135640823 L 51.18467489107293 570.4034830243966 L 51.414451194034854 569.2483195421614 L 51.734152255572695 568.1147450843758 L 52.141807012330695 567.0097485145236 L 52.63490213717448 565.9401425039068 L 53.21039753468862 564.9125215292607 L 53.864745084375784 563.9332212156129 L 54.59391051599953 563.0082792750472 L 55.39339828220179 562.1433982822018 L 56.25827927504724 561.3439105159996 L 57.1832212156129 560.6147450843758 L 58.16252152926077 559.9603975346886 L 59.190142503906806 559.3849021371744 L 60.25974851452367 558.8918070123307 L 61.36474508437581 558.4841522555727 L 62.49831954216145 558.1644511940349 L 63.65348302439657 557.934674891073 L 64.82311356408238 557.796239994003 L 66.00000000000006 557.75 L 67.17688643591774 557.796239994003 L 68.34651697560352 557.934674891073 L 69.50168045783865 558.1644511940349 L 70.63525491562429 558.4841522555727 L 71.74025148547642 558.8918070123307 L 72.80985749609329 559.3849021371745 L 73.83747847073931 559.9603975346887 L 74.81677878438718 560.6147450843758 L 75.74172072495284 561.3439105159996 L 76.6066017177983 562.1433982822018 L 77.40608948400055 563.0082792750474 L 78.13525491562429 563.933221215613 L 78.78960246531145 564.9125215292609 L 79.36509786282558 565.9401425039069 L 79.85819298766936 567.0097485145238 L 80.26584774442735 568.114745084376 L 80.58554880596519 569.2483195421615 L 80.8153251089271 570.4034830243967 L 80.95376000599694 571.5731135640825 Z" fill-opacity="1" stroke-opacity="1" stroke-miterlimit="10" stroke-width="2"/><text fill="none" stroke="rgb(0,0,0)" font-family="Helvetica Neue, Helvetica, sans-serif" font-size="10px" font-style="normal" font-weight="normal" text-decoration="normal" x="66" y="557.75" text-anchor="middle" dominant-baseline="text-after-edge" stroke-opacity="1" stroke-linejoin="round" stroke-miterlimit="10" stroke-width="4">PR:N</text><text fill="rgb(255,255,255)" stroke="none" font-family="Helvetica Neue, Helvetica, sans-serif" font-size="10px" font-style="normal" font-weight="normal" text-decoration="normal" x="66" y="557.75" text-anchor="middle" dominant-baseline="text-after-edge" fill-opacity="1">PR:N</text><path fill="rgb(234,179,8)" stroke="rgb(0,0,0)" paint-order="fill stroke markers" d=" M 607 1263.5 L 606.9460533403297 1264.8730341752373 L 606.7845459604149 1266.2376031382041 L 606.5164736069594 1267.5852938674784 L 606.1434890351652 1268.9077974015615 L 605.6678918189475 1270.196960066389 L 605.0926141732964 1271.444833745442 L 604.4212028761966 1272.643724882529 L 603.6577974015615 1273.7862419151184 L 602.8071043980005 1274.8653408457783 L 601.8743686707646 1275.8743686707646 L 600.8653408457782 1276.8071043980005 L 599.7862419151182 1277.6577974015615 L 598.6437248825291 1278.4212028761965 L 597.4448337454421 1279.0926141732964 L 596.1969600663891 1279.6678918189475 L 594.9077974015615 1280.1434890351652 L 593.5852938674783 1280.5164736069594 L 592.237603138204 1280.784545960415 L 590.8730341752373 1280.9460533403299 L 589.5 1281 L 588.1269658247627 1280.9460533403299 L 586.762396861796 1280.784545960415 L 585.4147061325217 1280.5164736069594 L 584.0922025984385 1280.1434890351652 L 582.8030399336109 1279.6678918189475 L 581.5551662545579 1279.0926141732964 L 580.3562751174709 1278.4212028761965 L 579.2137580848818 1277.6577974015615 L 578.1346591542218 1276.8071043980005 L 577.1256313292354 1275.8743686707646 L 576.1928956019995 1274.8653408457783 L 575.3422025984385 1273.7862419151184 L 574.5787971238034 1272.643724882529 L 573.9073858267036 1271.444833745442 L 573.3321081810525 1270.196960066389 L 572.8565109648348 1268.9077974015615 L 572.4835263930406 1267.5852938674784 L 572.2154540395851 1266.2376031382041 L 572.0539466596703 1264.8730341752373 L 572 1263.5 L 572.0539466596703 1262.1269658247627 L 572.2154540395851 1260.7623968617959 L 572.4835263930406 1259.4147061325216 L 572.8565109648348 1258.0922025984385 L 573.3321081810525 1256.803039933611 L 573.9073858267036 1255.555166254558 L 574.5787971238034 1254.356275117471 L 575.3422025984385 1253.2137580848816 L 576.1928956019995 1252.1346591542217 L 577.1256313292354 1251.1256313292354 L 578.1346591542218 1250.1928956019995 L 579.2137580848818 1249.3422025984385 L 580.3562751174709 1248.5787971238033 L 581.5551662545579 1247.9073858267036 L 582.803039933611 1247.3321081810525 L 584.0922025984385 1246.8565109648348 L 585.4147061325217 1246.4835263930406 L 586.762396861796 1246.215454039585 L 588.1269658247628 1246.0539466596701 L 589.5000000000001 1246 L 590.8730341752373 1246.0539466596704 L 592.2376031382041 1246.2154540395852 L 593.5852938674784 1246.4835263930406 L 594.9077974015617 1246.8565109648348 L 596.1969600663891 1247.3321081810525 L 597.4448337454421 1247.9073858267036 L 598.6437248825292 1248.5787971238035 L 599.7862419151184 1249.3422025984385 L 600.8653408457783 1250.1928956019995 L 601.8743686707646 1251.1256313292356 L 602.8071043980007 1252.134659154222 L 603.6577974015617 1253.2137580848819 L 604.4212028761967 1254.3562751174711 L 605.0926141732965 1255.5551662545581 L 605.6678918189476 1256.803039933611 L 606.1434890351652 1258.0922025984387 L 606.5164736069594 1259.4147061325218 L 606.7845459604149 1260.762396861796 L 606.9460533403297 1262.126965824763 Z" fill-opacity="1" stroke-opacity="1" stroke-miterlimit="10" stroke-width="2"/><text fill="none" stroke="rgb(0,0,0)" font-family="Helvetica Neue, Helvetica, sans-serif" font-size="10px" font-style="normal" font-weight="normal" text-decoration="normal" x="589.5" y="1246" text-anchor="middle" dominant-baseline="text-after-edge" stroke-opacity="1" stroke-linejoin="round" stroke-miterlimit="10" stroke-width="4">CVE-2025-68121</text><text fill="rgb(255,255,255)" stroke="none" font-family="Helvetica Neue, Helvetica, sans-serif" font-size="10px" font-style="normal" font-weight="normal" text-decoration="normal" x="589.5" y="1246" text-anchor="middle" dominant-baseline="text-after-edge" fill-opacity="1">CVE-2025-68121</text><path fill="rgb(99,102,241)" stroke="rgb(0,0,0)" paint-order="fill stroke markers" d=" M 789 527.75 L 788.953760005997 528.9268864359177 L 788.815325108927 530.0965169756034 L 788.5855488059651 531.2516804578386 L 788.2658477444273 532.3852549156242 L 787.8581929876693 533.4902514854764 L 787.3650978628256 534.5598574960932 L 786.7896024653114 535.5874784707393 L 786.1352549156242 536.5667787843871 L 785.4060894840005 537.4917207249528 L 784.6066017177982 538.3566017177982 L 783.7417207249528 539.1560894840005 L 782.8167787843871 539.8852549156242 L 781.8374784707393 540.5396024653114 L 780.8098574960932 541.1150978628256 L 779.7402514854764 541.6081929876693 L 778.6352549156242 542.0158477444273 L 777.5016804578386 542.3355488059651 L 776.3465169756034 542.565325108927 L 775.1768864359177 542.703760005997 L 774 542.75 L 772.8231135640823 542.703760005997 L 771.6534830243966 542.565325108927 L 770.4983195421614 542.3355488059651 L 769.3647450843758 542.0158477444273 L 768.2597485145236 541.6081929876693 L 767.1901425039068 541.1150978628256 L 766.1625215292607 540.5396024653114 L 765.1832212156129 539.8852549156242 L 764.2582792750472 539.1560894840005 L 763.3933982822018 538.3566017177982 L 762.5939105159995 537.4917207249528 L 761.8647450843758 536.5667787843871 L 761.2103975346886 535.5874784707393 L 760.6349021371744 534.5598574960932 L 760.1418070123307 533.4902514854764 L 759.7341522555727 532.3852549156242 L 759.4144511940349 531.2516804578386 L 759.184674891073 530.0965169756034 L 759.046239994003 528.9268864359177 L 759 527.75 L 759.046239994003 526.5731135640823 L 759.184674891073 525.4034830243966 L 759.4144511940349 524.2483195421614 L 759.7341522555727 523.1147450843758 L 760.1418070123307 522.0097485145236 L 760.6349021371744 520.9401425039068 L 761.2103975346886 519.9125215292607 L 761.8647450843758 518.9332212156129 L 762.5939105159995 518.0082792750472 L 763.3933982822018 517.1433982822018 L 764.2582792750472 516.3439105159996 L 765.1832212156129 515.6147450843758 L 766.1625215292607 514.9603975346886 L 767.1901425039068 514.3849021371744 L 768.2597485145237 513.8918070123307 L 769.3647450843758 513.4841522555727 L 770.4983195421614 513.1644511940349 L 771.6534830243966 512.934674891073 L 772.8231135640824 512.796239994003 L 774 512.75 L 775.1768864359177 512.796239994003 L 776.3465169756035 512.934674891073 L 777.5016804578387 513.1644511940349 L 778.6352549156243 513.4841522555727 L 779.7402514854764 513.8918070123307 L 780.8098574960933 514.3849021371745 L 781.8374784707394 514.9603975346887 L 782.8167787843872 515.6147450843758 L 783.7417207249529 516.3439105159996 L 784.6066017177983 517.1433982822018 L 785.4060894840005 518.0082792750474 L 786.1352549156243 518.933221215613 L 786.7896024653114 519.9125215292609 L 787.3650978628256 520.9401425039069 L 787.8581929876693 522.0097485145238 L 788.2658477444273 523.114745084376 L 788.5855488059652 524.2483195421615 L 788.8153251089271 525.4034830243967 L 788.953760005997 526.5731135640825 Z" fill-opacity="1" stroke-opacity="1" stroke-miterlimit="10" stroke-width="2"/><text fill="none" stroke="rgb(0,0,0)" font-family="Helvetica Neue, Helvetica, sans-serif" font-size="10px" font-style="normal" font-weight="normal" text-decoration="normal" x="774" y="512.75" text-anchor="middle" dominant-baseline="text-after-edge" stroke-opacity="1" stroke-linejoin="round" stroke-miterlimit="10" stroke-width="4">AV:L</text><text fill="rgb(255,255,255)" stroke="none" font-family="Helvetica Neue, Helvetica, sans-serif" font-size="10px" font-style="normal" font-weight="normal" text-decoration="normal" x="774" y="512.75" text-anchor="middle" dominant-baseline="text-after-edge" fill-opacity="1">AV:L</text><path fill="rgb(99,102,241)" stroke="rgb(0,0,0)" paint-order="fill stroke markers" d=" M 789 1385.75 L 788.953760005997 1386.9268864359176 L 788.815325108927 1388.0965169756034 L 788.5855488059651 1389.2516804578386 L 788.2658477444273 1390.3852549156243 L 787.8581929876693 1391.4902514854764 L 787.3650978628256 1392.5598574960932 L 786.7896024653114 1393.5874784707391 L 786.1352549156242 1394.566778784387 L 785.4060894840005 1395.4917207249528 L 784.6066017177982 1396.3566017177982 L 783.7417207249528 1397.1560894840004 L 782.8167787843871 1397.8852549156243 L 781.8374784707393 1398.5396024653114 L 780.8098574960932 1399.1150978628255 L 779.7402514854764 1399.6081929876693 L 778.6352549156242 1400.0158477444272 L 777.5016804578386 1400.3355488059651 L 776.3465169756034 1400.565325108927 L 775.1768864359177 1400.7037600059969 L 774 1400.75 L 772.8231135640823 1400.7037600059969 L 771.6534830243966 1400.565325108927 L 770.4983195421614 1400.3355488059651 L 769.3647450843758 1400.0158477444272 L 768.2597485145236 1399.6081929876693 L 767.1901425039068 1399.1150978628255 L 766.1625215292607 1398.5396024653114 L 765.1832212156129 1397.8852549156243 L 764.2582792750472 1397.1560894840004 L 763.3933982822018 1396.3566017177982 L 762.5939105159995 1395.4917207249528 L 761.8647450843758 1394.566778784387 L 761.2103975346886 1393.5874784707391 L 760.6349021371744 1392.5598574960932 L 760.1418070123307 1391.4902514854764 L 759.7341522555727 1390.3852549156243 L 759.4144511940349 1389.2516804578386 L 759.184674891073 1388.0965169756034 L 759.046239994003 1386.9268864359176 L 759 1385.75 L 759.046239994003 1384.5731135640824 L 759.184674891073 1383.4034830243966 L 759.4144511940349 1382.2483195421614 L 759.7341522555727 1381.1147450843757 L 760.1418070123307 1380.0097485145236 L 760.6349021371744 1378.9401425039068 L 761.2103975346886 1377.9125215292609 L 761.8647450843758 1376.933221215613 L 762.5939105159995 1376.0082792750472 L 763.3933982822018 1375.1433982822018 L 764.2582792750472 1374.3439105159996 L 765.1832212156129 1373.6147450843757 L 766.1625215292607 1372.9603975346886 L 767.1901425039068 1372.3849021371745 L 768.2597485145237 1371.8918070123307 L 769.3647450843758 1371.4841522555728 L 770.4983195421614 1371.1644511940349 L 771.6534830243966 1370.934674891073 L 772.8231135640824 1370.7962399940031 L 774 1370.75 L 775.1768864359177 1370.7962399940031 L 776.3465169756035 1370.934674891073 L 777.5016804578387 1371.1644511940349 L 778.6352549156243 1371.4841522555728 L 779.7402514854764 1371.8918070123307 L 780.8098574960933 1372.3849021371745 L 781.8374784707394 1372.9603975346886 L 782.8167787843872 1373.614745084376 L 783.7417207249529 1374.3439105159996 L 784.6066017177983 1375.1433982822018 L 785.4060894840005 1376.0082792750472 L 786.1352549156243 1376.933221215613 L 786.7896024653114 1377.9125215292609 L 787.3650978628256 1378.9401425039068 L 787.8581929876693 1380.0097485145238 L 788.2658477444273 1381.114745084376 L 788.5855488059652 1382.2483195421617 L 788.8153251089271 1383.4034830243968 L 788.953760005997 1384.5731135640824 Z" fill-opacity="1" stroke-opacity="1" stroke-miterlimit="10" stroke-width="2"/><text fill="none" stroke="rgb(0,0,0)" font-family="Helvetica Neue, Helvetica, sans-serif" font-size="10px" font-style="normal" font-weight="normal" text-decoration="normal" x="774" y="1370.75" text-anchor="middle" dominant-baseline="text-after-edge" stroke-opacity="1" stroke-linejoin="round" stroke-miterlimit="10" stroke-width="4">PR:H</text><text fill="rgb(255,255,255)" stroke="none" font-family="Helvetica Neue, Helvetica, sans-serif" font-size="10px" font-style="normal" font-weight="normal" text-decoration="normal" x="774" y="1370.75" text-anchor="middle" dominant-baseline="text-after-edge" fill-opacity="1">PR:H</text><path fill="rgb(255,0,0)" stroke="rgb(255,215,0)" paint-order="fill stroke markers" d=" M 1054 1621.75 L 1044.7343318831333 1635.979919354882 L 1029 1640.8483005625053 L 1039.0078340584334 1654.5112555886155 L 1038.5491502812527 1671.75 L 1054 1665.9642512380153 L 1069.4508497187473 1671.75 L 1068.9921659415666 1654.5112555886155 L 1079 1640.8483005625053 L 1063.2656681168667 1635.979919354882 Z" fill-opacity="1" stroke-opacity="1" stroke-miterlimit="10" stroke-width="4"/><text fill="none" stroke="rgb(0,0,0)" font-family="Helvetica Neue, Helvetica, sans-serif" font-size="10px" font-style="normal" font-weight="bold" text-decoration="normal" x="1054" y="1621.75" text-anchor="middle" dominant-baseline="text-after-edge" stroke-opacity="1" stroke-linejoin="round" stroke-miterlimit="10" stroke-width="4">EXPLOITED</text><text fill="rgb(255,255,255)" stroke="none" font-family="Helvetica Neue, Helvetica, sans-serif" font-size="10px" font-style="normal" font-weight="bold" text-decoration="normal" x="1054" y="1621.75" text-anchor="middle" dominant-baseline="text-after-edge" fill-opacity="1">EXPLOITED</text><path fill="rgb(234,179,8)" stroke="rgb(0,0,0)" paint-order="fill stroke markers" d=" M 607 1443.5 L 606.9460533403297 1444.8730341752373 L 606.7845459604149 1446.2376031382041 L 606.5164736069594 1447.5852938674784 L 606.1434890351652 1448.9077974015615 L 605.6678918189475 1450.196960066389 L 605.0926141732964 1451.444833745442 L 604.4212028761966 1452.643724882529 L 603.6577974015615 1453.7862419151184 L 602.8071043980005 1454.8653408457783 L 601.8743686707646 1455.8743686707646 L 600.8653408457782 1456.8071043980005 L 599.7862419151182 1457.6577974015615 L 598.6437248825291 1458.4212028761965 L 597.4448337454421 1459.0926141732964 L 596.1969600663891 1459.6678918189475 L 594.9077974015615 1460.1434890351652 L 593.5852938674783 1460.5164736069594 L 592.237603138204 1460.784545960415 L 590.8730341752373 1460.9460533403299 L 589.5 1461 L 588.1269658247627 1460.9460533403299 L 586.762396861796 1460.784545960415 L 585.4147061325217 1460.5164736069594 L 584.0922025984385 1460.1434890351652 L 582.8030399336109 1459.6678918189475 L 581.5551662545579 1459.0926141732964 L 580.3562751174709 1458.4212028761965 L 579.2137580848818 1457.6577974015615 L 578.1346591542218 1456.8071043980005 L 577.1256313292354 1455.8743686707646 L 576.1928956019995 1454.8653408457783 L 575.3422025984385 1453.7862419151184 L 574.5787971238034 1452.643724882529 L 573.9073858267036 1451.444833745442 L 573.3321081810525 1450.196960066389 L 572.8565109648348 1448.9077974015615 L 572.4835263930406 1447.5852938674784 L 572.2154540395851 1446.2376031382041 L 572.0539466596703 1444.8730341752373 L 572 1443.5 L 572.0539466596703 1442.1269658247627 L 572.2154540395851 1440.7623968617959 L 572.4835263930406 1439.4147061325216 L 572.8565109648348 1438.0922025984385 L 573.3321081810525 1436.803039933611 L 573.9073858267036 1435.555166254558 L 574.5787971238034 1434.356275117471 L 575.3422025984385 1433.2137580848816 L 576.1928956019995 1432.1346591542217 L 577.1256313292354 1431.1256313292354 L 578.1346591542218 1430.1928956019995 L 579.2137580848818 1429.3422025984385 L 580.3562751174709 1428.5787971238033 L 581.5551662545579 1427.9073858267036 L 582.803039933611 1427.3321081810525 L 584.0922025984385 1426.8565109648348 L 585.4147061325217 1426.4835263930406 L 586.762396861796 1426.215454039585 L 588.1269658247628 1426.0539466596701 L 589.5000000000001 1426 L 590.8730341752373 1426.0539466596704 L 592.2376031382041 1426.2154540395852 L 593.5852938674784 1426.4835263930406 L 594.9077974015617 1426.8565109648348 L 596.1969600663891 1427.3321081810525 L 597.4448337454421 1427.9073858267036 L 598.6437248825292 1428.5787971238035 L 599.7862419151184 1429.3422025984385 L 600.8653408457783 1430.1928956019995 L 601.8743686707646 1431.1256313292356 L 602.8071043980007 1432.134659154222 L 603.6577974015617 1433.2137580848819 L 604.4212028761967 1434.3562751174711 L 605.0926141732965 1435.5551662545581 L 605.6678918189476 1436.803039933611 L 606.1434890351652 1438.0922025984387 L 606.5164736069594 1439.4147061325218 L 606.7845459604149 1440.762396861796 L 606.9460533403297 1442.126965824763 Z" fill-opacity="1" stroke-opacity="1" stroke-miterlimit="10" stroke-width="2"/><text fill="none" stroke="rgb(0,0,0)" font-family="Helvetica Neue, Helvetica, sans-serif" font-size="10px" font-style="normal" font-weight="normal" text-decoration="normal" x="589.5" y="1426" text-anchor="middle" dominant-baseline="text-after-edge" stroke-opacity="1" stroke-linejoin="round" stroke-miterlimit="10" stroke-width="4">CVE-2025-61729</text><text fill="rgb(255,255,255)" stroke="none" font-family="Helvetica Neue, Helvetica, sans-serif" font-size="10px" font-style="normal" font-weight="normal" text-decoration="normal" x="589.5" y="1426" text-anchor="middle" dominant-baseline="text-after-edge" fill-opacity="1">CVE-2025-61729</text><path fill="rgb(99,102,241)" stroke="rgb(255,0,102)" paint-order="fill stroke markers" d=" M 81 527.75 L 80.95376000599691 528.9268864359177 L 80.81532510892707 530.0965169756034 L 80.58554880596515 531.2516804578386 L 80.2658477444273 532.3852549156242 L 79.8581929876693 533.4902514854764 L 79.36509786282552 534.5598574960932 L 78.78960246531139 535.5874784707393 L 78.13525491562422 536.5667787843871 L 77.40608948400046 537.4917207249528 L 76.60660171779821 538.3566017177982 L 75.74172072495276 539.1560894840005 L 74.8167787843871 539.8852549156242 L 73.83747847073923 540.5396024653114 L 72.8098574960932 541.1150978628256 L 71.74025148547635 541.6081929876693 L 70.63525491562422 542.0158477444273 L 69.50168045783859 542.3355488059651 L 68.34651697560346 542.565325108927 L 67.17688643591768 542.703760005997 L 66 542.75 L 64.82311356408232 542.703760005997 L 63.653483024396536 542.565325108927 L 62.49831954216142 542.3355488059651 L 61.36474508437579 542.0158477444273 L 60.25974851452365 541.6081929876693 L 59.1901425039068 541.1150978628256 L 58.16252152926077 540.5396024653114 L 57.1832212156129 539.8852549156242 L 56.258279275047244 539.1560894840005 L 55.39339828220179 538.3566017177982 L 54.59391051599954 537.4917207249528 L 53.86474508437579 536.5667787843871 L 53.21039753468862 535.5874784707393 L 52.634902137174485 534.5598574960932 L 52.1418070123307 533.4902514854764 L 51.734152255572695 532.3852549156242 L 51.414451194034854 531.2516804578386 L 51.18467489107294 530.0965169756034 L 51.04623999400308 528.9268864359177 L 51 527.75 L 51.04623999400308 526.5731135640823 L 51.18467489107293 525.4034830243966 L 51.414451194034854 524.2483195421614 L 51.734152255572695 523.1147450843758 L 52.141807012330695 522.0097485145236 L 52.63490213717448 520.9401425039068 L 53.21039753468862 519.9125215292607 L 53.864745084375784 518.9332212156129 L 54.59391051599953 518.0082792750472 L 55.39339828220179 517.1433982822018 L 56.25827927504724 516.3439105159996 L 57.1832212156129 515.6147450843758 L 58.16252152926077 514.9603975346886 L 59.190142503906806 514.3849021371744 L 60.25974851452367 513.8918070123307 L 61.36474508437581 513.4841522555727 L 62.49831954216145 513.1644511940349 L 63.65348302439657 512.934674891073 L 64.82311356408238 512.796239994003 L 66.00000000000006 512.75 L 67.17688643591774 512.796239994003 L 68.34651697560352 512.934674891073 L 69.50168045783865 513.1644511940349 L 70.63525491562429 513.4841522555727 L 71.74025148547642 513.8918070123307 L 72.80985749609329 514.3849021371745 L 73.83747847073931 514.9603975346887 L 74.81677878438718 515.6147450843758 L 75.74172072495284 516.3439105159996 L 76.6066017177983 517.1433982822018 L 77.40608948400055 518.0082792750474 L 78.13525491562429 518.933221215613 L 78.78960246531145 519.9125215292609 L 79.36509786282558 520.9401425039069 L 79.85819298766936 522.0097485145238 L 80.26584774442735 523.114745084376 L 80.58554880596519 524.2483195421615 L 80.8153251089271 525.4034830243967 L 80.95376000599694 526.5731135640825 Z" fill-opacity="1" stroke-opacity="1" stroke-miterlimit="10" stroke-width="2"/><text fill="none" stroke="rgb(0,0,0)" font-family="Helvetica Neue, Helvetica, sans-serif" font-size="10px" font-style="normal" font-weight="normal" text-decoration="normal" x="66" y="512.75" text-anchor="middle" dominant-baseline="text-after-edge" stroke-opacity="1" stroke-linejoin="round" stroke-miterlimit="10" stroke-width="4">UI:N</text><text fill="rgb(255,255,255)" stroke="none" font-family="Helvetica Neue, Helvetica, sans-serif" font-size="10px" font-style="normal" font-weight="normal" text-decoration="normal" x="66" y="512.75" text-anchor="middle" dominant-baseline="text-after-edge" fill-opacity="1">UI:N</text><path fill="rgb(234,179,8)" stroke="rgb(0,0,0)" paint-order="fill stroke markers" d=" M 607 1488.5 L 606.9460533403297 1489.8730341752373 L 606.7845459604149 1491.2376031382041 L 606.5164736069594 1492.5852938674784 L 606.1434890351652 1493.9077974015615 L 605.6678918189475 1495.196960066389 L 605.0926141732964 1496.444833745442 L 604.4212028761966 1497.643724882529 L 603.6577974015615 1498.7862419151184 L 602.8071043980005 1499.8653408457783 L 601.8743686707646 1500.8743686707646 L 600.8653408457782 1501.8071043980005 L 599.7862419151182 1502.6577974015615 L 598.6437248825291 1503.4212028761965 L 597.4448337454421 1504.0926141732964 L 596.1969600663891 1504.6678918189475 L 594.9077974015615 1505.1434890351652 L 593.5852938674783 1505.5164736069594 L 592.237603138204 1505.784545960415 L 590.8730341752373 1505.9460533403299 L 589.5 1506 L 588.1269658247627 1505.9460533403299 L 586.762396861796 1505.784545960415 L 585.4147061325217 1505.5164736069594 L 584.0922025984385 1505.1434890351652 L 582.8030399336109 1504.6678918189475 L 581.5551662545579 1504.0926141732964 L 580.3562751174709 1503.4212028761965 L 579.2137580848818 1502.6577974015615 L 578.1346591542218 1501.8071043980005 L 577.1256313292354 1500.8743686707646 L 576.1928956019995 1499.8653408457783 L 575.3422025984385 1498.7862419151184 L 574.5787971238034 1497.643724882529 L 573.9073858267036 1496.444833745442 L 573.3321081810525 1495.196960066389 L 572.8565109648348 1493.9077974015615 L 572.4835263930406 1492.5852938674784 L 572.2154540395851 1491.2376031382041 L 572.0539466596703 1489.8730341752373 L 572 1488.5 L 572.0539466596703 1487.1269658247627 L 572.2154540395851 1485.7623968617959 L 572.4835263930406 1484.4147061325216 L 572.8565109648348 1483.0922025984385 L 573.3321081810525 1481.803039933611 L 573.9073858267036 1480.555166254558 L 574.5787971238034 1479.356275117471 L 575.3422025984385 1478.2137580848816 L 576.1928956019995 1477.1346591542217 L 577.1256313292354 1476.1256313292354 L 578.1346591542218 1475.1928956019995 L 579.2137580848818 1474.3422025984385 L 580.3562751174709 1473.5787971238033 L 581.5551662545579 1472.9073858267036 L 582.803039933611 1472.3321081810525 L 584.0922025984385 1471.8565109648348 L 585.4147061325217 1471.4835263930406 L 586.762396861796 1471.215454039585 L 588.1269658247628 1471.0539466596701 L 589.5000000000001 1471 L 590.8730341752373 1471.0539466596704 L 592.2376031382041 1471.2154540395852 L 593.5852938674784 1471.4835263930406 L 594.9077974015617 1471.8565109648348 L 596.1969600663891 1472.3321081810525 L 597.4448337454421 1472.9073858267036 L 598.6437248825292 1473.5787971238035 L 599.7862419151184 1474.3422025984385 L 600.8653408457783 1475.1928956019995 L 601.8743686707646 1476.1256313292356 L 602.8071043980007 1477.134659154222 L 603.6577974015617 1478.2137580848819 L 604.4212028761967 1479.3562751174711 L 605.0926141732965 1480.5551662545581 L 605.6678918189476 1481.803039933611 L 606.1434890351652 1483.0922025984387 L 606.5164736069594 1484.4147061325218 L 606.7845459604149 1485.762396861796 L 606.9460533403297 1487.126965824763 Z" fill-opacity="1" stroke-opacity="1" stroke-miterlimit="10" stroke-width="2"/><text fill="none" stroke="rgb(0,0,0)" font-family="Helvetica Neue, Helvetica, sans-serif" font-size="10px" font-style="normal" font-weight="normal" text-decoration="normal" x="589.5" y="1471" text-anchor="middle" dominant-baseline="text-after-edge" stroke-opacity="1" stroke-linejoin="round" stroke-miterlimit="10" stroke-width="4">CVE-2026-32281</text><text fill="rgb(255,255,255)" stroke="none" font-family="Helvetica Neue, Helvetica, sans-serif" font-size="10px" font-style="normal" font-weight="normal" text-decoration="normal" x="589.5" y="1471" text-anchor="middle" dominant-baseline="text-after-edge" fill-opacity="1">CVE-2026-32281</text><path fill="rgb(234,179,8)" stroke="rgb(0,0,0)" paint-order="fill stroke markers" d=" M 607 1398.5 L 606.9460533403297 1399.8730341752373 L 606.7845459604149 1401.2376031382041 L 606.5164736069594 1402.5852938674784 L 606.1434890351652 1403.9077974015615 L 605.6678918189475 1405.196960066389 L 605.0926141732964 1406.444833745442 L 604.4212028761966 1407.643724882529 L 603.6577974015615 1408.7862419151184 L 602.8071043980005 1409.8653408457783 L 601.8743686707646 1410.8743686707646 L 600.8653408457782 1411.8071043980005 L 599.7862419151182 1412.6577974015615 L 598.6437248825291 1413.4212028761965 L 597.4448337454421 1414.0926141732964 L 596.1969600663891 1414.6678918189475 L 594.9077974015615 1415.1434890351652 L 593.5852938674783 1415.5164736069594 L 592.237603138204 1415.784545960415 L 590.8730341752373 1415.9460533403299 L 589.5 1416 L 588.1269658247627 1415.9460533403299 L 586.762396861796 1415.784545960415 L 585.4147061325217 1415.5164736069594 L 584.0922025984385 1415.1434890351652 L 582.8030399336109 1414.6678918189475 L 581.5551662545579 1414.0926141732964 L 580.3562751174709 1413.4212028761965 L 579.2137580848818 1412.6577974015615 L 578.1346591542218 1411.8071043980005 L 577.1256313292354 1410.8743686707646 L 576.1928956019995 1409.8653408457783 L 575.3422025984385 1408.7862419151184 L 574.5787971238034 1407.643724882529 L 573.9073858267036 1406.444833745442 L 573.3321081810525 1405.196960066389 L 572.8565109648348 1403.9077974015615 L 572.4835263930406 1402.5852938674784 L 572.2154540395851 1401.2376031382041 L 572.0539466596703 1399.8730341752373 L 572 1398.5 L 572.0539466596703 1397.1269658247627 L 572.2154540395851 1395.7623968617959 L 572.4835263930406 1394.4147061325216 L 572.8565109648348 1393.0922025984385 L 573.3321081810525 1391.803039933611 L 573.9073858267036 1390.555166254558 L 574.5787971238034 1389.356275117471 L 575.3422025984385 1388.2137580848816 L 576.1928956019995 1387.1346591542217 L 577.1256313292354 1386.1256313292354 L 578.1346591542218 1385.1928956019995 L 579.2137580848818 1384.3422025984385 L 580.3562751174709 1383.5787971238033 L 581.5551662545579 1382.9073858267036 L 582.803039933611 1382.3321081810525 L 584.0922025984385 1381.8565109648348 L 585.4147061325217 1381.4835263930406 L 586.762396861796 1381.215454039585 L 588.1269658247628 1381.0539466596701 L 589.5000000000001 1381 L 590.8730341752373 1381.0539466596704 L 592.2376031382041 1381.2154540395852 L 593.5852938674784 1381.4835263930406 L 594.9077974015617 1381.8565109648348 L 596.1969600663891 1382.3321081810525 L 597.4448337454421 1382.9073858267036 L 598.6437248825292 1383.5787971238035 L 599.7862419151184 1384.3422025984385 L 600.8653408457783 1385.1928956019995 L 601.8743686707646 1386.1256313292356 L 602.8071043980007 1387.134659154222 L 603.6577974015617 1388.2137580848819 L 604.4212028761967 1389.3562751174711 L 605.0926141732965 1390.5551662545581 L 605.6678918189476 1391.803039933611 L 606.1434890351652 1393.0922025984387 L 606.5164736069594 1394.4147061325218 L 606.7845459604149 1395.762396861796 L 606.9460533403297 1397.126965824763 Z" fill-opacity="1" stroke-opacity="1" stroke-miterlimit="10" stroke-width="2"/><text fill="none" stroke="rgb(0,0,0)" font-family="Helvetica Neue, Helvetica, sans-serif" font-size="10px" font-style="normal" font-weight="normal" text-decoration="normal" x="589.5" y="1381" text-anchor="middle" dominant-baseline="text-after-edge" stroke-opacity="1" stroke-linejoin="round" stroke-miterlimit="10" stroke-width="4">CVE-2025-58188</text><text fill="rgb(255,255,255)" stroke="none" font-family="Helvetica Neue, Helvetica, sans-serif" font-size="10px" font-style="normal" font-weight="normal" text-decoration="normal" x="589.5" y="1381" text-anchor="middle" dominant-baseline="text-after-edge" fill-opacity="1">CVE-2025-58188</text><path fill="rgb(234,179,8)" stroke="rgb(0,0,0)" paint-order="fill stroke markers" d=" M 607 18.5 L 606.9460533403297 19.873034175237287 L 606.7845459604149 21.23760313820404 L 606.5164736069594 22.585293867478345 L 606.1434890351652 23.90779740156158 L 605.6678918189475 25.19696006638907 L 605.0926141732964 26.444833745442068 L 604.4212028761966 27.643724882529106 L 603.6577974015615 28.786241915118282 L 602.8071043980005 29.865340845778213 L 601.8743686707646 30.874368670764582 L 600.8653408457782 31.80710439800054 L 599.7862419151182 32.65779740156158 L 598.6437248825291 33.42120287619662 L 597.4448337454421 34.09261417329644 L 596.1969600663891 34.66789181894752 L 594.9077974015615 35.14348903516519 L 593.5852938674783 35.51647360695934 L 592.237603138204 35.78454596041491 L 590.8730341752373 35.94605334032974 L 589.5 36 L 588.1269658247627 35.94605334032974 L 586.762396861796 35.78454596041491 L 585.4147061325217 35.51647360695934 L 584.0922025984385 35.14348903516519 L 582.8030399336109 34.66789181894752 L 581.5551662545579 34.09261417329644 L 580.3562751174709 33.42120287619662 L 579.2137580848818 32.65779740156158 L 578.1346591542218 31.807104398000543 L 577.1256313292354 30.874368670764582 L 576.1928956019995 29.865340845778213 L 575.3422025984385 28.786241915118282 L 574.5787971238034 27.643724882529106 L 573.9073858267036 26.444833745442068 L 573.3321081810525 25.196960066389074 L 572.8565109648348 23.90779740156158 L 572.4835263930406 22.58529386747835 L 572.2154540395851 21.237603138204044 L 572.0539466596703 19.87303417523729 L 572 18.500000000000004 L 572.0539466596703 17.126965824762717 L 572.2154540395851 15.762396861795963 L 572.4835263930406 14.414706132521658 L 572.8565109648348 13.092202598438423 L 573.3321081810525 11.80303993361093 L 573.9073858267036 10.555166254557932 L 574.5787971238034 9.356275117470897 L 575.3422025984385 8.213758084881722 L 576.1928956019995 7.134659154221788 L 577.1256313292354 6.12563132923542 L 578.1346591542218 5.192895601999464 L 579.2137580848818 4.342202598438421 L 580.3562751174709 3.5787971238033833 L 581.5551662545579 2.907385826703557 L 582.803039933611 2.332108181052476 L 584.0922025984385 1.8565109648348042 L 585.4147061325217 1.483526393040652 L 586.762396861796 1.215454039585083 L 588.1269658247628 1.053946659670256 L 589.5000000000001 1 L 590.8730341752373 1.0539466596702667 L 592.2376031382041 1.2154540395851008 L 593.5852938674784 1.4835263930406768 L 594.9077974015617 1.8565109648348397 L 596.1969600663891 2.3321081810525186 L 597.4448337454421 2.90738582670361 L 598.6437248825292 3.5787971238034455 L 599.7862419151184 4.342202598438492 L 600.8653408457783 5.192895601999542 L 601.8743686707646 6.125631329235514 L 602.8071043980007 7.134659154221895 L 603.6577974015617 8.213758084881842 L 604.4212028761967 9.35627511747103 L 605.0926141732965 10.55516625455808 L 605.6678918189476 11.803039933611089 L 606.1434890351652 13.092202598438593 L 606.5164736069594 14.41470613252184 L 606.7845459604149 15.762396861796155 L 606.9460533403297 17.12696582476292 Z" fill-opacity="1" stroke-opacity="1" stroke-miterlimit="10" stroke-width="2"/><text fill="none" stroke="rgb(0,0,0)" font-family="Helvetica Neue, Helvetica, sans-serif" font-size="10px" font-style="normal" font-weight="normal" text-decoration="normal" x="589.5" y="1" text-anchor="middle" dominant-baseline="text-after-edge" stroke-opacity="1" stroke-linejoin="round" stroke-miterlimit="10" stroke-width="4">CVE-2025-58189</text><text fill="rgb(255,255,255)" stroke="none" font-family="Helvetica Neue, Helvetica, sans-serif" font-size="10px" font-style="normal" font-weight="normal" text-decoration="normal" x="589.5" y="1" text-anchor="middle" dominant-baseline="text-after-edge" fill-opacity="1">CVE-2025-58189</text><path fill="rgb(234,179,8)" stroke="rgb(0,0,0)" paint-order="fill stroke markers" d=" M 607 1353.5 L 606.9460533403297 1354.8730341752373 L 606.7845459604149 1356.2376031382041 L 606.5164736069594 1357.5852938674784 L 606.1434890351652 1358.9077974015615 L 605.6678918189475 1360.196960066389 L 605.0926141732964 1361.444833745442 L 604.4212028761966 1362.643724882529 L 603.6577974015615 1363.7862419151184 L 602.8071043980005 1364.8653408457783 L 601.8743686707646 1365.8743686707646 L 600.8653408457782 1366.8071043980005 L 599.7862419151182 1367.6577974015615 L 598.6437248825291 1368.4212028761965 L 597.4448337454421 1369.0926141732964 L 596.1969600663891 1369.6678918189475 L 594.9077974015615 1370.1434890351652 L 593.5852938674783 1370.5164736069594 L 592.237603138204 1370.784545960415 L 590.8730341752373 1370.9460533403299 L 589.5 1371 L 588.1269658247627 1370.9460533403299 L 586.762396861796 1370.784545960415 L 585.4147061325217 1370.5164736069594 L 584.0922025984385 1370.1434890351652 L 582.8030399336109 1369.6678918189475 L 581.5551662545579 1369.0926141732964 L 580.3562751174709 1368.4212028761965 L 579.2137580848818 1367.6577974015615 L 578.1346591542218 1366.8071043980005 L 577.1256313292354 1365.8743686707646 L 576.1928956019995 1364.8653408457783 L 575.3422025984385 1363.7862419151184 L 574.5787971238034 1362.643724882529 L 573.9073858267036 1361.444833745442 L 573.3321081810525 1360.196960066389 L 572.8565109648348 1358.9077974015615 L 572.4835263930406 1357.5852938674784 L 572.2154540395851 1356.2376031382041 L 572.0539466596703 1354.8730341752373 L 572 1353.5 L 572.0539466596703 1352.1269658247627 L 572.2154540395851 1350.7623968617959 L 572.4835263930406 1349.4147061325216 L 572.8565109648348 1348.0922025984385 L 573.3321081810525 1346.803039933611 L 573.9073858267036 1345.555166254558 L 574.5787971238034 1344.356275117471 L 575.3422025984385 1343.2137580848816 L 576.1928956019995 1342.1346591542217 L 577.1256313292354 1341.1256313292354 L 578.1346591542218 1340.1928956019995 L 579.2137580848818 1339.3422025984385 L 580.3562751174709 1338.5787971238033 L 581.5551662545579 1337.9073858267036 L 582.803039933611 1337.3321081810525 L 584.0922025984385 1336.8565109648348 L 585.4147061325217 1336.4835263930406 L 586.762396861796 1336.215454039585 L 588.1269658247628 1336.0539466596701 L 589.5000000000001 1336 L 590.8730341752373 1336.0539466596704 L 592.2376031382041 1336.2154540395852 L 593.5852938674784 1336.4835263930406 L 594.9077974015617 1336.8565109648348 L 596.1969600663891 1337.3321081810525 L 597.4448337454421 1337.9073858267036 L 598.6437248825292 1338.5787971238035 L 599.7862419151184 1339.3422025984385 L 600.8653408457783 1340.1928956019995 L 601.8743686707646 1341.1256313292356 L 602.8071043980007 1342.134659154222 L 603.6577974015617 1343.2137580848819 L 604.4212028761967 1344.3562751174711 L 605.0926141732965 1345.5551662545581 L 605.6678918189476 1346.803039933611 L 606.1434890351652 1348.0922025984387 L 606.5164736069594 1349.4147061325218 L 606.7845459604149 1350.762396861796 L 606.9460533403297 1352.126965824763 Z" fill-opacity="1" stroke-opacity="1" stroke-miterlimit="10" stroke-width="2"/><text fill="none" stroke="rgb(0,0,0)" font-family="Helvetica Neue, Helvetica, sans-serif" font-size="10px" font-style="normal" font-weight="normal" text-decoration="normal" x="589.5" y="1336" text-anchor="middle" dominant-baseline="text-after-edge" stroke-opacity="1" stroke-linejoin="round" stroke-miterlimit="10" stroke-width="4">CVE-2025-61727</text><text fill="rgb(255,255,255)" stroke="none" font-family="Helvetica Neue, Helvetica, sans-serif" font-size="10px" font-style="normal" font-weight="normal" text-decoration="normal" x="589.5" y="1336" text-anchor="middle" dominant-baseline="text-after-edge" fill-opacity="1">CVE-2025-61727</text><path fill="rgb(234,179,8)" stroke="rgb(255,102,102)" paint-order="fill stroke markers" d=" M 607 1308.5 L 606.9460533403297 1309.8730341752373 L 606.7845459604149 1311.2376031382041 L 606.5164736069594 1312.5852938674784 L 606.1434890351652 1313.9077974015615 L 605.6678918189475 1315.196960066389 L 605.0926141732964 1316.444833745442 L 604.4212028761966 1317.643724882529 L 603.6577974015615 1318.7862419151184 L 602.8071043980005 1319.8653408457783 L 601.8743686707646 1320.8743686707646 L 600.8653408457782 1321.8071043980005 L 599.7862419151182 1322.6577974015615 L 598.6437248825291 1323.4212028761965 L 597.4448337454421 1324.0926141732964 L 596.1969600663891 1324.6678918189475 L 594.9077974015615 1325.1434890351652 L 593.5852938674783 1325.5164736069594 L 592.237603138204 1325.784545960415 L 590.8730341752373 1325.9460533403299 L 589.5 1326 L 588.1269658247627 1325.9460533403299 L 586.762396861796 1325.784545960415 L 585.4147061325217 1325.5164736069594 L 584.0922025984385 1325.1434890351652 L 582.8030399336109 1324.6678918189475 L 581.5551662545579 1324.0926141732964 L 580.3562751174709 1323.4212028761965 L 579.2137580848818 1322.6577974015615 L 578.1346591542218 1321.8071043980005 L 577.1256313292354 1320.8743686707646 L 576.1928956019995 1319.8653408457783 L 575.3422025984385 1318.7862419151184 L 574.5787971238034 1317.643724882529 L 573.9073858267036 1316.444833745442 L 573.3321081810525 1315.196960066389 L 572.8565109648348 1313.9077974015615 L 572.4835263930406 1312.5852938674784 L 572.2154540395851 1311.2376031382041 L 572.0539466596703 1309.8730341752373 L 572 1308.5 L 572.0539466596703 1307.1269658247627 L 572.2154540395851 1305.7623968617959 L 572.4835263930406 1304.4147061325216 L 572.8565109648348 1303.0922025984385 L 573.3321081810525 1301.803039933611 L 573.9073858267036 1300.555166254558 L 574.5787971238034 1299.356275117471 L 575.3422025984385 1298.2137580848816 L 576.1928956019995 1297.1346591542217 L 577.1256313292354 1296.1256313292354 L 578.1346591542218 1295.1928956019995 L 579.2137580848818 1294.3422025984385 L 580.3562751174709 1293.5787971238033 L 581.5551662545579 1292.9073858267036 L 582.803039933611 1292.3321081810525 L 584.0922025984385 1291.8565109648348 L 585.4147061325217 1291.4835263930406 L 586.762396861796 1291.215454039585 L 588.1269658247628 1291.0539466596701 L 589.5000000000001 1291 L 590.8730341752373 1291.0539466596704 L 592.2376031382041 1291.2154540395852 L 593.5852938674784 1291.4835263930406 L 594.9077974015617 1291.8565109648348 L 596.1969600663891 1292.3321081810525 L 597.4448337454421 1292.9073858267036 L 598.6437248825292 1293.5787971238035 L 599.7862419151184 1294.3422025984385 L 600.8653408457783 1295.1928956019995 L 601.8743686707646 1296.1256313292356 L 602.8071043980007 1297.134659154222 L 603.6577974015617 1298.2137580848819 L 604.4212028761967 1299.3562751174711 L 605.0926141732965 1300.5551662545581 L 605.6678918189476 1301.803039933611 L 606.1434890351652 1303.0922025984387 L 606.5164736069594 1304.4147061325218 L 606.7845459604149 1305.762396861796 L 606.9460533403297 1307.126965824763 Z" fill-opacity="0.25" stroke-opacity="0.25" stroke-miterlimit="10" stroke-width="2" stroke-dasharray="4,2"/><text fill="none" stroke="rgb(0,0,0)" font-family="Helvetica Neue, Helvetica, sans-serif" font-size="10px" font-style="normal" font-weight="normal" text-decoration="normal" x="589.5" y="1291" text-anchor="middle" dominant-baseline="text-after-edge" stroke-opacity="0.25" stroke-linejoin="round" stroke-miterlimit="10" stroke-width="4">CVE-2026-32289</text><text fill="rgb(255,255,255)" stroke="none" font-family="Helvetica Neue, Helvetica, sans-serif" font-size="10px" font-style="normal" font-weight="normal" text-decoration="normal" x="589.5" y="1291" text-anchor="middle" dominant-baseline="text-after-edge" fill-opacity="0.25">CVE-2026-32289</text><path fill="rgb(234,179,8)" stroke="rgb(255,102,102)" paint-order="fill stroke markers" d=" M 926 800.75 L 925.9460533403297 802.1230341752373 L 925.7845459604149 803.487603138204 L 925.5164736069594 804.8352938674783 L 925.1434890351652 806.1577974015615 L 924.6678918189475 807.4469600663891 L 924.0926141732964 808.6948337454421 L 923.4212028761966 809.8937248825291 L 922.6577974015615 811.0362419151182 L 921.8071043980005 812.1153408457782 L 920.8743686707646 813.1243686707646 L 919.8653408457782 814.0571043980005 L 918.7862419151182 814.9077974015615 L 917.6437248825291 815.6712028761966 L 916.4448337454421 816.3426141732964 L 915.1969600663891 816.9178918189475 L 913.9077974015615 817.3934890351652 L 912.5852938674783 817.7664736069594 L 911.237603138204 818.0345459604149 L 909.8730341752373 818.1960533403297 L 908.5 818.25 L 907.1269658247627 818.1960533403297 L 905.762396861796 818.0345459604149 L 904.4147061325217 817.7664736069594 L 903.0922025984385 817.3934890351652 L 901.8030399336109 816.9178918189475 L 900.5551662545579 816.3426141732964 L 899.3562751174709 815.6712028761966 L 898.2137580848818 814.9077974015615 L 897.1346591542218 814.0571043980005 L 896.1256313292354 813.1243686707646 L 895.1928956019995 812.1153408457782 L 894.3422025984385 811.0362419151182 L 893.5787971238034 809.8937248825291 L 892.9073858267036 808.6948337454421 L 892.3321081810525 807.4469600663891 L 891.8565109648348 806.1577974015615 L 891.4835263930406 804.8352938674783 L 891.2154540395851 803.487603138204 L 891.0539466596703 802.1230341752373 L 891 800.75 L 891.0539466596703 799.3769658247627 L 891.2154540395851 798.012396861796 L 891.4835263930406 796.6647061325217 L 891.8565109648348 795.3422025984385 L 892.3321081810525 794.0530399336109 L 892.9073858267036 792.8051662545579 L 893.5787971238034 791.6062751174709 L 894.3422025984385 790.4637580848818 L 895.1928956019995 789.3846591542218 L 896.1256313292354 788.3756313292354 L 897.1346591542218 787.4428956019995 L 898.2137580848818 786.5922025984385 L 899.3562751174709 785.8287971238034 L 900.5551662545579 785.1573858267036 L 901.803039933611 784.5821081810525 L 903.0922025984385 784.1065109648348 L 904.4147061325217 783.7335263930406 L 905.762396861796 783.4654540395851 L 907.1269658247628 783.3039466596703 L 908.5000000000001 783.25 L 909.8730341752373 783.3039466596703 L 911.2376031382041 783.4654540395851 L 912.5852938674784 783.7335263930406 L 913.9077974015617 784.1065109648348 L 915.1969600663891 784.5821081810525 L 916.4448337454421 785.1573858267036 L 917.6437248825292 785.8287971238035 L 918.7862419151184 786.5922025984385 L 919.8653408457783 787.4428956019996 L 920.8743686707646 788.3756313292355 L 921.8071043980007 789.3846591542219 L 922.6577974015617 790.4637580848819 L 923.4212028761967 791.606275117471 L 924.0926141732965 792.8051662545581 L 924.6678918189476 794.0530399336111 L 925.1434890351652 795.3422025984386 L 925.5164736069594 796.6647061325218 L 925.7845459604149 798.0123968617961 L 925.9460533403297 799.3769658247629 Z" fill-opacity="0.25" stroke-opacity="0.25" stroke-miterlimit="10" stroke-width="2" stroke-dasharray="4,2"/><text fill="none" stroke="rgb(0,0,0)" font-family="Helvetica Neue, Helvetica, sans-serif" font-size="10px" font-style="normal" font-weight="normal" text-decoration="normal" x="908.5" y="783.25" text-anchor="middle" dominant-baseline="text-after-edge" stroke-opacity="0.25" stroke-linejoin="round" stroke-miterlimit="10" stroke-width="4">CVE-2026-32282</text><text fill="rgb(255,255,255)" stroke="none" font-family="Helvetica Neue, Helvetica, sans-serif" font-size="10px" font-style="normal" font-weight="normal" text-decoration="normal" x="908.5" y="783.25" text-anchor="middle" dominant-baseline="text-after-edge" fill-opacity="0.25">CVE-2026-32282</text><path fill="rgb(255,0,0)" stroke="rgb(255,215,0)" paint-order="fill stroke markers" d=" M 1054 775.75 L 1044.7343318831333 789.9799193548821 L 1029 794.8483005625053 L 1039.0078340584334 808.5112555886155 L 1038.5491502812527 825.75 L 1054 819.9642512380153 L 1069.4508497187473 825.75 L 1068.9921659415666 808.5112555886155 L 1079 794.8483005625053 L 1063.2656681168667 789.9799193548821 Z" fill-opacity="0.25" stroke-opacity="0.25" stroke-miterlimit="10" stroke-width="4" stroke-dasharray="4,2"/><text fill="none" stroke="rgb(0,0,0)" font-family="Helvetica Neue, Helvetica, sans-serif" font-size="10px" font-style="normal" font-weight="bold" text-decoration="normal" x="1054" y="775.75" text-anchor="middle" dominant-baseline="text-after-edge" stroke-opacity="0.25" stroke-linejoin="round" stroke-miterlimit="10" stroke-width="4">EXPLOITED</text><text fill="rgb(255,255,255)" stroke="none" font-family="Helvetica Neue, Helvetica, sans-serif" font-size="10px" font-style="normal" font-weight="bold" text-decoration="normal" x="1054" y="775.75" text-anchor="middle" dominant-baseline="text-after-edge" fill-opacity="0.25">EXPLOITED</text><path fill="rgb(0,255,136)" stroke="rgb(0,204,102)" paint-order="fill stroke markers" d=" M 1213 1556.5 L 1243 1526.5 L 1213 1496.5 L 1183 1526.5 Z" fill-opacity="1" stroke-opacity="1" stroke-miterlimit="10" stroke-width="4"/><text fill="none" stroke="rgb(0,0,0)" font-family="Helvetica Neue, Helvetica, sans-serif" font-size="14px" font-style="normal" font-weight="bold" text-decoration="normal" x="1213" y="1496.5" text-anchor="middle" dominant-baseline="text-after-edge" stroke-opacity="1" stroke-linejoin="round" stroke-miterlimit="10" stroke-width="6">INSIDE NETWORK</text><text fill="rgb(255,255,255)" stroke="none" font-family="Helvetica Neue, Helvetica, sans-serif" font-size="14px" font-style="normal" font-weight="bold" text-decoration="normal" x="1213" y="1496.5" text-anchor="middle" dominant-baseline="text-after-edge" fill-opacity="1">INSIDE NETWORK</text><g transform="scale(0.5,0.5) translate(64,-28)"/></g></g></svg>