<svg version="1.1" xmlns="http://www.w3.org/2000/svg" xmlns:xlink="http://www.w3.org/1999/xlink" width="2298" height="2448"><defs/><g><rect fill="#ffffff" stroke="none" x="0" y="0" width="2298" height="2448"/><g transform="translate(-64,-212) scale(2,2)"><path fill="rgb(100,100,100)" stroke="rgb(136,136,136)" paint-order="fill stroke markers" d=" M 139.5 584 L 237 584 L 237 584 A 8 8 0 0 1 245 592 L 245 832 L 245 832 A 8 8 0 0 1 237 840 L 42 840 L 42 840 A 8 8 0 0 1 34 832 L 34 592 L 34 592 A 8 8 0 0 1 42 584 L 139.5 584 Z" fill-opacity="1" stroke-opacity="1" stroke-miterlimit="10" stroke-width="2" stroke-dasharray="4,2"/><text fill="none" stroke="rgb(0,0,0)" font-family="Helvetica Neue, Helvetica, sans-serif" font-size="12px" font-style="normal" font-weight="normal" text-decoration="normal" x="139.5" y="584" text-anchor="middle" dominant-baseline="text-after-edge" stroke-opacity="1" stroke-linejoin="round" stroke-miterlimit="10" stroke-width="4">Initial State</text><text fill="rgb(204,204,204)" stroke="none" font-family="Helvetica Neue, Helvetica, sans-serif" font-size="12px" font-style="normal" font-weight="normal" text-decoration="normal" x="139.5" y="584" text-anchor="middle" dominant-baseline="text-after-edge" fill-opacity="1">Initial State</text><path fill="none" stroke="rgb(203,143,255)" paint-order="fill stroke markers" d=" M 551.4125282830917 1296.3457896756993 L 933.646646693016 842.183417379227" stroke-opacity="0.9" stroke-linejoin="round" stroke-miterlimit="10" stroke-width="3" stroke-dasharray="6,3"/><path fill="rgb(255,255,255)" stroke="none" paint-order="stroke fill markers" d=" M 935.236213641468 847.0502209417708 L 937.5101693794242 837.5928626794538 L 928.5799093267968 841.4481130464791 Z" fill-opacity="1"/><path fill="rgb(203,143,255)" stroke="none" paint-order="stroke fill markers" d=" M 935.236213641468 847.0502209417708 L 937.5101693794242 837.5928626794538 L 928.5799093267968 841.4481130464791 Z" fill-opacity="0.9"/><path fill="none" stroke="rgb(0,255,255)" paint-order="fill stroke markers" d=" M 679.5590488398817 761.9967678150404 L 800.6825875689163 435.0982952600995" stroke-opacity="0.7" stroke-linejoin="round" stroke-miterlimit="10" stroke-width="2"/><path fill="rgb(255,255,255)" stroke="none" paint-order="stroke fill markers" d=" M 803.128620722487 441.0168611177743 L 802.0723497788867 431.3474872138596 L 794.9706132219152 437.99412831108856 Z" fill-opacity="1"/><path fill="rgb(0,255,255)" stroke="none" paint-order="stroke fill markers" d=" M 803.128620722487 441.0168611177743 L 802.0723497788867 431.3474872138596 L 794.9706132219152 437.99412831108856 Z" fill-opacity="0.7"/><path fill="none" stroke="rgb(203,143,255)" paint-order="fill stroke markers" d=" M 549.1341299350864 154.293465116746 L 942.3717288202993 798.9374903097548" stroke-opacity="0.9" stroke-linejoin="round" stroke-miterlimit="10" stroke-width="3" stroke-dasharray="6,3"/><path fill="rgb(255,255,255)" stroke="none" paint-order="stroke fill markers" d=" M 937.2520680590787 798.897820547723 L 945.4963115019489 804.0596952124832 L 944.679265168035 794.367175659331 Z" fill-opacity="1"/><path fill="rgb(203,143,255)" stroke="none" paint-order="stroke fill markers" d=" M 937.2520680590787 798.897820547723 L 945.4963115019489 804.0596952124832 L 944.679265168035 794.367175659331 Z" fill-opacity="0.9"/><path fill="none" stroke="rgb(203,143,255)" paint-order="fill stroke markers" d=" M 544.7817005618872 1292.769979154706 L 667.7190587912694 880.0843491133227" stroke-opacity="0.9" stroke-linejoin="round" stroke-miterlimit="10" stroke-width="3" stroke-dasharray="6,3"/><path fill="rgb(255,255,255)" stroke="none" paint-order="stroke fill markers" d=" M 671.1171668539685 883.913887152593 L 669.4320427572868 874.3340720824165 L 662.7792651591545 881.4300604018678 Z" fill-opacity="1"/><path fill="rgb(203,143,255)" stroke="none" paint-order="stroke fill markers" d=" M 671.1171668539685 883.913887152593 L 669.4320427572868 874.3340720824165 L 662.7792651591545 881.4300604018678 Z" fill-opacity="0.9"/><path fill="none" stroke="rgb(203,143,255)" paint-order="fill stroke markers" d=" M 544.0225027056067 1292.5612996770174 L 668.6218886744136 798.3325084921956" stroke-opacity="0.9" stroke-linejoin="round" stroke-miterlimit="10" stroke-width="3" stroke-dasharray="6,3"/><path fill="rgb(255,255,255)" stroke="none" paint-order="stroke fill markers" d=" M 672.179866463594 802.013988364706 L 670.0886463086645 792.5145516306877 L 663.7438290144075 799.8871897950423 Z" fill-opacity="1"/><path fill="rgb(203,143,255)" stroke="none" paint-order="stroke fill markers" d=" M 672.179866463594 802.013988364706 L 670.0886463086645 792.5145516306877 L 663.7438290144075 799.8871897950423 Z" fill-opacity="0.9"/><path fill="none" stroke="rgb(203,143,255)" paint-order="fill stroke markers" d=" M 542.8948591969887 156.68584424855283 L 669.9628701441216 837.3735906233426" stroke-opacity="0.9" stroke-linejoin="round" stroke-miterlimit="10" stroke-width="3" stroke-dasharray="6,3"/><path fill="rgb(255,255,255)" stroke="none" paint-order="stroke fill markers" d=" M 665.1912732623338 835.5176910577106 L 671.0639055593612 843.2717022715219 L 673.7435351521938 833.9211897056133 Z" fill-opacity="1"/><path fill="rgb(203,143,255)" stroke="none" paint-order="stroke fill markers" d=" M 665.1912732623338 835.5176910577106 L 671.0639055593612 843.2717022715219 L 673.7435351521938 833.9211897056133 Z" fill-opacity="0.9"/><path fill="none" stroke="rgb(255,0,102)" paint-order="fill stroke markers" d=" M 79.4447463715879 799.3259700828465 L 182.3918421738333 732.9084889201075" stroke-opacity="0.7" stroke-linejoin="round" stroke-miterlimit="10" stroke-width="2"/><path fill="rgb(255,255,255)" stroke="none" paint-order="stroke fill markers" d=" M 180.80069981090543 739.1117756280469 L 185.75302876673027 730.7399814408192 L 176.08419604345323 731.8011947884959 Z" fill-opacity="1"/><path fill="rgb(255,0,102)" stroke="none" paint-order="stroke fill markers" d=" M 180.80069981090543 739.1117756280469 L 185.75302876673027 730.7399814408192 L 176.08419604345323 731.8011947884959 Z" fill-opacity="0.7"/><path fill="none" stroke="rgb(0,255,136)" paint-order="fill stroke markers" d=" M 959.9669190153267 176.48577293639994 L 1105.3999999669595 736.7232703129723" stroke-opacity="0.25" stroke-linejoin="round" stroke-miterlimit="10" stroke-width="2"/><path fill="rgb(255,255,255)" stroke="none" paint-order="stroke fill markers" d=" M 1100.0086140733383 733.2670501020968 L 1106.405055087492 740.5949449125081 L 1108.429506327329 731.0810552149385 Z" fill-opacity="1"/><path fill="rgb(0,255,136)" stroke="none" paint-order="stroke fill markers" d=" M 1100.0086140733383 733.2670501020968 L 1106.405055087492 740.5949449125081 L 1108.429506327329 731.0810552149385 Z" fill-opacity="0.25"/><path fill="none" stroke="rgb(255,0,102)" paint-order="fill stroke markers" d=" M 81.2273378841688 758.0879555212359 L 179.32801301158483 726.4425764478758" stroke-opacity="0.7" stroke-linejoin="round" stroke-miterlimit="10" stroke-width="2"/><path fill="rgb(255,255,255)" stroke="none" paint-order="stroke fill markers" d=" M 176.19044460077424 732.0254220007712 L 183.13484748262704 725.2145653281848 L 173.51952041544624 723.7455570262543 Z" fill-opacity="1"/><path fill="rgb(255,0,102)" stroke="none" paint-order="stroke fill markers" d=" M 176.19044460077424 732.0254220007712 L 183.13484748262704 725.2145653281848 L 173.51952041544624 723.7455570262543 Z" fill-opacity="0.7"/><path fill="none" stroke="rgb(255,0,102)" paint-order="fill stroke markers" d=" M 81.2273378841688 677.9120444787641 L 179.32801301158483 709.5574235521242" stroke-opacity="0.7" stroke-linejoin="round" stroke-miterlimit="10" stroke-width="2"/><path fill="rgb(255,255,255)" stroke="none" paint-order="stroke fill markers" d=" M 173.51952041544624 712.2544429737457 L 183.13484748262704 710.7854346718152 L 176.19044460077424 703.9745779992288 Z" fill-opacity="1"/><path fill="rgb(255,0,102)" stroke="none" paint-order="stroke fill markers" d=" M 173.51952041544624 712.2544429737457 L 183.13484748262704 710.7854346718152 L 176.19044460077424 703.9745779992288 Z" fill-opacity="0.7"/><path fill="none" stroke="rgb(203,143,255)" paint-order="fill stroke markers" d=" M 545.4429210103566 1155.9805339731868 L 666.9327425822787 797.8339595994535" stroke-opacity="0.9" stroke-linejoin="round" stroke-miterlimit="10" stroke-width="3" stroke-dasharray="6,3"/><path fill="rgb(255,255,255)" stroke="none" paint-order="stroke fill markers" d=" M 670.1848393654503 801.7882441760723 L 668.8601764234754 792.1519706177844 L 661.9459553420301 798.993465106337 Z" fill-opacity="1"/><path fill="rgb(203,143,255)" stroke="none" paint-order="stroke fill markers" d=" M 670.1848393654503 801.7882441760723 L 668.8601764234754 792.1519706177844 L 661.9459553420301 798.993465106337 Z" fill-opacity="0.9"/><path fill="none" stroke="rgb(203,143,255)" paint-order="fill stroke markers" d=" M 551.4125282830917 339.6542103243007 L 940.2243895527189 801.6321154516625" stroke-opacity="0.9" stroke-linejoin="round" stroke-miterlimit="10" stroke-width="3" stroke-dasharray="6,3"/><path fill="rgb(255,255,255)" stroke="none" paint-order="stroke fill markers" d=" M 935.1576521864997 802.3674197844103 L 944.087912239127 806.2226701514356 L 941.8139565011709 796.7653118891186 Z" fill-opacity="1"/><path fill="rgb(203,143,255)" stroke="none" paint-order="stroke fill markers" d=" M 935.1576521864997 802.3674197844103 L 944.087912239127 806.2226701514356 L 941.8139565011709 796.7653118891186 Z" fill-opacity="0.9"/><path fill="none" stroke="rgb(255,102,0)" paint-order="fill stroke markers" d=" M 229 718 L 375 718" stroke-opacity="0.7" stroke-linejoin="round" stroke-miterlimit="10" stroke-width="2"/><path fill="rgb(255,255,255)" stroke="none" paint-order="stroke fill markers" d=" M 370.3 722.35 L 379 718 L 370.3 713.65 Z" fill-opacity="1"/><path fill="rgb(255,102,0)" stroke="none" paint-order="stroke fill markers" d=" M 370.3 722.35 L 379 718 L 370.3 713.65 Z" fill-opacity="0.7"/><path fill="none" stroke="rgb(203,143,255)" paint-order="fill stroke markers" d=" M 544.7817005618872 343.230020845294 L 667.7190587912694 755.9156508866773" stroke-opacity="0.9" stroke-linejoin="round" stroke-miterlimit="10" stroke-width="3" stroke-dasharray="6,3"/><path fill="rgb(255,255,255)" stroke="none" paint-order="stroke fill markers" d=" M 662.7792651591545 754.5699395981322 L 669.4320427572868 761.6659279175835 L 671.1171668539685 752.086112847407 Z" fill-opacity="1"/><path fill="rgb(203,143,255)" stroke="none" paint-order="stroke fill markers" d=" M 662.7792651591545 754.5699395981322 L 669.4320427572868 761.6659279175835 L 671.1171668539685 752.086112847407 Z" fill-opacity="0.9"/><path fill="none" stroke="rgb(203,143,255)" paint-order="fill stroke markers" d=" M 549.3279582789712 578.1735840211102 L 662.3126982628451 758.3611433262473" stroke-opacity="0.9" stroke-linejoin="round" stroke-miterlimit="10" stroke-width="3" stroke-dasharray="6,3"/><path fill="rgb(255,255,255)" stroke="none" paint-order="stroke fill markers" d=" M 657.1929372982477 758.3845455779515 L 665.5001441911601 763.4444678736344 L 664.563757891959 753.7627489818947 Z" fill-opacity="1"/><path fill="rgb(203,143,255)" stroke="none" paint-order="stroke fill markers" d=" M 657.1929372982477 758.3845455779515 L 665.5001441911601 763.4444678736344 L 664.563757891959 753.7627489818947 Z" fill-opacity="0.9"/><path fill="none" stroke="rgb(255,153,119)" paint-order="fill stroke markers" d=" M 416.84689764675454 705.4627738442757 L 788.8452860787863 428.62676384834504" stroke-opacity="0.9" stroke-linejoin="round" stroke-miterlimit="10" stroke-width="3" stroke-dasharray="6,3"/><path fill="rgb(255,255,255)" stroke="none" paint-order="stroke fill markers" d=" M 789.2762532278895 433.7284074380516 L 793.6586854064305 425.0446992324238 L 784.0822595348036 426.7489784129676 Z" fill-opacity="1"/><path fill="rgb(255,153,119)" stroke="none" paint-order="stroke fill markers" d=" M 789.2762532278895 433.7284074380516 L 793.6586854064305 425.0446992324238 L 784.0822595348036 426.7489784129676 Z" fill-opacity="0.9"/><path fill="none" stroke="rgb(203,143,255)" paint-order="fill stroke markers" d=" M 549.4946243345901 665.0678349300864 L 662.1145007912983 840.4868990020593" stroke-opacity="0.9" stroke-linejoin="round" stroke-miterlimit="10" stroke-width="3" stroke-dasharray="6,3"/><path fill="rgb(255,255,255)" stroke="none" paint-order="stroke fill markers" d=" M 656.9952809183648 840.5649239503963 L 665.3560005754896 845.5359265469523 L 664.3163708584594 835.8647492633188 Z" fill-opacity="1"/><path fill="rgb(203,143,255)" stroke="none" paint-order="stroke fill markers" d=" M 656.9952809183648 840.5649239503963 L 665.3560005754896 845.5359265469523 L 664.3163708584594 835.8647492633188 Z" fill-opacity="0.9"/><path fill="none" stroke="rgb(203,143,255)" paint-order="fill stroke markers" d=" M 552.9261893820834 973.7725714036012 L 658.0337207348197 874.1353204930149" stroke-opacity="0.9" stroke-linejoin="round" stroke-miterlimit="10" stroke-width="3" stroke-dasharray="6,3"/><path fill="rgb(255,255,255)" stroke="none" paint-order="stroke fill markers" d=" M 659.0668884679391 879.1498059536818 L 662.3881605344143 870.0075058131017 L 653.081557182065 872.8358682442696 Z" fill-opacity="1"/><path fill="rgb(203,143,255)" stroke="none" paint-order="stroke fill markers" d=" M 659.0668884679391 879.1498059536818 L 662.3881605344143 870.0075058131017 L 653.081557182065 872.8358682442696 Z" fill-opacity="0.9"/><path fill="none" stroke="rgb(255,153,119)" paint-order="fill stroke markers" d=" M 404.9148222607559 697.5832293899065 L 533.7660406957848 162.31956571177568" stroke-opacity="0.9" stroke-linejoin="round" stroke-miterlimit="10" stroke-width="3" stroke-dasharray="6,3"/><path fill="rgb(255,255,255)" stroke="none" paint-order="stroke fill markers" d=" M 537.3633231743498 165.96264940137286 L 535.1702756274293 156.4862026803204 L 528.9049467787396 163.92650875048827 Z" fill-opacity="1"/><path fill="rgb(255,153,119)" stroke="none" paint-order="stroke fill markers" d=" M 537.3633231743498 165.96264940137286 L 535.1702756274293 156.4862026803204 L 528.9049467787396 163.92650875048827 Z" fill-opacity="0.9"/><path fill="none" stroke="rgb(203,143,255)" paint-order="fill stroke markers" d=" M 556.6380543234983 656.466856823907 L 927.8698122461326 807.3777161965581" stroke-opacity="0.9" stroke-linejoin="round" stroke-miterlimit="10" stroke-width="3" stroke-dasharray="6,3"/><path fill="rgb(255,255,255)" stroke="none" paint-order="stroke fill markers" d=" M 923.7304298754602 810.3906904064321 L 933.4281001348348 809.637237328636 L 927.0067355169732 802.3311729678139 Z" fill-opacity="1"/><path fill="rgb(203,143,255)" stroke="none" paint-order="stroke fill markers" d=" M 923.7304298754602 810.3906904064321 L 933.4281001348348 809.637237328636 L 927.0067355169732 802.3311729678139 Z" fill-opacity="0.9"/><path fill="none" stroke="rgb(203,143,255)" paint-order="fill stroke markers" d=" M 817.5212208611684 397.84860457502145 L 936.4183968209593 184.97771565732043" stroke-opacity="0.9" stroke-linejoin="round" stroke-miterlimit="10" stroke-width="3" stroke-dasharray="6,3"/><path fill="rgb(255,255,255)" stroke="none" paint-order="stroke fill markers" d=" M 938.8995467546621 189.4561523272407 L 939.3441981813382 179.73942524921927 L 931.3040256629154 185.2137403546912 Z" fill-opacity="1"/><path fill="rgb(203,143,255)" stroke="none" paint-order="stroke fill markers" d=" M 938.8995467546621 189.4561523272407 L 939.3441981813382 179.73942524921927 L 931.3040256629154 185.2137403546912 Z" fill-opacity="0.9"/><path fill="none" stroke="rgb(255,153,119)" paint-order="fill stroke markers" d=" M 407.0327165357461 698.2126075965567 L 531.2951640416296 348.5852911373505" stroke-opacity="0.9" stroke-linejoin="round" stroke-miterlimit="10" stroke-width="3" stroke-dasharray="6,3"/><path fill="rgb(255,255,255)" stroke="none" paint-order="stroke fill markers" d=" M 534.4897746277469 352.5861614430549 L 533.3045116232713 342.93175045065243 L 526.2921406320347 349.6726074496744 Z" fill-opacity="1"/><path fill="rgb(255,153,119)" stroke="none" paint-order="stroke fill markers" d=" M 534.4897746277469 352.5861614430549 L 533.3045116232713 342.93175045065243 L 526.2921406320347 349.6726074496744 Z" fill-opacity="0.9"/><path fill="none" stroke="rgb(203,143,255)" paint-order="fill stroke markers" d=" M 543.313337189838 156.602719670718 L 669.4652206391115 755.4724414726597" stroke-opacity="0.9" stroke-linejoin="round" stroke-miterlimit="10" stroke-width="3" stroke-dasharray="6,3"/><path fill="rgb(255,255,255)" stroke="none" paint-order="stroke fill markers" d=" M 664.652094099642 753.727072481571 L 670.7019786466266 761.343593798298 L 673.1652649718175 751.9337733706741 Z" fill-opacity="1"/><path fill="rgb(203,143,255)" stroke="none" paint-order="stroke fill markers" d=" M 664.652094099642 753.727072481571 L 670.7019786466266 761.343593798298 L 673.1652649718175 751.9337733706741 Z" fill-opacity="0.9"/><path fill="none" stroke="rgb(203,143,255)" paint-order="fill stroke markers" d=" M 556.6380543234983 979.533143176093 L 931.2341824632483 827.2546206391862" stroke-opacity="0.9" stroke-linejoin="round" stroke-miterlimit="10" stroke-width="3" stroke-dasharray="6,3"/><path fill="rgb(255,255,255)" stroke="none" paint-order="stroke fill markers" d=" M 930.3711057340889 832.3011638679303 L 936.7924703519506 824.9950995071082 L 927.094800092576 824.2416464293121 Z" fill-opacity="1"/><path fill="rgb(203,143,255)" stroke="none" paint-order="stroke fill markers" d=" M 930.3711057340889 832.3011638679303 L 936.7924703519506 824.9950995071082 L 927.094800092576 824.2416464293121 Z" fill-opacity="0.9"/><path fill="none" stroke="rgb(203,143,255)" paint-order="fill stroke markers" d=" M 549.4946243345901 970.9321650699136 L 662.1145007912983 795.5131009979407" stroke-opacity="0.9" stroke-linejoin="round" stroke-miterlimit="10" stroke-width="3" stroke-dasharray="6,3"/><path fill="rgb(255,255,255)" stroke="none" paint-order="stroke fill markers" d=" M 664.3163708584594 800.1352507366812 L 665.3560005754896 790.4640734530477 L 656.9952809183648 795.4350760496037 Z" fill-opacity="1"/><path fill="rgb(203,143,255)" stroke="none" paint-order="stroke fill markers" d=" M 664.3163708584594 800.1352507366812 L 665.3560005754896 790.4640734530477 L 656.9952809183648 795.4350760496037 Z" fill-opacity="0.9"/><path fill="none" stroke="rgb(255,153,119)" paint-order="fill stroke markers" d=" M 414.02324893304166 702.3683497556417 L 523.1395429114514 580.7369252850846" stroke-opacity="0.9" stroke-linejoin="round" stroke-miterlimit="10" stroke-width="3" stroke-dasharray="6,3"/><path fill="rgb(255,255,255)" stroke="none" paint-order="stroke fill markers" d=" M 524.5745384563917 585.6515247383464 L 527.146185463749 576.2707395009822 L 518.0985690694432 579.8418930375149 Z" fill-opacity="1"/><path fill="rgb(255,153,119)" stroke="none" paint-order="stroke fill markers" d=" M 524.5745384563917 585.6515247383464 L 527.146185463749 576.2707395009822 L 518.0985690694432 579.8418930375149 Z" fill-opacity="0.9"/><path fill="none" stroke="rgb(203,143,255)" paint-order="fill stroke markers" d=" M 544.0225027056067 343.43870032298264 L 668.6218886744136 837.6674915078044" stroke-opacity="0.9" stroke-linejoin="round" stroke-miterlimit="10" stroke-width="3" stroke-dasharray="6,3"/><path fill="rgb(255,255,255)" stroke="none" paint-order="stroke fill markers" d=" M 663.7438290144075 836.1128102049577 L 670.0886463086645 843.4854483693123 L 672.179866463594 833.986011635294 Z" fill-opacity="1"/><path fill="rgb(203,143,255)" stroke="none" paint-order="stroke fill markers" d=" M 663.7438290144075 836.1128102049577 L 670.0886463086645 843.4854483693123 L 672.179866463594 833.986011635294 Z" fill-opacity="0.9"/><path fill="none" stroke="rgb(255,153,119)" paint-order="fill stroke markers" d=" M 418.8500478488063 708.7438833143855 L 517.508277509726 660.2988027998837" stroke-opacity="0.9" stroke-linejoin="round" stroke-miterlimit="10" stroke-width="3" stroke-dasharray="6,3"/><path fill="rgb(255,255,255)" stroke="none" paint-order="stroke fill markers" d=" M 517.0020383854711 665.3935277138582 L 522.8940054665278 657.6541980325652 L 513.1673614728593 657.5842221764957 Z" fill-opacity="1"/><path fill="rgb(255,153,119)" stroke="none" paint-order="stroke fill markers" d=" M 517.0020383854711 665.3935277138582 L 522.8940054665278 657.6541980325652 L 513.1673614728593 657.5842221764957 Z" fill-opacity="0.9"/><path fill="none" stroke="rgb(203,143,255)" paint-order="fill stroke markers" d=" M 553.5426593796186 1161.4561751279748 L 933.104197353357 835.9214905690749" stroke-opacity="0.9" stroke-linejoin="round" stroke-miterlimit="10" stroke-width="3" stroke-dasharray="6,3"/><path fill="rgb(255,255,255)" stroke="none" paint-order="stroke fill markers" d=" M 933.8866545354294 840.9811605937132 L 937.6585733683685 832.0153852051749 L 928.2228017577744 834.3773153719467 Z" fill-opacity="1"/><path fill="rgb(203,143,255)" stroke="none" paint-order="stroke fill markers" d=" M 933.8866545354294 840.9811605937132 L 937.6585733683685 832.0153852051749 L 928.2228017577744 834.3773153719467 Z" fill-opacity="0.9"/><path fill="none" stroke="rgb(203,143,255)" paint-order="fill stroke markers" d=" M 546.7744498447894 1156.490226942853 L 665.3493028872774 879.2278382301207" stroke-opacity="0.9" stroke-linejoin="round" stroke-miterlimit="10" stroke-width="3" stroke-dasharray="6,3"/><path fill="rgb(255,255,255)" stroke="none" paint-order="stroke fill markers" d=" M 668.2872217098535 883.4208243965602 L 667.7085839180199 873.7111550764514 L 660.288031137033 879.9998669019835 Z" fill-opacity="1"/><path fill="rgb(203,143,255)" stroke="none" paint-order="stroke fill markers" d=" M 668.2872217098535 883.4208243965602 L 667.7085839180199 873.7111550764514 L 660.288031137033 879.9998669019835 Z" fill-opacity="0.9"/><path fill="none" stroke="rgb(0,255,136)" paint-order="fill stroke markers" d=" M 977.1405727728203 810.432013935933 L 1085.0844104586004 775.1296267682566" stroke-opacity="0.7" stroke-linejoin="round" stroke-miterlimit="10" stroke-width="2"/><path fill="rgb(255,255,255)" stroke="none" paint-order="stroke fill markers" d=" M 1081.9694078294988 780.725094453865 L 1088.8862559241707 773.8862559241707 L 1079.265076243612 772.4560805662497 Z" fill-opacity="1"/><path fill="rgb(0,255,136)" stroke="none" paint-order="stroke fill markers" d=" M 1081.9694078294988 780.725094453865 L 1088.8862559241707 773.8862559241707 L 1079.265076243612 772.4560805662497 Z" fill-opacity="0.7"/><path fill="none" stroke="rgb(203,143,255)" paint-order="fill stroke markers" d=" M 552.9261893820834 662.2274285963988 L 658.0337207348197 761.8646795069851" stroke-opacity="0.9" stroke-linejoin="round" stroke-miterlimit="10" stroke-width="3" stroke-dasharray="6,3"/><path fill="rgb(255,255,255)" stroke="none" paint-order="stroke fill markers" d=" M 653.081557182065 763.1641317557304 L 662.3881605344143 765.9924941868983 L 659.0668884679391 756.8501940463182 Z" fill-opacity="1"/><path fill="rgb(203,143,255)" stroke="none" paint-order="stroke fill markers" d=" M 653.081557182065 763.1641317557304 L 662.3881605344143 765.9924941868983 L 659.0668884679391 756.8501940463182 Z" fill-opacity="0.9"/><path fill="none" stroke="rgb(255,153,119)" paint-order="fill stroke markers" d=" M 409.6818510809605 736.6349606827089 L 528.2045070722128 964.7592125368396" stroke-opacity="0.9" stroke-linejoin="round" stroke-miterlimit="10" stroke-width="3" stroke-dasharray="6,3"/><path fill="rgb(255,255,255)" stroke="none" paint-order="stroke fill markers" d=" M 523.0995986489568 964.3688153158332 L 530.9707502382015 970.0834870176136 L 530.819796646079 960.3577627251495 Z" fill-opacity="1"/><path fill="rgb(255,153,119)" stroke="none" paint-order="stroke fill markers" d=" M 523.0995986489568 964.3688153158332 L 530.9707502382015 970.0834870176136 L 530.819796646079 960.3577627251495 Z" fill-opacity="0.9"/><path fill="none" stroke="rgb(255,153,119)" paint-order="fill stroke markers" d=" M 406.14946733087095 738.079443506894 L 532.3256214473172 1150.0739825752903" stroke-opacity="0.9" stroke-linejoin="round" stroke-miterlimit="10" stroke-width="3" stroke-dasharray="6,3"/><path fill="rgb(255,255,255)" stroke="none" paint-order="stroke fill markers" d=" M 527.3756623497771 1148.7661580715128 L 534.0826121132803 1155.8109664344029 L 535.6942889454904 1146.2185216058663 Z" fill-opacity="1"/><path fill="rgb(255,153,119)" stroke="none" paint-order="stroke fill markers" d=" M 527.3756623497771 1148.7661580715128 L 534.0826121132803 1155.8109664344029 L 535.6942889454904 1146.2185216058663 Z" fill-opacity="0.9"/><path fill="none" stroke="rgb(0,255,255)" paint-order="fill stroke markers" d=" M 678.629131949857 843.6842846268673 L 801.9902831955137 435.5377247434679" stroke-opacity="0.7" stroke-linejoin="round" stroke-miterlimit="10" stroke-width="2"/><path fill="rgb(255,255,255)" stroke="none" paint-order="stroke fill markers" d=" M 804.7944358023136 441.295261383193 L 803.1475661829779 431.7087959001847 L 796.4665155681728 438.7781708854583 Z" fill-opacity="1"/><path fill="rgb(0,255,255)" stroke="none" paint-order="stroke fill markers" d=" M 804.7944358023136 441.295261383193 L 803.1475661829779 431.7087959001847 L 796.4665155681728 438.7781708854583 Z" fill-opacity="0.7"/><path fill="none" stroke="rgb(255,0,102)" paint-order="fill stroke markers" d=" M 79.4447463715879 636.6740299171535 L 182.3918421738333 703.0915110798925" stroke-opacity="0.7" stroke-linejoin="round" stroke-miterlimit="10" stroke-width="2"/><path fill="rgb(255,255,255)" stroke="none" paint-order="stroke fill markers" d=" M 176.08419604345323 704.1988052115041 L 185.75302876673027 705.2600185591808 L 180.80069981090543 696.8882243719531 Z" fill-opacity="1"/><path fill="rgb(255,0,102)" stroke="none" paint-order="stroke fill markers" d=" M 176.08419604345323 704.1988052115041 L 185.75302876673027 705.2600185591808 L 180.80069981090543 696.8882243719531 Z" fill-opacity="0.7"/><path fill="none" stroke="rgb(255,153,119)" paint-order="fill stroke markers" d=" M 404.812710362828 738.4410816485705 L 533.8851712433673 1286.6520714100009" stroke-opacity="0.9" stroke-linejoin="round" stroke-miterlimit="10" stroke-width="3" stroke-dasharray="6,3"/><path fill="rgb(255,255,255)" stroke="none" paint-order="stroke fill markers" d=" M 529.0321701409426 1285.0208509160561 L 535.2602313470325 1292.4923804524497 L 537.5006182524934 1283.0270137657417 Z" fill-opacity="1"/><path fill="rgb(255,153,119)" stroke="none" paint-order="stroke fill markers" d=" M 529.0321701409426 1285.0208509160561 L 535.2602313470325 1292.4923804524497 L 537.5006182524934 1283.0270137657417 Z" fill-opacity="0.9"/><path fill="rgb(239,68,68)" stroke="rgb(0,0,0)" paint-order="fill stroke markers" d=" M 420 718 L 419.93834667466257 719.5691819145569 L 419.7537668119028 721.1286893008046 L 419.44739840795353 722.6689072771181 L 419.0211303259031 724.1803398874989 L 418.47759065022575 725.6536686473017 L 417.82013048376734 727.0798099947909 L 417.0528032870818 728.449971294319 L 416.180339887499 729.7557050458495 L 415.20811931200063 730.9889609666037 L 414.14213562373095 732.142135623731 L 412.98896096660366 733.2081193120006 L 411.7557050458495 734.1803398874989 L 410.44997129431897 735.0528032870818 L 409.07980999479093 735.8201304837673 L 407.6536686473018 736.4775906502257 L 406.180339887499 737.0211303259031 L 404.66890727711814 737.4473984079535 L 403.12868930080464 737.7537668119028 L 401.5691819145569 737.9383466746625 L 400 738 L 398.4308180854431 737.9383466746625 L 396.87131069919536 737.7537668119028 L 395.3310927228819 737.4473984079535 L 393.819660112501 737.0211303259031 L 392.3463313526982 736.4775906502257 L 390.92019000520907 735.8201304837673 L 389.55002870568103 735.0528032870818 L 388.2442949541505 734.1803398874989 L 387.01103903339634 733.2081193120006 L 385.85786437626905 732.142135623731 L 384.79188068799937 730.9889609666037 L 383.8196601125011 729.7557050458495 L 382.9471967129182 728.449971294319 L 382.17986951623266 727.0798099947909 L 381.52240934977425 725.6536686473017 L 380.9788696740969 724.1803398874989 L 380.55260159204647 722.6689072771181 L 380.2462331880972 721.1286893008046 L 380.06165332533743 719.5691819145569 L 380 718 L 380.06165332533743 716.4308180854431 L 380.2462331880972 714.8713106991954 L 380.55260159204647 713.3310927228819 L 380.9788696740969 711.8196601125011 L 381.52240934977425 710.3463313526983 L 382.17986951623266 708.9201900052091 L 382.9471967129181 707.550028705681 L 383.819660112501 706.2442949541505 L 384.79188068799937 705.0110390333963 L 385.85786437626905 703.857864376269 L 387.01103903339634 702.7918806879994 L 388.2442949541505 701.8196601125011 L 389.55002870568103 700.9471967129182 L 390.92019000520907 700.1798695162327 L 392.3463313526982 699.5224093497743 L 393.8196601125011 698.9788696740969 L 395.3310927228819 698.5526015920465 L 396.8713106991954 698.2462331880972 L 398.43081808544315 698.0616533253375 L 400.00000000000006 698 L 401.56918191455696 698.0616533253375 L 403.1286893008047 698.2462331880972 L 404.6689072771182 698.5526015920465 L 406.18033988749903 698.9788696740969 L 407.6536686473019 699.5224093497743 L 409.07980999479105 700.1798695162327 L 410.4499712943191 700.9471967129182 L 411.7557050458496 701.8196601125011 L 412.98896096660377 702.7918806879994 L 414.14213562373106 703.8578643762692 L 415.20811931200075 705.0110390333964 L 416.18033988749903 706.2442949541506 L 417.05280328708193 707.5500287056811 L 417.82013048376746 708.9201900052092 L 418.4775906502258 710.3463313526984 L 419.02113032590313 711.8196601125012 L 419.4473984079536 713.3310927228821 L 419.7537668119028 714.8713106991956 L 419.93834667466257 716.4308180854433 Z" fill-opacity="1" stroke-opacity="1" stroke-miterlimit="10" stroke-width="2"/><text fill="none" stroke="rgb(0,0,0)" font-family="Helvetica Neue, Helvetica, sans-serif" font-size="10px" font-style="normal" font-weight="normal" text-decoration="normal" x="400" y="698" text-anchor="middle" dominant-baseline="text-after-edge" stroke-opacity="1" stroke-linejoin="round" stroke-miterlimit="10" stroke-width="4">host_postgres_fb02b9d1</text><text fill="rgb(255,255,255)" stroke="none" font-family="Helvetica Neue, Helvetica, sans-serif" font-size="10px" font-style="normal" font-weight="normal" text-decoration="normal" x="400" y="698" text-anchor="middle" dominant-baseline="text-after-edge" fill-opacity="1">host_postgres_fb02b9d1</text><path fill="rgb(99,102,241)" stroke="rgb(255,0,102)" paint-order="fill stroke markers" d=" M 81 628 L 80.95376000599691 629.1768864359177 L 80.81532510892707 630.3465169756034 L 80.58554880596515 631.5016804578386 L 80.2658477444273 632.6352549156242 L 79.8581929876693 633.7402514854764 L 79.36509786282552 634.8098574960932 L 78.78960246531139 635.8374784707393 L 78.13525491562422 636.8167787843871 L 77.40608948400046 637.7417207249528 L 76.60660171779821 638.6066017177982 L 75.74172072495276 639.4060894840005 L 74.8167787843871 640.1352549156242 L 73.83747847073923 640.7896024653114 L 72.8098574960932 641.3650978628256 L 71.74025148547635 641.8581929876693 L 70.63525491562422 642.2658477444273 L 69.50168045783859 642.5855488059651 L 68.34651697560346 642.815325108927 L 67.17688643591768 642.953760005997 L 66 643 L 64.82311356408232 642.953760005997 L 63.653483024396536 642.815325108927 L 62.49831954216142 642.5855488059651 L 61.36474508437579 642.2658477444273 L 60.25974851452365 641.8581929876693 L 59.1901425039068 641.3650978628256 L 58.16252152926077 640.7896024653114 L 57.1832212156129 640.1352549156242 L 56.258279275047244 639.4060894840005 L 55.39339828220179 638.6066017177982 L 54.59391051599954 637.7417207249528 L 53.86474508437579 636.8167787843871 L 53.21039753468862 635.8374784707393 L 52.634902137174485 634.8098574960932 L 52.1418070123307 633.7402514854764 L 51.734152255572695 632.6352549156242 L 51.414451194034854 631.5016804578386 L 51.18467489107294 630.3465169756034 L 51.04623999400308 629.1768864359177 L 51 628 L 51.04623999400308 626.8231135640823 L 51.18467489107293 625.6534830243966 L 51.414451194034854 624.4983195421614 L 51.734152255572695 623.3647450843758 L 52.141807012330695 622.2597485145236 L 52.63490213717448 621.1901425039068 L 53.21039753468862 620.1625215292607 L 53.864745084375784 619.1832212156129 L 54.59391051599953 618.2582792750472 L 55.39339828220179 617.3933982822018 L 56.25827927504724 616.5939105159996 L 57.1832212156129 615.8647450843758 L 58.16252152926077 615.2103975346886 L 59.190142503906806 614.6349021371744 L 60.25974851452367 614.1418070123307 L 61.36474508437581 613.7341522555727 L 62.49831954216145 613.4144511940349 L 63.65348302439657 613.184674891073 L 64.82311356408238 613.046239994003 L 66.00000000000006 613 L 67.17688643591774 613.046239994003 L 68.34651697560352 613.184674891073 L 69.50168045783865 613.4144511940349 L 70.63525491562429 613.7341522555727 L 71.74025148547642 614.1418070123307 L 72.80985749609329 614.6349021371745 L 73.83747847073931 615.2103975346887 L 74.81677878438718 615.8647450843758 L 75.74172072495284 616.5939105159996 L 76.6066017177983 617.3933982822018 L 77.40608948400055 618.2582792750474 L 78.13525491562429 619.183221215613 L 78.78960246531145 620.1625215292609 L 79.36509786282558 621.1901425039069 L 79.85819298766936 622.2597485145238 L 80.26584774442735 623.364745084376 L 80.58554880596519 624.4983195421615 L 80.8153251089271 625.6534830243967 L 80.95376000599694 626.8231135640825 Z" fill-opacity="1" stroke-opacity="1" stroke-miterlimit="10" stroke-width="2"/><text fill="none" stroke="rgb(0,0,0)" font-family="Helvetica Neue, Helvetica, sans-serif" font-size="10px" font-style="normal" font-weight="normal" text-decoration="normal" x="66" y="613" text-anchor="middle" dominant-baseline="text-after-edge" stroke-opacity="1" stroke-linejoin="round" stroke-miterlimit="10" stroke-width="4">AC:L</text><text fill="rgb(255,255,255)" stroke="none" font-family="Helvetica Neue, Helvetica, sans-serif" font-size="10px" font-style="normal" font-weight="normal" text-decoration="normal" x="66" y="613" text-anchor="middle" dominant-baseline="text-after-edge" fill-opacity="1">AC:L</text><path fill="rgb(255,0,102)" stroke="rgb(0,0,0)" paint-order="fill stroke markers" d=" M 228 718 L 227.93064000899537 719.7653296538765 L 227.7229876633906 721.5197754634052 L 227.37832320894773 723.2525206867579 L 226.89877161664094 724.9528823734363 L 226.28728948150396 726.6103772282145 L 225.5476467942383 728.2147862441398 L 224.68440369796707 729.7562177061088 L 223.70288237343632 731.2251681765806 L 222.6091342260007 732.6125810874291 L 221.40990257669733 733.9099025766973 L 220.11258108742913 735.1091342260007 L 218.72516817658064 736.2028823734363 L 217.25621770610886 737.1844036979671 L 215.71478624413982 738.0476467942383 L 214.11037722821453 738.787289481504 L 212.45288237343632 739.3987716166409 L 210.75252068675786 739.8783232089477 L 209.01977546340518 740.2229876633907 L 207.2653296538765 740.4306400089954 L 205.5 740.5 L 203.7346703461235 740.4306400089954 L 201.98022453659482 740.2229876633907 L 200.24747931324214 739.8783232089477 L 198.54711762656368 739.3987716166409 L 196.88962277178547 738.787289481504 L 195.2852137558602 738.0476467942383 L 193.74378229389114 737.1844036979671 L 192.27483182341936 736.2028823734363 L 190.88741891257087 735.1091342260007 L 189.5900974233027 733.9099025766973 L 188.3908657739993 732.6125810874291 L 187.29711762656368 731.2251681765806 L 186.31559630203293 729.7562177061088 L 185.4523532057617 728.2147862441398 L 184.71271051849604 726.6103772282145 L 184.10122838335906 724.9528823734363 L 183.62167679105227 723.2525206867579 L 183.2770123366094 721.5197754634052 L 183.06935999100463 719.7653296538765 L 183 718 L 183.06935999100463 716.2346703461235 L 183.2770123366094 714.4802245365948 L 183.62167679105227 712.7474793132421 L 184.10122838335906 711.0471176265637 L 184.71271051849604 709.3896227717855 L 185.4523532057617 707.7852137558602 L 186.31559630203293 706.2437822938912 L 187.29711762656368 704.7748318234194 L 188.3908657739993 703.3874189125709 L 189.59009742330267 702.0900974233027 L 190.88741891257087 700.8908657739993 L 192.27483182341936 699.7971176265637 L 193.74378229389114 698.8155963020329 L 195.2852137558602 697.9523532057617 L 196.8896227717855 697.212710518496 L 198.5471176265637 696.6012283833591 L 200.24747931324217 696.1216767910523 L 201.98022453659485 695.7770123366093 L 203.73467034612355 695.5693599910046 L 205.50000000000009 695.5 L 207.2653296538766 695.5693599910046 L 209.0197754634053 695.7770123366095 L 210.75252068675798 696.1216767910523 L 212.45288237343644 696.6012283833591 L 214.11037722821465 697.2127105184961 L 215.71478624413993 697.9523532057618 L 217.25621770610897 698.815596302033 L 218.72516817658078 699.7971176265638 L 220.11258108742925 700.8908657739994 L 221.40990257669745 702.0900974233028 L 222.6091342260008 703.387418912571 L 223.70288237343644 704.7748318234195 L 224.68440369796718 706.2437822938913 L 225.54764679423837 707.7852137558604 L 226.28728948150405 709.3896227717856 L 226.89877161664103 711.0471176265639 L 227.3783232089478 712.7474793132424 L 227.72298766339065 714.4802245365951 L 227.9306400089954 716.2346703461237 Z" fill-opacity="1" stroke-opacity="1" stroke-miterlimit="10" stroke-width="2"/><text fill="none" stroke="rgb(0,0,0)" font-family="Helvetica Neue, Helvetica, sans-serif" font-size="10px" font-style="normal" font-weight="normal" text-decoration="normal" x="205.5" y="695.5" text-anchor="middle" dominant-baseline="text-after-edge" stroke-opacity="1" stroke-linejoin="round" stroke-miterlimit="10" stroke-width="4">Hacker</text><text fill="rgb(255,255,255)" stroke="none" font-family="Helvetica Neue, Helvetica, sans-serif" font-size="10px" font-style="normal" font-weight="normal" text-decoration="normal" x="205.5" y="695.5" text-anchor="middle" dominant-baseline="text-after-edge" fill-opacity="1">Hacker</text><path fill="rgb(99,102,241)" stroke="rgb(255,0,102)" paint-order="fill stroke markers" d=" M 81 673 L 80.95376000599691 674.1768864359177 L 80.81532510892707 675.3465169756034 L 80.58554880596515 676.5016804578386 L 80.2658477444273 677.6352549156242 L 79.8581929876693 678.7402514854764 L 79.36509786282552 679.8098574960932 L 78.78960246531139 680.8374784707393 L 78.13525491562422 681.8167787843871 L 77.40608948400046 682.7417207249528 L 76.60660171779821 683.6066017177982 L 75.74172072495276 684.4060894840005 L 74.8167787843871 685.1352549156242 L 73.83747847073923 685.7896024653114 L 72.8098574960932 686.3650978628256 L 71.74025148547635 686.8581929876693 L 70.63525491562422 687.2658477444273 L 69.50168045783859 687.5855488059651 L 68.34651697560346 687.815325108927 L 67.17688643591768 687.953760005997 L 66 688 L 64.82311356408232 687.953760005997 L 63.653483024396536 687.815325108927 L 62.49831954216142 687.5855488059651 L 61.36474508437579 687.2658477444273 L 60.25974851452365 686.8581929876693 L 59.1901425039068 686.3650978628256 L 58.16252152926077 685.7896024653114 L 57.1832212156129 685.1352549156242 L 56.258279275047244 684.4060894840005 L 55.39339828220179 683.6066017177982 L 54.59391051599954 682.7417207249528 L 53.86474508437579 681.8167787843871 L 53.21039753468862 680.8374784707393 L 52.634902137174485 679.8098574960932 L 52.1418070123307 678.7402514854764 L 51.734152255572695 677.6352549156242 L 51.414451194034854 676.5016804578386 L 51.18467489107294 675.3465169756034 L 51.04623999400308 674.1768864359177 L 51 673 L 51.04623999400308 671.8231135640823 L 51.18467489107293 670.6534830243966 L 51.414451194034854 669.4983195421614 L 51.734152255572695 668.3647450843758 L 52.141807012330695 667.2597485145236 L 52.63490213717448 666.1901425039068 L 53.21039753468862 665.1625215292607 L 53.864745084375784 664.1832212156129 L 54.59391051599953 663.2582792750472 L 55.39339828220179 662.3933982822018 L 56.25827927504724 661.5939105159996 L 57.1832212156129 660.8647450843758 L 58.16252152926077 660.2103975346886 L 59.190142503906806 659.6349021371744 L 60.25974851452367 659.1418070123307 L 61.36474508437581 658.7341522555727 L 62.49831954216145 658.4144511940349 L 63.65348302439657 658.184674891073 L 64.82311356408238 658.046239994003 L 66.00000000000006 658 L 67.17688643591774 658.046239994003 L 68.34651697560352 658.184674891073 L 69.50168045783865 658.4144511940349 L 70.63525491562429 658.7341522555727 L 71.74025148547642 659.1418070123307 L 72.80985749609329 659.6349021371745 L 73.83747847073931 660.2103975346887 L 74.81677878438718 660.8647450843758 L 75.74172072495284 661.5939105159996 L 76.6066017177983 662.3933982822018 L 77.40608948400055 663.2582792750474 L 78.13525491562429 664.183221215613 L 78.78960246531145 665.1625215292609 L 79.36509786282558 666.1901425039069 L 79.85819298766936 667.2597485145238 L 80.26584774442735 668.364745084376 L 80.58554880596519 669.4983195421615 L 80.8153251089271 670.6534830243967 L 80.95376000599694 671.8231135640825 Z" fill-opacity="1" stroke-opacity="1" stroke-miterlimit="10" stroke-width="2"/><text fill="none" stroke="rgb(0,0,0)" font-family="Helvetica Neue, Helvetica, sans-serif" font-size="10px" font-style="normal" font-weight="normal" text-decoration="normal" x="66" y="658" text-anchor="middle" dominant-baseline="text-after-edge" stroke-opacity="1" stroke-linejoin="round" stroke-miterlimit="10" stroke-width="4">AV:N</text><text fill="rgb(255,255,255)" stroke="none" font-family="Helvetica Neue, Helvetica, sans-serif" font-size="10px" font-style="normal" font-weight="normal" text-decoration="normal" x="66" y="658" text-anchor="middle" dominant-baseline="text-after-edge" fill-opacity="1">AV:N</text><path fill="rgb(99,102,241)" stroke="rgb(255,0,102)" paint-order="fill stroke markers" d=" M 81 763 L 80.95376000599691 764.1768864359177 L 80.81532510892707 765.3465169756034 L 80.58554880596515 766.5016804578386 L 80.2658477444273 767.6352549156242 L 79.8581929876693 768.7402514854764 L 79.36509786282552 769.8098574960932 L 78.78960246531139 770.8374784707393 L 78.13525491562422 771.8167787843871 L 77.40608948400046 772.7417207249528 L 76.60660171779821 773.6066017177982 L 75.74172072495276 774.4060894840005 L 74.8167787843871 775.1352549156242 L 73.83747847073923 775.7896024653114 L 72.8098574960932 776.3650978628256 L 71.74025148547635 776.8581929876693 L 70.63525491562422 777.2658477444273 L 69.50168045783859 777.5855488059651 L 68.34651697560346 777.815325108927 L 67.17688643591768 777.953760005997 L 66 778 L 64.82311356408232 777.953760005997 L 63.653483024396536 777.815325108927 L 62.49831954216142 777.5855488059651 L 61.36474508437579 777.2658477444273 L 60.25974851452365 776.8581929876693 L 59.1901425039068 776.3650978628256 L 58.16252152926077 775.7896024653114 L 57.1832212156129 775.1352549156242 L 56.258279275047244 774.4060894840005 L 55.39339828220179 773.6066017177982 L 54.59391051599954 772.7417207249528 L 53.86474508437579 771.8167787843871 L 53.21039753468862 770.8374784707393 L 52.634902137174485 769.8098574960932 L 52.1418070123307 768.7402514854764 L 51.734152255572695 767.6352549156242 L 51.414451194034854 766.5016804578386 L 51.18467489107294 765.3465169756034 L 51.04623999400308 764.1768864359177 L 51 763 L 51.04623999400308 761.8231135640823 L 51.18467489107293 760.6534830243966 L 51.414451194034854 759.4983195421614 L 51.734152255572695 758.3647450843758 L 52.141807012330695 757.2597485145236 L 52.63490213717448 756.1901425039068 L 53.21039753468862 755.1625215292607 L 53.864745084375784 754.1832212156129 L 54.59391051599953 753.2582792750472 L 55.39339828220179 752.3933982822018 L 56.25827927504724 751.5939105159996 L 57.1832212156129 750.8647450843758 L 58.16252152926077 750.2103975346886 L 59.190142503906806 749.6349021371744 L 60.25974851452367 749.1418070123307 L 61.36474508437581 748.7341522555727 L 62.49831954216145 748.4144511940349 L 63.65348302439657 748.184674891073 L 64.82311356408238 748.046239994003 L 66.00000000000006 748 L 67.17688643591774 748.046239994003 L 68.34651697560352 748.184674891073 L 69.50168045783865 748.4144511940349 L 70.63525491562429 748.7341522555727 L 71.74025148547642 749.1418070123307 L 72.80985749609329 749.6349021371745 L 73.83747847073931 750.2103975346887 L 74.81677878438718 750.8647450843758 L 75.74172072495284 751.5939105159996 L 76.6066017177983 752.3933982822018 L 77.40608948400055 753.2582792750474 L 78.13525491562429 754.183221215613 L 78.78960246531145 755.1625215292609 L 79.36509786282558 756.1901425039069 L 79.85819298766936 757.2597485145238 L 80.26584774442735 758.364745084376 L 80.58554880596519 759.4983195421615 L 80.8153251089271 760.6534830243967 L 80.95376000599694 761.8231135640825 Z" fill-opacity="1" stroke-opacity="1" stroke-miterlimit="10" stroke-width="2"/><text fill="none" stroke="rgb(0,0,0)" font-family="Helvetica Neue, Helvetica, sans-serif" font-size="10px" font-style="normal" font-weight="normal" text-decoration="normal" x="66" y="748" text-anchor="middle" dominant-baseline="text-after-edge" stroke-opacity="1" stroke-linejoin="round" stroke-miterlimit="10" stroke-width="4">PR:N</text><text fill="rgb(255,255,255)" stroke="none" font-family="Helvetica Neue, Helvetica, sans-serif" font-size="10px" font-style="normal" font-weight="normal" text-decoration="normal" x="66" y="748" text-anchor="middle" dominant-baseline="text-after-edge" fill-opacity="1">PR:N</text><path fill="rgb(234,179,8)" stroke="rgb(0,0,0)" paint-order="fill stroke markers" d=" M 557 1310.5 L 556.9460533403297 1311.8730341752373 L 556.7845459604149 1313.2376031382041 L 556.5164736069594 1314.5852938674784 L 556.1434890351652 1315.9077974015615 L 555.6678918189475 1317.196960066389 L 555.0926141732964 1318.444833745442 L 554.4212028761966 1319.643724882529 L 553.6577974015615 1320.7862419151184 L 552.8071043980005 1321.8653408457783 L 551.8743686707646 1322.8743686707646 L 550.8653408457782 1323.8071043980005 L 549.7862419151182 1324.6577974015615 L 548.6437248825291 1325.4212028761965 L 547.4448337454421 1326.0926141732964 L 546.1969600663891 1326.6678918189475 L 544.9077974015615 1327.1434890351652 L 543.5852938674783 1327.5164736069594 L 542.237603138204 1327.784545960415 L 540.8730341752373 1327.9460533403299 L 539.5 1328 L 538.1269658247627 1327.9460533403299 L 536.762396861796 1327.784545960415 L 535.4147061325217 1327.5164736069594 L 534.0922025984385 1327.1434890351652 L 532.8030399336109 1326.6678918189475 L 531.5551662545579 1326.0926141732964 L 530.3562751174709 1325.4212028761965 L 529.2137580848818 1324.6577974015615 L 528.1346591542218 1323.8071043980005 L 527.1256313292354 1322.8743686707646 L 526.1928956019995 1321.8653408457783 L 525.3422025984385 1320.7862419151184 L 524.5787971238034 1319.643724882529 L 523.9073858267036 1318.444833745442 L 523.3321081810525 1317.196960066389 L 522.8565109648348 1315.9077974015615 L 522.4835263930406 1314.5852938674784 L 522.2154540395851 1313.2376031382041 L 522.0539466596703 1311.8730341752373 L 522 1310.5 L 522.0539466596703 1309.1269658247627 L 522.2154540395851 1307.7623968617959 L 522.4835263930406 1306.4147061325216 L 522.8565109648348 1305.0922025984385 L 523.3321081810525 1303.803039933611 L 523.9073858267036 1302.555166254558 L 524.5787971238034 1301.356275117471 L 525.3422025984385 1300.2137580848816 L 526.1928956019995 1299.1346591542217 L 527.1256313292354 1298.1256313292354 L 528.1346591542218 1297.1928956019995 L 529.2137580848818 1296.3422025984385 L 530.3562751174709 1295.5787971238033 L 531.5551662545579 1294.9073858267036 L 532.803039933611 1294.3321081810525 L 534.0922025984385 1293.8565109648348 L 535.4147061325217 1293.4835263930406 L 536.762396861796 1293.215454039585 L 538.1269658247628 1293.0539466596701 L 539.5000000000001 1293 L 540.8730341752373 1293.0539466596704 L 542.2376031382041 1293.2154540395852 L 543.5852938674784 1293.4835263930406 L 544.9077974015617 1293.8565109648348 L 546.1969600663891 1294.3321081810525 L 547.4448337454421 1294.9073858267036 L 548.6437248825292 1295.5787971238035 L 549.7862419151184 1296.3422025984385 L 550.8653408457783 1297.1928956019995 L 551.8743686707646 1298.1256313292356 L 552.8071043980007 1299.134659154222 L 553.6577974015617 1300.2137580848819 L 554.4212028761967 1301.3562751174711 L 555.0926141732965 1302.5551662545581 L 555.6678918189476 1303.803039933611 L 556.1434890351652 1305.0922025984387 L 556.5164736069594 1306.4147061325218 L 556.7845459604149 1307.762396861796 L 556.9460533403297 1309.126965824763 Z" fill-opacity="1" stroke-opacity="1" stroke-miterlimit="10" stroke-width="2"/><text fill="none" stroke="rgb(0,0,0)" font-family="Helvetica Neue, Helvetica, sans-serif" font-size="10px" font-style="normal" font-weight="normal" text-decoration="normal" x="539.5" y="1293" text-anchor="middle" dominant-baseline="text-after-edge" stroke-opacity="1" stroke-linejoin="round" stroke-miterlimit="10" stroke-width="4">CVE-2025-68121</text><text fill="rgb(255,255,255)" stroke="none" font-family="Helvetica Neue, Helvetica, sans-serif" font-size="10px" font-style="normal" font-weight="normal" text-decoration="normal" x="539.5" y="1293" text-anchor="middle" dominant-baseline="text-after-edge" fill-opacity="1">CVE-2025-68121</text><path fill="rgb(99,102,241)" stroke="rgb(0,0,0)" paint-order="fill stroke markers" d=" M 689 777 L 688.953760005997 778.1768864359177 L 688.815325108927 779.3465169756034 L 688.5855488059651 780.5016804578386 L 688.2658477444273 781.6352549156242 L 687.8581929876693 782.7402514854764 L 687.3650978628256 783.8098574960932 L 686.7896024653114 784.8374784707393 L 686.1352549156242 785.8167787843871 L 685.4060894840005 786.7417207249528 L 684.6066017177982 787.6066017177982 L 683.7417207249528 788.4060894840005 L 682.8167787843871 789.1352549156242 L 681.8374784707393 789.7896024653114 L 680.8098574960932 790.3650978628256 L 679.7402514854764 790.8581929876693 L 678.6352549156242 791.2658477444273 L 677.5016804578386 791.5855488059651 L 676.3465169756034 791.815325108927 L 675.1768864359177 791.953760005997 L 674 792 L 672.8231135640823 791.953760005997 L 671.6534830243966 791.815325108927 L 670.4983195421614 791.5855488059651 L 669.3647450843758 791.2658477444273 L 668.2597485145236 790.8581929876693 L 667.1901425039068 790.3650978628256 L 666.1625215292607 789.7896024653114 L 665.1832212156129 789.1352549156242 L 664.2582792750472 788.4060894840005 L 663.3933982822018 787.6066017177982 L 662.5939105159995 786.7417207249528 L 661.8647450843758 785.8167787843871 L 661.2103975346886 784.8374784707393 L 660.6349021371744 783.8098574960932 L 660.1418070123307 782.7402514854764 L 659.7341522555727 781.6352549156242 L 659.4144511940349 780.5016804578386 L 659.184674891073 779.3465169756034 L 659.046239994003 778.1768864359177 L 659 777 L 659.046239994003 775.8231135640823 L 659.184674891073 774.6534830243966 L 659.4144511940349 773.4983195421614 L 659.7341522555727 772.3647450843758 L 660.1418070123307 771.2597485145236 L 660.6349021371744 770.1901425039068 L 661.2103975346886 769.1625215292607 L 661.8647450843758 768.1832212156129 L 662.5939105159995 767.2582792750472 L 663.3933982822018 766.3933982822018 L 664.2582792750472 765.5939105159996 L 665.1832212156129 764.8647450843758 L 666.1625215292607 764.2103975346886 L 667.1901425039068 763.6349021371744 L 668.2597485145237 763.1418070123307 L 669.3647450843758 762.7341522555727 L 670.4983195421614 762.4144511940349 L 671.6534830243966 762.184674891073 L 672.8231135640824 762.046239994003 L 674 762 L 675.1768864359177 762.046239994003 L 676.3465169756035 762.184674891073 L 677.5016804578387 762.4144511940349 L 678.6352549156243 762.7341522555727 L 679.7402514854764 763.1418070123307 L 680.8098574960933 763.6349021371745 L 681.8374784707394 764.2103975346887 L 682.8167787843872 764.8647450843758 L 683.7417207249529 765.5939105159996 L 684.6066017177983 766.3933982822018 L 685.4060894840005 767.2582792750474 L 686.1352549156243 768.183221215613 L 686.7896024653114 769.1625215292609 L 687.3650978628256 770.1901425039069 L 687.8581929876693 771.2597485145238 L 688.2658477444273 772.364745084376 L 688.5855488059652 773.4983195421615 L 688.8153251089271 774.6534830243967 L 688.953760005997 775.8231135640825 Z" fill-opacity="1" stroke-opacity="1" stroke-miterlimit="10" stroke-width="2"/><text fill="none" stroke="rgb(0,0,0)" font-family="Helvetica Neue, Helvetica, sans-serif" font-size="10px" font-style="normal" font-weight="normal" text-decoration="normal" x="674" y="762" text-anchor="middle" dominant-baseline="text-after-edge" stroke-opacity="1" stroke-linejoin="round" stroke-miterlimit="10" stroke-width="4">AV:L</text><text fill="rgb(255,255,255)" stroke="none" font-family="Helvetica Neue, Helvetica, sans-serif" font-size="10px" font-style="normal" font-weight="normal" text-decoration="normal" x="674" y="762" text-anchor="middle" dominant-baseline="text-after-edge" fill-opacity="1">AV:L</text><path fill="rgb(99,102,241)" stroke="rgb(0,0,0)" paint-order="fill stroke markers" d=" M 689 859 L 688.953760005997 860.1768864359177 L 688.815325108927 861.3465169756034 L 688.5855488059651 862.5016804578386 L 688.2658477444273 863.6352549156242 L 687.8581929876693 864.7402514854764 L 687.3650978628256 865.8098574960932 L 686.7896024653114 866.8374784707393 L 686.1352549156242 867.8167787843871 L 685.4060894840005 868.7417207249528 L 684.6066017177982 869.6066017177982 L 683.7417207249528 870.4060894840005 L 682.8167787843871 871.1352549156242 L 681.8374784707393 871.7896024653114 L 680.8098574960932 872.3650978628256 L 679.7402514854764 872.8581929876693 L 678.6352549156242 873.2658477444273 L 677.5016804578386 873.5855488059651 L 676.3465169756034 873.815325108927 L 675.1768864359177 873.953760005997 L 674 874 L 672.8231135640823 873.953760005997 L 671.6534830243966 873.815325108927 L 670.4983195421614 873.5855488059651 L 669.3647450843758 873.2658477444273 L 668.2597485145236 872.8581929876693 L 667.1901425039068 872.3650978628256 L 666.1625215292607 871.7896024653114 L 665.1832212156129 871.1352549156242 L 664.2582792750472 870.4060894840005 L 663.3933982822018 869.6066017177982 L 662.5939105159995 868.7417207249528 L 661.8647450843758 867.8167787843871 L 661.2103975346886 866.8374784707393 L 660.6349021371744 865.8098574960932 L 660.1418070123307 864.7402514854764 L 659.7341522555727 863.6352549156242 L 659.4144511940349 862.5016804578386 L 659.184674891073 861.3465169756034 L 659.046239994003 860.1768864359177 L 659 859 L 659.046239994003 857.8231135640823 L 659.184674891073 856.6534830243966 L 659.4144511940349 855.4983195421614 L 659.7341522555727 854.3647450843758 L 660.1418070123307 853.2597485145236 L 660.6349021371744 852.1901425039068 L 661.2103975346886 851.1625215292607 L 661.8647450843758 850.1832212156129 L 662.5939105159995 849.2582792750472 L 663.3933982822018 848.3933982822018 L 664.2582792750472 847.5939105159996 L 665.1832212156129 846.8647450843758 L 666.1625215292607 846.2103975346886 L 667.1901425039068 845.6349021371744 L 668.2597485145237 845.1418070123307 L 669.3647450843758 844.7341522555727 L 670.4983195421614 844.4144511940349 L 671.6534830243966 844.184674891073 L 672.8231135640824 844.046239994003 L 674 844 L 675.1768864359177 844.046239994003 L 676.3465169756035 844.184674891073 L 677.5016804578387 844.4144511940349 L 678.6352549156243 844.7341522555727 L 679.7402514854764 845.1418070123307 L 680.8098574960933 845.6349021371745 L 681.8374784707394 846.2103975346887 L 682.8167787843872 846.8647450843758 L 683.7417207249529 847.5939105159996 L 684.6066017177983 848.3933982822018 L 685.4060894840005 849.2582792750474 L 686.1352549156243 850.183221215613 L 686.7896024653114 851.1625215292609 L 687.3650978628256 852.1901425039069 L 687.8581929876693 853.2597485145238 L 688.2658477444273 854.364745084376 L 688.5855488059652 855.4983195421615 L 688.8153251089271 856.6534830243967 L 688.953760005997 857.8231135640825 Z" fill-opacity="1" stroke-opacity="1" stroke-miterlimit="10" stroke-width="2"/><text fill="none" stroke="rgb(0,0,0)" font-family="Helvetica Neue, Helvetica, sans-serif" font-size="10px" font-style="normal" font-weight="normal" text-decoration="normal" x="674" y="844" text-anchor="middle" dominant-baseline="text-after-edge" stroke-opacity="1" stroke-linejoin="round" stroke-miterlimit="10" stroke-width="4">PR:H</text><text fill="rgb(255,255,255)" stroke="none" font-family="Helvetica Neue, Helvetica, sans-serif" font-size="10px" font-style="normal" font-weight="normal" text-decoration="normal" x="674" y="844" text-anchor="middle" dominant-baseline="text-after-edge" fill-opacity="1">PR:H</text><path fill="rgb(255,0,0)" stroke="rgb(255,215,0)" paint-order="fill stroke markers" d=" M 954 793 L 944.7343318831332 807.2299193548821 L 929 812.0983005625053 L 939.0078340584333 825.7612555886155 L 938.5491502812527 843 L 954 837.2142512380153 L 969.4508497187473 843 L 968.9921659415667 825.7612555886155 L 979 812.0983005625053 L 963.2656681168668 807.2299193548821 Z" fill-opacity="1" stroke-opacity="1" stroke-miterlimit="10" stroke-width="4"/><text fill="none" stroke="rgb(0,0,0)" font-family="Helvetica Neue, Helvetica, sans-serif" font-size="10px" font-style="normal" font-weight="bold" text-decoration="normal" x="954" y="793" text-anchor="middle" dominant-baseline="text-after-edge" stroke-opacity="1" stroke-linejoin="round" stroke-miterlimit="10" stroke-width="4">EXPLOITED</text><text fill="rgb(255,255,255)" stroke="none" font-family="Helvetica Neue, Helvetica, sans-serif" font-size="10px" font-style="normal" font-weight="bold" text-decoration="normal" x="954" y="793" text-anchor="middle" dominant-baseline="text-after-edge" fill-opacity="1">EXPLOITED</text><path fill="rgb(234,179,8)" stroke="rgb(0,0,0)" paint-order="fill stroke markers" d=" M 557 1173.5 L 556.9460533403297 1174.8730341752373 L 556.7845459604149 1176.2376031382041 L 556.5164736069594 1177.5852938674784 L 556.1434890351652 1178.9077974015615 L 555.6678918189475 1180.196960066389 L 555.0926141732964 1181.444833745442 L 554.4212028761966 1182.643724882529 L 553.6577974015615 1183.7862419151184 L 552.8071043980005 1184.8653408457783 L 551.8743686707646 1185.8743686707646 L 550.8653408457782 1186.8071043980005 L 549.7862419151182 1187.6577974015615 L 548.6437248825291 1188.4212028761965 L 547.4448337454421 1189.0926141732964 L 546.1969600663891 1189.6678918189475 L 544.9077974015615 1190.1434890351652 L 543.5852938674783 1190.5164736069594 L 542.237603138204 1190.784545960415 L 540.8730341752373 1190.9460533403299 L 539.5 1191 L 538.1269658247627 1190.9460533403299 L 536.762396861796 1190.784545960415 L 535.4147061325217 1190.5164736069594 L 534.0922025984385 1190.1434890351652 L 532.8030399336109 1189.6678918189475 L 531.5551662545579 1189.0926141732964 L 530.3562751174709 1188.4212028761965 L 529.2137580848818 1187.6577974015615 L 528.1346591542218 1186.8071043980005 L 527.1256313292354 1185.8743686707646 L 526.1928956019995 1184.8653408457783 L 525.3422025984385 1183.7862419151184 L 524.5787971238034 1182.643724882529 L 523.9073858267036 1181.444833745442 L 523.3321081810525 1180.196960066389 L 522.8565109648348 1178.9077974015615 L 522.4835263930406 1177.5852938674784 L 522.2154540395851 1176.2376031382041 L 522.0539466596703 1174.8730341752373 L 522 1173.5 L 522.0539466596703 1172.1269658247627 L 522.2154540395851 1170.7623968617959 L 522.4835263930406 1169.4147061325216 L 522.8565109648348 1168.0922025984385 L 523.3321081810525 1166.803039933611 L 523.9073858267036 1165.555166254558 L 524.5787971238034 1164.356275117471 L 525.3422025984385 1163.2137580848816 L 526.1928956019995 1162.1346591542217 L 527.1256313292354 1161.1256313292354 L 528.1346591542218 1160.1928956019995 L 529.2137580848818 1159.3422025984385 L 530.3562751174709 1158.5787971238033 L 531.5551662545579 1157.9073858267036 L 532.803039933611 1157.3321081810525 L 534.0922025984385 1156.8565109648348 L 535.4147061325217 1156.4835263930406 L 536.762396861796 1156.215454039585 L 538.1269658247628 1156.0539466596701 L 539.5000000000001 1156 L 540.8730341752373 1156.0539466596704 L 542.2376031382041 1156.2154540395852 L 543.5852938674784 1156.4835263930406 L 544.9077974015617 1156.8565109648348 L 546.1969600663891 1157.3321081810525 L 547.4448337454421 1157.9073858267036 L 548.6437248825292 1158.5787971238035 L 549.7862419151184 1159.3422025984385 L 550.8653408457783 1160.1928956019995 L 551.8743686707646 1161.1256313292356 L 552.8071043980007 1162.134659154222 L 553.6577974015617 1163.2137580848819 L 554.4212028761967 1164.3562751174711 L 555.0926141732965 1165.5551662545581 L 555.6678918189476 1166.803039933611 L 556.1434890351652 1168.0922025984387 L 556.5164736069594 1169.4147061325218 L 556.7845459604149 1170.762396861796 L 556.9460533403297 1172.126965824763 Z" fill-opacity="1" stroke-opacity="1" stroke-miterlimit="10" stroke-width="2"/><text fill="none" stroke="rgb(0,0,0)" font-family="Helvetica Neue, Helvetica, sans-serif" font-size="10px" font-style="normal" font-weight="normal" text-decoration="normal" x="539.5" y="1156" text-anchor="middle" dominant-baseline="text-after-edge" stroke-opacity="1" stroke-linejoin="round" stroke-miterlimit="10" stroke-width="4">CVE-2025-61729</text><text fill="rgb(255,255,255)" stroke="none" font-family="Helvetica Neue, Helvetica, sans-serif" font-size="10px" font-style="normal" font-weight="normal" text-decoration="normal" x="539.5" y="1156" text-anchor="middle" dominant-baseline="text-after-edge" fill-opacity="1">CVE-2025-61729</text><path fill="rgb(99,102,241)" stroke="rgb(255,0,102)" paint-order="fill stroke markers" d=" M 81 808 L 80.95376000599691 809.1768864359177 L 80.81532510892707 810.3465169756034 L 80.58554880596515 811.5016804578386 L 80.2658477444273 812.6352549156242 L 79.8581929876693 813.7402514854764 L 79.36509786282552 814.8098574960932 L 78.78960246531139 815.8374784707393 L 78.13525491562422 816.8167787843871 L 77.40608948400046 817.7417207249528 L 76.60660171779821 818.6066017177982 L 75.74172072495276 819.4060894840005 L 74.8167787843871 820.1352549156242 L 73.83747847073923 820.7896024653114 L 72.8098574960932 821.3650978628256 L 71.74025148547635 821.8581929876693 L 70.63525491562422 822.2658477444273 L 69.50168045783859 822.5855488059651 L 68.34651697560346 822.815325108927 L 67.17688643591768 822.953760005997 L 66 823 L 64.82311356408232 822.953760005997 L 63.653483024396536 822.815325108927 L 62.49831954216142 822.5855488059651 L 61.36474508437579 822.2658477444273 L 60.25974851452365 821.8581929876693 L 59.1901425039068 821.3650978628256 L 58.16252152926077 820.7896024653114 L 57.1832212156129 820.1352549156242 L 56.258279275047244 819.4060894840005 L 55.39339828220179 818.6066017177982 L 54.59391051599954 817.7417207249528 L 53.86474508437579 816.8167787843871 L 53.21039753468862 815.8374784707393 L 52.634902137174485 814.8098574960932 L 52.1418070123307 813.7402514854764 L 51.734152255572695 812.6352549156242 L 51.414451194034854 811.5016804578386 L 51.18467489107294 810.3465169756034 L 51.04623999400308 809.1768864359177 L 51 808 L 51.04623999400308 806.8231135640823 L 51.18467489107293 805.6534830243966 L 51.414451194034854 804.4983195421614 L 51.734152255572695 803.3647450843758 L 52.141807012330695 802.2597485145236 L 52.63490213717448 801.1901425039068 L 53.21039753468862 800.1625215292607 L 53.864745084375784 799.1832212156129 L 54.59391051599953 798.2582792750472 L 55.39339828220179 797.3933982822018 L 56.25827927504724 796.5939105159996 L 57.1832212156129 795.8647450843758 L 58.16252152926077 795.2103975346886 L 59.190142503906806 794.6349021371744 L 60.25974851452367 794.1418070123307 L 61.36474508437581 793.7341522555727 L 62.49831954216145 793.4144511940349 L 63.65348302439657 793.184674891073 L 64.82311356408238 793.046239994003 L 66.00000000000006 793 L 67.17688643591774 793.046239994003 L 68.34651697560352 793.184674891073 L 69.50168045783865 793.4144511940349 L 70.63525491562429 793.7341522555727 L 71.74025148547642 794.1418070123307 L 72.80985749609329 794.6349021371745 L 73.83747847073931 795.2103975346887 L 74.81677878438718 795.8647450843758 L 75.74172072495284 796.5939105159996 L 76.6066017177983 797.3933982822018 L 77.40608948400055 798.2582792750474 L 78.13525491562429 799.183221215613 L 78.78960246531145 800.1625215292609 L 79.36509786282558 801.1901425039069 L 79.85819298766936 802.2597485145238 L 80.26584774442735 803.364745084376 L 80.58554880596519 804.4983195421615 L 80.8153251089271 805.6534830243967 L 80.95376000599694 806.8231135640825 Z" fill-opacity="1" stroke-opacity="1" stroke-miterlimit="10" stroke-width="2"/><text fill="none" stroke="rgb(0,0,0)" font-family="Helvetica Neue, Helvetica, sans-serif" font-size="10px" font-style="normal" font-weight="normal" text-decoration="normal" x="66" y="793" text-anchor="middle" dominant-baseline="text-after-edge" stroke-opacity="1" stroke-linejoin="round" stroke-miterlimit="10" stroke-width="4">UI:N</text><text fill="rgb(255,255,255)" stroke="none" font-family="Helvetica Neue, Helvetica, sans-serif" font-size="10px" font-style="normal" font-weight="normal" text-decoration="normal" x="66" y="793" text-anchor="middle" dominant-baseline="text-after-edge" fill-opacity="1">UI:N</text><path fill="rgb(234,179,8)" stroke="rgb(0,0,0)" paint-order="fill stroke markers" d=" M 557 986.5 L 556.9460533403297 987.8730341752373 L 556.7845459604149 989.237603138204 L 556.5164736069594 990.5852938674783 L 556.1434890351652 991.9077974015615 L 555.6678918189475 993.1969600663891 L 555.0926141732964 994.4448337454421 L 554.4212028761966 995.6437248825291 L 553.6577974015615 996.7862419151182 L 552.8071043980005 997.8653408457782 L 551.8743686707646 998.8743686707646 L 550.8653408457782 999.8071043980005 L 549.7862419151182 1000.6577974015615 L 548.6437248825291 1001.4212028761966 L 547.4448337454421 1002.0926141732964 L 546.1969600663891 1002.6678918189475 L 544.9077974015615 1003.1434890351652 L 543.5852938674783 1003.5164736069594 L 542.237603138204 1003.7845459604149 L 540.8730341752373 1003.9460533403297 L 539.5 1004 L 538.1269658247627 1003.9460533403297 L 536.762396861796 1003.7845459604149 L 535.4147061325217 1003.5164736069594 L 534.0922025984385 1003.1434890351652 L 532.8030399336109 1002.6678918189475 L 531.5551662545579 1002.0926141732964 L 530.3562751174709 1001.4212028761966 L 529.2137580848818 1000.6577974015615 L 528.1346591542218 999.8071043980005 L 527.1256313292354 998.8743686707646 L 526.1928956019995 997.8653408457782 L 525.3422025984385 996.7862419151182 L 524.5787971238034 995.6437248825291 L 523.9073858267036 994.4448337454421 L 523.3321081810525 993.1969600663891 L 522.8565109648348 991.9077974015615 L 522.4835263930406 990.5852938674783 L 522.2154540395851 989.237603138204 L 522.0539466596703 987.8730341752373 L 522 986.5 L 522.0539466596703 985.1269658247627 L 522.2154540395851 983.762396861796 L 522.4835263930406 982.4147061325217 L 522.8565109648348 981.0922025984385 L 523.3321081810525 979.8030399336109 L 523.9073858267036 978.5551662545579 L 524.5787971238034 977.3562751174709 L 525.3422025984385 976.2137580848818 L 526.1928956019995 975.1346591542218 L 527.1256313292354 974.1256313292354 L 528.1346591542218 973.1928956019995 L 529.2137580848818 972.3422025984385 L 530.3562751174709 971.5787971238034 L 531.5551662545579 970.9073858267036 L 532.803039933611 970.3321081810525 L 534.0922025984385 969.8565109648348 L 535.4147061325217 969.4835263930406 L 536.762396861796 969.2154540395851 L 538.1269658247628 969.0539466596703 L 539.5000000000001 969 L 540.8730341752373 969.0539466596703 L 542.2376031382041 969.2154540395851 L 543.5852938674784 969.4835263930406 L 544.9077974015617 969.8565109648348 L 546.1969600663891 970.3321081810525 L 547.4448337454421 970.9073858267036 L 548.6437248825292 971.5787971238035 L 549.7862419151184 972.3422025984385 L 550.8653408457783 973.1928956019996 L 551.8743686707646 974.1256313292355 L 552.8071043980007 975.1346591542219 L 553.6577974015617 976.2137580848819 L 554.4212028761967 977.356275117471 L 555.0926141732965 978.5551662545581 L 555.6678918189476 979.8030399336111 L 556.1434890351652 981.0922025984386 L 556.5164736069594 982.4147061325218 L 556.7845459604149 983.7623968617961 L 556.9460533403297 985.1269658247629 Z" fill-opacity="1" stroke-opacity="1" stroke-miterlimit="10" stroke-width="2"/><text fill="none" stroke="rgb(0,0,0)" font-family="Helvetica Neue, Helvetica, sans-serif" font-size="10px" font-style="normal" font-weight="normal" text-decoration="normal" x="539.5" y="969" text-anchor="middle" dominant-baseline="text-after-edge" stroke-opacity="1" stroke-linejoin="round" stroke-miterlimit="10" stroke-width="4">CVE-2026-32281</text><text fill="rgb(255,255,255)" stroke="none" font-family="Helvetica Neue, Helvetica, sans-serif" font-size="10px" font-style="normal" font-weight="normal" text-decoration="normal" x="539.5" y="969" text-anchor="middle" dominant-baseline="text-after-edge" fill-opacity="1">CVE-2026-32281</text><path fill="rgb(234,179,8)" stroke="rgb(0,0,0)" paint-order="fill stroke markers" d=" M 557 649.5 L 556.9460533403297 650.8730341752373 L 556.7845459604149 652.237603138204 L 556.5164736069594 653.5852938674783 L 556.1434890351652 654.9077974015615 L 555.6678918189475 656.1969600663891 L 555.0926141732964 657.4448337454421 L 554.4212028761966 658.6437248825291 L 553.6577974015615 659.7862419151182 L 552.8071043980005 660.8653408457782 L 551.8743686707646 661.8743686707646 L 550.8653408457782 662.8071043980005 L 549.7862419151182 663.6577974015615 L 548.6437248825291 664.4212028761966 L 547.4448337454421 665.0926141732964 L 546.1969600663891 665.6678918189475 L 544.9077974015615 666.1434890351652 L 543.5852938674783 666.5164736069594 L 542.237603138204 666.7845459604149 L 540.8730341752373 666.9460533403297 L 539.5 667 L 538.1269658247627 666.9460533403297 L 536.762396861796 666.7845459604149 L 535.4147061325217 666.5164736069594 L 534.0922025984385 666.1434890351652 L 532.8030399336109 665.6678918189475 L 531.5551662545579 665.0926141732964 L 530.3562751174709 664.4212028761966 L 529.2137580848818 663.6577974015615 L 528.1346591542218 662.8071043980005 L 527.1256313292354 661.8743686707646 L 526.1928956019995 660.8653408457782 L 525.3422025984385 659.7862419151182 L 524.5787971238034 658.6437248825291 L 523.9073858267036 657.4448337454421 L 523.3321081810525 656.1969600663891 L 522.8565109648348 654.9077974015615 L 522.4835263930406 653.5852938674783 L 522.2154540395851 652.237603138204 L 522.0539466596703 650.8730341752373 L 522 649.5 L 522.0539466596703 648.1269658247627 L 522.2154540395851 646.762396861796 L 522.4835263930406 645.4147061325217 L 522.8565109648348 644.0922025984385 L 523.3321081810525 642.8030399336109 L 523.9073858267036 641.5551662545579 L 524.5787971238034 640.3562751174709 L 525.3422025984385 639.2137580848818 L 526.1928956019995 638.1346591542218 L 527.1256313292354 637.1256313292354 L 528.1346591542218 636.1928956019995 L 529.2137580848818 635.3422025984385 L 530.3562751174709 634.5787971238034 L 531.5551662545579 633.9073858267036 L 532.803039933611 633.3321081810525 L 534.0922025984385 632.8565109648348 L 535.4147061325217 632.4835263930406 L 536.762396861796 632.2154540395851 L 538.1269658247628 632.0539466596703 L 539.5000000000001 632 L 540.8730341752373 632.0539466596703 L 542.2376031382041 632.2154540395851 L 543.5852938674784 632.4835263930406 L 544.9077974015617 632.8565109648348 L 546.1969600663891 633.3321081810525 L 547.4448337454421 633.9073858267036 L 548.6437248825292 634.5787971238035 L 549.7862419151184 635.3422025984385 L 550.8653408457783 636.1928956019996 L 551.8743686707646 637.1256313292355 L 552.8071043980007 638.1346591542219 L 553.6577974015617 639.2137580848819 L 554.4212028761967 640.356275117471 L 555.0926141732965 641.5551662545581 L 555.6678918189476 642.8030399336111 L 556.1434890351652 644.0922025984386 L 556.5164736069594 645.4147061325218 L 556.7845459604149 646.7623968617961 L 556.9460533403297 648.1269658247629 Z" fill-opacity="1" stroke-opacity="1" stroke-miterlimit="10" stroke-width="2"/><text fill="none" stroke="rgb(0,0,0)" font-family="Helvetica Neue, Helvetica, sans-serif" font-size="10px" font-style="normal" font-weight="normal" text-decoration="normal" x="539.5" y="632" text-anchor="middle" dominant-baseline="text-after-edge" stroke-opacity="1" stroke-linejoin="round" stroke-miterlimit="10" stroke-width="4">CVE-2025-58188</text><text fill="rgb(255,255,255)" stroke="none" font-family="Helvetica Neue, Helvetica, sans-serif" font-size="10px" font-style="normal" font-weight="normal" text-decoration="normal" x="539.5" y="632" text-anchor="middle" dominant-baseline="text-after-edge" fill-opacity="1">CVE-2025-58188</text><path fill="rgb(234,179,8)" stroke="rgb(0,0,0)" paint-order="fill stroke markers" d=" M 557 562.5 L 556.9460533403297 563.8730341752373 L 556.7845459604149 565.237603138204 L 556.5164736069594 566.5852938674783 L 556.1434890351652 567.9077974015615 L 555.6678918189475 569.1969600663891 L 555.0926141732964 570.4448337454421 L 554.4212028761966 571.6437248825291 L 553.6577974015615 572.7862419151182 L 552.8071043980005 573.8653408457782 L 551.8743686707646 574.8743686707646 L 550.8653408457782 575.8071043980005 L 549.7862419151182 576.6577974015615 L 548.6437248825291 577.4212028761966 L 547.4448337454421 578.0926141732964 L 546.1969600663891 578.6678918189475 L 544.9077974015615 579.1434890351652 L 543.5852938674783 579.5164736069594 L 542.237603138204 579.7845459604149 L 540.8730341752373 579.9460533403297 L 539.5 580 L 538.1269658247627 579.9460533403297 L 536.762396861796 579.7845459604149 L 535.4147061325217 579.5164736069594 L 534.0922025984385 579.1434890351652 L 532.8030399336109 578.6678918189475 L 531.5551662545579 578.0926141732964 L 530.3562751174709 577.4212028761966 L 529.2137580848818 576.6577974015615 L 528.1346591542218 575.8071043980005 L 527.1256313292354 574.8743686707646 L 526.1928956019995 573.8653408457782 L 525.3422025984385 572.7862419151182 L 524.5787971238034 571.6437248825291 L 523.9073858267036 570.4448337454421 L 523.3321081810525 569.1969600663891 L 522.8565109648348 567.9077974015615 L 522.4835263930406 566.5852938674783 L 522.2154540395851 565.237603138204 L 522.0539466596703 563.8730341752373 L 522 562.5 L 522.0539466596703 561.1269658247627 L 522.2154540395851 559.762396861796 L 522.4835263930406 558.4147061325217 L 522.8565109648348 557.0922025984385 L 523.3321081810525 555.8030399336109 L 523.9073858267036 554.5551662545579 L 524.5787971238034 553.3562751174709 L 525.3422025984385 552.2137580848818 L 526.1928956019995 551.1346591542218 L 527.1256313292354 550.1256313292354 L 528.1346591542218 549.1928956019995 L 529.2137580848818 548.3422025984385 L 530.3562751174709 547.5787971238034 L 531.5551662545579 546.9073858267036 L 532.803039933611 546.3321081810525 L 534.0922025984385 545.8565109648348 L 535.4147061325217 545.4835263930406 L 536.762396861796 545.2154540395851 L 538.1269658247628 545.0539466596703 L 539.5000000000001 545 L 540.8730341752373 545.0539466596703 L 542.2376031382041 545.2154540395851 L 543.5852938674784 545.4835263930406 L 544.9077974015617 545.8565109648348 L 546.1969600663891 546.3321081810525 L 547.4448337454421 546.9073858267036 L 548.6437248825292 547.5787971238035 L 549.7862419151184 548.3422025984385 L 550.8653408457783 549.1928956019996 L 551.8743686707646 550.1256313292355 L 552.8071043980007 551.1346591542219 L 553.6577974015617 552.2137580848819 L 554.4212028761967 553.356275117471 L 555.0926141732965 554.5551662545581 L 555.6678918189476 555.8030399336111 L 556.1434890351652 557.0922025984386 L 556.5164736069594 558.4147061325218 L 556.7845459604149 559.7623968617961 L 556.9460533403297 561.1269658247629 Z" fill-opacity="1" stroke-opacity="1" stroke-miterlimit="10" stroke-width="2"/><text fill="none" stroke="rgb(0,0,0)" font-family="Helvetica Neue, Helvetica, sans-serif" font-size="10px" font-style="normal" font-weight="normal" text-decoration="normal" x="539.5" y="545" text-anchor="middle" dominant-baseline="text-after-edge" stroke-opacity="1" stroke-linejoin="round" stroke-miterlimit="10" stroke-width="4">CVE-2025-58189</text><text fill="rgb(255,255,255)" stroke="none" font-family="Helvetica Neue, Helvetica, sans-serif" font-size="10px" font-style="normal" font-weight="normal" text-decoration="normal" x="539.5" y="545" text-anchor="middle" dominant-baseline="text-after-edge" fill-opacity="1">CVE-2025-58189</text><path fill="rgb(234,179,8)" stroke="rgb(0,0,0)" paint-order="fill stroke markers" d=" M 557 325.5 L 556.9460533403297 326.8730341752373 L 556.7845459604149 328.23760313820407 L 556.5164736069594 329.58529386747836 L 556.1434890351652 330.9077974015616 L 555.6678918189475 332.19696006638907 L 555.0926141732964 333.44483374544205 L 554.4212028761966 334.6437248825291 L 553.6577974015615 335.7862419151183 L 552.8071043980005 336.86534084577823 L 551.8743686707646 337.87436867076457 L 550.8653408457782 338.80710439800055 L 549.7862419151182 339.6577974015616 L 548.6437248825291 340.4212028761966 L 547.4448337454421 341.09261417329645 L 546.1969600663891 341.6678918189475 L 544.9077974015615 342.1434890351652 L 543.5852938674783 342.5164736069593 L 542.237603138204 342.7845459604149 L 540.8730341752373 342.94605334032974 L 539.5 343 L 538.1269658247627 342.94605334032974 L 536.762396861796 342.7845459604149 L 535.4147061325217 342.5164736069593 L 534.0922025984385 342.1434890351652 L 532.8030399336109 341.6678918189475 L 531.5551662545579 341.09261417329645 L 530.3562751174709 340.4212028761966 L 529.2137580848818 339.6577974015616 L 528.1346591542218 338.80710439800055 L 527.1256313292354 337.87436867076457 L 526.1928956019995 336.86534084577823 L 525.3422025984385 335.7862419151183 L 524.5787971238034 334.6437248825291 L 523.9073858267036 333.44483374544205 L 523.3321081810525 332.19696006638907 L 522.8565109648348 330.9077974015616 L 522.4835263930406 329.58529386747836 L 522.2154540395851 328.23760313820407 L 522.0539466596703 326.8730341752373 L 522 325.5 L 522.0539466596703 324.1269658247627 L 522.2154540395851 322.76239686179593 L 522.4835263930406 321.41470613252164 L 522.8565109648348 320.0922025984384 L 523.3321081810525 318.80303993361093 L 523.9073858267036 317.55516625455795 L 524.5787971238034 316.3562751174709 L 525.3422025984385 315.2137580848817 L 526.1928956019995 314.13465915422177 L 527.1256313292354 313.12563132923543 L 528.1346591542218 312.19289560199945 L 529.2137580848818 311.3422025984384 L 530.3562751174709 310.5787971238034 L 531.5551662545579 309.90738582670355 L 532.803039933611 309.3321081810525 L 534.0922025984385 308.8565109648348 L 535.4147061325217 308.4835263930407 L 536.762396861796 308.2154540395851 L 538.1269658247628 308.05394665967026 L 539.5000000000001 308 L 540.8730341752373 308.05394665967026 L 542.2376031382041 308.2154540395851 L 543.5852938674784 308.4835263930407 L 544.9077974015617 308.85651096483485 L 546.1969600663891 309.3321081810525 L 547.4448337454421 309.9073858267036 L 548.6437248825292 310.57879712380344 L 549.7862419151184 311.3422025984385 L 550.8653408457783 312.19289560199957 L 551.8743686707646 313.1256313292355 L 552.8071043980007 314.1346591542219 L 553.6577974015617 315.2137580848818 L 554.4212028761967 316.35627511747106 L 555.0926141732965 317.55516625455806 L 555.6678918189476 318.8030399336111 L 556.1434890351652 320.0922025984386 L 556.5164736069594 321.4147061325218 L 556.7845459604149 322.76239686179616 L 556.9460533403297 324.1269658247629 Z" fill-opacity="1" stroke-opacity="1" stroke-miterlimit="10" stroke-width="2"/><text fill="none" stroke="rgb(0,0,0)" font-family="Helvetica Neue, Helvetica, sans-serif" font-size="10px" font-style="normal" font-weight="normal" text-decoration="normal" x="539.5" y="308" text-anchor="middle" dominant-baseline="text-after-edge" stroke-opacity="1" stroke-linejoin="round" stroke-miterlimit="10" stroke-width="4">CVE-2025-61727</text><text fill="rgb(255,255,255)" stroke="none" font-family="Helvetica Neue, Helvetica, sans-serif" font-size="10px" font-style="normal" font-weight="normal" text-decoration="normal" x="539.5" y="308" text-anchor="middle" dominant-baseline="text-after-edge" fill-opacity="1">CVE-2025-61727</text><path fill="rgb(234,179,8)" stroke="rgb(255,102,102)" paint-order="fill stroke markers" d=" M 557 138.5 L 556.9460533403297 139.87303417523728 L 556.7845459604149 141.23760313820404 L 556.5164736069594 142.58529386747836 L 556.1434890351652 143.90779740156157 L 555.6678918189475 145.19696006638907 L 555.0926141732964 146.44483374544205 L 554.4212028761966 147.6437248825291 L 553.6577974015615 148.78624191511827 L 552.8071043980005 149.8653408457782 L 551.8743686707646 150.87436867076457 L 550.8653408457782 151.80710439800055 L 549.7862419151182 152.6577974015616 L 548.6437248825291 153.42120287619662 L 547.4448337454421 154.09261417329643 L 546.1969600663891 154.6678918189475 L 544.9077974015615 155.14348903516517 L 543.5852938674783 155.51647360695935 L 542.237603138204 155.7845459604149 L 540.8730341752373 155.94605334032974 L 539.5 156 L 538.1269658247627 155.94605334032974 L 536.762396861796 155.7845459604149 L 535.4147061325217 155.51647360695935 L 534.0922025984385 155.1434890351652 L 532.8030399336109 154.6678918189475 L 531.5551662545579 154.09261417329643 L 530.3562751174709 153.42120287619662 L 529.2137580848818 152.6577974015616 L 528.1346591542218 151.80710439800055 L 527.1256313292354 150.87436867076457 L 526.1928956019995 149.8653408457782 L 525.3422025984385 148.7862419151183 L 524.5787971238034 147.6437248825291 L 523.9073858267036 146.44483374544208 L 523.3321081810525 145.19696006638907 L 522.8565109648348 143.9077974015616 L 522.4835263930406 142.58529386747836 L 522.2154540395851 141.23760313820404 L 522.0539466596703 139.87303417523728 L 522 138.5 L 522.0539466596703 137.12696582476272 L 522.2154540395851 135.76239686179596 L 522.4835263930406 134.41470613252164 L 522.8565109648348 133.09220259843843 L 523.3321081810525 131.80303993361093 L 523.9073858267036 130.55516625455795 L 524.5787971238034 129.3562751174709 L 525.3422025984385 128.21375808488173 L 526.1928956019995 127.1346591542218 L 527.1256313292354 126.12563132923542 L 528.1346591542218 125.19289560199947 L 529.2137580848818 124.34220259843842 L 530.3562751174709 123.57879712380338 L 531.5551662545579 122.90738582670356 L 532.803039933611 122.33210818105248 L 534.0922025984385 121.8565109648348 L 535.4147061325217 121.48352639304065 L 536.762396861796 121.21545403958508 L 538.1269658247628 121.05394665967026 L 539.5000000000001 121 L 540.8730341752373 121.05394665967026 L 542.2376031382041 121.2154540395851 L 543.5852938674784 121.48352639304068 L 544.9077974015617 121.85651096483484 L 546.1969600663891 122.33210818105252 L 547.4448337454421 122.9073858267036 L 548.6437248825292 123.57879712380344 L 549.7862419151184 124.34220259843849 L 550.8653408457783 125.19289560199954 L 551.8743686707646 126.12563132923552 L 552.8071043980007 127.1346591542219 L 553.6577974015617 128.21375808488185 L 554.4212028761967 129.35627511747103 L 555.0926141732965 130.5551662545581 L 555.6678918189476 131.8030399336111 L 556.1434890351652 133.0922025984386 L 556.5164736069594 134.41470613252184 L 556.7845459604149 135.76239686179616 L 556.9460533403297 137.12696582476292 Z" fill-opacity="0.25" stroke-opacity="0.25" stroke-miterlimit="10" stroke-width="2" stroke-dasharray="4,2"/><text fill="none" stroke="rgb(0,0,0)" font-family="Helvetica Neue, Helvetica, sans-serif" font-size="10px" font-style="normal" font-weight="normal" text-decoration="normal" x="539.5" y="121" text-anchor="middle" dominant-baseline="text-after-edge" stroke-opacity="0.25" stroke-linejoin="round" stroke-miterlimit="10" stroke-width="4">CVE-2026-32289</text><text fill="rgb(255,255,255)" stroke="none" font-family="Helvetica Neue, Helvetica, sans-serif" font-size="10px" font-style="normal" font-weight="normal" text-decoration="normal" x="539.5" y="121" text-anchor="middle" dominant-baseline="text-after-edge" fill-opacity="0.25">CVE-2026-32289</text><path fill="rgb(234,179,8)" stroke="rgb(255,102,102)" paint-order="fill stroke markers" d=" M 826 414 L 825.9460533403297 415.3730341752373 L 825.7845459604149 416.73760313820407 L 825.5164736069594 418.08529386747836 L 825.1434890351652 419.4077974015616 L 824.6678918189475 420.69696006638907 L 824.0926141732964 421.94483374544205 L 823.4212028761966 423.1437248825291 L 822.6577974015615 424.2862419151183 L 821.8071043980005 425.36534084577823 L 820.8743686707646 426.37436867076457 L 819.8653408457782 427.30710439800055 L 818.7862419151182 428.1577974015616 L 817.6437248825291 428.9212028761966 L 816.4448337454421 429.59261417329645 L 815.1969600663891 430.1678918189475 L 813.9077974015615 430.6434890351652 L 812.5852938674783 431.0164736069593 L 811.237603138204 431.2845459604149 L 809.8730341752373 431.44605334032974 L 808.5 431.5 L 807.1269658247627 431.44605334032974 L 805.762396861796 431.2845459604149 L 804.4147061325217 431.0164736069593 L 803.0922025984385 430.6434890351652 L 801.8030399336109 430.1678918189475 L 800.5551662545579 429.59261417329645 L 799.3562751174709 428.9212028761966 L 798.2137580848818 428.1577974015616 L 797.1346591542218 427.30710439800055 L 796.1256313292354 426.37436867076457 L 795.1928956019995 425.36534084577823 L 794.3422025984385 424.2862419151183 L 793.5787971238034 423.1437248825291 L 792.9073858267036 421.94483374544205 L 792.3321081810525 420.69696006638907 L 791.8565109648348 419.4077974015616 L 791.4835263930406 418.08529386747836 L 791.2154540395851 416.73760313820407 L 791.0539466596703 415.3730341752373 L 791 414 L 791.0539466596703 412.6269658247627 L 791.2154540395851 411.26239686179593 L 791.4835263930406 409.91470613252164 L 791.8565109648348 408.5922025984384 L 792.3321081810525 407.30303993361093 L 792.9073858267036 406.05516625455795 L 793.5787971238034 404.8562751174709 L 794.3422025984385 403.7137580848817 L 795.1928956019995 402.63465915422177 L 796.1256313292354 401.62563132923543 L 797.1346591542218 400.69289560199945 L 798.2137580848818 399.8422025984384 L 799.3562751174709 399.0787971238034 L 800.5551662545579 398.40738582670355 L 801.803039933611 397.8321081810525 L 803.0922025984385 397.3565109648348 L 804.4147061325217 396.9835263930407 L 805.762396861796 396.7154540395851 L 807.1269658247628 396.55394665967026 L 808.5000000000001 396.5 L 809.8730341752373 396.55394665967026 L 811.2376031382041 396.7154540395851 L 812.5852938674784 396.9835263930407 L 813.9077974015617 397.35651096483485 L 815.1969600663891 397.8321081810525 L 816.4448337454421 398.4073858267036 L 817.6437248825292 399.07879712380344 L 818.7862419151184 399.8422025984385 L 819.8653408457783 400.69289560199957 L 820.8743686707646 401.6256313292355 L 821.8071043980007 402.6346591542219 L 822.6577974015617 403.7137580848818 L 823.4212028761967 404.85627511747106 L 824.0926141732965 406.05516625455806 L 824.6678918189476 407.3030399336111 L 825.1434890351652 408.5922025984386 L 825.5164736069594 409.9147061325218 L 825.7845459604149 411.26239686179616 L 825.9460533403297 412.6269658247629 Z" fill-opacity="0.25" stroke-opacity="0.25" stroke-miterlimit="10" stroke-width="2" stroke-dasharray="4,2"/><text fill="none" stroke="rgb(0,0,0)" font-family="Helvetica Neue, Helvetica, sans-serif" font-size="10px" font-style="normal" font-weight="normal" text-decoration="normal" x="808.5" y="396.5" text-anchor="middle" dominant-baseline="text-after-edge" stroke-opacity="0.25" stroke-linejoin="round" stroke-miterlimit="10" stroke-width="4">CVE-2026-32282</text><text fill="rgb(255,255,255)" stroke="none" font-family="Helvetica Neue, Helvetica, sans-serif" font-size="10px" font-style="normal" font-weight="normal" text-decoration="normal" x="808.5" y="396.5" text-anchor="middle" dominant-baseline="text-after-edge" fill-opacity="0.25">CVE-2026-32282</text><path fill="rgb(255,0,0)" stroke="rgb(255,215,0)" paint-order="fill stroke markers" d=" M 954 128.5 L 944.7343318831332 142.72991935488204 L 929 147.59830056250524 L 939.0078340584333 161.26125558861554 L 938.5491502812527 178.5 L 954 172.71425123801532 L 969.4508497187473 178.5 L 968.9921659415667 161.26125558861554 L 979 147.59830056250527 L 963.2656681168668 142.72991935488207 Z" fill-opacity="0.25" stroke-opacity="0.25" stroke-miterlimit="10" stroke-width="4" stroke-dasharray="4,2"/><text fill="none" stroke="rgb(0,0,0)" font-family="Helvetica Neue, Helvetica, sans-serif" font-size="10px" font-style="normal" font-weight="bold" text-decoration="normal" x="954" y="128.5" text-anchor="middle" dominant-baseline="text-after-edge" stroke-opacity="0.25" stroke-linejoin="round" stroke-miterlimit="10" stroke-width="4">EXPLOITED</text><text fill="rgb(255,255,255)" stroke="none" font-family="Helvetica Neue, Helvetica, sans-serif" font-size="10px" font-style="normal" font-weight="bold" text-decoration="normal" x="954" y="128.5" text-anchor="middle" dominant-baseline="text-after-edge" fill-opacity="0.25">EXPLOITED</text><path fill="rgb(0,255,136)" stroke="rgb(0,204,102)" paint-order="fill stroke markers" d=" M 1113 796 L 1143 766 L 1113 736 L 1083 766 Z" fill-opacity="1" stroke-opacity="1" stroke-miterlimit="10" stroke-width="4"/><text fill="none" stroke="rgb(0,0,0)" font-family="Helvetica Neue, Helvetica, sans-serif" font-size="14px" font-style="normal" font-weight="bold" text-decoration="normal" x="1113" y="736" text-anchor="middle" dominant-baseline="text-after-edge" stroke-opacity="1" stroke-linejoin="round" stroke-miterlimit="10" stroke-width="6">INSIDE NETWORK</text><text fill="rgb(255,255,255)" stroke="none" font-family="Helvetica Neue, Helvetica, sans-serif" font-size="14px" font-style="normal" font-weight="bold" text-decoration="normal" x="1113" y="736" text-anchor="middle" dominant-baseline="text-after-edge" fill-opacity="1">INSIDE NETWORK</text><g transform="scale(0.5,0.5) translate(64,212)"/></g></g></svg>